M48
;DRILL file {Pcbnew (2013-mar-13)-testing} date Thu 18 Apr 2013 08:41:25 PM ART
;FORMAT={-:-/ absolute / inch / decimal}
FMAT,2
INCH,TZ
T1C0.032
T2C0.039
T3C0.039
T4C0.040
T5C0.120
%
G90
G05
M72
T1
X5.33Y-2.31
X5.33Y-2.41
X5.33Y-2.51
X5.33Y-2.89
X5.33Y-2.99
X5.33Y-3.09
X5.33Y-3.495
X5.33Y-3.595
X5.33Y-3.695
X5.34Y-4.1
X5.34Y-4.2
X5.34Y-4.3
X5.3406Y-4.6764
X5.3406Y-4.7764
X5.3406Y-4.8764
X5.3406Y-5.2472
X5.3406Y-5.3472
X5.3406Y-5.4472
X5.63Y-2.31
X5.63Y-2.41
X5.63Y-2.51
X5.63Y-2.89
X5.63Y-2.99
X5.63Y-3.09
X5.63Y-3.495
X5.63Y-3.595
X5.63Y-3.695
X5.64Y-4.1
X5.64Y-4.2
X5.64Y-4.3
X5.6406Y-4.6764
X5.6406Y-4.7764
X5.6406Y-4.8764
X5.6406Y-5.2472
X5.6406Y-5.3472
X5.6406Y-5.4472
X5.92Y-2.16
X5.92Y-2.56
X5.92Y-2.82
X5.92Y-3.22
X5.92Y-3.46
X5.92Y-3.86
T2
X4.8882Y-3.552
X4.8921Y-5.0638
X4.9Y-2.8906
X4.9394Y-4.4457
X4.9472Y-3.9496
X5.0811Y-3.4693
X5.085Y-4.5677
X5.085Y-5.174
X5.089Y-4.0047
X5.0929Y-2.8354
T3
X4.7201Y-3.7681
X4.7201Y-3.8681
X4.7201Y-3.9681
X4.7201Y-4.0681
X4.8201Y-3.7681
X4.8201Y-3.8681
X4.8201Y-3.9681
X4.8201Y-4.0681
X6.4945Y-2.3642
X6.4945Y-2.4642
X6.4945Y-2.9941
X6.4945Y-3.0941
X6.4945Y-3.624
X6.4945Y-3.724
X6.4945Y-4.1752
X6.4945Y-4.2752
X6.4945Y-4.7657
X6.4945Y-4.8657
X6.4945Y-5.3563
X6.4945Y-5.4563
X6.4945Y-1.7495
X6.4945Y-1.8495
T4
X6.1205Y-4.6764
X6.1205Y-4.7764
X6.1205Y-4.8764
X6.1205Y-5.2472
X6.1205Y-5.3472
X6.1205Y-5.4472
X6.14Y-2.26
X6.14Y-2.36
X6.14Y-2.46
X6.14Y-2.88
X6.14Y-2.98
X6.14Y-3.08
X6.14Y-3.52
X6.14Y-3.62
X6.14Y-3.72
X6.14Y-4.06
X6.14Y-4.16
X6.14Y-4.26
T5
X4.7Y-1.7
X4.7Y-5.6
X6.9Y-1.7
X6.9Y-5.6
T0
M30
