G04 (created by PCBNEW (2013-mar-13)-testing) date Wed 12 Jun 2013 13:54:56 ART*
%MOIN*%
G04 Gerber Fmt 3.4, Leading zero omitted, Abs format*
%FSLAX34Y34*%
G01*
G70*
G90*
G04 APERTURE LIST*
%ADD10C,0.005000*%
%ADD11C,0.015000*%
%ADD12C,0.007874*%
%ADD13C,0.011811*%
G04 APERTURE END LIST*
G54D10*
G54D11*
X69000Y-14000D02*
X69000Y-42500D01*
X46500Y-14000D02*
X69000Y-14000D01*
X46500Y-42500D02*
X46500Y-14000D01*
X69000Y-42500D02*
X46500Y-42500D01*
G54D12*
X51502Y-38572D02*
X51817Y-38887D01*
X51817Y-38572D02*
X51502Y-38887D01*
X51752Y-26532D02*
X52067Y-26847D01*
X52067Y-26532D02*
X51752Y-26847D01*
X51752Y-32472D02*
X52067Y-32787D01*
X52067Y-32472D02*
X51752Y-32787D01*
X52502Y-38572D02*
X52817Y-38887D01*
X52817Y-38572D02*
X52502Y-38887D01*
X52752Y-26532D02*
X53067Y-26847D01*
X53067Y-26532D02*
X52752Y-26847D01*
X52752Y-32472D02*
X53067Y-32787D01*
X53067Y-32472D02*
X52752Y-32787D01*
X53459Y-23100D02*
G75*
G03X53459Y-23100I-159J0D01*
G74*
G01*
X53459Y-24100D02*
G75*
G03X53459Y-24100I-159J0D01*
G74*
G01*
X53459Y-25100D02*
G75*
G03X53459Y-25100I-159J0D01*
G74*
G01*
X53459Y-28900D02*
G75*
G03X53459Y-28900I-159J0D01*
G74*
G01*
X53459Y-29900D02*
G75*
G03X53459Y-29900I-159J0D01*
G74*
G01*
X53459Y-30900D02*
G75*
G03X53459Y-30900I-159J0D01*
G74*
G01*
X53459Y-34950D02*
G75*
G03X53459Y-34950I-159J0D01*
G74*
G01*
X53459Y-35950D02*
G75*
G03X53459Y-35950I-159J0D01*
G74*
G01*
X53459Y-36950D02*
G75*
G03X53459Y-36950I-159J0D01*
G74*
G01*
X56459Y-23100D02*
G75*
G03X56459Y-23100I-159J0D01*
G74*
G01*
X56459Y-24100D02*
G75*
G03X56459Y-24100I-159J0D01*
G74*
G01*
X56459Y-25100D02*
G75*
G03X56459Y-25100I-159J0D01*
G74*
G01*
X56459Y-28900D02*
G75*
G03X56459Y-28900I-159J0D01*
G74*
G01*
X56459Y-29900D02*
G75*
G03X56459Y-29900I-159J0D01*
G74*
G01*
X56459Y-30900D02*
G75*
G03X56459Y-30900I-159J0D01*
G74*
G01*
X56459Y-34950D02*
G75*
G03X56459Y-34950I-159J0D01*
G74*
G01*
X56459Y-35950D02*
G75*
G03X56459Y-35950I-159J0D01*
G74*
G01*
X56459Y-36950D02*
G75*
G03X56459Y-36950I-159J0D01*
G74*
G01*
X58959Y-21800D02*
G75*
G03X58959Y-21800I-159J0D01*
G74*
G01*
X58959Y-25800D02*
G75*
G03X58959Y-25800I-159J0D01*
G74*
G01*
X58959Y-27800D02*
G75*
G03X58959Y-27800I-159J0D01*
G74*
G01*
X58959Y-31800D02*
G75*
G03X58959Y-31800I-159J0D01*
G74*
G01*
X58959Y-34200D02*
G75*
G03X58959Y-34200I-159J0D01*
G74*
G01*
X58959Y-38200D02*
G75*
G03X58959Y-38200I-159J0D01*
G74*
G01*
X48160Y-29218D02*
X48160Y-29611D01*
X47963Y-29415D02*
X48356Y-29415D01*
X49785Y-37003D02*
X49785Y-37396D01*
X49588Y-37200D02*
X49981Y-37200D01*
X50640Y-26368D02*
X50640Y-26761D01*
X50443Y-26565D02*
X50836Y-26565D01*
X50865Y-31783D02*
X50865Y-32176D01*
X50668Y-31980D02*
X51061Y-31980D01*
X49539Y-27139D02*
X49539Y-26860D01*
X49260Y-26860D01*
X49260Y-27139D01*
X49539Y-27139D01*
X49539Y-28139D02*
X49539Y-27860D01*
X49260Y-27860D01*
X49260Y-28139D01*
X49539Y-28139D01*
X49539Y-29139D02*
X49539Y-28860D01*
X49260Y-28860D01*
X49260Y-29139D01*
X49539Y-29139D01*
X49539Y-30139D02*
X49539Y-29860D01*
X49260Y-29860D01*
X49260Y-30139D01*
X49539Y-30139D01*
X49539Y-31139D02*
X49539Y-30860D01*
X49260Y-30860D01*
X49260Y-31139D01*
X49539Y-31139D01*
X61400Y-22800D02*
X61600Y-22600D01*
X61400Y-22400D01*
X61200Y-22600D01*
X61400Y-22800D01*
X61400Y-23800D02*
X61600Y-23600D01*
X61400Y-23400D01*
X61200Y-23600D01*
X61400Y-23800D01*
X61400Y-24800D02*
X61600Y-24600D01*
X61400Y-24400D01*
X61200Y-24600D01*
X61400Y-24800D01*
X61400Y-29000D02*
X61600Y-28800D01*
X61400Y-28600D01*
X61200Y-28800D01*
X61400Y-29000D01*
X61400Y-30000D02*
X61600Y-29800D01*
X61400Y-29600D01*
X61200Y-29800D01*
X61400Y-30000D01*
X61400Y-31000D02*
X61600Y-30800D01*
X61400Y-30600D01*
X61200Y-30800D01*
X61400Y-31000D01*
X61400Y-35400D02*
X61600Y-35200D01*
X61400Y-35000D01*
X61200Y-35200D01*
X61400Y-35400D01*
X61400Y-36400D02*
X61600Y-36200D01*
X61400Y-36000D01*
X61200Y-36200D01*
X61400Y-36400D01*
X61400Y-37400D02*
X61600Y-37200D01*
X61400Y-37000D01*
X61200Y-37200D01*
X61400Y-37400D01*
X60910Y-18200D02*
X61510Y-18800D01*
X61510Y-18200D02*
X60910Y-18800D01*
X61510Y-18500D02*
G75*
G03X61510Y-18500I-300J0D01*
G74*
G01*
X62910Y-18200D02*
X63510Y-18800D01*
X63510Y-18200D02*
X62910Y-18800D01*
X63510Y-18500D02*
G75*
G03X63510Y-18500I-300J0D01*
G74*
G01*
X64640Y-23360D02*
X65240Y-23960D01*
X65240Y-23360D02*
X64640Y-23960D01*
X65240Y-23660D02*
G75*
G03X65240Y-23660I-300J0D01*
G74*
G01*
X64640Y-25360D02*
X65240Y-25960D01*
X65240Y-25360D02*
X64640Y-25960D01*
X65240Y-25660D02*
G75*
G03X65240Y-25660I-300J0D01*
G74*
G01*
X64640Y-35920D02*
X65240Y-36520D01*
X65240Y-35920D02*
X64640Y-36520D01*
X65240Y-36220D02*
G75*
G03X65240Y-36220I-300J0D01*
G74*
G01*
X64640Y-37920D02*
X65240Y-38520D01*
X65240Y-37920D02*
X64640Y-38520D01*
X65240Y-38220D02*
G75*
G03X65240Y-38220I-300J0D01*
G74*
G01*
X64650Y-29620D02*
X65250Y-30220D01*
X65250Y-29620D02*
X64650Y-30220D01*
X65250Y-29920D02*
G75*
G03X65250Y-29920I-300J0D01*
G74*
G01*
X64650Y-31620D02*
X65250Y-32220D01*
X65250Y-31620D02*
X64650Y-32220D01*
X65250Y-31920D02*
G75*
G03X65250Y-31920I-300J0D01*
G74*
G01*
X47400Y-14900D02*
X48600Y-16100D01*
X48600Y-14900D02*
X47400Y-16100D01*
X48000Y-14900D02*
X48000Y-16100D01*
X47400Y-15500D02*
X48600Y-15500D01*
X47400Y-40400D02*
X48600Y-41600D01*
X48600Y-40400D02*
X47400Y-41600D01*
X48000Y-40400D02*
X48000Y-41600D01*
X47400Y-41000D02*
X48600Y-41000D01*
X66900Y-14900D02*
X68100Y-16100D01*
X68100Y-14900D02*
X66900Y-16100D01*
X67500Y-14900D02*
X67500Y-16100D01*
X66900Y-15500D02*
X68100Y-15500D01*
X66900Y-40400D02*
X68100Y-41600D01*
X68100Y-40400D02*
X66900Y-41600D01*
X67500Y-40400D02*
X67500Y-41600D01*
X66900Y-41000D02*
X68100Y-41000D01*
G54D13*
X47493Y-44408D02*
X47493Y-43227D01*
X47774Y-43227D01*
X47943Y-43283D01*
X48056Y-43396D01*
X48112Y-43508D01*
X48168Y-43733D01*
X48168Y-43902D01*
X48112Y-44127D01*
X48056Y-44239D01*
X47943Y-44352D01*
X47774Y-44408D01*
X47493Y-44408D01*
X48674Y-44408D02*
X48674Y-43621D01*
X48674Y-43846D02*
X48730Y-43733D01*
X48787Y-43677D01*
X48899Y-43621D01*
X49012Y-43621D01*
X49405Y-44408D02*
X49405Y-43621D01*
X49405Y-43227D02*
X49349Y-43283D01*
X49405Y-43339D01*
X49462Y-43283D01*
X49405Y-43227D01*
X49405Y-43339D01*
X50137Y-44408D02*
X50024Y-44352D01*
X49968Y-44239D01*
X49968Y-43227D01*
X50755Y-44408D02*
X50643Y-44352D01*
X50586Y-44239D01*
X50586Y-43227D01*
X52105Y-44408D02*
X52105Y-43227D01*
X52499Y-44071D01*
X52892Y-43227D01*
X52892Y-44408D01*
X53961Y-44408D02*
X53961Y-43789D01*
X53905Y-43677D01*
X53792Y-43621D01*
X53567Y-43621D01*
X53455Y-43677D01*
X53961Y-44352D02*
X53849Y-44408D01*
X53567Y-44408D01*
X53455Y-44352D01*
X53399Y-44239D01*
X53399Y-44127D01*
X53455Y-44014D01*
X53567Y-43958D01*
X53849Y-43958D01*
X53961Y-43902D01*
X54523Y-43621D02*
X54523Y-44802D01*
X54523Y-43677D02*
X54636Y-43621D01*
X54861Y-43621D01*
X54973Y-43677D01*
X55030Y-43733D01*
X55086Y-43846D01*
X55086Y-44183D01*
X55030Y-44296D01*
X54973Y-44352D01*
X54861Y-44408D01*
X54636Y-44408D01*
X54523Y-44352D01*
X55592Y-44296D02*
X55648Y-44352D01*
X55592Y-44408D01*
X55536Y-44352D01*
X55592Y-44296D01*
X55592Y-44408D01*
X55592Y-43677D02*
X55648Y-43733D01*
X55592Y-43789D01*
X55536Y-43733D01*
X55592Y-43677D01*
X55592Y-43789D01*
X46109Y-46197D02*
X46424Y-46512D01*
X46424Y-46197D02*
X46109Y-46512D01*
X47718Y-45707D02*
X47831Y-45707D01*
X47943Y-45763D01*
X47999Y-45820D01*
X48056Y-45932D01*
X48112Y-46157D01*
X48112Y-46438D01*
X48056Y-46663D01*
X47999Y-46776D01*
X47943Y-46832D01*
X47831Y-46888D01*
X47718Y-46888D01*
X47606Y-46832D01*
X47549Y-46776D01*
X47493Y-46663D01*
X47437Y-46438D01*
X47437Y-46157D01*
X47493Y-45932D01*
X47549Y-45820D01*
X47606Y-45763D01*
X47718Y-45707D01*
X48618Y-46776D02*
X48674Y-46832D01*
X48618Y-46888D01*
X48562Y-46832D01*
X48618Y-46776D01*
X48618Y-46888D01*
X49349Y-46213D02*
X49237Y-46157D01*
X49180Y-46101D01*
X49124Y-45988D01*
X49124Y-45932D01*
X49180Y-45820D01*
X49237Y-45763D01*
X49349Y-45707D01*
X49574Y-45707D01*
X49687Y-45763D01*
X49743Y-45820D01*
X49799Y-45932D01*
X49799Y-45988D01*
X49743Y-46101D01*
X49687Y-46157D01*
X49574Y-46213D01*
X49349Y-46213D01*
X49237Y-46270D01*
X49180Y-46326D01*
X49124Y-46438D01*
X49124Y-46663D01*
X49180Y-46776D01*
X49237Y-46832D01*
X49349Y-46888D01*
X49574Y-46888D01*
X49687Y-46832D01*
X49743Y-46776D01*
X49799Y-46663D01*
X49799Y-46438D01*
X49743Y-46326D01*
X49687Y-46270D01*
X49574Y-46213D01*
X50530Y-45707D02*
X50643Y-45707D01*
X50755Y-45763D01*
X50811Y-45820D01*
X50868Y-45932D01*
X50924Y-46157D01*
X50924Y-46438D01*
X50868Y-46663D01*
X50811Y-46776D01*
X50755Y-46832D01*
X50643Y-46888D01*
X50530Y-46888D01*
X50418Y-46832D01*
X50362Y-46776D01*
X50305Y-46663D01*
X50249Y-46438D01*
X50249Y-46157D01*
X50305Y-45932D01*
X50362Y-45820D01*
X50418Y-45763D01*
X50530Y-45707D01*
X51430Y-46888D02*
X51430Y-46101D01*
X51430Y-46213D02*
X51486Y-46157D01*
X51599Y-46101D01*
X51768Y-46101D01*
X51880Y-46157D01*
X51936Y-46270D01*
X51936Y-46888D01*
X51936Y-46270D02*
X51993Y-46157D01*
X52105Y-46101D01*
X52274Y-46101D01*
X52386Y-46157D01*
X52442Y-46270D01*
X52442Y-46888D01*
X53005Y-46888D02*
X53005Y-46101D01*
X53005Y-46213D02*
X53061Y-46157D01*
X53174Y-46101D01*
X53342Y-46101D01*
X53455Y-46157D01*
X53511Y-46270D01*
X53511Y-46888D01*
X53511Y-46270D02*
X53567Y-46157D01*
X53680Y-46101D01*
X53849Y-46101D01*
X53961Y-46157D01*
X54017Y-46270D01*
X54017Y-46888D01*
X56323Y-45651D02*
X55311Y-47170D01*
X57842Y-45707D02*
X57954Y-45707D01*
X58067Y-45763D01*
X58123Y-45820D01*
X58179Y-45932D01*
X58236Y-46157D01*
X58236Y-46438D01*
X58179Y-46663D01*
X58123Y-46776D01*
X58067Y-46832D01*
X57954Y-46888D01*
X57842Y-46888D01*
X57729Y-46832D01*
X57673Y-46776D01*
X57617Y-46663D01*
X57561Y-46438D01*
X57561Y-46157D01*
X57617Y-45932D01*
X57673Y-45820D01*
X57729Y-45763D01*
X57842Y-45707D01*
X58742Y-46776D02*
X58798Y-46832D01*
X58742Y-46888D01*
X58685Y-46832D01*
X58742Y-46776D01*
X58742Y-46888D01*
X59529Y-45707D02*
X59642Y-45707D01*
X59754Y-45763D01*
X59810Y-45820D01*
X59867Y-45932D01*
X59923Y-46157D01*
X59923Y-46438D01*
X59867Y-46663D01*
X59810Y-46776D01*
X59754Y-46832D01*
X59642Y-46888D01*
X59529Y-46888D01*
X59417Y-46832D01*
X59360Y-46776D01*
X59304Y-46663D01*
X59248Y-46438D01*
X59248Y-46157D01*
X59304Y-45932D01*
X59360Y-45820D01*
X59417Y-45763D01*
X59529Y-45707D01*
X60317Y-45707D02*
X61048Y-45707D01*
X60654Y-46157D01*
X60823Y-46157D01*
X60935Y-46213D01*
X60991Y-46270D01*
X61048Y-46382D01*
X61048Y-46663D01*
X60991Y-46776D01*
X60935Y-46832D01*
X60823Y-46888D01*
X60485Y-46888D01*
X60373Y-46832D01*
X60317Y-46776D01*
X61498Y-45820D02*
X61554Y-45763D01*
X61666Y-45707D01*
X61948Y-45707D01*
X62060Y-45763D01*
X62116Y-45820D01*
X62173Y-45932D01*
X62173Y-46045D01*
X62116Y-46213D01*
X61441Y-46888D01*
X62173Y-46888D01*
X62622Y-45707D02*
X62622Y-45932D01*
X63072Y-45707D02*
X63072Y-45932D01*
X64816Y-47338D02*
X64760Y-47282D01*
X64647Y-47113D01*
X64591Y-47001D01*
X64535Y-46832D01*
X64478Y-46551D01*
X64478Y-46326D01*
X64535Y-46045D01*
X64591Y-45876D01*
X64647Y-45763D01*
X64760Y-45595D01*
X64816Y-45539D01*
X65772Y-45707D02*
X65547Y-45707D01*
X65435Y-45763D01*
X65378Y-45820D01*
X65266Y-45988D01*
X65210Y-46213D01*
X65210Y-46663D01*
X65266Y-46776D01*
X65322Y-46832D01*
X65435Y-46888D01*
X65660Y-46888D01*
X65772Y-46832D01*
X65828Y-46776D01*
X65885Y-46663D01*
X65885Y-46382D01*
X65828Y-46270D01*
X65772Y-46213D01*
X65660Y-46157D01*
X65435Y-46157D01*
X65322Y-46213D01*
X65266Y-46270D01*
X65210Y-46382D01*
X67291Y-46888D02*
X67291Y-45707D01*
X67797Y-46888D02*
X67797Y-46270D01*
X67741Y-46157D01*
X67628Y-46101D01*
X67459Y-46101D01*
X67347Y-46157D01*
X67291Y-46213D01*
X68528Y-46888D02*
X68416Y-46832D01*
X68359Y-46776D01*
X68303Y-46663D01*
X68303Y-46326D01*
X68359Y-46213D01*
X68416Y-46157D01*
X68528Y-46101D01*
X68697Y-46101D01*
X68809Y-46157D01*
X68865Y-46213D01*
X68922Y-46326D01*
X68922Y-46663D01*
X68865Y-46776D01*
X68809Y-46832D01*
X68697Y-46888D01*
X68528Y-46888D01*
X69597Y-46888D02*
X69484Y-46832D01*
X69428Y-46720D01*
X69428Y-45707D01*
X70496Y-46832D02*
X70384Y-46888D01*
X70159Y-46888D01*
X70047Y-46832D01*
X69990Y-46720D01*
X69990Y-46270D01*
X70047Y-46157D01*
X70159Y-46101D01*
X70384Y-46101D01*
X70496Y-46157D01*
X70553Y-46270D01*
X70553Y-46382D01*
X69990Y-46495D01*
X71003Y-46832D02*
X71115Y-46888D01*
X71340Y-46888D01*
X71453Y-46832D01*
X71509Y-46720D01*
X71509Y-46663D01*
X71453Y-46551D01*
X71340Y-46495D01*
X71171Y-46495D01*
X71059Y-46438D01*
X71003Y-46326D01*
X71003Y-46270D01*
X71059Y-46157D01*
X71171Y-46101D01*
X71340Y-46101D01*
X71453Y-46157D01*
X71903Y-47338D02*
X71959Y-47282D01*
X72071Y-47113D01*
X72128Y-47001D01*
X72184Y-46832D01*
X72240Y-46551D01*
X72240Y-46326D01*
X72184Y-46045D01*
X72128Y-45876D01*
X72071Y-45763D01*
X71959Y-45595D01*
X71903Y-45539D01*
G54D12*
X46424Y-47913D02*
G75*
G03X46424Y-47913I-159J0D01*
G74*
G01*
G54D13*
X47718Y-47266D02*
X47831Y-47266D01*
X47943Y-47323D01*
X47999Y-47379D01*
X48056Y-47491D01*
X48112Y-47716D01*
X48112Y-47997D01*
X48056Y-48222D01*
X47999Y-48335D01*
X47943Y-48391D01*
X47831Y-48447D01*
X47718Y-48447D01*
X47606Y-48391D01*
X47549Y-48335D01*
X47493Y-48222D01*
X47437Y-47997D01*
X47437Y-47716D01*
X47493Y-47491D01*
X47549Y-47379D01*
X47606Y-47323D01*
X47718Y-47266D01*
X48618Y-48335D02*
X48674Y-48391D01*
X48618Y-48447D01*
X48562Y-48391D01*
X48618Y-48335D01*
X48618Y-48447D01*
X49349Y-47772D02*
X49237Y-47716D01*
X49180Y-47660D01*
X49124Y-47548D01*
X49124Y-47491D01*
X49180Y-47379D01*
X49237Y-47323D01*
X49349Y-47266D01*
X49574Y-47266D01*
X49687Y-47323D01*
X49743Y-47379D01*
X49799Y-47491D01*
X49799Y-47548D01*
X49743Y-47660D01*
X49687Y-47716D01*
X49574Y-47772D01*
X49349Y-47772D01*
X49237Y-47829D01*
X49180Y-47885D01*
X49124Y-47997D01*
X49124Y-48222D01*
X49180Y-48335D01*
X49237Y-48391D01*
X49349Y-48447D01*
X49574Y-48447D01*
X49687Y-48391D01*
X49743Y-48335D01*
X49799Y-48222D01*
X49799Y-47997D01*
X49743Y-47885D01*
X49687Y-47829D01*
X49574Y-47772D01*
X50924Y-48447D02*
X50249Y-48447D01*
X50586Y-48447D02*
X50586Y-47266D01*
X50474Y-47435D01*
X50362Y-47548D01*
X50249Y-47604D01*
X51430Y-48447D02*
X51430Y-47660D01*
X51430Y-47772D02*
X51486Y-47716D01*
X51599Y-47660D01*
X51768Y-47660D01*
X51880Y-47716D01*
X51936Y-47829D01*
X51936Y-48447D01*
X51936Y-47829D02*
X51993Y-47716D01*
X52105Y-47660D01*
X52274Y-47660D01*
X52386Y-47716D01*
X52442Y-47829D01*
X52442Y-48447D01*
X53005Y-48447D02*
X53005Y-47660D01*
X53005Y-47772D02*
X53061Y-47716D01*
X53174Y-47660D01*
X53342Y-47660D01*
X53455Y-47716D01*
X53511Y-47829D01*
X53511Y-48447D01*
X53511Y-47829D02*
X53567Y-47716D01*
X53680Y-47660D01*
X53849Y-47660D01*
X53961Y-47716D01*
X54017Y-47829D01*
X54017Y-48447D01*
X56323Y-47210D02*
X55311Y-48729D01*
X57842Y-47266D02*
X57954Y-47266D01*
X58067Y-47323D01*
X58123Y-47379D01*
X58179Y-47491D01*
X58236Y-47716D01*
X58236Y-47997D01*
X58179Y-48222D01*
X58123Y-48335D01*
X58067Y-48391D01*
X57954Y-48447D01*
X57842Y-48447D01*
X57729Y-48391D01*
X57673Y-48335D01*
X57617Y-48222D01*
X57561Y-47997D01*
X57561Y-47716D01*
X57617Y-47491D01*
X57673Y-47379D01*
X57729Y-47323D01*
X57842Y-47266D01*
X58742Y-48335D02*
X58798Y-48391D01*
X58742Y-48447D01*
X58685Y-48391D01*
X58742Y-48335D01*
X58742Y-48447D01*
X59529Y-47266D02*
X59642Y-47266D01*
X59754Y-47323D01*
X59810Y-47379D01*
X59867Y-47491D01*
X59923Y-47716D01*
X59923Y-47997D01*
X59867Y-48222D01*
X59810Y-48335D01*
X59754Y-48391D01*
X59642Y-48447D01*
X59529Y-48447D01*
X59417Y-48391D01*
X59360Y-48335D01*
X59304Y-48222D01*
X59248Y-47997D01*
X59248Y-47716D01*
X59304Y-47491D01*
X59360Y-47379D01*
X59417Y-47323D01*
X59529Y-47266D01*
X60317Y-47266D02*
X61048Y-47266D01*
X60654Y-47716D01*
X60823Y-47716D01*
X60935Y-47772D01*
X60991Y-47829D01*
X61048Y-47941D01*
X61048Y-48222D01*
X60991Y-48335D01*
X60935Y-48391D01*
X60823Y-48447D01*
X60485Y-48447D01*
X60373Y-48391D01*
X60317Y-48335D01*
X61498Y-47379D02*
X61554Y-47323D01*
X61666Y-47266D01*
X61948Y-47266D01*
X62060Y-47323D01*
X62116Y-47379D01*
X62173Y-47491D01*
X62173Y-47604D01*
X62116Y-47772D01*
X61441Y-48447D01*
X62173Y-48447D01*
X62622Y-47266D02*
X62622Y-47491D01*
X63072Y-47266D02*
X63072Y-47491D01*
X64816Y-48897D02*
X64760Y-48841D01*
X64647Y-48672D01*
X64591Y-48560D01*
X64535Y-48391D01*
X64478Y-48110D01*
X64478Y-47885D01*
X64535Y-47604D01*
X64591Y-47435D01*
X64647Y-47323D01*
X64760Y-47154D01*
X64816Y-47098D01*
X65210Y-47379D02*
X65266Y-47323D01*
X65378Y-47266D01*
X65660Y-47266D01*
X65772Y-47323D01*
X65828Y-47379D01*
X65885Y-47491D01*
X65885Y-47604D01*
X65828Y-47772D01*
X65153Y-48447D01*
X65885Y-48447D01*
X66897Y-47660D02*
X66897Y-48447D01*
X66616Y-47210D02*
X66335Y-48054D01*
X67066Y-48054D01*
X68416Y-48447D02*
X68416Y-47266D01*
X68922Y-48447D02*
X68922Y-47829D01*
X68865Y-47716D01*
X68753Y-47660D01*
X68584Y-47660D01*
X68472Y-47716D01*
X68416Y-47772D01*
X69653Y-48447D02*
X69540Y-48391D01*
X69484Y-48335D01*
X69428Y-48222D01*
X69428Y-47885D01*
X69484Y-47772D01*
X69540Y-47716D01*
X69653Y-47660D01*
X69822Y-47660D01*
X69934Y-47716D01*
X69990Y-47772D01*
X70047Y-47885D01*
X70047Y-48222D01*
X69990Y-48335D01*
X69934Y-48391D01*
X69822Y-48447D01*
X69653Y-48447D01*
X70721Y-48447D02*
X70609Y-48391D01*
X70553Y-48279D01*
X70553Y-47266D01*
X71621Y-48391D02*
X71509Y-48447D01*
X71284Y-48447D01*
X71171Y-48391D01*
X71115Y-48279D01*
X71115Y-47829D01*
X71171Y-47716D01*
X71284Y-47660D01*
X71509Y-47660D01*
X71621Y-47716D01*
X71678Y-47829D01*
X71678Y-47941D01*
X71115Y-48054D01*
X72128Y-48391D02*
X72240Y-48447D01*
X72465Y-48447D01*
X72577Y-48391D01*
X72634Y-48279D01*
X72634Y-48222D01*
X72577Y-48110D01*
X72465Y-48054D01*
X72296Y-48054D01*
X72184Y-47997D01*
X72128Y-47885D01*
X72128Y-47829D01*
X72184Y-47716D01*
X72296Y-47660D01*
X72465Y-47660D01*
X72577Y-47716D01*
X73027Y-48897D02*
X73084Y-48841D01*
X73196Y-48672D01*
X73252Y-48560D01*
X73309Y-48391D01*
X73365Y-48110D01*
X73365Y-47885D01*
X73309Y-47604D01*
X73252Y-47435D01*
X73196Y-47323D01*
X73084Y-47154D01*
X73027Y-47098D01*
X46228Y-49275D02*
X46228Y-49669D01*
X46031Y-49472D02*
X46424Y-49472D01*
X48112Y-50006D02*
X47437Y-50006D01*
X47774Y-50006D02*
X47774Y-48825D01*
X47662Y-48994D01*
X47549Y-49107D01*
X47437Y-49163D01*
X48618Y-49894D02*
X48674Y-49950D01*
X48618Y-50006D01*
X48562Y-49950D01*
X48618Y-49894D01*
X48618Y-50006D01*
X49405Y-48825D02*
X49518Y-48825D01*
X49630Y-48882D01*
X49687Y-48938D01*
X49743Y-49050D01*
X49799Y-49275D01*
X49799Y-49557D01*
X49743Y-49781D01*
X49687Y-49894D01*
X49630Y-49950D01*
X49518Y-50006D01*
X49405Y-50006D01*
X49293Y-49950D01*
X49237Y-49894D01*
X49180Y-49781D01*
X49124Y-49557D01*
X49124Y-49275D01*
X49180Y-49050D01*
X49237Y-48938D01*
X49293Y-48882D01*
X49405Y-48825D01*
X50530Y-48825D02*
X50643Y-48825D01*
X50755Y-48882D01*
X50811Y-48938D01*
X50868Y-49050D01*
X50924Y-49275D01*
X50924Y-49557D01*
X50868Y-49781D01*
X50811Y-49894D01*
X50755Y-49950D01*
X50643Y-50006D01*
X50530Y-50006D01*
X50418Y-49950D01*
X50362Y-49894D01*
X50305Y-49781D01*
X50249Y-49557D01*
X50249Y-49275D01*
X50305Y-49050D01*
X50362Y-48938D01*
X50418Y-48882D01*
X50530Y-48825D01*
X51430Y-50006D02*
X51430Y-49219D01*
X51430Y-49332D02*
X51486Y-49275D01*
X51599Y-49219D01*
X51768Y-49219D01*
X51880Y-49275D01*
X51936Y-49388D01*
X51936Y-50006D01*
X51936Y-49388D02*
X51993Y-49275D01*
X52105Y-49219D01*
X52274Y-49219D01*
X52386Y-49275D01*
X52442Y-49388D01*
X52442Y-50006D01*
X53005Y-50006D02*
X53005Y-49219D01*
X53005Y-49332D02*
X53061Y-49275D01*
X53174Y-49219D01*
X53342Y-49219D01*
X53455Y-49275D01*
X53511Y-49388D01*
X53511Y-50006D01*
X53511Y-49388D02*
X53567Y-49275D01*
X53680Y-49219D01*
X53849Y-49219D01*
X53961Y-49275D01*
X54017Y-49388D01*
X54017Y-50006D01*
X56323Y-48769D02*
X55311Y-50288D01*
X57842Y-48825D02*
X57954Y-48825D01*
X58067Y-48882D01*
X58123Y-48938D01*
X58179Y-49050D01*
X58236Y-49275D01*
X58236Y-49557D01*
X58179Y-49781D01*
X58123Y-49894D01*
X58067Y-49950D01*
X57954Y-50006D01*
X57842Y-50006D01*
X57729Y-49950D01*
X57673Y-49894D01*
X57617Y-49781D01*
X57561Y-49557D01*
X57561Y-49275D01*
X57617Y-49050D01*
X57673Y-48938D01*
X57729Y-48882D01*
X57842Y-48825D01*
X58742Y-49894D02*
X58798Y-49950D01*
X58742Y-50006D01*
X58685Y-49950D01*
X58742Y-49894D01*
X58742Y-50006D01*
X59529Y-48825D02*
X59642Y-48825D01*
X59754Y-48882D01*
X59810Y-48938D01*
X59867Y-49050D01*
X59923Y-49275D01*
X59923Y-49557D01*
X59867Y-49781D01*
X59810Y-49894D01*
X59754Y-49950D01*
X59642Y-50006D01*
X59529Y-50006D01*
X59417Y-49950D01*
X59360Y-49894D01*
X59304Y-49781D01*
X59248Y-49557D01*
X59248Y-49275D01*
X59304Y-49050D01*
X59360Y-48938D01*
X59417Y-48882D01*
X59529Y-48825D01*
X60317Y-48825D02*
X61048Y-48825D01*
X60654Y-49275D01*
X60823Y-49275D01*
X60935Y-49332D01*
X60991Y-49388D01*
X61048Y-49500D01*
X61048Y-49781D01*
X60991Y-49894D01*
X60935Y-49950D01*
X60823Y-50006D01*
X60485Y-50006D01*
X60373Y-49950D01*
X60317Y-49894D01*
X61610Y-50006D02*
X61835Y-50006D01*
X61948Y-49950D01*
X62004Y-49894D01*
X62116Y-49725D01*
X62173Y-49500D01*
X62173Y-49050D01*
X62116Y-48938D01*
X62060Y-48882D01*
X61948Y-48825D01*
X61723Y-48825D01*
X61610Y-48882D01*
X61554Y-48938D01*
X61498Y-49050D01*
X61498Y-49332D01*
X61554Y-49444D01*
X61610Y-49500D01*
X61723Y-49557D01*
X61948Y-49557D01*
X62060Y-49500D01*
X62116Y-49444D01*
X62173Y-49332D01*
X62622Y-48825D02*
X62622Y-49050D01*
X63072Y-48825D02*
X63072Y-49050D01*
X64816Y-50456D02*
X64760Y-50400D01*
X64647Y-50231D01*
X64591Y-50119D01*
X64535Y-49950D01*
X64478Y-49669D01*
X64478Y-49444D01*
X64535Y-49163D01*
X64591Y-48994D01*
X64647Y-48882D01*
X64760Y-48713D01*
X64816Y-48657D01*
X65772Y-49219D02*
X65772Y-50006D01*
X65491Y-48769D02*
X65210Y-49613D01*
X65941Y-49613D01*
X67291Y-50006D02*
X67291Y-48825D01*
X67797Y-50006D02*
X67797Y-49388D01*
X67741Y-49275D01*
X67628Y-49219D01*
X67459Y-49219D01*
X67347Y-49275D01*
X67291Y-49332D01*
X68528Y-50006D02*
X68416Y-49950D01*
X68359Y-49894D01*
X68303Y-49781D01*
X68303Y-49444D01*
X68359Y-49332D01*
X68416Y-49275D01*
X68528Y-49219D01*
X68697Y-49219D01*
X68809Y-49275D01*
X68865Y-49332D01*
X68922Y-49444D01*
X68922Y-49781D01*
X68865Y-49894D01*
X68809Y-49950D01*
X68697Y-50006D01*
X68528Y-50006D01*
X69597Y-50006D02*
X69484Y-49950D01*
X69428Y-49838D01*
X69428Y-48825D01*
X70496Y-49950D02*
X70384Y-50006D01*
X70159Y-50006D01*
X70047Y-49950D01*
X69990Y-49838D01*
X69990Y-49388D01*
X70047Y-49275D01*
X70159Y-49219D01*
X70384Y-49219D01*
X70496Y-49275D01*
X70553Y-49388D01*
X70553Y-49500D01*
X69990Y-49613D01*
X71003Y-49950D02*
X71115Y-50006D01*
X71340Y-50006D01*
X71453Y-49950D01*
X71509Y-49838D01*
X71509Y-49781D01*
X71453Y-49669D01*
X71340Y-49613D01*
X71171Y-49613D01*
X71059Y-49557D01*
X71003Y-49444D01*
X71003Y-49388D01*
X71059Y-49275D01*
X71171Y-49219D01*
X71340Y-49219D01*
X71453Y-49275D01*
X71903Y-50456D02*
X71959Y-50400D01*
X72071Y-50231D01*
X72128Y-50119D01*
X72184Y-49950D01*
X72240Y-49669D01*
X72240Y-49444D01*
X72184Y-49163D01*
X72128Y-48994D01*
X72071Y-48882D01*
X71959Y-48713D01*
X71903Y-48657D01*
G54D12*
X46367Y-51170D02*
X46367Y-50892D01*
X46088Y-50892D01*
X46088Y-51170D01*
X46367Y-51170D01*
G54D13*
X48112Y-51566D02*
X47437Y-51566D01*
X47774Y-51566D02*
X47774Y-50384D01*
X47662Y-50553D01*
X47549Y-50666D01*
X47437Y-50722D01*
X48618Y-51453D02*
X48674Y-51509D01*
X48618Y-51566D01*
X48562Y-51509D01*
X48618Y-51453D01*
X48618Y-51566D01*
X49405Y-50384D02*
X49518Y-50384D01*
X49630Y-50441D01*
X49687Y-50497D01*
X49743Y-50609D01*
X49799Y-50834D01*
X49799Y-51116D01*
X49743Y-51341D01*
X49687Y-51453D01*
X49630Y-51509D01*
X49518Y-51566D01*
X49405Y-51566D01*
X49293Y-51509D01*
X49237Y-51453D01*
X49180Y-51341D01*
X49124Y-51116D01*
X49124Y-50834D01*
X49180Y-50609D01*
X49237Y-50497D01*
X49293Y-50441D01*
X49405Y-50384D01*
X50530Y-50384D02*
X50643Y-50384D01*
X50755Y-50441D01*
X50811Y-50497D01*
X50868Y-50609D01*
X50924Y-50834D01*
X50924Y-51116D01*
X50868Y-51341D01*
X50811Y-51453D01*
X50755Y-51509D01*
X50643Y-51566D01*
X50530Y-51566D01*
X50418Y-51509D01*
X50362Y-51453D01*
X50305Y-51341D01*
X50249Y-51116D01*
X50249Y-50834D01*
X50305Y-50609D01*
X50362Y-50497D01*
X50418Y-50441D01*
X50530Y-50384D01*
X51430Y-51566D02*
X51430Y-50778D01*
X51430Y-50891D02*
X51486Y-50834D01*
X51599Y-50778D01*
X51768Y-50778D01*
X51880Y-50834D01*
X51936Y-50947D01*
X51936Y-51566D01*
X51936Y-50947D02*
X51993Y-50834D01*
X52105Y-50778D01*
X52274Y-50778D01*
X52386Y-50834D01*
X52442Y-50947D01*
X52442Y-51566D01*
X53005Y-51566D02*
X53005Y-50778D01*
X53005Y-50891D02*
X53061Y-50834D01*
X53174Y-50778D01*
X53342Y-50778D01*
X53455Y-50834D01*
X53511Y-50947D01*
X53511Y-51566D01*
X53511Y-50947D02*
X53567Y-50834D01*
X53680Y-50778D01*
X53849Y-50778D01*
X53961Y-50834D01*
X54017Y-50947D01*
X54017Y-51566D01*
X56323Y-50328D02*
X55311Y-51847D01*
X57842Y-50384D02*
X57954Y-50384D01*
X58067Y-50441D01*
X58123Y-50497D01*
X58179Y-50609D01*
X58236Y-50834D01*
X58236Y-51116D01*
X58179Y-51341D01*
X58123Y-51453D01*
X58067Y-51509D01*
X57954Y-51566D01*
X57842Y-51566D01*
X57729Y-51509D01*
X57673Y-51453D01*
X57617Y-51341D01*
X57561Y-51116D01*
X57561Y-50834D01*
X57617Y-50609D01*
X57673Y-50497D01*
X57729Y-50441D01*
X57842Y-50384D01*
X58742Y-51453D02*
X58798Y-51509D01*
X58742Y-51566D01*
X58685Y-51509D01*
X58742Y-51453D01*
X58742Y-51566D01*
X59529Y-50384D02*
X59642Y-50384D01*
X59754Y-50441D01*
X59810Y-50497D01*
X59867Y-50609D01*
X59923Y-50834D01*
X59923Y-51116D01*
X59867Y-51341D01*
X59810Y-51453D01*
X59754Y-51509D01*
X59642Y-51566D01*
X59529Y-51566D01*
X59417Y-51509D01*
X59360Y-51453D01*
X59304Y-51341D01*
X59248Y-51116D01*
X59248Y-50834D01*
X59304Y-50609D01*
X59360Y-50497D01*
X59417Y-50441D01*
X59529Y-50384D01*
X60317Y-50384D02*
X61048Y-50384D01*
X60654Y-50834D01*
X60823Y-50834D01*
X60935Y-50891D01*
X60991Y-50947D01*
X61048Y-51059D01*
X61048Y-51341D01*
X60991Y-51453D01*
X60935Y-51509D01*
X60823Y-51566D01*
X60485Y-51566D01*
X60373Y-51509D01*
X60317Y-51453D01*
X61610Y-51566D02*
X61835Y-51566D01*
X61948Y-51509D01*
X62004Y-51453D01*
X62116Y-51284D01*
X62173Y-51059D01*
X62173Y-50609D01*
X62116Y-50497D01*
X62060Y-50441D01*
X61948Y-50384D01*
X61723Y-50384D01*
X61610Y-50441D01*
X61554Y-50497D01*
X61498Y-50609D01*
X61498Y-50891D01*
X61554Y-51003D01*
X61610Y-51059D01*
X61723Y-51116D01*
X61948Y-51116D01*
X62060Y-51059D01*
X62116Y-51003D01*
X62173Y-50891D01*
X62622Y-50384D02*
X62622Y-50609D01*
X63072Y-50384D02*
X63072Y-50609D01*
X64816Y-52015D02*
X64760Y-51959D01*
X64647Y-51790D01*
X64591Y-51678D01*
X64535Y-51509D01*
X64478Y-51228D01*
X64478Y-51003D01*
X64535Y-50722D01*
X64591Y-50553D01*
X64647Y-50441D01*
X64760Y-50272D01*
X64816Y-50216D01*
X65828Y-50384D02*
X65266Y-50384D01*
X65210Y-50947D01*
X65266Y-50891D01*
X65378Y-50834D01*
X65660Y-50834D01*
X65772Y-50891D01*
X65828Y-50947D01*
X65885Y-51059D01*
X65885Y-51341D01*
X65828Y-51453D01*
X65772Y-51509D01*
X65660Y-51566D01*
X65378Y-51566D01*
X65266Y-51509D01*
X65210Y-51453D01*
X67291Y-51566D02*
X67291Y-50384D01*
X67797Y-51566D02*
X67797Y-50947D01*
X67741Y-50834D01*
X67628Y-50778D01*
X67459Y-50778D01*
X67347Y-50834D01*
X67291Y-50891D01*
X68528Y-51566D02*
X68416Y-51509D01*
X68359Y-51453D01*
X68303Y-51341D01*
X68303Y-51003D01*
X68359Y-50891D01*
X68416Y-50834D01*
X68528Y-50778D01*
X68697Y-50778D01*
X68809Y-50834D01*
X68865Y-50891D01*
X68922Y-51003D01*
X68922Y-51341D01*
X68865Y-51453D01*
X68809Y-51509D01*
X68697Y-51566D01*
X68528Y-51566D01*
X69597Y-51566D02*
X69484Y-51509D01*
X69428Y-51397D01*
X69428Y-50384D01*
X70496Y-51509D02*
X70384Y-51566D01*
X70159Y-51566D01*
X70047Y-51509D01*
X69990Y-51397D01*
X69990Y-50947D01*
X70047Y-50834D01*
X70159Y-50778D01*
X70384Y-50778D01*
X70496Y-50834D01*
X70553Y-50947D01*
X70553Y-51059D01*
X69990Y-51172D01*
X71003Y-51509D02*
X71115Y-51566D01*
X71340Y-51566D01*
X71453Y-51509D01*
X71509Y-51397D01*
X71509Y-51341D01*
X71453Y-51228D01*
X71340Y-51172D01*
X71171Y-51172D01*
X71059Y-51116D01*
X71003Y-51003D01*
X71003Y-50947D01*
X71059Y-50834D01*
X71171Y-50778D01*
X71340Y-50778D01*
X71453Y-50834D01*
X71903Y-52015D02*
X71959Y-51959D01*
X72071Y-51790D01*
X72128Y-51678D01*
X72184Y-51509D01*
X72240Y-51228D01*
X72240Y-51003D01*
X72184Y-50722D01*
X72128Y-50553D01*
X72071Y-50441D01*
X71959Y-50272D01*
X71903Y-50216D01*
G54D12*
X46224Y-52790D02*
X46424Y-52590D01*
X46224Y-52390D01*
X46024Y-52590D01*
X46224Y-52790D01*
G54D13*
X48112Y-53125D02*
X47437Y-53125D01*
X47774Y-53125D02*
X47774Y-51943D01*
X47662Y-52112D01*
X47549Y-52225D01*
X47437Y-52281D01*
X48618Y-53012D02*
X48674Y-53068D01*
X48618Y-53125D01*
X48562Y-53068D01*
X48618Y-53012D01*
X48618Y-53125D01*
X49405Y-51943D02*
X49518Y-51943D01*
X49630Y-52000D01*
X49687Y-52056D01*
X49743Y-52168D01*
X49799Y-52393D01*
X49799Y-52675D01*
X49743Y-52900D01*
X49687Y-53012D01*
X49630Y-53068D01*
X49518Y-53125D01*
X49405Y-53125D01*
X49293Y-53068D01*
X49237Y-53012D01*
X49180Y-52900D01*
X49124Y-52675D01*
X49124Y-52393D01*
X49180Y-52168D01*
X49237Y-52056D01*
X49293Y-52000D01*
X49405Y-51943D01*
X50249Y-52056D02*
X50305Y-52000D01*
X50418Y-51943D01*
X50699Y-51943D01*
X50811Y-52000D01*
X50868Y-52056D01*
X50924Y-52168D01*
X50924Y-52281D01*
X50868Y-52450D01*
X50193Y-53125D01*
X50924Y-53125D01*
X51430Y-53125D02*
X51430Y-52337D01*
X51430Y-52450D02*
X51486Y-52393D01*
X51599Y-52337D01*
X51768Y-52337D01*
X51880Y-52393D01*
X51936Y-52506D01*
X51936Y-53125D01*
X51936Y-52506D02*
X51993Y-52393D01*
X52105Y-52337D01*
X52274Y-52337D01*
X52386Y-52393D01*
X52442Y-52506D01*
X52442Y-53125D01*
X53005Y-53125D02*
X53005Y-52337D01*
X53005Y-52450D02*
X53061Y-52393D01*
X53174Y-52337D01*
X53342Y-52337D01*
X53455Y-52393D01*
X53511Y-52506D01*
X53511Y-53125D01*
X53511Y-52506D02*
X53567Y-52393D01*
X53680Y-52337D01*
X53849Y-52337D01*
X53961Y-52393D01*
X54017Y-52506D01*
X54017Y-53125D01*
X56323Y-51887D02*
X55311Y-53406D01*
X57842Y-51943D02*
X57954Y-51943D01*
X58067Y-52000D01*
X58123Y-52056D01*
X58179Y-52168D01*
X58236Y-52393D01*
X58236Y-52675D01*
X58179Y-52900D01*
X58123Y-53012D01*
X58067Y-53068D01*
X57954Y-53125D01*
X57842Y-53125D01*
X57729Y-53068D01*
X57673Y-53012D01*
X57617Y-52900D01*
X57561Y-52675D01*
X57561Y-52393D01*
X57617Y-52168D01*
X57673Y-52056D01*
X57729Y-52000D01*
X57842Y-51943D01*
X58742Y-53012D02*
X58798Y-53068D01*
X58742Y-53125D01*
X58685Y-53068D01*
X58742Y-53012D01*
X58742Y-53125D01*
X59529Y-51943D02*
X59642Y-51943D01*
X59754Y-52000D01*
X59810Y-52056D01*
X59867Y-52168D01*
X59923Y-52393D01*
X59923Y-52675D01*
X59867Y-52900D01*
X59810Y-53012D01*
X59754Y-53068D01*
X59642Y-53125D01*
X59529Y-53125D01*
X59417Y-53068D01*
X59360Y-53012D01*
X59304Y-52900D01*
X59248Y-52675D01*
X59248Y-52393D01*
X59304Y-52168D01*
X59360Y-52056D01*
X59417Y-52000D01*
X59529Y-51943D01*
X60935Y-52337D02*
X60935Y-53125D01*
X60654Y-51887D02*
X60373Y-52731D01*
X61104Y-52731D01*
X61779Y-51943D02*
X61891Y-51943D01*
X62004Y-52000D01*
X62060Y-52056D01*
X62116Y-52168D01*
X62173Y-52393D01*
X62173Y-52675D01*
X62116Y-52900D01*
X62060Y-53012D01*
X62004Y-53068D01*
X61891Y-53125D01*
X61779Y-53125D01*
X61666Y-53068D01*
X61610Y-53012D01*
X61554Y-52900D01*
X61498Y-52675D01*
X61498Y-52393D01*
X61554Y-52168D01*
X61610Y-52056D01*
X61666Y-52000D01*
X61779Y-51943D01*
X62622Y-51943D02*
X62622Y-52168D01*
X63072Y-51943D02*
X63072Y-52168D01*
X64816Y-53575D02*
X64760Y-53518D01*
X64647Y-53350D01*
X64591Y-53237D01*
X64535Y-53068D01*
X64478Y-52787D01*
X64478Y-52562D01*
X64535Y-52281D01*
X64591Y-52112D01*
X64647Y-52000D01*
X64760Y-51831D01*
X64816Y-51775D01*
X65322Y-53125D02*
X65547Y-53125D01*
X65660Y-53068D01*
X65716Y-53012D01*
X65828Y-52843D01*
X65885Y-52618D01*
X65885Y-52168D01*
X65828Y-52056D01*
X65772Y-52000D01*
X65660Y-51943D01*
X65435Y-51943D01*
X65322Y-52000D01*
X65266Y-52056D01*
X65210Y-52168D01*
X65210Y-52450D01*
X65266Y-52562D01*
X65322Y-52618D01*
X65435Y-52675D01*
X65660Y-52675D01*
X65772Y-52618D01*
X65828Y-52562D01*
X65885Y-52450D01*
X67291Y-53125D02*
X67291Y-51943D01*
X67797Y-53125D02*
X67797Y-52506D01*
X67741Y-52393D01*
X67628Y-52337D01*
X67459Y-52337D01*
X67347Y-52393D01*
X67291Y-52450D01*
X68528Y-53125D02*
X68416Y-53068D01*
X68359Y-53012D01*
X68303Y-52900D01*
X68303Y-52562D01*
X68359Y-52450D01*
X68416Y-52393D01*
X68528Y-52337D01*
X68697Y-52337D01*
X68809Y-52393D01*
X68865Y-52450D01*
X68922Y-52562D01*
X68922Y-52900D01*
X68865Y-53012D01*
X68809Y-53068D01*
X68697Y-53125D01*
X68528Y-53125D01*
X69597Y-53125D02*
X69484Y-53068D01*
X69428Y-52956D01*
X69428Y-51943D01*
X70496Y-53068D02*
X70384Y-53125D01*
X70159Y-53125D01*
X70047Y-53068D01*
X69990Y-52956D01*
X69990Y-52506D01*
X70047Y-52393D01*
X70159Y-52337D01*
X70384Y-52337D01*
X70496Y-52393D01*
X70553Y-52506D01*
X70553Y-52618D01*
X69990Y-52731D01*
X71003Y-53068D02*
X71115Y-53125D01*
X71340Y-53125D01*
X71453Y-53068D01*
X71509Y-52956D01*
X71509Y-52900D01*
X71453Y-52787D01*
X71340Y-52731D01*
X71171Y-52731D01*
X71059Y-52675D01*
X71003Y-52562D01*
X71003Y-52506D01*
X71059Y-52393D01*
X71171Y-52337D01*
X71340Y-52337D01*
X71453Y-52393D01*
X71903Y-53575D02*
X71959Y-53518D01*
X72071Y-53350D01*
X72128Y-53237D01*
X72184Y-53068D01*
X72240Y-52787D01*
X72240Y-52562D01*
X72184Y-52281D01*
X72128Y-52112D01*
X72071Y-52000D01*
X71959Y-51831D01*
X71903Y-51775D01*
X45824Y-53849D02*
X46424Y-54449D01*
X46424Y-53849D02*
X45824Y-54449D01*
G54D12*
X46424Y-54149D02*
G75*
G03X46424Y-54149I-300J0D01*
G74*
G01*
G54D13*
X48112Y-54684D02*
X47437Y-54684D01*
X47774Y-54684D02*
X47774Y-53503D01*
X47662Y-53671D01*
X47549Y-53784D01*
X47437Y-53840D01*
X48618Y-54571D02*
X48674Y-54627D01*
X48618Y-54684D01*
X48562Y-54627D01*
X48618Y-54571D01*
X48618Y-54684D01*
X49743Y-53503D02*
X49180Y-53503D01*
X49124Y-54065D01*
X49180Y-54009D01*
X49293Y-53952D01*
X49574Y-53952D01*
X49687Y-54009D01*
X49743Y-54065D01*
X49799Y-54177D01*
X49799Y-54459D01*
X49743Y-54571D01*
X49687Y-54627D01*
X49574Y-54684D01*
X49293Y-54684D01*
X49180Y-54627D01*
X49124Y-54571D01*
X50249Y-53615D02*
X50305Y-53559D01*
X50418Y-53503D01*
X50699Y-53503D01*
X50811Y-53559D01*
X50868Y-53615D01*
X50924Y-53727D01*
X50924Y-53840D01*
X50868Y-54009D01*
X50193Y-54684D01*
X50924Y-54684D01*
X51430Y-54684D02*
X51430Y-53896D01*
X51430Y-54009D02*
X51486Y-53952D01*
X51599Y-53896D01*
X51768Y-53896D01*
X51880Y-53952D01*
X51936Y-54065D01*
X51936Y-54684D01*
X51936Y-54065D02*
X51993Y-53952D01*
X52105Y-53896D01*
X52274Y-53896D01*
X52386Y-53952D01*
X52442Y-54065D01*
X52442Y-54684D01*
X53005Y-54684D02*
X53005Y-53896D01*
X53005Y-54009D02*
X53061Y-53952D01*
X53174Y-53896D01*
X53342Y-53896D01*
X53455Y-53952D01*
X53511Y-54065D01*
X53511Y-54684D01*
X53511Y-54065D02*
X53567Y-53952D01*
X53680Y-53896D01*
X53849Y-53896D01*
X53961Y-53952D01*
X54017Y-54065D01*
X54017Y-54684D01*
X56323Y-53446D02*
X55311Y-54965D01*
X57842Y-53503D02*
X57954Y-53503D01*
X58067Y-53559D01*
X58123Y-53615D01*
X58179Y-53727D01*
X58236Y-53952D01*
X58236Y-54234D01*
X58179Y-54459D01*
X58123Y-54571D01*
X58067Y-54627D01*
X57954Y-54684D01*
X57842Y-54684D01*
X57729Y-54627D01*
X57673Y-54571D01*
X57617Y-54459D01*
X57561Y-54234D01*
X57561Y-53952D01*
X57617Y-53727D01*
X57673Y-53615D01*
X57729Y-53559D01*
X57842Y-53503D01*
X58742Y-54571D02*
X58798Y-54627D01*
X58742Y-54684D01*
X58685Y-54627D01*
X58742Y-54571D01*
X58742Y-54684D01*
X59529Y-53503D02*
X59642Y-53503D01*
X59754Y-53559D01*
X59810Y-53615D01*
X59867Y-53727D01*
X59923Y-53952D01*
X59923Y-54234D01*
X59867Y-54459D01*
X59810Y-54571D01*
X59754Y-54627D01*
X59642Y-54684D01*
X59529Y-54684D01*
X59417Y-54627D01*
X59360Y-54571D01*
X59304Y-54459D01*
X59248Y-54234D01*
X59248Y-53952D01*
X59304Y-53727D01*
X59360Y-53615D01*
X59417Y-53559D01*
X59529Y-53503D01*
X60935Y-53503D02*
X60710Y-53503D01*
X60598Y-53559D01*
X60541Y-53615D01*
X60429Y-53784D01*
X60373Y-54009D01*
X60373Y-54459D01*
X60429Y-54571D01*
X60485Y-54627D01*
X60598Y-54684D01*
X60823Y-54684D01*
X60935Y-54627D01*
X60991Y-54571D01*
X61048Y-54459D01*
X61048Y-54177D01*
X60991Y-54065D01*
X60935Y-54009D01*
X60823Y-53952D01*
X60598Y-53952D01*
X60485Y-54009D01*
X60429Y-54065D01*
X60373Y-54177D01*
X61779Y-53503D02*
X61891Y-53503D01*
X62004Y-53559D01*
X62060Y-53615D01*
X62116Y-53727D01*
X62173Y-53952D01*
X62173Y-54234D01*
X62116Y-54459D01*
X62060Y-54571D01*
X62004Y-54627D01*
X61891Y-54684D01*
X61779Y-54684D01*
X61666Y-54627D01*
X61610Y-54571D01*
X61554Y-54459D01*
X61498Y-54234D01*
X61498Y-53952D01*
X61554Y-53727D01*
X61610Y-53615D01*
X61666Y-53559D01*
X61779Y-53503D01*
X62622Y-53503D02*
X62622Y-53727D01*
X63072Y-53503D02*
X63072Y-53727D01*
X64816Y-55134D02*
X64760Y-55077D01*
X64647Y-54909D01*
X64591Y-54796D01*
X64535Y-54627D01*
X64478Y-54346D01*
X64478Y-54121D01*
X64535Y-53840D01*
X64591Y-53671D01*
X64647Y-53559D01*
X64760Y-53390D01*
X64816Y-53334D01*
X65435Y-54009D02*
X65322Y-53952D01*
X65266Y-53896D01*
X65210Y-53784D01*
X65210Y-53727D01*
X65266Y-53615D01*
X65322Y-53559D01*
X65435Y-53503D01*
X65660Y-53503D01*
X65772Y-53559D01*
X65828Y-53615D01*
X65885Y-53727D01*
X65885Y-53784D01*
X65828Y-53896D01*
X65772Y-53952D01*
X65660Y-54009D01*
X65435Y-54009D01*
X65322Y-54065D01*
X65266Y-54121D01*
X65210Y-54234D01*
X65210Y-54459D01*
X65266Y-54571D01*
X65322Y-54627D01*
X65435Y-54684D01*
X65660Y-54684D01*
X65772Y-54627D01*
X65828Y-54571D01*
X65885Y-54459D01*
X65885Y-54234D01*
X65828Y-54121D01*
X65772Y-54065D01*
X65660Y-54009D01*
X67291Y-54684D02*
X67291Y-53503D01*
X67797Y-54684D02*
X67797Y-54065D01*
X67741Y-53952D01*
X67628Y-53896D01*
X67459Y-53896D01*
X67347Y-53952D01*
X67291Y-54009D01*
X68528Y-54684D02*
X68416Y-54627D01*
X68359Y-54571D01*
X68303Y-54459D01*
X68303Y-54121D01*
X68359Y-54009D01*
X68416Y-53952D01*
X68528Y-53896D01*
X68697Y-53896D01*
X68809Y-53952D01*
X68865Y-54009D01*
X68922Y-54121D01*
X68922Y-54459D01*
X68865Y-54571D01*
X68809Y-54627D01*
X68697Y-54684D01*
X68528Y-54684D01*
X69597Y-54684D02*
X69484Y-54627D01*
X69428Y-54515D01*
X69428Y-53503D01*
X70496Y-54627D02*
X70384Y-54684D01*
X70159Y-54684D01*
X70047Y-54627D01*
X69990Y-54515D01*
X69990Y-54065D01*
X70047Y-53952D01*
X70159Y-53896D01*
X70384Y-53896D01*
X70496Y-53952D01*
X70553Y-54065D01*
X70553Y-54177D01*
X69990Y-54290D01*
X71003Y-54627D02*
X71115Y-54684D01*
X71340Y-54684D01*
X71453Y-54627D01*
X71509Y-54515D01*
X71509Y-54459D01*
X71453Y-54346D01*
X71340Y-54290D01*
X71171Y-54290D01*
X71059Y-54234D01*
X71003Y-54121D01*
X71003Y-54065D01*
X71059Y-53952D01*
X71171Y-53896D01*
X71340Y-53896D01*
X71453Y-53952D01*
X71903Y-55134D02*
X71959Y-55077D01*
X72071Y-54909D01*
X72128Y-54796D01*
X72184Y-54627D01*
X72240Y-54346D01*
X72240Y-54121D01*
X72184Y-53840D01*
X72128Y-53671D01*
X72071Y-53559D01*
X71959Y-53390D01*
X71903Y-53334D01*
X45224Y-55108D02*
X46424Y-56308D01*
X46424Y-55108D02*
X45224Y-56308D01*
X45824Y-55108D02*
X45824Y-56308D01*
X45224Y-55708D02*
X46424Y-55708D01*
X47381Y-55062D02*
X48112Y-55062D01*
X47718Y-55512D01*
X47887Y-55512D01*
X47999Y-55568D01*
X48056Y-55624D01*
X48112Y-55736D01*
X48112Y-56018D01*
X48056Y-56130D01*
X47999Y-56186D01*
X47887Y-56243D01*
X47549Y-56243D01*
X47437Y-56186D01*
X47381Y-56130D01*
X48618Y-56130D02*
X48674Y-56186D01*
X48618Y-56243D01*
X48562Y-56186D01*
X48618Y-56130D01*
X48618Y-56243D01*
X49405Y-55062D02*
X49518Y-55062D01*
X49630Y-55118D01*
X49687Y-55174D01*
X49743Y-55287D01*
X49799Y-55512D01*
X49799Y-55793D01*
X49743Y-56018D01*
X49687Y-56130D01*
X49630Y-56186D01*
X49518Y-56243D01*
X49405Y-56243D01*
X49293Y-56186D01*
X49237Y-56130D01*
X49180Y-56018D01*
X49124Y-55793D01*
X49124Y-55512D01*
X49180Y-55287D01*
X49237Y-55174D01*
X49293Y-55118D01*
X49405Y-55062D01*
X50868Y-55062D02*
X50305Y-55062D01*
X50249Y-55624D01*
X50305Y-55568D01*
X50418Y-55512D01*
X50699Y-55512D01*
X50811Y-55568D01*
X50868Y-55624D01*
X50924Y-55736D01*
X50924Y-56018D01*
X50868Y-56130D01*
X50811Y-56186D01*
X50699Y-56243D01*
X50418Y-56243D01*
X50305Y-56186D01*
X50249Y-56130D01*
X51430Y-56243D02*
X51430Y-55455D01*
X51430Y-55568D02*
X51486Y-55512D01*
X51599Y-55455D01*
X51768Y-55455D01*
X51880Y-55512D01*
X51936Y-55624D01*
X51936Y-56243D01*
X51936Y-55624D02*
X51993Y-55512D01*
X52105Y-55455D01*
X52274Y-55455D01*
X52386Y-55512D01*
X52442Y-55624D01*
X52442Y-56243D01*
X53005Y-56243D02*
X53005Y-55455D01*
X53005Y-55568D02*
X53061Y-55512D01*
X53174Y-55455D01*
X53342Y-55455D01*
X53455Y-55512D01*
X53511Y-55624D01*
X53511Y-56243D01*
X53511Y-55624D02*
X53567Y-55512D01*
X53680Y-55455D01*
X53849Y-55455D01*
X53961Y-55512D01*
X54017Y-55624D01*
X54017Y-56243D01*
X56323Y-55005D02*
X55311Y-56524D01*
X57842Y-55062D02*
X57954Y-55062D01*
X58067Y-55118D01*
X58123Y-55174D01*
X58179Y-55287D01*
X58236Y-55512D01*
X58236Y-55793D01*
X58179Y-56018D01*
X58123Y-56130D01*
X58067Y-56186D01*
X57954Y-56243D01*
X57842Y-56243D01*
X57729Y-56186D01*
X57673Y-56130D01*
X57617Y-56018D01*
X57561Y-55793D01*
X57561Y-55512D01*
X57617Y-55287D01*
X57673Y-55174D01*
X57729Y-55118D01*
X57842Y-55062D01*
X58742Y-56130D02*
X58798Y-56186D01*
X58742Y-56243D01*
X58685Y-56186D01*
X58742Y-56130D01*
X58742Y-56243D01*
X59923Y-56243D02*
X59248Y-56243D01*
X59585Y-56243D02*
X59585Y-55062D01*
X59473Y-55230D01*
X59360Y-55343D01*
X59248Y-55399D01*
X60373Y-55174D02*
X60429Y-55118D01*
X60541Y-55062D01*
X60823Y-55062D01*
X60935Y-55118D01*
X60991Y-55174D01*
X61048Y-55287D01*
X61048Y-55399D01*
X60991Y-55568D01*
X60317Y-56243D01*
X61048Y-56243D01*
X61779Y-55062D02*
X61891Y-55062D01*
X62004Y-55118D01*
X62060Y-55174D01*
X62116Y-55287D01*
X62173Y-55512D01*
X62173Y-55793D01*
X62116Y-56018D01*
X62060Y-56130D01*
X62004Y-56186D01*
X61891Y-56243D01*
X61779Y-56243D01*
X61666Y-56186D01*
X61610Y-56130D01*
X61554Y-56018D01*
X61498Y-55793D01*
X61498Y-55512D01*
X61554Y-55287D01*
X61610Y-55174D01*
X61666Y-55118D01*
X61779Y-55062D01*
X62622Y-55062D02*
X62622Y-55287D01*
X63072Y-55062D02*
X63072Y-55287D01*
X64816Y-56693D02*
X64760Y-56636D01*
X64647Y-56468D01*
X64591Y-56355D01*
X64535Y-56186D01*
X64478Y-55905D01*
X64478Y-55680D01*
X64535Y-55399D01*
X64591Y-55230D01*
X64647Y-55118D01*
X64760Y-54949D01*
X64816Y-54893D01*
X65772Y-55455D02*
X65772Y-56243D01*
X65491Y-55005D02*
X65210Y-55849D01*
X65941Y-55849D01*
X67291Y-56243D02*
X67291Y-55062D01*
X67797Y-56243D02*
X67797Y-55624D01*
X67741Y-55512D01*
X67628Y-55455D01*
X67459Y-55455D01*
X67347Y-55512D01*
X67291Y-55568D01*
X68528Y-56243D02*
X68416Y-56186D01*
X68359Y-56130D01*
X68303Y-56018D01*
X68303Y-55680D01*
X68359Y-55568D01*
X68416Y-55512D01*
X68528Y-55455D01*
X68697Y-55455D01*
X68809Y-55512D01*
X68865Y-55568D01*
X68922Y-55680D01*
X68922Y-56018D01*
X68865Y-56130D01*
X68809Y-56186D01*
X68697Y-56243D01*
X68528Y-56243D01*
X69597Y-56243D02*
X69484Y-56186D01*
X69428Y-56074D01*
X69428Y-55062D01*
X70496Y-56186D02*
X70384Y-56243D01*
X70159Y-56243D01*
X70047Y-56186D01*
X69990Y-56074D01*
X69990Y-55624D01*
X70047Y-55512D01*
X70159Y-55455D01*
X70384Y-55455D01*
X70496Y-55512D01*
X70553Y-55624D01*
X70553Y-55736D01*
X69990Y-55849D01*
X71003Y-56186D02*
X71115Y-56243D01*
X71340Y-56243D01*
X71453Y-56186D01*
X71509Y-56074D01*
X71509Y-56018D01*
X71453Y-55905D01*
X71340Y-55849D01*
X71171Y-55849D01*
X71059Y-55793D01*
X71003Y-55680D01*
X71003Y-55624D01*
X71059Y-55512D01*
X71171Y-55455D01*
X71340Y-55455D01*
X71453Y-55512D01*
X71903Y-56693D02*
X71959Y-56636D01*
X72071Y-56468D01*
X72128Y-56355D01*
X72184Y-56186D01*
X72240Y-55905D01*
X72240Y-55680D01*
X72184Y-55399D01*
X72128Y-55230D01*
X72071Y-55118D01*
X71959Y-54949D01*
X71903Y-54893D01*
M02*
