G04 (created by PCBNEW (2013-mar-13)-testing) date Mon 10 Jun 2013 16:46:54 ART*
%MOIN*%
G04 Gerber Fmt 3.4, Leading zero omitted, Abs format*
%FSLAX34Y34*%
G01*
G70*
G90*
G04 APERTURE LIST*
%ADD10C,0.005906*%
%ADD11R,0.075000X0.075000*%
%ADD12C,0.075000*%
%ADD13C,0.090000*%
%ADD14R,0.090000X0.090000*%
%ADD15C,0.180000*%
%ADD16R,0.106600X0.080000*%
%ADD17O,0.106600X0.080000*%
%ADD18C,0.098700*%
%ADD19R,0.120000X0.120000*%
%ADD20C,0.120000*%
G04 APERTURE END LIST*
G54D10*
G54D11*
X53300Y-23100D03*
G54D12*
X53300Y-24100D03*
X53300Y-25100D03*
X56300Y-25100D03*
X56300Y-24100D03*
X56300Y-23100D03*
G54D11*
X53300Y-34950D03*
G54D12*
X53300Y-35950D03*
X53300Y-36950D03*
X56300Y-36950D03*
X56300Y-35950D03*
X56300Y-34950D03*
G54D11*
X53300Y-28900D03*
G54D12*
X53300Y-29900D03*
X53300Y-30900D03*
X56300Y-30900D03*
X56300Y-29900D03*
X56300Y-28900D03*
G54D11*
X58800Y-21800D03*
G54D12*
X58800Y-25800D03*
G54D11*
X58800Y-27800D03*
G54D12*
X58800Y-31800D03*
G54D11*
X58800Y-34200D03*
G54D12*
X58800Y-38200D03*
G54D13*
X61400Y-23600D03*
X61400Y-22600D03*
G54D14*
X61400Y-24600D03*
G54D13*
X61400Y-29800D03*
X61400Y-28800D03*
G54D14*
X61400Y-30800D03*
G54D13*
X61400Y-36200D03*
X61400Y-35200D03*
G54D14*
X61400Y-37200D03*
G54D15*
X48000Y-41000D03*
X67500Y-41000D03*
X67500Y-15500D03*
X48000Y-15500D03*
G54D16*
X49400Y-31000D03*
G54D17*
X49400Y-30000D03*
X49400Y-29000D03*
X49400Y-28000D03*
X49400Y-27000D03*
G54D18*
X51910Y-26690D03*
X52910Y-26690D03*
X51910Y-32630D03*
X52910Y-32630D03*
X51660Y-38730D03*
X52660Y-38730D03*
G54D19*
X64940Y-25660D03*
G54D20*
X64940Y-23660D03*
G54D19*
X61210Y-18500D03*
G54D20*
X63210Y-18500D03*
G54D19*
X64950Y-31920D03*
G54D20*
X64950Y-29920D03*
G54D19*
X64940Y-38220D03*
G54D20*
X64940Y-36220D03*
M02*
