G04 (created by PCBNEW (2013-mar-13)-testing) date Wed 12 Jun 2013 13:55:09 ART*
%MOIN*%
G04 Gerber Fmt 3.4, Leading zero omitted, Abs format*
%FSLAX34Y34*%
G01*
G70*
G90*
G04 APERTURE LIST*
%ADD10C,0.005906*%
%ADD11C,0.012000*%
%ADD12R,0.036000X0.036000*%
%ADD13R,0.035000X0.055000*%
%ADD14R,0.055000X0.055000*%
%ADD15C,0.055000*%
%ADD16C,0.070000*%
%ADD17R,0.070000X0.070000*%
%ADD18R,0.055000X0.035000*%
%ADD19C,0.160000*%
%ADD20R,0.086600X0.060000*%
%ADD21O,0.086600X0.060000*%
%ADD22C,0.078700*%
%ADD23R,0.100000X0.100000*%
%ADD24C,0.100000*%
%ADD25C,0.078740*%
%ADD26C,0.019700*%
%ADD27C,0.039400*%
%ADD28C,0.059100*%
%ADD29C,0.027600*%
%ADD30C,0.010000*%
G04 APERTURE END LIST*
G54D10*
G54D11*
X53723Y-41100D02*
X53723Y-41887D01*
X54023Y-41887D01*
X54098Y-41850D01*
X54135Y-41812D01*
X54173Y-41737D01*
X54173Y-41625D01*
X54135Y-41550D01*
X54098Y-41512D01*
X54023Y-41475D01*
X53723Y-41475D01*
X54623Y-41100D02*
X54548Y-41137D01*
X54510Y-41212D01*
X54510Y-41887D01*
X55260Y-41100D02*
X55260Y-41512D01*
X55223Y-41587D01*
X55148Y-41625D01*
X54998Y-41625D01*
X54923Y-41587D01*
X55260Y-41137D02*
X55185Y-41100D01*
X54998Y-41100D01*
X54923Y-41137D01*
X54885Y-41212D01*
X54885Y-41287D01*
X54923Y-41362D01*
X54998Y-41400D01*
X55185Y-41400D01*
X55260Y-41437D01*
X55973Y-41137D02*
X55898Y-41100D01*
X55748Y-41100D01*
X55673Y-41137D01*
X55635Y-41175D01*
X55598Y-41250D01*
X55598Y-41475D01*
X55635Y-41550D01*
X55673Y-41587D01*
X55748Y-41625D01*
X55898Y-41625D01*
X55973Y-41587D01*
X56647Y-41100D02*
X56647Y-41512D01*
X56610Y-41587D01*
X56535Y-41625D01*
X56385Y-41625D01*
X56310Y-41587D01*
X56647Y-41137D02*
X56572Y-41100D01*
X56385Y-41100D01*
X56310Y-41137D01*
X56272Y-41212D01*
X56272Y-41287D01*
X56310Y-41362D01*
X56385Y-41400D01*
X56572Y-41400D01*
X56647Y-41437D01*
X57960Y-41100D02*
X57960Y-41512D01*
X57922Y-41587D01*
X57847Y-41625D01*
X57697Y-41625D01*
X57622Y-41587D01*
X57960Y-41137D02*
X57885Y-41100D01*
X57697Y-41100D01*
X57622Y-41137D01*
X57585Y-41212D01*
X57585Y-41287D01*
X57622Y-41362D01*
X57697Y-41400D01*
X57885Y-41400D01*
X57960Y-41437D01*
X58672Y-41137D02*
X58597Y-41100D01*
X58447Y-41100D01*
X58372Y-41137D01*
X58335Y-41175D01*
X58297Y-41250D01*
X58297Y-41475D01*
X58335Y-41550D01*
X58372Y-41587D01*
X58447Y-41625D01*
X58597Y-41625D01*
X58672Y-41587D01*
X59347Y-41137D02*
X59272Y-41100D01*
X59122Y-41100D01*
X59047Y-41137D01*
X59010Y-41175D01*
X58972Y-41250D01*
X58972Y-41475D01*
X59010Y-41550D01*
X59047Y-41587D01*
X59122Y-41625D01*
X59272Y-41625D01*
X59347Y-41587D01*
X59685Y-41100D02*
X59685Y-41625D01*
X59685Y-41887D02*
X59647Y-41850D01*
X59685Y-41812D01*
X59722Y-41850D01*
X59685Y-41887D01*
X59685Y-41812D01*
X60172Y-41100D02*
X60097Y-41137D01*
X60059Y-41175D01*
X60022Y-41250D01*
X60022Y-41475D01*
X60059Y-41550D01*
X60097Y-41587D01*
X60172Y-41625D01*
X60284Y-41625D01*
X60359Y-41587D01*
X60397Y-41550D01*
X60434Y-41475D01*
X60434Y-41250D01*
X60397Y-41175D01*
X60359Y-41137D01*
X60284Y-41100D01*
X60172Y-41100D01*
X60772Y-41625D02*
X60772Y-41100D01*
X60772Y-41550D02*
X60809Y-41587D01*
X60884Y-41625D01*
X60997Y-41625D01*
X61072Y-41587D01*
X61109Y-41512D01*
X61109Y-41100D01*
X61822Y-41100D02*
X61822Y-41512D01*
X61784Y-41587D01*
X61709Y-41625D01*
X61559Y-41625D01*
X61484Y-41587D01*
X61822Y-41137D02*
X61747Y-41100D01*
X61559Y-41100D01*
X61484Y-41137D01*
X61447Y-41212D01*
X61447Y-41287D01*
X61484Y-41362D01*
X61559Y-41400D01*
X61747Y-41400D01*
X61822Y-41437D01*
X62534Y-41100D02*
X62534Y-41887D01*
X62534Y-41137D02*
X62459Y-41100D01*
X62309Y-41100D01*
X62234Y-41137D01*
X62197Y-41175D01*
X62159Y-41250D01*
X62159Y-41475D01*
X62197Y-41550D01*
X62234Y-41587D01*
X62309Y-41625D01*
X62459Y-41625D01*
X62534Y-41587D01*
X63022Y-41100D02*
X62947Y-41137D01*
X62909Y-41175D01*
X62872Y-41250D01*
X62872Y-41475D01*
X62909Y-41550D01*
X62947Y-41587D01*
X63022Y-41625D01*
X63134Y-41625D01*
X63209Y-41587D01*
X63247Y-41550D01*
X63284Y-41475D01*
X63284Y-41250D01*
X63247Y-41175D01*
X63209Y-41137D01*
X63134Y-41100D01*
X63022Y-41100D01*
X63622Y-41100D02*
X63622Y-41625D01*
X63622Y-41475D02*
X63659Y-41550D01*
X63697Y-41587D01*
X63772Y-41625D01*
X63847Y-41625D01*
X64409Y-41137D02*
X64334Y-41100D01*
X64184Y-41100D01*
X64109Y-41137D01*
X64071Y-41212D01*
X64071Y-41512D01*
X64109Y-41587D01*
X64184Y-41625D01*
X64334Y-41625D01*
X64409Y-41587D01*
X64446Y-41512D01*
X64446Y-41437D01*
X64071Y-41362D01*
X64746Y-41137D02*
X64821Y-41100D01*
X64971Y-41100D01*
X65046Y-41137D01*
X65084Y-41212D01*
X65084Y-41250D01*
X65046Y-41325D01*
X64971Y-41362D01*
X64859Y-41362D01*
X64784Y-41400D01*
X64746Y-41475D01*
X64746Y-41512D01*
X64784Y-41587D01*
X64859Y-41625D01*
X64971Y-41625D01*
X65046Y-41587D01*
X55766Y-39878D02*
X55766Y-40665D01*
X55766Y-39915D02*
X55691Y-39878D01*
X55541Y-39878D01*
X55466Y-39915D01*
X55429Y-39953D01*
X55391Y-40028D01*
X55391Y-40253D01*
X55429Y-40328D01*
X55466Y-40365D01*
X55541Y-40403D01*
X55691Y-40403D01*
X55766Y-40365D01*
X56441Y-39915D02*
X56366Y-39878D01*
X56216Y-39878D01*
X56141Y-39915D01*
X56104Y-39990D01*
X56104Y-40290D01*
X56141Y-40365D01*
X56216Y-40403D01*
X56366Y-40403D01*
X56441Y-40365D01*
X56479Y-40290D01*
X56479Y-40215D01*
X56104Y-40140D01*
X57754Y-39915D02*
X57679Y-39878D01*
X57529Y-39878D01*
X57454Y-39915D01*
X57416Y-39953D01*
X57379Y-40028D01*
X57379Y-40253D01*
X57416Y-40328D01*
X57454Y-40365D01*
X57529Y-40403D01*
X57679Y-40403D01*
X57754Y-40365D01*
X58203Y-39878D02*
X58128Y-39915D01*
X58091Y-39953D01*
X58053Y-40028D01*
X58053Y-40253D01*
X58091Y-40328D01*
X58128Y-40365D01*
X58203Y-40403D01*
X58316Y-40403D01*
X58391Y-40365D01*
X58428Y-40328D01*
X58466Y-40253D01*
X58466Y-40028D01*
X58428Y-39953D01*
X58391Y-39915D01*
X58316Y-39878D01*
X58203Y-39878D01*
X58803Y-40403D02*
X58803Y-39878D01*
X58803Y-40328D02*
X58841Y-40365D01*
X58916Y-40403D01*
X59028Y-40403D01*
X59103Y-40365D01*
X59141Y-40290D01*
X59141Y-39878D01*
X59403Y-40403D02*
X59703Y-40403D01*
X59516Y-40665D02*
X59516Y-39990D01*
X59553Y-39915D01*
X59628Y-39878D01*
X59703Y-39878D01*
X60303Y-39878D02*
X60303Y-40290D01*
X60266Y-40365D01*
X60191Y-40403D01*
X60041Y-40403D01*
X59966Y-40365D01*
X60303Y-39915D02*
X60228Y-39878D01*
X60041Y-39878D01*
X59966Y-39915D01*
X59928Y-39990D01*
X59928Y-40065D01*
X59966Y-40140D01*
X60041Y-40178D01*
X60228Y-40178D01*
X60303Y-40215D01*
X61016Y-39915D02*
X60941Y-39878D01*
X60791Y-39878D01*
X60716Y-39915D01*
X60678Y-39953D01*
X60641Y-40028D01*
X60641Y-40253D01*
X60678Y-40328D01*
X60716Y-40365D01*
X60791Y-40403D01*
X60941Y-40403D01*
X61016Y-40365D01*
X61241Y-40403D02*
X61541Y-40403D01*
X61353Y-40665D02*
X61353Y-39990D01*
X61391Y-39915D01*
X61466Y-39878D01*
X61541Y-39878D01*
X61916Y-39878D02*
X61841Y-39915D01*
X61803Y-39953D01*
X61766Y-40028D01*
X61766Y-40253D01*
X61803Y-40328D01*
X61841Y-40365D01*
X61916Y-40403D01*
X62028Y-40403D01*
X62103Y-40365D01*
X62140Y-40328D01*
X62178Y-40253D01*
X62178Y-40028D01*
X62140Y-39953D01*
X62103Y-39915D01*
X62028Y-39878D01*
X61916Y-39878D01*
X62515Y-39878D02*
X62515Y-40403D01*
X62515Y-40253D02*
X62553Y-40328D01*
X62590Y-40365D01*
X62665Y-40403D01*
X62740Y-40403D01*
X63303Y-39915D02*
X63228Y-39878D01*
X63078Y-39878D01*
X63003Y-39915D01*
X62965Y-39990D01*
X62965Y-40290D01*
X63003Y-40365D01*
X63078Y-40403D01*
X63228Y-40403D01*
X63303Y-40365D01*
X63340Y-40290D01*
X63340Y-40215D01*
X62965Y-40140D01*
X63640Y-39915D02*
X63715Y-39878D01*
X63865Y-39878D01*
X63940Y-39915D01*
X63978Y-39990D01*
X63978Y-40028D01*
X63940Y-40103D01*
X63865Y-40140D01*
X63753Y-40140D01*
X63678Y-40178D01*
X63640Y-40253D01*
X63640Y-40290D01*
X63678Y-40365D01*
X63753Y-40403D01*
X63865Y-40403D01*
X63940Y-40365D01*
X56442Y-16776D02*
X56385Y-16738D01*
X56271Y-16738D01*
X56214Y-16776D01*
X56185Y-16852D01*
X56185Y-17157D01*
X56214Y-17233D01*
X56271Y-17271D01*
X56385Y-17271D01*
X56442Y-17233D01*
X56471Y-17157D01*
X56471Y-17080D01*
X56185Y-17004D01*
X56700Y-16776D02*
X56757Y-16738D01*
X56871Y-16738D01*
X56928Y-16776D01*
X56957Y-16852D01*
X56957Y-16890D01*
X56928Y-16966D01*
X56871Y-17004D01*
X56785Y-17004D01*
X56728Y-17042D01*
X56700Y-17119D01*
X56700Y-17157D01*
X56728Y-17233D01*
X56785Y-17271D01*
X56871Y-17271D01*
X56928Y-17233D01*
X57128Y-17271D02*
X57357Y-17271D01*
X57214Y-17538D02*
X57214Y-16852D01*
X57242Y-16776D01*
X57300Y-16738D01*
X57357Y-16738D01*
X57814Y-16738D02*
X57814Y-17157D01*
X57785Y-17233D01*
X57728Y-17271D01*
X57614Y-17271D01*
X57557Y-17233D01*
X57814Y-16776D02*
X57757Y-16738D01*
X57614Y-16738D01*
X57557Y-16776D01*
X57528Y-16852D01*
X57528Y-16928D01*
X57557Y-17004D01*
X57614Y-17042D01*
X57757Y-17042D01*
X57814Y-17080D01*
X58100Y-17271D02*
X58100Y-16738D01*
X58100Y-17195D02*
X58128Y-17233D01*
X58185Y-17271D01*
X58271Y-17271D01*
X58328Y-17233D01*
X58357Y-17157D01*
X58357Y-16738D01*
X58900Y-17271D02*
X58900Y-16738D01*
X58642Y-17271D02*
X58642Y-16852D01*
X58671Y-16776D01*
X58728Y-16738D01*
X58814Y-16738D01*
X58871Y-16776D01*
X58900Y-16814D01*
X59128Y-16738D02*
X59442Y-17271D01*
X59128Y-17271D02*
X59442Y-16738D01*
X60042Y-17119D02*
X60014Y-17157D01*
X59957Y-17195D01*
X59900Y-17195D01*
X59842Y-17157D01*
X59814Y-17119D01*
X59785Y-17042D01*
X59785Y-16966D01*
X59814Y-16890D01*
X59842Y-16852D01*
X59900Y-16814D01*
X59957Y-16814D01*
X60014Y-16852D01*
X60042Y-16890D01*
X60042Y-17195D02*
X60042Y-16890D01*
X60071Y-16852D01*
X60100Y-16852D01*
X60157Y-16890D01*
X60185Y-16966D01*
X60185Y-17157D01*
X60128Y-17271D01*
X60042Y-17347D01*
X59928Y-17385D01*
X59814Y-17347D01*
X59728Y-17271D01*
X59671Y-17157D01*
X59642Y-17004D01*
X59671Y-16852D01*
X59728Y-16738D01*
X59814Y-16661D01*
X59928Y-16623D01*
X60042Y-16661D01*
X60128Y-16738D01*
X60700Y-17271D02*
X60700Y-16623D01*
X60671Y-16547D01*
X60642Y-16509D01*
X60585Y-16471D01*
X60500Y-16471D01*
X60442Y-16509D01*
X60700Y-16776D02*
X60642Y-16738D01*
X60528Y-16738D01*
X60471Y-16776D01*
X60442Y-16814D01*
X60414Y-16890D01*
X60414Y-17119D01*
X60442Y-17195D01*
X60471Y-17233D01*
X60528Y-17271D01*
X60642Y-17271D01*
X60700Y-17233D01*
X60985Y-16738D02*
X60985Y-17271D01*
X60985Y-17195D02*
X61014Y-17233D01*
X61071Y-17271D01*
X61157Y-17271D01*
X61214Y-17233D01*
X61242Y-17157D01*
X61242Y-16738D01*
X61242Y-17157D02*
X61271Y-17233D01*
X61328Y-17271D01*
X61414Y-17271D01*
X61471Y-17233D01*
X61500Y-17157D01*
X61500Y-16738D01*
X62042Y-16738D02*
X62042Y-17157D01*
X62014Y-17233D01*
X61957Y-17271D01*
X61842Y-17271D01*
X61785Y-17233D01*
X62042Y-16776D02*
X61985Y-16738D01*
X61842Y-16738D01*
X61785Y-16776D01*
X61757Y-16852D01*
X61757Y-16928D01*
X61785Y-17004D01*
X61842Y-17042D01*
X61985Y-17042D01*
X62042Y-17080D01*
X62328Y-16738D02*
X62328Y-17271D01*
X62328Y-17538D02*
X62300Y-17500D01*
X62328Y-17461D01*
X62357Y-17500D01*
X62328Y-17538D01*
X62328Y-17461D01*
X62699Y-16738D02*
X62642Y-16776D01*
X62614Y-16852D01*
X62614Y-17538D01*
X62928Y-16814D02*
X62957Y-16776D01*
X62928Y-16738D01*
X62900Y-16776D01*
X62928Y-16814D01*
X62928Y-16738D01*
X63471Y-16776D02*
X63414Y-16738D01*
X63299Y-16738D01*
X63242Y-16776D01*
X63214Y-16814D01*
X63185Y-16890D01*
X63185Y-17119D01*
X63214Y-17195D01*
X63242Y-17233D01*
X63299Y-17271D01*
X63414Y-17271D01*
X63471Y-17233D01*
X63814Y-16738D02*
X63757Y-16776D01*
X63728Y-16814D01*
X63700Y-16890D01*
X63700Y-17119D01*
X63728Y-17195D01*
X63757Y-17233D01*
X63814Y-17271D01*
X63900Y-17271D01*
X63957Y-17233D01*
X63985Y-17195D01*
X64014Y-17119D01*
X64014Y-16890D01*
X63985Y-16814D01*
X63957Y-16776D01*
X63900Y-16738D01*
X63814Y-16738D01*
X64271Y-16738D02*
X64271Y-17271D01*
X64271Y-17195D02*
X64300Y-17233D01*
X64357Y-17271D01*
X64442Y-17271D01*
X64500Y-17233D01*
X64528Y-17157D01*
X64528Y-16738D01*
X64528Y-17157D02*
X64557Y-17233D01*
X64614Y-17271D01*
X64700Y-17271D01*
X64757Y-17233D01*
X64785Y-17157D01*
X64785Y-16738D01*
X56414Y-16031D02*
X56642Y-16031D01*
X56500Y-15498D02*
X56500Y-16183D01*
X56528Y-16260D01*
X56585Y-16298D01*
X56642Y-16298D01*
X57100Y-15498D02*
X57100Y-15917D01*
X57071Y-15993D01*
X57014Y-16031D01*
X56900Y-16031D01*
X56842Y-15993D01*
X57100Y-15536D02*
X57042Y-15498D01*
X56900Y-15498D01*
X56842Y-15536D01*
X56814Y-15612D01*
X56814Y-15688D01*
X56842Y-15764D01*
X56900Y-15802D01*
X57042Y-15802D01*
X57100Y-15840D01*
X57385Y-16031D02*
X57385Y-15498D01*
X57385Y-15955D02*
X57414Y-15993D01*
X57471Y-16031D01*
X57557Y-16031D01*
X57614Y-15993D01*
X57642Y-15917D01*
X57642Y-15498D01*
X58185Y-15498D02*
X58185Y-15917D01*
X58157Y-15993D01*
X58100Y-16031D01*
X57985Y-16031D01*
X57928Y-15993D01*
X58185Y-15536D02*
X58128Y-15498D01*
X57985Y-15498D01*
X57928Y-15536D01*
X57900Y-15612D01*
X57900Y-15688D01*
X57928Y-15764D01*
X57985Y-15802D01*
X58128Y-15802D01*
X58185Y-15840D01*
X58728Y-16031D02*
X58728Y-15498D01*
X58471Y-16031D02*
X58471Y-15612D01*
X58500Y-15536D01*
X58557Y-15498D01*
X58642Y-15498D01*
X58700Y-15536D01*
X58728Y-15574D01*
X59014Y-15498D02*
X59014Y-16031D01*
X59014Y-15879D02*
X59042Y-15955D01*
X59071Y-15993D01*
X59128Y-16031D01*
X59185Y-16031D01*
X59757Y-15879D02*
X59728Y-15917D01*
X59671Y-15955D01*
X59614Y-15955D01*
X59557Y-15917D01*
X59528Y-15879D01*
X59500Y-15802D01*
X59500Y-15726D01*
X59528Y-15650D01*
X59557Y-15612D01*
X59614Y-15574D01*
X59671Y-15574D01*
X59728Y-15612D01*
X59757Y-15650D01*
X59757Y-15955D02*
X59757Y-15650D01*
X59785Y-15612D01*
X59814Y-15612D01*
X59871Y-15650D01*
X59900Y-15726D01*
X59900Y-15917D01*
X59842Y-16031D01*
X59757Y-16107D01*
X59642Y-16145D01*
X59528Y-16107D01*
X59442Y-16031D01*
X59385Y-15917D01*
X59357Y-15764D01*
X59385Y-15612D01*
X59442Y-15498D01*
X59528Y-15421D01*
X59642Y-15383D01*
X59757Y-15421D01*
X59842Y-15498D01*
X60414Y-16031D02*
X60414Y-15383D01*
X60385Y-15307D01*
X60357Y-15269D01*
X60300Y-15231D01*
X60214Y-15231D01*
X60157Y-15269D01*
X60414Y-15536D02*
X60357Y-15498D01*
X60242Y-15498D01*
X60185Y-15536D01*
X60157Y-15574D01*
X60128Y-15650D01*
X60128Y-15879D01*
X60157Y-15955D01*
X60185Y-15993D01*
X60242Y-16031D01*
X60357Y-16031D01*
X60414Y-15993D01*
X60700Y-15498D02*
X60700Y-16031D01*
X60700Y-15955D02*
X60728Y-15993D01*
X60785Y-16031D01*
X60871Y-16031D01*
X60928Y-15993D01*
X60957Y-15917D01*
X60957Y-15498D01*
X60957Y-15917D02*
X60985Y-15993D01*
X61042Y-16031D01*
X61128Y-16031D01*
X61185Y-15993D01*
X61214Y-15917D01*
X61214Y-15498D01*
X61757Y-15498D02*
X61757Y-15917D01*
X61728Y-15993D01*
X61671Y-16031D01*
X61557Y-16031D01*
X61500Y-15993D01*
X61757Y-15536D02*
X61700Y-15498D01*
X61557Y-15498D01*
X61500Y-15536D01*
X61471Y-15612D01*
X61471Y-15688D01*
X61500Y-15764D01*
X61557Y-15802D01*
X61700Y-15802D01*
X61757Y-15840D01*
X62042Y-15498D02*
X62042Y-16031D01*
X62042Y-16298D02*
X62014Y-16260D01*
X62042Y-16221D01*
X62071Y-16260D01*
X62042Y-16298D01*
X62042Y-16221D01*
X62414Y-15498D02*
X62357Y-15536D01*
X62328Y-15612D01*
X62328Y-16298D01*
X62642Y-15574D02*
X62671Y-15536D01*
X62642Y-15498D01*
X62614Y-15536D01*
X62642Y-15574D01*
X62642Y-15498D01*
X63185Y-15536D02*
X63128Y-15498D01*
X63014Y-15498D01*
X62957Y-15536D01*
X62928Y-15574D01*
X62900Y-15650D01*
X62900Y-15879D01*
X62928Y-15955D01*
X62957Y-15993D01*
X63014Y-16031D01*
X63128Y-16031D01*
X63185Y-15993D01*
X63528Y-15498D02*
X63471Y-15536D01*
X63442Y-15574D01*
X63414Y-15650D01*
X63414Y-15879D01*
X63442Y-15955D01*
X63471Y-15993D01*
X63528Y-16031D01*
X63614Y-16031D01*
X63671Y-15993D01*
X63700Y-15955D01*
X63728Y-15879D01*
X63728Y-15650D01*
X63700Y-15574D01*
X63671Y-15536D01*
X63614Y-15498D01*
X63528Y-15498D01*
X63985Y-15498D02*
X63985Y-16031D01*
X63985Y-15955D02*
X64014Y-15993D01*
X64071Y-16031D01*
X64157Y-16031D01*
X64214Y-15993D01*
X64242Y-15917D01*
X64242Y-15498D01*
X64242Y-15917D02*
X64271Y-15993D01*
X64328Y-16031D01*
X64414Y-16031D01*
X64471Y-15993D01*
X64500Y-15917D01*
X64500Y-15498D01*
G54D12*
X51600Y-24550D03*
X51600Y-25250D03*
X52400Y-24900D03*
G54D13*
X52275Y-22700D03*
X51525Y-22700D03*
X57125Y-23100D03*
X57875Y-23100D03*
X59625Y-21400D03*
X60375Y-21400D03*
G54D14*
X53300Y-23100D03*
G54D15*
X53300Y-24100D03*
X53300Y-25100D03*
X56300Y-25100D03*
X56300Y-24100D03*
X56300Y-23100D03*
G54D13*
X52275Y-23500D03*
X51525Y-23500D03*
G54D12*
X51700Y-36550D03*
X51700Y-37250D03*
X52500Y-36900D03*
X51700Y-30350D03*
X51700Y-31050D03*
X52500Y-30700D03*
G54D13*
X52475Y-35450D03*
X51725Y-35450D03*
X60225Y-34200D03*
X60975Y-34200D03*
X57225Y-34800D03*
X57975Y-34800D03*
X52475Y-34600D03*
X51725Y-34600D03*
X52475Y-29250D03*
X51725Y-29250D03*
X60025Y-27800D03*
X60775Y-27800D03*
X57025Y-28800D03*
X57775Y-28800D03*
X52475Y-28500D03*
X51725Y-28500D03*
G54D14*
X53300Y-34950D03*
G54D15*
X53300Y-35950D03*
X53300Y-36950D03*
X56300Y-36950D03*
X56300Y-35950D03*
X56300Y-34950D03*
G54D14*
X53300Y-28900D03*
G54D15*
X53300Y-29900D03*
X53300Y-30900D03*
X56300Y-30900D03*
X56300Y-29900D03*
X56300Y-28900D03*
G54D14*
X58800Y-21800D03*
G54D15*
X58800Y-25800D03*
G54D14*
X58800Y-27800D03*
G54D15*
X58800Y-31800D03*
G54D14*
X58800Y-34200D03*
G54D15*
X58800Y-38200D03*
G54D16*
X61400Y-23600D03*
X61400Y-22600D03*
G54D17*
X61400Y-24600D03*
G54D16*
X61400Y-29800D03*
X61400Y-28800D03*
G54D17*
X61400Y-30800D03*
G54D16*
X61400Y-36200D03*
X61400Y-35200D03*
G54D17*
X61400Y-37200D03*
G54D18*
X50850Y-24491D03*
X50850Y-25241D03*
X50894Y-30306D03*
X50894Y-31056D03*
X50945Y-36515D03*
X50945Y-37265D03*
G54D19*
X48000Y-41000D03*
X67500Y-41000D03*
X67500Y-15500D03*
X48000Y-15500D03*
G54D20*
X49400Y-31000D03*
G54D21*
X49400Y-30000D03*
X49400Y-29000D03*
X49400Y-28000D03*
X49400Y-27000D03*
G54D22*
X51910Y-26690D03*
X52910Y-26690D03*
X51910Y-32630D03*
X52910Y-32630D03*
X51660Y-38730D03*
X52660Y-38730D03*
G54D23*
X64940Y-25660D03*
G54D24*
X64940Y-23660D03*
G54D23*
X61210Y-18500D03*
G54D24*
X63210Y-18500D03*
G54D23*
X64950Y-31920D03*
G54D24*
X64950Y-29920D03*
G54D23*
X64940Y-38220D03*
G54D24*
X64940Y-36220D03*
G54D25*
X48160Y-29415D03*
X49785Y-37200D03*
X50640Y-26565D03*
X50865Y-31980D03*
G54D26*
X51725Y-28500D02*
X51725Y-28227D01*
X51725Y-28227D02*
X52031Y-27921D01*
X52031Y-27921D02*
X53291Y-27921D01*
X53291Y-27921D02*
X53960Y-27251D01*
X49400Y-30000D02*
X49400Y-29935D01*
X50850Y-27360D02*
X53610Y-27360D01*
X50397Y-27812D02*
X50850Y-27360D01*
X50397Y-28937D02*
X50397Y-27812D01*
X49400Y-29935D02*
X50397Y-28937D01*
X53610Y-27360D02*
X53960Y-27009D01*
X51725Y-34600D02*
X51725Y-34369D01*
X53291Y-33905D02*
X53960Y-33236D01*
X52188Y-33905D02*
X53291Y-33905D01*
X51725Y-34369D02*
X52188Y-33905D01*
X51525Y-22700D02*
X51525Y-22443D01*
X53960Y-22685D02*
X53960Y-27009D01*
X53960Y-27009D02*
X53960Y-27251D01*
X53409Y-22133D02*
X53960Y-22685D01*
X51834Y-22133D02*
X53409Y-22133D01*
X51525Y-22443D02*
X51834Y-22133D01*
X53960Y-27251D02*
X53960Y-33236D01*
X51725Y-35450D02*
X51725Y-34600D01*
X51525Y-22700D02*
X51525Y-23500D01*
X51725Y-28500D02*
X51725Y-29250D01*
G54D27*
X66000Y-25060D02*
X66000Y-22430D01*
X63210Y-19640D02*
X63210Y-18500D01*
X66000Y-22430D02*
X63210Y-19640D01*
X65990Y-31320D02*
X65990Y-37670D01*
X65440Y-38220D02*
X64940Y-38220D01*
X65990Y-37670D02*
X65440Y-38220D01*
X64950Y-31920D02*
X65390Y-31920D01*
X65390Y-31920D02*
X65990Y-31320D01*
X65990Y-31320D02*
X66000Y-31310D01*
X64940Y-25660D02*
X65400Y-25660D01*
X65400Y-25660D02*
X66000Y-25060D01*
X66000Y-30600D02*
X66000Y-31310D01*
X66000Y-25060D02*
X66000Y-30600D01*
X61210Y-18500D02*
X59250Y-18500D01*
X55600Y-22150D02*
X55600Y-25400D01*
X59250Y-18500D02*
X55600Y-22150D01*
X58800Y-25800D02*
X56000Y-25800D01*
X56000Y-25800D02*
X55600Y-25400D01*
X58800Y-25800D02*
X60000Y-24600D01*
X60000Y-24600D02*
X61400Y-24600D01*
X58800Y-31800D02*
X56200Y-31800D01*
X56200Y-31800D02*
X55600Y-31200D01*
X55600Y-25400D02*
X55600Y-31200D01*
X56200Y-38200D02*
X58800Y-38200D01*
X55600Y-31200D02*
X55600Y-37600D01*
X55600Y-37600D02*
X56200Y-38200D01*
X58800Y-38200D02*
X59000Y-38200D01*
X60000Y-37200D02*
X61400Y-37200D01*
X59000Y-38200D02*
X60000Y-37200D01*
X58800Y-31800D02*
X59600Y-31800D01*
X60600Y-30800D02*
X61400Y-30800D01*
X59600Y-31800D02*
X60600Y-30800D01*
G54D26*
X50945Y-37265D02*
X49850Y-37265D01*
X48575Y-29000D02*
X49400Y-29000D01*
X48160Y-29415D02*
X48575Y-29000D01*
X49850Y-37265D02*
X49785Y-37200D01*
X51700Y-37250D02*
X50960Y-37250D01*
X50960Y-37250D02*
X50945Y-37265D01*
X50894Y-31056D02*
X50894Y-31951D01*
X49685Y-28000D02*
X49400Y-28000D01*
X50175Y-27510D02*
X49685Y-28000D01*
X50175Y-27030D02*
X50175Y-27510D01*
X50640Y-26565D02*
X50175Y-27030D01*
X50894Y-31951D02*
X50865Y-31980D01*
X51700Y-31050D02*
X51300Y-31050D01*
X51300Y-31050D02*
X50900Y-31050D01*
X50900Y-31050D02*
X50894Y-31056D01*
X49400Y-27000D02*
X49400Y-26691D01*
X49400Y-26691D02*
X50850Y-25241D01*
X51600Y-25250D02*
X50859Y-25250D01*
X50859Y-25250D02*
X50850Y-25241D01*
X51700Y-30350D02*
X50938Y-30350D01*
X50938Y-30350D02*
X50894Y-30306D01*
X50909Y-24550D02*
X50850Y-24491D01*
X51600Y-24550D02*
X50909Y-24550D01*
X50945Y-36515D02*
X51665Y-36515D01*
X51665Y-36515D02*
X51700Y-36550D01*
G54D27*
X57875Y-23100D02*
X57875Y-22725D01*
X57875Y-22725D02*
X58800Y-21800D01*
X58800Y-21800D02*
X59225Y-21800D01*
X59225Y-21800D02*
X59625Y-21400D01*
X57125Y-23100D02*
X56300Y-23100D01*
G54D26*
X52275Y-22700D02*
X52900Y-22700D01*
X52900Y-22700D02*
X53300Y-23100D01*
X52660Y-38730D02*
X52660Y-37710D01*
X52500Y-37550D02*
X52500Y-36900D01*
X52660Y-37710D02*
X52500Y-37550D01*
X52500Y-36900D02*
X52500Y-36750D01*
X52500Y-36750D02*
X53300Y-35950D01*
X52475Y-35450D02*
X52475Y-36045D01*
X51660Y-38250D02*
X51660Y-38730D01*
X52110Y-37800D02*
X51660Y-38250D01*
X52110Y-36410D02*
X52110Y-37800D01*
X52475Y-36045D02*
X52110Y-36410D01*
G54D27*
X58800Y-34200D02*
X58575Y-34200D01*
X58575Y-34200D02*
X57975Y-34800D01*
X60225Y-34200D02*
X58800Y-34200D01*
G54D26*
X51910Y-32630D02*
X51910Y-31830D01*
X52475Y-29845D02*
X52475Y-29250D01*
X52100Y-30220D02*
X52475Y-29845D01*
X52100Y-31640D02*
X52100Y-30220D01*
X51910Y-31830D02*
X52100Y-31640D01*
G54D27*
X57225Y-34800D02*
X56450Y-34800D01*
X56450Y-34800D02*
X56300Y-34950D01*
G54D26*
X52950Y-34600D02*
X53300Y-34950D01*
X52475Y-34600D02*
X52950Y-34600D01*
G54D27*
X61400Y-22600D02*
X60400Y-22600D01*
X57900Y-25100D02*
X56300Y-25100D01*
X60400Y-22600D02*
X57900Y-25100D01*
X56300Y-36950D02*
X58250Y-36950D01*
X60000Y-35200D02*
X61400Y-35200D01*
X58250Y-36950D02*
X60000Y-35200D01*
X60775Y-27800D02*
X61600Y-27800D01*
X64400Y-30000D02*
X64400Y-29940D01*
X63800Y-30000D02*
X64400Y-30000D01*
X61600Y-27800D02*
X63800Y-30000D01*
G54D28*
X64944Y-29940D02*
X64400Y-29940D01*
X64400Y-29940D02*
X61540Y-29940D01*
X61540Y-29940D02*
X61400Y-29800D01*
G54D29*
X52275Y-23500D02*
X52275Y-24125D01*
G54D26*
X52000Y-26600D02*
X51910Y-26690D01*
X52000Y-24400D02*
X52000Y-26600D01*
X52275Y-24125D02*
X52000Y-24400D01*
G54D27*
X60375Y-21400D02*
X61600Y-21400D01*
X61600Y-21400D02*
X63841Y-23641D01*
G54D28*
X64944Y-23641D02*
X63841Y-23641D01*
X63841Y-23641D02*
X61441Y-23641D01*
X61441Y-23641D02*
X61400Y-23600D01*
G54D27*
X60975Y-34200D02*
X62200Y-34200D01*
X62200Y-34200D02*
X64240Y-36240D01*
G54D28*
X64944Y-36240D02*
X64240Y-36240D01*
X64240Y-36240D02*
X61440Y-36240D01*
X61440Y-36240D02*
X61400Y-36200D01*
G54D26*
X52400Y-24900D02*
X52400Y-25460D01*
X52910Y-25970D02*
X52910Y-26690D01*
X52400Y-25460D02*
X52910Y-25970D01*
X53300Y-24100D02*
X53200Y-24100D01*
X53200Y-24100D02*
X52400Y-24900D01*
G54D27*
X57025Y-28800D02*
X56400Y-28800D01*
X56400Y-28800D02*
X56300Y-28900D01*
X58800Y-27800D02*
X58400Y-27800D01*
X57775Y-28425D02*
X57775Y-28800D01*
X58400Y-27800D02*
X57775Y-28425D01*
X60025Y-27800D02*
X58800Y-27800D01*
G54D26*
X52900Y-28500D02*
X53300Y-28900D01*
X52475Y-28500D02*
X52900Y-28500D01*
X52500Y-30700D02*
X52500Y-31400D01*
X52910Y-31810D02*
X52910Y-32630D01*
X52500Y-31400D02*
X52910Y-31810D01*
X53300Y-29900D02*
X52500Y-30700D01*
G54D27*
X61400Y-28800D02*
X59800Y-28800D01*
X57700Y-30900D02*
X56300Y-30900D01*
X59800Y-28800D02*
X57700Y-30900D01*
G54D10*
G36*
X68675Y-42175D02*
X68550Y-42175D01*
X68550Y-40792D01*
X68550Y-15292D01*
X68390Y-14905D01*
X68095Y-14610D01*
X67709Y-14450D01*
X67292Y-14449D01*
X66905Y-14609D01*
X66610Y-14904D01*
X66450Y-15290D01*
X66449Y-15707D01*
X66609Y-16094D01*
X66904Y-16389D01*
X67290Y-16549D01*
X67707Y-16550D01*
X68094Y-16390D01*
X68389Y-16095D01*
X68549Y-15709D01*
X68550Y-15292D01*
X68550Y-40792D01*
X68390Y-40405D01*
X68095Y-40110D01*
X67709Y-39950D01*
X67292Y-39949D01*
X66905Y-40109D01*
X66610Y-40404D01*
X66450Y-40790D01*
X66449Y-41207D01*
X66609Y-41594D01*
X66904Y-41889D01*
X67290Y-42049D01*
X67707Y-42050D01*
X68094Y-41890D01*
X68389Y-41595D01*
X68549Y-41209D01*
X68550Y-40792D01*
X68550Y-42175D01*
X66144Y-42175D01*
X66144Y-40225D01*
X67254Y-39115D01*
X67254Y-16987D01*
X65375Y-15107D01*
X65238Y-15107D01*
X65238Y-14990D01*
X55761Y-14990D01*
X55761Y-18090D01*
X55973Y-18090D01*
X55973Y-18876D01*
X53965Y-20884D01*
X53965Y-20894D01*
X53950Y-20894D01*
X53950Y-22181D01*
X53655Y-21887D01*
X53542Y-21811D01*
X53409Y-21785D01*
X51834Y-21785D01*
X51701Y-21811D01*
X51588Y-21887D01*
X51300Y-22175D01*
X51300Y-22175D01*
X51208Y-22213D01*
X51138Y-22283D01*
X51100Y-22375D01*
X51100Y-22474D01*
X51100Y-23024D01*
X51131Y-23099D01*
X51100Y-23175D01*
X51100Y-23274D01*
X51100Y-23824D01*
X51138Y-23916D01*
X51208Y-23986D01*
X51300Y-24025D01*
X51399Y-24025D01*
X51749Y-24025D01*
X51841Y-23986D01*
X51887Y-23941D01*
X51887Y-24020D01*
X51787Y-24120D01*
X51730Y-24120D01*
X51712Y-24120D01*
X51650Y-24182D01*
X51650Y-24500D01*
X51651Y-24500D01*
X51651Y-24600D01*
X51650Y-24600D01*
X51650Y-24607D01*
X51550Y-24607D01*
X51550Y-24600D01*
X51542Y-24600D01*
X51542Y-24500D01*
X51550Y-24500D01*
X51550Y-24182D01*
X51487Y-24120D01*
X51469Y-24120D01*
X51370Y-24120D01*
X51308Y-24145D01*
X51266Y-24104D01*
X51174Y-24066D01*
X51075Y-24066D01*
X50962Y-24066D01*
X50900Y-24128D01*
X50900Y-24441D01*
X50907Y-24441D01*
X50907Y-24541D01*
X50900Y-24541D01*
X50900Y-24548D01*
X50800Y-24548D01*
X50800Y-24541D01*
X50800Y-24441D01*
X50800Y-24128D01*
X50737Y-24066D01*
X50624Y-24066D01*
X50525Y-24066D01*
X50433Y-24104D01*
X50363Y-24174D01*
X50325Y-24266D01*
X50325Y-24378D01*
X50387Y-24441D01*
X50800Y-24441D01*
X50800Y-24541D01*
X50387Y-24541D01*
X50325Y-24603D01*
X50325Y-24715D01*
X50363Y-24807D01*
X50421Y-24866D01*
X50363Y-24924D01*
X50325Y-25016D01*
X50325Y-25115D01*
X50325Y-25273D01*
X49153Y-26444D01*
X49134Y-26473D01*
X49050Y-26490D01*
X49050Y-15292D01*
X48890Y-14905D01*
X48595Y-14610D01*
X48209Y-14450D01*
X47792Y-14449D01*
X47405Y-14609D01*
X47110Y-14904D01*
X46950Y-15290D01*
X46949Y-15707D01*
X47109Y-16094D01*
X47404Y-16389D01*
X47790Y-16549D01*
X48207Y-16550D01*
X48594Y-16390D01*
X48889Y-16095D01*
X49049Y-15709D01*
X49050Y-15292D01*
X49050Y-26490D01*
X49043Y-26491D01*
X48864Y-26611D01*
X48745Y-26789D01*
X48703Y-27000D01*
X48745Y-27210D01*
X48864Y-27388D01*
X49030Y-27500D01*
X48864Y-27611D01*
X48745Y-27789D01*
X48703Y-28000D01*
X48745Y-28210D01*
X48864Y-28388D01*
X49030Y-28500D01*
X48864Y-28611D01*
X48837Y-28651D01*
X48575Y-28651D01*
X48575Y-28651D01*
X48441Y-28678D01*
X48328Y-28753D01*
X48304Y-28777D01*
X48288Y-28771D01*
X48032Y-28771D01*
X47795Y-28868D01*
X47614Y-29049D01*
X47516Y-29286D01*
X47516Y-29542D01*
X47613Y-29779D01*
X47794Y-29960D01*
X48031Y-30058D01*
X48287Y-30058D01*
X48524Y-29961D01*
X48705Y-29780D01*
X48803Y-29543D01*
X48803Y-29348D01*
X48837Y-29348D01*
X48864Y-29388D01*
X49030Y-29500D01*
X48864Y-29611D01*
X48745Y-29789D01*
X48703Y-30000D01*
X48745Y-30210D01*
X48864Y-30388D01*
X48956Y-30450D01*
X48917Y-30450D01*
X48825Y-30488D01*
X48755Y-30558D01*
X48717Y-30650D01*
X48717Y-30887D01*
X48779Y-30950D01*
X49350Y-30950D01*
X49350Y-30942D01*
X49450Y-30942D01*
X49450Y-30950D01*
X50020Y-30950D01*
X50083Y-30887D01*
X50083Y-30650D01*
X50044Y-30558D01*
X49974Y-30488D01*
X49882Y-30450D01*
X49843Y-30450D01*
X49935Y-30388D01*
X50054Y-30210D01*
X50096Y-30000D01*
X50054Y-29789D01*
X50048Y-29779D01*
X50643Y-29184D01*
X50718Y-29071D01*
X50718Y-29071D01*
X50745Y-28937D01*
X50745Y-27957D01*
X50994Y-27708D01*
X51751Y-27708D01*
X51478Y-27981D01*
X51476Y-27985D01*
X51408Y-28013D01*
X51338Y-28083D01*
X51300Y-28175D01*
X51300Y-28274D01*
X51300Y-28824D01*
X51320Y-28874D01*
X51300Y-28925D01*
X51300Y-29024D01*
X51300Y-29574D01*
X51338Y-29666D01*
X51408Y-29736D01*
X51500Y-29775D01*
X51599Y-29775D01*
X51949Y-29775D01*
X52041Y-29736D01*
X52100Y-29678D01*
X52124Y-29702D01*
X51907Y-29920D01*
X51830Y-29920D01*
X51812Y-29920D01*
X51750Y-29982D01*
X51750Y-30300D01*
X51751Y-30300D01*
X51751Y-30400D01*
X51750Y-30400D01*
X51750Y-30407D01*
X51650Y-30407D01*
X51650Y-30400D01*
X51650Y-30300D01*
X51650Y-29982D01*
X51587Y-29920D01*
X51569Y-29920D01*
X51470Y-29920D01*
X51378Y-29958D01*
X51363Y-29972D01*
X51310Y-29919D01*
X51218Y-29881D01*
X51119Y-29881D01*
X51006Y-29881D01*
X50944Y-29943D01*
X50944Y-30256D01*
X51288Y-30256D01*
X51332Y-30300D01*
X51650Y-30300D01*
X51650Y-30400D01*
X51400Y-30400D01*
X51356Y-30356D01*
X50944Y-30356D01*
X50944Y-30363D01*
X50844Y-30363D01*
X50844Y-30356D01*
X50844Y-30256D01*
X50844Y-29943D01*
X50781Y-29881D01*
X50668Y-29881D01*
X50569Y-29881D01*
X50477Y-29919D01*
X50407Y-29989D01*
X50369Y-30081D01*
X50369Y-30193D01*
X50431Y-30256D01*
X50844Y-30256D01*
X50844Y-30356D01*
X50431Y-30356D01*
X50369Y-30418D01*
X50369Y-30530D01*
X50407Y-30622D01*
X50465Y-30681D01*
X50407Y-30739D01*
X50369Y-30831D01*
X50369Y-30930D01*
X50369Y-31280D01*
X50407Y-31372D01*
X50477Y-31442D01*
X50487Y-31447D01*
X50319Y-31614D01*
X50221Y-31851D01*
X50221Y-32107D01*
X50318Y-32344D01*
X50499Y-32525D01*
X50736Y-32623D01*
X50992Y-32623D01*
X51229Y-32526D01*
X51275Y-32479D01*
X51266Y-32501D01*
X51266Y-32757D01*
X51364Y-32994D01*
X51545Y-33175D01*
X51781Y-33273D01*
X52037Y-33273D01*
X52274Y-33175D01*
X52410Y-33040D01*
X52545Y-33175D01*
X52781Y-33273D01*
X53037Y-33273D01*
X53274Y-33175D01*
X53455Y-32994D01*
X53553Y-32758D01*
X53553Y-32502D01*
X53455Y-32265D01*
X53274Y-32084D01*
X53258Y-32077D01*
X53258Y-31810D01*
X53231Y-31676D01*
X53231Y-31676D01*
X53156Y-31563D01*
X52848Y-31255D01*
X52848Y-31182D01*
X52854Y-31197D01*
X53002Y-31344D01*
X53195Y-31424D01*
X53403Y-31425D01*
X53597Y-31345D01*
X53612Y-31330D01*
X53612Y-33091D01*
X53146Y-33557D01*
X52188Y-33557D01*
X52055Y-33583D01*
X51942Y-33659D01*
X51526Y-34075D01*
X51500Y-34075D01*
X51408Y-34113D01*
X51338Y-34183D01*
X51300Y-34275D01*
X51300Y-34374D01*
X51300Y-34924D01*
X51338Y-35016D01*
X51346Y-35024D01*
X51338Y-35033D01*
X51300Y-35125D01*
X51300Y-35224D01*
X51300Y-35774D01*
X51338Y-35866D01*
X51408Y-35936D01*
X51500Y-35975D01*
X51599Y-35975D01*
X51949Y-35975D01*
X52041Y-35936D01*
X52100Y-35878D01*
X52124Y-35902D01*
X51907Y-36120D01*
X51830Y-36120D01*
X51812Y-36120D01*
X51750Y-36182D01*
X51750Y-36500D01*
X51757Y-36500D01*
X51757Y-36600D01*
X51750Y-36600D01*
X51750Y-36607D01*
X51650Y-36607D01*
X51650Y-36600D01*
X51650Y-36500D01*
X51650Y-36182D01*
X51587Y-36120D01*
X51569Y-36120D01*
X51470Y-36120D01*
X51387Y-36154D01*
X51361Y-36128D01*
X51269Y-36090D01*
X51170Y-36090D01*
X51057Y-36090D01*
X50995Y-36152D01*
X50995Y-36465D01*
X51297Y-36465D01*
X51332Y-36500D01*
X51650Y-36500D01*
X51650Y-36600D01*
X51442Y-36600D01*
X51407Y-36565D01*
X50995Y-36565D01*
X50995Y-36572D01*
X50895Y-36572D01*
X50895Y-36565D01*
X50895Y-36465D01*
X50895Y-36152D01*
X50832Y-36090D01*
X50719Y-36090D01*
X50620Y-36090D01*
X50528Y-36128D01*
X50458Y-36198D01*
X50420Y-36290D01*
X50420Y-36402D01*
X50482Y-36465D01*
X50895Y-36465D01*
X50895Y-36565D01*
X50482Y-36565D01*
X50420Y-36627D01*
X50420Y-36739D01*
X50458Y-36831D01*
X50516Y-36890D01*
X50489Y-36916D01*
X50364Y-36916D01*
X50331Y-36835D01*
X50150Y-36654D01*
X50083Y-36626D01*
X50083Y-31349D01*
X50083Y-31112D01*
X50020Y-31050D01*
X49450Y-31050D01*
X49450Y-31487D01*
X49512Y-31550D01*
X49783Y-31550D01*
X49882Y-31550D01*
X49974Y-31511D01*
X50044Y-31441D01*
X50083Y-31349D01*
X50083Y-36626D01*
X49913Y-36556D01*
X49657Y-36556D01*
X49420Y-36653D01*
X49350Y-36724D01*
X49350Y-31487D01*
X49350Y-31050D01*
X48779Y-31050D01*
X48717Y-31112D01*
X48717Y-31349D01*
X48755Y-31441D01*
X48825Y-31511D01*
X48917Y-31550D01*
X49016Y-31550D01*
X49287Y-31550D01*
X49350Y-31487D01*
X49350Y-36724D01*
X49239Y-36834D01*
X49141Y-37071D01*
X49141Y-37327D01*
X49238Y-37564D01*
X49419Y-37745D01*
X49656Y-37843D01*
X49912Y-37843D01*
X50149Y-37746D01*
X50281Y-37613D01*
X50489Y-37613D01*
X50528Y-37651D01*
X50620Y-37690D01*
X50719Y-37690D01*
X51269Y-37690D01*
X51361Y-37651D01*
X51374Y-37638D01*
X51378Y-37641D01*
X51470Y-37680D01*
X51569Y-37680D01*
X51737Y-37680D01*
X51413Y-38003D01*
X51338Y-38116D01*
X51327Y-38171D01*
X51295Y-38184D01*
X51114Y-38365D01*
X51016Y-38601D01*
X51016Y-38857D01*
X51114Y-39094D01*
X51295Y-39275D01*
X51531Y-39373D01*
X51787Y-39373D01*
X52024Y-39275D01*
X52160Y-39140D01*
X52295Y-39275D01*
X52531Y-39373D01*
X52787Y-39373D01*
X53024Y-39275D01*
X53205Y-39094D01*
X53303Y-38858D01*
X53303Y-38602D01*
X53205Y-38365D01*
X53024Y-38184D01*
X53008Y-38177D01*
X53008Y-37710D01*
X52981Y-37576D01*
X52906Y-37463D01*
X52848Y-37405D01*
X52848Y-37265D01*
X52860Y-37252D01*
X53002Y-37394D01*
X53195Y-37474D01*
X53403Y-37475D01*
X53597Y-37395D01*
X53744Y-37247D01*
X53824Y-37054D01*
X53825Y-36846D01*
X53745Y-36653D01*
X53597Y-36505D01*
X53464Y-36449D01*
X53597Y-36395D01*
X53744Y-36247D01*
X53824Y-36054D01*
X53825Y-35846D01*
X53745Y-35653D01*
X53597Y-35505D01*
X53525Y-35475D01*
X53624Y-35475D01*
X53716Y-35436D01*
X53786Y-35366D01*
X53825Y-35274D01*
X53825Y-35175D01*
X53825Y-34625D01*
X53786Y-34533D01*
X53716Y-34463D01*
X53624Y-34425D01*
X53525Y-34425D01*
X53267Y-34425D01*
X53196Y-34353D01*
X53083Y-34278D01*
X52962Y-34254D01*
X53291Y-34254D01*
X53424Y-34227D01*
X53424Y-34227D01*
X53537Y-34151D01*
X53950Y-33739D01*
X53950Y-39373D01*
X53225Y-39373D01*
X53225Y-42175D01*
X49050Y-42175D01*
X49050Y-40792D01*
X48890Y-40405D01*
X48595Y-40110D01*
X48209Y-39950D01*
X47792Y-39949D01*
X47405Y-40109D01*
X47110Y-40404D01*
X46950Y-40790D01*
X46949Y-41207D01*
X47109Y-41594D01*
X47404Y-41889D01*
X47790Y-42049D01*
X48207Y-42050D01*
X48594Y-41890D01*
X48889Y-41595D01*
X49049Y-41209D01*
X49050Y-40792D01*
X49050Y-42175D01*
X46825Y-42175D01*
X46825Y-14325D01*
X68675Y-14325D01*
X68675Y-42175D01*
X68675Y-42175D01*
G37*
G54D30*
X68675Y-42175D02*
X68550Y-42175D01*
X68550Y-40792D01*
X68550Y-15292D01*
X68390Y-14905D01*
X68095Y-14610D01*
X67709Y-14450D01*
X67292Y-14449D01*
X66905Y-14609D01*
X66610Y-14904D01*
X66450Y-15290D01*
X66449Y-15707D01*
X66609Y-16094D01*
X66904Y-16389D01*
X67290Y-16549D01*
X67707Y-16550D01*
X68094Y-16390D01*
X68389Y-16095D01*
X68549Y-15709D01*
X68550Y-15292D01*
X68550Y-40792D01*
X68390Y-40405D01*
X68095Y-40110D01*
X67709Y-39950D01*
X67292Y-39949D01*
X66905Y-40109D01*
X66610Y-40404D01*
X66450Y-40790D01*
X66449Y-41207D01*
X66609Y-41594D01*
X66904Y-41889D01*
X67290Y-42049D01*
X67707Y-42050D01*
X68094Y-41890D01*
X68389Y-41595D01*
X68549Y-41209D01*
X68550Y-40792D01*
X68550Y-42175D01*
X66144Y-42175D01*
X66144Y-40225D01*
X67254Y-39115D01*
X67254Y-16987D01*
X65375Y-15107D01*
X65238Y-15107D01*
X65238Y-14990D01*
X55761Y-14990D01*
X55761Y-18090D01*
X55973Y-18090D01*
X55973Y-18876D01*
X53965Y-20884D01*
X53965Y-20894D01*
X53950Y-20894D01*
X53950Y-22181D01*
X53655Y-21887D01*
X53542Y-21811D01*
X53409Y-21785D01*
X51834Y-21785D01*
X51701Y-21811D01*
X51588Y-21887D01*
X51300Y-22175D01*
X51300Y-22175D01*
X51208Y-22213D01*
X51138Y-22283D01*
X51100Y-22375D01*
X51100Y-22474D01*
X51100Y-23024D01*
X51131Y-23099D01*
X51100Y-23175D01*
X51100Y-23274D01*
X51100Y-23824D01*
X51138Y-23916D01*
X51208Y-23986D01*
X51300Y-24025D01*
X51399Y-24025D01*
X51749Y-24025D01*
X51841Y-23986D01*
X51887Y-23941D01*
X51887Y-24020D01*
X51787Y-24120D01*
X51730Y-24120D01*
X51712Y-24120D01*
X51650Y-24182D01*
X51650Y-24500D01*
X51651Y-24500D01*
X51651Y-24600D01*
X51650Y-24600D01*
X51650Y-24607D01*
X51550Y-24607D01*
X51550Y-24600D01*
X51542Y-24600D01*
X51542Y-24500D01*
X51550Y-24500D01*
X51550Y-24182D01*
X51487Y-24120D01*
X51469Y-24120D01*
X51370Y-24120D01*
X51308Y-24145D01*
X51266Y-24104D01*
X51174Y-24066D01*
X51075Y-24066D01*
X50962Y-24066D01*
X50900Y-24128D01*
X50900Y-24441D01*
X50907Y-24441D01*
X50907Y-24541D01*
X50900Y-24541D01*
X50900Y-24548D01*
X50800Y-24548D01*
X50800Y-24541D01*
X50800Y-24441D01*
X50800Y-24128D01*
X50737Y-24066D01*
X50624Y-24066D01*
X50525Y-24066D01*
X50433Y-24104D01*
X50363Y-24174D01*
X50325Y-24266D01*
X50325Y-24378D01*
X50387Y-24441D01*
X50800Y-24441D01*
X50800Y-24541D01*
X50387Y-24541D01*
X50325Y-24603D01*
X50325Y-24715D01*
X50363Y-24807D01*
X50421Y-24866D01*
X50363Y-24924D01*
X50325Y-25016D01*
X50325Y-25115D01*
X50325Y-25273D01*
X49153Y-26444D01*
X49134Y-26473D01*
X49050Y-26490D01*
X49050Y-15292D01*
X48890Y-14905D01*
X48595Y-14610D01*
X48209Y-14450D01*
X47792Y-14449D01*
X47405Y-14609D01*
X47110Y-14904D01*
X46950Y-15290D01*
X46949Y-15707D01*
X47109Y-16094D01*
X47404Y-16389D01*
X47790Y-16549D01*
X48207Y-16550D01*
X48594Y-16390D01*
X48889Y-16095D01*
X49049Y-15709D01*
X49050Y-15292D01*
X49050Y-26490D01*
X49043Y-26491D01*
X48864Y-26611D01*
X48745Y-26789D01*
X48703Y-27000D01*
X48745Y-27210D01*
X48864Y-27388D01*
X49030Y-27500D01*
X48864Y-27611D01*
X48745Y-27789D01*
X48703Y-28000D01*
X48745Y-28210D01*
X48864Y-28388D01*
X49030Y-28500D01*
X48864Y-28611D01*
X48837Y-28651D01*
X48575Y-28651D01*
X48575Y-28651D01*
X48441Y-28678D01*
X48328Y-28753D01*
X48304Y-28777D01*
X48288Y-28771D01*
X48032Y-28771D01*
X47795Y-28868D01*
X47614Y-29049D01*
X47516Y-29286D01*
X47516Y-29542D01*
X47613Y-29779D01*
X47794Y-29960D01*
X48031Y-30058D01*
X48287Y-30058D01*
X48524Y-29961D01*
X48705Y-29780D01*
X48803Y-29543D01*
X48803Y-29348D01*
X48837Y-29348D01*
X48864Y-29388D01*
X49030Y-29500D01*
X48864Y-29611D01*
X48745Y-29789D01*
X48703Y-30000D01*
X48745Y-30210D01*
X48864Y-30388D01*
X48956Y-30450D01*
X48917Y-30450D01*
X48825Y-30488D01*
X48755Y-30558D01*
X48717Y-30650D01*
X48717Y-30887D01*
X48779Y-30950D01*
X49350Y-30950D01*
X49350Y-30942D01*
X49450Y-30942D01*
X49450Y-30950D01*
X50020Y-30950D01*
X50083Y-30887D01*
X50083Y-30650D01*
X50044Y-30558D01*
X49974Y-30488D01*
X49882Y-30450D01*
X49843Y-30450D01*
X49935Y-30388D01*
X50054Y-30210D01*
X50096Y-30000D01*
X50054Y-29789D01*
X50048Y-29779D01*
X50643Y-29184D01*
X50718Y-29071D01*
X50718Y-29071D01*
X50745Y-28937D01*
X50745Y-27957D01*
X50994Y-27708D01*
X51751Y-27708D01*
X51478Y-27981D01*
X51476Y-27985D01*
X51408Y-28013D01*
X51338Y-28083D01*
X51300Y-28175D01*
X51300Y-28274D01*
X51300Y-28824D01*
X51320Y-28874D01*
X51300Y-28925D01*
X51300Y-29024D01*
X51300Y-29574D01*
X51338Y-29666D01*
X51408Y-29736D01*
X51500Y-29775D01*
X51599Y-29775D01*
X51949Y-29775D01*
X52041Y-29736D01*
X52100Y-29678D01*
X52124Y-29702D01*
X51907Y-29920D01*
X51830Y-29920D01*
X51812Y-29920D01*
X51750Y-29982D01*
X51750Y-30300D01*
X51751Y-30300D01*
X51751Y-30400D01*
X51750Y-30400D01*
X51750Y-30407D01*
X51650Y-30407D01*
X51650Y-30400D01*
X51650Y-30300D01*
X51650Y-29982D01*
X51587Y-29920D01*
X51569Y-29920D01*
X51470Y-29920D01*
X51378Y-29958D01*
X51363Y-29972D01*
X51310Y-29919D01*
X51218Y-29881D01*
X51119Y-29881D01*
X51006Y-29881D01*
X50944Y-29943D01*
X50944Y-30256D01*
X51288Y-30256D01*
X51332Y-30300D01*
X51650Y-30300D01*
X51650Y-30400D01*
X51400Y-30400D01*
X51356Y-30356D01*
X50944Y-30356D01*
X50944Y-30363D01*
X50844Y-30363D01*
X50844Y-30356D01*
X50844Y-30256D01*
X50844Y-29943D01*
X50781Y-29881D01*
X50668Y-29881D01*
X50569Y-29881D01*
X50477Y-29919D01*
X50407Y-29989D01*
X50369Y-30081D01*
X50369Y-30193D01*
X50431Y-30256D01*
X50844Y-30256D01*
X50844Y-30356D01*
X50431Y-30356D01*
X50369Y-30418D01*
X50369Y-30530D01*
X50407Y-30622D01*
X50465Y-30681D01*
X50407Y-30739D01*
X50369Y-30831D01*
X50369Y-30930D01*
X50369Y-31280D01*
X50407Y-31372D01*
X50477Y-31442D01*
X50487Y-31447D01*
X50319Y-31614D01*
X50221Y-31851D01*
X50221Y-32107D01*
X50318Y-32344D01*
X50499Y-32525D01*
X50736Y-32623D01*
X50992Y-32623D01*
X51229Y-32526D01*
X51275Y-32479D01*
X51266Y-32501D01*
X51266Y-32757D01*
X51364Y-32994D01*
X51545Y-33175D01*
X51781Y-33273D01*
X52037Y-33273D01*
X52274Y-33175D01*
X52410Y-33040D01*
X52545Y-33175D01*
X52781Y-33273D01*
X53037Y-33273D01*
X53274Y-33175D01*
X53455Y-32994D01*
X53553Y-32758D01*
X53553Y-32502D01*
X53455Y-32265D01*
X53274Y-32084D01*
X53258Y-32077D01*
X53258Y-31810D01*
X53231Y-31676D01*
X53231Y-31676D01*
X53156Y-31563D01*
X52848Y-31255D01*
X52848Y-31182D01*
X52854Y-31197D01*
X53002Y-31344D01*
X53195Y-31424D01*
X53403Y-31425D01*
X53597Y-31345D01*
X53612Y-31330D01*
X53612Y-33091D01*
X53146Y-33557D01*
X52188Y-33557D01*
X52055Y-33583D01*
X51942Y-33659D01*
X51526Y-34075D01*
X51500Y-34075D01*
X51408Y-34113D01*
X51338Y-34183D01*
X51300Y-34275D01*
X51300Y-34374D01*
X51300Y-34924D01*
X51338Y-35016D01*
X51346Y-35024D01*
X51338Y-35033D01*
X51300Y-35125D01*
X51300Y-35224D01*
X51300Y-35774D01*
X51338Y-35866D01*
X51408Y-35936D01*
X51500Y-35975D01*
X51599Y-35975D01*
X51949Y-35975D01*
X52041Y-35936D01*
X52100Y-35878D01*
X52124Y-35902D01*
X51907Y-36120D01*
X51830Y-36120D01*
X51812Y-36120D01*
X51750Y-36182D01*
X51750Y-36500D01*
X51757Y-36500D01*
X51757Y-36600D01*
X51750Y-36600D01*
X51750Y-36607D01*
X51650Y-36607D01*
X51650Y-36600D01*
X51650Y-36500D01*
X51650Y-36182D01*
X51587Y-36120D01*
X51569Y-36120D01*
X51470Y-36120D01*
X51387Y-36154D01*
X51361Y-36128D01*
X51269Y-36090D01*
X51170Y-36090D01*
X51057Y-36090D01*
X50995Y-36152D01*
X50995Y-36465D01*
X51297Y-36465D01*
X51332Y-36500D01*
X51650Y-36500D01*
X51650Y-36600D01*
X51442Y-36600D01*
X51407Y-36565D01*
X50995Y-36565D01*
X50995Y-36572D01*
X50895Y-36572D01*
X50895Y-36565D01*
X50895Y-36465D01*
X50895Y-36152D01*
X50832Y-36090D01*
X50719Y-36090D01*
X50620Y-36090D01*
X50528Y-36128D01*
X50458Y-36198D01*
X50420Y-36290D01*
X50420Y-36402D01*
X50482Y-36465D01*
X50895Y-36465D01*
X50895Y-36565D01*
X50482Y-36565D01*
X50420Y-36627D01*
X50420Y-36739D01*
X50458Y-36831D01*
X50516Y-36890D01*
X50489Y-36916D01*
X50364Y-36916D01*
X50331Y-36835D01*
X50150Y-36654D01*
X50083Y-36626D01*
X50083Y-31349D01*
X50083Y-31112D01*
X50020Y-31050D01*
X49450Y-31050D01*
X49450Y-31487D01*
X49512Y-31550D01*
X49783Y-31550D01*
X49882Y-31550D01*
X49974Y-31511D01*
X50044Y-31441D01*
X50083Y-31349D01*
X50083Y-36626D01*
X49913Y-36556D01*
X49657Y-36556D01*
X49420Y-36653D01*
X49350Y-36724D01*
X49350Y-31487D01*
X49350Y-31050D01*
X48779Y-31050D01*
X48717Y-31112D01*
X48717Y-31349D01*
X48755Y-31441D01*
X48825Y-31511D01*
X48917Y-31550D01*
X49016Y-31550D01*
X49287Y-31550D01*
X49350Y-31487D01*
X49350Y-36724D01*
X49239Y-36834D01*
X49141Y-37071D01*
X49141Y-37327D01*
X49238Y-37564D01*
X49419Y-37745D01*
X49656Y-37843D01*
X49912Y-37843D01*
X50149Y-37746D01*
X50281Y-37613D01*
X50489Y-37613D01*
X50528Y-37651D01*
X50620Y-37690D01*
X50719Y-37690D01*
X51269Y-37690D01*
X51361Y-37651D01*
X51374Y-37638D01*
X51378Y-37641D01*
X51470Y-37680D01*
X51569Y-37680D01*
X51737Y-37680D01*
X51413Y-38003D01*
X51338Y-38116D01*
X51327Y-38171D01*
X51295Y-38184D01*
X51114Y-38365D01*
X51016Y-38601D01*
X51016Y-38857D01*
X51114Y-39094D01*
X51295Y-39275D01*
X51531Y-39373D01*
X51787Y-39373D01*
X52024Y-39275D01*
X52160Y-39140D01*
X52295Y-39275D01*
X52531Y-39373D01*
X52787Y-39373D01*
X53024Y-39275D01*
X53205Y-39094D01*
X53303Y-38858D01*
X53303Y-38602D01*
X53205Y-38365D01*
X53024Y-38184D01*
X53008Y-38177D01*
X53008Y-37710D01*
X52981Y-37576D01*
X52906Y-37463D01*
X52848Y-37405D01*
X52848Y-37265D01*
X52860Y-37252D01*
X53002Y-37394D01*
X53195Y-37474D01*
X53403Y-37475D01*
X53597Y-37395D01*
X53744Y-37247D01*
X53824Y-37054D01*
X53825Y-36846D01*
X53745Y-36653D01*
X53597Y-36505D01*
X53464Y-36449D01*
X53597Y-36395D01*
X53744Y-36247D01*
X53824Y-36054D01*
X53825Y-35846D01*
X53745Y-35653D01*
X53597Y-35505D01*
X53525Y-35475D01*
X53624Y-35475D01*
X53716Y-35436D01*
X53786Y-35366D01*
X53825Y-35274D01*
X53825Y-35175D01*
X53825Y-34625D01*
X53786Y-34533D01*
X53716Y-34463D01*
X53624Y-34425D01*
X53525Y-34425D01*
X53267Y-34425D01*
X53196Y-34353D01*
X53083Y-34278D01*
X52962Y-34254D01*
X53291Y-34254D01*
X53424Y-34227D01*
X53424Y-34227D01*
X53537Y-34151D01*
X53950Y-33739D01*
X53950Y-39373D01*
X53225Y-39373D01*
X53225Y-42175D01*
X49050Y-42175D01*
X49050Y-40792D01*
X48890Y-40405D01*
X48595Y-40110D01*
X48209Y-39950D01*
X47792Y-39949D01*
X47405Y-40109D01*
X47110Y-40404D01*
X46950Y-40790D01*
X46949Y-41207D01*
X47109Y-41594D01*
X47404Y-41889D01*
X47790Y-42049D01*
X48207Y-42050D01*
X48594Y-41890D01*
X48889Y-41595D01*
X49049Y-41209D01*
X49050Y-40792D01*
X49050Y-42175D01*
X46825Y-42175D01*
X46825Y-14325D01*
X68675Y-14325D01*
X68675Y-42175D01*
M02*
