M48
;DRILL file {Pcbnew (2013-mar-13)-testing} date Wed 12 Jun 2013 13:54:59 ART
;FORMAT={-:-/ absolute / metric / decimal}
FMAT,2
METRIC,TZ
T1C0.800
T2C0.813
T3C1.000
T4C1.001
T5C1.016
T6C1.524
T7C3.048
%
G90
G05
M71
T1
X131.216Y-98.374
X131.851Y-67.793
X131.851Y-82.88
X133.756Y-98.374
X134.391Y-67.793
X134.391Y-82.88
T2
X135.382Y-58.674
X135.382Y-61.214
X135.382Y-63.754
X135.382Y-73.406
X135.382Y-75.946
X135.382Y-78.486
X135.382Y-88.773
X135.382Y-91.313
X135.382Y-93.853
X143.002Y-58.674
X143.002Y-61.214
X143.002Y-63.754
X143.002Y-73.406
X143.002Y-75.946
X143.002Y-78.486
X143.002Y-88.773
X143.002Y-91.313
X143.002Y-93.853
X149.352Y-55.372
X149.352Y-65.532
X149.352Y-70.612
X149.352Y-80.772
X149.352Y-86.868
X149.352Y-97.028
T3
X122.326Y-74.714
X126.454Y-94.488
X128.626Y-67.475
X129.197Y-81.229
T4
X125.476Y-68.58
X125.476Y-71.12
X125.476Y-73.66
X125.476Y-76.2
X125.476Y-78.74
T5
X155.956Y-57.404
X155.956Y-59.944
X155.956Y-62.484
X155.956Y-73.152
X155.956Y-75.692
X155.956Y-78.232
X155.956Y-89.408
X155.956Y-91.948
X155.956Y-94.488
T6
X155.473Y-46.99
X160.553Y-46.99
X164.948Y-60.096
X164.948Y-65.176
X164.948Y-91.999
X164.948Y-97.079
X164.973Y-75.997
X164.973Y-81.077
T7
X121.92Y-39.37
X121.92Y-104.14
X171.45Y-39.37
X171.45Y-104.14
T0
M30
