G04 (created by PCBNEW (2013-mar-13)-testing) date Mon 10 Jun 2013 16:46:54 ART*
%MOIN*%
G04 Gerber Fmt 3.4, Leading zero omitted, Abs format*
%FSLAX34Y34*%
G01*
G70*
G90*
G04 APERTURE LIST*
%ADD10C,0.005906*%
%ADD11C,0.005000*%
%ADD12C,0.007500*%
G04 APERTURE END LIST*
G54D10*
G54D11*
X51850Y-24300D02*
X51850Y-25500D01*
X51850Y-25500D02*
X52150Y-25500D01*
X52150Y-25500D02*
X52150Y-24300D01*
X52150Y-24300D02*
X51850Y-24300D01*
X52600Y-23000D02*
G75*
G03X52600Y-23000I-50J0D01*
G74*
G01*
X52100Y-23000D02*
X52500Y-23000D01*
X52500Y-23000D02*
X52500Y-22400D01*
X52500Y-22400D02*
X52100Y-22400D01*
X51700Y-22400D02*
X51300Y-22400D01*
X51300Y-22400D02*
X51300Y-23000D01*
X51300Y-23000D02*
X51700Y-23000D01*
X56900Y-22800D02*
G75*
G03X56900Y-22800I-50J0D01*
G74*
G01*
X57300Y-22800D02*
X56900Y-22800D01*
X56900Y-22800D02*
X56900Y-23400D01*
X56900Y-23400D02*
X57300Y-23400D01*
X57700Y-23400D02*
X58100Y-23400D01*
X58100Y-23400D02*
X58100Y-22800D01*
X58100Y-22800D02*
X57700Y-22800D01*
X59400Y-21100D02*
G75*
G03X59400Y-21100I-50J0D01*
G74*
G01*
X59800Y-21100D02*
X59400Y-21100D01*
X59400Y-21100D02*
X59400Y-21700D01*
X59400Y-21700D02*
X59800Y-21700D01*
X60200Y-21700D02*
X60600Y-21700D01*
X60600Y-21700D02*
X60600Y-21100D01*
X60600Y-21100D02*
X60200Y-21100D01*
X52600Y-23800D02*
G75*
G03X52600Y-23800I-50J0D01*
G74*
G01*
X52100Y-23800D02*
X52500Y-23800D01*
X52500Y-23800D02*
X52500Y-23200D01*
X52500Y-23200D02*
X52100Y-23200D01*
X51700Y-23200D02*
X51300Y-23200D01*
X51300Y-23200D02*
X51300Y-23800D01*
X51300Y-23800D02*
X51700Y-23800D01*
X51950Y-36300D02*
X51950Y-37500D01*
X51950Y-37500D02*
X52250Y-37500D01*
X52250Y-37500D02*
X52250Y-36300D01*
X52250Y-36300D02*
X51950Y-36300D01*
X51950Y-30100D02*
X51950Y-31300D01*
X51950Y-31300D02*
X52250Y-31300D01*
X52250Y-31300D02*
X52250Y-30100D01*
X52250Y-30100D02*
X51950Y-30100D01*
X52800Y-35750D02*
G75*
G03X52800Y-35750I-50J0D01*
G74*
G01*
X52300Y-35750D02*
X52700Y-35750D01*
X52700Y-35750D02*
X52700Y-35150D01*
X52700Y-35150D02*
X52300Y-35150D01*
X51900Y-35150D02*
X51500Y-35150D01*
X51500Y-35150D02*
X51500Y-35750D01*
X51500Y-35750D02*
X51900Y-35750D01*
X60000Y-33900D02*
G75*
G03X60000Y-33900I-50J0D01*
G74*
G01*
X60400Y-33900D02*
X60000Y-33900D01*
X60000Y-33900D02*
X60000Y-34500D01*
X60000Y-34500D02*
X60400Y-34500D01*
X60800Y-34500D02*
X61200Y-34500D01*
X61200Y-34500D02*
X61200Y-33900D01*
X61200Y-33900D02*
X60800Y-33900D01*
X57000Y-34500D02*
G75*
G03X57000Y-34500I-50J0D01*
G74*
G01*
X57400Y-34500D02*
X57000Y-34500D01*
X57000Y-34500D02*
X57000Y-35100D01*
X57000Y-35100D02*
X57400Y-35100D01*
X57800Y-35100D02*
X58200Y-35100D01*
X58200Y-35100D02*
X58200Y-34500D01*
X58200Y-34500D02*
X57800Y-34500D01*
X52800Y-34900D02*
G75*
G03X52800Y-34900I-50J0D01*
G74*
G01*
X52300Y-34900D02*
X52700Y-34900D01*
X52700Y-34900D02*
X52700Y-34300D01*
X52700Y-34300D02*
X52300Y-34300D01*
X51900Y-34300D02*
X51500Y-34300D01*
X51500Y-34300D02*
X51500Y-34900D01*
X51500Y-34900D02*
X51900Y-34900D01*
X52800Y-29550D02*
G75*
G03X52800Y-29550I-50J0D01*
G74*
G01*
X52300Y-29550D02*
X52700Y-29550D01*
X52700Y-29550D02*
X52700Y-28950D01*
X52700Y-28950D02*
X52300Y-28950D01*
X51900Y-28950D02*
X51500Y-28950D01*
X51500Y-28950D02*
X51500Y-29550D01*
X51500Y-29550D02*
X51900Y-29550D01*
X59800Y-27500D02*
G75*
G03X59800Y-27500I-50J0D01*
G74*
G01*
X60200Y-27500D02*
X59800Y-27500D01*
X59800Y-27500D02*
X59800Y-28100D01*
X59800Y-28100D02*
X60200Y-28100D01*
X60600Y-28100D02*
X61000Y-28100D01*
X61000Y-28100D02*
X61000Y-27500D01*
X61000Y-27500D02*
X60600Y-27500D01*
X56800Y-28500D02*
G75*
G03X56800Y-28500I-50J0D01*
G74*
G01*
X57200Y-28500D02*
X56800Y-28500D01*
X56800Y-28500D02*
X56800Y-29100D01*
X56800Y-29100D02*
X57200Y-29100D01*
X57600Y-29100D02*
X58000Y-29100D01*
X58000Y-29100D02*
X58000Y-28500D01*
X58000Y-28500D02*
X57600Y-28500D01*
X52800Y-28800D02*
G75*
G03X52800Y-28800I-50J0D01*
G74*
G01*
X52300Y-28800D02*
X52700Y-28800D01*
X52700Y-28800D02*
X52700Y-28200D01*
X52700Y-28200D02*
X52300Y-28200D01*
X51900Y-28200D02*
X51500Y-28200D01*
X51500Y-28200D02*
X51500Y-28800D01*
X51500Y-28800D02*
X51900Y-28800D01*
X51200Y-24216D02*
G75*
G03X51200Y-24216I-50J0D01*
G74*
G01*
X51150Y-24666D02*
X51150Y-24266D01*
X51150Y-24266D02*
X50550Y-24266D01*
X50550Y-24266D02*
X50550Y-24666D01*
X50550Y-25066D02*
X50550Y-25466D01*
X50550Y-25466D02*
X51150Y-25466D01*
X51150Y-25466D02*
X51150Y-25066D01*
X51244Y-30031D02*
G75*
G03X51244Y-30031I-50J0D01*
G74*
G01*
X51194Y-30481D02*
X51194Y-30081D01*
X51194Y-30081D02*
X50594Y-30081D01*
X50594Y-30081D02*
X50594Y-30481D01*
X50594Y-30881D02*
X50594Y-31281D01*
X50594Y-31281D02*
X51194Y-31281D01*
X51194Y-31281D02*
X51194Y-30881D01*
X51295Y-36240D02*
G75*
G03X51295Y-36240I-50J0D01*
G74*
G01*
X51245Y-36690D02*
X51245Y-36290D01*
X51245Y-36290D02*
X50645Y-36290D01*
X50645Y-36290D02*
X50645Y-36690D01*
X50645Y-37090D02*
X50645Y-37490D01*
X50645Y-37490D02*
X51245Y-37490D01*
X51245Y-37490D02*
X51245Y-37090D01*
G54D12*
X51314Y-24871D02*
X51300Y-24842D01*
X51271Y-24814D01*
X51228Y-24771D01*
X51214Y-24742D01*
X51214Y-24714D01*
X51285Y-24728D02*
X51271Y-24700D01*
X51242Y-24671D01*
X51185Y-24657D01*
X51085Y-24657D01*
X51028Y-24671D01*
X51000Y-24700D01*
X50985Y-24728D01*
X50985Y-24785D01*
X51000Y-24814D01*
X51028Y-24842D01*
X51085Y-24857D01*
X51185Y-24857D01*
X51242Y-24842D01*
X51271Y-24814D01*
X51285Y-24785D01*
X51285Y-24728D01*
X51285Y-25142D02*
X51285Y-24971D01*
X51285Y-25057D02*
X50985Y-25057D01*
X51028Y-25028D01*
X51057Y-25000D01*
X51071Y-24971D01*
X51864Y-23985D02*
X51850Y-24000D01*
X51835Y-24028D01*
X51835Y-24100D01*
X51850Y-24128D01*
X51864Y-24142D01*
X51892Y-24157D01*
X51921Y-24157D01*
X51964Y-24142D01*
X52135Y-23971D01*
X52135Y-24157D01*
X52135Y-24285D02*
X51835Y-24285D01*
X52135Y-24457D01*
X51835Y-24457D01*
X51835Y-24571D02*
X51835Y-24771D01*
X52135Y-24642D01*
X51835Y-24942D02*
X51835Y-24971D01*
X51850Y-25000D01*
X51864Y-25014D01*
X51892Y-25028D01*
X51950Y-25042D01*
X52021Y-25042D01*
X52078Y-25028D01*
X52107Y-25014D01*
X52121Y-25000D01*
X52135Y-24971D01*
X52135Y-24942D01*
X52121Y-24914D01*
X52107Y-24900D01*
X52078Y-24885D01*
X52021Y-24871D01*
X51950Y-24871D01*
X51892Y-24885D01*
X51864Y-24900D01*
X51850Y-24914D01*
X51835Y-24942D01*
X51835Y-25228D02*
X51835Y-25257D01*
X51850Y-25285D01*
X51864Y-25300D01*
X51892Y-25314D01*
X51950Y-25328D01*
X52021Y-25328D01*
X52078Y-25314D01*
X52107Y-25300D01*
X52121Y-25285D01*
X52135Y-25257D01*
X52135Y-25228D01*
X52121Y-25200D01*
X52107Y-25185D01*
X52078Y-25171D01*
X52021Y-25157D01*
X51950Y-25157D01*
X51892Y-25171D01*
X51864Y-25185D01*
X51850Y-25200D01*
X51835Y-25228D01*
X51864Y-25442D02*
X51850Y-25457D01*
X51835Y-25485D01*
X51835Y-25557D01*
X51850Y-25585D01*
X51864Y-25600D01*
X51892Y-25614D01*
X51921Y-25614D01*
X51964Y-25600D01*
X52135Y-25428D01*
X52135Y-25614D01*
G54D11*
X51941Y-22713D02*
X52025Y-22594D01*
X52084Y-22713D02*
X52084Y-22463D01*
X51989Y-22463D01*
X51965Y-22475D01*
X51953Y-22486D01*
X51941Y-22510D01*
X51941Y-22546D01*
X51953Y-22570D01*
X51965Y-22582D01*
X51989Y-22594D01*
X52084Y-22594D01*
X51703Y-22713D02*
X51846Y-22713D01*
X51775Y-22713D02*
X51775Y-22463D01*
X51798Y-22498D01*
X51822Y-22522D01*
X51846Y-22534D01*
X57541Y-23113D02*
X57625Y-22994D01*
X57684Y-23113D02*
X57684Y-22863D01*
X57589Y-22863D01*
X57565Y-22875D01*
X57553Y-22886D01*
X57541Y-22910D01*
X57541Y-22946D01*
X57553Y-22970D01*
X57565Y-22982D01*
X57589Y-22994D01*
X57684Y-22994D01*
X57446Y-22886D02*
X57434Y-22875D01*
X57410Y-22863D01*
X57351Y-22863D01*
X57327Y-22875D01*
X57315Y-22886D01*
X57303Y-22910D01*
X57303Y-22934D01*
X57315Y-22970D01*
X57458Y-23113D01*
X57303Y-23113D01*
X60041Y-21513D02*
X60125Y-21394D01*
X60184Y-21513D02*
X60184Y-21263D01*
X60089Y-21263D01*
X60065Y-21275D01*
X60053Y-21286D01*
X60041Y-21310D01*
X60041Y-21346D01*
X60053Y-21370D01*
X60065Y-21382D01*
X60089Y-21394D01*
X60184Y-21394D01*
X59958Y-21263D02*
X59803Y-21263D01*
X59886Y-21358D01*
X59851Y-21358D01*
X59827Y-21370D01*
X59815Y-21382D01*
X59803Y-21405D01*
X59803Y-21465D01*
X59815Y-21489D01*
X59827Y-21501D01*
X59851Y-21513D01*
X59922Y-21513D01*
X59946Y-21501D01*
X59958Y-21489D01*
X52013Y-23558D02*
X51894Y-23475D01*
X52013Y-23415D02*
X51763Y-23415D01*
X51763Y-23510D01*
X51775Y-23534D01*
X51786Y-23546D01*
X51810Y-23558D01*
X51846Y-23558D01*
X51870Y-23546D01*
X51882Y-23534D01*
X51894Y-23510D01*
X51894Y-23415D01*
X51846Y-23772D02*
X52013Y-23772D01*
X51751Y-23713D02*
X51929Y-23653D01*
X51929Y-23808D01*
G54D12*
X51414Y-36871D02*
X51400Y-36842D01*
X51371Y-36814D01*
X51328Y-36771D01*
X51314Y-36742D01*
X51314Y-36714D01*
X51385Y-36728D02*
X51371Y-36700D01*
X51342Y-36671D01*
X51285Y-36657D01*
X51185Y-36657D01*
X51128Y-36671D01*
X51100Y-36700D01*
X51085Y-36728D01*
X51085Y-36785D01*
X51100Y-36814D01*
X51128Y-36842D01*
X51185Y-36857D01*
X51285Y-36857D01*
X51342Y-36842D01*
X51371Y-36814D01*
X51385Y-36785D01*
X51385Y-36728D01*
X51085Y-36957D02*
X51085Y-37142D01*
X51200Y-37042D01*
X51200Y-37085D01*
X51214Y-37114D01*
X51228Y-37128D01*
X51257Y-37142D01*
X51328Y-37142D01*
X51357Y-37128D01*
X51371Y-37114D01*
X51385Y-37085D01*
X51385Y-37000D01*
X51371Y-36971D01*
X51357Y-36957D01*
X51964Y-36085D02*
X51950Y-36100D01*
X51935Y-36128D01*
X51935Y-36200D01*
X51950Y-36228D01*
X51964Y-36242D01*
X51992Y-36257D01*
X52021Y-36257D01*
X52064Y-36242D01*
X52235Y-36071D01*
X52235Y-36257D01*
X52235Y-36385D02*
X51935Y-36385D01*
X52235Y-36557D01*
X51935Y-36557D01*
X51935Y-36671D02*
X51935Y-36871D01*
X52235Y-36742D01*
X51935Y-37042D02*
X51935Y-37071D01*
X51950Y-37100D01*
X51964Y-37114D01*
X51992Y-37128D01*
X52050Y-37142D01*
X52121Y-37142D01*
X52178Y-37128D01*
X52207Y-37114D01*
X52221Y-37100D01*
X52235Y-37071D01*
X52235Y-37042D01*
X52221Y-37014D01*
X52207Y-37000D01*
X52178Y-36985D01*
X52121Y-36971D01*
X52050Y-36971D01*
X51992Y-36985D01*
X51964Y-37000D01*
X51950Y-37014D01*
X51935Y-37042D01*
X51935Y-37328D02*
X51935Y-37357D01*
X51950Y-37385D01*
X51964Y-37400D01*
X51992Y-37414D01*
X52050Y-37428D01*
X52121Y-37428D01*
X52178Y-37414D01*
X52207Y-37400D01*
X52221Y-37385D01*
X52235Y-37357D01*
X52235Y-37328D01*
X52221Y-37300D01*
X52207Y-37285D01*
X52178Y-37271D01*
X52121Y-37257D01*
X52050Y-37257D01*
X51992Y-37271D01*
X51964Y-37285D01*
X51950Y-37300D01*
X51935Y-37328D01*
X51964Y-37542D02*
X51950Y-37557D01*
X51935Y-37585D01*
X51935Y-37657D01*
X51950Y-37685D01*
X51964Y-37700D01*
X51992Y-37714D01*
X52021Y-37714D01*
X52064Y-37700D01*
X52235Y-37528D01*
X52235Y-37714D01*
X51414Y-30671D02*
X51400Y-30642D01*
X51371Y-30614D01*
X51328Y-30571D01*
X51314Y-30542D01*
X51314Y-30514D01*
X51385Y-30528D02*
X51371Y-30500D01*
X51342Y-30471D01*
X51285Y-30457D01*
X51185Y-30457D01*
X51128Y-30471D01*
X51100Y-30500D01*
X51085Y-30528D01*
X51085Y-30585D01*
X51100Y-30614D01*
X51128Y-30642D01*
X51185Y-30657D01*
X51285Y-30657D01*
X51342Y-30642D01*
X51371Y-30614D01*
X51385Y-30585D01*
X51385Y-30528D01*
X51114Y-30771D02*
X51100Y-30785D01*
X51085Y-30814D01*
X51085Y-30885D01*
X51100Y-30914D01*
X51114Y-30928D01*
X51142Y-30942D01*
X51171Y-30942D01*
X51214Y-30928D01*
X51385Y-30757D01*
X51385Y-30942D01*
X51964Y-29785D02*
X51950Y-29800D01*
X51935Y-29828D01*
X51935Y-29900D01*
X51950Y-29928D01*
X51964Y-29942D01*
X51992Y-29957D01*
X52021Y-29957D01*
X52064Y-29942D01*
X52235Y-29771D01*
X52235Y-29957D01*
X52235Y-30085D02*
X51935Y-30085D01*
X52235Y-30257D01*
X51935Y-30257D01*
X51935Y-30371D02*
X51935Y-30571D01*
X52235Y-30442D01*
X51935Y-30742D02*
X51935Y-30771D01*
X51950Y-30800D01*
X51964Y-30814D01*
X51992Y-30828D01*
X52050Y-30842D01*
X52121Y-30842D01*
X52178Y-30828D01*
X52207Y-30814D01*
X52221Y-30800D01*
X52235Y-30771D01*
X52235Y-30742D01*
X52221Y-30714D01*
X52207Y-30700D01*
X52178Y-30685D01*
X52121Y-30671D01*
X52050Y-30671D01*
X51992Y-30685D01*
X51964Y-30700D01*
X51950Y-30714D01*
X51935Y-30742D01*
X51935Y-31028D02*
X51935Y-31057D01*
X51950Y-31085D01*
X51964Y-31100D01*
X51992Y-31114D01*
X52050Y-31128D01*
X52121Y-31128D01*
X52178Y-31114D01*
X52207Y-31100D01*
X52221Y-31085D01*
X52235Y-31057D01*
X52235Y-31028D01*
X52221Y-31000D01*
X52207Y-30985D01*
X52178Y-30971D01*
X52121Y-30957D01*
X52050Y-30957D01*
X51992Y-30971D01*
X51964Y-30985D01*
X51950Y-31000D01*
X51935Y-31028D01*
X51964Y-31242D02*
X51950Y-31257D01*
X51935Y-31285D01*
X51935Y-31357D01*
X51950Y-31385D01*
X51964Y-31400D01*
X51992Y-31414D01*
X52021Y-31414D01*
X52064Y-31400D01*
X52235Y-31228D01*
X52235Y-31414D01*
G54D11*
X52141Y-35563D02*
X52225Y-35444D01*
X52284Y-35563D02*
X52284Y-35313D01*
X52189Y-35313D01*
X52165Y-35325D01*
X52153Y-35336D01*
X52141Y-35360D01*
X52141Y-35396D01*
X52153Y-35420D01*
X52165Y-35432D01*
X52189Y-35444D01*
X52284Y-35444D01*
X52022Y-35563D02*
X51975Y-35563D01*
X51951Y-35551D01*
X51939Y-35539D01*
X51915Y-35503D01*
X51903Y-35455D01*
X51903Y-35360D01*
X51915Y-35336D01*
X51927Y-35325D01*
X51951Y-35313D01*
X51998Y-35313D01*
X52022Y-35325D01*
X52034Y-35336D01*
X52046Y-35360D01*
X52046Y-35420D01*
X52034Y-35444D01*
X52022Y-35455D01*
X51998Y-35467D01*
X51951Y-35467D01*
X51927Y-35455D01*
X51915Y-35444D01*
X51903Y-35420D01*
X60760Y-34313D02*
X60844Y-34194D01*
X60903Y-34313D02*
X60903Y-34063D01*
X60808Y-34063D01*
X60784Y-34075D01*
X60772Y-34086D01*
X60760Y-34110D01*
X60760Y-34146D01*
X60772Y-34170D01*
X60784Y-34182D01*
X60808Y-34194D01*
X60903Y-34194D01*
X60522Y-34313D02*
X60665Y-34313D01*
X60594Y-34313D02*
X60594Y-34063D01*
X60617Y-34098D01*
X60641Y-34122D01*
X60665Y-34134D01*
X60427Y-34086D02*
X60415Y-34075D01*
X60391Y-34063D01*
X60332Y-34063D01*
X60308Y-34075D01*
X60296Y-34086D01*
X60284Y-34110D01*
X60284Y-34134D01*
X60296Y-34170D01*
X60439Y-34313D01*
X60284Y-34313D01*
X57760Y-34913D02*
X57844Y-34794D01*
X57903Y-34913D02*
X57903Y-34663D01*
X57808Y-34663D01*
X57784Y-34675D01*
X57772Y-34686D01*
X57760Y-34710D01*
X57760Y-34746D01*
X57772Y-34770D01*
X57784Y-34782D01*
X57808Y-34794D01*
X57903Y-34794D01*
X57522Y-34913D02*
X57665Y-34913D01*
X57594Y-34913D02*
X57594Y-34663D01*
X57617Y-34698D01*
X57641Y-34722D01*
X57665Y-34734D01*
X57284Y-34913D02*
X57427Y-34913D01*
X57355Y-34913D02*
X57355Y-34663D01*
X57379Y-34698D01*
X57403Y-34722D01*
X57427Y-34734D01*
X52260Y-34713D02*
X52344Y-34594D01*
X52403Y-34713D02*
X52403Y-34463D01*
X52308Y-34463D01*
X52284Y-34475D01*
X52272Y-34486D01*
X52260Y-34510D01*
X52260Y-34546D01*
X52272Y-34570D01*
X52284Y-34582D01*
X52308Y-34594D01*
X52403Y-34594D01*
X52022Y-34713D02*
X52165Y-34713D01*
X52094Y-34713D02*
X52094Y-34463D01*
X52117Y-34498D01*
X52141Y-34522D01*
X52165Y-34534D01*
X51867Y-34463D02*
X51844Y-34463D01*
X51820Y-34475D01*
X51808Y-34486D01*
X51796Y-34510D01*
X51784Y-34558D01*
X51784Y-34617D01*
X51796Y-34665D01*
X51808Y-34689D01*
X51820Y-34701D01*
X51844Y-34713D01*
X51867Y-34713D01*
X51891Y-34701D01*
X51903Y-34689D01*
X51915Y-34665D01*
X51927Y-34617D01*
X51927Y-34558D01*
X51915Y-34510D01*
X51903Y-34486D01*
X51891Y-34475D01*
X51867Y-34463D01*
X52141Y-29363D02*
X52225Y-29244D01*
X52284Y-29363D02*
X52284Y-29113D01*
X52189Y-29113D01*
X52165Y-29125D01*
X52153Y-29136D01*
X52141Y-29160D01*
X52141Y-29196D01*
X52153Y-29220D01*
X52165Y-29232D01*
X52189Y-29244D01*
X52284Y-29244D01*
X51915Y-29113D02*
X52034Y-29113D01*
X52046Y-29232D01*
X52034Y-29220D01*
X52010Y-29208D01*
X51951Y-29208D01*
X51927Y-29220D01*
X51915Y-29232D01*
X51903Y-29255D01*
X51903Y-29315D01*
X51915Y-29339D01*
X51927Y-29351D01*
X51951Y-29363D01*
X52010Y-29363D01*
X52034Y-29351D01*
X52046Y-29339D01*
X60441Y-27913D02*
X60525Y-27794D01*
X60584Y-27913D02*
X60584Y-27663D01*
X60489Y-27663D01*
X60465Y-27675D01*
X60453Y-27686D01*
X60441Y-27710D01*
X60441Y-27746D01*
X60453Y-27770D01*
X60465Y-27782D01*
X60489Y-27794D01*
X60584Y-27794D01*
X60298Y-27770D02*
X60322Y-27758D01*
X60334Y-27746D01*
X60346Y-27722D01*
X60346Y-27710D01*
X60334Y-27686D01*
X60322Y-27675D01*
X60298Y-27663D01*
X60251Y-27663D01*
X60227Y-27675D01*
X60215Y-27686D01*
X60203Y-27710D01*
X60203Y-27722D01*
X60215Y-27746D01*
X60227Y-27758D01*
X60251Y-27770D01*
X60298Y-27770D01*
X60322Y-27782D01*
X60334Y-27794D01*
X60346Y-27817D01*
X60346Y-27865D01*
X60334Y-27889D01*
X60322Y-27901D01*
X60298Y-27913D01*
X60251Y-27913D01*
X60227Y-27901D01*
X60215Y-27889D01*
X60203Y-27865D01*
X60203Y-27817D01*
X60215Y-27794D01*
X60227Y-27782D01*
X60251Y-27770D01*
X57441Y-28913D02*
X57525Y-28794D01*
X57584Y-28913D02*
X57584Y-28663D01*
X57489Y-28663D01*
X57465Y-28675D01*
X57453Y-28686D01*
X57441Y-28710D01*
X57441Y-28746D01*
X57453Y-28770D01*
X57465Y-28782D01*
X57489Y-28794D01*
X57584Y-28794D01*
X57358Y-28663D02*
X57191Y-28663D01*
X57298Y-28913D01*
X52141Y-28613D02*
X52225Y-28494D01*
X52284Y-28613D02*
X52284Y-28363D01*
X52189Y-28363D01*
X52165Y-28375D01*
X52153Y-28386D01*
X52141Y-28410D01*
X52141Y-28446D01*
X52153Y-28470D01*
X52165Y-28482D01*
X52189Y-28494D01*
X52284Y-28494D01*
X51927Y-28363D02*
X51975Y-28363D01*
X51998Y-28375D01*
X52010Y-28386D01*
X52034Y-28422D01*
X52046Y-28470D01*
X52046Y-28565D01*
X52034Y-28589D01*
X52022Y-28601D01*
X51998Y-28613D01*
X51951Y-28613D01*
X51927Y-28601D01*
X51915Y-28589D01*
X51903Y-28565D01*
X51903Y-28505D01*
X51915Y-28482D01*
X51927Y-28470D01*
X51951Y-28458D01*
X51998Y-28458D01*
X52022Y-28470D01*
X52034Y-28482D01*
X52046Y-28505D01*
X50963Y-24705D02*
X50844Y-24621D01*
X50963Y-24562D02*
X50713Y-24562D01*
X50713Y-24657D01*
X50725Y-24681D01*
X50736Y-24693D01*
X50760Y-24705D01*
X50796Y-24705D01*
X50820Y-24693D01*
X50832Y-24681D01*
X50844Y-24657D01*
X50844Y-24562D01*
X50963Y-24943D02*
X50963Y-24800D01*
X50963Y-24871D02*
X50713Y-24871D01*
X50748Y-24848D01*
X50772Y-24824D01*
X50784Y-24800D01*
X50713Y-25026D02*
X50713Y-25193D01*
X50963Y-25086D01*
X51007Y-30520D02*
X50888Y-30436D01*
X51007Y-30377D02*
X50757Y-30377D01*
X50757Y-30472D01*
X50769Y-30496D01*
X50780Y-30508D01*
X50804Y-30520D01*
X50840Y-30520D01*
X50864Y-30508D01*
X50876Y-30496D01*
X50888Y-30472D01*
X50888Y-30377D01*
X51007Y-30758D02*
X51007Y-30615D01*
X51007Y-30686D02*
X50757Y-30686D01*
X50792Y-30663D01*
X50816Y-30639D01*
X50828Y-30615D01*
X50864Y-30901D02*
X50852Y-30877D01*
X50840Y-30865D01*
X50816Y-30853D01*
X50804Y-30853D01*
X50780Y-30865D01*
X50769Y-30877D01*
X50757Y-30901D01*
X50757Y-30948D01*
X50769Y-30972D01*
X50780Y-30984D01*
X50804Y-30996D01*
X50816Y-30996D01*
X50840Y-30984D01*
X50852Y-30972D01*
X50864Y-30948D01*
X50864Y-30901D01*
X50876Y-30877D01*
X50888Y-30865D01*
X50911Y-30853D01*
X50959Y-30853D01*
X50983Y-30865D01*
X50995Y-30877D01*
X51007Y-30901D01*
X51007Y-30948D01*
X50995Y-30972D01*
X50983Y-30984D01*
X50959Y-30996D01*
X50911Y-30996D01*
X50888Y-30984D01*
X50876Y-30972D01*
X50864Y-30948D01*
X51058Y-36729D02*
X50939Y-36645D01*
X51058Y-36586D02*
X50808Y-36586D01*
X50808Y-36681D01*
X50820Y-36705D01*
X50831Y-36717D01*
X50855Y-36729D01*
X50891Y-36729D01*
X50915Y-36717D01*
X50927Y-36705D01*
X50939Y-36681D01*
X50939Y-36586D01*
X51058Y-36967D02*
X51058Y-36824D01*
X51058Y-36895D02*
X50808Y-36895D01*
X50843Y-36872D01*
X50867Y-36848D01*
X50879Y-36824D01*
X51058Y-37086D02*
X51058Y-37134D01*
X51046Y-37157D01*
X51034Y-37169D01*
X50998Y-37193D01*
X50950Y-37205D01*
X50855Y-37205D01*
X50831Y-37193D01*
X50820Y-37181D01*
X50808Y-37157D01*
X50808Y-37110D01*
X50820Y-37086D01*
X50831Y-37074D01*
X50855Y-37062D01*
X50915Y-37062D01*
X50939Y-37074D01*
X50950Y-37086D01*
X50962Y-37110D01*
X50962Y-37157D01*
X50950Y-37181D01*
X50939Y-37193D01*
X50915Y-37205D01*
M02*
