G04 (created by PCBNEW (2013-mar-13)-testing) date Mon 10 Jun 2013 16:46:54 ART*
%MOIN*%
G04 Gerber Fmt 3.4, Leading zero omitted, Abs format*
%FSLAX34Y34*%
G01*
G70*
G90*
G04 APERTURE LIST*
%ADD10C,0.005906*%
%ADD11R,0.056000X0.056000*%
%ADD12R,0.055000X0.075000*%
%ADD13R,0.075000X0.075000*%
%ADD14C,0.075000*%
%ADD15C,0.090000*%
%ADD16R,0.090000X0.090000*%
%ADD17R,0.075000X0.055000*%
%ADD18C,0.180000*%
%ADD19R,0.106600X0.080000*%
%ADD20O,0.106600X0.080000*%
%ADD21C,0.098700*%
%ADD22R,0.120000X0.120000*%
%ADD23C,0.120000*%
G04 APERTURE END LIST*
G54D10*
G54D11*
X51600Y-24550D03*
X51600Y-25250D03*
X52400Y-24900D03*
G54D12*
X52275Y-22700D03*
X51525Y-22700D03*
X57125Y-23100D03*
X57875Y-23100D03*
X59625Y-21400D03*
X60375Y-21400D03*
G54D13*
X53300Y-23100D03*
G54D14*
X53300Y-24100D03*
X53300Y-25100D03*
X56300Y-25100D03*
X56300Y-24100D03*
X56300Y-23100D03*
G54D12*
X52275Y-23500D03*
X51525Y-23500D03*
G54D11*
X51700Y-36550D03*
X51700Y-37250D03*
X52500Y-36900D03*
X51700Y-30350D03*
X51700Y-31050D03*
X52500Y-30700D03*
G54D12*
X52475Y-35450D03*
X51725Y-35450D03*
X60225Y-34200D03*
X60975Y-34200D03*
X57225Y-34800D03*
X57975Y-34800D03*
X52475Y-34600D03*
X51725Y-34600D03*
X52475Y-29250D03*
X51725Y-29250D03*
X60025Y-27800D03*
X60775Y-27800D03*
X57025Y-28800D03*
X57775Y-28800D03*
X52475Y-28500D03*
X51725Y-28500D03*
G54D13*
X53300Y-34950D03*
G54D14*
X53300Y-35950D03*
X53300Y-36950D03*
X56300Y-36950D03*
X56300Y-35950D03*
X56300Y-34950D03*
G54D13*
X53300Y-28900D03*
G54D14*
X53300Y-29900D03*
X53300Y-30900D03*
X56300Y-30900D03*
X56300Y-29900D03*
X56300Y-28900D03*
G54D13*
X58800Y-21800D03*
G54D14*
X58800Y-25800D03*
G54D13*
X58800Y-27800D03*
G54D14*
X58800Y-31800D03*
G54D13*
X58800Y-34200D03*
G54D14*
X58800Y-38200D03*
G54D15*
X61400Y-23600D03*
X61400Y-22600D03*
G54D16*
X61400Y-24600D03*
G54D15*
X61400Y-29800D03*
X61400Y-28800D03*
G54D16*
X61400Y-30800D03*
G54D15*
X61400Y-36200D03*
X61400Y-35200D03*
G54D16*
X61400Y-37200D03*
G54D17*
X50850Y-24491D03*
X50850Y-25241D03*
X50894Y-30306D03*
X50894Y-31056D03*
X50945Y-36515D03*
X50945Y-37265D03*
G54D18*
X48000Y-41000D03*
X67500Y-41000D03*
X67500Y-15500D03*
X48000Y-15500D03*
G54D19*
X49400Y-31000D03*
G54D20*
X49400Y-30000D03*
X49400Y-29000D03*
X49400Y-28000D03*
X49400Y-27000D03*
G54D21*
X51910Y-26690D03*
X52910Y-26690D03*
X51910Y-32630D03*
X52910Y-32630D03*
X51660Y-38730D03*
X52660Y-38730D03*
G54D22*
X64940Y-25660D03*
G54D23*
X64940Y-23660D03*
G54D22*
X61210Y-18500D03*
G54D23*
X63210Y-18500D03*
G54D22*
X64950Y-31920D03*
G54D23*
X64950Y-29920D03*
G54D22*
X64940Y-38220D03*
G54D23*
X64940Y-36220D03*
M02*
