G04 (created by PCBNEW (2013-mar-13)-testing) date Thu 18 Apr 2013 08:44:14 PM ART*
%MOIN*%
G04 Gerber Fmt 3.4, Leading zero omitted, Abs format*
%FSLAX34Y34*%
G01*
G70*
G90*
G04 APERTURE LIST*
%ADD10C,2.3622e-06*%
%ADD11C,0.012*%
%ADD12C,0.16*%
%ADD13R,0.055X0.055*%
%ADD14C,0.055*%
%ADD15R,0.0236X0.0551*%
%ADD16R,0.035X0.055*%
%ADD17R,0.055X0.035*%
%ADD18R,0.0314X0.081*%
%ADD19R,0.09X0.062*%
%ADD20O,0.09X0.062*%
%ADD21R,0.1X0.1*%
%ADD22C,0.1*%
%ADD23R,0.0748X0.1732*%
%ADD24R,0.06X0.06*%
%ADD25C,0.06*%
%ADD26C,0.066*%
%ADD27C,0.0787*%
%ADD28C,0.0197*%
%ADD29C,0.0276*%
%ADD30C,0.0394*%
G04 APERTURE END LIST*
G54D10*
G54D11*
X62557Y-53573D02*
X62614Y-53611D01*
X62728Y-53611D01*
X62785Y-53573D01*
X62814Y-53497D01*
X62814Y-53192D01*
X62785Y-53116D01*
X62728Y-53078D01*
X62614Y-53078D01*
X62557Y-53116D01*
X62528Y-53192D01*
X62528Y-53269D01*
X62814Y-53345D01*
X62299Y-53573D02*
X62242Y-53611D01*
X62128Y-53611D01*
X62071Y-53573D01*
X62042Y-53497D01*
X62042Y-53459D01*
X62071Y-53383D01*
X62128Y-53345D01*
X62214Y-53345D01*
X62271Y-53307D01*
X62299Y-53230D01*
X62299Y-53192D01*
X62271Y-53116D01*
X62214Y-53078D01*
X62128Y-53078D01*
X62071Y-53116D01*
X61871Y-53078D02*
X61642Y-53078D01*
X61785Y-52811D02*
X61785Y-53497D01*
X61757Y-53573D01*
X61700Y-53611D01*
X61642Y-53611D01*
X61185Y-53611D02*
X61185Y-53192D01*
X61214Y-53116D01*
X61271Y-53078D01*
X61385Y-53078D01*
X61442Y-53116D01*
X61185Y-53573D02*
X61242Y-53611D01*
X61385Y-53611D01*
X61442Y-53573D01*
X61471Y-53497D01*
X61471Y-53421D01*
X61442Y-53345D01*
X61385Y-53307D01*
X61242Y-53307D01*
X61185Y-53269D01*
X60900Y-53078D02*
X60900Y-53611D01*
X60900Y-53154D02*
X60871Y-53116D01*
X60814Y-53078D01*
X60728Y-53078D01*
X60671Y-53116D01*
X60642Y-53192D01*
X60642Y-53611D01*
X60100Y-53078D02*
X60100Y-53611D01*
X60357Y-53078D02*
X60357Y-53497D01*
X60328Y-53573D01*
X60271Y-53611D01*
X60185Y-53611D01*
X60128Y-53573D01*
X60100Y-53535D01*
X59871Y-53611D02*
X59557Y-53078D01*
X59871Y-53078D02*
X59557Y-53611D01*
X58957Y-53230D02*
X58985Y-53192D01*
X59042Y-53154D01*
X59100Y-53154D01*
X59157Y-53192D01*
X59185Y-53230D01*
X59214Y-53307D01*
X59214Y-53383D01*
X59185Y-53459D01*
X59157Y-53497D01*
X59100Y-53535D01*
X59042Y-53535D01*
X58985Y-53497D01*
X58957Y-53459D01*
X58957Y-53154D02*
X58957Y-53459D01*
X58928Y-53497D01*
X58900Y-53497D01*
X58842Y-53459D01*
X58814Y-53383D01*
X58814Y-53192D01*
X58871Y-53078D01*
X58957Y-53002D01*
X59071Y-52964D01*
X59185Y-53002D01*
X59271Y-53078D01*
X59328Y-53192D01*
X59357Y-53345D01*
X59328Y-53497D01*
X59271Y-53611D01*
X59185Y-53688D01*
X59071Y-53726D01*
X58957Y-53688D01*
X58871Y-53611D01*
X58300Y-53078D02*
X58300Y-53726D01*
X58328Y-53802D01*
X58357Y-53840D01*
X58414Y-53878D01*
X58500Y-53878D01*
X58557Y-53840D01*
X58300Y-53573D02*
X58357Y-53611D01*
X58471Y-53611D01*
X58528Y-53573D01*
X58557Y-53535D01*
X58585Y-53459D01*
X58585Y-53230D01*
X58557Y-53154D01*
X58528Y-53116D01*
X58471Y-53078D01*
X58357Y-53078D01*
X58300Y-53116D01*
X58014Y-53611D02*
X58014Y-53078D01*
X58014Y-53154D02*
X57985Y-53116D01*
X57928Y-53078D01*
X57842Y-53078D01*
X57785Y-53116D01*
X57757Y-53192D01*
X57757Y-53611D01*
X57757Y-53192D02*
X57728Y-53116D01*
X57671Y-53078D01*
X57585Y-53078D01*
X57528Y-53116D01*
X57500Y-53192D01*
X57500Y-53611D01*
X56957Y-53611D02*
X56957Y-53192D01*
X56985Y-53116D01*
X57042Y-53078D01*
X57157Y-53078D01*
X57214Y-53116D01*
X56957Y-53573D02*
X57014Y-53611D01*
X57157Y-53611D01*
X57214Y-53573D01*
X57242Y-53497D01*
X57242Y-53421D01*
X57214Y-53345D01*
X57157Y-53307D01*
X57014Y-53307D01*
X56957Y-53269D01*
X56671Y-53611D02*
X56671Y-53078D01*
X56671Y-52811D02*
X56700Y-52850D01*
X56671Y-52888D01*
X56642Y-52850D01*
X56671Y-52811D01*
X56671Y-52888D01*
X56300Y-53611D02*
X56357Y-53573D01*
X56385Y-53497D01*
X56385Y-52811D01*
X56071Y-53535D02*
X56042Y-53573D01*
X56071Y-53611D01*
X56100Y-53573D01*
X56071Y-53535D01*
X56071Y-53611D01*
X55528Y-53573D02*
X55585Y-53611D01*
X55700Y-53611D01*
X55757Y-53573D01*
X55785Y-53535D01*
X55814Y-53459D01*
X55814Y-53230D01*
X55785Y-53154D01*
X55757Y-53116D01*
X55700Y-53078D01*
X55585Y-53078D01*
X55528Y-53116D01*
X55185Y-53611D02*
X55242Y-53573D01*
X55271Y-53535D01*
X55300Y-53459D01*
X55300Y-53230D01*
X55271Y-53154D01*
X55242Y-53116D01*
X55185Y-53078D01*
X55100Y-53078D01*
X55042Y-53116D01*
X55014Y-53154D01*
X54985Y-53230D01*
X54985Y-53459D01*
X55014Y-53535D01*
X55042Y-53573D01*
X55100Y-53611D01*
X55185Y-53611D01*
X54728Y-53611D02*
X54728Y-53078D01*
X54728Y-53154D02*
X54700Y-53116D01*
X54642Y-53078D01*
X54557Y-53078D01*
X54500Y-53116D01*
X54471Y-53192D01*
X54471Y-53611D01*
X54471Y-53192D02*
X54442Y-53116D01*
X54385Y-53078D01*
X54300Y-53078D01*
X54242Y-53116D01*
X54214Y-53192D01*
X54214Y-53611D01*
X62585Y-54318D02*
X62357Y-54318D01*
X62500Y-54851D02*
X62500Y-54166D01*
X62471Y-54090D01*
X62414Y-54051D01*
X62357Y-54051D01*
X61900Y-54851D02*
X61900Y-54432D01*
X61928Y-54356D01*
X61985Y-54318D01*
X62100Y-54318D01*
X62157Y-54356D01*
X61900Y-54813D02*
X61957Y-54851D01*
X62100Y-54851D01*
X62157Y-54813D01*
X62185Y-54737D01*
X62185Y-54661D01*
X62157Y-54585D01*
X62100Y-54547D01*
X61957Y-54547D01*
X61900Y-54509D01*
X61614Y-54318D02*
X61614Y-54851D01*
X61614Y-54394D02*
X61585Y-54356D01*
X61528Y-54318D01*
X61442Y-54318D01*
X61385Y-54356D01*
X61357Y-54432D01*
X61357Y-54851D01*
X60814Y-54851D02*
X60814Y-54432D01*
X60842Y-54356D01*
X60900Y-54318D01*
X61014Y-54318D01*
X61071Y-54356D01*
X60814Y-54813D02*
X60871Y-54851D01*
X61014Y-54851D01*
X61071Y-54813D01*
X61100Y-54737D01*
X61100Y-54661D01*
X61071Y-54585D01*
X61014Y-54547D01*
X60871Y-54547D01*
X60814Y-54509D01*
X60271Y-54318D02*
X60271Y-54851D01*
X60528Y-54318D02*
X60528Y-54737D01*
X60500Y-54813D01*
X60442Y-54851D01*
X60357Y-54851D01*
X60300Y-54813D01*
X60271Y-54775D01*
X59985Y-54851D02*
X59985Y-54318D01*
X59985Y-54470D02*
X59957Y-54394D01*
X59928Y-54356D01*
X59871Y-54318D01*
X59814Y-54318D01*
X59242Y-54470D02*
X59271Y-54432D01*
X59328Y-54394D01*
X59385Y-54394D01*
X59442Y-54432D01*
X59471Y-54470D01*
X59500Y-54547D01*
X59500Y-54623D01*
X59471Y-54699D01*
X59442Y-54737D01*
X59385Y-54775D01*
X59328Y-54775D01*
X59271Y-54737D01*
X59242Y-54699D01*
X59242Y-54394D02*
X59242Y-54699D01*
X59214Y-54737D01*
X59185Y-54737D01*
X59128Y-54699D01*
X59100Y-54623D01*
X59100Y-54432D01*
X59157Y-54318D01*
X59242Y-54242D01*
X59357Y-54204D01*
X59471Y-54242D01*
X59557Y-54318D01*
X59614Y-54432D01*
X59642Y-54585D01*
X59614Y-54737D01*
X59557Y-54851D01*
X59471Y-54928D01*
X59357Y-54966D01*
X59242Y-54928D01*
X59157Y-54851D01*
X58585Y-54318D02*
X58585Y-54966D01*
X58614Y-55042D01*
X58642Y-55080D01*
X58700Y-55118D01*
X58785Y-55118D01*
X58842Y-55080D01*
X58585Y-54813D02*
X58642Y-54851D01*
X58757Y-54851D01*
X58814Y-54813D01*
X58842Y-54775D01*
X58871Y-54699D01*
X58871Y-54470D01*
X58842Y-54394D01*
X58814Y-54356D01*
X58757Y-54318D01*
X58642Y-54318D01*
X58585Y-54356D01*
X58300Y-54851D02*
X58300Y-54318D01*
X58300Y-54394D02*
X58271Y-54356D01*
X58214Y-54318D01*
X58128Y-54318D01*
X58071Y-54356D01*
X58042Y-54432D01*
X58042Y-54851D01*
X58042Y-54432D02*
X58014Y-54356D01*
X57957Y-54318D01*
X57871Y-54318D01*
X57814Y-54356D01*
X57785Y-54432D01*
X57785Y-54851D01*
X57242Y-54851D02*
X57242Y-54432D01*
X57271Y-54356D01*
X57328Y-54318D01*
X57442Y-54318D01*
X57500Y-54356D01*
X57242Y-54813D02*
X57300Y-54851D01*
X57442Y-54851D01*
X57500Y-54813D01*
X57528Y-54737D01*
X57528Y-54661D01*
X57500Y-54585D01*
X57442Y-54547D01*
X57300Y-54547D01*
X57242Y-54509D01*
X56957Y-54851D02*
X56957Y-54318D01*
X56957Y-54051D02*
X56985Y-54090D01*
X56957Y-54128D01*
X56928Y-54090D01*
X56957Y-54051D01*
X56957Y-54128D01*
X56585Y-54851D02*
X56642Y-54813D01*
X56671Y-54737D01*
X56671Y-54051D01*
X56357Y-54775D02*
X56328Y-54813D01*
X56357Y-54851D01*
X56385Y-54813D01*
X56357Y-54775D01*
X56357Y-54851D01*
X55814Y-54813D02*
X55871Y-54851D01*
X55985Y-54851D01*
X56042Y-54813D01*
X56071Y-54775D01*
X56100Y-54699D01*
X56100Y-54470D01*
X56071Y-54394D01*
X56042Y-54356D01*
X55985Y-54318D01*
X55871Y-54318D01*
X55814Y-54356D01*
X55471Y-54851D02*
X55528Y-54813D01*
X55557Y-54775D01*
X55585Y-54699D01*
X55585Y-54470D01*
X55557Y-54394D01*
X55528Y-54356D01*
X55471Y-54318D01*
X55385Y-54318D01*
X55328Y-54356D01*
X55300Y-54394D01*
X55271Y-54470D01*
X55271Y-54699D01*
X55300Y-54775D01*
X55328Y-54813D01*
X55385Y-54851D01*
X55471Y-54851D01*
X55014Y-54851D02*
X55014Y-54318D01*
X55014Y-54394D02*
X54985Y-54356D01*
X54928Y-54318D01*
X54842Y-54318D01*
X54785Y-54356D01*
X54757Y-54432D01*
X54757Y-54851D01*
X54757Y-54432D02*
X54728Y-54356D01*
X54671Y-54318D01*
X54585Y-54318D01*
X54528Y-54356D01*
X54500Y-54432D01*
X54500Y-54851D01*
G54D12*
X43250Y-54250D03*
X76250Y-54250D03*
X76250Y-25250D03*
X43250Y-25250D03*
G54D13*
X58928Y-28547D03*
G54D14*
X58928Y-27547D03*
X57928Y-27547D03*
G54D13*
X57503Y-35022D03*
G54D14*
X58503Y-35022D03*
X58503Y-34022D03*
G54D15*
X53566Y-33485D03*
X53566Y-35585D03*
X53066Y-33485D03*
X52566Y-33485D03*
X52066Y-33485D03*
X53066Y-35585D03*
X52566Y-35585D03*
X52066Y-35585D03*
X46066Y-32960D03*
X46066Y-35060D03*
X45566Y-32960D03*
X45066Y-32960D03*
X44566Y-32960D03*
X45566Y-35060D03*
X45066Y-35060D03*
X44566Y-35060D03*
G54D16*
X70415Y-26785D03*
X71165Y-26785D03*
G54D17*
X45291Y-46560D03*
X45291Y-47310D03*
X46216Y-47285D03*
X46216Y-46535D03*
X53066Y-37410D03*
X53066Y-36660D03*
X53491Y-31535D03*
X53491Y-32285D03*
X44566Y-36735D03*
X44566Y-35985D03*
G54D16*
X59441Y-32335D03*
X58691Y-32335D03*
X44066Y-38810D03*
X44816Y-38810D03*
G54D17*
X44566Y-31260D03*
X44566Y-32010D03*
X60178Y-28497D03*
X60178Y-29247D03*
X58866Y-29685D03*
X58866Y-30435D03*
G54D16*
X59603Y-33347D03*
X60353Y-33347D03*
G54D17*
X52666Y-31535D03*
X52666Y-32285D03*
X52116Y-36685D03*
X52116Y-37435D03*
X45466Y-35960D03*
X45466Y-36710D03*
X46366Y-36685D03*
X46366Y-35935D03*
X45641Y-31235D03*
X45641Y-31985D03*
G54D16*
X47966Y-40035D03*
X47216Y-40035D03*
G54D17*
X53266Y-42810D03*
X53266Y-42060D03*
X46491Y-31235D03*
X46491Y-31985D03*
X46491Y-43410D03*
X46491Y-42660D03*
G54D18*
X54666Y-41127D03*
X55926Y-41127D03*
X56791Y-41127D03*
X57666Y-41127D03*
X57666Y-43543D03*
X56791Y-43543D03*
X55926Y-43543D03*
X54666Y-43543D03*
X54666Y-46652D03*
X55926Y-46652D03*
X56791Y-46652D03*
X57666Y-46652D03*
X57666Y-49068D03*
X56791Y-49068D03*
X55926Y-49068D03*
X54666Y-49068D03*
G54D19*
X47991Y-46910D03*
G54D20*
X47991Y-47910D03*
X47991Y-48910D03*
X50991Y-48910D03*
X50991Y-47910D03*
X50991Y-46910D03*
G54D19*
X47966Y-41410D03*
G54D20*
X47966Y-42410D03*
X47966Y-43410D03*
X50966Y-43410D03*
X50966Y-42410D03*
X50966Y-41410D03*
G54D10*
G36*
X70968Y-30650D02*
X70968Y-31831D01*
X70377Y-31831D01*
X70377Y-30650D01*
X70968Y-30650D01*
X70968Y-30650D01*
G37*
G36*
X72149Y-30650D02*
X72149Y-31831D01*
X71558Y-31831D01*
X71558Y-30650D01*
X72149Y-30650D01*
X72149Y-30650D01*
G37*
G36*
X72149Y-33209D02*
X72149Y-34391D01*
X71558Y-34391D01*
X71558Y-33209D01*
X72149Y-33209D01*
X72149Y-33209D01*
G37*
G36*
X70968Y-33209D02*
X70968Y-34391D01*
X70377Y-34391D01*
X70377Y-33209D01*
X70968Y-33209D01*
X70968Y-33209D01*
G37*
G54D21*
X75438Y-34072D03*
G54D22*
X75438Y-32072D03*
X75438Y-30072D03*
G54D21*
X44191Y-45460D03*
G54D22*
X44191Y-47460D03*
X44191Y-49460D03*
G54D21*
X75401Y-40760D03*
G54D22*
X75401Y-42760D03*
G54D21*
X75344Y-45596D03*
G54D22*
X75344Y-47596D03*
G54D21*
X75344Y-49927D03*
G54D22*
X75344Y-51927D03*
G54D23*
X62903Y-36654D03*
X62903Y-33229D03*
X62892Y-30468D03*
X62892Y-27043D03*
G54D17*
X60328Y-35222D03*
X60328Y-34472D03*
G54D13*
X50866Y-33435D03*
G54D14*
X50866Y-32435D03*
X50866Y-31435D03*
X50866Y-30435D03*
X47866Y-30435D03*
X47866Y-31435D03*
X47866Y-32435D03*
X47866Y-33435D03*
G54D13*
X50816Y-38360D03*
G54D14*
X50816Y-37360D03*
X50816Y-36360D03*
X50816Y-35360D03*
X47816Y-35360D03*
X47816Y-36360D03*
X47816Y-37360D03*
X47816Y-38360D03*
G54D24*
X44091Y-40035D03*
G54D25*
X45091Y-40035D03*
X44091Y-41035D03*
X45091Y-41035D03*
X44091Y-42035D03*
X45091Y-42035D03*
X44091Y-43035D03*
X45091Y-43035D03*
G54D17*
X53416Y-48210D03*
X53416Y-47460D03*
G54D21*
X75426Y-38560D03*
G54D22*
X75426Y-36560D03*
G54D17*
X54716Y-35985D03*
X54716Y-35235D03*
X51866Y-31535D03*
X51866Y-32285D03*
G54D26*
X56806Y-32305D03*
X55806Y-32305D03*
X56801Y-29555D03*
X55801Y-29555D03*
X45486Y-38010D03*
X46486Y-38010D03*
G54D21*
X51550Y-25750D03*
G54D22*
X53550Y-25750D03*
X55550Y-25750D03*
G54D23*
X67555Y-36637D03*
X67555Y-33212D03*
X67520Y-30522D03*
X67520Y-27097D03*
G54D27*
X47903Y-44883D03*
X43139Y-43919D03*
X51092Y-28584D03*
X51564Y-39509D03*
X58116Y-33185D03*
X56516Y-37510D03*
X55501Y-34726D03*
X59812Y-30690D03*
X54163Y-36793D03*
X54419Y-28604D03*
X65600Y-31880D03*
X71645Y-27905D03*
G54D28*
X44091Y-43035D02*
X44024Y-43035D01*
X48491Y-39467D02*
X48491Y-37035D01*
X48690Y-39667D02*
X48491Y-39467D01*
X48690Y-44096D02*
X48690Y-39667D01*
X47903Y-44883D02*
X48690Y-44096D01*
X44024Y-43035D02*
X43139Y-43919D01*
X47716Y-34285D02*
X47316Y-34285D01*
X46066Y-33360D02*
X46066Y-32960D01*
X46466Y-33760D02*
X46066Y-33360D01*
X46791Y-33760D02*
X46466Y-33760D01*
X47316Y-34285D02*
X46791Y-33760D01*
X48491Y-37035D02*
X48491Y-35805D01*
X48116Y-34285D02*
X47716Y-34285D01*
X48638Y-34807D02*
X48116Y-34285D01*
X48638Y-35658D02*
X48638Y-34807D01*
X48491Y-35805D02*
X48638Y-35658D01*
X47716Y-34285D02*
X47666Y-34285D01*
X48491Y-37035D02*
X47816Y-36360D01*
X47866Y-31435D02*
X47666Y-31435D01*
X47666Y-31435D02*
X47018Y-32082D01*
X47018Y-32082D02*
X47018Y-32582D01*
X47018Y-32582D02*
X46641Y-32960D01*
X46641Y-32960D02*
X46066Y-32960D01*
G54D29*
X44191Y-45460D02*
X44191Y-43135D01*
X44191Y-43135D02*
X44091Y-43035D01*
G54D28*
X55241Y-38785D02*
X52289Y-38785D01*
X51529Y-30771D02*
X50866Y-31435D01*
X51529Y-30281D02*
X51529Y-30771D01*
X51013Y-29765D02*
X51529Y-30281D01*
X51013Y-28663D02*
X51013Y-29765D01*
X51092Y-28584D02*
X51013Y-28663D01*
X52289Y-38785D02*
X51564Y-39509D01*
X55241Y-40760D02*
X55241Y-38785D01*
X58278Y-33347D02*
X59153Y-33347D01*
X58116Y-33185D02*
X58278Y-33347D01*
X55241Y-38785D02*
X56516Y-37510D01*
X54666Y-41127D02*
X54874Y-41127D01*
X55191Y-40785D02*
X55216Y-40785D01*
X55216Y-40785D02*
X55241Y-40785D01*
X55216Y-40760D02*
X55191Y-40785D01*
X55241Y-40760D02*
X55216Y-40760D01*
X54874Y-41127D02*
X55241Y-40760D01*
X54666Y-46652D02*
X54666Y-44985D01*
X54666Y-44985D02*
X55241Y-44410D01*
X55241Y-44410D02*
X55241Y-40785D01*
X53266Y-42060D02*
X53733Y-42060D01*
X53733Y-42060D02*
X54666Y-41127D01*
X53416Y-47460D02*
X53566Y-47460D01*
X54374Y-46652D02*
X54666Y-46652D01*
X53566Y-47460D02*
X54374Y-46652D01*
X50816Y-36360D02*
X50816Y-36335D01*
X53566Y-33935D02*
X53566Y-33485D01*
X53066Y-34435D02*
X53566Y-33935D01*
X51691Y-34435D02*
X53066Y-34435D01*
X51316Y-34060D02*
X51691Y-34435D01*
X50766Y-34060D02*
X51316Y-34060D01*
X50241Y-34585D02*
X50766Y-34060D01*
X50241Y-35760D02*
X50241Y-34585D01*
X50816Y-36335D02*
X50241Y-35760D01*
X59603Y-33347D02*
X59603Y-32497D01*
X59603Y-32497D02*
X59441Y-32335D01*
G54D29*
X58503Y-34022D02*
X57191Y-34022D01*
X57191Y-34022D02*
X56741Y-34022D01*
X54103Y-34022D02*
X53566Y-33485D01*
X55778Y-34022D02*
X54103Y-34022D01*
X56741Y-34022D02*
X55778Y-34022D01*
G54D30*
X59603Y-33347D02*
X59153Y-33347D01*
X59153Y-33347D02*
X58478Y-34022D01*
G54D28*
X58866Y-29685D02*
X59358Y-29685D01*
X52066Y-35189D02*
X52066Y-35585D01*
X52523Y-34732D02*
X52066Y-35189D01*
X55496Y-34732D02*
X52523Y-34732D01*
X55501Y-34726D02*
X55496Y-34732D01*
X59812Y-30139D02*
X59812Y-30690D01*
X59358Y-29685D02*
X59812Y-30139D01*
X58866Y-29685D02*
X58866Y-28610D01*
X58866Y-28610D02*
X58928Y-28547D01*
G54D30*
X60178Y-28497D02*
X58978Y-28497D01*
X58978Y-28497D02*
X58928Y-28547D01*
X56791Y-46652D02*
X56791Y-47176D01*
X75124Y-51927D02*
X75344Y-51927D01*
X74281Y-51084D02*
X75124Y-51927D01*
X74281Y-48998D02*
X74281Y-51084D01*
X74596Y-48683D02*
X74281Y-48998D01*
X76053Y-48683D02*
X74596Y-48683D01*
X76446Y-48289D02*
X76053Y-48683D01*
X76446Y-44903D02*
X76446Y-48289D01*
X76092Y-44549D02*
X76446Y-44903D01*
X66958Y-44549D02*
X76092Y-44549D01*
X63809Y-47698D02*
X66958Y-44549D01*
X57312Y-47698D02*
X63809Y-47698D01*
X56791Y-47176D02*
X57312Y-47698D01*
X75426Y-36560D02*
X76213Y-36560D01*
X76627Y-51927D02*
X75344Y-51927D01*
X77549Y-51005D02*
X76627Y-51927D01*
X77549Y-37895D02*
X77549Y-51005D01*
X76213Y-36560D02*
X77549Y-37895D01*
X56791Y-41127D02*
X56791Y-40583D01*
X75426Y-36633D02*
X75426Y-36560D01*
X71053Y-41005D02*
X75426Y-36633D01*
X59950Y-41005D02*
X71053Y-41005D01*
X59222Y-40277D02*
X59950Y-41005D01*
X57096Y-40277D02*
X59222Y-40277D01*
X56791Y-40583D02*
X57096Y-40277D01*
X55926Y-46652D02*
X55926Y-46014D01*
X76998Y-42698D02*
X76998Y-42620D01*
X75895Y-43801D02*
X76998Y-42698D01*
X61486Y-43801D02*
X75895Y-43801D01*
X60068Y-45218D02*
X61486Y-43801D01*
X56722Y-45218D02*
X60068Y-45218D01*
X55926Y-46014D02*
X56722Y-45218D01*
X75426Y-38560D02*
X75426Y-38567D01*
X76029Y-49927D02*
X75344Y-49927D01*
X76998Y-48958D02*
X76029Y-49927D01*
X76998Y-40139D02*
X76998Y-42620D01*
X76998Y-42620D02*
X76998Y-48958D01*
X75426Y-38567D02*
X76998Y-40139D01*
X63435Y-41560D02*
X59652Y-41560D01*
X55926Y-41725D02*
X55926Y-41127D01*
X56584Y-42383D02*
X55926Y-41725D01*
X58828Y-42383D02*
X56584Y-42383D01*
X59652Y-41560D02*
X58828Y-42383D01*
X75426Y-38560D02*
X74901Y-38560D01*
X71901Y-41560D02*
X63435Y-41560D01*
X63435Y-41560D02*
X63476Y-41560D01*
X74901Y-38560D02*
X71901Y-41560D01*
X75344Y-45596D02*
X67722Y-45596D01*
X64250Y-49068D02*
X57666Y-49068D01*
X67722Y-45596D02*
X64250Y-49068D01*
X55926Y-49068D02*
X55926Y-49422D01*
X67572Y-47596D02*
X75344Y-47596D01*
X65108Y-50061D02*
X67572Y-47596D01*
X56564Y-50061D02*
X65108Y-50061D01*
X55926Y-49422D02*
X56564Y-50061D01*
X71854Y-33800D02*
X71854Y-36065D01*
X71283Y-36637D02*
X67555Y-36637D01*
X71854Y-36065D02*
X71283Y-36637D01*
X67555Y-36637D02*
X67537Y-36654D01*
X67537Y-36654D02*
X62903Y-36654D01*
X67025Y-36604D02*
X62953Y-36604D01*
X62953Y-36604D02*
X62903Y-36654D01*
X61228Y-36654D02*
X59110Y-36654D01*
X59110Y-36654D02*
X57478Y-35022D01*
X60328Y-35222D02*
X60328Y-35822D01*
X61160Y-36654D02*
X61228Y-36654D01*
X61228Y-36654D02*
X62903Y-36654D01*
X60328Y-35822D02*
X61160Y-36654D01*
X67025Y-36604D02*
X67013Y-36604D01*
G54D29*
X70415Y-26785D02*
X69885Y-26785D01*
X69030Y-27640D02*
X69030Y-28440D01*
X69885Y-26785D02*
X69030Y-27640D01*
G54D30*
X62892Y-27043D02*
X67466Y-27043D01*
X67466Y-27043D02*
X67520Y-27097D01*
X70672Y-33800D02*
X70490Y-33800D01*
X67687Y-27097D02*
X67400Y-27097D01*
X69080Y-28490D02*
X69030Y-28440D01*
X69030Y-28440D02*
X67687Y-27097D01*
X69080Y-32390D02*
X69080Y-28490D01*
X70490Y-33800D02*
X69080Y-32390D01*
X62960Y-27147D02*
X62928Y-27179D01*
X58928Y-27547D02*
X62560Y-27547D01*
X62560Y-27547D02*
X62928Y-27179D01*
X71854Y-31241D02*
X72607Y-31241D01*
X72607Y-31241D02*
X75438Y-34072D01*
X70672Y-31241D02*
X70672Y-30838D01*
X71438Y-30072D02*
X75438Y-30072D01*
X70672Y-30838D02*
X71438Y-30072D01*
G54D28*
X46491Y-42660D02*
X46491Y-42435D01*
X46491Y-42435D02*
X45091Y-41035D01*
X47216Y-40035D02*
X45091Y-40035D01*
X45091Y-42035D02*
X45066Y-42035D01*
X44591Y-39335D02*
X44066Y-38810D01*
X44591Y-41560D02*
X44591Y-39335D01*
X45066Y-42035D02*
X44591Y-41560D01*
X45291Y-46560D02*
X45291Y-44460D01*
X44591Y-42535D02*
X44091Y-42035D01*
X44591Y-43760D02*
X44591Y-42535D01*
X45291Y-44460D02*
X44591Y-43760D01*
X45291Y-46560D02*
X46191Y-46560D01*
X46191Y-46560D02*
X46216Y-46535D01*
X44091Y-41035D02*
X43941Y-41035D01*
X45566Y-33460D02*
X45566Y-32960D01*
X45266Y-33760D02*
X45566Y-33460D01*
X44816Y-33760D02*
X45266Y-33760D01*
X43716Y-34860D02*
X44816Y-33760D01*
X43716Y-37710D02*
X43716Y-34860D01*
X43291Y-38135D02*
X43716Y-37710D01*
X43291Y-40385D02*
X43291Y-38135D01*
X43941Y-41035D02*
X43291Y-40385D01*
X45566Y-32960D02*
X45566Y-32060D01*
X45566Y-32060D02*
X45641Y-31985D01*
X44091Y-40035D02*
X44041Y-40035D01*
X45466Y-37185D02*
X45466Y-36710D01*
X45241Y-37410D02*
X45466Y-37185D01*
X44591Y-37410D02*
X45241Y-37410D01*
X43591Y-38410D02*
X44591Y-37410D01*
X43591Y-39585D02*
X43591Y-38410D01*
X44041Y-40035D02*
X43591Y-39585D01*
X45466Y-36710D02*
X45466Y-36685D01*
X46441Y-35060D02*
X46066Y-35060D01*
X46966Y-35585D02*
X46441Y-35060D01*
X46966Y-36135D02*
X46966Y-35585D01*
X46791Y-36310D02*
X46966Y-36135D01*
X45841Y-36310D02*
X46791Y-36310D01*
X45466Y-36685D02*
X45841Y-36310D01*
G54D30*
X64640Y-42135D02*
X60541Y-42135D01*
X60491Y-42185D02*
X59133Y-43543D01*
X59133Y-43543D02*
X57666Y-43543D01*
X60541Y-42135D02*
X60491Y-42185D01*
X75401Y-40760D02*
X74026Y-40760D01*
X72651Y-42135D02*
X64640Y-42135D01*
X64640Y-42135D02*
X64601Y-42135D01*
X74026Y-40760D02*
X72651Y-42135D01*
X65651Y-42760D02*
X61591Y-42760D01*
X55926Y-44220D02*
X56316Y-44610D01*
X56316Y-44610D02*
X59741Y-44610D01*
X59741Y-44610D02*
X61541Y-42810D01*
X75401Y-42760D02*
X65651Y-42760D01*
X55926Y-44220D02*
X55926Y-43543D01*
X61591Y-42760D02*
X61541Y-42810D01*
G54D29*
X51550Y-25750D02*
X51550Y-27450D01*
X51866Y-27766D02*
X51866Y-31535D01*
X51550Y-27450D02*
X51866Y-27766D01*
X55550Y-25750D02*
X55550Y-27473D01*
X54716Y-36240D02*
X54716Y-35985D01*
X54163Y-36793D02*
X54716Y-36240D01*
X55550Y-27473D02*
X54419Y-28604D01*
G54D28*
X46486Y-38010D02*
X46486Y-38285D01*
X47536Y-42410D02*
X47966Y-42410D01*
X47136Y-42010D02*
X47536Y-42410D01*
X47136Y-40930D02*
X47136Y-42010D01*
X47591Y-40475D02*
X47136Y-40930D01*
X47591Y-39390D02*
X47591Y-40475D01*
X46486Y-38285D02*
X47591Y-39390D01*
X46366Y-36685D02*
X46366Y-37890D01*
X46366Y-37890D02*
X46486Y-38010D01*
X46491Y-31235D02*
X47141Y-31235D01*
X42991Y-48260D02*
X44191Y-49460D01*
X42991Y-44960D02*
X42991Y-48260D01*
X42316Y-44285D02*
X42991Y-44960D01*
X42316Y-43610D02*
X42316Y-44285D01*
X42991Y-42935D02*
X42316Y-43610D01*
X42991Y-38014D02*
X42991Y-42935D01*
X43418Y-37586D02*
X42991Y-38014D01*
X43418Y-34732D02*
X43418Y-37586D01*
X43718Y-34432D02*
X43418Y-34732D01*
X43718Y-30936D02*
X43718Y-34432D01*
X44517Y-30137D02*
X43718Y-30936D01*
X47388Y-30137D02*
X44517Y-30137D01*
X47616Y-29910D02*
X47388Y-30137D01*
X48066Y-29910D02*
X47616Y-29910D01*
X48366Y-30210D02*
X48066Y-29910D01*
X48366Y-30635D02*
X48366Y-30210D01*
X48066Y-30935D02*
X48366Y-30635D01*
X47441Y-30935D02*
X48066Y-30935D01*
X47141Y-31235D02*
X47441Y-30935D01*
X46216Y-47285D02*
X46216Y-47735D01*
X46216Y-47735D02*
X46391Y-47910D01*
X46366Y-36685D02*
X46841Y-36685D01*
X45836Y-34187D02*
X45836Y-34185D01*
X46743Y-34187D02*
X45836Y-34187D01*
X47366Y-34810D02*
X46743Y-34187D01*
X48016Y-34810D02*
X47366Y-34810D01*
X48341Y-35135D02*
X48016Y-34810D01*
X48341Y-35535D02*
X48341Y-35135D01*
X47991Y-35885D02*
X48341Y-35535D01*
X47441Y-35885D02*
X47991Y-35885D01*
X47263Y-36062D02*
X47441Y-35885D01*
X47263Y-36262D02*
X47263Y-36062D01*
X46841Y-36685D02*
X47263Y-36262D01*
X44566Y-36735D02*
X44391Y-36735D01*
X44041Y-35585D02*
X44566Y-35060D01*
X44041Y-36385D02*
X44041Y-35585D01*
X44391Y-36735D02*
X44041Y-36385D01*
X44566Y-35060D02*
X44566Y-34764D01*
X45836Y-34185D02*
X45836Y-34185D01*
X45145Y-34185D02*
X45836Y-34185D01*
X44566Y-34764D02*
X45145Y-34185D01*
X46491Y-31235D02*
X46491Y-31060D01*
X44566Y-31060D02*
X44566Y-31260D01*
X44891Y-30735D02*
X44566Y-31060D01*
X46166Y-30735D02*
X44891Y-30735D01*
X46491Y-31060D02*
X46166Y-30735D01*
G54D29*
X44191Y-49460D02*
X44841Y-49460D01*
X44841Y-49460D02*
X46391Y-47910D01*
X46391Y-47910D02*
X47991Y-47910D01*
G54D28*
X45091Y-43035D02*
X45091Y-43135D01*
X47541Y-47910D02*
X47991Y-47910D01*
X47216Y-47585D02*
X47541Y-47910D01*
X47216Y-46710D02*
X47216Y-47585D01*
X46193Y-45687D02*
X47216Y-46710D01*
X46193Y-44237D02*
X46193Y-45687D01*
X45091Y-43135D02*
X46193Y-44237D01*
X45091Y-43035D02*
X46991Y-43035D01*
X46991Y-43035D02*
X47616Y-42410D01*
X47616Y-42410D02*
X47966Y-42410D01*
X49943Y-34470D02*
X49943Y-28571D01*
X49943Y-28571D02*
X50698Y-27816D01*
X50698Y-27816D02*
X50698Y-25100D01*
X50698Y-25100D02*
X50915Y-24883D01*
X50915Y-24883D02*
X52683Y-24883D01*
X52683Y-24883D02*
X53550Y-25750D01*
G54D29*
X62955Y-31825D02*
X60405Y-31825D01*
X60115Y-31535D02*
X56216Y-31535D01*
X60405Y-31825D02*
X60115Y-31535D01*
X71645Y-27905D02*
X71645Y-27845D01*
X71165Y-27365D02*
X71165Y-26785D01*
X71645Y-27845D02*
X71165Y-27365D01*
G54D30*
X75438Y-32072D02*
X75877Y-32072D01*
X65180Y-31845D02*
X65180Y-31825D01*
X65200Y-31825D02*
X65180Y-31845D01*
X65545Y-31825D02*
X65200Y-31825D01*
X65600Y-31880D02*
X65545Y-31825D01*
X71675Y-27905D02*
X71645Y-27905D01*
X71690Y-27890D02*
X71675Y-27905D01*
X75530Y-27890D02*
X71690Y-27890D01*
X76790Y-29150D02*
X75530Y-27890D01*
X76790Y-31160D02*
X76790Y-29150D01*
X75877Y-32072D02*
X76790Y-31160D01*
X67520Y-31825D02*
X65180Y-31825D01*
X65180Y-31825D02*
X62955Y-31825D01*
X62955Y-31825D02*
X62906Y-31825D01*
X62906Y-31825D02*
X62903Y-31822D01*
X67520Y-30522D02*
X67520Y-31825D01*
X67520Y-31825D02*
X67520Y-33177D01*
X67520Y-33177D02*
X67555Y-33212D01*
G54D29*
X55750Y-31550D02*
X53506Y-31550D01*
X53506Y-31550D02*
X53491Y-31535D01*
X53550Y-25750D02*
X53550Y-29350D01*
X53550Y-29350D02*
X55750Y-31550D01*
X55750Y-31550D02*
X56050Y-31550D01*
X56050Y-31550D02*
X56050Y-31535D01*
G54D28*
X56050Y-31535D02*
X56216Y-31535D01*
X57928Y-27547D02*
X58103Y-27547D01*
X61571Y-28885D02*
X61571Y-29247D01*
X60731Y-28045D02*
X61571Y-28885D01*
X58601Y-28045D02*
X60731Y-28045D01*
X58103Y-27547D02*
X58601Y-28045D01*
X56801Y-29555D02*
X56801Y-28675D01*
X56801Y-28675D02*
X57928Y-27547D01*
X55806Y-32305D02*
X55806Y-31945D01*
X55806Y-31945D02*
X56216Y-31535D01*
X50266Y-44210D02*
X50266Y-38910D01*
X50266Y-38910D02*
X50816Y-38360D01*
X50991Y-48910D02*
X50766Y-48910D01*
X50266Y-44110D02*
X50966Y-43410D01*
X50266Y-48410D02*
X50266Y-44210D01*
X50266Y-44210D02*
X50266Y-44110D01*
X50766Y-48910D02*
X50266Y-48410D01*
G54D29*
X58503Y-35022D02*
X58453Y-35022D01*
X55191Y-37410D02*
X54641Y-37410D01*
X55866Y-36735D02*
X55191Y-37410D01*
X55866Y-35435D02*
X55866Y-36735D01*
X56902Y-34398D02*
X55866Y-35435D01*
X57829Y-34398D02*
X56902Y-34398D01*
X58453Y-35022D02*
X57829Y-34398D01*
G54D28*
X50816Y-38360D02*
X50766Y-38360D01*
X50766Y-38360D02*
X49943Y-37537D01*
X49943Y-37537D02*
X49943Y-34470D01*
X49943Y-34470D02*
X49943Y-34372D01*
X49943Y-34372D02*
X49943Y-34357D01*
X50291Y-34010D02*
X50866Y-33435D01*
X49991Y-34310D02*
X50291Y-34010D01*
X49943Y-34357D02*
X49991Y-34310D01*
X53066Y-37410D02*
X54641Y-37410D01*
X50816Y-38360D02*
X51291Y-38360D01*
X51291Y-38360D02*
X51766Y-37885D01*
X51766Y-37885D02*
X52591Y-37885D01*
X52591Y-37885D02*
X53066Y-37410D01*
G54D30*
X62903Y-33229D02*
X62903Y-31822D01*
X62903Y-31822D02*
X62903Y-30629D01*
X61571Y-29247D02*
X62928Y-30604D01*
X62903Y-30629D02*
X62928Y-30604D01*
X60328Y-34472D02*
X59353Y-34472D01*
X58803Y-35022D02*
X58478Y-35022D01*
X59353Y-34472D02*
X58803Y-35022D01*
X60328Y-34472D02*
X60328Y-33372D01*
X60328Y-33372D02*
X60353Y-33347D01*
X60353Y-33347D02*
X62785Y-33347D01*
X62785Y-33347D02*
X62903Y-33229D01*
X60178Y-29247D02*
X61571Y-29247D01*
G54D28*
X53266Y-42810D02*
X51366Y-42810D01*
X51366Y-42810D02*
X50966Y-42410D01*
X54666Y-43543D02*
X53599Y-43543D01*
X53266Y-43210D02*
X53266Y-42810D01*
X53599Y-43543D02*
X53266Y-43210D01*
X51866Y-32285D02*
X51866Y-32735D01*
X52066Y-32935D02*
X52066Y-33485D01*
X51866Y-32735D02*
X52066Y-32935D01*
X52566Y-35585D02*
X52566Y-35285D01*
X54566Y-35085D02*
X54716Y-35235D01*
X52766Y-35085D02*
X54566Y-35085D01*
X52566Y-35285D02*
X52766Y-35085D01*
G54D29*
X47966Y-40035D02*
X47966Y-41410D01*
G54D28*
X53416Y-48210D02*
X53416Y-48535D01*
X53949Y-49068D02*
X54666Y-49068D01*
X53416Y-48535D02*
X53949Y-49068D01*
X50991Y-47910D02*
X52341Y-47910D01*
X52641Y-48210D02*
X53416Y-48210D01*
X52341Y-47910D02*
X52641Y-48210D01*
X45641Y-31235D02*
X45391Y-31235D01*
X45066Y-31560D02*
X45066Y-32960D01*
X45391Y-31235D02*
X45066Y-31560D01*
X45641Y-31235D02*
X45641Y-31310D01*
X46491Y-31835D02*
X46491Y-31985D01*
X46266Y-31610D02*
X46491Y-31835D01*
X45941Y-31610D02*
X46266Y-31610D01*
X45641Y-31310D02*
X45941Y-31610D01*
X45466Y-35960D02*
X46341Y-35960D01*
X46341Y-35960D02*
X46366Y-35935D01*
X45566Y-35060D02*
X45566Y-35860D01*
X45566Y-35860D02*
X45466Y-35960D01*
X47866Y-30435D02*
X45168Y-30435D01*
X44216Y-32010D02*
X44566Y-32010D01*
X44016Y-31810D02*
X44216Y-32010D01*
X44016Y-31060D02*
X44016Y-31810D01*
X44641Y-30435D02*
X44016Y-31060D01*
X45168Y-30435D02*
X44641Y-30435D01*
X44566Y-32010D02*
X44566Y-32310D01*
X44566Y-32310D02*
X44566Y-32960D01*
X45066Y-35060D02*
X45066Y-34685D01*
X47341Y-35360D02*
X47816Y-35360D01*
X46466Y-34485D02*
X47341Y-35360D01*
X45266Y-34485D02*
X46466Y-34485D01*
X45066Y-34685D02*
X45266Y-34485D01*
X45066Y-35060D02*
X45066Y-35360D01*
X44566Y-35860D02*
X44566Y-35985D01*
X45066Y-35360D02*
X44566Y-35860D01*
X52566Y-33485D02*
X52566Y-33835D01*
X50316Y-30985D02*
X50866Y-30435D01*
X50316Y-32660D02*
X50316Y-30985D01*
X50566Y-32910D02*
X50316Y-32660D01*
X51316Y-32910D02*
X50566Y-32910D01*
X51566Y-33160D02*
X51316Y-32910D01*
X51566Y-33860D02*
X51566Y-33160D01*
X51816Y-34110D02*
X51566Y-33860D01*
X52291Y-34110D02*
X51816Y-34110D01*
X52566Y-33835D02*
X52291Y-34110D01*
X53491Y-32285D02*
X53491Y-32360D01*
X52566Y-32835D02*
X52566Y-33485D01*
X52716Y-32685D02*
X52566Y-32835D01*
X53166Y-32685D02*
X52716Y-32685D01*
X53491Y-32360D02*
X53166Y-32685D01*
X50816Y-35360D02*
X50841Y-35360D01*
X52591Y-36185D02*
X53066Y-36660D01*
X51666Y-36185D02*
X52591Y-36185D01*
X50841Y-35360D02*
X51666Y-36185D01*
X53066Y-36660D02*
X53066Y-35585D01*
X55801Y-29555D02*
X55801Y-29630D01*
X56606Y-30435D02*
X58866Y-30435D01*
X55801Y-29630D02*
X56606Y-30435D01*
X44816Y-38810D02*
X44816Y-38680D01*
X44816Y-38680D02*
X45486Y-38010D01*
X45291Y-47310D02*
X44341Y-47310D01*
X44341Y-47310D02*
X44191Y-47460D01*
X56806Y-32305D02*
X58661Y-32305D01*
X58661Y-32305D02*
X58691Y-32335D01*
X52666Y-32285D02*
X52666Y-32035D01*
X50866Y-32385D02*
X50866Y-32435D01*
X51341Y-31910D02*
X50866Y-32385D01*
X52541Y-31910D02*
X51341Y-31910D01*
X52666Y-32035D02*
X52541Y-31910D01*
X52116Y-37435D02*
X50891Y-37435D01*
X50891Y-37435D02*
X50816Y-37360D01*
X53066Y-33485D02*
X53066Y-33260D01*
X53041Y-31910D02*
X52666Y-31535D01*
X53891Y-31910D02*
X53041Y-31910D01*
X54016Y-32035D02*
X53891Y-31910D01*
X54016Y-32610D02*
X54016Y-32035D01*
X53791Y-32835D02*
X54016Y-32610D01*
X53491Y-32835D02*
X53791Y-32835D01*
X53066Y-33260D02*
X53491Y-32835D01*
X52116Y-36685D02*
X52116Y-36935D01*
X53566Y-36935D02*
X53566Y-35585D01*
X53466Y-37035D02*
X53566Y-36935D01*
X52216Y-37035D02*
X53466Y-37035D01*
X52116Y-36935D02*
X52216Y-37035D01*
X46491Y-43410D02*
X46491Y-45410D01*
X46491Y-45410D02*
X47991Y-46910D01*
M02*
