M48
;DRILL file {Pcbnew (2013-mar-13)-testing} date Thu 18 Apr 2013 08:44:16 PM ART
;FORMAT={-:-/ absolute / inch / decimal}
FMAT,2
INCH,TZ
T1C0.032
T2C0.032
T3C0.039
T4C0.040
T5C0.060
T6C0.120
%
G90
G05
M72
T1
X4.7816Y-3.536
X4.7816Y-3.636
X4.7816Y-3.736
X4.7816Y-3.836
X4.7866Y-3.0435
X4.7866Y-3.1435
X4.7866Y-3.2435
X4.7866Y-3.3435
X4.7966Y-4.141
X4.7966Y-4.241
X4.7966Y-4.341
X4.7991Y-4.691
X4.7991Y-4.791
X4.7991Y-4.891
X5.0816Y-3.536
X5.0816Y-3.636
X5.0816Y-3.736
X5.0816Y-3.836
X5.0866Y-3.0435
X5.0866Y-3.1435
X5.0866Y-3.2435
X5.0866Y-3.3435
X5.0966Y-4.141
X5.0966Y-4.241
X5.0966Y-4.341
X5.0991Y-4.691
X5.0991Y-4.791
X5.0991Y-4.891
X5.7504Y-3.5023
X5.7928Y-2.7548
X5.8503Y-3.4022
X5.8503Y-3.5023
X5.8929Y-2.7548
X5.8929Y-2.8548
T2
X4.5486Y-3.801
X4.6486Y-3.801
X5.5801Y-2.9555
X5.5806Y-3.2305
X5.6801Y-2.9555
X5.6806Y-3.2305
T3
X4.314Y-4.3919
X4.7904Y-4.4884
X5.1093Y-2.8585
X5.1565Y-3.951
X5.4163Y-3.6793
X5.4419Y-2.8604
X5.5502Y-3.4726
X5.6516Y-3.751
X5.8116Y-3.3185
X5.9813Y-3.0691
X6.56Y-3.188
X7.1645Y-2.7905
T4
X4.4091Y-4.0035
X4.4091Y-4.1035
X4.4091Y-4.2035
X4.4091Y-4.3035
X4.5091Y-4.0035
X4.5091Y-4.1035
X4.5091Y-4.2035
X4.5091Y-4.3035
T5
X4.4191Y-4.546
X4.4191Y-4.746
X4.4191Y-4.946
X5.155Y-2.575
X5.355Y-2.575
X5.555Y-2.575
X7.5344Y-4.5596
X7.5344Y-4.7596
X7.5344Y-4.9927
X7.5344Y-5.1927
X7.5401Y-4.076
X7.5401Y-4.276
X7.5426Y-3.656
X7.5426Y-3.856
X7.5438Y-3.0072
X7.5438Y-3.2072
X7.5438Y-3.4072
T6
X4.325Y-2.525
X4.325Y-5.425
X7.625Y-2.525
X7.625Y-5.425
T0
M30
