G04 (created by PCBNEW (2013-mar-13)-testing) date Tue 16 Apr 2013 12:09:55 PM ART*
%MOIN*%
G04 Gerber Fmt 3.4, Leading zero omitted, Abs format*
%FSLAX34Y34*%
G01*
G70*
G90*
G04 APERTURE LIST*
%ADD10C,2.3622e-06*%
%ADD11C,0.1181*%
%ADD12C,0.16*%
%ADD13R,0.055X0.055*%
%ADD14C,0.055*%
%ADD15R,0.0236X0.0551*%
%ADD16R,0.055X0.035*%
%ADD17R,0.035X0.055*%
%ADD18R,0.0314X0.081*%
%ADD19C,0.07*%
%ADD20R,0.09X0.062*%
%ADD21O,0.09X0.062*%
%ADD22C,0.19685*%
%ADD23R,0.1X0.1*%
%ADD24C,0.1*%
%ADD25R,0.0748X0.1732*%
%ADD26R,0.06X0.06*%
%ADD27C,0.06*%
%ADD28C,0.4*%
%ADD29C,0.066*%
%ADD30C,0.035*%
%ADD31C,0.0787*%
%ADD32C,0.0197*%
%ADD33C,0.0276*%
%ADD34C,0.0394*%
%ADD35C,0.15748*%
G04 APERTURE END LIST*
G54D10*
G54D11*
X72550Y-56400D03*
X84050Y-56400D03*
G54D12*
X40550Y-105400D03*
X101000Y-105000D03*
G54D13*
X73812Y-80887D03*
G54D14*
X73812Y-79887D03*
X72812Y-79887D03*
G54D13*
X72387Y-87362D03*
G54D14*
X73387Y-87362D03*
X73387Y-86362D03*
G54D15*
X68450Y-85825D03*
X68450Y-87925D03*
X67950Y-85825D03*
X67450Y-85825D03*
X66950Y-85825D03*
X67950Y-87925D03*
X67450Y-87925D03*
X66950Y-87925D03*
X60950Y-85300D03*
X60950Y-87400D03*
X60450Y-85300D03*
X59950Y-85300D03*
X59450Y-85300D03*
X60450Y-87400D03*
X59950Y-87400D03*
X59450Y-87400D03*
G54D16*
X80587Y-79487D03*
X80587Y-80237D03*
G54D17*
X66725Y-77250D03*
X65975Y-77250D03*
G54D16*
X60175Y-98900D03*
X60175Y-99650D03*
X61100Y-99625D03*
X61100Y-98875D03*
X67950Y-89750D03*
X67950Y-89000D03*
X68375Y-83875D03*
X68375Y-84625D03*
X59450Y-89075D03*
X59450Y-88325D03*
G54D17*
X74325Y-84675D03*
X73575Y-84675D03*
X58950Y-91150D03*
X59700Y-91150D03*
G54D16*
X59450Y-83600D03*
X59450Y-84350D03*
G54D17*
X69975Y-77200D03*
X70725Y-77200D03*
G54D16*
X75062Y-80837D03*
X75062Y-81587D03*
X73750Y-82025D03*
X73750Y-82775D03*
G54D17*
X74487Y-85687D03*
X75237Y-85687D03*
G54D16*
X67550Y-83875D03*
X67550Y-84625D03*
X67000Y-89025D03*
X67000Y-89775D03*
X60350Y-88300D03*
X60350Y-89050D03*
X61250Y-89025D03*
X61250Y-88275D03*
X60525Y-83575D03*
X60525Y-84325D03*
G54D17*
X62850Y-92375D03*
X62100Y-92375D03*
G54D16*
X68150Y-95150D03*
X68150Y-94400D03*
X61375Y-83575D03*
X61375Y-84325D03*
X61375Y-95750D03*
X61375Y-95000D03*
G54D18*
X69550Y-93467D03*
X70810Y-93467D03*
X71675Y-93467D03*
X72550Y-93467D03*
X72550Y-95883D03*
X71675Y-95883D03*
X70810Y-95883D03*
X69550Y-95883D03*
X69550Y-98992D03*
X70810Y-98992D03*
X71675Y-98992D03*
X72550Y-98992D03*
X72550Y-101408D03*
X71675Y-101408D03*
X70810Y-101408D03*
X69550Y-101408D03*
G54D19*
X70000Y-72200D03*
X70000Y-76200D03*
X66750Y-72150D03*
X66750Y-76150D03*
G54D10*
G36*
X86119Y-57187D02*
X86119Y-55612D01*
X87694Y-55612D01*
X87694Y-57187D01*
X86119Y-57187D01*
X86119Y-57187D01*
G37*
G36*
X99505Y-57187D02*
X99505Y-55612D01*
X101080Y-55612D01*
X101080Y-57187D01*
X99505Y-57187D01*
X99505Y-57187D01*
G37*
G36*
X89269Y-57187D02*
X89269Y-55612D01*
X90844Y-55612D01*
X90844Y-57187D01*
X89269Y-57187D01*
X89269Y-57187D01*
G37*
G36*
X96355Y-57187D02*
X96355Y-55612D01*
X97930Y-55612D01*
X97930Y-57187D01*
X96355Y-57187D01*
X96355Y-57187D01*
G37*
G54D20*
X62875Y-99250D03*
G54D21*
X62875Y-100250D03*
X62875Y-101250D03*
X65875Y-101250D03*
X65875Y-100250D03*
X65875Y-99250D03*
G54D20*
X62850Y-93750D03*
G54D21*
X62850Y-94750D03*
X62850Y-95750D03*
X65850Y-95750D03*
X65850Y-94750D03*
X65850Y-93750D03*
G54D22*
X62331Y-52825D03*
X69024Y-52825D03*
X69024Y-59518D03*
X64693Y-59518D03*
G54D10*
G36*
X81742Y-83040D02*
X81742Y-84221D01*
X81151Y-84221D01*
X81151Y-83040D01*
X81742Y-83040D01*
X81742Y-83040D01*
G37*
G36*
X82923Y-83040D02*
X82923Y-84221D01*
X82332Y-84221D01*
X82332Y-83040D01*
X82923Y-83040D01*
X82923Y-83040D01*
G37*
G36*
X82923Y-85599D02*
X82923Y-86781D01*
X82332Y-86781D01*
X82332Y-85599D01*
X82923Y-85599D01*
X82923Y-85599D01*
G37*
G36*
X81742Y-85599D02*
X81742Y-86781D01*
X81151Y-86781D01*
X81151Y-85599D01*
X81742Y-85599D01*
X81742Y-85599D01*
G37*
G54D23*
X86212Y-86462D03*
G54D24*
X86212Y-84462D03*
X86212Y-82462D03*
G54D23*
X59075Y-97800D03*
G54D24*
X59075Y-99800D03*
X59075Y-101800D03*
G54D23*
X86175Y-93150D03*
G54D24*
X86175Y-95150D03*
G54D23*
X86125Y-97475D03*
G54D24*
X86125Y-99475D03*
G54D23*
X86175Y-101750D03*
G54D24*
X86175Y-103750D03*
G54D12*
X60350Y-72125D03*
X80255Y-72205D03*
G54D25*
X77787Y-88994D03*
X77787Y-85569D03*
X77776Y-82808D03*
X77776Y-79383D03*
G54D16*
X75212Y-87562D03*
X75212Y-86812D03*
G54D13*
X65750Y-85775D03*
G54D14*
X65750Y-84775D03*
X65750Y-83775D03*
X65750Y-82775D03*
X62750Y-82775D03*
X62750Y-83775D03*
X62750Y-84775D03*
X62750Y-85775D03*
G54D13*
X65700Y-90700D03*
G54D14*
X65700Y-89700D03*
X65700Y-88700D03*
X65700Y-87700D03*
X62700Y-87700D03*
X62700Y-88700D03*
X62700Y-89700D03*
X62700Y-90700D03*
G54D26*
X58975Y-92375D03*
G54D27*
X59975Y-92375D03*
X58975Y-93375D03*
X59975Y-93375D03*
X58975Y-94375D03*
X59975Y-94375D03*
X58975Y-95375D03*
X59975Y-95375D03*
G54D28*
X59600Y-42775D03*
X71400Y-42775D03*
X97025Y-42700D03*
X85225Y-42700D03*
G54D12*
X47875Y-41475D03*
G54D16*
X68300Y-100550D03*
X68300Y-99800D03*
G54D23*
X86200Y-90950D03*
G54D24*
X86200Y-88950D03*
G54D16*
X69600Y-88325D03*
X69600Y-87575D03*
X66750Y-83875D03*
X66750Y-84625D03*
G54D12*
X41000Y-37000D03*
G54D29*
X71690Y-84645D03*
X70690Y-84645D03*
X71685Y-81895D03*
X70685Y-81895D03*
X60370Y-90350D03*
X61370Y-90350D03*
G54D30*
X62835Y-97005D03*
X57975Y-96240D03*
G54D31*
X73000Y-85525D03*
X71400Y-89850D03*
X69300Y-85525D03*
X65800Y-81700D03*
X70550Y-87000D03*
X75000Y-82650D03*
X79875Y-102650D03*
X79900Y-96575D03*
X75337Y-84162D03*
X81237Y-81262D03*
X70025Y-78475D03*
X69550Y-89075D03*
G54D32*
X58975Y-95375D02*
X58840Y-95375D01*
X63375Y-89890D02*
X63375Y-89375D01*
X63555Y-90070D02*
X63375Y-89890D01*
X63555Y-96285D02*
X63555Y-90070D01*
X62835Y-97005D02*
X63555Y-96285D01*
X58840Y-95375D02*
X57975Y-96240D01*
X62600Y-86625D02*
X62200Y-86625D01*
X60950Y-85700D02*
X60950Y-85300D01*
X61350Y-86100D02*
X60950Y-85700D01*
X61675Y-86100D02*
X61350Y-86100D01*
X62200Y-86625D02*
X61675Y-86100D01*
X63375Y-89375D02*
X63375Y-88145D01*
X63375Y-88145D02*
X63522Y-87998D01*
X63522Y-87998D02*
X63522Y-87147D01*
X63522Y-87147D02*
X63000Y-86625D01*
X63000Y-86625D02*
X62600Y-86625D01*
X62600Y-86625D02*
X62550Y-86625D01*
X63375Y-89375D02*
X62700Y-88700D01*
X62750Y-83775D02*
X62550Y-83775D01*
X62550Y-83775D02*
X61902Y-84422D01*
X61902Y-84422D02*
X61902Y-84922D01*
X61902Y-84922D02*
X61525Y-85300D01*
X61525Y-85300D02*
X60950Y-85300D01*
G54D33*
X59075Y-97800D02*
X59075Y-95475D01*
X59075Y-95475D02*
X58975Y-95375D01*
G54D32*
X70125Y-93100D02*
X70125Y-91125D01*
X73162Y-85687D02*
X74037Y-85687D01*
X73000Y-85525D02*
X73162Y-85687D01*
X70125Y-91125D02*
X71400Y-89850D01*
X65750Y-83775D02*
X65850Y-83775D01*
X70137Y-86362D02*
X70662Y-86362D01*
X69300Y-85525D02*
X70137Y-86362D01*
X65825Y-81700D02*
X65800Y-81700D01*
X66350Y-82225D02*
X65825Y-81700D01*
X66350Y-83275D02*
X66350Y-82225D01*
X65850Y-83775D02*
X66350Y-83275D01*
X69550Y-93467D02*
X69758Y-93467D01*
X70075Y-93125D02*
X70100Y-93125D01*
X70100Y-93125D02*
X70125Y-93125D01*
X70100Y-93100D02*
X70075Y-93125D01*
X70125Y-93100D02*
X70100Y-93100D01*
X69758Y-93467D02*
X70125Y-93100D01*
X69550Y-98992D02*
X69550Y-97325D01*
X69550Y-97325D02*
X70125Y-96750D01*
X70125Y-96750D02*
X70125Y-93125D01*
X68150Y-94400D02*
X68617Y-94400D01*
X68617Y-94400D02*
X69550Y-93467D01*
X68300Y-99800D02*
X68450Y-99800D01*
X69258Y-98992D02*
X69550Y-98992D01*
X68450Y-99800D02*
X69258Y-98992D01*
X65700Y-88700D02*
X65700Y-88675D01*
X68450Y-86275D02*
X68450Y-85825D01*
X67950Y-86775D02*
X68450Y-86275D01*
X66575Y-86775D02*
X67950Y-86775D01*
X66200Y-86400D02*
X66575Y-86775D01*
X65650Y-86400D02*
X66200Y-86400D01*
X65125Y-86925D02*
X65650Y-86400D01*
X65125Y-88100D02*
X65125Y-86925D01*
X65700Y-88675D02*
X65125Y-88100D01*
X74487Y-85687D02*
X74487Y-84837D01*
X74487Y-84837D02*
X74325Y-84675D01*
G54D33*
X73387Y-86362D02*
X72075Y-86362D01*
X72075Y-86362D02*
X71625Y-86362D01*
X68987Y-86362D02*
X68450Y-85825D01*
X70662Y-86362D02*
X68987Y-86362D01*
X71625Y-86362D02*
X70662Y-86362D01*
G54D34*
X74487Y-85687D02*
X74037Y-85687D01*
X74037Y-85687D02*
X73362Y-86362D01*
G54D32*
X73750Y-82025D02*
X74375Y-82025D01*
X66950Y-87425D02*
X66950Y-87925D01*
X67302Y-87072D02*
X66950Y-87425D01*
X70477Y-87072D02*
X67302Y-87072D01*
X70550Y-87000D02*
X70477Y-87072D01*
X74375Y-82025D02*
X75000Y-82650D01*
X73750Y-82025D02*
X73750Y-80950D01*
X73750Y-80950D02*
X73812Y-80887D01*
G54D34*
X75062Y-80837D02*
X73862Y-80837D01*
X73862Y-80837D02*
X73812Y-80887D01*
X71675Y-98992D02*
X71675Y-98625D01*
X84925Y-103750D02*
X86175Y-103750D01*
X83875Y-102700D02*
X84925Y-103750D01*
X79925Y-102700D02*
X83875Y-102700D01*
X79875Y-102650D02*
X79925Y-102700D01*
X76650Y-96575D02*
X79900Y-96575D01*
X75075Y-98150D02*
X76650Y-96575D01*
X72150Y-98150D02*
X75075Y-98150D01*
X71675Y-98625D02*
X72150Y-98150D01*
X86200Y-88950D02*
X86200Y-89275D01*
X87675Y-102250D02*
X86175Y-103750D01*
X87675Y-96475D02*
X87675Y-102250D01*
X88100Y-96050D02*
X87675Y-96475D01*
X88100Y-91175D02*
X88100Y-96050D01*
X86200Y-89275D02*
X88100Y-91175D01*
X71675Y-93467D02*
X71675Y-92975D01*
X85400Y-88950D02*
X86200Y-88950D01*
X84900Y-89450D02*
X85400Y-88950D01*
X84900Y-90800D02*
X84900Y-89450D01*
X82244Y-93455D02*
X84900Y-90800D01*
X75380Y-93455D02*
X82244Y-93455D01*
X74525Y-92600D02*
X75380Y-93455D01*
X72050Y-92600D02*
X74525Y-92600D01*
X71675Y-92975D02*
X72050Y-92600D01*
X70810Y-98992D02*
X70810Y-98265D01*
X87475Y-92225D02*
X86200Y-90950D01*
X87475Y-95750D02*
X87475Y-92225D01*
X86875Y-96350D02*
X87475Y-95750D01*
X85750Y-96350D02*
X86875Y-96350D01*
X85150Y-95750D02*
X85750Y-96350D01*
X76575Y-95750D02*
X85150Y-95750D01*
X74700Y-97625D02*
X76575Y-95750D01*
X71450Y-97625D02*
X74700Y-97625D01*
X70810Y-98265D02*
X71450Y-97625D01*
X86200Y-90950D02*
X85675Y-90950D01*
X85675Y-90950D02*
X82675Y-93950D01*
X82675Y-93950D02*
X74250Y-93950D01*
X74250Y-93950D02*
X73600Y-94600D01*
X73600Y-94600D02*
X71250Y-94600D01*
X71250Y-94600D02*
X70810Y-94160D01*
X70810Y-94160D02*
X70810Y-93467D01*
X86175Y-101750D02*
X75050Y-101750D01*
X70810Y-99815D02*
X70810Y-98992D01*
X70250Y-100375D02*
X70810Y-99815D01*
X70250Y-102425D02*
X70250Y-100375D01*
X70775Y-102950D02*
X70250Y-102425D01*
X73850Y-102950D02*
X70775Y-102950D01*
X75050Y-101750D02*
X73850Y-102950D01*
X86125Y-97475D02*
X76775Y-97475D01*
X72842Y-101408D02*
X72550Y-101408D01*
X76775Y-97475D02*
X72842Y-101408D01*
X70810Y-101408D02*
X70810Y-102060D01*
X76425Y-99475D02*
X86125Y-99475D01*
X73500Y-102400D02*
X76425Y-99475D01*
X71150Y-102400D02*
X73500Y-102400D01*
X70810Y-102060D02*
X71150Y-102400D01*
X82628Y-86190D02*
X82628Y-86671D01*
X80305Y-88994D02*
X77787Y-88994D01*
X82628Y-86671D02*
X80305Y-88994D01*
X76112Y-88994D02*
X73994Y-88994D01*
X73994Y-88994D02*
X72362Y-87362D01*
X75212Y-87562D02*
X75212Y-88162D01*
X76044Y-88994D02*
X76112Y-88994D01*
X76112Y-88994D02*
X77787Y-88994D01*
X75212Y-88162D02*
X76044Y-88994D01*
X80587Y-79487D02*
X77844Y-79487D01*
X77844Y-79487D02*
X77812Y-79519D01*
X73812Y-79887D02*
X77444Y-79887D01*
X77444Y-79887D02*
X77812Y-79519D01*
X81446Y-86190D02*
X81446Y-85871D01*
X79212Y-80919D02*
X77812Y-79519D01*
X79212Y-83637D02*
X79212Y-80919D01*
X81446Y-85871D02*
X79212Y-83637D01*
X82628Y-83631D02*
X83381Y-83631D01*
X83381Y-83631D02*
X86212Y-86462D01*
X81446Y-83631D02*
X81446Y-83228D01*
X82212Y-82462D02*
X86212Y-82462D01*
X81446Y-83228D02*
X82212Y-82462D01*
G54D35*
X97143Y-56400D02*
X97143Y-42818D01*
X97143Y-42818D02*
X97025Y-42700D01*
X97143Y-56400D02*
X100292Y-56400D01*
G54D32*
X61375Y-95000D02*
X61375Y-94775D01*
X61375Y-94775D02*
X59975Y-93375D01*
X62100Y-92375D02*
X59975Y-92375D01*
X59975Y-94375D02*
X59950Y-94375D01*
X59475Y-91675D02*
X58950Y-91150D01*
X59475Y-93900D02*
X59475Y-91675D01*
X59950Y-94375D02*
X59475Y-93900D01*
X60175Y-98900D02*
X60175Y-96800D01*
X59475Y-94875D02*
X58975Y-94375D01*
X59475Y-96100D02*
X59475Y-94875D01*
X60175Y-96800D02*
X59475Y-96100D01*
X60175Y-98900D02*
X61075Y-98900D01*
X61075Y-98900D02*
X61100Y-98875D01*
X58975Y-93375D02*
X58825Y-93375D01*
X60450Y-85800D02*
X60450Y-85300D01*
X60150Y-86100D02*
X60450Y-85800D01*
X59700Y-86100D02*
X60150Y-86100D01*
X58600Y-87200D02*
X59700Y-86100D01*
X58600Y-90050D02*
X58600Y-87200D01*
X58175Y-90475D02*
X58600Y-90050D01*
X58175Y-92725D02*
X58175Y-90475D01*
X58825Y-93375D02*
X58175Y-92725D01*
X60450Y-85300D02*
X60450Y-84400D01*
X60450Y-84400D02*
X60525Y-84325D01*
X58975Y-92375D02*
X58925Y-92375D01*
X60350Y-89525D02*
X60350Y-89050D01*
X60125Y-89750D02*
X60350Y-89525D01*
X59475Y-89750D02*
X60125Y-89750D01*
X58475Y-90750D02*
X59475Y-89750D01*
X58475Y-91925D02*
X58475Y-90750D01*
X58925Y-92375D02*
X58475Y-91925D01*
X60350Y-89050D02*
X60350Y-89025D01*
X61325Y-87400D02*
X60950Y-87400D01*
X61850Y-87925D02*
X61325Y-87400D01*
X61850Y-88475D02*
X61850Y-87925D01*
X61675Y-88650D02*
X61850Y-88475D01*
X60725Y-88650D02*
X61675Y-88650D01*
X60350Y-89025D02*
X60725Y-88650D01*
G54D35*
X69024Y-59518D02*
X69024Y-63500D01*
X56875Y-45500D02*
X59600Y-42775D01*
X56875Y-59175D02*
X56875Y-45500D01*
X61925Y-64225D02*
X56875Y-59175D01*
X68300Y-64225D02*
X61925Y-64225D01*
X69024Y-63500D02*
X68300Y-64225D01*
X71400Y-42775D02*
X71400Y-43757D01*
X71400Y-43757D02*
X62331Y-52825D01*
G54D34*
X86175Y-93150D02*
X84800Y-93150D01*
X74017Y-95883D02*
X72550Y-95883D01*
X75375Y-94525D02*
X74017Y-95883D01*
X83425Y-94525D02*
X75375Y-94525D01*
X84800Y-93150D02*
X83425Y-94525D01*
X70810Y-95883D02*
X70810Y-96560D01*
X76425Y-95150D02*
X86175Y-95150D01*
X74625Y-96950D02*
X76425Y-95150D01*
X71200Y-96950D02*
X74625Y-96950D01*
X70810Y-96560D02*
X71200Y-96950D01*
X66750Y-72150D02*
X60375Y-72150D01*
X60375Y-72150D02*
X60350Y-72125D01*
G54D35*
X47875Y-41475D02*
X47875Y-59650D01*
X47875Y-59650D02*
X60350Y-72125D01*
G54D34*
X72550Y-56400D02*
X75860Y-56400D01*
X80255Y-60795D02*
X80255Y-72205D01*
X75860Y-56400D02*
X80255Y-60795D01*
G54D35*
X72550Y-56400D02*
X65645Y-56400D01*
X64693Y-57351D02*
X64693Y-59518D01*
X65645Y-56400D02*
X64693Y-57351D01*
G54D34*
X80255Y-72205D02*
X73395Y-72205D01*
X70000Y-72200D02*
X73390Y-72200D01*
X73395Y-72205D02*
X73390Y-72200D01*
G54D32*
X61370Y-90350D02*
X61370Y-90625D01*
X62420Y-94750D02*
X62850Y-94750D01*
X62020Y-94350D02*
X62420Y-94750D01*
X62020Y-93270D02*
X62020Y-94350D01*
X62475Y-92815D02*
X62020Y-93270D01*
X62475Y-91730D02*
X62475Y-92815D01*
X61370Y-90625D02*
X62475Y-91730D01*
X61250Y-89025D02*
X61250Y-90230D01*
X61250Y-90230D02*
X61370Y-90350D01*
X61375Y-83575D02*
X62025Y-83575D01*
X57875Y-100600D02*
X59075Y-101800D01*
X57875Y-97300D02*
X57875Y-100600D01*
X57200Y-96625D02*
X57875Y-97300D01*
X57200Y-95950D02*
X57200Y-96625D01*
X57875Y-95275D02*
X57200Y-95950D01*
X57875Y-90354D02*
X57875Y-95275D01*
X58302Y-89926D02*
X57875Y-90354D01*
X58302Y-87072D02*
X58302Y-89926D01*
X58602Y-86772D02*
X58302Y-87072D01*
X58602Y-83276D02*
X58602Y-86772D01*
X59401Y-82477D02*
X58602Y-83276D01*
X62272Y-82477D02*
X59401Y-82477D01*
X62500Y-82250D02*
X62272Y-82477D01*
X62950Y-82250D02*
X62500Y-82250D01*
X63250Y-82550D02*
X62950Y-82250D01*
X63250Y-82975D02*
X63250Y-82550D01*
X62950Y-83275D02*
X63250Y-82975D01*
X62325Y-83275D02*
X62950Y-83275D01*
X62025Y-83575D02*
X62325Y-83275D01*
X61100Y-99625D02*
X61100Y-100075D01*
X61100Y-100075D02*
X61275Y-100250D01*
X61250Y-89025D02*
X61725Y-89025D01*
X60720Y-86527D02*
X60720Y-86525D01*
X61627Y-86527D02*
X60720Y-86527D01*
X62250Y-87150D02*
X61627Y-86527D01*
X62900Y-87150D02*
X62250Y-87150D01*
X63225Y-87475D02*
X62900Y-87150D01*
X63225Y-87875D02*
X63225Y-87475D01*
X62875Y-88225D02*
X63225Y-87875D01*
X62325Y-88225D02*
X62875Y-88225D01*
X62147Y-88402D02*
X62325Y-88225D01*
X62147Y-88602D02*
X62147Y-88402D01*
X61725Y-89025D02*
X62147Y-88602D01*
X59450Y-89075D02*
X59275Y-89075D01*
X58925Y-87925D02*
X59450Y-87400D01*
X58925Y-88725D02*
X58925Y-87925D01*
X59275Y-89075D02*
X58925Y-88725D01*
X59450Y-87400D02*
X59450Y-87104D01*
X60720Y-86525D02*
X60720Y-86525D01*
X60029Y-86525D02*
X60720Y-86525D01*
X59450Y-87104D02*
X60029Y-86525D01*
X61375Y-83575D02*
X61375Y-83400D01*
X59450Y-83400D02*
X59450Y-83600D01*
X59775Y-83075D02*
X59450Y-83400D01*
X61050Y-83075D02*
X59775Y-83075D01*
X61375Y-83400D02*
X61050Y-83075D01*
G54D33*
X59075Y-101800D02*
X59725Y-101800D01*
X59725Y-101800D02*
X61275Y-100250D01*
X61275Y-100250D02*
X62875Y-100250D01*
G54D32*
X59975Y-95375D02*
X59975Y-95475D01*
X62425Y-100250D02*
X62875Y-100250D01*
X62100Y-99925D02*
X62425Y-100250D01*
X62100Y-99050D02*
X62100Y-99925D01*
X61077Y-98027D02*
X62100Y-99050D01*
X61077Y-96577D02*
X61077Y-98027D01*
X59975Y-95475D02*
X61077Y-96577D01*
X59975Y-95375D02*
X61875Y-95375D01*
X61875Y-95375D02*
X62500Y-94750D01*
X62500Y-94750D02*
X62850Y-94750D01*
X72812Y-79887D02*
X72987Y-79887D01*
X76455Y-81225D02*
X76455Y-81587D01*
X75615Y-80385D02*
X76455Y-81225D01*
X73485Y-80385D02*
X75615Y-80385D01*
X72987Y-79887D02*
X73485Y-80385D01*
X71685Y-81895D02*
X71685Y-81015D01*
X71685Y-81015D02*
X72812Y-79887D01*
X70690Y-84645D02*
X70690Y-84285D01*
X70690Y-84285D02*
X71100Y-83875D01*
G54D34*
X85225Y-42700D02*
X85500Y-42700D01*
X93600Y-68900D02*
X81237Y-81262D01*
X93600Y-50800D02*
X93600Y-68900D01*
X85500Y-42700D02*
X93600Y-50800D01*
G54D32*
X70725Y-77200D02*
X70725Y-77800D01*
X70725Y-77800D02*
X72812Y-79887D01*
X65975Y-77250D02*
X65975Y-75925D01*
X70725Y-75750D02*
X70725Y-77200D01*
X70425Y-75450D02*
X70725Y-75750D01*
X66450Y-75450D02*
X70425Y-75450D01*
X65975Y-75925D02*
X66450Y-75450D01*
X65150Y-96550D02*
X65150Y-91250D01*
X65150Y-91250D02*
X65700Y-90700D01*
X65875Y-101250D02*
X65650Y-101250D01*
X65150Y-96450D02*
X65850Y-95750D01*
X65150Y-100750D02*
X65150Y-96550D01*
X65150Y-96550D02*
X65150Y-96450D01*
X65650Y-101250D02*
X65150Y-100750D01*
X71225Y-83875D02*
X75050Y-83875D01*
X75050Y-83875D02*
X75337Y-84162D01*
X71100Y-83875D02*
X71225Y-83875D01*
X68375Y-83875D02*
X71100Y-83875D01*
G54D33*
X73387Y-87362D02*
X73337Y-87362D01*
X70075Y-89750D02*
X69525Y-89750D01*
X70750Y-89075D02*
X70075Y-89750D01*
X70750Y-87775D02*
X70750Y-89075D01*
X71786Y-86738D02*
X70750Y-87775D01*
X72713Y-86738D02*
X71786Y-86738D01*
X73337Y-87362D02*
X72713Y-86738D01*
G54D35*
X69024Y-52825D02*
X74399Y-52825D01*
X84525Y-42700D02*
X85225Y-42700D01*
X74399Y-52825D02*
X84525Y-42700D01*
G54D32*
X65700Y-90700D02*
X65650Y-90700D01*
X65650Y-90700D02*
X64827Y-89877D01*
X64827Y-89877D02*
X64827Y-86697D01*
X65175Y-86350D02*
X65750Y-85775D01*
X64875Y-86650D02*
X65175Y-86350D01*
X64827Y-86697D02*
X64875Y-86650D01*
X67950Y-89750D02*
X69525Y-89750D01*
X65700Y-90700D02*
X66175Y-90700D01*
X66175Y-90700D02*
X66650Y-90225D01*
X66650Y-90225D02*
X67475Y-90225D01*
X67475Y-90225D02*
X67950Y-89750D01*
G54D34*
X80587Y-80237D02*
X80587Y-80612D01*
X80587Y-80612D02*
X81237Y-81262D01*
X86212Y-84462D02*
X86212Y-84087D01*
X83737Y-81262D02*
X81237Y-81262D01*
X86337Y-81262D02*
X83737Y-81262D01*
X87162Y-82087D02*
X86337Y-81262D01*
X87162Y-83137D02*
X87162Y-82087D01*
X86212Y-84087D02*
X87162Y-83137D01*
X75337Y-84162D02*
X77787Y-84162D01*
X77787Y-85569D02*
X77787Y-84162D01*
X77787Y-84162D02*
X77787Y-82969D01*
X77787Y-82969D02*
X77812Y-82944D01*
X75212Y-86812D02*
X74237Y-86812D01*
X73687Y-87362D02*
X73362Y-87362D01*
X74237Y-86812D02*
X73687Y-87362D01*
X75212Y-86812D02*
X75212Y-85712D01*
X75212Y-85712D02*
X75237Y-85687D01*
X75237Y-85687D02*
X77669Y-85687D01*
X77669Y-85687D02*
X77787Y-85569D01*
X75062Y-81587D02*
X76455Y-81587D01*
X76455Y-81587D02*
X77812Y-82944D01*
G54D32*
X71690Y-84645D02*
X73545Y-84645D01*
X73545Y-84645D02*
X73575Y-84675D01*
X60175Y-99650D02*
X59225Y-99650D01*
X59225Y-99650D02*
X59075Y-99800D01*
X66750Y-83875D02*
X66750Y-77275D01*
X66750Y-77275D02*
X66725Y-77250D01*
X66725Y-77250D02*
X66725Y-76175D01*
X66725Y-76175D02*
X66750Y-76150D01*
X69600Y-88325D02*
X69600Y-89050D01*
X69975Y-78425D02*
X69975Y-77200D01*
X70025Y-78475D02*
X69975Y-78425D01*
X69575Y-89075D02*
X69550Y-89075D01*
X69600Y-89050D02*
X69575Y-89075D01*
X69975Y-77200D02*
X69975Y-76225D01*
X69975Y-76225D02*
X70000Y-76200D01*
X68150Y-95150D02*
X66250Y-95150D01*
X66250Y-95150D02*
X65850Y-94750D01*
X69550Y-95883D02*
X68483Y-95883D01*
X68150Y-95550D02*
X68150Y-95150D01*
X68483Y-95883D02*
X68150Y-95550D01*
X60525Y-83575D02*
X60275Y-83575D01*
X59950Y-83900D02*
X59950Y-85300D01*
X60275Y-83575D02*
X59950Y-83900D01*
X60525Y-83575D02*
X60525Y-83650D01*
X61375Y-84175D02*
X61375Y-84325D01*
X61150Y-83950D02*
X61375Y-84175D01*
X60825Y-83950D02*
X61150Y-83950D01*
X60525Y-83650D02*
X60825Y-83950D01*
X61375Y-95750D02*
X61375Y-97750D01*
X61375Y-97750D02*
X62875Y-99250D01*
X59700Y-91150D02*
X59700Y-91020D01*
X59700Y-91020D02*
X60370Y-90350D01*
X60350Y-88300D02*
X61225Y-88300D01*
X61225Y-88300D02*
X61250Y-88275D01*
X60450Y-87400D02*
X60450Y-88200D01*
X60450Y-88200D02*
X60350Y-88300D01*
X67450Y-87925D02*
X67450Y-87625D01*
X69450Y-87425D02*
X69600Y-87575D01*
X67650Y-87425D02*
X69450Y-87425D01*
X67450Y-87625D02*
X67650Y-87425D01*
X66750Y-84625D02*
X66750Y-85075D01*
X66950Y-85275D02*
X66950Y-85825D01*
X66750Y-85075D02*
X66950Y-85275D01*
G54D33*
X62850Y-92375D02*
X62850Y-93750D01*
G54D32*
X59950Y-87400D02*
X59950Y-87025D01*
X62225Y-87700D02*
X62700Y-87700D01*
X61350Y-86825D02*
X62225Y-87700D01*
X60150Y-86825D02*
X61350Y-86825D01*
X59950Y-87025D02*
X60150Y-86825D01*
X59950Y-87400D02*
X59950Y-87700D01*
X59450Y-88200D02*
X59450Y-88325D01*
X59950Y-87700D02*
X59450Y-88200D01*
X62750Y-82775D02*
X60052Y-82775D01*
X59100Y-84350D02*
X59450Y-84350D01*
X58900Y-84150D02*
X59100Y-84350D01*
X58900Y-83400D02*
X58900Y-84150D01*
X59525Y-82775D02*
X58900Y-83400D01*
X60052Y-82775D02*
X59525Y-82775D01*
X59450Y-84350D02*
X59450Y-84650D01*
X59450Y-84650D02*
X59450Y-85300D01*
G54D35*
X86907Y-56400D02*
X90950Y-56400D01*
X90950Y-56400D02*
X90056Y-56400D01*
X84050Y-56400D02*
X86907Y-56400D01*
G54D32*
X67550Y-84625D02*
X67550Y-84375D01*
X65750Y-84725D02*
X65750Y-84775D01*
X66225Y-84250D02*
X65750Y-84725D01*
X67425Y-84250D02*
X66225Y-84250D01*
X67550Y-84375D02*
X67425Y-84250D01*
X67000Y-89775D02*
X65775Y-89775D01*
X65775Y-89775D02*
X65700Y-89700D01*
X67950Y-85825D02*
X67950Y-85600D01*
X67925Y-84250D02*
X67550Y-83875D01*
X68775Y-84250D02*
X67925Y-84250D01*
X68900Y-84375D02*
X68775Y-84250D01*
X68900Y-84950D02*
X68900Y-84375D01*
X68675Y-85175D02*
X68900Y-84950D01*
X68375Y-85175D02*
X68675Y-85175D01*
X67950Y-85600D02*
X68375Y-85175D01*
X67000Y-89025D02*
X67000Y-89275D01*
X68450Y-89275D02*
X68450Y-87925D01*
X68350Y-89375D02*
X68450Y-89275D01*
X67100Y-89375D02*
X68350Y-89375D01*
X67000Y-89275D02*
X67100Y-89375D01*
X67450Y-85825D02*
X67450Y-86175D01*
X65200Y-83325D02*
X65750Y-82775D01*
X65200Y-85000D02*
X65200Y-83325D01*
X65450Y-85250D02*
X65200Y-85000D01*
X66200Y-85250D02*
X65450Y-85250D01*
X66450Y-85500D02*
X66200Y-85250D01*
X66450Y-86200D02*
X66450Y-85500D01*
X66700Y-86450D02*
X66450Y-86200D01*
X67175Y-86450D02*
X66700Y-86450D01*
X67450Y-86175D02*
X67175Y-86450D01*
X68375Y-84625D02*
X68375Y-84700D01*
X67450Y-85175D02*
X67450Y-85825D01*
X67600Y-85025D02*
X67450Y-85175D01*
X68050Y-85025D02*
X67600Y-85025D01*
X68375Y-84700D02*
X68050Y-85025D01*
X65700Y-87700D02*
X65725Y-87700D01*
X67475Y-88525D02*
X67950Y-89000D01*
X66550Y-88525D02*
X67475Y-88525D01*
X65725Y-87700D02*
X66550Y-88525D01*
X67950Y-89000D02*
X67950Y-87925D01*
X70685Y-81895D02*
X70685Y-81970D01*
X71490Y-82775D02*
X73750Y-82775D01*
X70685Y-81970D02*
X71490Y-82775D01*
X68300Y-100550D02*
X68300Y-100875D01*
X68833Y-101408D02*
X69550Y-101408D01*
X68300Y-100875D02*
X68833Y-101408D01*
X65875Y-100250D02*
X67225Y-100250D01*
X67525Y-100550D02*
X68300Y-100550D01*
X67225Y-100250D02*
X67525Y-100550D01*
M02*
