M48
;DRILL file {Pcbnew (2013-mar-13)-testing} date Thu 18 Apr 2013 08:43:30 PM ART
;FORMAT={-:-/ absolute / inch / decimal}
FMAT,2
INCH,TZ
T1C0.032
T2C0.032
T3C0.039
T4C0.043
T5C0.060
T6C0.118
T7C0.120
T8C0.240
%
G90
G05
M72
T1
X3.128Y-4.4075
X3.128Y-4.8075
X6.1Y-5.225
X6.5Y-5.225
T2
X4.7Y-5.225
X5.1Y-5.225
X5.3Y-5.225
X5.7Y-5.225
T3
X5.6416Y-3.926
X6.7916Y-3.926
T4
X4.6198Y-3.5685
X4.856Y-4.2378
X5.2891Y-3.5685
X5.2891Y-4.2378
T5
X4.99Y-5.455
X5.19Y-5.455
X5.39Y-5.455
T6
X7.0773Y-3.926
X7.3923Y-3.926
X8.1009Y-3.926
X8.4159Y-3.926
T7
X2.85Y-2.115
X2.85Y-5.685
X3.1166Y-2.546
X3.121Y-3.9875
X6.8Y-5.225
X8.8Y-2.125
X8.8Y-5.825
T8
X4.3466Y-2.5635
X5.5266Y-2.5635
X6.9091Y-2.556
X8.0891Y-2.556
T0
M30
