G04 (created by PCBNEW (2013-mar-13)-testing) date Tue 18 Jun 2013 00:00:01 ART*
%MOIN*%
G04 Gerber Fmt 3.4, Leading zero omitted, Abs format*
%FSLAX34Y34*%
G01*
G70*
G90*
G04 APERTURE LIST*
%ADD10C,0.005000*%
%ADD11C,0.007874*%
%ADD12C,0.011811*%
G04 APERTURE END LIST*
G54D10*
G54D11*
X75278Y-45682D02*
X75528Y-45932D01*
X75528Y-45682D02*
X75278Y-45932D01*
X82955Y-47128D02*
X83205Y-47378D01*
X83205Y-47128D02*
X82955Y-47378D01*
X83575Y-45928D02*
X83825Y-46178D01*
X83825Y-45928D02*
X83575Y-46178D01*
X84343Y-50790D02*
X84593Y-51040D01*
X84593Y-50790D02*
X84343Y-51040D01*
X85721Y-47050D02*
X85971Y-47300D01*
X85971Y-47050D02*
X85721Y-47300D01*
X85928Y-48054D02*
X86178Y-48304D01*
X86178Y-48054D02*
X85928Y-48304D01*
X89382Y-45711D02*
X89632Y-45961D01*
X89632Y-45711D02*
X89382Y-45961D01*
X90445Y-46016D02*
X90695Y-46266D01*
X90695Y-46016D02*
X90445Y-46266D01*
X96754Y-53565D02*
X97004Y-53815D01*
X97004Y-53565D02*
X96754Y-53815D01*
X97424Y-49363D02*
X97674Y-49613D01*
X97674Y-49363D02*
X97424Y-49613D01*
X95460Y-48550D02*
G75*
G03X95460Y-48550I-160J0D01*
G74*
G01*
X96460Y-48550D02*
G75*
G03X96460Y-48550I-160J0D01*
G74*
G01*
X91616Y-48339D02*
X91616Y-48693D01*
X91439Y-48516D02*
X91793Y-48516D01*
X92600Y-50307D02*
X92600Y-50661D01*
X92423Y-50484D02*
X92777Y-50484D01*
X93584Y-48339D02*
X93584Y-48693D01*
X93407Y-48516D02*
X93761Y-48516D01*
X98872Y-49312D02*
X98872Y-49047D01*
X98607Y-49047D01*
X98607Y-49312D01*
X98872Y-49312D01*
X98872Y-50292D02*
X98872Y-50027D01*
X98607Y-50027D01*
X98607Y-50292D01*
X98872Y-50292D01*
X99662Y-49312D02*
X99662Y-49047D01*
X99397Y-49047D01*
X99397Y-49312D01*
X99662Y-49312D01*
X99662Y-50292D02*
X99662Y-50027D01*
X99397Y-50027D01*
X99397Y-50292D01*
X99662Y-50292D01*
X71839Y-44492D02*
X72036Y-44295D01*
X71839Y-44098D01*
X71642Y-44295D01*
X71839Y-44492D01*
X72839Y-44492D02*
X73036Y-44295D01*
X72839Y-44098D01*
X72642Y-44295D01*
X72839Y-44492D01*
X73839Y-44492D02*
X74036Y-44295D01*
X73839Y-44098D01*
X73642Y-44295D01*
X73839Y-44492D01*
X74839Y-44492D02*
X75036Y-44295D01*
X74839Y-44098D01*
X74642Y-44295D01*
X74839Y-44492D01*
X75839Y-44492D02*
X76036Y-44295D01*
X75839Y-44098D01*
X75642Y-44295D01*
X75839Y-44492D01*
X76600Y-49197D02*
X76797Y-49000D01*
X76600Y-48803D01*
X76403Y-49000D01*
X76600Y-49197D01*
X76600Y-50197D02*
X76797Y-50000D01*
X76600Y-49803D01*
X76403Y-50000D01*
X76600Y-50197D01*
X76839Y-44492D02*
X77036Y-44295D01*
X76839Y-44098D01*
X76642Y-44295D01*
X76839Y-44492D01*
X77600Y-49197D02*
X77797Y-49000D01*
X77600Y-48803D01*
X77403Y-49000D01*
X77600Y-49197D01*
X77600Y-50197D02*
X77797Y-50000D01*
X77600Y-49803D01*
X77403Y-50000D01*
X77600Y-50197D01*
X77839Y-44492D02*
X78036Y-44295D01*
X77839Y-44098D01*
X77642Y-44295D01*
X77839Y-44492D01*
X78600Y-49197D02*
X78797Y-49000D01*
X78600Y-48803D01*
X78403Y-49000D01*
X78600Y-49197D01*
X78600Y-50197D02*
X78797Y-50000D01*
X78600Y-49803D01*
X78403Y-50000D01*
X78600Y-50197D01*
X78839Y-44492D02*
X79036Y-44295D01*
X78839Y-44098D01*
X78642Y-44295D01*
X78839Y-44492D01*
X79600Y-49197D02*
X79797Y-49000D01*
X79600Y-48803D01*
X79403Y-49000D01*
X79600Y-49197D01*
X79600Y-50197D02*
X79797Y-50000D01*
X79600Y-49803D01*
X79403Y-50000D01*
X79600Y-50197D01*
X79839Y-44492D02*
X80036Y-44295D01*
X79839Y-44098D01*
X79642Y-44295D01*
X79839Y-44492D01*
X80600Y-49197D02*
X80797Y-49000D01*
X80600Y-48803D01*
X80403Y-49000D01*
X80600Y-49197D01*
X80600Y-50197D02*
X80797Y-50000D01*
X80600Y-49803D01*
X80403Y-50000D01*
X80600Y-50197D01*
X80839Y-44492D02*
X81036Y-44295D01*
X80839Y-44098D01*
X80642Y-44295D01*
X80839Y-44492D01*
X81600Y-49197D02*
X81797Y-49000D01*
X81600Y-48803D01*
X81403Y-49000D01*
X81600Y-49197D01*
X81600Y-50197D02*
X81797Y-50000D01*
X81600Y-49803D01*
X81403Y-50000D01*
X81600Y-50197D01*
X81839Y-44492D02*
X82036Y-44295D01*
X81839Y-44098D01*
X81642Y-44295D01*
X81839Y-44492D01*
X82600Y-49197D02*
X82797Y-49000D01*
X82600Y-48803D01*
X82403Y-49000D01*
X82600Y-49197D01*
X82600Y-50197D02*
X82797Y-50000D01*
X82600Y-49803D01*
X82403Y-50000D01*
X82600Y-50197D01*
X82839Y-44492D02*
X83036Y-44295D01*
X82839Y-44098D01*
X82642Y-44295D01*
X82839Y-44492D01*
X83600Y-49197D02*
X83797Y-49000D01*
X83600Y-48803D01*
X83403Y-49000D01*
X83600Y-49197D01*
X83600Y-50197D02*
X83797Y-50000D01*
X83600Y-49803D01*
X83403Y-50000D01*
X83600Y-50197D01*
X83839Y-44492D02*
X84036Y-44295D01*
X83839Y-44098D01*
X83642Y-44295D01*
X83839Y-44492D01*
X84600Y-49197D02*
X84797Y-49000D01*
X84600Y-48803D01*
X84403Y-49000D01*
X84600Y-49197D01*
X84600Y-50197D02*
X84797Y-50000D01*
X84600Y-49803D01*
X84403Y-50000D01*
X84600Y-50197D01*
X84839Y-44492D02*
X85036Y-44295D01*
X84839Y-44098D01*
X84642Y-44295D01*
X84839Y-44492D01*
X85600Y-49197D02*
X85797Y-49000D01*
X85600Y-48803D01*
X85403Y-49000D01*
X85600Y-49197D01*
X85600Y-50197D02*
X85797Y-50000D01*
X85600Y-49803D01*
X85403Y-50000D01*
X85600Y-50197D01*
X85839Y-44492D02*
X86036Y-44295D01*
X85839Y-44098D01*
X85642Y-44295D01*
X85839Y-44492D01*
X86839Y-44492D02*
X87036Y-44295D01*
X86839Y-44098D01*
X86642Y-44295D01*
X86839Y-44492D01*
X87839Y-44492D02*
X88036Y-44295D01*
X87839Y-44098D01*
X87642Y-44295D01*
X87839Y-44492D01*
X88839Y-44492D02*
X89036Y-44295D01*
X88839Y-44098D01*
X88642Y-44295D01*
X88839Y-44492D01*
X89839Y-44492D02*
X90036Y-44295D01*
X89839Y-44098D01*
X89642Y-44295D01*
X89839Y-44492D01*
X90839Y-44492D02*
X91036Y-44295D01*
X90839Y-44098D01*
X90642Y-44295D01*
X90839Y-44492D01*
X100147Y-46847D02*
X101053Y-47753D01*
X101053Y-46847D02*
X100147Y-47753D01*
X101053Y-47300D02*
G75*
G03X101053Y-47300I-453J0D01*
G74*
G01*
X100147Y-51587D02*
X101053Y-52493D01*
X101053Y-51587D02*
X100147Y-52493D01*
X101053Y-52040D02*
G75*
G03X101053Y-52040I-453J0D01*
G74*
G01*
X63700Y-15000D02*
X64900Y-16200D01*
X64900Y-15000D02*
X63700Y-16200D01*
X64300Y-15000D02*
X64300Y-16200D01*
X63700Y-15600D02*
X64900Y-15600D01*
X63700Y-54000D02*
X64900Y-55200D01*
X64900Y-54000D02*
X63700Y-55200D01*
X64300Y-54000D02*
X64300Y-55200D01*
X63700Y-54600D02*
X64900Y-54600D01*
X101200Y-15000D02*
X102400Y-16200D01*
X102400Y-15000D02*
X101200Y-16200D01*
X101800Y-15000D02*
X101800Y-16200D01*
X101200Y-15600D02*
X102400Y-15600D01*
X101200Y-54000D02*
X102400Y-55200D01*
X102400Y-54000D02*
X101200Y-55200D01*
X101800Y-54000D02*
X101800Y-55200D01*
X101200Y-54600D02*
X102400Y-54600D01*
X65638Y-18016D02*
X67016Y-19394D01*
X67016Y-18016D02*
X65638Y-19394D01*
X66814Y-19192D02*
X66814Y-18217D01*
X65839Y-18217D01*
X65839Y-19192D01*
X66814Y-19192D01*
X65638Y-43606D02*
X67016Y-44984D01*
X67016Y-43606D02*
X65638Y-44984D01*
X66814Y-44782D02*
X66814Y-43807D01*
X65839Y-43807D01*
X65839Y-44782D01*
X66814Y-44782D01*
X100284Y-18016D02*
X101662Y-19394D01*
X101662Y-18016D02*
X100284Y-19394D01*
X101460Y-19192D02*
X101460Y-18217D01*
X100485Y-18217D01*
X100485Y-19192D01*
X101460Y-19192D01*
X100284Y-43606D02*
X101662Y-44984D01*
X101662Y-43606D02*
X100284Y-44984D01*
X101460Y-44782D02*
X101460Y-43807D01*
X100485Y-43807D01*
X100485Y-44782D01*
X101460Y-44782D01*
G54D12*
X1068Y-1833D02*
X1068Y-652D01*
X1349Y-652D01*
X1518Y-708D01*
X1631Y-821D01*
X1687Y-933D01*
X1743Y-1158D01*
X1743Y-1327D01*
X1687Y-1552D01*
X1631Y-1664D01*
X1518Y-1777D01*
X1349Y-1833D01*
X1068Y-1833D01*
X2249Y-1833D02*
X2249Y-1046D01*
X2249Y-1271D02*
X2305Y-1158D01*
X2362Y-1102D01*
X2474Y-1046D01*
X2587Y-1046D01*
X2980Y-1833D02*
X2980Y-1046D01*
X2980Y-652D02*
X2924Y-708D01*
X2980Y-764D01*
X3037Y-708D01*
X2980Y-652D01*
X2980Y-764D01*
X3712Y-1833D02*
X3599Y-1777D01*
X3543Y-1664D01*
X3543Y-652D01*
X4330Y-1833D02*
X4218Y-1777D01*
X4161Y-1664D01*
X4161Y-652D01*
X5680Y-1833D02*
X5680Y-652D01*
X6074Y-1496D01*
X6467Y-652D01*
X6467Y-1833D01*
X7536Y-1833D02*
X7536Y-1214D01*
X7480Y-1102D01*
X7367Y-1046D01*
X7142Y-1046D01*
X7030Y-1102D01*
X7536Y-1777D02*
X7424Y-1833D01*
X7142Y-1833D01*
X7030Y-1777D01*
X6974Y-1664D01*
X6974Y-1552D01*
X7030Y-1439D01*
X7142Y-1383D01*
X7424Y-1383D01*
X7536Y-1327D01*
X8098Y-1046D02*
X8098Y-2227D01*
X8098Y-1102D02*
X8211Y-1046D01*
X8436Y-1046D01*
X8548Y-1102D01*
X8605Y-1158D01*
X8661Y-1271D01*
X8661Y-1608D01*
X8605Y-1721D01*
X8548Y-1777D01*
X8436Y-1833D01*
X8211Y-1833D01*
X8098Y-1777D01*
X9167Y-1721D02*
X9223Y-1777D01*
X9167Y-1833D01*
X9111Y-1777D01*
X9167Y-1721D01*
X9167Y-1833D01*
X9167Y-1102D02*
X9223Y-1158D01*
X9167Y-1214D01*
X9111Y-1158D01*
X9167Y-1102D01*
X9167Y-1214D01*
X-250Y-3654D02*
X0Y-3904D01*
X0Y-3654D02*
X-250Y-3904D01*
X1293Y-3132D02*
X1406Y-3132D01*
X1518Y-3188D01*
X1574Y-3245D01*
X1631Y-3357D01*
X1687Y-3582D01*
X1687Y-3863D01*
X1631Y-4088D01*
X1574Y-4201D01*
X1518Y-4257D01*
X1406Y-4313D01*
X1293Y-4313D01*
X1181Y-4257D01*
X1124Y-4201D01*
X1068Y-4088D01*
X1012Y-3863D01*
X1012Y-3582D01*
X1068Y-3357D01*
X1124Y-3245D01*
X1181Y-3188D01*
X1293Y-3132D01*
X2193Y-4201D02*
X2249Y-4257D01*
X2193Y-4313D01*
X2137Y-4257D01*
X2193Y-4201D01*
X2193Y-4313D01*
X3262Y-3132D02*
X3037Y-3132D01*
X2924Y-3188D01*
X2868Y-3245D01*
X2755Y-3413D01*
X2699Y-3638D01*
X2699Y-4088D01*
X2755Y-4201D01*
X2812Y-4257D01*
X2924Y-4313D01*
X3149Y-4313D01*
X3262Y-4257D01*
X3318Y-4201D01*
X3374Y-4088D01*
X3374Y-3807D01*
X3318Y-3695D01*
X3262Y-3638D01*
X3149Y-3582D01*
X2924Y-3582D01*
X2812Y-3638D01*
X2755Y-3695D01*
X2699Y-3807D01*
X4386Y-3526D02*
X4386Y-4313D01*
X4105Y-3076D02*
X3824Y-3920D01*
X4555Y-3920D01*
X5005Y-4313D02*
X5005Y-3526D01*
X5005Y-3638D02*
X5061Y-3582D01*
X5174Y-3526D01*
X5343Y-3526D01*
X5455Y-3582D01*
X5511Y-3695D01*
X5511Y-4313D01*
X5511Y-3695D02*
X5568Y-3582D01*
X5680Y-3526D01*
X5849Y-3526D01*
X5961Y-3582D01*
X6017Y-3695D01*
X6017Y-4313D01*
X6580Y-4313D02*
X6580Y-3526D01*
X6580Y-3638D02*
X6636Y-3582D01*
X6749Y-3526D01*
X6917Y-3526D01*
X7030Y-3582D01*
X7086Y-3695D01*
X7086Y-4313D01*
X7086Y-3695D02*
X7142Y-3582D01*
X7255Y-3526D01*
X7424Y-3526D01*
X7536Y-3582D01*
X7592Y-3695D01*
X7592Y-4313D01*
X9898Y-3076D02*
X8886Y-4595D01*
X11417Y-3132D02*
X11529Y-3132D01*
X11642Y-3188D01*
X11698Y-3245D01*
X11754Y-3357D01*
X11811Y-3582D01*
X11811Y-3863D01*
X11754Y-4088D01*
X11698Y-4201D01*
X11642Y-4257D01*
X11529Y-4313D01*
X11417Y-4313D01*
X11304Y-4257D01*
X11248Y-4201D01*
X11192Y-4088D01*
X11136Y-3863D01*
X11136Y-3582D01*
X11192Y-3357D01*
X11248Y-3245D01*
X11304Y-3188D01*
X11417Y-3132D01*
X12317Y-4201D02*
X12373Y-4257D01*
X12317Y-4313D01*
X12260Y-4257D01*
X12317Y-4201D01*
X12317Y-4313D01*
X13104Y-3132D02*
X13217Y-3132D01*
X13329Y-3188D01*
X13385Y-3245D01*
X13442Y-3357D01*
X13498Y-3582D01*
X13498Y-3863D01*
X13442Y-4088D01*
X13385Y-4201D01*
X13329Y-4257D01*
X13217Y-4313D01*
X13104Y-4313D01*
X12992Y-4257D01*
X12935Y-4201D01*
X12879Y-4088D01*
X12823Y-3863D01*
X12823Y-3582D01*
X12879Y-3357D01*
X12935Y-3245D01*
X12992Y-3188D01*
X13104Y-3132D01*
X13948Y-3245D02*
X14004Y-3188D01*
X14116Y-3132D01*
X14398Y-3132D01*
X14510Y-3188D01*
X14566Y-3245D01*
X14623Y-3357D01*
X14623Y-3470D01*
X14566Y-3638D01*
X13892Y-4313D01*
X14623Y-4313D01*
X15691Y-3132D02*
X15129Y-3132D01*
X15073Y-3695D01*
X15129Y-3638D01*
X15241Y-3582D01*
X15523Y-3582D01*
X15635Y-3638D01*
X15691Y-3695D01*
X15748Y-3807D01*
X15748Y-4088D01*
X15691Y-4201D01*
X15635Y-4257D01*
X15523Y-4313D01*
X15241Y-4313D01*
X15129Y-4257D01*
X15073Y-4201D01*
X16197Y-3132D02*
X16197Y-3357D01*
X16647Y-3132D02*
X16647Y-3357D01*
X18391Y-4763D02*
X18335Y-4707D01*
X18222Y-4538D01*
X18166Y-4426D01*
X18110Y-4257D01*
X18053Y-3976D01*
X18053Y-3751D01*
X18110Y-3470D01*
X18166Y-3301D01*
X18222Y-3188D01*
X18335Y-3020D01*
X18391Y-2964D01*
X19460Y-4313D02*
X18785Y-4313D01*
X19122Y-4313D02*
X19122Y-3132D01*
X19010Y-3301D01*
X18897Y-3413D01*
X18785Y-3470D01*
X20191Y-3132D02*
X20303Y-3132D01*
X20416Y-3188D01*
X20472Y-3245D01*
X20528Y-3357D01*
X20584Y-3582D01*
X20584Y-3863D01*
X20528Y-4088D01*
X20472Y-4201D01*
X20416Y-4257D01*
X20303Y-4313D01*
X20191Y-4313D01*
X20078Y-4257D01*
X20022Y-4201D01*
X19966Y-4088D01*
X19910Y-3863D01*
X19910Y-3582D01*
X19966Y-3357D01*
X20022Y-3245D01*
X20078Y-3188D01*
X20191Y-3132D01*
X21991Y-4313D02*
X21991Y-3132D01*
X22497Y-4313D02*
X22497Y-3695D01*
X22440Y-3582D01*
X22328Y-3526D01*
X22159Y-3526D01*
X22047Y-3582D01*
X21991Y-3638D01*
X23228Y-4313D02*
X23115Y-4257D01*
X23059Y-4201D01*
X23003Y-4088D01*
X23003Y-3751D01*
X23059Y-3638D01*
X23115Y-3582D01*
X23228Y-3526D01*
X23397Y-3526D01*
X23509Y-3582D01*
X23565Y-3638D01*
X23622Y-3751D01*
X23622Y-4088D01*
X23565Y-4201D01*
X23509Y-4257D01*
X23397Y-4313D01*
X23228Y-4313D01*
X24296Y-4313D02*
X24184Y-4257D01*
X24128Y-4145D01*
X24128Y-3132D01*
X25196Y-4257D02*
X25084Y-4313D01*
X24859Y-4313D01*
X24746Y-4257D01*
X24690Y-4145D01*
X24690Y-3695D01*
X24746Y-3582D01*
X24859Y-3526D01*
X25084Y-3526D01*
X25196Y-3582D01*
X25253Y-3695D01*
X25253Y-3807D01*
X24690Y-3920D01*
X25703Y-4257D02*
X25815Y-4313D01*
X26040Y-4313D01*
X26152Y-4257D01*
X26209Y-4145D01*
X26209Y-4088D01*
X26152Y-3976D01*
X26040Y-3920D01*
X25871Y-3920D01*
X25759Y-3863D01*
X25703Y-3751D01*
X25703Y-3695D01*
X25759Y-3582D01*
X25871Y-3526D01*
X26040Y-3526D01*
X26152Y-3582D01*
X26602Y-4763D02*
X26659Y-4707D01*
X26771Y-4538D01*
X26827Y-4426D01*
X26884Y-4257D01*
X26940Y-3976D01*
X26940Y-3751D01*
X26884Y-3470D01*
X26827Y-3301D01*
X26771Y-3188D01*
X26659Y-3020D01*
X26602Y-2964D01*
G54D11*
X0Y-5338D02*
G75*
G03X0Y-5338I-160J0D01*
G74*
G01*
G54D12*
X1293Y-4691D02*
X1406Y-4691D01*
X1518Y-4748D01*
X1574Y-4804D01*
X1631Y-4916D01*
X1687Y-5141D01*
X1687Y-5422D01*
X1631Y-5647D01*
X1574Y-5760D01*
X1518Y-5816D01*
X1406Y-5872D01*
X1293Y-5872D01*
X1181Y-5816D01*
X1124Y-5760D01*
X1068Y-5647D01*
X1012Y-5422D01*
X1012Y-5141D01*
X1068Y-4916D01*
X1124Y-4804D01*
X1181Y-4748D01*
X1293Y-4691D01*
X2193Y-5760D02*
X2249Y-5816D01*
X2193Y-5872D01*
X2137Y-5816D01*
X2193Y-5760D01*
X2193Y-5872D01*
X2924Y-5197D02*
X2812Y-5141D01*
X2755Y-5085D01*
X2699Y-4973D01*
X2699Y-4916D01*
X2755Y-4804D01*
X2812Y-4748D01*
X2924Y-4691D01*
X3149Y-4691D01*
X3262Y-4748D01*
X3318Y-4804D01*
X3374Y-4916D01*
X3374Y-4973D01*
X3318Y-5085D01*
X3262Y-5141D01*
X3149Y-5197D01*
X2924Y-5197D01*
X2812Y-5254D01*
X2755Y-5310D01*
X2699Y-5422D01*
X2699Y-5647D01*
X2755Y-5760D01*
X2812Y-5816D01*
X2924Y-5872D01*
X3149Y-5872D01*
X3262Y-5816D01*
X3318Y-5760D01*
X3374Y-5647D01*
X3374Y-5422D01*
X3318Y-5310D01*
X3262Y-5254D01*
X3149Y-5197D01*
X4499Y-5872D02*
X3824Y-5872D01*
X4161Y-5872D02*
X4161Y-4691D01*
X4049Y-4860D01*
X3937Y-4973D01*
X3824Y-5029D01*
X5005Y-5872D02*
X5005Y-5085D01*
X5005Y-5197D02*
X5061Y-5141D01*
X5174Y-5085D01*
X5343Y-5085D01*
X5455Y-5141D01*
X5511Y-5254D01*
X5511Y-5872D01*
X5511Y-5254D02*
X5568Y-5141D01*
X5680Y-5085D01*
X5849Y-5085D01*
X5961Y-5141D01*
X6017Y-5254D01*
X6017Y-5872D01*
X6580Y-5872D02*
X6580Y-5085D01*
X6580Y-5197D02*
X6636Y-5141D01*
X6749Y-5085D01*
X6917Y-5085D01*
X7030Y-5141D01*
X7086Y-5254D01*
X7086Y-5872D01*
X7086Y-5254D02*
X7142Y-5141D01*
X7255Y-5085D01*
X7424Y-5085D01*
X7536Y-5141D01*
X7592Y-5254D01*
X7592Y-5872D01*
X9898Y-4635D02*
X8886Y-6154D01*
X11417Y-4691D02*
X11529Y-4691D01*
X11642Y-4748D01*
X11698Y-4804D01*
X11754Y-4916D01*
X11811Y-5141D01*
X11811Y-5422D01*
X11754Y-5647D01*
X11698Y-5760D01*
X11642Y-5816D01*
X11529Y-5872D01*
X11417Y-5872D01*
X11304Y-5816D01*
X11248Y-5760D01*
X11192Y-5647D01*
X11136Y-5422D01*
X11136Y-5141D01*
X11192Y-4916D01*
X11248Y-4804D01*
X11304Y-4748D01*
X11417Y-4691D01*
X12317Y-5760D02*
X12373Y-5816D01*
X12317Y-5872D01*
X12260Y-5816D01*
X12317Y-5760D01*
X12317Y-5872D01*
X13104Y-4691D02*
X13217Y-4691D01*
X13329Y-4748D01*
X13385Y-4804D01*
X13442Y-4916D01*
X13498Y-5141D01*
X13498Y-5422D01*
X13442Y-5647D01*
X13385Y-5760D01*
X13329Y-5816D01*
X13217Y-5872D01*
X13104Y-5872D01*
X12992Y-5816D01*
X12935Y-5760D01*
X12879Y-5647D01*
X12823Y-5422D01*
X12823Y-5141D01*
X12879Y-4916D01*
X12935Y-4804D01*
X12992Y-4748D01*
X13104Y-4691D01*
X13892Y-4691D02*
X14623Y-4691D01*
X14229Y-5141D01*
X14398Y-5141D01*
X14510Y-5197D01*
X14566Y-5254D01*
X14623Y-5366D01*
X14623Y-5647D01*
X14566Y-5760D01*
X14510Y-5816D01*
X14398Y-5872D01*
X14060Y-5872D01*
X13948Y-5816D01*
X13892Y-5760D01*
X15073Y-4804D02*
X15129Y-4748D01*
X15241Y-4691D01*
X15523Y-4691D01*
X15635Y-4748D01*
X15691Y-4804D01*
X15748Y-4916D01*
X15748Y-5029D01*
X15691Y-5197D01*
X15016Y-5872D01*
X15748Y-5872D01*
X16197Y-4691D02*
X16197Y-4916D01*
X16647Y-4691D02*
X16647Y-4916D01*
X18391Y-6322D02*
X18335Y-6266D01*
X18222Y-6097D01*
X18166Y-5985D01*
X18110Y-5816D01*
X18053Y-5535D01*
X18053Y-5310D01*
X18110Y-5029D01*
X18166Y-4860D01*
X18222Y-4748D01*
X18335Y-4579D01*
X18391Y-4523D01*
X18785Y-4804D02*
X18841Y-4748D01*
X18953Y-4691D01*
X19235Y-4691D01*
X19347Y-4748D01*
X19403Y-4804D01*
X19460Y-4916D01*
X19460Y-5029D01*
X19403Y-5197D01*
X18728Y-5872D01*
X19460Y-5872D01*
X20866Y-5872D02*
X20866Y-4691D01*
X21372Y-5872D02*
X21372Y-5254D01*
X21316Y-5141D01*
X21203Y-5085D01*
X21034Y-5085D01*
X20922Y-5141D01*
X20866Y-5197D01*
X22103Y-5872D02*
X21991Y-5816D01*
X21934Y-5760D01*
X21878Y-5647D01*
X21878Y-5310D01*
X21934Y-5197D01*
X21991Y-5141D01*
X22103Y-5085D01*
X22272Y-5085D01*
X22384Y-5141D01*
X22440Y-5197D01*
X22497Y-5310D01*
X22497Y-5647D01*
X22440Y-5760D01*
X22384Y-5816D01*
X22272Y-5872D01*
X22103Y-5872D01*
X23172Y-5872D02*
X23059Y-5816D01*
X23003Y-5704D01*
X23003Y-4691D01*
X24071Y-5816D02*
X23959Y-5872D01*
X23734Y-5872D01*
X23622Y-5816D01*
X23565Y-5704D01*
X23565Y-5254D01*
X23622Y-5141D01*
X23734Y-5085D01*
X23959Y-5085D01*
X24071Y-5141D01*
X24128Y-5254D01*
X24128Y-5366D01*
X23565Y-5479D01*
X24578Y-5816D02*
X24690Y-5872D01*
X24915Y-5872D01*
X25028Y-5816D01*
X25084Y-5704D01*
X25084Y-5647D01*
X25028Y-5535D01*
X24915Y-5479D01*
X24746Y-5479D01*
X24634Y-5422D01*
X24578Y-5310D01*
X24578Y-5254D01*
X24634Y-5141D01*
X24746Y-5085D01*
X24915Y-5085D01*
X25028Y-5141D01*
X25478Y-6322D02*
X25534Y-6266D01*
X25646Y-6097D01*
X25703Y-5985D01*
X25759Y-5816D01*
X25815Y-5535D01*
X25815Y-5310D01*
X25759Y-5029D01*
X25703Y-4860D01*
X25646Y-4748D01*
X25534Y-4579D01*
X25478Y-4523D01*
X-177Y-6720D02*
X-177Y-7074D01*
X-354Y-6897D02*
X0Y-6897D01*
X1293Y-6250D02*
X1406Y-6250D01*
X1518Y-6307D01*
X1574Y-6363D01*
X1631Y-6475D01*
X1687Y-6700D01*
X1687Y-6982D01*
X1631Y-7206D01*
X1574Y-7319D01*
X1518Y-7375D01*
X1406Y-7431D01*
X1293Y-7431D01*
X1181Y-7375D01*
X1124Y-7319D01*
X1068Y-7206D01*
X1012Y-6982D01*
X1012Y-6700D01*
X1068Y-6475D01*
X1124Y-6363D01*
X1181Y-6307D01*
X1293Y-6250D01*
X2193Y-7319D02*
X2249Y-7375D01*
X2193Y-7431D01*
X2137Y-7375D01*
X2193Y-7319D01*
X2193Y-7431D01*
X2812Y-7431D02*
X3037Y-7431D01*
X3149Y-7375D01*
X3205Y-7319D01*
X3318Y-7150D01*
X3374Y-6925D01*
X3374Y-6475D01*
X3318Y-6363D01*
X3262Y-6307D01*
X3149Y-6250D01*
X2924Y-6250D01*
X2812Y-6307D01*
X2755Y-6363D01*
X2699Y-6475D01*
X2699Y-6757D01*
X2755Y-6869D01*
X2812Y-6925D01*
X2924Y-6982D01*
X3149Y-6982D01*
X3262Y-6925D01*
X3318Y-6869D01*
X3374Y-6757D01*
X4105Y-6250D02*
X4218Y-6250D01*
X4330Y-6307D01*
X4386Y-6363D01*
X4443Y-6475D01*
X4499Y-6700D01*
X4499Y-6982D01*
X4443Y-7206D01*
X4386Y-7319D01*
X4330Y-7375D01*
X4218Y-7431D01*
X4105Y-7431D01*
X3993Y-7375D01*
X3937Y-7319D01*
X3880Y-7206D01*
X3824Y-6982D01*
X3824Y-6700D01*
X3880Y-6475D01*
X3937Y-6363D01*
X3993Y-6307D01*
X4105Y-6250D01*
X5005Y-7431D02*
X5005Y-6644D01*
X5005Y-6757D02*
X5061Y-6700D01*
X5174Y-6644D01*
X5343Y-6644D01*
X5455Y-6700D01*
X5511Y-6813D01*
X5511Y-7431D01*
X5511Y-6813D02*
X5568Y-6700D01*
X5680Y-6644D01*
X5849Y-6644D01*
X5961Y-6700D01*
X6017Y-6813D01*
X6017Y-7431D01*
X6580Y-7431D02*
X6580Y-6644D01*
X6580Y-6757D02*
X6636Y-6700D01*
X6749Y-6644D01*
X6917Y-6644D01*
X7030Y-6700D01*
X7086Y-6813D01*
X7086Y-7431D01*
X7086Y-6813D02*
X7142Y-6700D01*
X7255Y-6644D01*
X7424Y-6644D01*
X7536Y-6700D01*
X7592Y-6813D01*
X7592Y-7431D01*
X9898Y-6194D02*
X8886Y-7713D01*
X11417Y-6250D02*
X11529Y-6250D01*
X11642Y-6307D01*
X11698Y-6363D01*
X11754Y-6475D01*
X11811Y-6700D01*
X11811Y-6982D01*
X11754Y-7206D01*
X11698Y-7319D01*
X11642Y-7375D01*
X11529Y-7431D01*
X11417Y-7431D01*
X11304Y-7375D01*
X11248Y-7319D01*
X11192Y-7206D01*
X11136Y-6982D01*
X11136Y-6700D01*
X11192Y-6475D01*
X11248Y-6363D01*
X11304Y-6307D01*
X11417Y-6250D01*
X12317Y-7319D02*
X12373Y-7375D01*
X12317Y-7431D01*
X12260Y-7375D01*
X12317Y-7319D01*
X12317Y-7431D01*
X13104Y-6250D02*
X13217Y-6250D01*
X13329Y-6307D01*
X13385Y-6363D01*
X13442Y-6475D01*
X13498Y-6700D01*
X13498Y-6982D01*
X13442Y-7206D01*
X13385Y-7319D01*
X13329Y-7375D01*
X13217Y-7431D01*
X13104Y-7431D01*
X12992Y-7375D01*
X12935Y-7319D01*
X12879Y-7206D01*
X12823Y-6982D01*
X12823Y-6700D01*
X12879Y-6475D01*
X12935Y-6363D01*
X12992Y-6307D01*
X13104Y-6250D01*
X13892Y-6250D02*
X14623Y-6250D01*
X14229Y-6700D01*
X14398Y-6700D01*
X14510Y-6757D01*
X14566Y-6813D01*
X14623Y-6925D01*
X14623Y-7206D01*
X14566Y-7319D01*
X14510Y-7375D01*
X14398Y-7431D01*
X14060Y-7431D01*
X13948Y-7375D01*
X13892Y-7319D01*
X15691Y-6250D02*
X15129Y-6250D01*
X15073Y-6813D01*
X15129Y-6757D01*
X15241Y-6700D01*
X15523Y-6700D01*
X15635Y-6757D01*
X15691Y-6813D01*
X15748Y-6925D01*
X15748Y-7206D01*
X15691Y-7319D01*
X15635Y-7375D01*
X15523Y-7431D01*
X15241Y-7431D01*
X15129Y-7375D01*
X15073Y-7319D01*
X16197Y-6250D02*
X16197Y-6475D01*
X16647Y-6250D02*
X16647Y-6475D01*
X18391Y-7881D02*
X18335Y-7825D01*
X18222Y-7656D01*
X18166Y-7544D01*
X18110Y-7375D01*
X18053Y-7094D01*
X18053Y-6869D01*
X18110Y-6588D01*
X18166Y-6419D01*
X18222Y-6307D01*
X18335Y-6138D01*
X18391Y-6082D01*
X18728Y-6250D02*
X19460Y-6250D01*
X19066Y-6700D01*
X19235Y-6700D01*
X19347Y-6757D01*
X19403Y-6813D01*
X19460Y-6925D01*
X19460Y-7206D01*
X19403Y-7319D01*
X19347Y-7375D01*
X19235Y-7431D01*
X18897Y-7431D01*
X18785Y-7375D01*
X18728Y-7319D01*
X20866Y-7431D02*
X20866Y-6250D01*
X21372Y-7431D02*
X21372Y-6813D01*
X21316Y-6700D01*
X21203Y-6644D01*
X21034Y-6644D01*
X20922Y-6700D01*
X20866Y-6757D01*
X22103Y-7431D02*
X21991Y-7375D01*
X21934Y-7319D01*
X21878Y-7206D01*
X21878Y-6869D01*
X21934Y-6757D01*
X21991Y-6700D01*
X22103Y-6644D01*
X22272Y-6644D01*
X22384Y-6700D01*
X22440Y-6757D01*
X22497Y-6869D01*
X22497Y-7206D01*
X22440Y-7319D01*
X22384Y-7375D01*
X22272Y-7431D01*
X22103Y-7431D01*
X23172Y-7431D02*
X23059Y-7375D01*
X23003Y-7263D01*
X23003Y-6250D01*
X24071Y-7375D02*
X23959Y-7431D01*
X23734Y-7431D01*
X23622Y-7375D01*
X23565Y-7263D01*
X23565Y-6813D01*
X23622Y-6700D01*
X23734Y-6644D01*
X23959Y-6644D01*
X24071Y-6700D01*
X24128Y-6813D01*
X24128Y-6925D01*
X23565Y-7038D01*
X24578Y-7375D02*
X24690Y-7431D01*
X24915Y-7431D01*
X25028Y-7375D01*
X25084Y-7263D01*
X25084Y-7206D01*
X25028Y-7094D01*
X24915Y-7038D01*
X24746Y-7038D01*
X24634Y-6982D01*
X24578Y-6869D01*
X24578Y-6813D01*
X24634Y-6700D01*
X24746Y-6644D01*
X24915Y-6644D01*
X25028Y-6700D01*
X25478Y-7881D02*
X25534Y-7825D01*
X25646Y-7656D01*
X25703Y-7544D01*
X25759Y-7375D01*
X25815Y-7094D01*
X25815Y-6869D01*
X25759Y-6588D01*
X25703Y-6419D01*
X25646Y-6307D01*
X25534Y-6138D01*
X25478Y-6082D01*
G54D11*
X-54Y-8588D02*
X-54Y-8324D01*
X-319Y-8324D01*
X-319Y-8588D01*
X-54Y-8588D01*
G54D12*
X1293Y-7809D02*
X1406Y-7809D01*
X1518Y-7866D01*
X1574Y-7922D01*
X1631Y-8034D01*
X1687Y-8259D01*
X1687Y-8541D01*
X1631Y-8766D01*
X1574Y-8878D01*
X1518Y-8934D01*
X1406Y-8991D01*
X1293Y-8991D01*
X1181Y-8934D01*
X1124Y-8878D01*
X1068Y-8766D01*
X1012Y-8541D01*
X1012Y-8259D01*
X1068Y-8034D01*
X1124Y-7922D01*
X1181Y-7866D01*
X1293Y-7809D01*
X2193Y-8878D02*
X2249Y-8934D01*
X2193Y-8991D01*
X2137Y-8934D01*
X2193Y-8878D01*
X2193Y-8991D01*
X2812Y-8991D02*
X3037Y-8991D01*
X3149Y-8934D01*
X3205Y-8878D01*
X3318Y-8709D01*
X3374Y-8484D01*
X3374Y-8034D01*
X3318Y-7922D01*
X3262Y-7866D01*
X3149Y-7809D01*
X2924Y-7809D01*
X2812Y-7866D01*
X2755Y-7922D01*
X2699Y-8034D01*
X2699Y-8316D01*
X2755Y-8428D01*
X2812Y-8484D01*
X2924Y-8541D01*
X3149Y-8541D01*
X3262Y-8484D01*
X3318Y-8428D01*
X3374Y-8316D01*
X4443Y-7809D02*
X3880Y-7809D01*
X3824Y-8372D01*
X3880Y-8316D01*
X3993Y-8259D01*
X4274Y-8259D01*
X4386Y-8316D01*
X4443Y-8372D01*
X4499Y-8484D01*
X4499Y-8766D01*
X4443Y-8878D01*
X4386Y-8934D01*
X4274Y-8991D01*
X3993Y-8991D01*
X3880Y-8934D01*
X3824Y-8878D01*
X5005Y-8991D02*
X5005Y-8203D01*
X5005Y-8316D02*
X5061Y-8259D01*
X5174Y-8203D01*
X5343Y-8203D01*
X5455Y-8259D01*
X5511Y-8372D01*
X5511Y-8991D01*
X5511Y-8372D02*
X5568Y-8259D01*
X5680Y-8203D01*
X5849Y-8203D01*
X5961Y-8259D01*
X6017Y-8372D01*
X6017Y-8991D01*
X6580Y-8991D02*
X6580Y-8203D01*
X6580Y-8316D02*
X6636Y-8259D01*
X6749Y-8203D01*
X6917Y-8203D01*
X7030Y-8259D01*
X7086Y-8372D01*
X7086Y-8991D01*
X7086Y-8372D02*
X7142Y-8259D01*
X7255Y-8203D01*
X7424Y-8203D01*
X7536Y-8259D01*
X7592Y-8372D01*
X7592Y-8991D01*
X9898Y-7753D02*
X8886Y-9272D01*
X11417Y-7809D02*
X11529Y-7809D01*
X11642Y-7866D01*
X11698Y-7922D01*
X11754Y-8034D01*
X11811Y-8259D01*
X11811Y-8541D01*
X11754Y-8766D01*
X11698Y-8878D01*
X11642Y-8934D01*
X11529Y-8991D01*
X11417Y-8991D01*
X11304Y-8934D01*
X11248Y-8878D01*
X11192Y-8766D01*
X11136Y-8541D01*
X11136Y-8259D01*
X11192Y-8034D01*
X11248Y-7922D01*
X11304Y-7866D01*
X11417Y-7809D01*
X12317Y-8878D02*
X12373Y-8934D01*
X12317Y-8991D01*
X12260Y-8934D01*
X12317Y-8878D01*
X12317Y-8991D01*
X13104Y-7809D02*
X13217Y-7809D01*
X13329Y-7866D01*
X13385Y-7922D01*
X13442Y-8034D01*
X13498Y-8259D01*
X13498Y-8541D01*
X13442Y-8766D01*
X13385Y-8878D01*
X13329Y-8934D01*
X13217Y-8991D01*
X13104Y-8991D01*
X12992Y-8934D01*
X12935Y-8878D01*
X12879Y-8766D01*
X12823Y-8541D01*
X12823Y-8259D01*
X12879Y-8034D01*
X12935Y-7922D01*
X12992Y-7866D01*
X13104Y-7809D01*
X13892Y-7809D02*
X14623Y-7809D01*
X14229Y-8259D01*
X14398Y-8259D01*
X14510Y-8316D01*
X14566Y-8372D01*
X14623Y-8484D01*
X14623Y-8766D01*
X14566Y-8878D01*
X14510Y-8934D01*
X14398Y-8991D01*
X14060Y-8991D01*
X13948Y-8934D01*
X13892Y-8878D01*
X15016Y-7809D02*
X15804Y-7809D01*
X15298Y-8991D01*
X16197Y-7809D02*
X16197Y-8034D01*
X16647Y-7809D02*
X16647Y-8034D01*
X18391Y-9440D02*
X18335Y-9384D01*
X18222Y-9215D01*
X18166Y-9103D01*
X18110Y-8934D01*
X18053Y-8653D01*
X18053Y-8428D01*
X18110Y-8147D01*
X18166Y-7978D01*
X18222Y-7866D01*
X18335Y-7697D01*
X18391Y-7641D01*
X19347Y-8203D02*
X19347Y-8991D01*
X19066Y-7753D02*
X18785Y-8597D01*
X19516Y-8597D01*
X20866Y-8991D02*
X20866Y-7809D01*
X21372Y-8991D02*
X21372Y-8372D01*
X21316Y-8259D01*
X21203Y-8203D01*
X21034Y-8203D01*
X20922Y-8259D01*
X20866Y-8316D01*
X22103Y-8991D02*
X21991Y-8934D01*
X21934Y-8878D01*
X21878Y-8766D01*
X21878Y-8428D01*
X21934Y-8316D01*
X21991Y-8259D01*
X22103Y-8203D01*
X22272Y-8203D01*
X22384Y-8259D01*
X22440Y-8316D01*
X22497Y-8428D01*
X22497Y-8766D01*
X22440Y-8878D01*
X22384Y-8934D01*
X22272Y-8991D01*
X22103Y-8991D01*
X23172Y-8991D02*
X23059Y-8934D01*
X23003Y-8822D01*
X23003Y-7809D01*
X24071Y-8934D02*
X23959Y-8991D01*
X23734Y-8991D01*
X23622Y-8934D01*
X23565Y-8822D01*
X23565Y-8372D01*
X23622Y-8259D01*
X23734Y-8203D01*
X23959Y-8203D01*
X24071Y-8259D01*
X24128Y-8372D01*
X24128Y-8484D01*
X23565Y-8597D01*
X24578Y-8934D02*
X24690Y-8991D01*
X24915Y-8991D01*
X25028Y-8934D01*
X25084Y-8822D01*
X25084Y-8766D01*
X25028Y-8653D01*
X24915Y-8597D01*
X24746Y-8597D01*
X24634Y-8541D01*
X24578Y-8428D01*
X24578Y-8372D01*
X24634Y-8259D01*
X24746Y-8203D01*
X24915Y-8203D01*
X25028Y-8259D01*
X25478Y-9440D02*
X25534Y-9384D01*
X25646Y-9215D01*
X25703Y-9103D01*
X25759Y-8934D01*
X25815Y-8653D01*
X25815Y-8428D01*
X25759Y-8147D01*
X25703Y-7978D01*
X25646Y-7866D01*
X25534Y-7697D01*
X25478Y-7641D01*
G54D11*
X-197Y-10212D02*
X0Y-10015D01*
X-197Y-9818D01*
X-394Y-10015D01*
X-197Y-10212D01*
G54D12*
X1687Y-10550D02*
X1012Y-10550D01*
X1349Y-10550D02*
X1349Y-9368D01*
X1237Y-9537D01*
X1124Y-9650D01*
X1012Y-9706D01*
X2193Y-10437D02*
X2249Y-10493D01*
X2193Y-10550D01*
X2137Y-10493D01*
X2193Y-10437D01*
X2193Y-10550D01*
X2980Y-9368D02*
X3093Y-9368D01*
X3205Y-9425D01*
X3262Y-9481D01*
X3318Y-9593D01*
X3374Y-9818D01*
X3374Y-10100D01*
X3318Y-10325D01*
X3262Y-10437D01*
X3205Y-10493D01*
X3093Y-10550D01*
X2980Y-10550D01*
X2868Y-10493D01*
X2812Y-10437D01*
X2755Y-10325D01*
X2699Y-10100D01*
X2699Y-9818D01*
X2755Y-9593D01*
X2812Y-9481D01*
X2868Y-9425D01*
X2980Y-9368D01*
X4105Y-9368D02*
X4218Y-9368D01*
X4330Y-9425D01*
X4386Y-9481D01*
X4443Y-9593D01*
X4499Y-9818D01*
X4499Y-10100D01*
X4443Y-10325D01*
X4386Y-10437D01*
X4330Y-10493D01*
X4218Y-10550D01*
X4105Y-10550D01*
X3993Y-10493D01*
X3937Y-10437D01*
X3880Y-10325D01*
X3824Y-10100D01*
X3824Y-9818D01*
X3880Y-9593D01*
X3937Y-9481D01*
X3993Y-9425D01*
X4105Y-9368D01*
X5005Y-10550D02*
X5005Y-9762D01*
X5005Y-9875D02*
X5061Y-9818D01*
X5174Y-9762D01*
X5343Y-9762D01*
X5455Y-9818D01*
X5511Y-9931D01*
X5511Y-10550D01*
X5511Y-9931D02*
X5568Y-9818D01*
X5680Y-9762D01*
X5849Y-9762D01*
X5961Y-9818D01*
X6017Y-9931D01*
X6017Y-10550D01*
X6580Y-10550D02*
X6580Y-9762D01*
X6580Y-9875D02*
X6636Y-9818D01*
X6749Y-9762D01*
X6917Y-9762D01*
X7030Y-9818D01*
X7086Y-9931D01*
X7086Y-10550D01*
X7086Y-9931D02*
X7142Y-9818D01*
X7255Y-9762D01*
X7424Y-9762D01*
X7536Y-9818D01*
X7592Y-9931D01*
X7592Y-10550D01*
X9898Y-9312D02*
X8886Y-10831D01*
X11417Y-9368D02*
X11529Y-9368D01*
X11642Y-9425D01*
X11698Y-9481D01*
X11754Y-9593D01*
X11811Y-9818D01*
X11811Y-10100D01*
X11754Y-10325D01*
X11698Y-10437D01*
X11642Y-10493D01*
X11529Y-10550D01*
X11417Y-10550D01*
X11304Y-10493D01*
X11248Y-10437D01*
X11192Y-10325D01*
X11136Y-10100D01*
X11136Y-9818D01*
X11192Y-9593D01*
X11248Y-9481D01*
X11304Y-9425D01*
X11417Y-9368D01*
X12317Y-10437D02*
X12373Y-10493D01*
X12317Y-10550D01*
X12260Y-10493D01*
X12317Y-10437D01*
X12317Y-10550D01*
X13104Y-9368D02*
X13217Y-9368D01*
X13329Y-9425D01*
X13385Y-9481D01*
X13442Y-9593D01*
X13498Y-9818D01*
X13498Y-10100D01*
X13442Y-10325D01*
X13385Y-10437D01*
X13329Y-10493D01*
X13217Y-10550D01*
X13104Y-10550D01*
X12992Y-10493D01*
X12935Y-10437D01*
X12879Y-10325D01*
X12823Y-10100D01*
X12823Y-9818D01*
X12879Y-9593D01*
X12935Y-9481D01*
X12992Y-9425D01*
X13104Y-9368D01*
X13892Y-9368D02*
X14623Y-9368D01*
X14229Y-9818D01*
X14398Y-9818D01*
X14510Y-9875D01*
X14566Y-9931D01*
X14623Y-10043D01*
X14623Y-10325D01*
X14566Y-10437D01*
X14510Y-10493D01*
X14398Y-10550D01*
X14060Y-10550D01*
X13948Y-10493D01*
X13892Y-10437D01*
X15185Y-10550D02*
X15410Y-10550D01*
X15523Y-10493D01*
X15579Y-10437D01*
X15691Y-10268D01*
X15748Y-10043D01*
X15748Y-9593D01*
X15691Y-9481D01*
X15635Y-9425D01*
X15523Y-9368D01*
X15298Y-9368D01*
X15185Y-9425D01*
X15129Y-9481D01*
X15073Y-9593D01*
X15073Y-9875D01*
X15129Y-9987D01*
X15185Y-10043D01*
X15298Y-10100D01*
X15523Y-10100D01*
X15635Y-10043D01*
X15691Y-9987D01*
X15748Y-9875D01*
X16197Y-9368D02*
X16197Y-9593D01*
X16647Y-9368D02*
X16647Y-9593D01*
X18391Y-11000D02*
X18335Y-10943D01*
X18222Y-10775D01*
X18166Y-10662D01*
X18110Y-10493D01*
X18053Y-10212D01*
X18053Y-9987D01*
X18110Y-9706D01*
X18166Y-9537D01*
X18222Y-9425D01*
X18335Y-9256D01*
X18391Y-9200D01*
X19347Y-9762D02*
X19347Y-10550D01*
X19066Y-9312D02*
X18785Y-10156D01*
X19516Y-10156D01*
X20191Y-9368D02*
X20303Y-9368D01*
X20416Y-9425D01*
X20472Y-9481D01*
X20528Y-9593D01*
X20584Y-9818D01*
X20584Y-10100D01*
X20528Y-10325D01*
X20472Y-10437D01*
X20416Y-10493D01*
X20303Y-10550D01*
X20191Y-10550D01*
X20078Y-10493D01*
X20022Y-10437D01*
X19966Y-10325D01*
X19910Y-10100D01*
X19910Y-9818D01*
X19966Y-9593D01*
X20022Y-9481D01*
X20078Y-9425D01*
X20191Y-9368D01*
X21991Y-10550D02*
X21991Y-9368D01*
X22497Y-10550D02*
X22497Y-9931D01*
X22440Y-9818D01*
X22328Y-9762D01*
X22159Y-9762D01*
X22047Y-9818D01*
X21991Y-9875D01*
X23228Y-10550D02*
X23115Y-10493D01*
X23059Y-10437D01*
X23003Y-10325D01*
X23003Y-9987D01*
X23059Y-9875D01*
X23115Y-9818D01*
X23228Y-9762D01*
X23397Y-9762D01*
X23509Y-9818D01*
X23565Y-9875D01*
X23622Y-9987D01*
X23622Y-10325D01*
X23565Y-10437D01*
X23509Y-10493D01*
X23397Y-10550D01*
X23228Y-10550D01*
X24296Y-10550D02*
X24184Y-10493D01*
X24128Y-10381D01*
X24128Y-9368D01*
X25196Y-10493D02*
X25084Y-10550D01*
X24859Y-10550D01*
X24746Y-10493D01*
X24690Y-10381D01*
X24690Y-9931D01*
X24746Y-9818D01*
X24859Y-9762D01*
X25084Y-9762D01*
X25196Y-9818D01*
X25253Y-9931D01*
X25253Y-10043D01*
X24690Y-10156D01*
X25703Y-10493D02*
X25815Y-10550D01*
X26040Y-10550D01*
X26152Y-10493D01*
X26209Y-10381D01*
X26209Y-10325D01*
X26152Y-10212D01*
X26040Y-10156D01*
X25871Y-10156D01*
X25759Y-10100D01*
X25703Y-9987D01*
X25703Y-9931D01*
X25759Y-9818D01*
X25871Y-9762D01*
X26040Y-9762D01*
X26152Y-9818D01*
X26602Y-11000D02*
X26659Y-10943D01*
X26771Y-10775D01*
X26827Y-10662D01*
X26884Y-10493D01*
X26940Y-10212D01*
X26940Y-9987D01*
X26884Y-9706D01*
X26827Y-9537D01*
X26771Y-9425D01*
X26659Y-9256D01*
X26602Y-9200D01*
X-906Y-11121D02*
X0Y-12027D01*
X0Y-11121D02*
X-906Y-12027D01*
G54D11*
X0Y-11574D02*
G75*
G03X0Y-11574I-453J0D01*
G74*
G01*
G54D12*
X1012Y-11040D02*
X1068Y-10984D01*
X1181Y-10928D01*
X1462Y-10928D01*
X1574Y-10984D01*
X1631Y-11040D01*
X1687Y-11152D01*
X1687Y-11265D01*
X1631Y-11434D01*
X956Y-12109D01*
X1687Y-12109D01*
X2193Y-11996D02*
X2249Y-12052D01*
X2193Y-12109D01*
X2137Y-12052D01*
X2193Y-11996D01*
X2193Y-12109D01*
X2643Y-10928D02*
X3374Y-10928D01*
X2980Y-11377D01*
X3149Y-11377D01*
X3262Y-11434D01*
X3318Y-11490D01*
X3374Y-11602D01*
X3374Y-11884D01*
X3318Y-11996D01*
X3262Y-12052D01*
X3149Y-12109D01*
X2812Y-12109D01*
X2699Y-12052D01*
X2643Y-11996D01*
X4105Y-10928D02*
X4218Y-10928D01*
X4330Y-10984D01*
X4386Y-11040D01*
X4443Y-11152D01*
X4499Y-11377D01*
X4499Y-11659D01*
X4443Y-11884D01*
X4386Y-11996D01*
X4330Y-12052D01*
X4218Y-12109D01*
X4105Y-12109D01*
X3993Y-12052D01*
X3937Y-11996D01*
X3880Y-11884D01*
X3824Y-11659D01*
X3824Y-11377D01*
X3880Y-11152D01*
X3937Y-11040D01*
X3993Y-10984D01*
X4105Y-10928D01*
X5005Y-12109D02*
X5005Y-11321D01*
X5005Y-11434D02*
X5061Y-11377D01*
X5174Y-11321D01*
X5343Y-11321D01*
X5455Y-11377D01*
X5511Y-11490D01*
X5511Y-12109D01*
X5511Y-11490D02*
X5568Y-11377D01*
X5680Y-11321D01*
X5849Y-11321D01*
X5961Y-11377D01*
X6017Y-11490D01*
X6017Y-12109D01*
X6580Y-12109D02*
X6580Y-11321D01*
X6580Y-11434D02*
X6636Y-11377D01*
X6749Y-11321D01*
X6917Y-11321D01*
X7030Y-11377D01*
X7086Y-11490D01*
X7086Y-12109D01*
X7086Y-11490D02*
X7142Y-11377D01*
X7255Y-11321D01*
X7424Y-11321D01*
X7536Y-11377D01*
X7592Y-11490D01*
X7592Y-12109D01*
X9898Y-10871D02*
X8886Y-12390D01*
X11417Y-10928D02*
X11529Y-10928D01*
X11642Y-10984D01*
X11698Y-11040D01*
X11754Y-11152D01*
X11811Y-11377D01*
X11811Y-11659D01*
X11754Y-11884D01*
X11698Y-11996D01*
X11642Y-12052D01*
X11529Y-12109D01*
X11417Y-12109D01*
X11304Y-12052D01*
X11248Y-11996D01*
X11192Y-11884D01*
X11136Y-11659D01*
X11136Y-11377D01*
X11192Y-11152D01*
X11248Y-11040D01*
X11304Y-10984D01*
X11417Y-10928D01*
X12317Y-11996D02*
X12373Y-12052D01*
X12317Y-12109D01*
X12260Y-12052D01*
X12317Y-11996D01*
X12317Y-12109D01*
X13104Y-10928D02*
X13217Y-10928D01*
X13329Y-10984D01*
X13385Y-11040D01*
X13442Y-11152D01*
X13498Y-11377D01*
X13498Y-11659D01*
X13442Y-11884D01*
X13385Y-11996D01*
X13329Y-12052D01*
X13217Y-12109D01*
X13104Y-12109D01*
X12992Y-12052D01*
X12935Y-11996D01*
X12879Y-11884D01*
X12823Y-11659D01*
X12823Y-11377D01*
X12879Y-11152D01*
X12935Y-11040D01*
X12992Y-10984D01*
X13104Y-10928D01*
X14060Y-12109D02*
X14285Y-12109D01*
X14398Y-12052D01*
X14454Y-11996D01*
X14566Y-11827D01*
X14623Y-11602D01*
X14623Y-11152D01*
X14566Y-11040D01*
X14510Y-10984D01*
X14398Y-10928D01*
X14173Y-10928D01*
X14060Y-10984D01*
X14004Y-11040D01*
X13948Y-11152D01*
X13948Y-11434D01*
X14004Y-11546D01*
X14060Y-11602D01*
X14173Y-11659D01*
X14398Y-11659D01*
X14510Y-11602D01*
X14566Y-11546D01*
X14623Y-11434D01*
X15748Y-12109D02*
X15073Y-12109D01*
X15410Y-12109D02*
X15410Y-10928D01*
X15298Y-11096D01*
X15185Y-11209D01*
X15073Y-11265D01*
X16197Y-10928D02*
X16197Y-11152D01*
X16647Y-10928D02*
X16647Y-11152D01*
X18391Y-12559D02*
X18335Y-12502D01*
X18222Y-12334D01*
X18166Y-12221D01*
X18110Y-12052D01*
X18053Y-11771D01*
X18053Y-11546D01*
X18110Y-11265D01*
X18166Y-11096D01*
X18222Y-10984D01*
X18335Y-10815D01*
X18391Y-10759D01*
X18785Y-11040D02*
X18841Y-10984D01*
X18953Y-10928D01*
X19235Y-10928D01*
X19347Y-10984D01*
X19403Y-11040D01*
X19460Y-11152D01*
X19460Y-11265D01*
X19403Y-11434D01*
X18728Y-12109D01*
X19460Y-12109D01*
X20866Y-12109D02*
X20866Y-10928D01*
X21372Y-12109D02*
X21372Y-11490D01*
X21316Y-11377D01*
X21203Y-11321D01*
X21034Y-11321D01*
X20922Y-11377D01*
X20866Y-11434D01*
X22103Y-12109D02*
X21991Y-12052D01*
X21934Y-11996D01*
X21878Y-11884D01*
X21878Y-11546D01*
X21934Y-11434D01*
X21991Y-11377D01*
X22103Y-11321D01*
X22272Y-11321D01*
X22384Y-11377D01*
X22440Y-11434D01*
X22497Y-11546D01*
X22497Y-11884D01*
X22440Y-11996D01*
X22384Y-12052D01*
X22272Y-12109D01*
X22103Y-12109D01*
X23172Y-12109D02*
X23059Y-12052D01*
X23003Y-11940D01*
X23003Y-10928D01*
X24071Y-12052D02*
X23959Y-12109D01*
X23734Y-12109D01*
X23622Y-12052D01*
X23565Y-11940D01*
X23565Y-11490D01*
X23622Y-11377D01*
X23734Y-11321D01*
X23959Y-11321D01*
X24071Y-11377D01*
X24128Y-11490D01*
X24128Y-11602D01*
X23565Y-11715D01*
X24578Y-12052D02*
X24690Y-12109D01*
X24915Y-12109D01*
X25028Y-12052D01*
X25084Y-11940D01*
X25084Y-11884D01*
X25028Y-11771D01*
X24915Y-11715D01*
X24746Y-11715D01*
X24634Y-11659D01*
X24578Y-11546D01*
X24578Y-11490D01*
X24634Y-11377D01*
X24746Y-11321D01*
X24915Y-11321D01*
X25028Y-11377D01*
X25478Y-12559D02*
X25534Y-12502D01*
X25646Y-12334D01*
X25703Y-12221D01*
X25759Y-12052D01*
X25815Y-11771D01*
X25815Y-11546D01*
X25759Y-11265D01*
X25703Y-11096D01*
X25646Y-10984D01*
X25534Y-10815D01*
X25478Y-10759D01*
X-1200Y-12533D02*
X0Y-13733D01*
X0Y-12533D02*
X-1200Y-13733D01*
X-600Y-12533D02*
X-600Y-13733D01*
X-1200Y-13133D02*
X0Y-13133D01*
X956Y-12487D02*
X1687Y-12487D01*
X1293Y-12937D01*
X1462Y-12937D01*
X1574Y-12993D01*
X1631Y-13049D01*
X1687Y-13161D01*
X1687Y-13443D01*
X1631Y-13555D01*
X1574Y-13611D01*
X1462Y-13668D01*
X1124Y-13668D01*
X1012Y-13611D01*
X956Y-13555D01*
X2193Y-13555D02*
X2249Y-13611D01*
X2193Y-13668D01*
X2137Y-13611D01*
X2193Y-13555D01*
X2193Y-13668D01*
X2980Y-12487D02*
X3093Y-12487D01*
X3205Y-12543D01*
X3262Y-12599D01*
X3318Y-12712D01*
X3374Y-12937D01*
X3374Y-13218D01*
X3318Y-13443D01*
X3262Y-13555D01*
X3205Y-13611D01*
X3093Y-13668D01*
X2980Y-13668D01*
X2868Y-13611D01*
X2812Y-13555D01*
X2755Y-13443D01*
X2699Y-13218D01*
X2699Y-12937D01*
X2755Y-12712D01*
X2812Y-12599D01*
X2868Y-12543D01*
X2980Y-12487D01*
X4443Y-12487D02*
X3880Y-12487D01*
X3824Y-13049D01*
X3880Y-12993D01*
X3993Y-12937D01*
X4274Y-12937D01*
X4386Y-12993D01*
X4443Y-13049D01*
X4499Y-13161D01*
X4499Y-13443D01*
X4443Y-13555D01*
X4386Y-13611D01*
X4274Y-13668D01*
X3993Y-13668D01*
X3880Y-13611D01*
X3824Y-13555D01*
X5005Y-13668D02*
X5005Y-12880D01*
X5005Y-12993D02*
X5061Y-12937D01*
X5174Y-12880D01*
X5343Y-12880D01*
X5455Y-12937D01*
X5511Y-13049D01*
X5511Y-13668D01*
X5511Y-13049D02*
X5568Y-12937D01*
X5680Y-12880D01*
X5849Y-12880D01*
X5961Y-12937D01*
X6017Y-13049D01*
X6017Y-13668D01*
X6580Y-13668D02*
X6580Y-12880D01*
X6580Y-12993D02*
X6636Y-12937D01*
X6749Y-12880D01*
X6917Y-12880D01*
X7030Y-12937D01*
X7086Y-13049D01*
X7086Y-13668D01*
X7086Y-13049D02*
X7142Y-12937D01*
X7255Y-12880D01*
X7424Y-12880D01*
X7536Y-12937D01*
X7592Y-13049D01*
X7592Y-13668D01*
X9898Y-12430D02*
X8886Y-13949D01*
X11417Y-12487D02*
X11529Y-12487D01*
X11642Y-12543D01*
X11698Y-12599D01*
X11754Y-12712D01*
X11811Y-12937D01*
X11811Y-13218D01*
X11754Y-13443D01*
X11698Y-13555D01*
X11642Y-13611D01*
X11529Y-13668D01*
X11417Y-13668D01*
X11304Y-13611D01*
X11248Y-13555D01*
X11192Y-13443D01*
X11136Y-13218D01*
X11136Y-12937D01*
X11192Y-12712D01*
X11248Y-12599D01*
X11304Y-12543D01*
X11417Y-12487D01*
X12317Y-13555D02*
X12373Y-13611D01*
X12317Y-13668D01*
X12260Y-13611D01*
X12317Y-13555D01*
X12317Y-13668D01*
X13498Y-13668D02*
X12823Y-13668D01*
X13160Y-13668D02*
X13160Y-12487D01*
X13048Y-12655D01*
X12935Y-12768D01*
X12823Y-12824D01*
X13948Y-12599D02*
X14004Y-12543D01*
X14116Y-12487D01*
X14398Y-12487D01*
X14510Y-12543D01*
X14566Y-12599D01*
X14623Y-12712D01*
X14623Y-12824D01*
X14566Y-12993D01*
X13892Y-13668D01*
X14623Y-13668D01*
X15354Y-12487D02*
X15466Y-12487D01*
X15579Y-12543D01*
X15635Y-12599D01*
X15691Y-12712D01*
X15748Y-12937D01*
X15748Y-13218D01*
X15691Y-13443D01*
X15635Y-13555D01*
X15579Y-13611D01*
X15466Y-13668D01*
X15354Y-13668D01*
X15241Y-13611D01*
X15185Y-13555D01*
X15129Y-13443D01*
X15073Y-13218D01*
X15073Y-12937D01*
X15129Y-12712D01*
X15185Y-12599D01*
X15241Y-12543D01*
X15354Y-12487D01*
X16197Y-12487D02*
X16197Y-12712D01*
X16647Y-12487D02*
X16647Y-12712D01*
X18391Y-14118D02*
X18335Y-14061D01*
X18222Y-13893D01*
X18166Y-13780D01*
X18110Y-13611D01*
X18053Y-13330D01*
X18053Y-13105D01*
X18110Y-12824D01*
X18166Y-12655D01*
X18222Y-12543D01*
X18335Y-12374D01*
X18391Y-12318D01*
X19347Y-12880D02*
X19347Y-13668D01*
X19066Y-12430D02*
X18785Y-13274D01*
X19516Y-13274D01*
X20866Y-13668D02*
X20866Y-12487D01*
X21372Y-13668D02*
X21372Y-13049D01*
X21316Y-12937D01*
X21203Y-12880D01*
X21034Y-12880D01*
X20922Y-12937D01*
X20866Y-12993D01*
X22103Y-13668D02*
X21991Y-13611D01*
X21934Y-13555D01*
X21878Y-13443D01*
X21878Y-13105D01*
X21934Y-12993D01*
X21991Y-12937D01*
X22103Y-12880D01*
X22272Y-12880D01*
X22384Y-12937D01*
X22440Y-12993D01*
X22497Y-13105D01*
X22497Y-13443D01*
X22440Y-13555D01*
X22384Y-13611D01*
X22272Y-13668D01*
X22103Y-13668D01*
X23172Y-13668D02*
X23059Y-13611D01*
X23003Y-13499D01*
X23003Y-12487D01*
X24071Y-13611D02*
X23959Y-13668D01*
X23734Y-13668D01*
X23622Y-13611D01*
X23565Y-13499D01*
X23565Y-13049D01*
X23622Y-12937D01*
X23734Y-12880D01*
X23959Y-12880D01*
X24071Y-12937D01*
X24128Y-13049D01*
X24128Y-13161D01*
X23565Y-13274D01*
X24578Y-13611D02*
X24690Y-13668D01*
X24915Y-13668D01*
X25028Y-13611D01*
X25084Y-13499D01*
X25084Y-13443D01*
X25028Y-13330D01*
X24915Y-13274D01*
X24746Y-13274D01*
X24634Y-13218D01*
X24578Y-13105D01*
X24578Y-13049D01*
X24634Y-12937D01*
X24746Y-12880D01*
X24915Y-12880D01*
X25028Y-12937D01*
X25478Y-14118D02*
X25534Y-14061D01*
X25646Y-13893D01*
X25703Y-13780D01*
X25759Y-13611D01*
X25815Y-13330D01*
X25815Y-13105D01*
X25759Y-12824D01*
X25703Y-12655D01*
X25646Y-12543D01*
X25534Y-12374D01*
X25478Y-12318D01*
X-1378Y-14156D02*
X0Y-15534D01*
X0Y-14156D02*
X-1378Y-15534D01*
G54D11*
X-201Y-15332D02*
X-201Y-14358D01*
X-1176Y-14358D01*
X-1176Y-15332D01*
X-201Y-15332D01*
G54D12*
X956Y-14198D02*
X1687Y-14198D01*
X1293Y-14648D01*
X1462Y-14648D01*
X1574Y-14705D01*
X1631Y-14761D01*
X1687Y-14873D01*
X1687Y-15155D01*
X1631Y-15267D01*
X1574Y-15323D01*
X1462Y-15379D01*
X1124Y-15379D01*
X1012Y-15323D01*
X956Y-15267D01*
X2193Y-15267D02*
X2249Y-15323D01*
X2193Y-15379D01*
X2137Y-15323D01*
X2193Y-15267D01*
X2193Y-15379D01*
X3318Y-14198D02*
X2755Y-14198D01*
X2699Y-14761D01*
X2755Y-14705D01*
X2868Y-14648D01*
X3149Y-14648D01*
X3262Y-14705D01*
X3318Y-14761D01*
X3374Y-14873D01*
X3374Y-15155D01*
X3318Y-15267D01*
X3262Y-15323D01*
X3149Y-15379D01*
X2868Y-15379D01*
X2755Y-15323D01*
X2699Y-15267D01*
X4105Y-14198D02*
X4218Y-14198D01*
X4330Y-14255D01*
X4386Y-14311D01*
X4443Y-14423D01*
X4499Y-14648D01*
X4499Y-14930D01*
X4443Y-15155D01*
X4386Y-15267D01*
X4330Y-15323D01*
X4218Y-15379D01*
X4105Y-15379D01*
X3993Y-15323D01*
X3937Y-15267D01*
X3880Y-15155D01*
X3824Y-14930D01*
X3824Y-14648D01*
X3880Y-14423D01*
X3937Y-14311D01*
X3993Y-14255D01*
X4105Y-14198D01*
X5005Y-15379D02*
X5005Y-14592D01*
X5005Y-14705D02*
X5061Y-14648D01*
X5174Y-14592D01*
X5343Y-14592D01*
X5455Y-14648D01*
X5511Y-14761D01*
X5511Y-15379D01*
X5511Y-14761D02*
X5568Y-14648D01*
X5680Y-14592D01*
X5849Y-14592D01*
X5961Y-14648D01*
X6017Y-14761D01*
X6017Y-15379D01*
X6580Y-15379D02*
X6580Y-14592D01*
X6580Y-14705D02*
X6636Y-14648D01*
X6749Y-14592D01*
X6917Y-14592D01*
X7030Y-14648D01*
X7086Y-14761D01*
X7086Y-15379D01*
X7086Y-14761D02*
X7142Y-14648D01*
X7255Y-14592D01*
X7424Y-14592D01*
X7536Y-14648D01*
X7592Y-14761D01*
X7592Y-15379D01*
X9898Y-14142D02*
X8886Y-15661D01*
X11417Y-14198D02*
X11529Y-14198D01*
X11642Y-14255D01*
X11698Y-14311D01*
X11754Y-14423D01*
X11811Y-14648D01*
X11811Y-14930D01*
X11754Y-15155D01*
X11698Y-15267D01*
X11642Y-15323D01*
X11529Y-15379D01*
X11417Y-15379D01*
X11304Y-15323D01*
X11248Y-15267D01*
X11192Y-15155D01*
X11136Y-14930D01*
X11136Y-14648D01*
X11192Y-14423D01*
X11248Y-14311D01*
X11304Y-14255D01*
X11417Y-14198D01*
X12317Y-15267D02*
X12373Y-15323D01*
X12317Y-15379D01*
X12260Y-15323D01*
X12317Y-15267D01*
X12317Y-15379D01*
X13498Y-15379D02*
X12823Y-15379D01*
X13160Y-15379D02*
X13160Y-14198D01*
X13048Y-14367D01*
X12935Y-14480D01*
X12823Y-14536D01*
X13892Y-14198D02*
X14623Y-14198D01*
X14229Y-14648D01*
X14398Y-14648D01*
X14510Y-14705D01*
X14566Y-14761D01*
X14623Y-14873D01*
X14623Y-15155D01*
X14566Y-15267D01*
X14510Y-15323D01*
X14398Y-15379D01*
X14060Y-15379D01*
X13948Y-15323D01*
X13892Y-15267D01*
X15298Y-14705D02*
X15185Y-14648D01*
X15129Y-14592D01*
X15073Y-14480D01*
X15073Y-14423D01*
X15129Y-14311D01*
X15185Y-14255D01*
X15298Y-14198D01*
X15523Y-14198D01*
X15635Y-14255D01*
X15691Y-14311D01*
X15748Y-14423D01*
X15748Y-14480D01*
X15691Y-14592D01*
X15635Y-14648D01*
X15523Y-14705D01*
X15298Y-14705D01*
X15185Y-14761D01*
X15129Y-14817D01*
X15073Y-14930D01*
X15073Y-15155D01*
X15129Y-15267D01*
X15185Y-15323D01*
X15298Y-15379D01*
X15523Y-15379D01*
X15635Y-15323D01*
X15691Y-15267D01*
X15748Y-15155D01*
X15748Y-14930D01*
X15691Y-14817D01*
X15635Y-14761D01*
X15523Y-14705D01*
X16197Y-14198D02*
X16197Y-14423D01*
X16647Y-14198D02*
X16647Y-14423D01*
X18391Y-15829D02*
X18335Y-15773D01*
X18222Y-15604D01*
X18166Y-15492D01*
X18110Y-15323D01*
X18053Y-15042D01*
X18053Y-14817D01*
X18110Y-14536D01*
X18166Y-14367D01*
X18222Y-14255D01*
X18335Y-14086D01*
X18391Y-14030D01*
X19347Y-14592D02*
X19347Y-15379D01*
X19066Y-14142D02*
X18785Y-14986D01*
X19516Y-14986D01*
X20866Y-15379D02*
X20866Y-14198D01*
X21372Y-15379D02*
X21372Y-14761D01*
X21316Y-14648D01*
X21203Y-14592D01*
X21034Y-14592D01*
X20922Y-14648D01*
X20866Y-14705D01*
X22103Y-15379D02*
X21991Y-15323D01*
X21934Y-15267D01*
X21878Y-15155D01*
X21878Y-14817D01*
X21934Y-14705D01*
X21991Y-14648D01*
X22103Y-14592D01*
X22272Y-14592D01*
X22384Y-14648D01*
X22440Y-14705D01*
X22497Y-14817D01*
X22497Y-15155D01*
X22440Y-15267D01*
X22384Y-15323D01*
X22272Y-15379D01*
X22103Y-15379D01*
X23172Y-15379D02*
X23059Y-15323D01*
X23003Y-15211D01*
X23003Y-14198D01*
X24071Y-15323D02*
X23959Y-15379D01*
X23734Y-15379D01*
X23622Y-15323D01*
X23565Y-15211D01*
X23565Y-14761D01*
X23622Y-14648D01*
X23734Y-14592D01*
X23959Y-14592D01*
X24071Y-14648D01*
X24128Y-14761D01*
X24128Y-14873D01*
X23565Y-14986D01*
X24578Y-15323D02*
X24690Y-15379D01*
X24915Y-15379D01*
X25028Y-15323D01*
X25084Y-15211D01*
X25084Y-15155D01*
X25028Y-15042D01*
X24915Y-14986D01*
X24746Y-14986D01*
X24634Y-14930D01*
X24578Y-14817D01*
X24578Y-14761D01*
X24634Y-14648D01*
X24746Y-14592D01*
X24915Y-14592D01*
X25028Y-14648D01*
X25478Y-15829D02*
X25534Y-15773D01*
X25646Y-15604D01*
X25703Y-15492D01*
X25759Y-15323D01*
X25815Y-15042D01*
X25815Y-14817D01*
X25759Y-14536D01*
X25703Y-14367D01*
X25646Y-14255D01*
X25534Y-14086D01*
X25478Y-14030D01*
M02*
