G04 (created by PCBNEW (2013-mar-13)-testing) date Tue 18 Jun 2013 00:00:13 ART*
%MOIN*%
G04 Gerber Fmt 3.4, Leading zero omitted, Abs format*
%FSLAX34Y34*%
G01*
G70*
G90*
G04 APERTURE LIST*
%ADD10C,0.005906*%
%ADD11C,0.012000*%
%ADD12C,0.068900*%
%ADD13R,0.035000X0.055000*%
%ADD14C,0.137800*%
%ADD15O,0.060000X0.086600*%
%ADD16R,0.060000X0.078700*%
%ADD17O,0.060000X0.078700*%
%ADD18R,0.055000X0.055000*%
%ADD19C,0.055000*%
%ADD20C,0.160000*%
%ADD21C,0.059100*%
%ADD22C,0.035000*%
%ADD23C,0.039400*%
%ADD24C,0.015700*%
%ADD25C,0.025000*%
G04 APERTURE END LIST*
G54D10*
G54D11*
X93457Y-30957D02*
X93657Y-30957D01*
X93657Y-31271D02*
X93657Y-30671D01*
X93371Y-30671D01*
X92885Y-31271D02*
X92885Y-30957D01*
X92914Y-30900D01*
X92971Y-30871D01*
X93085Y-30871D01*
X93142Y-30900D01*
X92885Y-31242D02*
X92942Y-31271D01*
X93085Y-31271D01*
X93142Y-31242D01*
X93171Y-31185D01*
X93171Y-31128D01*
X93142Y-31071D01*
X93085Y-31042D01*
X92942Y-31042D01*
X92885Y-31014D01*
X92342Y-31242D02*
X92400Y-31271D01*
X92514Y-31271D01*
X92571Y-31242D01*
X92600Y-31214D01*
X92628Y-31157D01*
X92628Y-30985D01*
X92600Y-30928D01*
X92571Y-30900D01*
X92514Y-30871D01*
X92400Y-30871D01*
X92342Y-30900D01*
X91828Y-30871D02*
X91828Y-31271D01*
X92085Y-30871D02*
X92085Y-31185D01*
X92057Y-31242D01*
X92000Y-31271D01*
X91914Y-31271D01*
X91857Y-31242D01*
X91828Y-31214D01*
X91542Y-30871D02*
X91542Y-31271D01*
X91542Y-30928D02*
X91514Y-30900D01*
X91457Y-30871D01*
X91371Y-30871D01*
X91314Y-30900D01*
X91285Y-30957D01*
X91285Y-31271D01*
X90742Y-31271D02*
X90742Y-30671D01*
X90742Y-31242D02*
X90800Y-31271D01*
X90914Y-31271D01*
X90971Y-31242D01*
X91000Y-31214D01*
X91028Y-31157D01*
X91028Y-30985D01*
X91000Y-30928D01*
X90971Y-30900D01*
X90914Y-30871D01*
X90800Y-30871D01*
X90742Y-30900D01*
X90371Y-31271D02*
X90428Y-31242D01*
X90457Y-31214D01*
X90485Y-31157D01*
X90485Y-30985D01*
X90457Y-30928D01*
X90428Y-30900D01*
X90371Y-30871D01*
X90285Y-30871D01*
X90228Y-30900D01*
X90200Y-30928D01*
X90171Y-30985D01*
X90171Y-31157D01*
X90200Y-31214D01*
X90228Y-31242D01*
X90285Y-31271D01*
X90371Y-31271D01*
X89457Y-31271D02*
X89457Y-30671D01*
X89114Y-31271D01*
X89114Y-30671D01*
X88571Y-31271D02*
X88571Y-30957D01*
X88600Y-30900D01*
X88657Y-30871D01*
X88771Y-30871D01*
X88828Y-30900D01*
X88571Y-31242D02*
X88628Y-31271D01*
X88771Y-31271D01*
X88828Y-31242D01*
X88857Y-31185D01*
X88857Y-31128D01*
X88828Y-31071D01*
X88771Y-31042D01*
X88628Y-31042D01*
X88571Y-31014D01*
X88285Y-31271D02*
X88285Y-30671D01*
X88028Y-31271D02*
X88028Y-30957D01*
X88057Y-30900D01*
X88114Y-30871D01*
X88200Y-30871D01*
X88257Y-30900D01*
X88285Y-30928D01*
X87485Y-30871D02*
X87485Y-31271D01*
X87742Y-30871D02*
X87742Y-31185D01*
X87714Y-31242D01*
X87657Y-31271D01*
X87571Y-31271D01*
X87514Y-31242D01*
X87485Y-31214D01*
X86971Y-31242D02*
X87028Y-31271D01*
X87142Y-31271D01*
X87200Y-31242D01*
X87228Y-31185D01*
X87228Y-30957D01*
X87200Y-30900D01*
X87142Y-30871D01*
X87028Y-30871D01*
X86971Y-30900D01*
X86942Y-30957D01*
X86942Y-31014D01*
X87228Y-31071D01*
X86600Y-31271D02*
X86657Y-31242D01*
X86685Y-31185D01*
X86685Y-30671D01*
X85914Y-30671D02*
X85914Y-31157D01*
X85885Y-31214D01*
X85857Y-31242D01*
X85800Y-31271D01*
X85685Y-31271D01*
X85628Y-31242D01*
X85600Y-31214D01*
X85571Y-31157D01*
X85571Y-30671D01*
X85285Y-31271D02*
X85285Y-30871D01*
X85285Y-30985D02*
X85257Y-30928D01*
X85228Y-30900D01*
X85171Y-30871D01*
X85114Y-30871D01*
X84914Y-31271D02*
X84914Y-30871D01*
X84914Y-30671D02*
X84942Y-30700D01*
X84914Y-30728D01*
X84885Y-30700D01*
X84914Y-30671D01*
X84914Y-30728D01*
X84400Y-31242D02*
X84457Y-31271D01*
X84571Y-31271D01*
X84628Y-31242D01*
X84657Y-31185D01*
X84657Y-30957D01*
X84628Y-30900D01*
X84571Y-30871D01*
X84457Y-30871D01*
X84400Y-30900D01*
X84371Y-30957D01*
X84371Y-31014D01*
X84657Y-31071D01*
X84028Y-31271D02*
X84085Y-31242D01*
X84114Y-31185D01*
X84114Y-30671D01*
X83371Y-31242D02*
X83285Y-31271D01*
X83142Y-31271D01*
X83085Y-31242D01*
X83057Y-31214D01*
X83028Y-31157D01*
X83028Y-31100D01*
X83057Y-31042D01*
X83085Y-31014D01*
X83142Y-30985D01*
X83257Y-30957D01*
X83314Y-30928D01*
X83342Y-30900D01*
X83371Y-30842D01*
X83371Y-30785D01*
X83342Y-30728D01*
X83314Y-30700D01*
X83257Y-30671D01*
X83114Y-30671D01*
X83028Y-30700D01*
X82771Y-31271D02*
X82771Y-30871D01*
X82771Y-30671D02*
X82799Y-30700D01*
X82771Y-30728D01*
X82742Y-30700D01*
X82771Y-30671D01*
X82771Y-30728D01*
X82400Y-31271D02*
X82457Y-31242D01*
X82485Y-31185D01*
X82485Y-30671D01*
X82228Y-30871D02*
X82085Y-31271D01*
X81942Y-30871D01*
X81457Y-31271D02*
X81457Y-30957D01*
X81485Y-30900D01*
X81542Y-30871D01*
X81657Y-30871D01*
X81714Y-30900D01*
X81457Y-31242D02*
X81514Y-31271D01*
X81657Y-31271D01*
X81714Y-31242D01*
X81742Y-31185D01*
X81742Y-31128D01*
X81714Y-31071D01*
X81657Y-31042D01*
X81514Y-31042D01*
X81457Y-31014D01*
X80799Y-30871D02*
X80571Y-30871D01*
X80714Y-31271D02*
X80714Y-30757D01*
X80685Y-30700D01*
X80628Y-30671D01*
X80571Y-30671D01*
X80114Y-31271D02*
X80114Y-30957D01*
X80142Y-30900D01*
X80199Y-30871D01*
X80314Y-30871D01*
X80371Y-30900D01*
X80114Y-31242D02*
X80171Y-31271D01*
X80314Y-31271D01*
X80371Y-31242D01*
X80399Y-31185D01*
X80399Y-31128D01*
X80371Y-31071D01*
X80314Y-31042D01*
X80171Y-31042D01*
X80114Y-31014D01*
X79828Y-30871D02*
X79828Y-31271D01*
X79828Y-30928D02*
X79799Y-30900D01*
X79742Y-30871D01*
X79657Y-30871D01*
X79599Y-30900D01*
X79571Y-30957D01*
X79571Y-31271D01*
X79028Y-31271D02*
X79028Y-30957D01*
X79057Y-30900D01*
X79114Y-30871D01*
X79228Y-30871D01*
X79285Y-30900D01*
X79028Y-31242D02*
X79085Y-31271D01*
X79228Y-31271D01*
X79285Y-31242D01*
X79314Y-31185D01*
X79314Y-31128D01*
X79285Y-31071D01*
X79228Y-31042D01*
X79085Y-31042D01*
X79028Y-31014D01*
X78485Y-30871D02*
X78485Y-31271D01*
X78742Y-30871D02*
X78742Y-31185D01*
X78714Y-31242D01*
X78657Y-31271D01*
X78571Y-31271D01*
X78514Y-31242D01*
X78485Y-31214D01*
X78200Y-31271D02*
X78200Y-30871D01*
X78200Y-30985D02*
X78171Y-30928D01*
X78142Y-30900D01*
X78085Y-30871D01*
X78028Y-30871D01*
X77457Y-30985D02*
X77485Y-30957D01*
X77542Y-30928D01*
X77599Y-30928D01*
X77657Y-30957D01*
X77685Y-30985D01*
X77714Y-31042D01*
X77714Y-31100D01*
X77685Y-31157D01*
X77657Y-31185D01*
X77599Y-31214D01*
X77542Y-31214D01*
X77485Y-31185D01*
X77457Y-31157D01*
X77457Y-30928D02*
X77457Y-31157D01*
X77428Y-31185D01*
X77399Y-31185D01*
X77342Y-31157D01*
X77314Y-31100D01*
X77314Y-30957D01*
X77371Y-30871D01*
X77457Y-30814D01*
X77571Y-30785D01*
X77685Y-30814D01*
X77771Y-30871D01*
X77828Y-30957D01*
X77857Y-31071D01*
X77828Y-31185D01*
X77771Y-31271D01*
X77685Y-31328D01*
X77571Y-31357D01*
X77457Y-31328D01*
X77371Y-31271D01*
X76799Y-30871D02*
X76799Y-31357D01*
X76828Y-31414D01*
X76857Y-31442D01*
X76914Y-31471D01*
X76999Y-31471D01*
X77057Y-31442D01*
X76799Y-31242D02*
X76857Y-31271D01*
X76971Y-31271D01*
X77028Y-31242D01*
X77057Y-31214D01*
X77085Y-31157D01*
X77085Y-30985D01*
X77057Y-30928D01*
X77028Y-30900D01*
X76971Y-30871D01*
X76857Y-30871D01*
X76799Y-30900D01*
X76514Y-31271D02*
X76514Y-30871D01*
X76514Y-30928D02*
X76485Y-30900D01*
X76428Y-30871D01*
X76342Y-30871D01*
X76285Y-30900D01*
X76257Y-30957D01*
X76257Y-31271D01*
X76257Y-30957D02*
X76228Y-30900D01*
X76171Y-30871D01*
X76085Y-30871D01*
X76028Y-30900D01*
X75999Y-30957D01*
X75999Y-31271D01*
X75457Y-31271D02*
X75457Y-30957D01*
X75485Y-30900D01*
X75542Y-30871D01*
X75657Y-30871D01*
X75714Y-30900D01*
X75457Y-31242D02*
X75514Y-31271D01*
X75657Y-31271D01*
X75714Y-31242D01*
X75742Y-31185D01*
X75742Y-31128D01*
X75714Y-31071D01*
X75657Y-31042D01*
X75514Y-31042D01*
X75457Y-31014D01*
X75171Y-31271D02*
X75171Y-30871D01*
X75171Y-30671D02*
X75199Y-30700D01*
X75171Y-30728D01*
X75142Y-30700D01*
X75171Y-30671D01*
X75171Y-30728D01*
X74800Y-31271D02*
X74857Y-31242D01*
X74885Y-31185D01*
X74885Y-30671D01*
X74571Y-31214D02*
X74542Y-31242D01*
X74571Y-31271D01*
X74599Y-31242D01*
X74571Y-31214D01*
X74571Y-31271D01*
X74028Y-31242D02*
X74085Y-31271D01*
X74200Y-31271D01*
X74257Y-31242D01*
X74285Y-31214D01*
X74314Y-31157D01*
X74314Y-30985D01*
X74285Y-30928D01*
X74257Y-30900D01*
X74200Y-30871D01*
X74085Y-30871D01*
X74028Y-30900D01*
X73685Y-31271D02*
X73742Y-31242D01*
X73771Y-31214D01*
X73799Y-31157D01*
X73799Y-30985D01*
X73771Y-30928D01*
X73742Y-30900D01*
X73685Y-30871D01*
X73599Y-30871D01*
X73542Y-30900D01*
X73514Y-30928D01*
X73485Y-30985D01*
X73485Y-31157D01*
X73514Y-31214D01*
X73542Y-31242D01*
X73599Y-31271D01*
X73685Y-31271D01*
X73228Y-31271D02*
X73228Y-30871D01*
X73228Y-30928D02*
X73199Y-30900D01*
X73142Y-30871D01*
X73057Y-30871D01*
X72999Y-30900D01*
X72971Y-30957D01*
X72971Y-31271D01*
X72971Y-30957D02*
X72942Y-30900D01*
X72885Y-30871D01*
X72799Y-30871D01*
X72742Y-30900D01*
X72714Y-30957D01*
X72714Y-31271D01*
X93657Y-31917D02*
X93457Y-31917D01*
X93371Y-32231D02*
X93657Y-32231D01*
X93657Y-31631D01*
X93371Y-31631D01*
X93142Y-32202D02*
X93085Y-32231D01*
X92971Y-32231D01*
X92914Y-32202D01*
X92885Y-32145D01*
X92885Y-32117D01*
X92914Y-32060D01*
X92971Y-32031D01*
X93057Y-32031D01*
X93114Y-32002D01*
X93142Y-31945D01*
X93142Y-31917D01*
X93114Y-31860D01*
X93057Y-31831D01*
X92971Y-31831D01*
X92914Y-31860D01*
X92714Y-31831D02*
X92485Y-31831D01*
X92628Y-31631D02*
X92628Y-32145D01*
X92600Y-32202D01*
X92542Y-32231D01*
X92485Y-32231D01*
X92028Y-32231D02*
X92028Y-31917D01*
X92057Y-31860D01*
X92114Y-31831D01*
X92228Y-31831D01*
X92285Y-31860D01*
X92028Y-32202D02*
X92085Y-32231D01*
X92228Y-32231D01*
X92285Y-32202D01*
X92314Y-32145D01*
X92314Y-32088D01*
X92285Y-32031D01*
X92228Y-32002D01*
X92085Y-32002D01*
X92028Y-31974D01*
X91742Y-31831D02*
X91742Y-32231D01*
X91742Y-31888D02*
X91714Y-31860D01*
X91657Y-31831D01*
X91571Y-31831D01*
X91514Y-31860D01*
X91485Y-31917D01*
X91485Y-32231D01*
X91200Y-32231D02*
X91200Y-31831D01*
X91200Y-31631D02*
X91228Y-31660D01*
X91200Y-31688D01*
X91171Y-31660D01*
X91200Y-31631D01*
X91200Y-31688D01*
X90942Y-32202D02*
X90885Y-32231D01*
X90771Y-32231D01*
X90714Y-32202D01*
X90685Y-32145D01*
X90685Y-32117D01*
X90714Y-32060D01*
X90771Y-32031D01*
X90857Y-32031D01*
X90914Y-32002D01*
X90942Y-31945D01*
X90942Y-31917D01*
X90914Y-31860D01*
X90857Y-31831D01*
X90771Y-31831D01*
X90714Y-31860D01*
X90342Y-32231D02*
X90400Y-32202D01*
X90428Y-32145D01*
X90428Y-31631D01*
X89857Y-32231D02*
X89857Y-31917D01*
X89885Y-31860D01*
X89942Y-31831D01*
X90057Y-31831D01*
X90114Y-31860D01*
X89857Y-32202D02*
X89914Y-32231D01*
X90057Y-32231D01*
X90114Y-32202D01*
X90142Y-32145D01*
X90142Y-32088D01*
X90114Y-32031D01*
X90057Y-32002D01*
X89914Y-32002D01*
X89857Y-31974D01*
X89485Y-32231D02*
X89542Y-32202D01*
X89571Y-32174D01*
X89600Y-32117D01*
X89600Y-31945D01*
X89571Y-31888D01*
X89542Y-31860D01*
X89485Y-31831D01*
X89400Y-31831D01*
X89342Y-31860D01*
X89314Y-31888D01*
X89285Y-31945D01*
X89285Y-32117D01*
X89314Y-32174D01*
X89342Y-32202D01*
X89400Y-32231D01*
X89485Y-32231D01*
X88285Y-32231D02*
X88571Y-32231D01*
X88571Y-31631D01*
X88000Y-32231D02*
X88057Y-32202D01*
X88085Y-32174D01*
X88114Y-32117D01*
X88114Y-31945D01*
X88085Y-31888D01*
X88057Y-31860D01*
X88000Y-31831D01*
X87914Y-31831D01*
X87857Y-31860D01*
X87828Y-31888D01*
X87800Y-31945D01*
X87800Y-32117D01*
X87828Y-32174D01*
X87857Y-32202D01*
X87914Y-32231D01*
X88000Y-32231D01*
X87885Y-31602D02*
X87971Y-31688D01*
X87542Y-31831D02*
X87542Y-32431D01*
X87542Y-31860D02*
X87485Y-31831D01*
X87371Y-31831D01*
X87314Y-31860D01*
X87285Y-31888D01*
X87257Y-31945D01*
X87257Y-32117D01*
X87285Y-32174D01*
X87314Y-32202D01*
X87371Y-32231D01*
X87485Y-32231D01*
X87542Y-32202D01*
X86771Y-32202D02*
X86828Y-32231D01*
X86942Y-32231D01*
X87000Y-32202D01*
X87028Y-32145D01*
X87028Y-31917D01*
X87000Y-31860D01*
X86942Y-31831D01*
X86828Y-31831D01*
X86771Y-31860D01*
X86742Y-31917D01*
X86742Y-31974D01*
X87028Y-32031D01*
X86542Y-31831D02*
X86228Y-31831D01*
X86542Y-32231D01*
X86228Y-32231D01*
X85542Y-32231D02*
X85542Y-31631D01*
X85342Y-32060D01*
X85142Y-31631D01*
X85142Y-32231D01*
X84771Y-32231D02*
X84828Y-32202D01*
X84857Y-32174D01*
X84885Y-32117D01*
X84885Y-31945D01*
X84857Y-31888D01*
X84828Y-31860D01*
X84771Y-31831D01*
X84685Y-31831D01*
X84628Y-31860D01*
X84600Y-31888D01*
X84571Y-31945D01*
X84571Y-32117D01*
X84600Y-32174D01*
X84628Y-32202D01*
X84685Y-32231D01*
X84771Y-32231D01*
X84314Y-32231D02*
X84314Y-31831D01*
X84314Y-31945D02*
X84285Y-31888D01*
X84257Y-31860D01*
X84200Y-31831D01*
X84142Y-31831D01*
X83685Y-31831D02*
X83685Y-32317D01*
X83714Y-32374D01*
X83742Y-32402D01*
X83800Y-32431D01*
X83885Y-32431D01*
X83942Y-32402D01*
X83685Y-32202D02*
X83742Y-32231D01*
X83857Y-32231D01*
X83914Y-32202D01*
X83942Y-32174D01*
X83971Y-32117D01*
X83971Y-31945D01*
X83942Y-31888D01*
X83914Y-31860D01*
X83857Y-31831D01*
X83742Y-31831D01*
X83685Y-31860D01*
X83142Y-32231D02*
X83142Y-31917D01*
X83171Y-31860D01*
X83228Y-31831D01*
X83342Y-31831D01*
X83400Y-31860D01*
X83142Y-32202D02*
X83200Y-32231D01*
X83342Y-32231D01*
X83400Y-32202D01*
X83428Y-32145D01*
X83428Y-32088D01*
X83400Y-32031D01*
X83342Y-32002D01*
X83200Y-32002D01*
X83142Y-31974D01*
X82857Y-31831D02*
X82857Y-32231D01*
X82857Y-31888D02*
X82828Y-31860D01*
X82771Y-31831D01*
X82685Y-31831D01*
X82628Y-31860D01*
X82600Y-31917D01*
X82600Y-32231D01*
X80714Y-32202D02*
X80771Y-32231D01*
X80885Y-32231D01*
X80942Y-32202D01*
X80971Y-32145D01*
X80971Y-31917D01*
X80942Y-31860D01*
X80885Y-31831D01*
X80771Y-31831D01*
X80714Y-31860D01*
X80685Y-31917D01*
X80685Y-31974D01*
X80971Y-32031D01*
X80457Y-32202D02*
X80400Y-32231D01*
X80285Y-32231D01*
X80228Y-32202D01*
X80200Y-32145D01*
X80200Y-32117D01*
X80228Y-32060D01*
X80285Y-32031D01*
X80371Y-32031D01*
X80428Y-32002D01*
X80457Y-31945D01*
X80457Y-31917D01*
X80428Y-31860D01*
X80371Y-31831D01*
X80285Y-31831D01*
X80228Y-31860D01*
X80028Y-31831D02*
X79800Y-31831D01*
X79942Y-31631D02*
X79942Y-32145D01*
X79914Y-32202D01*
X79857Y-32231D01*
X79800Y-32231D01*
X79342Y-32231D02*
X79342Y-31917D01*
X79371Y-31860D01*
X79428Y-31831D01*
X79542Y-31831D01*
X79600Y-31860D01*
X79342Y-32202D02*
X79400Y-32231D01*
X79542Y-32231D01*
X79600Y-32202D01*
X79628Y-32145D01*
X79628Y-32088D01*
X79600Y-32031D01*
X79542Y-32002D01*
X79400Y-32002D01*
X79342Y-31974D01*
X79057Y-31831D02*
X79057Y-32231D01*
X79057Y-31888D02*
X79028Y-31860D01*
X78971Y-31831D01*
X78885Y-31831D01*
X78828Y-31860D01*
X78800Y-31917D01*
X78800Y-32231D01*
X78257Y-31831D02*
X78257Y-32231D01*
X78514Y-31831D02*
X78514Y-32145D01*
X78485Y-32202D01*
X78428Y-32231D01*
X78342Y-32231D01*
X78285Y-32202D01*
X78257Y-32174D01*
X78028Y-32231D02*
X77714Y-31831D01*
X78028Y-31831D02*
X77714Y-32231D01*
X77114Y-31945D02*
X77142Y-31917D01*
X77200Y-31888D01*
X77257Y-31888D01*
X77314Y-31917D01*
X77342Y-31945D01*
X77371Y-32002D01*
X77371Y-32060D01*
X77342Y-32117D01*
X77314Y-32145D01*
X77257Y-32174D01*
X77200Y-32174D01*
X77142Y-32145D01*
X77114Y-32117D01*
X77114Y-31888D02*
X77114Y-32117D01*
X77085Y-32145D01*
X77057Y-32145D01*
X77000Y-32117D01*
X76971Y-32060D01*
X76971Y-31917D01*
X77028Y-31831D01*
X77114Y-31774D01*
X77228Y-31745D01*
X77342Y-31774D01*
X77428Y-31831D01*
X77485Y-31917D01*
X77514Y-32031D01*
X77485Y-32145D01*
X77428Y-32231D01*
X77342Y-32288D01*
X77228Y-32317D01*
X77114Y-32288D01*
X77028Y-32231D01*
X76457Y-31831D02*
X76457Y-32317D01*
X76485Y-32374D01*
X76514Y-32402D01*
X76571Y-32431D01*
X76657Y-32431D01*
X76714Y-32402D01*
X76457Y-32202D02*
X76514Y-32231D01*
X76628Y-32231D01*
X76685Y-32202D01*
X76714Y-32174D01*
X76742Y-32117D01*
X76742Y-31945D01*
X76714Y-31888D01*
X76685Y-31860D01*
X76628Y-31831D01*
X76514Y-31831D01*
X76457Y-31860D01*
X76171Y-32231D02*
X76171Y-31831D01*
X76171Y-31888D02*
X76142Y-31860D01*
X76085Y-31831D01*
X76000Y-31831D01*
X75942Y-31860D01*
X75914Y-31917D01*
X75914Y-32231D01*
X75914Y-31917D02*
X75885Y-31860D01*
X75828Y-31831D01*
X75742Y-31831D01*
X75685Y-31860D01*
X75657Y-31917D01*
X75657Y-32231D01*
X75114Y-32231D02*
X75114Y-31917D01*
X75142Y-31860D01*
X75200Y-31831D01*
X75314Y-31831D01*
X75371Y-31860D01*
X75114Y-32202D02*
X75171Y-32231D01*
X75314Y-32231D01*
X75371Y-32202D01*
X75400Y-32145D01*
X75400Y-32088D01*
X75371Y-32031D01*
X75314Y-32002D01*
X75171Y-32002D01*
X75114Y-31974D01*
X74828Y-32231D02*
X74828Y-31831D01*
X74828Y-31631D02*
X74857Y-31660D01*
X74828Y-31688D01*
X74800Y-31660D01*
X74828Y-31631D01*
X74828Y-31688D01*
X74457Y-32231D02*
X74514Y-32202D01*
X74542Y-32145D01*
X74542Y-31631D01*
X74228Y-32174D02*
X74200Y-32202D01*
X74228Y-32231D01*
X74257Y-32202D01*
X74228Y-32174D01*
X74228Y-32231D01*
X73685Y-32202D02*
X73742Y-32231D01*
X73857Y-32231D01*
X73914Y-32202D01*
X73942Y-32174D01*
X73971Y-32117D01*
X73971Y-31945D01*
X73942Y-31888D01*
X73914Y-31860D01*
X73857Y-31831D01*
X73742Y-31831D01*
X73685Y-31860D01*
X73342Y-32231D02*
X73400Y-32202D01*
X73428Y-32174D01*
X73457Y-32117D01*
X73457Y-31945D01*
X73428Y-31888D01*
X73400Y-31860D01*
X73342Y-31831D01*
X73257Y-31831D01*
X73200Y-31860D01*
X73171Y-31888D01*
X73142Y-31945D01*
X73142Y-32117D01*
X73171Y-32174D01*
X73200Y-32202D01*
X73257Y-32231D01*
X73342Y-32231D01*
X72885Y-32231D02*
X72885Y-31831D01*
X72885Y-31888D02*
X72857Y-31860D01*
X72800Y-31831D01*
X72714Y-31831D01*
X72657Y-31860D01*
X72628Y-31917D01*
X72628Y-32231D01*
X72628Y-31917D02*
X72600Y-31860D01*
X72542Y-31831D01*
X72457Y-31831D01*
X72400Y-31860D01*
X72371Y-31917D01*
X72371Y-32231D01*
G54D12*
X93584Y-48516D03*
X92600Y-50484D03*
X91616Y-48516D03*
G54D13*
X95375Y-50300D03*
X96125Y-50300D03*
G54D14*
X66327Y-18705D03*
X100973Y-18705D03*
X100973Y-44295D03*
X66327Y-44295D03*
G54D15*
X90839Y-44295D03*
X89839Y-44295D03*
X88839Y-44295D03*
X87839Y-44295D03*
X86839Y-44295D03*
X85839Y-44295D03*
X84839Y-44295D03*
X83839Y-44295D03*
X82839Y-44295D03*
X81839Y-44295D03*
X80839Y-44295D03*
X79839Y-44295D03*
X78839Y-44295D03*
X77839Y-44295D03*
X76839Y-44295D03*
X75839Y-44295D03*
X74839Y-44295D03*
X73839Y-44295D03*
X72839Y-44295D03*
X71839Y-44295D03*
G54D16*
X76600Y-50097D03*
G54D17*
X76600Y-48903D03*
X77600Y-50097D03*
X77600Y-48903D03*
X78600Y-50097D03*
X78600Y-48903D03*
X79600Y-50097D03*
X79600Y-48903D03*
X80600Y-50097D03*
X80600Y-48903D03*
X81600Y-50097D03*
X81600Y-48903D03*
X82600Y-50097D03*
X82600Y-48903D03*
X83600Y-50097D03*
X83600Y-48903D03*
X84600Y-50097D03*
X84600Y-48903D03*
X85600Y-50097D03*
X85600Y-48903D03*
G54D18*
X96300Y-48550D03*
G54D19*
X95300Y-48550D03*
G54D20*
X64300Y-15600D03*
X101800Y-15600D03*
X101800Y-54600D03*
X64300Y-54600D03*
G54D21*
X99530Y-50160D03*
X99530Y-49180D03*
X98740Y-49180D03*
X98740Y-50160D03*
G54D14*
X100600Y-52040D03*
X100600Y-47300D03*
G54D22*
X89507Y-45836D03*
X85846Y-47175D03*
X90570Y-46141D03*
X86053Y-48179D03*
X83080Y-47253D03*
X83700Y-46053D03*
X97549Y-49488D03*
X96879Y-53690D03*
X75403Y-45807D03*
X84468Y-50915D03*
G54D23*
X76600Y-50000D02*
X76200Y-50000D01*
X72839Y-44939D02*
X72839Y-44295D01*
X73500Y-45600D02*
X72839Y-44939D01*
X74400Y-45600D02*
X73500Y-45600D01*
X75700Y-46900D02*
X74400Y-45600D01*
X75700Y-49500D02*
X75700Y-46900D01*
X76200Y-50000D02*
X75700Y-49500D01*
X72839Y-44295D02*
X72839Y-43811D01*
X87839Y-43789D02*
X87839Y-44295D01*
X86750Y-42700D02*
X87839Y-43789D01*
X73950Y-42700D02*
X86750Y-42700D01*
X72839Y-43811D02*
X73950Y-42700D01*
X84600Y-49000D02*
X84600Y-48618D01*
X89839Y-45505D02*
X89839Y-44295D01*
X89507Y-45836D02*
X89839Y-45505D01*
X85846Y-47372D02*
X85846Y-47175D01*
X84600Y-48618D02*
X85846Y-47372D01*
X85600Y-49000D02*
X85600Y-48632D01*
X90839Y-45873D02*
X90839Y-44295D01*
X90570Y-46141D02*
X90839Y-45873D01*
X85600Y-48632D02*
X86053Y-48179D01*
X82839Y-44295D02*
X82839Y-46126D01*
X83600Y-46887D02*
X83600Y-49000D01*
X82839Y-46126D02*
X83600Y-46887D01*
X81839Y-44295D02*
X81839Y-46947D01*
X82600Y-47708D02*
X82600Y-49000D01*
X81839Y-46947D02*
X82600Y-47708D01*
X80839Y-44295D02*
X80839Y-47177D01*
X81600Y-47938D02*
X81600Y-49000D01*
X80839Y-47177D02*
X81600Y-47938D01*
X79839Y-44295D02*
X79839Y-47319D01*
X80600Y-48080D02*
X80600Y-49000D01*
X79839Y-47319D02*
X80600Y-48080D01*
X78839Y-44295D02*
X78839Y-47451D01*
X79600Y-48212D02*
X79600Y-49000D01*
X78839Y-47451D02*
X79600Y-48212D01*
X77839Y-44295D02*
X77839Y-47740D01*
X78600Y-48501D02*
X78600Y-49000D01*
X77839Y-47740D02*
X78600Y-48501D01*
X76839Y-44295D02*
X76839Y-45352D01*
X77600Y-48535D02*
X77600Y-49000D01*
X77057Y-47992D02*
X77600Y-48535D01*
X77057Y-45570D02*
X77057Y-47992D01*
X76839Y-45352D02*
X77057Y-45570D01*
X75839Y-44295D02*
X75839Y-45120D01*
X76309Y-48709D02*
X76600Y-49000D01*
X76309Y-45590D02*
X76309Y-48709D01*
X75839Y-45120D02*
X76309Y-45590D01*
X83839Y-44295D02*
X83839Y-45914D01*
G54D11*
X83090Y-49509D02*
X82600Y-50000D01*
X83090Y-47263D02*
X83090Y-49509D01*
X83080Y-47253D02*
X83090Y-47263D01*
G54D23*
X83839Y-45914D02*
X83700Y-46053D01*
G54D11*
X83600Y-50000D02*
X83600Y-49982D01*
G54D23*
X84839Y-47447D02*
X84839Y-44295D01*
X84862Y-47470D02*
X84839Y-47447D01*
G54D11*
X84261Y-47470D02*
X84862Y-47470D01*
X84094Y-47637D02*
X84261Y-47470D01*
X84094Y-49488D02*
X84094Y-47637D01*
X83600Y-49982D02*
X84094Y-49488D01*
G54D23*
X85600Y-50000D02*
X86338Y-50000D01*
X85839Y-45829D02*
X85839Y-44295D01*
X86230Y-46220D02*
X85839Y-45829D01*
X86309Y-46220D02*
X86230Y-46220D01*
X86988Y-46899D02*
X86309Y-46220D01*
X86988Y-49350D02*
X86988Y-46899D01*
X86338Y-50000D02*
X86988Y-49350D01*
G54D11*
X95375Y-50300D02*
X94180Y-50300D01*
X78600Y-49970D02*
X78600Y-50000D01*
X79070Y-49500D02*
X78600Y-49970D01*
X81850Y-49500D02*
X79070Y-49500D01*
X82100Y-49750D02*
X81850Y-49500D01*
X82100Y-50530D02*
X82100Y-49750D01*
X82990Y-51420D02*
X82100Y-50530D01*
X93060Y-51420D02*
X82990Y-51420D01*
X94180Y-50300D02*
X93060Y-51420D01*
G54D23*
X80600Y-50000D02*
X80600Y-51023D01*
X99530Y-50932D02*
X99530Y-50160D01*
X97578Y-52883D02*
X99530Y-50932D01*
X82460Y-52883D02*
X97578Y-52883D01*
X80600Y-51023D02*
X82460Y-52883D01*
X81600Y-50000D02*
X81600Y-50881D01*
X98740Y-50462D02*
X98740Y-50160D01*
X97155Y-52047D02*
X98740Y-50462D01*
X82765Y-52047D02*
X97155Y-52047D01*
X81600Y-50881D02*
X82765Y-52047D01*
X79600Y-50000D02*
X79600Y-51322D01*
X97857Y-49180D02*
X98740Y-49180D01*
X97549Y-49488D02*
X97857Y-49180D01*
X96840Y-53651D02*
X96879Y-53690D01*
X81929Y-53651D02*
X96840Y-53651D01*
X79600Y-51322D02*
X81929Y-53651D01*
G54D24*
X86839Y-44789D02*
X87350Y-45300D01*
X87350Y-45300D02*
X88850Y-45300D01*
X88850Y-45300D02*
X89350Y-44800D01*
X89350Y-44800D02*
X89350Y-43884D01*
X89350Y-43884D02*
X89556Y-43678D01*
X89556Y-43678D02*
X91178Y-43678D01*
X91178Y-43678D02*
X91372Y-43872D01*
X91372Y-43872D02*
X91372Y-46578D01*
X91372Y-46578D02*
X90272Y-47678D01*
X90272Y-47678D02*
X90272Y-49622D01*
X90272Y-49622D02*
X91134Y-50484D01*
X91134Y-50484D02*
X92600Y-50484D01*
X86839Y-44295D02*
X86839Y-44789D01*
G54D23*
X73839Y-44295D02*
X73839Y-43956D01*
X86685Y-43334D02*
X86685Y-43280D01*
X74460Y-43334D02*
X86685Y-43334D01*
X73839Y-43956D02*
X74460Y-43334D01*
G54D11*
X91616Y-48516D02*
X91616Y-47584D01*
X86740Y-43280D02*
X86685Y-43280D01*
X87330Y-43870D02*
X86740Y-43280D01*
X87330Y-44790D02*
X87330Y-43870D01*
X87540Y-45000D02*
X87330Y-44790D01*
X88120Y-45000D02*
X87540Y-45000D01*
X88350Y-44770D02*
X88120Y-45000D01*
X88350Y-43550D02*
X88350Y-44770D01*
X89000Y-42900D02*
X88350Y-43550D01*
X91700Y-42900D02*
X89000Y-42900D01*
X92200Y-43400D02*
X91700Y-42900D01*
X92200Y-47000D02*
X92200Y-43400D01*
X91616Y-47584D02*
X92200Y-47000D01*
X73839Y-43871D02*
X73839Y-44295D01*
X74430Y-43280D02*
X73839Y-43871D01*
X86685Y-43280D02*
X74430Y-43280D01*
G54D23*
X84600Y-50000D02*
X84600Y-50783D01*
X74839Y-44957D02*
X74839Y-44295D01*
X75265Y-45383D02*
X74839Y-44957D01*
X75265Y-45669D02*
X75265Y-45383D01*
X75403Y-45807D02*
X75265Y-45669D01*
X84600Y-50783D02*
X84468Y-50915D01*
X93584Y-48516D02*
X95266Y-48516D01*
X95266Y-48516D02*
X95300Y-48550D01*
X95300Y-48550D02*
X95300Y-47977D01*
X95300Y-47977D02*
X95977Y-47300D01*
X95977Y-47300D02*
X100600Y-47300D01*
X99530Y-49180D02*
X99530Y-48370D01*
X99530Y-48370D02*
X100600Y-47300D01*
X100600Y-47300D02*
X100715Y-47300D01*
X102391Y-50248D02*
X100600Y-52040D01*
X102391Y-48976D02*
X102391Y-50248D01*
X100715Y-47300D02*
X102391Y-48976D01*
X66327Y-44295D02*
X66327Y-18705D01*
X66327Y-18705D02*
X100973Y-18705D01*
X100973Y-18705D02*
X100973Y-44295D01*
X100973Y-44295D02*
X100600Y-44668D01*
X100600Y-44668D02*
X100600Y-47300D01*
X71839Y-44295D02*
X66327Y-44295D01*
X77600Y-50000D02*
X77600Y-50992D01*
X71839Y-45657D02*
X71839Y-44295D01*
X74379Y-48198D02*
X71839Y-45657D01*
X74379Y-50826D02*
X74379Y-48198D01*
X74940Y-51387D02*
X74379Y-50826D01*
X77204Y-51387D02*
X74940Y-51387D01*
X77600Y-50992D02*
X77204Y-51387D01*
X88839Y-43861D02*
X89400Y-43300D01*
X88839Y-44295D02*
X88839Y-43861D01*
X92350Y-49750D02*
X93584Y-48516D01*
X90950Y-49750D02*
X92350Y-49750D01*
X90650Y-49450D02*
X90950Y-49750D01*
X90650Y-47900D02*
X90650Y-49450D01*
X91750Y-46800D02*
X90650Y-47900D01*
X91750Y-43600D02*
X91750Y-46800D01*
X91450Y-43300D02*
X91750Y-43600D01*
X89400Y-43300D02*
X91450Y-43300D01*
G54D24*
X96300Y-48550D02*
X96300Y-50125D01*
X96300Y-50125D02*
X96125Y-50300D01*
G54D10*
G36*
X88896Y-44473D02*
X88785Y-44473D01*
X88785Y-44116D01*
X88896Y-44116D01*
X88896Y-44473D01*
X88896Y-44473D01*
G37*
G54D25*
X88896Y-44473D02*
X88785Y-44473D01*
X88785Y-44116D01*
X88896Y-44116D01*
X88896Y-44473D01*
G54D10*
G36*
X91765Y-43659D02*
X91692Y-43551D01*
X91498Y-43357D01*
X91465Y-43335D01*
X91519Y-43335D01*
X91765Y-43580D01*
X91765Y-43659D01*
X91765Y-43659D01*
G37*
G54D25*
X91765Y-43659D02*
X91692Y-43551D01*
X91498Y-43357D01*
X91465Y-43335D01*
X91519Y-43335D01*
X91765Y-43580D01*
X91765Y-43659D01*
G54D10*
G36*
X103034Y-55829D02*
X102975Y-55829D01*
X102975Y-54367D01*
X102975Y-15367D01*
X102796Y-14935D01*
X102466Y-14604D01*
X102034Y-14425D01*
X101567Y-14424D01*
X101135Y-14603D01*
X100804Y-14933D01*
X100625Y-15365D01*
X100624Y-15832D01*
X100803Y-16264D01*
X101133Y-16595D01*
X101565Y-16774D01*
X102032Y-16775D01*
X102464Y-16596D01*
X102795Y-16266D01*
X102974Y-15834D01*
X102975Y-15367D01*
X102975Y-54367D01*
X102796Y-53935D01*
X102466Y-53604D01*
X102395Y-53574D01*
X102395Y-44461D01*
X102395Y-18871D01*
X102350Y-18314D01*
X102223Y-18006D01*
X101971Y-17947D01*
X101730Y-18188D01*
X101730Y-17706D01*
X101671Y-17454D01*
X101139Y-17282D01*
X100582Y-17327D01*
X100274Y-17454D01*
X100215Y-17706D01*
X100973Y-18464D01*
X101730Y-17706D01*
X101730Y-18188D01*
X101213Y-18705D01*
X101971Y-19462D01*
X102223Y-19403D01*
X102395Y-18871D01*
X102395Y-44461D01*
X102350Y-43904D01*
X102223Y-43596D01*
X101971Y-43537D01*
X101730Y-43778D01*
X101730Y-43296D01*
X101730Y-19703D01*
X100973Y-18945D01*
X100732Y-19186D01*
X100732Y-18705D01*
X99974Y-17947D01*
X99722Y-18006D01*
X99550Y-18538D01*
X99595Y-19095D01*
X99722Y-19403D01*
X99974Y-19462D01*
X100732Y-18705D01*
X100732Y-19186D01*
X100215Y-19703D01*
X100274Y-19955D01*
X100806Y-20127D01*
X101363Y-20082D01*
X101671Y-19955D01*
X101730Y-19703D01*
X101730Y-43296D01*
X101671Y-43044D01*
X101139Y-42872D01*
X100582Y-42917D01*
X100274Y-43044D01*
X100215Y-43296D01*
X100973Y-44054D01*
X101730Y-43296D01*
X101730Y-43778D01*
X101213Y-44295D01*
X101971Y-45052D01*
X102223Y-44993D01*
X102395Y-44461D01*
X102395Y-53574D01*
X102034Y-53425D01*
X102022Y-53425D01*
X102022Y-52206D01*
X102022Y-47466D01*
X101977Y-46909D01*
X101850Y-46601D01*
X101730Y-46573D01*
X101730Y-45293D01*
X100973Y-44535D01*
X100732Y-44776D01*
X100732Y-44295D01*
X99974Y-43537D01*
X99722Y-43596D01*
X99550Y-44128D01*
X99595Y-44685D01*
X99722Y-44993D01*
X99974Y-45052D01*
X100732Y-44295D01*
X100732Y-44776D01*
X100215Y-45293D01*
X100274Y-45545D01*
X100806Y-45717D01*
X101363Y-45672D01*
X101671Y-45545D01*
X101730Y-45293D01*
X101730Y-46573D01*
X101598Y-46542D01*
X101357Y-46783D01*
X101357Y-46301D01*
X101298Y-46049D01*
X100766Y-45877D01*
X100209Y-45922D01*
X99901Y-46049D01*
X99842Y-46301D01*
X100600Y-47059D01*
X101357Y-46301D01*
X101357Y-46783D01*
X100840Y-47300D01*
X101598Y-48057D01*
X101850Y-47998D01*
X102022Y-47466D01*
X102022Y-52206D01*
X101977Y-51649D01*
X101850Y-51341D01*
X101598Y-51282D01*
X101357Y-51523D01*
X101357Y-51041D01*
X101357Y-48298D01*
X100600Y-47540D01*
X100594Y-47546D01*
X100359Y-47311D01*
X100353Y-47305D01*
X100359Y-47300D01*
X99601Y-46542D01*
X99349Y-46601D01*
X99177Y-47133D01*
X99222Y-47690D01*
X99349Y-47998D01*
X99601Y-48057D01*
X99491Y-48167D01*
X99224Y-48195D01*
X99049Y-48267D01*
X99041Y-48482D01*
X99530Y-48971D01*
X99551Y-48949D01*
X99760Y-49158D01*
X99738Y-49180D01*
X100227Y-49668D01*
X100442Y-49660D01*
X100556Y-49274D01*
X100514Y-48874D01*
X100450Y-48720D01*
X100990Y-48677D01*
X101298Y-48550D01*
X101357Y-48298D01*
X101357Y-51041D01*
X101298Y-50789D01*
X100766Y-50617D01*
X100209Y-50662D01*
X100102Y-50706D01*
X100102Y-50530D01*
X100200Y-50293D01*
X100200Y-50027D01*
X100098Y-49780D01*
X99910Y-49591D01*
X99663Y-49489D01*
X99630Y-49489D01*
X99530Y-49388D01*
X99508Y-49410D01*
X99410Y-49312D01*
X99410Y-49047D01*
X99308Y-48800D01*
X99120Y-48611D01*
X98873Y-48509D01*
X98607Y-48509D01*
X98368Y-48608D01*
X97857Y-48608D01*
X97638Y-48651D01*
X97452Y-48775D01*
X97144Y-49083D01*
X97020Y-49269D01*
X96977Y-49488D01*
X97020Y-49707D01*
X97144Y-49892D01*
X97330Y-50016D01*
X97549Y-50060D01*
X97768Y-50016D01*
X97953Y-49892D01*
X98094Y-49752D01*
X98199Y-49752D01*
X98171Y-49779D01*
X98069Y-50026D01*
X98069Y-50292D01*
X98078Y-50315D01*
X96918Y-51475D01*
X93619Y-51475D01*
X94360Y-50735D01*
X94860Y-50735D01*
X94882Y-50787D01*
X94987Y-50892D01*
X95125Y-50950D01*
X95274Y-50950D01*
X95624Y-50950D01*
X95750Y-50898D01*
X95875Y-50950D01*
X96024Y-50950D01*
X96374Y-50950D01*
X96512Y-50892D01*
X96617Y-50787D01*
X96675Y-50649D01*
X96675Y-50500D01*
X96675Y-50364D01*
X96718Y-50298D01*
X96718Y-50298D01*
X96753Y-50125D01*
X96753Y-49156D01*
X96787Y-49142D01*
X96892Y-49037D01*
X96950Y-48899D01*
X96950Y-48750D01*
X96950Y-48200D01*
X96892Y-48062D01*
X96787Y-47957D01*
X96649Y-47900D01*
X96500Y-47900D01*
X95950Y-47900D01*
X95812Y-47957D01*
X95782Y-47987D01*
X95782Y-47873D01*
X95776Y-47659D01*
X95399Y-47544D01*
X95007Y-47583D01*
X94823Y-47659D01*
X94817Y-47873D01*
X95300Y-48355D01*
X95782Y-47873D01*
X95782Y-47987D01*
X95707Y-48062D01*
X95650Y-48200D01*
X95650Y-48349D01*
X95650Y-48394D01*
X95494Y-48550D01*
X95523Y-48578D01*
X95328Y-48773D01*
X95300Y-48744D01*
X95105Y-48938D01*
X95105Y-48550D01*
X94623Y-48067D01*
X94565Y-48069D01*
X94547Y-48026D01*
X94330Y-48010D01*
X94235Y-48105D01*
X94235Y-32815D01*
X94235Y-30025D01*
X71793Y-30025D01*
X71793Y-32815D01*
X94235Y-32815D01*
X94235Y-48105D01*
X94089Y-48250D01*
X94089Y-47769D01*
X94073Y-47552D01*
X93667Y-47438D01*
X93248Y-47488D01*
X93094Y-47552D01*
X93078Y-47769D01*
X93584Y-48275D01*
X94089Y-47769D01*
X94089Y-48250D01*
X93824Y-48516D01*
X94330Y-49021D01*
X94405Y-49016D01*
X94409Y-49026D01*
X94623Y-49032D01*
X95105Y-48550D01*
X95105Y-48938D01*
X94817Y-49226D01*
X94823Y-49440D01*
X95200Y-49555D01*
X95592Y-49516D01*
X95776Y-49440D01*
X95781Y-49271D01*
X95782Y-49273D01*
X95846Y-49337D01*
X95846Y-49661D01*
X95782Y-49688D01*
X95749Y-49701D01*
X95624Y-49650D01*
X95475Y-49650D01*
X95125Y-49650D01*
X94987Y-49707D01*
X94882Y-49812D01*
X94860Y-49865D01*
X94180Y-49865D01*
X94089Y-49882D01*
X94089Y-49262D01*
X93584Y-48756D01*
X93343Y-48997D01*
X93343Y-48516D01*
X92837Y-48010D01*
X92620Y-48026D01*
X92506Y-48432D01*
X92556Y-48851D01*
X92620Y-49005D01*
X92837Y-49021D01*
X93343Y-48516D01*
X93343Y-48997D01*
X93078Y-49262D01*
X93094Y-49479D01*
X93500Y-49593D01*
X93919Y-49543D01*
X94073Y-49479D01*
X94089Y-49262D01*
X94089Y-49882D01*
X94013Y-49898D01*
X93872Y-49992D01*
X93319Y-50545D01*
X93319Y-50341D01*
X93210Y-50076D01*
X93008Y-49874D01*
X92743Y-49764D01*
X92457Y-49764D01*
X92192Y-49873D01*
X92035Y-50030D01*
X91321Y-50030D01*
X90725Y-49434D01*
X90725Y-47865D01*
X91295Y-47296D01*
X91214Y-47417D01*
X91181Y-47584D01*
X91181Y-47933D01*
X91006Y-48107D01*
X90896Y-48372D01*
X90896Y-48658D01*
X91005Y-48923D01*
X91207Y-49125D01*
X91472Y-49235D01*
X91758Y-49235D01*
X92023Y-49126D01*
X92225Y-48924D01*
X92335Y-48659D01*
X92335Y-48373D01*
X92226Y-48108D01*
X92051Y-47933D01*
X92051Y-47764D01*
X92507Y-47307D01*
X92601Y-47166D01*
X92601Y-47166D01*
X92635Y-47000D01*
X92635Y-43400D01*
X92601Y-43233D01*
X92507Y-43092D01*
X92007Y-42592D01*
X91866Y-42498D01*
X91700Y-42465D01*
X89000Y-42465D01*
X88833Y-42498D01*
X88777Y-42535D01*
X88692Y-42592D01*
X88071Y-43212D01*
X87154Y-42295D01*
X86968Y-42171D01*
X86750Y-42128D01*
X73950Y-42128D01*
X73731Y-42171D01*
X73545Y-42295D01*
X72461Y-43379D01*
X72403Y-43321D01*
X72144Y-43193D01*
X71989Y-43338D01*
X71989Y-44124D01*
X72017Y-44124D01*
X72017Y-44465D01*
X71989Y-44465D01*
X71989Y-45251D01*
X72144Y-45396D01*
X72389Y-45276D01*
X72434Y-45343D01*
X73095Y-46004D01*
X73281Y-46128D01*
X73500Y-46172D01*
X74163Y-46172D01*
X75128Y-47136D01*
X75128Y-49500D01*
X75171Y-49718D01*
X75295Y-49904D01*
X75795Y-50404D01*
X75925Y-50490D01*
X75925Y-50565D01*
X75982Y-50702D01*
X76087Y-50808D01*
X76225Y-50865D01*
X76374Y-50865D01*
X76868Y-50865D01*
X77068Y-51052D01*
X77294Y-51159D01*
X77450Y-51013D01*
X77450Y-50267D01*
X77421Y-50267D01*
X77421Y-49926D01*
X77450Y-49926D01*
X77450Y-49918D01*
X77750Y-49918D01*
X77750Y-49926D01*
X77778Y-49926D01*
X77778Y-50267D01*
X77750Y-50267D01*
X77750Y-51013D01*
X77905Y-51159D01*
X78131Y-51052D01*
X78365Y-50833D01*
X78600Y-50880D01*
X78858Y-50829D01*
X79028Y-50715D01*
X79028Y-51322D01*
X79071Y-51541D01*
X79195Y-51726D01*
X81524Y-54056D01*
X81524Y-54056D01*
X81710Y-54180D01*
X81929Y-54223D01*
X96681Y-54223D01*
X96879Y-54262D01*
X97098Y-54219D01*
X97284Y-54095D01*
X97408Y-53909D01*
X97451Y-53690D01*
X97408Y-53472D01*
X97397Y-53455D01*
X97578Y-53455D01*
X97797Y-53412D01*
X97983Y-53288D01*
X99193Y-52077D01*
X99222Y-52430D01*
X99349Y-52738D01*
X99601Y-52797D01*
X100359Y-52040D01*
X100353Y-52034D01*
X100594Y-51793D01*
X100600Y-51799D01*
X101357Y-51041D01*
X101357Y-51523D01*
X100840Y-52040D01*
X101598Y-52797D01*
X101850Y-52738D01*
X102022Y-52206D01*
X102022Y-53425D01*
X101567Y-53424D01*
X101357Y-53511D01*
X101357Y-53038D01*
X100600Y-52280D01*
X99842Y-53038D01*
X99901Y-53290D01*
X100433Y-53462D01*
X100990Y-53417D01*
X101298Y-53290D01*
X101357Y-53038D01*
X101357Y-53511D01*
X101135Y-53603D01*
X100804Y-53933D01*
X100625Y-54365D01*
X100624Y-54832D01*
X100803Y-55264D01*
X101133Y-55595D01*
X101565Y-55774D01*
X102032Y-55775D01*
X102464Y-55596D01*
X102795Y-55266D01*
X102974Y-54834D01*
X102975Y-54367D01*
X102975Y-55829D01*
X71689Y-55829D01*
X71689Y-45251D01*
X71689Y-44465D01*
X71689Y-44124D01*
X71689Y-43338D01*
X71533Y-43193D01*
X71274Y-43321D01*
X70995Y-43601D01*
X70844Y-43966D01*
X71005Y-44124D01*
X71689Y-44124D01*
X71689Y-44465D01*
X71005Y-44465D01*
X70844Y-44623D01*
X70995Y-44988D01*
X71274Y-45268D01*
X71533Y-45396D01*
X71689Y-45251D01*
X71689Y-55829D01*
X67749Y-55829D01*
X67749Y-44461D01*
X67749Y-18871D01*
X67704Y-18314D01*
X67577Y-18006D01*
X67325Y-17947D01*
X67084Y-18188D01*
X67084Y-17706D01*
X67025Y-17454D01*
X66493Y-17282D01*
X65936Y-17327D01*
X65628Y-17454D01*
X65569Y-17706D01*
X66327Y-18464D01*
X67084Y-17706D01*
X67084Y-18188D01*
X66567Y-18705D01*
X67325Y-19462D01*
X67577Y-19403D01*
X67749Y-18871D01*
X67749Y-44461D01*
X67704Y-43904D01*
X67577Y-43596D01*
X67325Y-43537D01*
X67084Y-43778D01*
X67084Y-43296D01*
X67084Y-19703D01*
X66327Y-18945D01*
X66086Y-19186D01*
X66086Y-18705D01*
X65475Y-18094D01*
X65475Y-15367D01*
X65296Y-14935D01*
X64966Y-14604D01*
X64534Y-14425D01*
X64067Y-14424D01*
X63635Y-14603D01*
X63304Y-14933D01*
X63125Y-15365D01*
X63124Y-15832D01*
X63303Y-16264D01*
X63633Y-16595D01*
X64065Y-16774D01*
X64532Y-16775D01*
X64964Y-16596D01*
X65295Y-16266D01*
X65474Y-15834D01*
X65475Y-15367D01*
X65475Y-18094D01*
X65328Y-17947D01*
X65076Y-18006D01*
X64904Y-18538D01*
X64949Y-19095D01*
X65076Y-19403D01*
X65328Y-19462D01*
X66086Y-18705D01*
X66086Y-19186D01*
X65569Y-19703D01*
X65628Y-19955D01*
X66160Y-20127D01*
X66717Y-20082D01*
X67025Y-19955D01*
X67084Y-19703D01*
X67084Y-43296D01*
X67025Y-43044D01*
X66493Y-42872D01*
X65936Y-42917D01*
X65628Y-43044D01*
X65569Y-43296D01*
X66327Y-44054D01*
X67084Y-43296D01*
X67084Y-43778D01*
X66567Y-44295D01*
X67325Y-45052D01*
X67577Y-44993D01*
X67749Y-44461D01*
X67749Y-55829D01*
X67084Y-55829D01*
X67084Y-45293D01*
X66327Y-44535D01*
X66086Y-44776D01*
X66086Y-44295D01*
X65328Y-43537D01*
X65076Y-43596D01*
X64904Y-44128D01*
X64949Y-44685D01*
X65076Y-44993D01*
X65328Y-45052D01*
X66086Y-44295D01*
X66086Y-44776D01*
X65569Y-45293D01*
X65628Y-45545D01*
X66160Y-45717D01*
X66717Y-45672D01*
X67025Y-45545D01*
X67084Y-45293D01*
X67084Y-55829D01*
X65475Y-55829D01*
X65475Y-54367D01*
X65296Y-53935D01*
X64966Y-53604D01*
X64534Y-53425D01*
X64067Y-53424D01*
X63635Y-53603D01*
X63304Y-53933D01*
X63125Y-54365D01*
X63124Y-54832D01*
X63303Y-55264D01*
X63633Y-55595D01*
X64065Y-55774D01*
X64532Y-55775D01*
X64964Y-55596D01*
X65295Y-55266D01*
X65474Y-54834D01*
X65475Y-54367D01*
X65475Y-55829D01*
X63008Y-55829D01*
X63008Y-14317D01*
X103034Y-14317D01*
X103034Y-55829D01*
X103034Y-55829D01*
G37*
G54D25*
X103034Y-55829D02*
X102975Y-55829D01*
X102975Y-54367D01*
X102975Y-15367D01*
X102796Y-14935D01*
X102466Y-14604D01*
X102034Y-14425D01*
X101567Y-14424D01*
X101135Y-14603D01*
X100804Y-14933D01*
X100625Y-15365D01*
X100624Y-15832D01*
X100803Y-16264D01*
X101133Y-16595D01*
X101565Y-16774D01*
X102032Y-16775D01*
X102464Y-16596D01*
X102795Y-16266D01*
X102974Y-15834D01*
X102975Y-15367D01*
X102975Y-54367D01*
X102796Y-53935D01*
X102466Y-53604D01*
X102395Y-53574D01*
X102395Y-44461D01*
X102395Y-18871D01*
X102350Y-18314D01*
X102223Y-18006D01*
X101971Y-17947D01*
X101730Y-18188D01*
X101730Y-17706D01*
X101671Y-17454D01*
X101139Y-17282D01*
X100582Y-17327D01*
X100274Y-17454D01*
X100215Y-17706D01*
X100973Y-18464D01*
X101730Y-17706D01*
X101730Y-18188D01*
X101213Y-18705D01*
X101971Y-19462D01*
X102223Y-19403D01*
X102395Y-18871D01*
X102395Y-44461D01*
X102350Y-43904D01*
X102223Y-43596D01*
X101971Y-43537D01*
X101730Y-43778D01*
X101730Y-43296D01*
X101730Y-19703D01*
X100973Y-18945D01*
X100732Y-19186D01*
X100732Y-18705D01*
X99974Y-17947D01*
X99722Y-18006D01*
X99550Y-18538D01*
X99595Y-19095D01*
X99722Y-19403D01*
X99974Y-19462D01*
X100732Y-18705D01*
X100732Y-19186D01*
X100215Y-19703D01*
X100274Y-19955D01*
X100806Y-20127D01*
X101363Y-20082D01*
X101671Y-19955D01*
X101730Y-19703D01*
X101730Y-43296D01*
X101671Y-43044D01*
X101139Y-42872D01*
X100582Y-42917D01*
X100274Y-43044D01*
X100215Y-43296D01*
X100973Y-44054D01*
X101730Y-43296D01*
X101730Y-43778D01*
X101213Y-44295D01*
X101971Y-45052D01*
X102223Y-44993D01*
X102395Y-44461D01*
X102395Y-53574D01*
X102034Y-53425D01*
X102022Y-53425D01*
X102022Y-52206D01*
X102022Y-47466D01*
X101977Y-46909D01*
X101850Y-46601D01*
X101730Y-46573D01*
X101730Y-45293D01*
X100973Y-44535D01*
X100732Y-44776D01*
X100732Y-44295D01*
X99974Y-43537D01*
X99722Y-43596D01*
X99550Y-44128D01*
X99595Y-44685D01*
X99722Y-44993D01*
X99974Y-45052D01*
X100732Y-44295D01*
X100732Y-44776D01*
X100215Y-45293D01*
X100274Y-45545D01*
X100806Y-45717D01*
X101363Y-45672D01*
X101671Y-45545D01*
X101730Y-45293D01*
X101730Y-46573D01*
X101598Y-46542D01*
X101357Y-46783D01*
X101357Y-46301D01*
X101298Y-46049D01*
X100766Y-45877D01*
X100209Y-45922D01*
X99901Y-46049D01*
X99842Y-46301D01*
X100600Y-47059D01*
X101357Y-46301D01*
X101357Y-46783D01*
X100840Y-47300D01*
X101598Y-48057D01*
X101850Y-47998D01*
X102022Y-47466D01*
X102022Y-52206D01*
X101977Y-51649D01*
X101850Y-51341D01*
X101598Y-51282D01*
X101357Y-51523D01*
X101357Y-51041D01*
X101357Y-48298D01*
X100600Y-47540D01*
X100594Y-47546D01*
X100359Y-47311D01*
X100353Y-47305D01*
X100359Y-47300D01*
X99601Y-46542D01*
X99349Y-46601D01*
X99177Y-47133D01*
X99222Y-47690D01*
X99349Y-47998D01*
X99601Y-48057D01*
X99491Y-48167D01*
X99224Y-48195D01*
X99049Y-48267D01*
X99041Y-48482D01*
X99530Y-48971D01*
X99551Y-48949D01*
X99760Y-49158D01*
X99738Y-49180D01*
X100227Y-49668D01*
X100442Y-49660D01*
X100556Y-49274D01*
X100514Y-48874D01*
X100450Y-48720D01*
X100990Y-48677D01*
X101298Y-48550D01*
X101357Y-48298D01*
X101357Y-51041D01*
X101298Y-50789D01*
X100766Y-50617D01*
X100209Y-50662D01*
X100102Y-50706D01*
X100102Y-50530D01*
X100200Y-50293D01*
X100200Y-50027D01*
X100098Y-49780D01*
X99910Y-49591D01*
X99663Y-49489D01*
X99630Y-49489D01*
X99530Y-49388D01*
X99508Y-49410D01*
X99410Y-49312D01*
X99410Y-49047D01*
X99308Y-48800D01*
X99120Y-48611D01*
X98873Y-48509D01*
X98607Y-48509D01*
X98368Y-48608D01*
X97857Y-48608D01*
X97638Y-48651D01*
X97452Y-48775D01*
X97144Y-49083D01*
X97020Y-49269D01*
X96977Y-49488D01*
X97020Y-49707D01*
X97144Y-49892D01*
X97330Y-50016D01*
X97549Y-50060D01*
X97768Y-50016D01*
X97953Y-49892D01*
X98094Y-49752D01*
X98199Y-49752D01*
X98171Y-49779D01*
X98069Y-50026D01*
X98069Y-50292D01*
X98078Y-50315D01*
X96918Y-51475D01*
X93619Y-51475D01*
X94360Y-50735D01*
X94860Y-50735D01*
X94882Y-50787D01*
X94987Y-50892D01*
X95125Y-50950D01*
X95274Y-50950D01*
X95624Y-50950D01*
X95750Y-50898D01*
X95875Y-50950D01*
X96024Y-50950D01*
X96374Y-50950D01*
X96512Y-50892D01*
X96617Y-50787D01*
X96675Y-50649D01*
X96675Y-50500D01*
X96675Y-50364D01*
X96718Y-50298D01*
X96718Y-50298D01*
X96753Y-50125D01*
X96753Y-49156D01*
X96787Y-49142D01*
X96892Y-49037D01*
X96950Y-48899D01*
X96950Y-48750D01*
X96950Y-48200D01*
X96892Y-48062D01*
X96787Y-47957D01*
X96649Y-47900D01*
X96500Y-47900D01*
X95950Y-47900D01*
X95812Y-47957D01*
X95782Y-47987D01*
X95782Y-47873D01*
X95776Y-47659D01*
X95399Y-47544D01*
X95007Y-47583D01*
X94823Y-47659D01*
X94817Y-47873D01*
X95300Y-48355D01*
X95782Y-47873D01*
X95782Y-47987D01*
X95707Y-48062D01*
X95650Y-48200D01*
X95650Y-48349D01*
X95650Y-48394D01*
X95494Y-48550D01*
X95523Y-48578D01*
X95328Y-48773D01*
X95300Y-48744D01*
X95105Y-48938D01*
X95105Y-48550D01*
X94623Y-48067D01*
X94565Y-48069D01*
X94547Y-48026D01*
X94330Y-48010D01*
X94235Y-48105D01*
X94235Y-32815D01*
X94235Y-30025D01*
X71793Y-30025D01*
X71793Y-32815D01*
X94235Y-32815D01*
X94235Y-48105D01*
X94089Y-48250D01*
X94089Y-47769D01*
X94073Y-47552D01*
X93667Y-47438D01*
X93248Y-47488D01*
X93094Y-47552D01*
X93078Y-47769D01*
X93584Y-48275D01*
X94089Y-47769D01*
X94089Y-48250D01*
X93824Y-48516D01*
X94330Y-49021D01*
X94405Y-49016D01*
X94409Y-49026D01*
X94623Y-49032D01*
X95105Y-48550D01*
X95105Y-48938D01*
X94817Y-49226D01*
X94823Y-49440D01*
X95200Y-49555D01*
X95592Y-49516D01*
X95776Y-49440D01*
X95781Y-49271D01*
X95782Y-49273D01*
X95846Y-49337D01*
X95846Y-49661D01*
X95782Y-49688D01*
X95749Y-49701D01*
X95624Y-49650D01*
X95475Y-49650D01*
X95125Y-49650D01*
X94987Y-49707D01*
X94882Y-49812D01*
X94860Y-49865D01*
X94180Y-49865D01*
X94089Y-49882D01*
X94089Y-49262D01*
X93584Y-48756D01*
X93343Y-48997D01*
X93343Y-48516D01*
X92837Y-48010D01*
X92620Y-48026D01*
X92506Y-48432D01*
X92556Y-48851D01*
X92620Y-49005D01*
X92837Y-49021D01*
X93343Y-48516D01*
X93343Y-48997D01*
X93078Y-49262D01*
X93094Y-49479D01*
X93500Y-49593D01*
X93919Y-49543D01*
X94073Y-49479D01*
X94089Y-49262D01*
X94089Y-49882D01*
X94013Y-49898D01*
X93872Y-49992D01*
X93319Y-50545D01*
X93319Y-50341D01*
X93210Y-50076D01*
X93008Y-49874D01*
X92743Y-49764D01*
X92457Y-49764D01*
X92192Y-49873D01*
X92035Y-50030D01*
X91321Y-50030D01*
X90725Y-49434D01*
X90725Y-47865D01*
X91295Y-47296D01*
X91214Y-47417D01*
X91181Y-47584D01*
X91181Y-47933D01*
X91006Y-48107D01*
X90896Y-48372D01*
X90896Y-48658D01*
X91005Y-48923D01*
X91207Y-49125D01*
X91472Y-49235D01*
X91758Y-49235D01*
X92023Y-49126D01*
X92225Y-48924D01*
X92335Y-48659D01*
X92335Y-48373D01*
X92226Y-48108D01*
X92051Y-47933D01*
X92051Y-47764D01*
X92507Y-47307D01*
X92601Y-47166D01*
X92601Y-47166D01*
X92635Y-47000D01*
X92635Y-43400D01*
X92601Y-43233D01*
X92507Y-43092D01*
X92007Y-42592D01*
X91866Y-42498D01*
X91700Y-42465D01*
X89000Y-42465D01*
X88833Y-42498D01*
X88777Y-42535D01*
X88692Y-42592D01*
X88071Y-43212D01*
X87154Y-42295D01*
X86968Y-42171D01*
X86750Y-42128D01*
X73950Y-42128D01*
X73731Y-42171D01*
X73545Y-42295D01*
X72461Y-43379D01*
X72403Y-43321D01*
X72144Y-43193D01*
X71989Y-43338D01*
X71989Y-44124D01*
X72017Y-44124D01*
X72017Y-44465D01*
X71989Y-44465D01*
X71989Y-45251D01*
X72144Y-45396D01*
X72389Y-45276D01*
X72434Y-45343D01*
X73095Y-46004D01*
X73281Y-46128D01*
X73500Y-46172D01*
X74163Y-46172D01*
X75128Y-47136D01*
X75128Y-49500D01*
X75171Y-49718D01*
X75295Y-49904D01*
X75795Y-50404D01*
X75925Y-50490D01*
X75925Y-50565D01*
X75982Y-50702D01*
X76087Y-50808D01*
X76225Y-50865D01*
X76374Y-50865D01*
X76868Y-50865D01*
X77068Y-51052D01*
X77294Y-51159D01*
X77450Y-51013D01*
X77450Y-50267D01*
X77421Y-50267D01*
X77421Y-49926D01*
X77450Y-49926D01*
X77450Y-49918D01*
X77750Y-49918D01*
X77750Y-49926D01*
X77778Y-49926D01*
X77778Y-50267D01*
X77750Y-50267D01*
X77750Y-51013D01*
X77905Y-51159D01*
X78131Y-51052D01*
X78365Y-50833D01*
X78600Y-50880D01*
X78858Y-50829D01*
X79028Y-50715D01*
X79028Y-51322D01*
X79071Y-51541D01*
X79195Y-51726D01*
X81524Y-54056D01*
X81524Y-54056D01*
X81710Y-54180D01*
X81929Y-54223D01*
X96681Y-54223D01*
X96879Y-54262D01*
X97098Y-54219D01*
X97284Y-54095D01*
X97408Y-53909D01*
X97451Y-53690D01*
X97408Y-53472D01*
X97397Y-53455D01*
X97578Y-53455D01*
X97797Y-53412D01*
X97983Y-53288D01*
X99193Y-52077D01*
X99222Y-52430D01*
X99349Y-52738D01*
X99601Y-52797D01*
X100359Y-52040D01*
X100353Y-52034D01*
X100594Y-51793D01*
X100600Y-51799D01*
X101357Y-51041D01*
X101357Y-51523D01*
X100840Y-52040D01*
X101598Y-52797D01*
X101850Y-52738D01*
X102022Y-52206D01*
X102022Y-53425D01*
X101567Y-53424D01*
X101357Y-53511D01*
X101357Y-53038D01*
X100600Y-52280D01*
X99842Y-53038D01*
X99901Y-53290D01*
X100433Y-53462D01*
X100990Y-53417D01*
X101298Y-53290D01*
X101357Y-53038D01*
X101357Y-53511D01*
X101135Y-53603D01*
X100804Y-53933D01*
X100625Y-54365D01*
X100624Y-54832D01*
X100803Y-55264D01*
X101133Y-55595D01*
X101565Y-55774D01*
X102032Y-55775D01*
X102464Y-55596D01*
X102795Y-55266D01*
X102974Y-54834D01*
X102975Y-54367D01*
X102975Y-55829D01*
X71689Y-55829D01*
X71689Y-45251D01*
X71689Y-44465D01*
X71689Y-44124D01*
X71689Y-43338D01*
X71533Y-43193D01*
X71274Y-43321D01*
X70995Y-43601D01*
X70844Y-43966D01*
X71005Y-44124D01*
X71689Y-44124D01*
X71689Y-44465D01*
X71005Y-44465D01*
X70844Y-44623D01*
X70995Y-44988D01*
X71274Y-45268D01*
X71533Y-45396D01*
X71689Y-45251D01*
X71689Y-55829D01*
X67749Y-55829D01*
X67749Y-44461D01*
X67749Y-18871D01*
X67704Y-18314D01*
X67577Y-18006D01*
X67325Y-17947D01*
X67084Y-18188D01*
X67084Y-17706D01*
X67025Y-17454D01*
X66493Y-17282D01*
X65936Y-17327D01*
X65628Y-17454D01*
X65569Y-17706D01*
X66327Y-18464D01*
X67084Y-17706D01*
X67084Y-18188D01*
X66567Y-18705D01*
X67325Y-19462D01*
X67577Y-19403D01*
X67749Y-18871D01*
X67749Y-44461D01*
X67704Y-43904D01*
X67577Y-43596D01*
X67325Y-43537D01*
X67084Y-43778D01*
X67084Y-43296D01*
X67084Y-19703D01*
X66327Y-18945D01*
X66086Y-19186D01*
X66086Y-18705D01*
X65475Y-18094D01*
X65475Y-15367D01*
X65296Y-14935D01*
X64966Y-14604D01*
X64534Y-14425D01*
X64067Y-14424D01*
X63635Y-14603D01*
X63304Y-14933D01*
X63125Y-15365D01*
X63124Y-15832D01*
X63303Y-16264D01*
X63633Y-16595D01*
X64065Y-16774D01*
X64532Y-16775D01*
X64964Y-16596D01*
X65295Y-16266D01*
X65474Y-15834D01*
X65475Y-15367D01*
X65475Y-18094D01*
X65328Y-17947D01*
X65076Y-18006D01*
X64904Y-18538D01*
X64949Y-19095D01*
X65076Y-19403D01*
X65328Y-19462D01*
X66086Y-18705D01*
X66086Y-19186D01*
X65569Y-19703D01*
X65628Y-19955D01*
X66160Y-20127D01*
X66717Y-20082D01*
X67025Y-19955D01*
X67084Y-19703D01*
X67084Y-43296D01*
X67025Y-43044D01*
X66493Y-42872D01*
X65936Y-42917D01*
X65628Y-43044D01*
X65569Y-43296D01*
X66327Y-44054D01*
X67084Y-43296D01*
X67084Y-43778D01*
X66567Y-44295D01*
X67325Y-45052D01*
X67577Y-44993D01*
X67749Y-44461D01*
X67749Y-55829D01*
X67084Y-55829D01*
X67084Y-45293D01*
X66327Y-44535D01*
X66086Y-44776D01*
X66086Y-44295D01*
X65328Y-43537D01*
X65076Y-43596D01*
X64904Y-44128D01*
X64949Y-44685D01*
X65076Y-44993D01*
X65328Y-45052D01*
X66086Y-44295D01*
X66086Y-44776D01*
X65569Y-45293D01*
X65628Y-45545D01*
X66160Y-45717D01*
X66717Y-45672D01*
X67025Y-45545D01*
X67084Y-45293D01*
X67084Y-55829D01*
X65475Y-55829D01*
X65475Y-54367D01*
X65296Y-53935D01*
X64966Y-53604D01*
X64534Y-53425D01*
X64067Y-53424D01*
X63635Y-53603D01*
X63304Y-53933D01*
X63125Y-54365D01*
X63124Y-54832D01*
X63303Y-55264D01*
X63633Y-55595D01*
X64065Y-55774D01*
X64532Y-55775D01*
X64964Y-55596D01*
X65295Y-55266D01*
X65474Y-54834D01*
X65475Y-54367D01*
X65475Y-55829D01*
X63008Y-55829D01*
X63008Y-14317D01*
X103034Y-14317D01*
X103034Y-55829D01*
M02*
