M48
;DRILL file {Pcbnew (2013-mar-13)-testing} date Tue 18 Jun 2013 00:00:04 ART
;FORMAT={-:-/ absolute / metric / decimal}
FMAT,2
METRIC,TZ
T1C0.635
T2C0.813
T3C0.899
T4C0.950
T5C1.001
T6C2.301
T7C3.048
T8C3.500
%
G90
G05
M71
T1
X191.525Y-116.35
X211.025Y-120.025
X212.6Y-116.975
X214.55Y-129.325
X218.05Y-119.825
X218.575Y-122.375
X227.35Y-116.425
X230.05Y-117.2
X246.075Y-136.375
X247.775Y-125.7
T2
X242.062Y-123.317
X244.602Y-123.317
T3
X232.705Y-123.231
X235.204Y-128.229
X237.703Y-123.231
T4
X250.8Y-124.917
X250.8Y-127.406
X252.806Y-124.917
X252.806Y-127.406
T5
X182.471Y-112.509
X185.011Y-112.509
X187.551Y-112.509
X190.091Y-112.509
X192.631Y-112.509
X194.564Y-124.46
X194.564Y-127.
X195.171Y-112.509
X197.104Y-124.46
X197.104Y-127.
X197.711Y-112.509
X199.644Y-124.46
X199.644Y-127.
X200.251Y-112.509
X202.184Y-124.46
X202.184Y-127.
X202.791Y-112.509
X204.724Y-124.46
X204.724Y-127.
X205.331Y-112.509
X207.264Y-124.46
X207.264Y-127.
X207.871Y-112.509
X209.804Y-124.46
X209.804Y-127.
X210.411Y-112.509
X212.344Y-124.46
X212.344Y-127.
X212.951Y-112.509
X214.884Y-124.46
X214.884Y-127.
X215.491Y-112.509
X217.424Y-124.46
X217.424Y-127.
X218.031Y-112.509
X220.571Y-112.509
X223.111Y-112.509
X225.651Y-112.509
X228.191Y-112.509
X230.731Y-112.509
T6
X255.524Y-120.142
X255.524Y-132.182
T7
X163.322Y-39.624
X163.322Y-138.684
X258.572Y-39.624
X258.572Y-138.684
T8
X168.471Y-47.511
X168.471Y-112.509
X256.471Y-47.511
X256.471Y-112.509
T0
M30
