M48
;DRILL file {Pcbnew (2013-mar-13)-testing} date Mon 17 Jun 2013 23:55:21 ART
;FORMAT={-:-/ absolute / metric / decimal}
FMAT,2
METRIC,TZ
T1C0.635
T2C0.762
T3C0.813
T4C0.914
T5C1.000
T6C1.016
T7C1.524
T8C3.048
%
G90
G05
M71
T1
X30.325Y-126.275
X34.225Y-149.075
X35.85Y-126.475
X39.375Y-140.2
X40.056Y-35.484
X40.132Y-31.064
X41.199Y-45.085
X41.8Y-128.2
X42.35Y-112.95
X43.129Y-27.991
X43.7Y-141.8
X44.3Y-121.425
X45.075Y-63.75
X45.825Y-75.
X46.225Y-126.35
X46.225Y-133.475
X46.575Y-68.9
X46.625Y-112.95
X46.75Y-63.825
X47.8Y-35.2
X48.108Y-58.674
X48.25Y-140.35
X49.174Y-26.543
X49.85Y-70.525
X51.925Y-61.575
X57.025Y-128.875
X57.05Y-134.3
X59.25Y-134.4
X59.6Y-54.275
X61.392Y-74.727
X61.951Y-19.558
X62.2Y-128.575
X63.348Y-126.898
X64.25Y-134.2
X65.2Y-37.2
X66.15Y-121.075
X66.85Y-134.45
X66.875Y-50.475
X68.12Y-46.27
X68.175Y-119.575
X70.3Y-102.25
X70.942Y-126.721
X71.65Y-134.65
X72.Y-95.925
X72.2Y-46.44
X73.2Y-47.
X73.2Y-105.725
X74.2Y-48.8
X74.85Y-134.65
X75.05Y-128.575
X75.4Y-46.2
X76.2Y-108.025
X76.276Y-97.612
X77.6Y-46.7
X77.975Y-128.725
X78.562Y-56.896
X78.8Y-53.6
X78.9Y-32.25
X79.Y-41.
X79.096Y-103.886
X79.3Y-75.225
X79.6Y-62.875
X81.Y-51.3
X81.275Y-56.925
X81.575Y-122.9
X81.95Y-117.375
X82.Y-48.8
X82.6Y-43.7
X83.925Y-70.9
X84.375Y-75.6
X86.85Y-103.75
X87.6Y-44.1
X89.Y-104.025
X89.2Y-25.1
X92.1Y-98.075
X93.4Y-65.6
X96.215Y-86.512
X97.725Y-90.3
X99.2Y-104.375
X104.5Y-95.1
X107.4Y-65.4
T3
X22.485Y-124.625
X22.485Y-137.325
X27.565Y-124.625
X27.565Y-137.325
X43.6Y-148.93
X43.6Y-151.47
X43.6Y-154.93
X43.6Y-157.47
X82.7Y-38.93
X82.7Y-41.47
X83.083Y-67.97
X85.623Y-67.97
X87.7Y-39.03
X87.7Y-41.57
X88.163Y-67.97
X90.703Y-67.97
X93.243Y-67.97
X95.783Y-67.97
X99.492Y-68.021
X102.032Y-68.021
X104.572Y-68.021
X107.112Y-68.021
X109.652Y-68.021
T4
X59.695Y-112.705
X59.695Y-115.245
X59.92Y-63.93
X59.92Y-66.47
X62.235Y-112.705
X62.235Y-115.245
X62.46Y-63.93
X62.46Y-66.47
X64.775Y-112.705
X64.775Y-115.245
X65.Y-63.93
X65.Y-66.47
X67.315Y-112.705
X67.315Y-115.245
X67.54Y-63.93
X67.54Y-66.47
X69.855Y-112.705
X69.855Y-115.245
X70.08Y-63.93
X70.08Y-66.47
X72.395Y-112.705
X72.395Y-115.245
X74.935Y-112.705
X74.935Y-115.245
X77.475Y-112.705
X77.475Y-115.245
X80.015Y-112.705
X80.015Y-115.245
X82.555Y-112.705
X82.555Y-115.245
T5
X38.608Y-77.14
X38.76Y-100.228
X41.148Y-77.114
X41.3Y-100.228
X43.688Y-77.089
X43.84Y-100.228
X46.228Y-77.114
X46.38Y-100.228
X48.768Y-77.089
X48.92Y-100.228
X51.308Y-77.114
X51.46Y-100.254
X53.848Y-77.089
X54.Y-100.254
X56.388Y-77.089
X56.54Y-100.254
X58.928Y-77.089
X59.08Y-100.254
X61.468Y-77.089
X61.62Y-100.254
X64.008Y-77.089
X64.16Y-100.254
X66.548Y-77.089
X66.7Y-100.254
X69.088Y-77.089
X69.24Y-100.254
X71.628Y-77.114
X71.78Y-100.254
X74.168Y-77.089
X74.32Y-100.254
X76.708Y-77.089
X76.86Y-100.254
X79.248Y-77.089
X79.4Y-100.254
X81.788Y-77.114
X81.94Y-100.279
X84.328Y-77.089
X84.48Y-100.279
X86.868Y-77.064
X87.02Y-100.279
X89.408Y-77.089
X89.56Y-100.279
X91.948Y-77.089
X92.1Y-100.279
X94.463Y-77.089
X94.64Y-100.279
X97.003Y-77.089
X97.18Y-100.279
X99.543Y-77.089
X99.72Y-100.279
X102.083Y-77.089
X102.26Y-100.279
X104.648Y-77.089
X104.8Y-100.279
T6
X52.26Y-35.
X52.46Y-18.8
X52.46Y-24.2
X52.46Y-29.6
X54.8Y-35.
X55.Y-18.8
X55.Y-24.2
X55.Y-29.6
X57.34Y-35.
X57.54Y-18.8
X57.54Y-24.2
X57.54Y-29.6
T7
X22.9Y-143.86
X22.9Y-148.94
X34.72Y-19.8
X36.5Y-39.929
X36.5Y-45.009
X39.8Y-19.8
X44.88Y-19.8
T8
X18.4Y-18.
X19.175Y-167.35
X116.45Y-17.95
X117.075Y-168.025
T2
X49.294Y-167.029G85X49.294Y-168.299
G05
X51.326Y-138.708G85X50.818Y-138.708
G05
X57.93Y-140.232G85X57.93Y-140.74
G05
X65.55Y-140.232G85X65.55Y-140.74
G05
X74.948Y-140.994G85X74.44Y-140.994
G05
X76.726Y-167.664G85X76.726Y-168.172
G05
T0
M30
