G04 (created by PCBNEW (2013-mar-13)-testing) date Mon 10 Jun 2013 12:34:58 ART*
%MOIN*%
G04 Gerber Fmt 3.4, Leading zero omitted, Abs format*
%FSLAX34Y34*%
G01*
G70*
G90*
G04 APERTURE LIST*
%ADD10C,0.005906*%
%ADD11C,0.005000*%
%ADD12C,0.003900*%
%ADD13C,0.015000*%
%ADD14C,0.010000*%
%ADD15C,0.006000*%
%ADD16C,0.012000*%
%ADD17C,0.012500*%
%ADD18C,0.004700*%
%ADD19C,0.004300*%
%ADD20C,0.003500*%
%ADD21C,0.008000*%
%ADD22C,0.004921*%
%ADD23C,0.010700*%
G04 APERTURE END LIST*
G54D10*
G54D11*
X16545Y-25052D02*
X16545Y-25852D01*
X16495Y-26002D02*
X16495Y-24852D01*
X16445Y-24752D02*
X16445Y-26152D01*
X16395Y-26302D02*
X16395Y-24602D01*
X16345Y-24502D02*
X16345Y-26402D01*
X16295Y-26452D02*
X16295Y-24452D01*
X16595Y-25452D02*
G75*
G03X16595Y-25452I-1949J0D01*
G74*
G01*
X16695Y-27502D02*
X16695Y-23402D01*
X16695Y-23402D02*
X12895Y-23402D01*
X12895Y-23402D02*
X12595Y-23702D01*
X12595Y-23702D02*
X12595Y-27202D01*
X12595Y-27202D02*
X12895Y-27502D01*
X12895Y-27502D02*
X16695Y-27502D01*
X12845Y-25452D02*
X13145Y-25452D01*
X12995Y-25602D02*
X12995Y-25302D01*
G54D12*
X20306Y-52219D02*
G75*
G03X20306Y-52219I-50J0D01*
G74*
G01*
X19806Y-52219D02*
X20206Y-52219D01*
X20206Y-52219D02*
X20206Y-52819D01*
X20206Y-52819D02*
X19806Y-52819D01*
X19406Y-52819D02*
X19006Y-52819D01*
X19006Y-52819D02*
X19006Y-52219D01*
X19006Y-52219D02*
X19406Y-52219D01*
X15188Y-60329D02*
G75*
G03X15188Y-60329I-50J0D01*
G74*
G01*
X14688Y-60329D02*
X15088Y-60329D01*
X15088Y-60329D02*
X15088Y-60929D01*
X15088Y-60929D02*
X14688Y-60929D01*
X14288Y-60929D02*
X13888Y-60929D01*
X13888Y-60929D02*
X13888Y-60329D01*
X13888Y-60329D02*
X14288Y-60329D01*
X15188Y-59070D02*
G75*
G03X15188Y-59070I-50J0D01*
G74*
G01*
X14688Y-59070D02*
X15088Y-59070D01*
X15088Y-59070D02*
X15088Y-59670D01*
X15088Y-59670D02*
X14688Y-59670D01*
X14288Y-59670D02*
X13888Y-59670D01*
X13888Y-59670D02*
X13888Y-59070D01*
X13888Y-59070D02*
X14288Y-59070D01*
X34287Y-23917D02*
G75*
G03X34287Y-23917I-50J0D01*
G74*
G01*
X34237Y-23467D02*
X34237Y-23867D01*
X34237Y-23867D02*
X33637Y-23867D01*
X33637Y-23867D02*
X33637Y-23467D01*
X33637Y-23067D02*
X33637Y-22667D01*
X33637Y-22667D02*
X34237Y-22667D01*
X34237Y-22667D02*
X34237Y-23067D01*
G54D11*
X13745Y-56757D02*
X13745Y-57307D01*
X13795Y-56657D02*
X13795Y-57357D01*
X13845Y-56507D02*
X13845Y-57507D01*
X13895Y-57557D02*
X13895Y-56457D01*
X13945Y-56407D02*
X13945Y-57607D01*
X13995Y-57657D02*
X13995Y-56357D01*
X14045Y-56307D02*
X14045Y-57707D01*
X15595Y-57007D02*
G75*
G03X15595Y-57007I-950J0D01*
G74*
G01*
X13595Y-55957D02*
X15395Y-55957D01*
X15395Y-55957D02*
X15695Y-56257D01*
X15695Y-56257D02*
X15695Y-57757D01*
X15695Y-57757D02*
X15395Y-58057D01*
X15395Y-58057D02*
X13595Y-58057D01*
X13595Y-58057D02*
X13595Y-55957D01*
X15495Y-57007D02*
X15195Y-57007D01*
X15345Y-56857D02*
X15345Y-57157D01*
G54D12*
X19006Y-51914D02*
G75*
G03X19006Y-51914I-50J0D01*
G74*
G01*
X19406Y-51914D02*
X19006Y-51914D01*
X19006Y-51914D02*
X19006Y-51314D01*
X19006Y-51314D02*
X19406Y-51314D01*
X19806Y-51314D02*
X20206Y-51314D01*
X20206Y-51314D02*
X20206Y-51914D01*
X20206Y-51914D02*
X19806Y-51914D01*
G54D11*
X33590Y-10181D02*
X33590Y-9581D01*
X33540Y-9431D02*
X33540Y-10331D01*
X33490Y-10431D02*
X33490Y-9331D01*
X33440Y-9231D02*
X33440Y-10531D01*
X33390Y-10581D02*
X33390Y-9181D01*
X33640Y-9881D02*
G75*
G03X33640Y-9881I-1200J0D01*
G74*
G01*
X33740Y-11181D02*
X33740Y-8581D01*
X33740Y-8581D02*
X31440Y-8581D01*
X31440Y-8581D02*
X31140Y-8881D01*
X31140Y-8881D02*
X31140Y-10881D01*
X31140Y-10881D02*
X31440Y-11181D01*
X31440Y-11181D02*
X33740Y-11181D01*
X31590Y-9881D02*
X31890Y-9881D01*
X31740Y-10031D02*
X31740Y-9731D01*
G54D12*
X31801Y-12386D02*
G75*
G03X31801Y-12386I-50J0D01*
G74*
G01*
X32201Y-12386D02*
X31801Y-12386D01*
X31801Y-12386D02*
X31801Y-11786D01*
X31801Y-11786D02*
X32201Y-11786D01*
X32601Y-11786D02*
X33001Y-11786D01*
X33001Y-11786D02*
X33001Y-12386D01*
X33001Y-12386D02*
X32601Y-12386D01*
G54D13*
X14685Y-12559D02*
X14685Y-10590D01*
X14685Y-10590D02*
X12716Y-10590D01*
X12716Y-10590D02*
X12716Y-12559D01*
X12716Y-12559D02*
X14685Y-12559D01*
G54D14*
X34027Y-16586D02*
X35027Y-16586D01*
G54D15*
X34911Y-15505D02*
G75*
G03X34527Y-15366I-384J-460D01*
G74*
G01*
X34527Y-15366D02*
G75*
G03X34129Y-15518I0J-599D01*
G74*
G01*
X34527Y-16565D02*
G75*
G03X34917Y-16421I0J599D01*
G74*
G01*
X34143Y-16427D02*
G75*
G03X34527Y-16566I384J460D01*
G74*
G01*
X34876Y-16454D02*
G75*
G03X35127Y-15966I-349J487D01*
G74*
G01*
X35127Y-15965D02*
G75*
G03X34887Y-15486I-600J0D01*
G74*
G01*
X33928Y-15966D02*
G75*
G03X34159Y-16439I599J0D01*
G74*
G01*
X34158Y-15492D02*
G75*
G03X33927Y-15966I368J-473D01*
G74*
G01*
X34777Y-15966D02*
G75*
G03X34527Y-15716I-250J0D01*
G74*
G01*
X34927Y-15966D02*
G75*
G03X34527Y-15566I-400J0D01*
G74*
G01*
X34277Y-15966D02*
G75*
G03X34527Y-16216I250J0D01*
G74*
G01*
X34127Y-15966D02*
G75*
G03X34527Y-16366I400J0D01*
G74*
G01*
G54D14*
X35040Y-16579D02*
G75*
G03X35327Y-15966I-513J613D01*
G74*
G01*
X35326Y-15965D02*
G75*
G03X34903Y-15261I-799J0D01*
G74*
G01*
X33728Y-15967D02*
G75*
G03X34011Y-16576I798J1D01*
G74*
G01*
X34129Y-15271D02*
G75*
G03X33727Y-15966I397J-694D01*
G74*
G01*
X34906Y-15261D02*
G75*
G03X34527Y-15166I-379J-704D01*
G74*
G01*
X34527Y-15166D02*
G75*
G03X34108Y-15285I0J-799D01*
G74*
G01*
X32059Y-16546D02*
X33059Y-16546D01*
G54D15*
X32943Y-15465D02*
G75*
G03X32559Y-15326I-384J-460D01*
G74*
G01*
X32558Y-15327D02*
G75*
G03X32161Y-15478I0J-599D01*
G74*
G01*
X32559Y-16526D02*
G75*
G03X32949Y-16381I0J599D01*
G74*
G01*
X32174Y-16387D02*
G75*
G03X32559Y-16526I384J460D01*
G74*
G01*
X32908Y-16414D02*
G75*
G03X33159Y-15926I-349J487D01*
G74*
G01*
X33159Y-15926D02*
G75*
G03X32919Y-15446I-600J0D01*
G74*
G01*
X31959Y-15926D02*
G75*
G03X32191Y-16399I599J0D01*
G74*
G01*
X32190Y-15453D02*
G75*
G03X31959Y-15926I368J-473D01*
G74*
G01*
X32809Y-15926D02*
G75*
G03X32559Y-15676I-250J0D01*
G74*
G01*
X32959Y-15926D02*
G75*
G03X32559Y-15526I-400J0D01*
G74*
G01*
X32309Y-15926D02*
G75*
G03X32559Y-16176I250J0D01*
G74*
G01*
X32159Y-15926D02*
G75*
G03X32559Y-16326I400J0D01*
G74*
G01*
G54D14*
X33072Y-16540D02*
G75*
G03X33359Y-15926I-513J613D01*
G74*
G01*
X33358Y-15926D02*
G75*
G03X32935Y-15221I-799J0D01*
G74*
G01*
X31760Y-15927D02*
G75*
G03X32043Y-16536I798J1D01*
G74*
G01*
X32161Y-15232D02*
G75*
G03X31759Y-15926I397J-694D01*
G74*
G01*
X32938Y-15222D02*
G75*
G03X32559Y-15126I-379J-704D01*
G74*
G01*
X32559Y-15127D02*
G75*
G03X32140Y-15245I0J-799D01*
G74*
G01*
X17665Y-60776D02*
X16665Y-60776D01*
G54D15*
X16781Y-61857D02*
G75*
G03X17165Y-61996I384J460D01*
G74*
G01*
X17165Y-61995D02*
G75*
G03X17563Y-61844I0J599D01*
G74*
G01*
X17165Y-60796D02*
G75*
G03X16775Y-60941I0J-599D01*
G74*
G01*
X17549Y-60935D02*
G75*
G03X17165Y-60796I-384J-460D01*
G74*
G01*
X16816Y-60908D02*
G75*
G03X16565Y-61396I349J-487D01*
G74*
G01*
X16565Y-61396D02*
G75*
G03X16805Y-61876I600J0D01*
G74*
G01*
X17764Y-61395D02*
G75*
G03X17533Y-60923I-599J0D01*
G74*
G01*
X17533Y-61869D02*
G75*
G03X17765Y-61396I-368J473D01*
G74*
G01*
X16915Y-61396D02*
G75*
G03X17165Y-61646I250J0D01*
G74*
G01*
X16765Y-61396D02*
G75*
G03X17165Y-61796I400J0D01*
G74*
G01*
X17415Y-61396D02*
G75*
G03X17165Y-61146I-250J0D01*
G74*
G01*
X17565Y-61396D02*
G75*
G03X17165Y-60996I-400J0D01*
G74*
G01*
G54D14*
X16652Y-60782D02*
G75*
G03X16365Y-61396I513J-613D01*
G74*
G01*
X16366Y-61396D02*
G75*
G03X16789Y-62101I799J0D01*
G74*
G01*
X17964Y-61395D02*
G75*
G03X17681Y-60786I-798J-1D01*
G74*
G01*
X17562Y-62090D02*
G75*
G03X17965Y-61396I-397J694D01*
G74*
G01*
X16786Y-62100D02*
G75*
G03X17165Y-62196I379J704D01*
G74*
G01*
X17165Y-62195D02*
G75*
G03X17584Y-62077I0J799D01*
G74*
G01*
X16665Y-59853D02*
X17665Y-59853D01*
G54D15*
X17549Y-58772D02*
G75*
G03X17165Y-58633I-384J-460D01*
G74*
G01*
X17165Y-58634D02*
G75*
G03X16767Y-58785I0J-599D01*
G74*
G01*
X17165Y-59833D02*
G75*
G03X17555Y-59688I0J599D01*
G74*
G01*
X16781Y-59694D02*
G75*
G03X17165Y-59833I384J460D01*
G74*
G01*
X17514Y-59721D02*
G75*
G03X17765Y-59233I-349J487D01*
G74*
G01*
X17765Y-59233D02*
G75*
G03X17525Y-58753I-600J0D01*
G74*
G01*
X16566Y-59234D02*
G75*
G03X16797Y-59706I599J0D01*
G74*
G01*
X16796Y-58760D02*
G75*
G03X16565Y-59233I368J-473D01*
G74*
G01*
X17415Y-59233D02*
G75*
G03X17165Y-58983I-250J0D01*
G74*
G01*
X17565Y-59233D02*
G75*
G03X17165Y-58833I-400J0D01*
G74*
G01*
X16915Y-59233D02*
G75*
G03X17165Y-59483I250J0D01*
G74*
G01*
X16765Y-59233D02*
G75*
G03X17165Y-59633I400J0D01*
G74*
G01*
G54D14*
X17678Y-59847D02*
G75*
G03X17965Y-59233I-513J613D01*
G74*
G01*
X17964Y-59233D02*
G75*
G03X17541Y-58528I-799J0D01*
G74*
G01*
X16366Y-59234D02*
G75*
G03X16649Y-59843I798J1D01*
G74*
G01*
X16767Y-58539D02*
G75*
G03X16365Y-59233I397J-694D01*
G74*
G01*
X17544Y-58529D02*
G75*
G03X17165Y-58433I-379J-704D01*
G74*
G01*
X17165Y-58434D02*
G75*
G03X16746Y-58552I0J-799D01*
G74*
G01*
G54D16*
X8015Y-59637D02*
X8015Y-55637D01*
X7515Y-59637D02*
X10515Y-59637D01*
X10515Y-59637D02*
X10515Y-55637D01*
X10515Y-55637D02*
X7515Y-55637D01*
X7515Y-55637D02*
X7515Y-59637D01*
G54D12*
X33184Y-22539D02*
G75*
G03X33184Y-22539I-50J0D01*
G74*
G01*
X33134Y-22089D02*
X33134Y-22489D01*
X33134Y-22489D02*
X32534Y-22489D01*
X32534Y-22489D02*
X32534Y-22089D01*
X32534Y-21689D02*
X32534Y-21289D01*
X32534Y-21289D02*
X33134Y-21289D01*
X33134Y-21289D02*
X33134Y-21689D01*
X33687Y-21239D02*
G75*
G03X33687Y-21239I-50J0D01*
G74*
G01*
X33637Y-21689D02*
X33637Y-21289D01*
X33637Y-21289D02*
X34237Y-21289D01*
X34237Y-21289D02*
X34237Y-21689D01*
X34237Y-22089D02*
X34237Y-22489D01*
X34237Y-22489D02*
X33637Y-22489D01*
X33637Y-22489D02*
X33637Y-22089D01*
X34916Y-12421D02*
G75*
G03X34916Y-12421I-50J0D01*
G74*
G01*
X34866Y-11971D02*
X34866Y-12371D01*
X34866Y-12371D02*
X34266Y-12371D01*
X34266Y-12371D02*
X34266Y-11971D01*
X34266Y-11571D02*
X34266Y-11171D01*
X34266Y-11171D02*
X34866Y-11171D01*
X34866Y-11171D02*
X34866Y-11571D01*
X35861Y-12421D02*
G75*
G03X35861Y-12421I-50J0D01*
G74*
G01*
X35811Y-11971D02*
X35811Y-12371D01*
X35811Y-12371D02*
X35211Y-12371D01*
X35211Y-12371D02*
X35211Y-11971D01*
X35211Y-11571D02*
X35211Y-11171D01*
X35211Y-11171D02*
X35811Y-11171D01*
X35811Y-11171D02*
X35811Y-11571D01*
X34316Y-13090D02*
G75*
G03X34316Y-13090I-50J0D01*
G74*
G01*
X34266Y-13540D02*
X34266Y-13140D01*
X34266Y-13140D02*
X34866Y-13140D01*
X34866Y-13140D02*
X34866Y-13540D01*
X34866Y-13940D02*
X34866Y-14340D01*
X34866Y-14340D02*
X34266Y-14340D01*
X34266Y-14340D02*
X34266Y-13940D01*
X32309Y-13090D02*
G75*
G03X32309Y-13090I-50J0D01*
G74*
G01*
X32259Y-13540D02*
X32259Y-13140D01*
X32259Y-13140D02*
X32859Y-13140D01*
X32859Y-13140D02*
X32859Y-13540D01*
X32859Y-13940D02*
X32859Y-14340D01*
X32859Y-14340D02*
X32259Y-14340D01*
X32259Y-14340D02*
X32259Y-13940D01*
X21088Y-51161D02*
G75*
G03X21088Y-51161I-50J0D01*
G74*
G01*
X21038Y-51611D02*
X21038Y-51211D01*
X21038Y-51211D02*
X21638Y-51211D01*
X21638Y-51211D02*
X21638Y-51611D01*
X21638Y-52011D02*
X21638Y-52411D01*
X21638Y-52411D02*
X21038Y-52411D01*
X21038Y-52411D02*
X21038Y-52011D01*
X23135Y-51161D02*
G75*
G03X23135Y-51161I-50J0D01*
G74*
G01*
X23085Y-51611D02*
X23085Y-51211D01*
X23085Y-51211D02*
X23685Y-51211D01*
X23685Y-51211D02*
X23685Y-51611D01*
X23685Y-52011D02*
X23685Y-52411D01*
X23685Y-52411D02*
X23085Y-52411D01*
X23085Y-52411D02*
X23085Y-52011D01*
X26994Y-51239D02*
G75*
G03X26994Y-51239I-50J0D01*
G74*
G01*
X26944Y-51689D02*
X26944Y-51289D01*
X26944Y-51289D02*
X27544Y-51289D01*
X27544Y-51289D02*
X27544Y-51689D01*
X27544Y-52089D02*
X27544Y-52489D01*
X27544Y-52489D02*
X26944Y-52489D01*
X26944Y-52489D02*
X26944Y-52089D01*
X27860Y-51239D02*
G75*
G03X27860Y-51239I-50J0D01*
G74*
G01*
X27810Y-51689D02*
X27810Y-51289D01*
X27810Y-51289D02*
X28410Y-51289D01*
X28410Y-51289D02*
X28410Y-51689D01*
X28410Y-52089D02*
X28410Y-52489D01*
X28410Y-52489D02*
X27810Y-52489D01*
X27810Y-52489D02*
X27810Y-52089D01*
X30379Y-51318D02*
G75*
G03X30379Y-51318I-50J0D01*
G74*
G01*
X30329Y-51768D02*
X30329Y-51368D01*
X30329Y-51368D02*
X30929Y-51368D01*
X30929Y-51368D02*
X30929Y-51768D01*
X30929Y-52168D02*
X30929Y-52568D01*
X30929Y-52568D02*
X30329Y-52568D01*
X30329Y-52568D02*
X30329Y-52168D01*
X29277Y-51239D02*
G75*
G03X29277Y-51239I-50J0D01*
G74*
G01*
X29227Y-51689D02*
X29227Y-51289D01*
X29227Y-51289D02*
X29827Y-51289D01*
X29827Y-51289D02*
X29827Y-51689D01*
X29827Y-52089D02*
X29827Y-52489D01*
X29827Y-52489D02*
X29227Y-52489D01*
X29227Y-52489D02*
X29227Y-52089D01*
X26049Y-51239D02*
G75*
G03X26049Y-51239I-50J0D01*
G74*
G01*
X25999Y-51689D02*
X25999Y-51289D01*
X25999Y-51289D02*
X26599Y-51289D01*
X26599Y-51289D02*
X26599Y-51689D01*
X26599Y-52089D02*
X26599Y-52489D01*
X26599Y-52489D02*
X25999Y-52489D01*
X25999Y-52489D02*
X25999Y-52089D01*
X24238Y-51239D02*
G75*
G03X24238Y-51239I-50J0D01*
G74*
G01*
X24188Y-51689D02*
X24188Y-51289D01*
X24188Y-51289D02*
X24788Y-51289D01*
X24788Y-51289D02*
X24788Y-51689D01*
X24788Y-52089D02*
X24788Y-52489D01*
X24788Y-52489D02*
X24188Y-52489D01*
X24188Y-52489D02*
X24188Y-52089D01*
X22190Y-51161D02*
G75*
G03X22190Y-51161I-50J0D01*
G74*
G01*
X22140Y-51611D02*
X22140Y-51211D01*
X22140Y-51211D02*
X22740Y-51211D01*
X22740Y-51211D02*
X22740Y-51611D01*
X22740Y-52011D02*
X22740Y-52411D01*
X22740Y-52411D02*
X22140Y-52411D01*
X22140Y-52411D02*
X22140Y-52011D01*
X15188Y-61511D02*
G75*
G03X15188Y-61511I-50J0D01*
G74*
G01*
X14688Y-61511D02*
X15088Y-61511D01*
X15088Y-61511D02*
X15088Y-62111D01*
X15088Y-62111D02*
X14688Y-62111D01*
X14288Y-62111D02*
X13888Y-62111D01*
X13888Y-62111D02*
X13888Y-61511D01*
X13888Y-61511D02*
X14288Y-61511D01*
X17475Y-57697D02*
G75*
G03X17475Y-57697I-50J0D01*
G74*
G01*
X17425Y-57247D02*
X17425Y-57647D01*
X17425Y-57647D02*
X16825Y-57647D01*
X16825Y-57647D02*
X16825Y-57247D01*
X16825Y-56847D02*
X16825Y-56447D01*
X16825Y-56447D02*
X17425Y-56447D01*
X17425Y-56447D02*
X17425Y-56847D01*
X14243Y-48912D02*
G75*
G03X14243Y-48912I-50J0D01*
G74*
G01*
X13743Y-48912D02*
X14143Y-48912D01*
X14143Y-48912D02*
X14143Y-49512D01*
X14143Y-49512D02*
X13743Y-49512D01*
X13343Y-49512D02*
X12943Y-49512D01*
X12943Y-49512D02*
X12943Y-48912D01*
X12943Y-48912D02*
X13343Y-48912D01*
X14322Y-50093D02*
G75*
G03X14322Y-50093I-50J0D01*
G74*
G01*
X13822Y-50093D02*
X14222Y-50093D01*
X14222Y-50093D02*
X14222Y-50693D01*
X14222Y-50693D02*
X13822Y-50693D01*
X13422Y-50693D02*
X13022Y-50693D01*
X13022Y-50693D02*
X13022Y-50093D01*
X13022Y-50093D02*
X13422Y-50093D01*
G54D14*
X11655Y-51564D02*
G75*
G03X11655Y-51564I-1802J0D01*
G74*
G01*
X7352Y-54064D02*
X7352Y-49064D01*
X7352Y-49064D02*
X12352Y-49064D01*
X12352Y-49064D02*
X12352Y-54064D01*
X12352Y-54064D02*
X7352Y-54064D01*
G54D13*
X27362Y-17677D02*
X29330Y-17677D01*
X29330Y-17677D02*
X29330Y-15708D01*
X29330Y-15708D02*
X27362Y-15708D01*
X27362Y-15708D02*
X27362Y-17677D01*
G54D11*
X28141Y-18951D02*
G75*
G03X28141Y-18951I-141J0D01*
G74*
G01*
X29100Y-18751D02*
X29100Y-19051D01*
X29100Y-19051D02*
X28600Y-19051D01*
X28600Y-19051D02*
X28600Y-18751D01*
X27800Y-22801D02*
X27800Y-18751D01*
X29900Y-18751D02*
X29900Y-22801D01*
X29900Y-18751D02*
X27800Y-18751D01*
X29900Y-22801D02*
X27800Y-22801D01*
X28631Y-12357D02*
X28631Y-13807D01*
X28631Y-13807D02*
X29431Y-13807D01*
X29431Y-13807D02*
X29431Y-12357D01*
X27631Y-12357D02*
X27631Y-13807D01*
X27631Y-13807D02*
X28431Y-13807D01*
X28431Y-13807D02*
X28431Y-12357D01*
X26631Y-12357D02*
X26631Y-13807D01*
X26631Y-13807D02*
X27431Y-13807D01*
X27431Y-13807D02*
X27431Y-12357D01*
X25931Y-12357D02*
X30131Y-12357D01*
X30131Y-12357D02*
X30131Y-8357D01*
X30131Y-8357D02*
X25931Y-8357D01*
X25931Y-8357D02*
X25931Y-12357D01*
G54D17*
X30807Y-54909D02*
X30807Y-53409D01*
X30807Y-53409D02*
X19307Y-53409D01*
X19307Y-53409D02*
X19307Y-54909D01*
X30807Y-66409D02*
X30807Y-54909D01*
X30807Y-54909D02*
X19307Y-54909D01*
X19307Y-66409D02*
X19307Y-54909D01*
X30807Y-66409D02*
X19307Y-66409D01*
G54D10*
X15905Y-50078D02*
X15905Y-49527D01*
X15905Y-49527D02*
X14724Y-49527D01*
X14724Y-49527D02*
X14724Y-50078D01*
X14724Y-50078D02*
X15905Y-50078D01*
G54D16*
X31890Y-23969D02*
X31890Y-27369D01*
X31890Y-27369D02*
X19290Y-27369D01*
X19290Y-23969D02*
X31890Y-23969D01*
X22090Y-27069D02*
X22090Y-24269D01*
X29090Y-27069D02*
X29090Y-24269D01*
X24590Y-27369D02*
X24590Y-27069D01*
X24590Y-27069D02*
X22090Y-27069D01*
X22090Y-24269D02*
X29090Y-24269D01*
X29090Y-27069D02*
X26590Y-27069D01*
X26590Y-27069D02*
X26590Y-27369D01*
X19290Y-27369D02*
X19290Y-23969D01*
X22990Y-26169D02*
X22490Y-25869D01*
X22490Y-25869D02*
X22490Y-26469D01*
X22490Y-26469D02*
X22990Y-26169D01*
X28701Y-43172D02*
X28701Y-43472D01*
X28701Y-43472D02*
X34001Y-43472D01*
X34001Y-43472D02*
X34001Y-46272D01*
X34001Y-46272D02*
X22001Y-46272D01*
X22001Y-46272D02*
X22001Y-43472D01*
X22001Y-43472D02*
X27301Y-43472D01*
X27301Y-43472D02*
X27301Y-43172D01*
X33101Y-44372D02*
X33601Y-44672D01*
X33601Y-44672D02*
X33601Y-44072D01*
X33601Y-44072D02*
X33101Y-44372D01*
X36801Y-46572D02*
X36801Y-43172D01*
X36801Y-43172D02*
X19201Y-43172D01*
X19201Y-43172D02*
X19201Y-46572D01*
X19201Y-46572D02*
X36801Y-46572D01*
G54D12*
X17511Y-28184D02*
G75*
G03X17511Y-28184I-50J0D01*
G74*
G01*
X17011Y-28184D02*
X17411Y-28184D01*
X17411Y-28184D02*
X17411Y-28784D01*
X17411Y-28784D02*
X17011Y-28784D01*
X16611Y-28784D02*
X16211Y-28784D01*
X16211Y-28784D02*
X16211Y-28184D01*
X16211Y-28184D02*
X16611Y-28184D01*
G54D16*
X18669Y-6295D02*
X18669Y-9295D01*
X12669Y-6295D02*
X12669Y-9295D01*
X18669Y-6795D02*
X12669Y-6795D01*
X18669Y-9295D02*
X12669Y-9295D01*
X18669Y-6295D02*
X12669Y-6295D01*
G54D11*
X18576Y-15422D02*
X19376Y-15422D01*
X19526Y-15472D02*
X18376Y-15472D01*
X18276Y-15522D02*
X19676Y-15522D01*
X19826Y-15572D02*
X18126Y-15572D01*
X18026Y-15622D02*
X19926Y-15622D01*
X19976Y-15672D02*
X17976Y-15672D01*
X20926Y-17322D02*
G75*
G03X20926Y-17322I-1950J0D01*
G74*
G01*
X21026Y-15272D02*
X16926Y-15272D01*
X16926Y-15272D02*
X16926Y-19072D01*
X16926Y-19072D02*
X17226Y-19372D01*
X17226Y-19372D02*
X20726Y-19372D01*
X20726Y-19372D02*
X21026Y-19072D01*
X21026Y-19072D02*
X21026Y-15272D01*
X18976Y-19122D02*
X18976Y-18822D01*
X19126Y-18972D02*
X18826Y-18972D01*
X22907Y-15422D02*
X23707Y-15422D01*
X23857Y-15472D02*
X22707Y-15472D01*
X22607Y-15522D02*
X24007Y-15522D01*
X24157Y-15572D02*
X22457Y-15572D01*
X22357Y-15622D02*
X24257Y-15622D01*
X24307Y-15672D02*
X22307Y-15672D01*
X25257Y-17322D02*
G75*
G03X25257Y-17322I-1950J0D01*
G74*
G01*
X25357Y-15272D02*
X21257Y-15272D01*
X21257Y-15272D02*
X21257Y-19072D01*
X21257Y-19072D02*
X21557Y-19372D01*
X21557Y-19372D02*
X25057Y-19372D01*
X25057Y-19372D02*
X25357Y-19072D01*
X25357Y-19072D02*
X25357Y-15272D01*
X23307Y-19122D02*
X23307Y-18822D01*
X23457Y-18972D02*
X23157Y-18972D01*
X16545Y-20741D02*
X16545Y-21541D01*
X16495Y-21691D02*
X16495Y-20541D01*
X16445Y-20441D02*
X16445Y-21841D01*
X16395Y-21991D02*
X16395Y-20291D01*
X16345Y-20191D02*
X16345Y-22091D01*
X16295Y-22141D02*
X16295Y-20141D01*
X16595Y-21141D02*
G75*
G03X16595Y-21141I-1949J0D01*
G74*
G01*
X16695Y-23191D02*
X16695Y-19091D01*
X16695Y-19091D02*
X12895Y-19091D01*
X12895Y-19091D02*
X12595Y-19391D01*
X12595Y-19391D02*
X12595Y-22891D01*
X12595Y-22891D02*
X12895Y-23191D01*
X12895Y-23191D02*
X16695Y-23191D01*
X12845Y-21141D02*
X13145Y-21141D01*
X12995Y-21291D02*
X12995Y-20991D01*
G54D12*
X24670Y-12303D02*
G75*
G03X24670Y-12303I-50J0D01*
G74*
G01*
X24620Y-11853D02*
X24620Y-12253D01*
X24620Y-12253D02*
X24020Y-12253D01*
X24020Y-12253D02*
X24020Y-11853D01*
X24020Y-11453D02*
X24020Y-11053D01*
X24020Y-11053D02*
X24620Y-11053D01*
X24620Y-11053D02*
X24620Y-11453D01*
X24159Y-9192D02*
G75*
G03X24159Y-9192I-50J0D01*
G74*
G01*
X24109Y-9642D02*
X24109Y-9242D01*
X24109Y-9242D02*
X24709Y-9242D01*
X24709Y-9242D02*
X24709Y-9642D01*
X24709Y-10042D02*
X24709Y-10442D01*
X24709Y-10442D02*
X24109Y-10442D01*
X24109Y-10442D02*
X24109Y-10042D01*
G54D13*
X19653Y-10903D02*
X19653Y-10653D01*
X19653Y-10653D02*
X23653Y-10653D01*
X23653Y-10653D02*
X23653Y-10903D01*
X19653Y-12403D02*
X19653Y-10903D01*
X19653Y-10903D02*
X23653Y-10903D01*
X23653Y-10903D02*
X23653Y-12403D01*
X23653Y-12403D02*
X19653Y-12403D01*
X19653Y-6651D02*
X19653Y-6401D01*
X19653Y-6401D02*
X23653Y-6401D01*
X23653Y-6401D02*
X23653Y-6651D01*
X19653Y-8151D02*
X19653Y-6651D01*
X19653Y-6651D02*
X23653Y-6651D01*
X23653Y-6651D02*
X23653Y-8151D01*
X23653Y-8151D02*
X19653Y-8151D01*
X8449Y-65885D02*
G75*
G03X8449Y-65885I-899J0D01*
G74*
G01*
X46992Y-66151D02*
G75*
G03X46992Y-66151I-900J0D01*
G74*
G01*
X46746Y-7066D02*
G75*
G03X46746Y-7066I-900J0D01*
G74*
G01*
X8144Y-7086D02*
G75*
G03X8144Y-7086I-900J0D01*
G74*
G01*
X19653Y-8777D02*
X19653Y-8527D01*
X19653Y-8527D02*
X23653Y-8527D01*
X23653Y-8527D02*
X23653Y-8777D01*
X19653Y-10277D02*
X19653Y-8777D01*
X19653Y-8777D02*
X23653Y-8777D01*
X23653Y-8777D02*
X23653Y-10277D01*
X23653Y-10277D02*
X19653Y-10277D01*
X19574Y-13029D02*
X19574Y-12779D01*
X19574Y-12779D02*
X23574Y-12779D01*
X23574Y-12779D02*
X23574Y-13029D01*
X19574Y-14529D02*
X19574Y-13029D01*
X19574Y-13029D02*
X23574Y-13029D01*
X23574Y-13029D02*
X23574Y-14529D01*
X23574Y-14529D02*
X19574Y-14529D01*
G54D16*
X38210Y-26260D02*
X38210Y-27260D01*
X38210Y-27260D02*
X32210Y-27260D01*
X32210Y-27260D02*
X32210Y-26260D01*
X32210Y-26260D02*
X38210Y-26260D01*
X37210Y-26260D02*
X37210Y-27260D01*
X43670Y-26280D02*
X43670Y-27280D01*
X43670Y-27280D02*
X38670Y-27280D01*
X38670Y-27280D02*
X38670Y-26280D01*
X38670Y-26280D02*
X43670Y-26280D01*
X42670Y-26280D02*
X42670Y-27280D01*
X13370Y-18720D02*
X13370Y-14720D01*
X12870Y-18720D02*
X15870Y-18720D01*
X15870Y-18720D02*
X15870Y-14720D01*
X15870Y-14720D02*
X12870Y-14720D01*
X12870Y-14720D02*
X12870Y-18720D01*
G54D10*
X14800Y-41836D02*
X42359Y-41836D01*
X42359Y-41836D02*
X42359Y-28057D01*
X42359Y-28057D02*
X-12365Y-28057D01*
X-12365Y-28057D02*
X-12365Y-41836D01*
X-12365Y-41836D02*
X14800Y-41836D01*
G54D18*
X14519Y-27823D02*
X14509Y-27832D01*
X14481Y-27841D01*
X14462Y-27841D01*
X14434Y-27832D01*
X14415Y-27813D01*
X14406Y-27794D01*
X14397Y-27757D01*
X14397Y-27729D01*
X14406Y-27691D01*
X14415Y-27673D01*
X14434Y-27654D01*
X14462Y-27644D01*
X14481Y-27644D01*
X14509Y-27654D01*
X14519Y-27663D01*
X14706Y-27841D02*
X14594Y-27841D01*
X14650Y-27841D02*
X14650Y-27644D01*
X14631Y-27673D01*
X14612Y-27691D01*
X14594Y-27701D01*
X14772Y-27644D02*
X14894Y-27644D01*
X14828Y-27719D01*
X14856Y-27719D01*
X14875Y-27729D01*
X14884Y-27738D01*
X14894Y-27757D01*
X14894Y-27804D01*
X14884Y-27823D01*
X14875Y-27832D01*
X14856Y-27841D01*
X14800Y-27841D01*
X14781Y-27832D01*
X14772Y-27823D01*
G54D19*
X19226Y-52536D02*
X19348Y-52536D01*
X19282Y-52611D01*
X19310Y-52611D01*
X19329Y-52621D01*
X19338Y-52630D01*
X19348Y-52649D01*
X19348Y-52696D01*
X19338Y-52715D01*
X19329Y-52724D01*
X19310Y-52733D01*
X19254Y-52733D01*
X19235Y-52724D01*
X19226Y-52715D01*
X19432Y-52715D02*
X19442Y-52724D01*
X19432Y-52733D01*
X19423Y-52724D01*
X19432Y-52715D01*
X19432Y-52733D01*
X19507Y-52536D02*
X19629Y-52536D01*
X19564Y-52611D01*
X19592Y-52611D01*
X19610Y-52621D01*
X19620Y-52630D01*
X19629Y-52649D01*
X19629Y-52696D01*
X19620Y-52715D01*
X19610Y-52724D01*
X19592Y-52733D01*
X19535Y-52733D01*
X19517Y-52724D01*
X19507Y-52715D01*
X19714Y-52733D02*
X19714Y-52536D01*
X19732Y-52658D02*
X19789Y-52733D01*
X19789Y-52602D02*
X19714Y-52677D01*
X19976Y-52733D02*
X19864Y-52733D01*
X19920Y-52733D02*
X19920Y-52536D01*
X19901Y-52564D01*
X19883Y-52583D01*
X19864Y-52593D01*
X19667Y-52458D02*
X19601Y-52364D01*
X19554Y-52458D02*
X19554Y-52261D01*
X19629Y-52261D01*
X19648Y-52271D01*
X19657Y-52280D01*
X19667Y-52299D01*
X19667Y-52327D01*
X19657Y-52346D01*
X19648Y-52355D01*
X19629Y-52364D01*
X19554Y-52364D01*
X14455Y-60825D02*
X14445Y-60834D01*
X14417Y-60844D01*
X14399Y-60844D01*
X14370Y-60834D01*
X14352Y-60815D01*
X14342Y-60797D01*
X14333Y-60759D01*
X14333Y-60731D01*
X14342Y-60693D01*
X14352Y-60675D01*
X14370Y-60656D01*
X14399Y-60647D01*
X14417Y-60647D01*
X14445Y-60656D01*
X14455Y-60665D01*
X14642Y-60844D02*
X14530Y-60844D01*
X14586Y-60844D02*
X14586Y-60647D01*
X14567Y-60675D01*
X14549Y-60693D01*
X14530Y-60703D01*
X14183Y-60569D02*
X14070Y-60569D01*
X14127Y-60569D02*
X14127Y-60372D01*
X14108Y-60400D01*
X14089Y-60418D01*
X14070Y-60428D01*
X14305Y-60372D02*
X14324Y-60372D01*
X14342Y-60381D01*
X14352Y-60390D01*
X14361Y-60409D01*
X14370Y-60447D01*
X14370Y-60493D01*
X14361Y-60531D01*
X14352Y-60550D01*
X14342Y-60559D01*
X14324Y-60569D01*
X14305Y-60569D01*
X14286Y-60559D01*
X14277Y-60550D01*
X14267Y-60531D01*
X14258Y-60493D01*
X14258Y-60447D01*
X14267Y-60409D01*
X14277Y-60390D01*
X14286Y-60381D01*
X14305Y-60372D01*
X14492Y-60372D02*
X14511Y-60372D01*
X14530Y-60381D01*
X14539Y-60390D01*
X14549Y-60409D01*
X14558Y-60447D01*
X14558Y-60493D01*
X14549Y-60531D01*
X14539Y-60550D01*
X14530Y-60559D01*
X14511Y-60569D01*
X14492Y-60569D01*
X14474Y-60559D01*
X14464Y-60550D01*
X14455Y-60531D01*
X14445Y-60493D01*
X14445Y-60447D01*
X14455Y-60409D01*
X14464Y-60390D01*
X14474Y-60381D01*
X14492Y-60372D01*
X14642Y-60437D02*
X14642Y-60569D01*
X14642Y-60456D02*
X14652Y-60447D01*
X14671Y-60437D01*
X14699Y-60437D01*
X14718Y-60447D01*
X14727Y-60465D01*
X14727Y-60569D01*
X14886Y-60465D02*
X14821Y-60465D01*
X14821Y-60569D02*
X14821Y-60372D01*
X14915Y-60372D01*
X14455Y-59565D02*
X14445Y-59574D01*
X14417Y-59584D01*
X14399Y-59584D01*
X14370Y-59574D01*
X14352Y-59556D01*
X14342Y-59537D01*
X14333Y-59499D01*
X14333Y-59471D01*
X14342Y-59434D01*
X14352Y-59415D01*
X14370Y-59396D01*
X14399Y-59387D01*
X14417Y-59387D01*
X14445Y-59396D01*
X14455Y-59405D01*
X14530Y-59405D02*
X14539Y-59396D01*
X14558Y-59387D01*
X14605Y-59387D01*
X14624Y-59396D01*
X14633Y-59405D01*
X14642Y-59424D01*
X14642Y-59443D01*
X14633Y-59471D01*
X14521Y-59584D01*
X14642Y-59584D01*
X14183Y-59309D02*
X14070Y-59309D01*
X14127Y-59309D02*
X14127Y-59112D01*
X14108Y-59140D01*
X14089Y-59159D01*
X14070Y-59168D01*
X14305Y-59112D02*
X14324Y-59112D01*
X14342Y-59121D01*
X14352Y-59130D01*
X14361Y-59149D01*
X14370Y-59187D01*
X14370Y-59234D01*
X14361Y-59271D01*
X14352Y-59290D01*
X14342Y-59299D01*
X14324Y-59309D01*
X14305Y-59309D01*
X14286Y-59299D01*
X14277Y-59290D01*
X14267Y-59271D01*
X14258Y-59234D01*
X14258Y-59187D01*
X14267Y-59149D01*
X14277Y-59130D01*
X14286Y-59121D01*
X14305Y-59112D01*
X14492Y-59112D02*
X14511Y-59112D01*
X14530Y-59121D01*
X14539Y-59130D01*
X14549Y-59149D01*
X14558Y-59187D01*
X14558Y-59234D01*
X14549Y-59271D01*
X14539Y-59290D01*
X14530Y-59299D01*
X14511Y-59309D01*
X14492Y-59309D01*
X14474Y-59299D01*
X14464Y-59290D01*
X14455Y-59271D01*
X14445Y-59234D01*
X14445Y-59187D01*
X14455Y-59149D01*
X14464Y-59130D01*
X14474Y-59121D01*
X14492Y-59112D01*
X14642Y-59177D02*
X14642Y-59309D01*
X14642Y-59196D02*
X14652Y-59187D01*
X14671Y-59177D01*
X14699Y-59177D01*
X14718Y-59187D01*
X14727Y-59206D01*
X14727Y-59309D01*
X14886Y-59206D02*
X14821Y-59206D01*
X14821Y-59309D02*
X14821Y-59112D01*
X14915Y-59112D01*
X33882Y-23300D02*
X33891Y-23309D01*
X33901Y-23338D01*
X33901Y-23356D01*
X33891Y-23384D01*
X33872Y-23403D01*
X33854Y-23413D01*
X33816Y-23422D01*
X33788Y-23422D01*
X33751Y-23413D01*
X33732Y-23403D01*
X33713Y-23384D01*
X33704Y-23356D01*
X33704Y-23338D01*
X33713Y-23309D01*
X33722Y-23300D01*
X33704Y-23234D02*
X33704Y-23112D01*
X33779Y-23178D01*
X33779Y-23150D01*
X33788Y-23131D01*
X33797Y-23122D01*
X33816Y-23112D01*
X33863Y-23112D01*
X33882Y-23122D01*
X33891Y-23131D01*
X33901Y-23150D01*
X33901Y-23206D01*
X33891Y-23225D01*
X33882Y-23234D01*
X34176Y-23572D02*
X34176Y-23685D01*
X34176Y-23628D02*
X33979Y-23628D01*
X34007Y-23647D01*
X34026Y-23666D01*
X34035Y-23685D01*
X33979Y-23450D02*
X33979Y-23431D01*
X33988Y-23413D01*
X33997Y-23403D01*
X34016Y-23394D01*
X34054Y-23384D01*
X34101Y-23384D01*
X34138Y-23394D01*
X34157Y-23403D01*
X34166Y-23413D01*
X34176Y-23431D01*
X34176Y-23450D01*
X34166Y-23469D01*
X34157Y-23478D01*
X34138Y-23488D01*
X34101Y-23497D01*
X34054Y-23497D01*
X34016Y-23488D01*
X33997Y-23478D01*
X33988Y-23469D01*
X33979Y-23450D01*
X33979Y-23263D02*
X33979Y-23244D01*
X33988Y-23225D01*
X33997Y-23216D01*
X34016Y-23206D01*
X34054Y-23197D01*
X34101Y-23197D01*
X34138Y-23206D01*
X34157Y-23216D01*
X34166Y-23225D01*
X34176Y-23244D01*
X34176Y-23263D01*
X34166Y-23281D01*
X34157Y-23291D01*
X34138Y-23300D01*
X34101Y-23309D01*
X34054Y-23309D01*
X34016Y-23300D01*
X33997Y-23291D01*
X33988Y-23281D01*
X33979Y-23263D01*
X34044Y-23112D02*
X34176Y-23112D01*
X34063Y-23112D02*
X34054Y-23103D01*
X34044Y-23084D01*
X34044Y-23056D01*
X34054Y-23037D01*
X34072Y-23028D01*
X34176Y-23028D01*
X34072Y-22869D02*
X34072Y-22934D01*
X34176Y-22934D02*
X33979Y-22934D01*
X33979Y-22840D01*
G54D18*
X14612Y-55828D02*
X14603Y-55837D01*
X14575Y-55846D01*
X14556Y-55846D01*
X14528Y-55837D01*
X14509Y-55818D01*
X14500Y-55800D01*
X14490Y-55762D01*
X14490Y-55734D01*
X14500Y-55696D01*
X14509Y-55678D01*
X14528Y-55659D01*
X14556Y-55649D01*
X14575Y-55649D01*
X14603Y-55659D01*
X14612Y-55668D01*
X14781Y-55715D02*
X14781Y-55846D01*
X14734Y-55640D02*
X14687Y-55781D01*
X14809Y-55781D01*
G54D19*
X19573Y-51559D02*
X19564Y-51568D01*
X19535Y-51578D01*
X19517Y-51578D01*
X19489Y-51568D01*
X19470Y-51550D01*
X19460Y-51531D01*
X19451Y-51493D01*
X19451Y-51465D01*
X19460Y-51428D01*
X19470Y-51409D01*
X19489Y-51390D01*
X19517Y-51381D01*
X19535Y-51381D01*
X19564Y-51390D01*
X19573Y-51400D01*
X19639Y-51381D02*
X19770Y-51381D01*
X19686Y-51578D01*
X19489Y-51853D02*
X19376Y-51853D01*
X19432Y-51853D02*
X19432Y-51656D01*
X19413Y-51684D01*
X19395Y-51703D01*
X19376Y-51712D01*
X19657Y-51721D02*
X19657Y-51853D01*
X19573Y-51721D02*
X19573Y-51825D01*
X19582Y-51843D01*
X19601Y-51853D01*
X19629Y-51853D01*
X19648Y-51843D01*
X19657Y-51834D01*
X19817Y-51750D02*
X19751Y-51750D01*
X19751Y-51853D02*
X19751Y-51656D01*
X19845Y-51656D01*
G54D18*
X32408Y-11502D02*
X32398Y-11511D01*
X32370Y-11521D01*
X32351Y-11521D01*
X32323Y-11511D01*
X32304Y-11492D01*
X32295Y-11474D01*
X32286Y-11436D01*
X32286Y-11408D01*
X32295Y-11370D01*
X32304Y-11352D01*
X32323Y-11333D01*
X32351Y-11324D01*
X32370Y-11324D01*
X32398Y-11333D01*
X32408Y-11342D01*
X32520Y-11408D02*
X32501Y-11399D01*
X32492Y-11389D01*
X32483Y-11370D01*
X32483Y-11361D01*
X32492Y-11342D01*
X32501Y-11333D01*
X32520Y-11324D01*
X32558Y-11324D01*
X32576Y-11333D01*
X32586Y-11342D01*
X32595Y-11361D01*
X32595Y-11370D01*
X32586Y-11389D01*
X32576Y-11399D01*
X32558Y-11408D01*
X32520Y-11408D01*
X32501Y-11417D01*
X32492Y-11427D01*
X32483Y-11445D01*
X32483Y-11483D01*
X32492Y-11502D01*
X32501Y-11511D01*
X32520Y-11521D01*
X32558Y-11521D01*
X32576Y-11511D01*
X32586Y-11502D01*
X32595Y-11483D01*
X32595Y-11445D01*
X32586Y-11427D01*
X32576Y-11417D01*
X32558Y-11408D01*
G54D19*
X32368Y-12031D02*
X32359Y-12041D01*
X32331Y-12050D01*
X32312Y-12050D01*
X32284Y-12041D01*
X32265Y-12022D01*
X32256Y-12003D01*
X32246Y-11966D01*
X32246Y-11938D01*
X32256Y-11900D01*
X32265Y-11881D01*
X32284Y-11863D01*
X32312Y-11853D01*
X32331Y-11853D01*
X32359Y-11863D01*
X32368Y-11872D01*
X32462Y-12050D02*
X32500Y-12050D01*
X32518Y-12041D01*
X32528Y-12031D01*
X32546Y-12003D01*
X32556Y-11966D01*
X32556Y-11891D01*
X32546Y-11872D01*
X32537Y-11863D01*
X32518Y-11853D01*
X32481Y-11853D01*
X32462Y-11863D01*
X32453Y-11872D01*
X32443Y-11891D01*
X32443Y-11938D01*
X32453Y-11956D01*
X32462Y-11966D01*
X32481Y-11975D01*
X32518Y-11975D01*
X32537Y-11966D01*
X32546Y-11956D01*
X32556Y-11938D01*
X32096Y-12333D02*
X31984Y-12333D01*
X32040Y-12333D02*
X32040Y-12136D01*
X32021Y-12164D01*
X32002Y-12183D01*
X31984Y-12192D01*
X32218Y-12136D02*
X32237Y-12136D01*
X32256Y-12145D01*
X32265Y-12154D01*
X32274Y-12173D01*
X32284Y-12211D01*
X32284Y-12258D01*
X32274Y-12295D01*
X32265Y-12314D01*
X32256Y-12323D01*
X32237Y-12333D01*
X32218Y-12333D01*
X32199Y-12323D01*
X32190Y-12314D01*
X32181Y-12295D01*
X32171Y-12258D01*
X32171Y-12211D01*
X32181Y-12173D01*
X32190Y-12154D01*
X32199Y-12145D01*
X32218Y-12136D01*
X32406Y-12136D02*
X32425Y-12136D01*
X32443Y-12145D01*
X32453Y-12154D01*
X32462Y-12173D01*
X32471Y-12211D01*
X32471Y-12258D01*
X32462Y-12295D01*
X32453Y-12314D01*
X32443Y-12323D01*
X32425Y-12333D01*
X32406Y-12333D01*
X32387Y-12323D01*
X32378Y-12314D01*
X32368Y-12295D01*
X32359Y-12258D01*
X32359Y-12211D01*
X32368Y-12173D01*
X32378Y-12154D01*
X32387Y-12145D01*
X32406Y-12136D01*
X32556Y-12201D02*
X32556Y-12333D01*
X32556Y-12220D02*
X32565Y-12211D01*
X32584Y-12201D01*
X32612Y-12201D01*
X32631Y-12211D01*
X32640Y-12230D01*
X32640Y-12333D01*
X32800Y-12230D02*
X32734Y-12230D01*
X32734Y-12333D02*
X32734Y-12136D01*
X32828Y-12136D01*
G54D16*
X13257Y-9484D02*
X13257Y-8884D01*
X13400Y-8884D01*
X13486Y-8912D01*
X13543Y-8969D01*
X13572Y-9026D01*
X13600Y-9141D01*
X13600Y-9226D01*
X13572Y-9341D01*
X13543Y-9398D01*
X13486Y-9455D01*
X13400Y-9484D01*
X13257Y-9484D01*
X14172Y-9484D02*
X13829Y-9484D01*
X14000Y-9484D02*
X14000Y-8884D01*
X13943Y-8969D01*
X13886Y-9026D01*
X13829Y-9055D01*
G54D20*
X35763Y-16787D02*
X35463Y-16787D01*
X35463Y-16716D01*
X35477Y-16673D01*
X35506Y-16644D01*
X35534Y-16630D01*
X35591Y-16616D01*
X35634Y-16616D01*
X35691Y-16630D01*
X35720Y-16644D01*
X35748Y-16673D01*
X35763Y-16716D01*
X35763Y-16787D01*
X35463Y-16516D02*
X35463Y-16330D01*
X35577Y-16430D01*
X35577Y-16387D01*
X35591Y-16358D01*
X35606Y-16344D01*
X35634Y-16330D01*
X35706Y-16330D01*
X35734Y-16344D01*
X35748Y-16358D01*
X35763Y-16387D01*
X35763Y-16473D01*
X35748Y-16501D01*
X35734Y-16516D01*
X33663Y-16058D02*
X33520Y-16158D01*
X33663Y-16230D02*
X33363Y-16230D01*
X33363Y-16116D01*
X33377Y-16087D01*
X33391Y-16073D01*
X33420Y-16058D01*
X33463Y-16058D01*
X33491Y-16073D01*
X33506Y-16087D01*
X33520Y-16116D01*
X33520Y-16230D01*
X33506Y-15930D02*
X33506Y-15830D01*
X33663Y-15787D02*
X33663Y-15930D01*
X33363Y-15930D01*
X33363Y-15787D01*
X33663Y-15658D02*
X33363Y-15658D01*
X33363Y-15587D01*
X33377Y-15544D01*
X33406Y-15516D01*
X33434Y-15501D01*
X33491Y-15487D01*
X33534Y-15487D01*
X33591Y-15501D01*
X33620Y-15516D01*
X33648Y-15544D01*
X33663Y-15587D01*
X33663Y-15658D01*
X33794Y-16748D02*
X33494Y-16748D01*
X33494Y-16676D01*
X33509Y-16633D01*
X33537Y-16605D01*
X33566Y-16591D01*
X33623Y-16576D01*
X33666Y-16576D01*
X33723Y-16591D01*
X33751Y-16605D01*
X33780Y-16633D01*
X33794Y-16676D01*
X33794Y-16748D01*
X33594Y-16319D02*
X33794Y-16319D01*
X33480Y-16391D02*
X33694Y-16462D01*
X33694Y-16276D01*
X31409Y-16326D02*
X31394Y-16355D01*
X31394Y-16398D01*
X31409Y-16441D01*
X31437Y-16469D01*
X31466Y-16483D01*
X31523Y-16498D01*
X31566Y-16498D01*
X31623Y-16483D01*
X31651Y-16469D01*
X31680Y-16441D01*
X31694Y-16398D01*
X31694Y-16369D01*
X31680Y-16326D01*
X31666Y-16312D01*
X31566Y-16312D01*
X31566Y-16369D01*
X31694Y-16012D02*
X31551Y-16112D01*
X31694Y-16183D02*
X31394Y-16183D01*
X31394Y-16069D01*
X31409Y-16041D01*
X31423Y-16026D01*
X31451Y-16012D01*
X31494Y-16012D01*
X31523Y-16026D01*
X31537Y-16041D01*
X31551Y-16069D01*
X31551Y-16183D01*
X31537Y-15883D02*
X31537Y-15783D01*
X31694Y-15741D02*
X31694Y-15883D01*
X31394Y-15883D01*
X31394Y-15741D01*
X31537Y-15612D02*
X31537Y-15512D01*
X31694Y-15469D02*
X31694Y-15612D01*
X31394Y-15612D01*
X31394Y-15469D01*
X31694Y-15341D02*
X31394Y-15341D01*
X31694Y-15169D01*
X31394Y-15169D01*
X16671Y-61599D02*
X16371Y-61599D01*
X16371Y-61527D01*
X16385Y-61485D01*
X16414Y-61456D01*
X16442Y-61442D01*
X16499Y-61427D01*
X16542Y-61427D01*
X16599Y-61442D01*
X16628Y-61456D01*
X16656Y-61485D01*
X16671Y-61527D01*
X16671Y-61599D01*
X16371Y-61156D02*
X16371Y-61299D01*
X16514Y-61313D01*
X16499Y-61299D01*
X16485Y-61270D01*
X16485Y-61199D01*
X16499Y-61170D01*
X16514Y-61156D01*
X16542Y-61142D01*
X16614Y-61142D01*
X16642Y-61156D01*
X16656Y-61170D01*
X16671Y-61199D01*
X16671Y-61270D01*
X16656Y-61299D01*
X16642Y-61313D01*
X18301Y-61688D02*
X18158Y-61788D01*
X18301Y-61860D02*
X18001Y-61860D01*
X18001Y-61746D01*
X18015Y-61717D01*
X18029Y-61703D01*
X18058Y-61688D01*
X18101Y-61688D01*
X18129Y-61703D01*
X18143Y-61717D01*
X18158Y-61746D01*
X18158Y-61860D01*
X18143Y-61560D02*
X18143Y-61460D01*
X18301Y-61417D02*
X18301Y-61560D01*
X18001Y-61560D01*
X18001Y-61417D01*
X18301Y-61288D02*
X18001Y-61288D01*
X18001Y-61217D01*
X18015Y-61174D01*
X18043Y-61146D01*
X18072Y-61131D01*
X18129Y-61117D01*
X18172Y-61117D01*
X18229Y-61131D01*
X18258Y-61146D01*
X18286Y-61174D01*
X18301Y-61217D01*
X18301Y-61288D01*
X16789Y-59315D02*
X16489Y-59315D01*
X16489Y-59244D01*
X16503Y-59201D01*
X16532Y-59173D01*
X16560Y-59158D01*
X16617Y-59144D01*
X16660Y-59144D01*
X16717Y-59158D01*
X16746Y-59173D01*
X16774Y-59201D01*
X16789Y-59244D01*
X16789Y-59315D01*
X16489Y-58887D02*
X16489Y-58944D01*
X16503Y-58973D01*
X16517Y-58987D01*
X16560Y-59015D01*
X16617Y-59030D01*
X16732Y-59030D01*
X16760Y-59015D01*
X16774Y-59001D01*
X16789Y-58973D01*
X16789Y-58915D01*
X16774Y-58887D01*
X16760Y-58873D01*
X16732Y-58858D01*
X16660Y-58858D01*
X16632Y-58873D01*
X16617Y-58887D01*
X16603Y-58915D01*
X16603Y-58973D01*
X16617Y-59001D01*
X16632Y-59015D01*
X16660Y-59030D01*
X16301Y-59326D02*
X16158Y-59426D01*
X16301Y-59498D02*
X16001Y-59498D01*
X16001Y-59383D01*
X16015Y-59355D01*
X16029Y-59341D01*
X16058Y-59326D01*
X16101Y-59326D01*
X16129Y-59341D01*
X16143Y-59355D01*
X16158Y-59383D01*
X16158Y-59498D01*
X16143Y-59198D02*
X16143Y-59098D01*
X16301Y-59055D02*
X16301Y-59198D01*
X16001Y-59198D01*
X16001Y-59055D01*
X16301Y-58926D02*
X16001Y-58926D01*
X16001Y-58855D01*
X16015Y-58812D01*
X16043Y-58783D01*
X16072Y-58769D01*
X16129Y-58755D01*
X16172Y-58755D01*
X16229Y-58769D01*
X16258Y-58783D01*
X16286Y-58812D01*
X16301Y-58855D01*
X16301Y-58926D01*
G54D16*
X11287Y-58080D02*
X10687Y-58080D01*
X10687Y-57852D01*
X10715Y-57794D01*
X10744Y-57766D01*
X10801Y-57737D01*
X10887Y-57737D01*
X10944Y-57766D01*
X10972Y-57794D01*
X11001Y-57852D01*
X11001Y-58080D01*
X10687Y-57537D02*
X10687Y-57166D01*
X10915Y-57366D01*
X10915Y-57280D01*
X10944Y-57223D01*
X10972Y-57194D01*
X11030Y-57166D01*
X11172Y-57166D01*
X11230Y-57194D01*
X11258Y-57223D01*
X11287Y-57280D01*
X11287Y-57452D01*
X11258Y-57509D01*
X11230Y-57537D01*
X8235Y-60977D02*
X8264Y-61005D01*
X8293Y-61091D01*
X8293Y-61148D01*
X8264Y-61234D01*
X8207Y-61291D01*
X8150Y-61320D01*
X8035Y-61348D01*
X7950Y-61348D01*
X7835Y-61320D01*
X7778Y-61291D01*
X7721Y-61234D01*
X7693Y-61148D01*
X7693Y-61091D01*
X7721Y-61005D01*
X7750Y-60977D01*
X7693Y-60605D02*
X7693Y-60491D01*
X7721Y-60434D01*
X7778Y-60377D01*
X7893Y-60348D01*
X8093Y-60348D01*
X8207Y-60377D01*
X8264Y-60434D01*
X8293Y-60491D01*
X8293Y-60605D01*
X8264Y-60662D01*
X8207Y-60720D01*
X8093Y-60748D01*
X7893Y-60748D01*
X7778Y-60720D01*
X7721Y-60662D01*
X7693Y-60605D01*
X8293Y-60091D02*
X7693Y-60091D01*
X8293Y-59748D01*
X7693Y-59748D01*
X8350Y-59605D02*
X8350Y-59148D01*
X7978Y-59005D02*
X7978Y-58805D01*
X8293Y-58720D02*
X8293Y-59005D01*
X7693Y-59005D01*
X7693Y-58720D01*
X8293Y-58462D02*
X7693Y-58462D01*
X8121Y-58262D01*
X7693Y-58062D01*
X8293Y-58062D01*
X7978Y-57777D02*
X7978Y-57577D01*
X8293Y-57491D02*
X8293Y-57777D01*
X7693Y-57777D01*
X7693Y-57491D01*
X8293Y-56891D02*
X8007Y-57091D01*
X8293Y-57234D02*
X7693Y-57234D01*
X7693Y-57005D01*
X7721Y-56948D01*
X7750Y-56920D01*
X7807Y-56891D01*
X7893Y-56891D01*
X7950Y-56920D01*
X7978Y-56948D01*
X8007Y-57005D01*
X8007Y-57234D01*
X7721Y-56320D02*
X7693Y-56377D01*
X7693Y-56462D01*
X7721Y-56548D01*
X7778Y-56605D01*
X7835Y-56634D01*
X7950Y-56662D01*
X8035Y-56662D01*
X8150Y-56634D01*
X8207Y-56605D01*
X8264Y-56548D01*
X8293Y-56462D01*
X8293Y-56405D01*
X8264Y-56320D01*
X8235Y-56291D01*
X8035Y-56291D01*
X8035Y-56405D01*
X7978Y-56034D02*
X7978Y-55834D01*
X8293Y-55748D02*
X8293Y-56034D01*
X7693Y-56034D01*
X7693Y-55748D01*
X8293Y-55491D02*
X7693Y-55491D01*
X8293Y-55148D01*
X7693Y-55148D01*
X8235Y-54520D02*
X8264Y-54548D01*
X8293Y-54634D01*
X8293Y-54691D01*
X8264Y-54777D01*
X8207Y-54834D01*
X8150Y-54862D01*
X8035Y-54891D01*
X7950Y-54891D01*
X7835Y-54862D01*
X7778Y-54834D01*
X7721Y-54777D01*
X7693Y-54691D01*
X7693Y-54634D01*
X7721Y-54548D01*
X7750Y-54520D01*
X8007Y-54148D02*
X8293Y-54148D01*
X7693Y-54348D02*
X8007Y-54148D01*
X7693Y-53948D01*
G54D19*
X32798Y-21922D02*
X32704Y-21988D01*
X32798Y-22035D02*
X32601Y-22035D01*
X32601Y-21960D01*
X32611Y-21941D01*
X32620Y-21931D01*
X32639Y-21922D01*
X32667Y-21922D01*
X32686Y-21931D01*
X32695Y-21941D01*
X32704Y-21960D01*
X32704Y-22035D01*
X32798Y-21734D02*
X32798Y-21847D01*
X32798Y-21791D02*
X32601Y-21791D01*
X32629Y-21810D01*
X32648Y-21828D01*
X32658Y-21847D01*
X32942Y-22072D02*
X33073Y-22072D01*
X32867Y-22119D02*
X33008Y-22166D01*
X33008Y-22044D01*
X33055Y-21969D02*
X33064Y-21960D01*
X33073Y-21969D01*
X33064Y-21978D01*
X33055Y-21969D01*
X33073Y-21969D01*
X32876Y-21894D02*
X32876Y-21763D01*
X33073Y-21847D01*
X33073Y-21688D02*
X32876Y-21688D01*
X32998Y-21669D02*
X33073Y-21613D01*
X32942Y-21613D02*
X33017Y-21688D01*
X33994Y-22005D02*
X33900Y-22070D01*
X33994Y-22117D02*
X33797Y-22117D01*
X33797Y-22042D01*
X33807Y-22024D01*
X33816Y-22014D01*
X33835Y-22005D01*
X33863Y-22005D01*
X33882Y-22014D01*
X33891Y-22024D01*
X33900Y-22042D01*
X33900Y-22117D01*
X33816Y-21930D02*
X33807Y-21920D01*
X33797Y-21902D01*
X33797Y-21855D01*
X33807Y-21836D01*
X33816Y-21827D01*
X33835Y-21817D01*
X33853Y-21817D01*
X33882Y-21827D01*
X33994Y-21939D01*
X33994Y-21817D01*
X33876Y-22007D02*
X33876Y-22119D01*
X33876Y-22063D02*
X33679Y-22063D01*
X33707Y-22082D01*
X33726Y-22100D01*
X33735Y-22119D01*
X33679Y-21885D02*
X33679Y-21866D01*
X33688Y-21847D01*
X33697Y-21838D01*
X33716Y-21828D01*
X33754Y-21819D01*
X33801Y-21819D01*
X33838Y-21828D01*
X33857Y-21838D01*
X33866Y-21847D01*
X33876Y-21866D01*
X33876Y-21885D01*
X33866Y-21903D01*
X33857Y-21913D01*
X33838Y-21922D01*
X33801Y-21931D01*
X33754Y-21931D01*
X33716Y-21922D01*
X33697Y-21913D01*
X33688Y-21903D01*
X33679Y-21885D01*
X33876Y-21734D02*
X33679Y-21734D01*
X33801Y-21716D02*
X33876Y-21659D01*
X33744Y-21659D02*
X33819Y-21734D01*
X34498Y-11489D02*
X34404Y-11555D01*
X34498Y-11602D02*
X34301Y-11602D01*
X34301Y-11527D01*
X34310Y-11508D01*
X34320Y-11498D01*
X34339Y-11489D01*
X34367Y-11489D01*
X34385Y-11498D01*
X34395Y-11508D01*
X34404Y-11527D01*
X34404Y-11602D01*
X34301Y-11423D02*
X34301Y-11301D01*
X34376Y-11367D01*
X34376Y-11339D01*
X34385Y-11320D01*
X34395Y-11311D01*
X34414Y-11301D01*
X34461Y-11301D01*
X34479Y-11311D01*
X34489Y-11320D01*
X34498Y-11339D01*
X34498Y-11395D01*
X34489Y-11414D01*
X34479Y-11423D01*
X34806Y-11907D02*
X34806Y-12020D01*
X34806Y-11963D02*
X34609Y-11963D01*
X34637Y-11982D01*
X34655Y-12001D01*
X34665Y-12020D01*
X34609Y-11785D02*
X34609Y-11766D01*
X34618Y-11748D01*
X34627Y-11738D01*
X34646Y-11729D01*
X34684Y-11720D01*
X34731Y-11720D01*
X34768Y-11729D01*
X34787Y-11738D01*
X34796Y-11748D01*
X34806Y-11766D01*
X34806Y-11785D01*
X34796Y-11804D01*
X34787Y-11813D01*
X34768Y-11823D01*
X34731Y-11832D01*
X34684Y-11832D01*
X34646Y-11823D01*
X34627Y-11813D01*
X34618Y-11804D01*
X34609Y-11785D01*
X34806Y-11635D02*
X34609Y-11635D01*
X34806Y-11523D02*
X34693Y-11607D01*
X34609Y-11523D02*
X34721Y-11635D01*
X35475Y-11804D02*
X35382Y-11870D01*
X35475Y-11917D02*
X35278Y-11917D01*
X35278Y-11842D01*
X35288Y-11823D01*
X35297Y-11813D01*
X35316Y-11804D01*
X35344Y-11804D01*
X35363Y-11813D01*
X35372Y-11823D01*
X35382Y-11842D01*
X35382Y-11917D01*
X35344Y-11635D02*
X35475Y-11635D01*
X35269Y-11682D02*
X35410Y-11729D01*
X35410Y-11607D01*
X35750Y-11907D02*
X35750Y-12020D01*
X35750Y-11963D02*
X35553Y-11963D01*
X35582Y-11982D01*
X35600Y-12001D01*
X35610Y-12020D01*
X35553Y-11785D02*
X35553Y-11766D01*
X35563Y-11748D01*
X35572Y-11738D01*
X35591Y-11729D01*
X35628Y-11720D01*
X35675Y-11720D01*
X35713Y-11729D01*
X35732Y-11738D01*
X35741Y-11748D01*
X35750Y-11766D01*
X35750Y-11785D01*
X35741Y-11804D01*
X35732Y-11813D01*
X35713Y-11823D01*
X35675Y-11832D01*
X35628Y-11832D01*
X35591Y-11823D01*
X35572Y-11813D01*
X35563Y-11804D01*
X35553Y-11785D01*
X35750Y-11635D02*
X35553Y-11635D01*
X35750Y-11523D02*
X35638Y-11607D01*
X35553Y-11523D02*
X35666Y-11635D01*
X34781Y-13772D02*
X34687Y-13838D01*
X34781Y-13885D02*
X34584Y-13885D01*
X34584Y-13810D01*
X34593Y-13791D01*
X34602Y-13782D01*
X34621Y-13772D01*
X34649Y-13772D01*
X34668Y-13782D01*
X34677Y-13791D01*
X34687Y-13810D01*
X34687Y-13885D01*
X34584Y-13594D02*
X34584Y-13688D01*
X34677Y-13697D01*
X34668Y-13688D01*
X34659Y-13669D01*
X34659Y-13622D01*
X34668Y-13604D01*
X34677Y-13594D01*
X34696Y-13585D01*
X34743Y-13585D01*
X34762Y-13594D01*
X34771Y-13604D01*
X34781Y-13622D01*
X34781Y-13669D01*
X34771Y-13688D01*
X34762Y-13697D01*
X34327Y-13984D02*
X34318Y-13974D01*
X34309Y-13955D01*
X34309Y-13909D01*
X34318Y-13890D01*
X34327Y-13880D01*
X34346Y-13871D01*
X34365Y-13871D01*
X34393Y-13880D01*
X34506Y-13993D01*
X34506Y-13871D01*
X34309Y-13805D02*
X34309Y-13674D01*
X34506Y-13758D01*
X34309Y-13561D02*
X34309Y-13543D01*
X34318Y-13524D01*
X34327Y-13515D01*
X34346Y-13505D01*
X34384Y-13496D01*
X34431Y-13496D01*
X34468Y-13505D01*
X34487Y-13515D01*
X34496Y-13524D01*
X34506Y-13543D01*
X34506Y-13561D01*
X34496Y-13580D01*
X34487Y-13590D01*
X34468Y-13599D01*
X34431Y-13608D01*
X34384Y-13608D01*
X34346Y-13599D01*
X34327Y-13590D01*
X34318Y-13580D01*
X34309Y-13561D01*
X32773Y-13772D02*
X32679Y-13838D01*
X32773Y-13885D02*
X32576Y-13885D01*
X32576Y-13810D01*
X32585Y-13791D01*
X32594Y-13782D01*
X32613Y-13772D01*
X32641Y-13772D01*
X32660Y-13782D01*
X32669Y-13791D01*
X32679Y-13810D01*
X32679Y-13885D01*
X32576Y-13604D02*
X32576Y-13641D01*
X32585Y-13660D01*
X32594Y-13669D01*
X32623Y-13688D01*
X32660Y-13697D01*
X32735Y-13697D01*
X32754Y-13688D01*
X32763Y-13679D01*
X32773Y-13660D01*
X32773Y-13622D01*
X32763Y-13604D01*
X32754Y-13594D01*
X32735Y-13585D01*
X32688Y-13585D01*
X32669Y-13594D01*
X32660Y-13604D01*
X32651Y-13622D01*
X32651Y-13660D01*
X32660Y-13679D01*
X32669Y-13688D01*
X32688Y-13697D01*
X32319Y-13984D02*
X32310Y-13974D01*
X32301Y-13955D01*
X32301Y-13909D01*
X32310Y-13890D01*
X32319Y-13880D01*
X32338Y-13871D01*
X32357Y-13871D01*
X32385Y-13880D01*
X32498Y-13993D01*
X32498Y-13871D01*
X32301Y-13805D02*
X32301Y-13674D01*
X32498Y-13758D01*
X32301Y-13561D02*
X32301Y-13543D01*
X32310Y-13524D01*
X32319Y-13515D01*
X32338Y-13505D01*
X32376Y-13496D01*
X32423Y-13496D01*
X32460Y-13505D01*
X32479Y-13515D01*
X32488Y-13524D01*
X32498Y-13543D01*
X32498Y-13561D01*
X32488Y-13580D01*
X32479Y-13590D01*
X32460Y-13599D01*
X32423Y-13608D01*
X32376Y-13608D01*
X32338Y-13599D01*
X32319Y-13590D01*
X32310Y-13580D01*
X32301Y-13561D01*
X21552Y-51843D02*
X21458Y-51909D01*
X21552Y-51956D02*
X21355Y-51956D01*
X21355Y-51881D01*
X21365Y-51862D01*
X21374Y-51853D01*
X21393Y-51843D01*
X21421Y-51843D01*
X21440Y-51853D01*
X21449Y-51862D01*
X21458Y-51881D01*
X21458Y-51956D01*
X21355Y-51778D02*
X21355Y-51646D01*
X21552Y-51731D01*
X21099Y-52054D02*
X21090Y-52045D01*
X21080Y-52026D01*
X21080Y-51979D01*
X21090Y-51961D01*
X21099Y-51951D01*
X21118Y-51942D01*
X21136Y-51942D01*
X21165Y-51951D01*
X21277Y-52064D01*
X21277Y-51942D01*
X21080Y-51876D02*
X21080Y-51745D01*
X21277Y-51829D01*
X21080Y-51632D02*
X21080Y-51614D01*
X21090Y-51595D01*
X21099Y-51585D01*
X21118Y-51576D01*
X21155Y-51567D01*
X21202Y-51567D01*
X21240Y-51576D01*
X21258Y-51585D01*
X21268Y-51595D01*
X21277Y-51614D01*
X21277Y-51632D01*
X21268Y-51651D01*
X21258Y-51660D01*
X21240Y-51670D01*
X21202Y-51679D01*
X21155Y-51679D01*
X21118Y-51670D01*
X21099Y-51660D01*
X21090Y-51651D01*
X21080Y-51632D01*
X23599Y-51843D02*
X23506Y-51909D01*
X23599Y-51956D02*
X23402Y-51956D01*
X23402Y-51881D01*
X23412Y-51862D01*
X23421Y-51853D01*
X23440Y-51843D01*
X23468Y-51843D01*
X23487Y-51853D01*
X23496Y-51862D01*
X23506Y-51881D01*
X23506Y-51956D01*
X23487Y-51731D02*
X23477Y-51750D01*
X23468Y-51759D01*
X23449Y-51768D01*
X23440Y-51768D01*
X23421Y-51759D01*
X23412Y-51750D01*
X23402Y-51731D01*
X23402Y-51693D01*
X23412Y-51674D01*
X23421Y-51665D01*
X23440Y-51656D01*
X23449Y-51656D01*
X23468Y-51665D01*
X23477Y-51674D01*
X23487Y-51693D01*
X23487Y-51731D01*
X23496Y-51750D01*
X23506Y-51759D01*
X23524Y-51768D01*
X23562Y-51768D01*
X23581Y-51759D01*
X23590Y-51750D01*
X23599Y-51731D01*
X23599Y-51693D01*
X23590Y-51674D01*
X23581Y-51665D01*
X23562Y-51656D01*
X23524Y-51656D01*
X23506Y-51665D01*
X23496Y-51674D01*
X23487Y-51693D01*
X23146Y-52054D02*
X23137Y-52045D01*
X23127Y-52026D01*
X23127Y-51979D01*
X23137Y-51961D01*
X23146Y-51951D01*
X23165Y-51942D01*
X23184Y-51942D01*
X23212Y-51951D01*
X23324Y-52064D01*
X23324Y-51942D01*
X23127Y-51876D02*
X23127Y-51745D01*
X23324Y-51829D01*
X23127Y-51632D02*
X23127Y-51614D01*
X23137Y-51595D01*
X23146Y-51585D01*
X23165Y-51576D01*
X23202Y-51567D01*
X23249Y-51567D01*
X23287Y-51576D01*
X23306Y-51585D01*
X23315Y-51595D01*
X23324Y-51614D01*
X23324Y-51632D01*
X23315Y-51651D01*
X23306Y-51660D01*
X23287Y-51670D01*
X23249Y-51679D01*
X23202Y-51679D01*
X23165Y-51670D01*
X23146Y-51660D01*
X23137Y-51651D01*
X23127Y-51632D01*
X27458Y-51922D02*
X27364Y-51988D01*
X27458Y-52035D02*
X27261Y-52035D01*
X27261Y-51960D01*
X27270Y-51941D01*
X27279Y-51931D01*
X27298Y-51922D01*
X27326Y-51922D01*
X27345Y-51931D01*
X27355Y-51941D01*
X27364Y-51960D01*
X27364Y-52035D01*
X27458Y-51828D02*
X27458Y-51791D01*
X27448Y-51772D01*
X27439Y-51763D01*
X27411Y-51744D01*
X27373Y-51734D01*
X27298Y-51734D01*
X27279Y-51744D01*
X27270Y-51753D01*
X27261Y-51772D01*
X27261Y-51810D01*
X27270Y-51828D01*
X27279Y-51838D01*
X27298Y-51847D01*
X27345Y-51847D01*
X27364Y-51838D01*
X27373Y-51828D01*
X27383Y-51810D01*
X27383Y-51772D01*
X27373Y-51753D01*
X27364Y-51744D01*
X27345Y-51734D01*
X27004Y-52133D02*
X26995Y-52124D01*
X26986Y-52105D01*
X26986Y-52058D01*
X26995Y-52039D01*
X27004Y-52030D01*
X27023Y-52021D01*
X27042Y-52021D01*
X27070Y-52030D01*
X27183Y-52143D01*
X27183Y-52021D01*
X26986Y-51955D02*
X26986Y-51824D01*
X27183Y-51908D01*
X26986Y-51711D02*
X26986Y-51692D01*
X26995Y-51674D01*
X27004Y-51664D01*
X27023Y-51655D01*
X27061Y-51645D01*
X27108Y-51645D01*
X27145Y-51655D01*
X27164Y-51664D01*
X27173Y-51674D01*
X27183Y-51692D01*
X27183Y-51711D01*
X27173Y-51730D01*
X27164Y-51739D01*
X27145Y-51749D01*
X27108Y-51758D01*
X27061Y-51758D01*
X27023Y-51749D01*
X27004Y-51739D01*
X26995Y-51730D01*
X26986Y-51711D01*
X28324Y-52016D02*
X28230Y-52082D01*
X28324Y-52128D02*
X28127Y-52128D01*
X28127Y-52053D01*
X28136Y-52035D01*
X28146Y-52025D01*
X28164Y-52016D01*
X28193Y-52016D01*
X28211Y-52025D01*
X28221Y-52035D01*
X28230Y-52053D01*
X28230Y-52128D01*
X28324Y-51828D02*
X28324Y-51941D01*
X28324Y-51885D02*
X28127Y-51885D01*
X28155Y-51903D01*
X28174Y-51922D01*
X28183Y-51941D01*
X28127Y-51706D02*
X28127Y-51688D01*
X28136Y-51669D01*
X28146Y-51659D01*
X28164Y-51650D01*
X28202Y-51641D01*
X28249Y-51641D01*
X28286Y-51650D01*
X28305Y-51659D01*
X28314Y-51669D01*
X28324Y-51688D01*
X28324Y-51706D01*
X28314Y-51725D01*
X28305Y-51734D01*
X28286Y-51744D01*
X28249Y-51753D01*
X28202Y-51753D01*
X28164Y-51744D01*
X28146Y-51734D01*
X28136Y-51725D01*
X28127Y-51706D01*
X27871Y-52133D02*
X27861Y-52124D01*
X27852Y-52105D01*
X27852Y-52058D01*
X27861Y-52039D01*
X27871Y-52030D01*
X27889Y-52021D01*
X27908Y-52021D01*
X27936Y-52030D01*
X28049Y-52143D01*
X28049Y-52021D01*
X27852Y-51955D02*
X27852Y-51824D01*
X28049Y-51908D01*
X27852Y-51711D02*
X27852Y-51692D01*
X27861Y-51674D01*
X27871Y-51664D01*
X27889Y-51655D01*
X27927Y-51645D01*
X27974Y-51645D01*
X28011Y-51655D01*
X28030Y-51664D01*
X28039Y-51674D01*
X28049Y-51692D01*
X28049Y-51711D01*
X28039Y-51730D01*
X28030Y-51739D01*
X28011Y-51749D01*
X27974Y-51758D01*
X27927Y-51758D01*
X27889Y-51749D01*
X27871Y-51739D01*
X27861Y-51730D01*
X27852Y-51711D01*
X30844Y-52095D02*
X30750Y-52160D01*
X30844Y-52207D02*
X30647Y-52207D01*
X30647Y-52132D01*
X30656Y-52113D01*
X30665Y-52104D01*
X30684Y-52095D01*
X30712Y-52095D01*
X30731Y-52104D01*
X30740Y-52113D01*
X30750Y-52132D01*
X30750Y-52207D01*
X30844Y-51907D02*
X30844Y-52020D01*
X30844Y-51963D02*
X30647Y-51963D01*
X30675Y-51982D01*
X30693Y-52001D01*
X30703Y-52020D01*
X30844Y-51719D02*
X30844Y-51832D01*
X30844Y-51776D02*
X30647Y-51776D01*
X30675Y-51794D01*
X30693Y-51813D01*
X30703Y-51832D01*
X30390Y-52212D02*
X30381Y-52203D01*
X30372Y-52184D01*
X30372Y-52137D01*
X30381Y-52118D01*
X30390Y-52109D01*
X30409Y-52099D01*
X30428Y-52099D01*
X30456Y-52109D01*
X30569Y-52221D01*
X30569Y-52099D01*
X30372Y-52034D02*
X30372Y-51902D01*
X30569Y-51987D01*
X30372Y-51790D02*
X30372Y-51771D01*
X30381Y-51752D01*
X30390Y-51743D01*
X30409Y-51733D01*
X30447Y-51724D01*
X30493Y-51724D01*
X30531Y-51733D01*
X30550Y-51743D01*
X30559Y-51752D01*
X30569Y-51771D01*
X30569Y-51790D01*
X30559Y-51809D01*
X30550Y-51818D01*
X30531Y-51827D01*
X30493Y-51837D01*
X30447Y-51837D01*
X30409Y-51827D01*
X30390Y-51818D01*
X30381Y-51809D01*
X30372Y-51790D01*
X29741Y-52016D02*
X29647Y-52082D01*
X29741Y-52128D02*
X29544Y-52128D01*
X29544Y-52053D01*
X29554Y-52035D01*
X29563Y-52025D01*
X29582Y-52016D01*
X29610Y-52016D01*
X29629Y-52025D01*
X29638Y-52035D01*
X29647Y-52053D01*
X29647Y-52128D01*
X29741Y-51828D02*
X29741Y-51941D01*
X29741Y-51885D02*
X29544Y-51885D01*
X29572Y-51903D01*
X29591Y-51922D01*
X29600Y-51941D01*
X29563Y-51753D02*
X29554Y-51744D01*
X29544Y-51725D01*
X29544Y-51678D01*
X29554Y-51659D01*
X29563Y-51650D01*
X29582Y-51641D01*
X29600Y-51641D01*
X29629Y-51650D01*
X29741Y-51763D01*
X29741Y-51641D01*
X29466Y-52007D02*
X29466Y-52119D01*
X29466Y-52063D02*
X29269Y-52063D01*
X29297Y-52082D01*
X29316Y-52100D01*
X29325Y-52119D01*
X29269Y-51885D02*
X29269Y-51866D01*
X29279Y-51847D01*
X29288Y-51838D01*
X29307Y-51828D01*
X29344Y-51819D01*
X29391Y-51819D01*
X29429Y-51828D01*
X29447Y-51838D01*
X29457Y-51847D01*
X29466Y-51866D01*
X29466Y-51885D01*
X29457Y-51903D01*
X29447Y-51913D01*
X29429Y-51922D01*
X29391Y-51931D01*
X29344Y-51931D01*
X29307Y-51922D01*
X29288Y-51913D01*
X29279Y-51903D01*
X29269Y-51885D01*
X29466Y-51734D02*
X29269Y-51734D01*
X29391Y-51716D02*
X29466Y-51659D01*
X29335Y-51659D02*
X29410Y-51734D01*
X26513Y-52016D02*
X26419Y-52082D01*
X26513Y-52128D02*
X26316Y-52128D01*
X26316Y-52053D01*
X26325Y-52035D01*
X26335Y-52025D01*
X26353Y-52016D01*
X26381Y-52016D01*
X26400Y-52025D01*
X26410Y-52035D01*
X26419Y-52053D01*
X26419Y-52128D01*
X26513Y-51828D02*
X26513Y-51941D01*
X26513Y-51885D02*
X26316Y-51885D01*
X26344Y-51903D01*
X26363Y-51922D01*
X26372Y-51941D01*
X26316Y-51763D02*
X26316Y-51641D01*
X26391Y-51706D01*
X26391Y-51678D01*
X26400Y-51659D01*
X26410Y-51650D01*
X26428Y-51641D01*
X26475Y-51641D01*
X26494Y-51650D01*
X26503Y-51659D01*
X26513Y-51678D01*
X26513Y-51734D01*
X26503Y-51753D01*
X26494Y-51763D01*
X26238Y-52007D02*
X26238Y-52119D01*
X26238Y-52063D02*
X26041Y-52063D01*
X26069Y-52082D01*
X26088Y-52100D01*
X26097Y-52119D01*
X26041Y-51885D02*
X26041Y-51866D01*
X26050Y-51847D01*
X26060Y-51838D01*
X26078Y-51828D01*
X26116Y-51819D01*
X26163Y-51819D01*
X26200Y-51828D01*
X26219Y-51838D01*
X26228Y-51847D01*
X26238Y-51866D01*
X26238Y-51885D01*
X26228Y-51903D01*
X26219Y-51913D01*
X26200Y-51922D01*
X26163Y-51931D01*
X26116Y-51931D01*
X26078Y-51922D01*
X26060Y-51913D01*
X26050Y-51903D01*
X26041Y-51885D01*
X26238Y-51734D02*
X26041Y-51734D01*
X26163Y-51716D02*
X26238Y-51659D01*
X26106Y-51659D02*
X26182Y-51734D01*
X24702Y-52016D02*
X24608Y-52082D01*
X24702Y-52128D02*
X24505Y-52128D01*
X24505Y-52053D01*
X24514Y-52035D01*
X24524Y-52025D01*
X24542Y-52016D01*
X24570Y-52016D01*
X24589Y-52025D01*
X24599Y-52035D01*
X24608Y-52053D01*
X24608Y-52128D01*
X24702Y-51828D02*
X24702Y-51941D01*
X24702Y-51885D02*
X24505Y-51885D01*
X24533Y-51903D01*
X24552Y-51922D01*
X24561Y-51941D01*
X24570Y-51659D02*
X24702Y-51659D01*
X24495Y-51706D02*
X24636Y-51753D01*
X24636Y-51631D01*
X24427Y-52007D02*
X24427Y-52119D01*
X24427Y-52063D02*
X24230Y-52063D01*
X24258Y-52082D01*
X24277Y-52100D01*
X24286Y-52119D01*
X24230Y-51885D02*
X24230Y-51866D01*
X24239Y-51847D01*
X24249Y-51838D01*
X24267Y-51828D01*
X24305Y-51819D01*
X24352Y-51819D01*
X24389Y-51828D01*
X24408Y-51838D01*
X24417Y-51847D01*
X24427Y-51866D01*
X24427Y-51885D01*
X24417Y-51903D01*
X24408Y-51913D01*
X24389Y-51922D01*
X24352Y-51931D01*
X24305Y-51931D01*
X24267Y-51922D01*
X24249Y-51913D01*
X24239Y-51903D01*
X24230Y-51885D01*
X24427Y-51734D02*
X24230Y-51734D01*
X24352Y-51716D02*
X24427Y-51659D01*
X24295Y-51659D02*
X24371Y-51734D01*
X22655Y-51937D02*
X22561Y-52003D01*
X22655Y-52050D02*
X22458Y-52050D01*
X22458Y-51975D01*
X22467Y-51956D01*
X22476Y-51947D01*
X22495Y-51937D01*
X22523Y-51937D01*
X22542Y-51947D01*
X22551Y-51956D01*
X22561Y-51975D01*
X22561Y-52050D01*
X22655Y-51750D02*
X22655Y-51862D01*
X22655Y-51806D02*
X22458Y-51806D01*
X22486Y-51825D01*
X22504Y-51843D01*
X22514Y-51862D01*
X22458Y-51571D02*
X22458Y-51665D01*
X22551Y-51675D01*
X22542Y-51665D01*
X22533Y-51646D01*
X22533Y-51599D01*
X22542Y-51581D01*
X22551Y-51571D01*
X22570Y-51562D01*
X22617Y-51562D01*
X22636Y-51571D01*
X22645Y-51581D01*
X22655Y-51599D01*
X22655Y-51646D01*
X22645Y-51665D01*
X22636Y-51675D01*
X22380Y-51928D02*
X22380Y-52040D01*
X22380Y-51984D02*
X22183Y-51984D01*
X22211Y-52003D01*
X22229Y-52022D01*
X22239Y-52040D01*
X22183Y-51806D02*
X22183Y-51787D01*
X22192Y-51768D01*
X22201Y-51759D01*
X22220Y-51750D01*
X22258Y-51740D01*
X22305Y-51740D01*
X22342Y-51750D01*
X22361Y-51759D01*
X22370Y-51768D01*
X22380Y-51787D01*
X22380Y-51806D01*
X22370Y-51825D01*
X22361Y-51834D01*
X22342Y-51843D01*
X22305Y-51853D01*
X22258Y-51853D01*
X22220Y-51843D01*
X22201Y-51834D01*
X22192Y-51825D01*
X22183Y-51806D01*
X22380Y-51656D02*
X22183Y-51656D01*
X22305Y-51637D02*
X22380Y-51581D01*
X22248Y-51581D02*
X22323Y-51656D01*
X14361Y-62025D02*
X14295Y-61931D01*
X14248Y-62025D02*
X14248Y-61828D01*
X14324Y-61828D01*
X14342Y-61837D01*
X14352Y-61846D01*
X14361Y-61865D01*
X14361Y-61893D01*
X14352Y-61912D01*
X14342Y-61921D01*
X14324Y-61931D01*
X14248Y-61931D01*
X14549Y-62025D02*
X14436Y-62025D01*
X14492Y-62025D02*
X14492Y-61828D01*
X14474Y-61856D01*
X14455Y-61875D01*
X14436Y-61884D01*
X14718Y-61828D02*
X14680Y-61828D01*
X14661Y-61837D01*
X14652Y-61846D01*
X14633Y-61875D01*
X14624Y-61912D01*
X14624Y-61987D01*
X14633Y-62006D01*
X14642Y-62015D01*
X14661Y-62025D01*
X14699Y-62025D01*
X14718Y-62015D01*
X14727Y-62006D01*
X14736Y-61987D01*
X14736Y-61940D01*
X14727Y-61921D01*
X14718Y-61912D01*
X14699Y-61903D01*
X14661Y-61903D01*
X14642Y-61912D01*
X14633Y-61921D01*
X14624Y-61940D01*
X14347Y-61553D02*
X14253Y-61553D01*
X14244Y-61646D01*
X14253Y-61637D01*
X14272Y-61628D01*
X14319Y-61628D01*
X14338Y-61637D01*
X14347Y-61646D01*
X14356Y-61665D01*
X14356Y-61712D01*
X14347Y-61731D01*
X14338Y-61740D01*
X14319Y-61750D01*
X14272Y-61750D01*
X14253Y-61740D01*
X14244Y-61731D01*
X14525Y-61553D02*
X14488Y-61553D01*
X14469Y-61562D01*
X14460Y-61571D01*
X14441Y-61600D01*
X14431Y-61637D01*
X14431Y-61712D01*
X14441Y-61731D01*
X14450Y-61740D01*
X14469Y-61750D01*
X14506Y-61750D01*
X14525Y-61740D01*
X14535Y-61731D01*
X14544Y-61712D01*
X14544Y-61665D01*
X14535Y-61646D01*
X14525Y-61637D01*
X14506Y-61628D01*
X14469Y-61628D01*
X14450Y-61637D01*
X14441Y-61646D01*
X14431Y-61665D01*
X14666Y-61553D02*
X14685Y-61553D01*
X14703Y-61562D01*
X14713Y-61571D01*
X14722Y-61590D01*
X14732Y-61628D01*
X14732Y-61675D01*
X14722Y-61712D01*
X14713Y-61731D01*
X14703Y-61740D01*
X14685Y-61750D01*
X14666Y-61750D01*
X14647Y-61740D01*
X14638Y-61731D01*
X14628Y-61712D01*
X14619Y-61675D01*
X14619Y-61628D01*
X14628Y-61590D01*
X14638Y-61571D01*
X14647Y-61562D01*
X14666Y-61553D01*
X17090Y-57173D02*
X16996Y-57239D01*
X17090Y-57286D02*
X16893Y-57286D01*
X16893Y-57211D01*
X16902Y-57192D01*
X16911Y-57183D01*
X16930Y-57173D01*
X16958Y-57173D01*
X16977Y-57183D01*
X16986Y-57192D01*
X16996Y-57211D01*
X16996Y-57286D01*
X17090Y-56986D02*
X17090Y-57098D01*
X17090Y-57042D02*
X16893Y-57042D01*
X16921Y-57061D01*
X16940Y-57080D01*
X16949Y-57098D01*
X16893Y-56920D02*
X16893Y-56789D01*
X17090Y-56873D01*
X17186Y-57291D02*
X17177Y-57281D01*
X17168Y-57263D01*
X17168Y-57216D01*
X17177Y-57197D01*
X17186Y-57187D01*
X17205Y-57178D01*
X17224Y-57178D01*
X17252Y-57187D01*
X17365Y-57300D01*
X17365Y-57178D01*
X17168Y-57112D02*
X17168Y-56981D01*
X17365Y-57066D01*
X17168Y-56869D02*
X17168Y-56850D01*
X17177Y-56831D01*
X17186Y-56822D01*
X17205Y-56812D01*
X17243Y-56803D01*
X17290Y-56803D01*
X17327Y-56812D01*
X17346Y-56822D01*
X17355Y-56831D01*
X17365Y-56850D01*
X17365Y-56869D01*
X17355Y-56887D01*
X17346Y-56897D01*
X17327Y-56906D01*
X17290Y-56915D01*
X17243Y-56915D01*
X17205Y-56906D01*
X17186Y-56897D01*
X17177Y-56887D01*
X17168Y-56869D01*
X13416Y-49426D02*
X13350Y-49332D01*
X13304Y-49426D02*
X13304Y-49229D01*
X13379Y-49229D01*
X13397Y-49239D01*
X13407Y-49248D01*
X13416Y-49267D01*
X13416Y-49295D01*
X13407Y-49314D01*
X13397Y-49323D01*
X13379Y-49332D01*
X13304Y-49332D01*
X13604Y-49426D02*
X13491Y-49426D01*
X13547Y-49426D02*
X13547Y-49229D01*
X13529Y-49257D01*
X13510Y-49276D01*
X13491Y-49286D01*
X13716Y-49314D02*
X13698Y-49304D01*
X13688Y-49295D01*
X13679Y-49276D01*
X13679Y-49267D01*
X13688Y-49248D01*
X13698Y-49239D01*
X13716Y-49229D01*
X13754Y-49229D01*
X13773Y-49239D01*
X13782Y-49248D01*
X13791Y-49267D01*
X13791Y-49276D01*
X13782Y-49295D01*
X13773Y-49304D01*
X13754Y-49314D01*
X13716Y-49314D01*
X13698Y-49323D01*
X13688Y-49332D01*
X13679Y-49351D01*
X13679Y-49389D01*
X13688Y-49407D01*
X13698Y-49417D01*
X13716Y-49426D01*
X13754Y-49426D01*
X13773Y-49417D01*
X13782Y-49407D01*
X13791Y-49389D01*
X13791Y-49351D01*
X13782Y-49332D01*
X13773Y-49323D01*
X13754Y-49314D01*
X13299Y-48973D02*
X13308Y-48964D01*
X13327Y-48954D01*
X13374Y-48954D01*
X13393Y-48964D01*
X13402Y-48973D01*
X13411Y-48992D01*
X13411Y-49011D01*
X13402Y-49039D01*
X13290Y-49151D01*
X13411Y-49151D01*
X13477Y-48954D02*
X13608Y-48954D01*
X13524Y-49151D01*
X13721Y-48954D02*
X13740Y-48954D01*
X13759Y-48964D01*
X13768Y-48973D01*
X13777Y-48992D01*
X13787Y-49029D01*
X13787Y-49076D01*
X13777Y-49114D01*
X13768Y-49132D01*
X13759Y-49142D01*
X13740Y-49151D01*
X13721Y-49151D01*
X13702Y-49142D01*
X13693Y-49132D01*
X13684Y-49114D01*
X13674Y-49076D01*
X13674Y-49029D01*
X13684Y-48992D01*
X13693Y-48973D01*
X13702Y-48964D01*
X13721Y-48954D01*
X13495Y-50607D02*
X13429Y-50514D01*
X13382Y-50607D02*
X13382Y-50410D01*
X13457Y-50410D01*
X13476Y-50420D01*
X13486Y-50429D01*
X13495Y-50448D01*
X13495Y-50476D01*
X13486Y-50495D01*
X13476Y-50504D01*
X13457Y-50514D01*
X13382Y-50514D01*
X13683Y-50607D02*
X13570Y-50607D01*
X13626Y-50607D02*
X13626Y-50410D01*
X13607Y-50438D01*
X13589Y-50457D01*
X13570Y-50467D01*
X13776Y-50607D02*
X13814Y-50607D01*
X13833Y-50598D01*
X13842Y-50589D01*
X13861Y-50560D01*
X13870Y-50523D01*
X13870Y-50448D01*
X13861Y-50429D01*
X13851Y-50420D01*
X13833Y-50410D01*
X13795Y-50410D01*
X13776Y-50420D01*
X13767Y-50429D01*
X13758Y-50448D01*
X13758Y-50495D01*
X13767Y-50514D01*
X13776Y-50523D01*
X13795Y-50532D01*
X13833Y-50532D01*
X13851Y-50523D01*
X13861Y-50514D01*
X13870Y-50495D01*
X13504Y-50332D02*
X13392Y-50332D01*
X13448Y-50332D02*
X13448Y-50135D01*
X13429Y-50163D01*
X13410Y-50182D01*
X13392Y-50192D01*
X13626Y-50135D02*
X13645Y-50135D01*
X13664Y-50145D01*
X13673Y-50154D01*
X13683Y-50173D01*
X13692Y-50210D01*
X13692Y-50257D01*
X13683Y-50295D01*
X13673Y-50314D01*
X13664Y-50323D01*
X13645Y-50332D01*
X13626Y-50332D01*
X13607Y-50323D01*
X13598Y-50314D01*
X13589Y-50295D01*
X13579Y-50257D01*
X13579Y-50210D01*
X13589Y-50173D01*
X13598Y-50154D01*
X13607Y-50145D01*
X13626Y-50135D01*
X13776Y-50332D02*
X13776Y-50135D01*
X13795Y-50257D02*
X13851Y-50332D01*
X13851Y-50201D02*
X13776Y-50276D01*
G54D21*
X9714Y-52098D02*
X9733Y-52041D01*
X9733Y-51945D01*
X9714Y-51907D01*
X9695Y-51888D01*
X9657Y-51869D01*
X9619Y-51869D01*
X9580Y-51888D01*
X9561Y-51907D01*
X9542Y-51945D01*
X9523Y-52022D01*
X9504Y-52060D01*
X9485Y-52079D01*
X9447Y-52098D01*
X9409Y-52098D01*
X9371Y-52079D01*
X9352Y-52060D01*
X9333Y-52022D01*
X9333Y-51926D01*
X9352Y-51869D01*
X9333Y-51736D02*
X9733Y-51641D01*
X9447Y-51564D01*
X9733Y-51488D01*
X9333Y-51393D01*
X9733Y-51031D02*
X9733Y-51260D01*
X9733Y-51145D02*
X9333Y-51145D01*
X9390Y-51184D01*
X9428Y-51222D01*
X9447Y-51260D01*
X10368Y-54115D02*
X10387Y-54057D01*
X10387Y-53962D01*
X10368Y-53924D01*
X10349Y-53905D01*
X10311Y-53886D01*
X10273Y-53886D01*
X10235Y-53905D01*
X10216Y-53924D01*
X10197Y-53962D01*
X10178Y-54038D01*
X10159Y-54077D01*
X10140Y-54096D01*
X10101Y-54115D01*
X10063Y-54115D01*
X10025Y-54096D01*
X10006Y-54077D01*
X9987Y-54038D01*
X9987Y-53943D01*
X10006Y-53886D01*
X9987Y-53753D02*
X10387Y-53657D01*
X10101Y-53581D01*
X10387Y-53505D01*
X9987Y-53410D01*
X10425Y-53353D02*
X10425Y-53048D01*
X10387Y-52953D02*
X9987Y-52953D01*
X9987Y-52800D01*
X10006Y-52762D01*
X10025Y-52743D01*
X10063Y-52724D01*
X10120Y-52724D01*
X10159Y-52743D01*
X10178Y-52762D01*
X10197Y-52800D01*
X10197Y-52953D01*
X9987Y-52553D02*
X10311Y-52553D01*
X10349Y-52534D01*
X10368Y-52515D01*
X10387Y-52477D01*
X10387Y-52400D01*
X10368Y-52362D01*
X10349Y-52343D01*
X10311Y-52324D01*
X9987Y-52324D01*
X10368Y-52153D02*
X10387Y-52096D01*
X10387Y-52000D01*
X10368Y-51962D01*
X10349Y-51943D01*
X10311Y-51924D01*
X10273Y-51924D01*
X10235Y-51943D01*
X10216Y-51962D01*
X10197Y-52000D01*
X10178Y-52077D01*
X10159Y-52115D01*
X10140Y-52134D01*
X10101Y-52153D01*
X10063Y-52153D01*
X10025Y-52134D01*
X10006Y-52115D01*
X9987Y-52077D01*
X9987Y-51981D01*
X10006Y-51924D01*
X10387Y-51753D02*
X9987Y-51753D01*
X10178Y-51753D02*
X10178Y-51524D01*
X10387Y-51524D02*
X9987Y-51524D01*
X10425Y-51429D02*
X10425Y-51124D01*
X10387Y-51029D02*
X9987Y-51029D01*
X9987Y-50934D01*
X10006Y-50877D01*
X10044Y-50838D01*
X10082Y-50819D01*
X10159Y-50800D01*
X10216Y-50800D01*
X10292Y-50819D01*
X10330Y-50838D01*
X10368Y-50877D01*
X10387Y-50934D01*
X10387Y-51029D01*
X9987Y-50553D02*
X9987Y-50477D01*
X10006Y-50438D01*
X10044Y-50400D01*
X10120Y-50381D01*
X10254Y-50381D01*
X10330Y-50400D01*
X10368Y-50438D01*
X10387Y-50477D01*
X10387Y-50553D01*
X10368Y-50591D01*
X10330Y-50629D01*
X10254Y-50648D01*
X10120Y-50648D01*
X10044Y-50629D01*
X10006Y-50591D01*
X9987Y-50553D01*
X9987Y-50210D02*
X10311Y-50210D01*
X10349Y-50191D01*
X10368Y-50172D01*
X10387Y-50134D01*
X10387Y-50057D01*
X10368Y-50019D01*
X10349Y-50000D01*
X10311Y-49981D01*
X9987Y-49981D01*
X10178Y-49657D02*
X10197Y-49600D01*
X10216Y-49581D01*
X10254Y-49562D01*
X10311Y-49562D01*
X10349Y-49581D01*
X10368Y-49600D01*
X10387Y-49638D01*
X10387Y-49791D01*
X9987Y-49791D01*
X9987Y-49657D01*
X10006Y-49619D01*
X10025Y-49600D01*
X10063Y-49581D01*
X10101Y-49581D01*
X10140Y-49600D01*
X10159Y-49619D01*
X10178Y-49657D01*
X10178Y-49791D01*
X10387Y-49200D02*
X10387Y-49391D01*
X9987Y-49391D01*
X10178Y-49067D02*
X10178Y-48934D01*
X10387Y-48877D02*
X10387Y-49067D01*
X9987Y-49067D01*
X9987Y-48877D01*
G54D16*
X30380Y-17150D02*
X30865Y-17150D01*
X30922Y-17121D01*
X30951Y-17092D01*
X30980Y-17035D01*
X30980Y-16921D01*
X30951Y-16864D01*
X30922Y-16835D01*
X30865Y-16807D01*
X30380Y-16807D01*
X30980Y-16207D02*
X30980Y-16550D01*
X30980Y-16378D02*
X30380Y-16378D01*
X30465Y-16435D01*
X30522Y-16492D01*
X30551Y-16550D01*
G54D11*
X28645Y-20056D02*
X28645Y-20299D01*
X28659Y-20327D01*
X28674Y-20341D01*
X28702Y-20356D01*
X28759Y-20356D01*
X28788Y-20341D01*
X28802Y-20327D01*
X28816Y-20299D01*
X28816Y-20056D01*
X28945Y-20084D02*
X28959Y-20070D01*
X28988Y-20056D01*
X29059Y-20056D01*
X29088Y-20070D01*
X29102Y-20084D01*
X29116Y-20113D01*
X29116Y-20141D01*
X29102Y-20184D01*
X28931Y-20356D01*
X29116Y-20356D01*
X27628Y-20730D02*
X27528Y-20730D01*
X27528Y-20887D02*
X27528Y-20587D01*
X27671Y-20587D01*
X27743Y-20587D02*
X27914Y-20587D01*
X27828Y-20887D02*
X27828Y-20587D01*
X28000Y-20616D02*
X28014Y-20601D01*
X28043Y-20587D01*
X28114Y-20587D01*
X28143Y-20601D01*
X28157Y-20616D01*
X28171Y-20644D01*
X28171Y-20673D01*
X28157Y-20716D01*
X27986Y-20887D01*
X28171Y-20887D01*
X28271Y-20587D02*
X28457Y-20587D01*
X28357Y-20701D01*
X28400Y-20701D01*
X28428Y-20716D01*
X28443Y-20730D01*
X28457Y-20759D01*
X28457Y-20830D01*
X28443Y-20859D01*
X28428Y-20873D01*
X28400Y-20887D01*
X28314Y-20887D01*
X28286Y-20873D01*
X28271Y-20859D01*
X28571Y-20616D02*
X28586Y-20601D01*
X28614Y-20587D01*
X28686Y-20587D01*
X28714Y-20601D01*
X28728Y-20616D01*
X28743Y-20644D01*
X28743Y-20673D01*
X28728Y-20716D01*
X28557Y-20887D01*
X28743Y-20887D01*
X29043Y-20887D02*
X28943Y-20744D01*
X28871Y-20887D02*
X28871Y-20587D01*
X28986Y-20587D01*
X29014Y-20601D01*
X29028Y-20616D01*
X29043Y-20644D01*
X29043Y-20687D01*
X29028Y-20716D01*
X29014Y-20730D01*
X28986Y-20744D01*
X28871Y-20744D01*
X29314Y-20887D02*
X29171Y-20887D01*
X29171Y-20587D01*
G54D15*
X27650Y-7433D02*
X27650Y-7838D01*
X27674Y-7885D01*
X27698Y-7909D01*
X27745Y-7933D01*
X27841Y-7933D01*
X27888Y-7909D01*
X27912Y-7885D01*
X27936Y-7838D01*
X27936Y-7433D01*
X28412Y-7433D02*
X28174Y-7433D01*
X28150Y-7671D01*
X28174Y-7647D01*
X28221Y-7623D01*
X28341Y-7623D01*
X28388Y-7647D01*
X28412Y-7671D01*
X28436Y-7718D01*
X28436Y-7838D01*
X28412Y-7885D01*
X28388Y-7909D01*
X28341Y-7933D01*
X28221Y-7933D01*
X28174Y-7909D01*
X28150Y-7885D01*
X24852Y-12233D02*
X24852Y-11733D01*
X25138Y-12233D01*
X25138Y-11733D01*
X25662Y-12185D02*
X25638Y-12209D01*
X25567Y-12233D01*
X25519Y-12233D01*
X25448Y-12209D01*
X25400Y-12161D01*
X25376Y-12114D01*
X25352Y-12018D01*
X25352Y-11947D01*
X25376Y-11852D01*
X25400Y-11804D01*
X25448Y-11757D01*
X25519Y-11733D01*
X25567Y-11733D01*
X25638Y-11757D01*
X25662Y-11780D01*
X25876Y-12233D02*
X25876Y-11733D01*
X26067Y-11733D01*
X26114Y-11757D01*
X26138Y-11780D01*
X26162Y-11828D01*
X26162Y-11899D01*
X26138Y-11947D01*
X26114Y-11971D01*
X26067Y-11995D01*
X25876Y-11995D01*
X26638Y-12233D02*
X26352Y-12233D01*
X26495Y-12233D02*
X26495Y-11733D01*
X26448Y-11804D01*
X26400Y-11852D01*
X26352Y-11876D01*
X27114Y-12233D02*
X26829Y-12233D01*
X26971Y-12233D02*
X26971Y-11733D01*
X26924Y-11804D01*
X26876Y-11852D01*
X26829Y-11876D01*
X27591Y-12233D02*
X27305Y-12233D01*
X27448Y-12233D02*
X27448Y-11733D01*
X27400Y-11804D01*
X27352Y-11852D01*
X27305Y-11876D01*
X27757Y-11733D02*
X28091Y-11733D01*
X27876Y-12233D01*
X28257Y-12209D02*
X28329Y-12233D01*
X28448Y-12233D01*
X28495Y-12209D01*
X28519Y-12185D01*
X28543Y-12138D01*
X28543Y-12090D01*
X28519Y-12042D01*
X28495Y-12018D01*
X28448Y-11995D01*
X28352Y-11971D01*
X28305Y-11947D01*
X28281Y-11923D01*
X28257Y-11876D01*
X28257Y-11828D01*
X28281Y-11780D01*
X28305Y-11757D01*
X28352Y-11733D01*
X28471Y-11733D01*
X28543Y-11757D01*
X28686Y-11733D02*
X28971Y-11733D01*
X28829Y-12233D02*
X28829Y-11733D01*
X29400Y-12233D02*
X29114Y-12233D01*
X29257Y-12233D02*
X29257Y-11733D01*
X29210Y-11804D01*
X29162Y-11852D01*
X29114Y-11876D01*
X29591Y-11780D02*
X29614Y-11757D01*
X29662Y-11733D01*
X29781Y-11733D01*
X29829Y-11757D01*
X29852Y-11780D01*
X29876Y-11828D01*
X29876Y-11876D01*
X29852Y-11947D01*
X29567Y-12233D01*
X29876Y-12233D01*
X30019Y-11733D02*
X30305Y-11733D01*
X30162Y-12233D02*
X30162Y-11733D01*
X30424Y-11733D02*
X30733Y-11733D01*
X30567Y-11923D01*
X30638Y-11923D01*
X30686Y-11947D01*
X30710Y-11971D01*
X30733Y-12018D01*
X30733Y-12138D01*
X30710Y-12185D01*
X30686Y-12209D01*
X30638Y-12233D01*
X30495Y-12233D01*
X30448Y-12209D01*
X30424Y-12185D01*
X31210Y-11757D02*
X31162Y-11733D01*
X31091Y-11733D01*
X31019Y-11757D01*
X30971Y-11804D01*
X30948Y-11852D01*
X30924Y-11947D01*
X30924Y-12018D01*
X30948Y-12114D01*
X30971Y-12161D01*
X31019Y-12209D01*
X31091Y-12233D01*
X31138Y-12233D01*
X31210Y-12209D01*
X31233Y-12185D01*
X31233Y-12018D01*
X31138Y-12018D01*
G54D10*
X15052Y-59666D02*
X15052Y-59985D01*
X15070Y-60022D01*
X15089Y-60041D01*
X15127Y-60060D01*
X15202Y-60060D01*
X15239Y-60041D01*
X15258Y-60022D01*
X15277Y-59985D01*
X15277Y-59666D01*
X15633Y-59666D02*
X15558Y-59666D01*
X15520Y-59685D01*
X15502Y-59704D01*
X15464Y-59760D01*
X15445Y-59835D01*
X15445Y-59985D01*
X15464Y-60022D01*
X15483Y-60041D01*
X15520Y-60060D01*
X15595Y-60060D01*
X15633Y-60041D01*
X15652Y-60022D01*
X15670Y-59985D01*
X15670Y-59891D01*
X15652Y-59854D01*
X15633Y-59835D01*
X15595Y-59816D01*
X15520Y-59816D01*
X15483Y-59835D01*
X15464Y-59854D01*
X15445Y-59891D01*
G54D16*
X30978Y-59866D02*
X31464Y-59866D01*
X31521Y-59838D01*
X31549Y-59809D01*
X31578Y-59752D01*
X31578Y-59638D01*
X31549Y-59580D01*
X31521Y-59552D01*
X31464Y-59523D01*
X30978Y-59523D01*
X30978Y-59295D02*
X30978Y-58895D01*
X31578Y-59152D01*
X20999Y-59846D02*
X20399Y-59846D01*
X20828Y-59646D01*
X20399Y-59446D01*
X20999Y-59446D01*
X20999Y-59160D02*
X20399Y-59160D01*
X20828Y-58960D01*
X20399Y-58760D01*
X20999Y-58760D01*
X20942Y-58131D02*
X20971Y-58160D01*
X20999Y-58246D01*
X20999Y-58303D01*
X20971Y-58388D01*
X20914Y-58446D01*
X20856Y-58474D01*
X20742Y-58503D01*
X20656Y-58503D01*
X20542Y-58474D01*
X20485Y-58446D01*
X20428Y-58388D01*
X20399Y-58303D01*
X20399Y-58246D01*
X20428Y-58160D01*
X20456Y-58131D01*
X21056Y-58017D02*
X21056Y-57560D01*
X20971Y-57446D02*
X20999Y-57360D01*
X20999Y-57217D01*
X20971Y-57160D01*
X20942Y-57131D01*
X20885Y-57103D01*
X20828Y-57103D01*
X20771Y-57131D01*
X20742Y-57160D01*
X20714Y-57217D01*
X20685Y-57331D01*
X20656Y-57388D01*
X20628Y-57417D01*
X20571Y-57446D01*
X20514Y-57446D01*
X20456Y-57417D01*
X20428Y-57388D01*
X20399Y-57331D01*
X20399Y-57188D01*
X20428Y-57103D01*
X20999Y-56846D02*
X20399Y-56846D01*
X20399Y-56703D01*
X20428Y-56617D01*
X20485Y-56560D01*
X20542Y-56531D01*
X20656Y-56503D01*
X20742Y-56503D01*
X20856Y-56531D01*
X20914Y-56560D01*
X20971Y-56617D01*
X20999Y-56703D01*
X20999Y-56846D01*
G54D22*
X14974Y-49834D02*
X14965Y-49843D01*
X14937Y-49852D01*
X14918Y-49852D01*
X14890Y-49843D01*
X14871Y-49824D01*
X14862Y-49805D01*
X14852Y-49768D01*
X14852Y-49740D01*
X14862Y-49702D01*
X14871Y-49684D01*
X14890Y-49665D01*
X14918Y-49655D01*
X14937Y-49655D01*
X14965Y-49665D01*
X14974Y-49674D01*
X15049Y-49796D02*
X15143Y-49796D01*
X15030Y-49852D02*
X15096Y-49655D01*
X15162Y-49852D01*
X15199Y-49655D02*
X15312Y-49655D01*
X15255Y-49852D02*
X15255Y-49655D01*
X15405Y-49740D02*
X15387Y-49730D01*
X15377Y-49721D01*
X15368Y-49702D01*
X15368Y-49693D01*
X15377Y-49674D01*
X15387Y-49665D01*
X15405Y-49655D01*
X15443Y-49655D01*
X15462Y-49665D01*
X15471Y-49674D01*
X15480Y-49693D01*
X15480Y-49702D01*
X15471Y-49721D01*
X15462Y-49730D01*
X15443Y-49740D01*
X15405Y-49740D01*
X15387Y-49749D01*
X15377Y-49759D01*
X15368Y-49777D01*
X15368Y-49815D01*
X15377Y-49834D01*
X15387Y-49843D01*
X15405Y-49852D01*
X15443Y-49852D01*
X15462Y-49843D01*
X15471Y-49834D01*
X15480Y-49815D01*
X15480Y-49777D01*
X15471Y-49759D01*
X15462Y-49749D01*
X15443Y-49740D01*
X15668Y-49852D02*
X15555Y-49852D01*
X15612Y-49852D02*
X15612Y-49655D01*
X15593Y-49684D01*
X15574Y-49702D01*
X15555Y-49712D01*
X15855Y-49852D02*
X15743Y-49852D01*
X15799Y-49852D02*
X15799Y-49655D01*
X15780Y-49684D01*
X15762Y-49702D01*
X15743Y-49712D01*
G54D16*
X21939Y-25980D02*
X21906Y-26013D01*
X21806Y-26046D01*
X21739Y-26046D01*
X21639Y-26013D01*
X21573Y-25946D01*
X21539Y-25880D01*
X21506Y-25746D01*
X21506Y-25646D01*
X21539Y-25513D01*
X21573Y-25446D01*
X21639Y-25380D01*
X21739Y-25346D01*
X21806Y-25346D01*
X21906Y-25380D01*
X21939Y-25413D01*
X22373Y-25346D02*
X22506Y-25346D01*
X22573Y-25380D01*
X22639Y-25446D01*
X22673Y-25580D01*
X22673Y-25813D01*
X22639Y-25946D01*
X22573Y-26013D01*
X22506Y-26046D01*
X22373Y-26046D01*
X22306Y-26013D01*
X22239Y-25946D01*
X22206Y-25813D01*
X22206Y-25580D01*
X22239Y-25446D01*
X22306Y-25380D01*
X22373Y-25346D01*
X22973Y-26046D02*
X22973Y-25346D01*
X23373Y-26046D01*
X23373Y-25346D01*
X23540Y-26113D02*
X24073Y-26113D01*
X24206Y-26013D02*
X24306Y-26046D01*
X24473Y-26046D01*
X24540Y-26013D01*
X24573Y-25980D01*
X24606Y-25913D01*
X24606Y-25846D01*
X24573Y-25780D01*
X24540Y-25746D01*
X24473Y-25713D01*
X24340Y-25680D01*
X24273Y-25646D01*
X24240Y-25613D01*
X24206Y-25546D01*
X24206Y-25480D01*
X24240Y-25413D01*
X24273Y-25380D01*
X24340Y-25346D01*
X24506Y-25346D01*
X24606Y-25380D01*
X24906Y-25680D02*
X25140Y-25680D01*
X25240Y-26046D02*
X24906Y-26046D01*
X24906Y-25346D01*
X25240Y-25346D01*
X25540Y-26046D02*
X25540Y-25346D01*
X25940Y-26046D01*
X25940Y-25346D01*
X26240Y-26013D02*
X26340Y-26046D01*
X26506Y-26046D01*
X26573Y-26013D01*
X26606Y-25980D01*
X26640Y-25913D01*
X26640Y-25846D01*
X26606Y-25780D01*
X26573Y-25746D01*
X26506Y-25713D01*
X26373Y-25680D01*
X26306Y-25646D01*
X26273Y-25613D01*
X26240Y-25546D01*
X26240Y-25480D01*
X26273Y-25413D01*
X26306Y-25380D01*
X26373Y-25346D01*
X26540Y-25346D01*
X26640Y-25380D01*
X27073Y-25346D02*
X27206Y-25346D01*
X27273Y-25380D01*
X27340Y-25446D01*
X27373Y-25580D01*
X27373Y-25813D01*
X27340Y-25946D01*
X27273Y-26013D01*
X27206Y-26046D01*
X27073Y-26046D01*
X27006Y-26013D01*
X26940Y-25946D01*
X26906Y-25813D01*
X26906Y-25580D01*
X26940Y-25446D01*
X27006Y-25380D01*
X27073Y-25346D01*
X28073Y-26046D02*
X27840Y-25713D01*
X27673Y-26046D02*
X27673Y-25346D01*
X27940Y-25346D01*
X28006Y-25380D01*
X28040Y-25413D01*
X28073Y-25480D01*
X28073Y-25580D01*
X28040Y-25646D01*
X28006Y-25680D01*
X27940Y-25713D01*
X27673Y-25713D01*
X28373Y-25680D02*
X28606Y-25680D01*
X28706Y-26046D02*
X28373Y-26046D01*
X28373Y-25346D01*
X28706Y-25346D01*
X28973Y-26013D02*
X29073Y-26046D01*
X29240Y-26046D01*
X29306Y-26013D01*
X29340Y-25980D01*
X29373Y-25913D01*
X29373Y-25846D01*
X29340Y-25780D01*
X29306Y-25746D01*
X29240Y-25713D01*
X29106Y-25680D01*
X29040Y-25646D01*
X29006Y-25613D01*
X28973Y-25546D01*
X28973Y-25480D01*
X29006Y-25413D01*
X29040Y-25380D01*
X29106Y-25346D01*
X29273Y-25346D01*
X29373Y-25380D01*
X27473Y-28285D02*
X27473Y-27585D01*
X27740Y-27585D01*
X27807Y-27619D01*
X27840Y-27652D01*
X27873Y-27719D01*
X27873Y-27819D01*
X27840Y-27885D01*
X27807Y-27919D01*
X27740Y-27952D01*
X27473Y-27952D01*
X28140Y-27652D02*
X28173Y-27619D01*
X28240Y-27585D01*
X28407Y-27585D01*
X28473Y-27619D01*
X28507Y-27652D01*
X28540Y-27719D01*
X28540Y-27785D01*
X28507Y-27885D01*
X28107Y-28285D01*
X28540Y-28285D01*
G54D14*
X21438Y-48235D02*
X21419Y-48264D01*
X21362Y-48293D01*
X21324Y-48293D01*
X21267Y-48264D01*
X21229Y-48207D01*
X21210Y-48150D01*
X21191Y-48035D01*
X21191Y-47950D01*
X21210Y-47835D01*
X21229Y-47778D01*
X21267Y-47721D01*
X21324Y-47693D01*
X21362Y-47693D01*
X21419Y-47721D01*
X21438Y-47750D01*
X21686Y-47693D02*
X21762Y-47693D01*
X21800Y-47721D01*
X21838Y-47778D01*
X21857Y-47893D01*
X21857Y-48093D01*
X21838Y-48207D01*
X21800Y-48264D01*
X21762Y-48293D01*
X21686Y-48293D01*
X21648Y-48264D01*
X21610Y-48207D01*
X21591Y-48093D01*
X21591Y-47893D01*
X21610Y-47778D01*
X21648Y-47721D01*
X21686Y-47693D01*
X22029Y-48293D02*
X22029Y-47693D01*
X22257Y-48293D01*
X22257Y-47693D01*
X22353Y-48350D02*
X22657Y-48350D01*
X22943Y-48293D02*
X22753Y-48293D01*
X22753Y-47693D01*
X23305Y-48235D02*
X23286Y-48264D01*
X23229Y-48293D01*
X23191Y-48293D01*
X23134Y-48264D01*
X23095Y-48207D01*
X23076Y-48150D01*
X23057Y-48035D01*
X23057Y-47950D01*
X23076Y-47835D01*
X23095Y-47778D01*
X23134Y-47721D01*
X23191Y-47693D01*
X23229Y-47693D01*
X23286Y-47721D01*
X23305Y-47750D01*
X23476Y-48293D02*
X23476Y-47693D01*
X23572Y-47693D01*
X23629Y-47721D01*
X23667Y-47778D01*
X23686Y-47835D01*
X23705Y-47950D01*
X23705Y-48035D01*
X23686Y-48150D01*
X23667Y-48207D01*
X23629Y-48264D01*
X23572Y-48293D01*
X23476Y-48293D01*
X24162Y-47664D02*
X23819Y-48435D01*
X24295Y-47693D02*
X24295Y-48178D01*
X24315Y-48235D01*
X24334Y-48264D01*
X24372Y-48293D01*
X24448Y-48293D01*
X24486Y-48264D01*
X24505Y-48235D01*
X24524Y-48178D01*
X24524Y-47693D01*
X24695Y-48264D02*
X24753Y-48293D01*
X24848Y-48293D01*
X24886Y-48264D01*
X24905Y-48235D01*
X24924Y-48178D01*
X24924Y-48121D01*
X24905Y-48064D01*
X24886Y-48035D01*
X24848Y-48007D01*
X24772Y-47978D01*
X24734Y-47950D01*
X24715Y-47921D01*
X24695Y-47864D01*
X24695Y-47807D01*
X24715Y-47750D01*
X24734Y-47721D01*
X24772Y-47693D01*
X24867Y-47693D01*
X24924Y-47721D01*
X25229Y-47978D02*
X25286Y-48007D01*
X25305Y-48035D01*
X25324Y-48093D01*
X25324Y-48178D01*
X25305Y-48235D01*
X25286Y-48264D01*
X25248Y-48293D01*
X25095Y-48293D01*
X25095Y-47693D01*
X25229Y-47693D01*
X25267Y-47721D01*
X25286Y-47750D01*
X25305Y-47807D01*
X25305Y-47864D01*
X25286Y-47921D01*
X25267Y-47950D01*
X25229Y-47978D01*
X25095Y-47978D01*
X23956Y-47393D02*
X23956Y-46793D01*
X24109Y-46793D01*
X24147Y-46822D01*
X24166Y-46850D01*
X24185Y-46907D01*
X24185Y-46993D01*
X24166Y-47050D01*
X24147Y-47079D01*
X24109Y-47107D01*
X23956Y-47107D01*
X24528Y-46993D02*
X24528Y-47393D01*
X24432Y-46764D02*
X24337Y-47193D01*
X24585Y-47193D01*
G54D19*
X16684Y-28679D02*
X16675Y-28688D01*
X16646Y-28698D01*
X16628Y-28698D01*
X16599Y-28688D01*
X16581Y-28670D01*
X16571Y-28651D01*
X16562Y-28613D01*
X16562Y-28585D01*
X16571Y-28548D01*
X16581Y-28529D01*
X16599Y-28510D01*
X16628Y-28501D01*
X16646Y-28501D01*
X16675Y-28510D01*
X16684Y-28520D01*
X16872Y-28698D02*
X16759Y-28698D01*
X16815Y-28698D02*
X16815Y-28501D01*
X16796Y-28529D01*
X16778Y-28548D01*
X16759Y-28557D01*
X16993Y-28501D02*
X17012Y-28501D01*
X17031Y-28510D01*
X17040Y-28520D01*
X17050Y-28538D01*
X17059Y-28576D01*
X17059Y-28623D01*
X17050Y-28660D01*
X17040Y-28679D01*
X17031Y-28688D01*
X17012Y-28698D01*
X16993Y-28698D01*
X16975Y-28688D01*
X16965Y-28679D01*
X16956Y-28660D01*
X16947Y-28623D01*
X16947Y-28576D01*
X16956Y-28538D01*
X16965Y-28520D01*
X16975Y-28510D01*
X16993Y-28501D01*
X16590Y-28423D02*
X16478Y-28423D01*
X16534Y-28423D02*
X16534Y-28226D01*
X16515Y-28254D01*
X16496Y-28273D01*
X16478Y-28282D01*
X16712Y-28226D02*
X16731Y-28226D01*
X16750Y-28235D01*
X16759Y-28245D01*
X16768Y-28263D01*
X16778Y-28301D01*
X16778Y-28348D01*
X16768Y-28385D01*
X16759Y-28404D01*
X16750Y-28413D01*
X16731Y-28423D01*
X16712Y-28423D01*
X16693Y-28413D01*
X16684Y-28404D01*
X16675Y-28385D01*
X16665Y-28348D01*
X16665Y-28301D01*
X16675Y-28263D01*
X16684Y-28245D01*
X16693Y-28235D01*
X16712Y-28226D01*
X16900Y-28226D02*
X16918Y-28226D01*
X16937Y-28235D01*
X16947Y-28245D01*
X16956Y-28263D01*
X16965Y-28301D01*
X16965Y-28348D01*
X16956Y-28385D01*
X16947Y-28404D01*
X16937Y-28413D01*
X16918Y-28423D01*
X16900Y-28423D01*
X16881Y-28413D01*
X16872Y-28404D01*
X16862Y-28385D01*
X16853Y-28348D01*
X16853Y-28301D01*
X16862Y-28263D01*
X16872Y-28245D01*
X16881Y-28235D01*
X16900Y-28226D01*
X17050Y-28292D02*
X17050Y-28423D01*
X17050Y-28310D02*
X17059Y-28301D01*
X17078Y-28292D01*
X17106Y-28292D01*
X17125Y-28301D01*
X17134Y-28320D01*
X17134Y-28423D01*
G54D16*
X15226Y-10066D02*
X15226Y-9466D01*
X15455Y-9466D01*
X15512Y-9495D01*
X15540Y-9523D01*
X15569Y-9580D01*
X15569Y-9666D01*
X15540Y-9723D01*
X15512Y-9752D01*
X15455Y-9780D01*
X15226Y-9780D01*
X16140Y-10066D02*
X15797Y-10066D01*
X15969Y-10066D02*
X15969Y-9466D01*
X15912Y-9552D01*
X15855Y-9609D01*
X15797Y-9638D01*
X11810Y-6789D02*
X11781Y-6817D01*
X11695Y-6846D01*
X11638Y-6846D01*
X11553Y-6817D01*
X11495Y-6760D01*
X11467Y-6703D01*
X11438Y-6589D01*
X11438Y-6503D01*
X11467Y-6389D01*
X11495Y-6331D01*
X11553Y-6274D01*
X11638Y-6246D01*
X11695Y-6246D01*
X11781Y-6274D01*
X11810Y-6303D01*
X12181Y-6246D02*
X12295Y-6246D01*
X12353Y-6274D01*
X12410Y-6331D01*
X12438Y-6446D01*
X12438Y-6646D01*
X12410Y-6760D01*
X12353Y-6817D01*
X12295Y-6846D01*
X12181Y-6846D01*
X12124Y-6817D01*
X12067Y-6760D01*
X12038Y-6646D01*
X12038Y-6446D01*
X12067Y-6331D01*
X12124Y-6274D01*
X12181Y-6246D01*
X12695Y-6846D02*
X12695Y-6246D01*
X13038Y-6846D01*
X13038Y-6246D01*
X13181Y-6903D02*
X13638Y-6903D01*
X13753Y-6674D02*
X14038Y-6674D01*
X13695Y-6846D02*
X13895Y-6246D01*
X14095Y-6846D01*
X14581Y-6846D02*
X14295Y-6846D01*
X14295Y-6246D01*
X14781Y-6846D02*
X14781Y-6246D01*
X15067Y-6846D02*
X15067Y-6246D01*
X15267Y-6674D01*
X15467Y-6246D01*
X15467Y-6846D01*
X15753Y-6531D02*
X15953Y-6531D01*
X16038Y-6846D02*
X15753Y-6846D01*
X15753Y-6246D01*
X16038Y-6246D01*
X16295Y-6846D02*
X16295Y-6246D01*
X16638Y-6846D01*
X16638Y-6246D01*
X16838Y-6246D02*
X17181Y-6246D01*
X17010Y-6846D02*
X17010Y-6246D01*
X17353Y-6674D02*
X17638Y-6674D01*
X17295Y-6846D02*
X17495Y-6246D01*
X17695Y-6846D01*
X18238Y-6789D02*
X18210Y-6817D01*
X18124Y-6846D01*
X18067Y-6846D01*
X17981Y-6817D01*
X17924Y-6760D01*
X17895Y-6703D01*
X17867Y-6589D01*
X17867Y-6503D01*
X17895Y-6389D01*
X17924Y-6331D01*
X17981Y-6274D01*
X18067Y-6246D01*
X18124Y-6246D01*
X18210Y-6274D01*
X18238Y-6303D01*
X18495Y-6846D02*
X18495Y-6246D01*
X18895Y-6246D02*
X19010Y-6246D01*
X19067Y-6274D01*
X19124Y-6331D01*
X19153Y-6446D01*
X19153Y-6646D01*
X19124Y-6760D01*
X19067Y-6817D01*
X19010Y-6846D01*
X18895Y-6846D01*
X18838Y-6817D01*
X18781Y-6760D01*
X18753Y-6646D01*
X18753Y-6446D01*
X18781Y-6331D01*
X18838Y-6274D01*
X18895Y-6246D01*
X19410Y-6846D02*
X19410Y-6246D01*
X19753Y-6846D01*
X19753Y-6246D01*
G54D18*
X21187Y-17927D02*
X21177Y-17918D01*
X21168Y-17899D01*
X21168Y-17852D01*
X21177Y-17834D01*
X21187Y-17824D01*
X21206Y-17815D01*
X21224Y-17815D01*
X21252Y-17824D01*
X21365Y-17937D01*
X21365Y-17815D01*
X21187Y-17740D02*
X21177Y-17730D01*
X21168Y-17712D01*
X21168Y-17665D01*
X21177Y-17646D01*
X21187Y-17637D01*
X21206Y-17627D01*
X21224Y-17627D01*
X21252Y-17637D01*
X21365Y-17749D01*
X21365Y-17627D01*
X21168Y-17505D02*
X21168Y-17487D01*
X21177Y-17468D01*
X21187Y-17458D01*
X21206Y-17449D01*
X21243Y-17440D01*
X21290Y-17440D01*
X21327Y-17449D01*
X21346Y-17458D01*
X21356Y-17468D01*
X21365Y-17487D01*
X21365Y-17505D01*
X21356Y-17524D01*
X21346Y-17533D01*
X21327Y-17543D01*
X21290Y-17552D01*
X21243Y-17552D01*
X21206Y-17543D01*
X21187Y-17533D01*
X21177Y-17524D01*
X21168Y-17505D01*
X21168Y-17318D02*
X21168Y-17299D01*
X21177Y-17280D01*
X21187Y-17271D01*
X21206Y-17261D01*
X21243Y-17252D01*
X21290Y-17252D01*
X21327Y-17261D01*
X21346Y-17271D01*
X21356Y-17280D01*
X21365Y-17299D01*
X21365Y-17318D01*
X21356Y-17336D01*
X21346Y-17346D01*
X21327Y-17355D01*
X21290Y-17365D01*
X21243Y-17365D01*
X21206Y-17355D01*
X21187Y-17346D01*
X21177Y-17336D01*
X21168Y-17318D01*
X21234Y-17083D02*
X21365Y-17083D01*
X21234Y-17168D02*
X21337Y-17168D01*
X21356Y-17158D01*
X21365Y-17139D01*
X21365Y-17111D01*
X21356Y-17093D01*
X21346Y-17083D01*
X21262Y-16924D02*
X21262Y-16989D01*
X21365Y-16989D02*
X21168Y-16989D01*
X21168Y-16896D01*
X21365Y-16717D02*
X21365Y-16830D01*
X21365Y-16774D02*
X21168Y-16774D01*
X21196Y-16792D01*
X21215Y-16811D01*
X21224Y-16830D01*
X24241Y-17849D02*
X24232Y-17839D01*
X24222Y-17821D01*
X24222Y-17774D01*
X24232Y-17755D01*
X24241Y-17745D01*
X24260Y-17736D01*
X24279Y-17736D01*
X24307Y-17745D01*
X24419Y-17858D01*
X24419Y-17736D01*
X24241Y-17661D02*
X24232Y-17652D01*
X24222Y-17633D01*
X24222Y-17586D01*
X24232Y-17567D01*
X24241Y-17558D01*
X24260Y-17548D01*
X24279Y-17548D01*
X24307Y-17558D01*
X24419Y-17670D01*
X24419Y-17548D01*
X24222Y-17427D02*
X24222Y-17408D01*
X24232Y-17389D01*
X24241Y-17380D01*
X24260Y-17370D01*
X24297Y-17361D01*
X24344Y-17361D01*
X24382Y-17370D01*
X24401Y-17380D01*
X24410Y-17389D01*
X24419Y-17408D01*
X24419Y-17427D01*
X24410Y-17445D01*
X24401Y-17455D01*
X24382Y-17464D01*
X24344Y-17473D01*
X24297Y-17473D01*
X24260Y-17464D01*
X24241Y-17455D01*
X24232Y-17445D01*
X24222Y-17427D01*
X24222Y-17239D02*
X24222Y-17220D01*
X24232Y-17201D01*
X24241Y-17192D01*
X24260Y-17183D01*
X24297Y-17173D01*
X24344Y-17173D01*
X24382Y-17183D01*
X24401Y-17192D01*
X24410Y-17201D01*
X24419Y-17220D01*
X24419Y-17239D01*
X24410Y-17258D01*
X24401Y-17267D01*
X24382Y-17276D01*
X24344Y-17286D01*
X24297Y-17286D01*
X24260Y-17276D01*
X24241Y-17267D01*
X24232Y-17258D01*
X24222Y-17239D01*
X24288Y-17004D02*
X24419Y-17004D01*
X24288Y-17089D02*
X24391Y-17089D01*
X24410Y-17079D01*
X24419Y-17061D01*
X24419Y-17033D01*
X24410Y-17014D01*
X24401Y-17004D01*
X24316Y-16845D02*
X24316Y-16911D01*
X24419Y-16911D02*
X24222Y-16911D01*
X24222Y-16817D01*
X24241Y-16751D02*
X24232Y-16742D01*
X24222Y-16723D01*
X24222Y-16676D01*
X24232Y-16657D01*
X24241Y-16648D01*
X24260Y-16639D01*
X24279Y-16639D01*
X24307Y-16648D01*
X24419Y-16760D01*
X24419Y-16639D01*
X14519Y-23512D02*
X14509Y-23521D01*
X14481Y-23530D01*
X14462Y-23530D01*
X14434Y-23521D01*
X14415Y-23502D01*
X14406Y-23483D01*
X14397Y-23446D01*
X14397Y-23418D01*
X14406Y-23380D01*
X14415Y-23361D01*
X14434Y-23343D01*
X14462Y-23333D01*
X14481Y-23333D01*
X14509Y-23343D01*
X14519Y-23352D01*
X14706Y-23530D02*
X14594Y-23530D01*
X14650Y-23530D02*
X14650Y-23333D01*
X14631Y-23361D01*
X14612Y-23380D01*
X14594Y-23390D01*
X14894Y-23530D02*
X14781Y-23530D01*
X14837Y-23530D02*
X14837Y-23333D01*
X14819Y-23361D01*
X14800Y-23380D01*
X14781Y-23390D01*
G54D19*
X24266Y-11780D02*
X24275Y-11789D01*
X24284Y-11817D01*
X24284Y-11836D01*
X24275Y-11864D01*
X24256Y-11883D01*
X24238Y-11892D01*
X24200Y-11902D01*
X24172Y-11902D01*
X24134Y-11892D01*
X24116Y-11883D01*
X24097Y-11864D01*
X24087Y-11836D01*
X24087Y-11817D01*
X24097Y-11789D01*
X24106Y-11780D01*
X24284Y-11592D02*
X24284Y-11705D01*
X24284Y-11648D02*
X24087Y-11648D01*
X24116Y-11667D01*
X24134Y-11686D01*
X24144Y-11705D01*
X24106Y-11517D02*
X24097Y-11508D01*
X24087Y-11489D01*
X24087Y-11442D01*
X24097Y-11423D01*
X24106Y-11414D01*
X24125Y-11404D01*
X24144Y-11404D01*
X24172Y-11414D01*
X24284Y-11526D01*
X24284Y-11404D01*
X24362Y-11986D02*
X24362Y-11967D01*
X24372Y-11949D01*
X24381Y-11939D01*
X24400Y-11930D01*
X24438Y-11920D01*
X24484Y-11920D01*
X24522Y-11930D01*
X24541Y-11939D01*
X24550Y-11949D01*
X24559Y-11967D01*
X24559Y-11986D01*
X24550Y-12005D01*
X24541Y-12014D01*
X24522Y-12024D01*
X24484Y-12033D01*
X24438Y-12033D01*
X24400Y-12024D01*
X24381Y-12014D01*
X24372Y-12005D01*
X24362Y-11986D01*
X24541Y-11836D02*
X24550Y-11827D01*
X24559Y-11836D01*
X24550Y-11845D01*
X24541Y-11836D01*
X24559Y-11836D01*
X24362Y-11705D02*
X24362Y-11686D01*
X24372Y-11667D01*
X24381Y-11658D01*
X24400Y-11648D01*
X24438Y-11639D01*
X24484Y-11639D01*
X24522Y-11648D01*
X24541Y-11658D01*
X24550Y-11667D01*
X24559Y-11686D01*
X24559Y-11705D01*
X24550Y-11723D01*
X24541Y-11733D01*
X24522Y-11742D01*
X24484Y-11752D01*
X24438Y-11752D01*
X24400Y-11742D01*
X24381Y-11733D01*
X24372Y-11723D01*
X24362Y-11705D01*
X24559Y-11451D02*
X24559Y-11564D01*
X24559Y-11508D02*
X24362Y-11508D01*
X24391Y-11526D01*
X24409Y-11545D01*
X24419Y-11564D01*
X24428Y-11282D02*
X24559Y-11282D01*
X24428Y-11367D02*
X24531Y-11367D01*
X24550Y-11358D01*
X24559Y-11339D01*
X24559Y-11311D01*
X24550Y-11292D01*
X24541Y-11282D01*
X24883Y-9969D02*
X24892Y-9978D01*
X24902Y-10006D01*
X24902Y-10025D01*
X24892Y-10053D01*
X24873Y-10072D01*
X24855Y-10081D01*
X24817Y-10091D01*
X24789Y-10091D01*
X24752Y-10081D01*
X24733Y-10072D01*
X24714Y-10053D01*
X24705Y-10025D01*
X24705Y-10006D01*
X24714Y-9978D01*
X24723Y-9969D01*
X24902Y-9781D02*
X24902Y-9894D01*
X24902Y-9837D02*
X24705Y-9837D01*
X24733Y-9856D01*
X24752Y-9875D01*
X24761Y-9894D01*
X24705Y-9612D02*
X24705Y-9650D01*
X24714Y-9668D01*
X24723Y-9678D01*
X24752Y-9697D01*
X24789Y-9706D01*
X24864Y-9706D01*
X24883Y-9697D01*
X24892Y-9687D01*
X24902Y-9668D01*
X24902Y-9631D01*
X24892Y-9612D01*
X24883Y-9603D01*
X24864Y-9593D01*
X24817Y-9593D01*
X24798Y-9603D01*
X24789Y-9612D01*
X24780Y-9631D01*
X24780Y-9668D01*
X24789Y-9687D01*
X24798Y-9697D01*
X24817Y-9706D01*
X23809Y-10165D02*
X23809Y-10146D01*
X23818Y-10128D01*
X23828Y-10118D01*
X23846Y-10109D01*
X23884Y-10100D01*
X23931Y-10100D01*
X23968Y-10109D01*
X23987Y-10118D01*
X23997Y-10128D01*
X24006Y-10146D01*
X24006Y-10165D01*
X23997Y-10184D01*
X23987Y-10193D01*
X23968Y-10203D01*
X23931Y-10212D01*
X23884Y-10212D01*
X23846Y-10203D01*
X23828Y-10193D01*
X23818Y-10184D01*
X23809Y-10165D01*
X23987Y-10015D02*
X23997Y-10006D01*
X24006Y-10015D01*
X23997Y-10024D01*
X23987Y-10015D01*
X24006Y-10015D01*
X23809Y-9884D02*
X23809Y-9865D01*
X23818Y-9846D01*
X23828Y-9837D01*
X23846Y-9827D01*
X23884Y-9818D01*
X23931Y-9818D01*
X23968Y-9827D01*
X23987Y-9837D01*
X23997Y-9846D01*
X24006Y-9865D01*
X24006Y-9884D01*
X23997Y-9903D01*
X23987Y-9912D01*
X23968Y-9921D01*
X23931Y-9931D01*
X23884Y-9931D01*
X23846Y-9921D01*
X23828Y-9912D01*
X23818Y-9903D01*
X23809Y-9884D01*
X24006Y-9630D02*
X24006Y-9743D01*
X24006Y-9687D02*
X23809Y-9687D01*
X23837Y-9706D01*
X23856Y-9724D01*
X23865Y-9743D01*
X23875Y-9462D02*
X24006Y-9462D01*
X23875Y-9546D02*
X23978Y-9546D01*
X23997Y-9537D01*
X24006Y-9518D01*
X24006Y-9490D01*
X23997Y-9471D01*
X23987Y-9462D01*
G54D21*
X21348Y-12574D02*
X21348Y-13060D01*
X21367Y-13117D01*
X21386Y-13146D01*
X21424Y-13174D01*
X21501Y-13174D01*
X21539Y-13146D01*
X21558Y-13117D01*
X21577Y-13060D01*
X21577Y-12574D01*
X21824Y-12832D02*
X21786Y-12803D01*
X21767Y-12774D01*
X21748Y-12717D01*
X21748Y-12689D01*
X21767Y-12632D01*
X21786Y-12603D01*
X21824Y-12574D01*
X21901Y-12574D01*
X21939Y-12603D01*
X21958Y-12632D01*
X21977Y-12689D01*
X21977Y-12717D01*
X21958Y-12774D01*
X21939Y-12803D01*
X21901Y-12832D01*
X21824Y-12832D01*
X21786Y-12860D01*
X21767Y-12889D01*
X21748Y-12946D01*
X21748Y-13060D01*
X21767Y-13117D01*
X21786Y-13146D01*
X21824Y-13174D01*
X21901Y-13174D01*
X21939Y-13146D01*
X21958Y-13117D01*
X21977Y-13060D01*
X21977Y-12946D01*
X21958Y-12889D01*
X21939Y-12860D01*
X21901Y-12832D01*
X19424Y-12270D02*
X19424Y-12460D01*
X18824Y-12460D01*
X19424Y-12136D02*
X18824Y-12136D01*
X19253Y-12003D01*
X18824Y-11870D01*
X19424Y-11870D01*
X18824Y-11717D02*
X18824Y-11451D01*
X19424Y-11622D01*
X19082Y-11241D02*
X19053Y-11279D01*
X19024Y-11298D01*
X18967Y-11317D01*
X18939Y-11317D01*
X18882Y-11298D01*
X18853Y-11279D01*
X18824Y-11241D01*
X18824Y-11165D01*
X18853Y-11127D01*
X18882Y-11108D01*
X18939Y-11089D01*
X18967Y-11089D01*
X19024Y-11108D01*
X19053Y-11127D01*
X19082Y-11165D01*
X19082Y-11241D01*
X19110Y-11279D01*
X19139Y-11298D01*
X19196Y-11317D01*
X19310Y-11317D01*
X19367Y-11298D01*
X19396Y-11279D01*
X19424Y-11241D01*
X19424Y-11165D01*
X19396Y-11127D01*
X19367Y-11108D01*
X19310Y-11089D01*
X19196Y-11089D01*
X19139Y-11108D01*
X19110Y-11127D01*
X19082Y-11165D01*
X19424Y-10708D02*
X19424Y-10936D01*
X19424Y-10822D02*
X18824Y-10822D01*
X18910Y-10860D01*
X18967Y-10898D01*
X18996Y-10936D01*
X18824Y-10346D02*
X18824Y-10536D01*
X19110Y-10555D01*
X19082Y-10536D01*
X19053Y-10498D01*
X19053Y-10403D01*
X19082Y-10365D01*
X19110Y-10346D01*
X19167Y-10327D01*
X19310Y-10327D01*
X19367Y-10346D01*
X19396Y-10365D01*
X19424Y-10403D01*
X19424Y-10498D01*
X19396Y-10536D01*
X19367Y-10555D01*
X21348Y-8323D02*
X21348Y-8808D01*
X21367Y-8865D01*
X21386Y-8894D01*
X21424Y-8923D01*
X21501Y-8923D01*
X21539Y-8894D01*
X21558Y-8865D01*
X21577Y-8808D01*
X21577Y-8323D01*
X21786Y-8923D02*
X21863Y-8923D01*
X21901Y-8894D01*
X21920Y-8865D01*
X21958Y-8780D01*
X21977Y-8665D01*
X21977Y-8437D01*
X21958Y-8380D01*
X21939Y-8351D01*
X21901Y-8323D01*
X21824Y-8323D01*
X21786Y-8351D01*
X21767Y-8380D01*
X21748Y-8437D01*
X21748Y-8580D01*
X21767Y-8637D01*
X21786Y-8665D01*
X21824Y-8694D01*
X21901Y-8694D01*
X21939Y-8665D01*
X21958Y-8637D01*
X21977Y-8580D01*
X20757Y-6797D02*
X20566Y-6797D01*
X20566Y-6197D01*
X20890Y-6797D02*
X20890Y-6197D01*
X21024Y-6625D01*
X21157Y-6197D01*
X21157Y-6797D01*
X21309Y-6197D02*
X21576Y-6197D01*
X21404Y-6797D01*
X21747Y-6797D02*
X21824Y-6797D01*
X21862Y-6768D01*
X21881Y-6739D01*
X21919Y-6654D01*
X21938Y-6539D01*
X21938Y-6311D01*
X21919Y-6254D01*
X21900Y-6225D01*
X21862Y-6197D01*
X21785Y-6197D01*
X21747Y-6225D01*
X21728Y-6254D01*
X21709Y-6311D01*
X21709Y-6454D01*
X21728Y-6511D01*
X21747Y-6539D01*
X21785Y-6568D01*
X21862Y-6568D01*
X21900Y-6539D01*
X21919Y-6511D01*
X21938Y-6454D01*
X22319Y-6797D02*
X22090Y-6797D01*
X22204Y-6797D02*
X22204Y-6197D01*
X22166Y-6282D01*
X22128Y-6339D01*
X22090Y-6368D01*
X22681Y-6197D02*
X22490Y-6197D01*
X22471Y-6482D01*
X22490Y-6454D01*
X22528Y-6425D01*
X22624Y-6425D01*
X22662Y-6454D01*
X22681Y-6482D01*
X22700Y-6539D01*
X22700Y-6682D01*
X22681Y-6739D01*
X22662Y-6768D01*
X22624Y-6797D01*
X22528Y-6797D01*
X22490Y-6768D01*
X22471Y-6739D01*
G54D14*
G54D21*
X21158Y-10448D02*
X21158Y-10934D01*
X21177Y-10991D01*
X21196Y-11020D01*
X21234Y-11048D01*
X21310Y-11048D01*
X21348Y-11020D01*
X21367Y-10991D01*
X21386Y-10934D01*
X21386Y-10448D01*
X21786Y-11048D02*
X21558Y-11048D01*
X21672Y-11048D02*
X21672Y-10448D01*
X21634Y-10534D01*
X21596Y-10591D01*
X21558Y-10620D01*
X22034Y-10448D02*
X22072Y-10448D01*
X22110Y-10477D01*
X22129Y-10506D01*
X22148Y-10563D01*
X22167Y-10677D01*
X22167Y-10820D01*
X22148Y-10934D01*
X22129Y-10991D01*
X22110Y-11020D01*
X22072Y-11048D01*
X22034Y-11048D01*
X21996Y-11020D01*
X21977Y-10991D01*
X21958Y-10934D01*
X21939Y-10820D01*
X21939Y-10677D01*
X21958Y-10563D01*
X21977Y-10506D01*
X21996Y-10477D01*
X22034Y-10448D01*
X19424Y-10144D02*
X19424Y-10334D01*
X18824Y-10334D01*
X19424Y-10010D02*
X18824Y-10010D01*
X19253Y-9877D01*
X18824Y-9744D01*
X19424Y-9744D01*
X18824Y-9591D02*
X18824Y-9325D01*
X19424Y-9496D01*
X19424Y-9153D02*
X19424Y-9077D01*
X19396Y-9039D01*
X19367Y-9020D01*
X19282Y-8982D01*
X19167Y-8963D01*
X18939Y-8963D01*
X18882Y-8982D01*
X18853Y-9001D01*
X18824Y-9039D01*
X18824Y-9115D01*
X18853Y-9153D01*
X18882Y-9172D01*
X18939Y-9191D01*
X19082Y-9191D01*
X19139Y-9172D01*
X19167Y-9153D01*
X19196Y-9115D01*
X19196Y-9039D01*
X19167Y-9001D01*
X19139Y-8982D01*
X19082Y-8963D01*
X18824Y-8715D02*
X18824Y-8677D01*
X18853Y-8639D01*
X18882Y-8620D01*
X18939Y-8601D01*
X19053Y-8582D01*
X19196Y-8582D01*
X19310Y-8601D01*
X19367Y-8620D01*
X19396Y-8639D01*
X19424Y-8677D01*
X19424Y-8715D01*
X19396Y-8753D01*
X19367Y-8772D01*
X19310Y-8791D01*
X19196Y-8810D01*
X19053Y-8810D01*
X18939Y-8791D01*
X18882Y-8772D01*
X18853Y-8753D01*
X18824Y-8715D01*
X18824Y-8220D02*
X18824Y-8410D01*
X19110Y-8429D01*
X19082Y-8410D01*
X19053Y-8372D01*
X19053Y-8277D01*
X19082Y-8239D01*
X19110Y-8220D01*
X19167Y-8201D01*
X19310Y-8201D01*
X19367Y-8220D01*
X19396Y-8239D01*
X19424Y-8277D01*
X19424Y-8372D01*
X19396Y-8410D01*
X19367Y-8429D01*
X21079Y-14700D02*
X21079Y-15186D01*
X21098Y-15243D01*
X21117Y-15272D01*
X21155Y-15300D01*
X21231Y-15300D01*
X21270Y-15272D01*
X21289Y-15243D01*
X21308Y-15186D01*
X21308Y-14700D01*
X21708Y-15300D02*
X21479Y-15300D01*
X21593Y-15300D02*
X21593Y-14700D01*
X21555Y-14786D01*
X21517Y-14843D01*
X21479Y-14872D01*
X22089Y-15300D02*
X21860Y-15300D01*
X21974Y-15300D02*
X21974Y-14700D01*
X21936Y-14786D01*
X21898Y-14843D01*
X21860Y-14872D01*
X19346Y-14396D02*
X19346Y-14586D01*
X18746Y-14586D01*
X19346Y-14262D02*
X18746Y-14262D01*
X19174Y-14129D01*
X18746Y-13996D01*
X19346Y-13996D01*
X18746Y-13843D02*
X18746Y-13577D01*
X19346Y-13748D01*
X19003Y-13367D02*
X18974Y-13405D01*
X18946Y-13424D01*
X18889Y-13443D01*
X18860Y-13443D01*
X18803Y-13424D01*
X18774Y-13405D01*
X18746Y-13367D01*
X18746Y-13291D01*
X18774Y-13253D01*
X18803Y-13234D01*
X18860Y-13215D01*
X18889Y-13215D01*
X18946Y-13234D01*
X18974Y-13253D01*
X19003Y-13291D01*
X19003Y-13367D01*
X19031Y-13405D01*
X19060Y-13424D01*
X19117Y-13443D01*
X19231Y-13443D01*
X19289Y-13424D01*
X19317Y-13405D01*
X19346Y-13367D01*
X19346Y-13291D01*
X19317Y-13253D01*
X19289Y-13234D01*
X19231Y-13215D01*
X19117Y-13215D01*
X19060Y-13234D01*
X19031Y-13253D01*
X19003Y-13291D01*
X18746Y-12967D02*
X18746Y-12929D01*
X18774Y-12891D01*
X18803Y-12872D01*
X18860Y-12853D01*
X18974Y-12834D01*
X19117Y-12834D01*
X19231Y-12853D01*
X19289Y-12872D01*
X19317Y-12891D01*
X19346Y-12929D01*
X19346Y-12967D01*
X19317Y-13005D01*
X19289Y-13024D01*
X19231Y-13043D01*
X19117Y-13062D01*
X18974Y-13062D01*
X18860Y-13043D01*
X18803Y-13024D01*
X18774Y-13005D01*
X18746Y-12967D01*
X18746Y-12472D02*
X18746Y-12662D01*
X19031Y-12681D01*
X19003Y-12662D01*
X18974Y-12624D01*
X18974Y-12529D01*
X19003Y-12491D01*
X19031Y-12472D01*
X19089Y-12453D01*
X19231Y-12453D01*
X19289Y-12472D01*
X19317Y-12491D01*
X19346Y-12529D01*
X19346Y-12624D01*
X19317Y-12662D01*
X19289Y-12681D01*
G54D23*
X34894Y-28068D02*
X34894Y-27387D01*
X35057Y-27387D01*
X35097Y-27419D01*
X35118Y-27451D01*
X35138Y-27516D01*
X35138Y-27614D01*
X35118Y-27678D01*
X35097Y-27711D01*
X35057Y-27743D01*
X34894Y-27743D01*
X35525Y-27387D02*
X35322Y-27387D01*
X35301Y-27711D01*
X35322Y-27678D01*
X35362Y-27646D01*
X35464Y-27646D01*
X35505Y-27678D01*
X35525Y-27711D01*
X35546Y-27776D01*
X35546Y-27938D01*
X35525Y-28003D01*
X35505Y-28035D01*
X35464Y-28068D01*
X35362Y-28068D01*
X35322Y-28035D01*
X35301Y-28003D01*
G54D16*
G54D23*
X40604Y-28088D02*
X40604Y-27407D01*
X40767Y-27407D01*
X40807Y-27439D01*
X40828Y-27471D01*
X40848Y-27536D01*
X40848Y-27634D01*
X40828Y-27698D01*
X40807Y-27731D01*
X40767Y-27763D01*
X40604Y-27763D01*
X41215Y-27407D02*
X41134Y-27407D01*
X41093Y-27439D01*
X41072Y-27471D01*
X41032Y-27569D01*
X41011Y-27698D01*
X41011Y-27958D01*
X41032Y-28023D01*
X41052Y-28055D01*
X41093Y-28088D01*
X41174Y-28088D01*
X41215Y-28055D01*
X41235Y-28023D01*
X41256Y-27958D01*
X41256Y-27796D01*
X41235Y-27731D01*
X41215Y-27698D01*
X41174Y-27666D01*
X41093Y-27666D01*
X41052Y-27698D01*
X41032Y-27731D01*
X41011Y-27796D01*
G54D16*
X16641Y-17162D02*
X16041Y-17162D01*
X16041Y-16934D01*
X16070Y-16877D01*
X16098Y-16848D01*
X16155Y-16820D01*
X16241Y-16820D01*
X16298Y-16848D01*
X16327Y-16877D01*
X16355Y-16934D01*
X16355Y-17162D01*
X16041Y-16620D02*
X16041Y-16220D01*
X16641Y-16477D01*
X14004Y-19737D02*
X14032Y-19765D01*
X14061Y-19851D01*
X14061Y-19908D01*
X14032Y-19994D01*
X13975Y-20051D01*
X13918Y-20080D01*
X13804Y-20108D01*
X13718Y-20108D01*
X13604Y-20080D01*
X13547Y-20051D01*
X13490Y-19994D01*
X13461Y-19908D01*
X13461Y-19851D01*
X13490Y-19765D01*
X13518Y-19737D01*
X13461Y-19365D02*
X13461Y-19251D01*
X13490Y-19194D01*
X13547Y-19137D01*
X13661Y-19108D01*
X13861Y-19108D01*
X13975Y-19137D01*
X14032Y-19194D01*
X14061Y-19251D01*
X14061Y-19365D01*
X14032Y-19422D01*
X13975Y-19480D01*
X13861Y-19508D01*
X13661Y-19508D01*
X13547Y-19480D01*
X13490Y-19422D01*
X13461Y-19365D01*
X14061Y-18851D02*
X13461Y-18851D01*
X14061Y-18508D01*
X13461Y-18508D01*
X14118Y-18365D02*
X14118Y-17908D01*
X13832Y-17765D02*
X13832Y-17308D01*
X14061Y-17537D02*
X13604Y-17537D01*
X13432Y-16594D02*
X14204Y-17108D01*
X13832Y-16394D02*
X13832Y-15937D01*
X14061Y-15337D02*
X14061Y-15680D01*
X14061Y-15508D02*
X13461Y-15508D01*
X13547Y-15565D01*
X13604Y-15622D01*
X13632Y-15680D01*
X13461Y-14794D02*
X13461Y-15080D01*
X13747Y-15108D01*
X13718Y-15080D01*
X13690Y-15022D01*
X13690Y-14880D01*
X13718Y-14822D01*
X13747Y-14794D01*
X13804Y-14765D01*
X13947Y-14765D01*
X14004Y-14794D01*
X14032Y-14822D01*
X14061Y-14880D01*
X14061Y-15022D01*
X14032Y-15080D01*
X14004Y-15108D01*
X13461Y-14594D02*
X14061Y-14394D01*
X13461Y-14194D01*
G54D10*
X15371Y-35049D02*
X15690Y-35049D01*
X15728Y-35031D01*
X15746Y-35012D01*
X15765Y-34974D01*
X15765Y-34899D01*
X15746Y-34862D01*
X15728Y-34843D01*
X15690Y-34824D01*
X15371Y-34824D01*
X15503Y-34468D02*
X15765Y-34468D01*
X15353Y-34562D02*
X15634Y-34656D01*
X15634Y-34412D01*
X36875Y-34992D02*
X36947Y-35016D01*
X37066Y-35016D01*
X37113Y-34992D01*
X37137Y-34968D01*
X37161Y-34920D01*
X37161Y-34873D01*
X37137Y-34825D01*
X37113Y-34801D01*
X37066Y-34778D01*
X36970Y-34754D01*
X36923Y-34730D01*
X36899Y-34706D01*
X36875Y-34659D01*
X36875Y-34611D01*
X36899Y-34563D01*
X36923Y-34540D01*
X36970Y-34516D01*
X37090Y-34516D01*
X37161Y-34540D01*
X37304Y-34682D02*
X37494Y-34682D01*
X37375Y-34516D02*
X37375Y-34944D01*
X37399Y-34992D01*
X37447Y-35016D01*
X37494Y-35016D01*
X37661Y-35016D02*
X37661Y-34682D01*
X37661Y-34516D02*
X37637Y-34540D01*
X37661Y-34563D01*
X37685Y-34540D01*
X37661Y-34516D01*
X37661Y-34563D01*
X38113Y-34992D02*
X38066Y-35016D01*
X37970Y-35016D01*
X37923Y-34992D01*
X37899Y-34968D01*
X37875Y-34920D01*
X37875Y-34778D01*
X37899Y-34730D01*
X37923Y-34706D01*
X37970Y-34682D01*
X38066Y-34682D01*
X38113Y-34706D01*
X38328Y-35016D02*
X38328Y-34516D01*
X38375Y-34825D02*
X38518Y-35016D01*
X38518Y-34682D02*
X38328Y-34873D01*
X39042Y-34516D02*
X39328Y-34516D01*
X39185Y-35016D02*
X39185Y-34516D01*
X39494Y-35016D02*
X39494Y-34516D01*
X39709Y-35016D02*
X39709Y-34754D01*
X39685Y-34706D01*
X39637Y-34682D01*
X39566Y-34682D01*
X39518Y-34706D01*
X39494Y-34730D01*
X39947Y-35016D02*
X39947Y-34682D01*
X39947Y-34516D02*
X39923Y-34540D01*
X39947Y-34563D01*
X39970Y-34540D01*
X39947Y-34516D01*
X39947Y-34563D01*
X40399Y-34992D02*
X40351Y-35016D01*
X40256Y-35016D01*
X40209Y-34992D01*
X40185Y-34968D01*
X40161Y-34920D01*
X40161Y-34778D01*
X40185Y-34730D01*
X40209Y-34706D01*
X40256Y-34682D01*
X40351Y-34682D01*
X40399Y-34706D01*
X40613Y-35016D02*
X40613Y-34516D01*
X40661Y-34825D02*
X40804Y-35016D01*
X40804Y-34682D02*
X40613Y-34873D01*
M02*
