G04 (created by PCBNEW (2013-mar-13)-testing) date Mon 17 Jun 2013 23:55:39 ART*
%MOIN*%
G04 Gerber Fmt 3.4, Leading zero omitted, Abs format*
%FSLAX34Y34*%
G01*
G70*
G90*
G04 APERTURE LIST*
%ADD10C,0.005906*%
%ADD11C,0.009843*%
%ADD12R,0.157500X0.094500*%
%ADD13R,0.035000X0.055000*%
%ADD14R,0.055000X0.035000*%
%ADD15R,0.118100X0.063000*%
%ADD16R,0.141700X0.063000*%
%ADD17C,0.066000*%
%ADD18R,0.100000X0.100000*%
%ADD19C,0.100000*%
%ADD20O,0.068000X0.120000*%
%ADD21R,0.050000X0.016000*%
%ADD22R,0.420000X0.350000*%
%ADD23R,0.070000X0.090000*%
%ADD24O,0.060000X0.040000*%
%ADD25O,0.040000X0.060000*%
%ADD26O,0.090000X0.070000*%
%ADD27O,0.070000X0.130000*%
%ADD28R,0.085000X0.130000*%
%ADD29R,0.031496X0.039370*%
%ADD30R,0.019685X0.035433*%
%ADD31R,0.060000X0.060000*%
%ADD32C,0.060000*%
%ADD33R,0.094500X0.157500*%
%ADD34C,0.070000*%
%ADD35C,0.160000*%
%ADD36R,0.055000X0.055000*%
%ADD37C,0.055000*%
%ADD38C,0.035000*%
%ADD39C,0.035000*%
%ADD40C,0.012000*%
%ADD41C,0.024000*%
%ADD42C,0.010000*%
%ADD43C,0.050000*%
%ADD44C,0.039370*%
G04 APERTURE END LIST*
G54D10*
G54D11*
X44578Y-37112D02*
X44578Y-36845D01*
X44997Y-36845D02*
X44197Y-36845D01*
X44197Y-37226D01*
X44997Y-37874D02*
X44578Y-37874D01*
X44502Y-37836D01*
X44464Y-37760D01*
X44464Y-37607D01*
X44502Y-37531D01*
X44959Y-37874D02*
X44997Y-37798D01*
X44997Y-37607D01*
X44959Y-37531D01*
X44883Y-37493D01*
X44807Y-37493D01*
X44731Y-37531D01*
X44692Y-37607D01*
X44692Y-37798D01*
X44654Y-37874D01*
X44959Y-38598D02*
X44997Y-38522D01*
X44997Y-38369D01*
X44959Y-38293D01*
X44921Y-38255D01*
X44845Y-38217D01*
X44616Y-38217D01*
X44540Y-38255D01*
X44502Y-38293D01*
X44464Y-38369D01*
X44464Y-38522D01*
X44502Y-38598D01*
X44464Y-39284D02*
X44997Y-39284D01*
X44464Y-38941D02*
X44883Y-38941D01*
X44959Y-38979D01*
X44997Y-39055D01*
X44997Y-39169D01*
X44959Y-39245D01*
X44921Y-39284D01*
X44464Y-39664D02*
X44997Y-39664D01*
X44540Y-39664D02*
X44502Y-39703D01*
X44464Y-39779D01*
X44464Y-39893D01*
X44502Y-39969D01*
X44578Y-40007D01*
X44997Y-40007D01*
X44997Y-40731D02*
X44197Y-40731D01*
X44959Y-40731D02*
X44997Y-40655D01*
X44997Y-40503D01*
X44959Y-40426D01*
X44921Y-40388D01*
X44845Y-40350D01*
X44616Y-40350D01*
X44540Y-40388D01*
X44502Y-40426D01*
X44464Y-40503D01*
X44464Y-40655D01*
X44502Y-40731D01*
X44997Y-41226D02*
X44959Y-41150D01*
X44921Y-41112D01*
X44845Y-41074D01*
X44616Y-41074D01*
X44540Y-41112D01*
X44502Y-41150D01*
X44464Y-41226D01*
X44464Y-41341D01*
X44502Y-41417D01*
X44540Y-41455D01*
X44616Y-41493D01*
X44845Y-41493D01*
X44921Y-41455D01*
X44959Y-41417D01*
X44997Y-41341D01*
X44997Y-41226D01*
X44997Y-42445D02*
X44197Y-42445D01*
X44997Y-42903D01*
X44197Y-42903D01*
X44997Y-43626D02*
X44578Y-43626D01*
X44502Y-43588D01*
X44464Y-43512D01*
X44464Y-43360D01*
X44502Y-43284D01*
X44959Y-43626D02*
X44997Y-43550D01*
X44997Y-43360D01*
X44959Y-43284D01*
X44883Y-43245D01*
X44807Y-43245D01*
X44731Y-43284D01*
X44692Y-43360D01*
X44692Y-43550D01*
X44654Y-43626D01*
X44997Y-44007D02*
X44197Y-44007D01*
X44997Y-44350D02*
X44578Y-44350D01*
X44502Y-44312D01*
X44464Y-44236D01*
X44464Y-44122D01*
X44502Y-44045D01*
X44540Y-44007D01*
X44464Y-45074D02*
X44997Y-45074D01*
X44464Y-44731D02*
X44883Y-44731D01*
X44959Y-44769D01*
X44997Y-44845D01*
X44997Y-44960D01*
X44959Y-45036D01*
X44921Y-45074D01*
X44959Y-45760D02*
X44997Y-45684D01*
X44997Y-45531D01*
X44959Y-45455D01*
X44883Y-45417D01*
X44578Y-45417D01*
X44502Y-45455D01*
X44464Y-45531D01*
X44464Y-45684D01*
X44502Y-45760D01*
X44578Y-45798D01*
X44654Y-45798D01*
X44731Y-45417D01*
X44997Y-46255D02*
X44959Y-46179D01*
X44883Y-46141D01*
X44197Y-46141D01*
X44197Y-47169D02*
X44845Y-47169D01*
X44921Y-47207D01*
X44959Y-47245D01*
X44997Y-47322D01*
X44997Y-47474D01*
X44959Y-47550D01*
X44921Y-47588D01*
X44845Y-47626D01*
X44197Y-47626D01*
X44997Y-48007D02*
X44464Y-48007D01*
X44616Y-48007D02*
X44540Y-48045D01*
X44502Y-48084D01*
X44464Y-48160D01*
X44464Y-48236D01*
X44997Y-48503D02*
X44464Y-48503D01*
X44197Y-48503D02*
X44235Y-48464D01*
X44273Y-48503D01*
X44235Y-48541D01*
X44197Y-48503D01*
X44273Y-48503D01*
X44959Y-49188D02*
X44997Y-49112D01*
X44997Y-48960D01*
X44959Y-48884D01*
X44883Y-48845D01*
X44578Y-48845D01*
X44502Y-48884D01*
X44464Y-48960D01*
X44464Y-49112D01*
X44502Y-49188D01*
X44578Y-49226D01*
X44654Y-49226D01*
X44731Y-48845D01*
X44997Y-49684D02*
X44959Y-49607D01*
X44883Y-49569D01*
X44197Y-49569D01*
X44464Y-51093D02*
X44464Y-51398D01*
X44997Y-51207D02*
X44312Y-51207D01*
X44235Y-51245D01*
X44197Y-51322D01*
X44197Y-51398D01*
X44997Y-52007D02*
X44578Y-52007D01*
X44502Y-51969D01*
X44464Y-51893D01*
X44464Y-51741D01*
X44502Y-51664D01*
X44959Y-52007D02*
X44997Y-51931D01*
X44997Y-51741D01*
X44959Y-51664D01*
X44883Y-51626D01*
X44807Y-51626D01*
X44731Y-51664D01*
X44692Y-51741D01*
X44692Y-51931D01*
X44654Y-52007D01*
X44464Y-52388D02*
X44997Y-52388D01*
X44540Y-52388D02*
X44502Y-52426D01*
X44464Y-52503D01*
X44464Y-52617D01*
X44502Y-52693D01*
X44578Y-52731D01*
X44997Y-52731D01*
X44997Y-53455D02*
X44578Y-53455D01*
X44502Y-53417D01*
X44464Y-53341D01*
X44464Y-53188D01*
X44502Y-53112D01*
X44959Y-53455D02*
X44997Y-53379D01*
X44997Y-53188D01*
X44959Y-53112D01*
X44883Y-53074D01*
X44807Y-53074D01*
X44731Y-53112D01*
X44692Y-53188D01*
X44692Y-53379D01*
X44654Y-53455D01*
X44464Y-54179D02*
X44997Y-54179D01*
X44464Y-53836D02*
X44883Y-53836D01*
X44959Y-53874D01*
X44997Y-53950D01*
X44997Y-54064D01*
X44959Y-54141D01*
X44921Y-54179D01*
X44997Y-54560D02*
X44464Y-54560D01*
X44616Y-54560D02*
X44540Y-54598D01*
X44502Y-54636D01*
X44464Y-54712D01*
X44464Y-54788D01*
X44616Y-55550D02*
X44578Y-55512D01*
X44540Y-55436D01*
X44540Y-55360D01*
X44578Y-55284D01*
X44616Y-55245D01*
X44692Y-55207D01*
X44769Y-55207D01*
X44845Y-55245D01*
X44883Y-55284D01*
X44921Y-55360D01*
X44921Y-55436D01*
X44883Y-55512D01*
X44845Y-55550D01*
X44540Y-55550D02*
X44845Y-55550D01*
X44883Y-55588D01*
X44883Y-55626D01*
X44845Y-55703D01*
X44769Y-55741D01*
X44578Y-55741D01*
X44464Y-55664D01*
X44388Y-55550D01*
X44350Y-55398D01*
X44388Y-55245D01*
X44464Y-55131D01*
X44578Y-55055D01*
X44731Y-55017D01*
X44883Y-55055D01*
X44997Y-55131D01*
X45073Y-55245D01*
X45112Y-55398D01*
X45073Y-55550D01*
X44997Y-55664D01*
X44464Y-56426D02*
X45112Y-56426D01*
X45188Y-56388D01*
X45226Y-56350D01*
X45264Y-56274D01*
X45264Y-56160D01*
X45226Y-56084D01*
X44959Y-56426D02*
X44997Y-56350D01*
X44997Y-56198D01*
X44959Y-56122D01*
X44921Y-56084D01*
X44845Y-56045D01*
X44616Y-56045D01*
X44540Y-56084D01*
X44502Y-56122D01*
X44464Y-56198D01*
X44464Y-56350D01*
X44502Y-56426D01*
X44997Y-56807D02*
X44464Y-56807D01*
X44540Y-56807D02*
X44502Y-56845D01*
X44464Y-56922D01*
X44464Y-57036D01*
X44502Y-57112D01*
X44578Y-57150D01*
X44997Y-57150D01*
X44578Y-57150D02*
X44502Y-57188D01*
X44464Y-57264D01*
X44464Y-57379D01*
X44502Y-57455D01*
X44578Y-57493D01*
X44997Y-57493D01*
X44997Y-58217D02*
X44578Y-58217D01*
X44502Y-58179D01*
X44464Y-58103D01*
X44464Y-57950D01*
X44502Y-57874D01*
X44959Y-58217D02*
X44997Y-58141D01*
X44997Y-57950D01*
X44959Y-57874D01*
X44883Y-57836D01*
X44807Y-57836D01*
X44731Y-57874D01*
X44692Y-57950D01*
X44692Y-58141D01*
X44654Y-58217D01*
X44997Y-58598D02*
X44464Y-58598D01*
X44197Y-58598D02*
X44235Y-58560D01*
X44273Y-58598D01*
X44235Y-58636D01*
X44197Y-58598D01*
X44273Y-58598D01*
X44997Y-59093D02*
X44959Y-59017D01*
X44883Y-58979D01*
X44197Y-58979D01*
X44921Y-59398D02*
X44959Y-59436D01*
X44997Y-59398D01*
X44959Y-59360D01*
X44921Y-59398D01*
X44997Y-59398D01*
X44959Y-60122D02*
X44997Y-60045D01*
X44997Y-59893D01*
X44959Y-59817D01*
X44921Y-59779D01*
X44845Y-59741D01*
X44616Y-59741D01*
X44540Y-59779D01*
X44502Y-59817D01*
X44464Y-59893D01*
X44464Y-60045D01*
X44502Y-60122D01*
X44997Y-60579D02*
X44959Y-60503D01*
X44921Y-60464D01*
X44845Y-60426D01*
X44616Y-60426D01*
X44540Y-60464D01*
X44502Y-60503D01*
X44464Y-60579D01*
X44464Y-60693D01*
X44502Y-60769D01*
X44540Y-60807D01*
X44616Y-60845D01*
X44845Y-60845D01*
X44921Y-60807D01*
X44959Y-60769D01*
X44997Y-60693D01*
X44997Y-60579D01*
X44997Y-61188D02*
X44464Y-61188D01*
X44540Y-61188D02*
X44502Y-61226D01*
X44464Y-61303D01*
X44464Y-61417D01*
X44502Y-61493D01*
X44578Y-61531D01*
X44997Y-61531D01*
X44578Y-61531D02*
X44502Y-61569D01*
X44464Y-61645D01*
X44464Y-61760D01*
X44502Y-61836D01*
X44578Y-61874D01*
X44997Y-61874D01*
X45797Y-35474D02*
X45797Y-35741D01*
X46216Y-35855D02*
X46216Y-35474D01*
X45416Y-35474D01*
X45416Y-35855D01*
X46178Y-36160D02*
X46216Y-36236D01*
X46216Y-36388D01*
X46178Y-36465D01*
X46101Y-36503D01*
X46063Y-36503D01*
X45987Y-36465D01*
X45949Y-36388D01*
X45949Y-36274D01*
X45911Y-36198D01*
X45835Y-36160D01*
X45797Y-36160D01*
X45720Y-36198D01*
X45682Y-36274D01*
X45682Y-36388D01*
X45720Y-36465D01*
X45682Y-36731D02*
X45682Y-37036D01*
X45416Y-36845D02*
X46101Y-36845D01*
X46178Y-36884D01*
X46216Y-36960D01*
X46216Y-37036D01*
X46216Y-37645D02*
X45797Y-37645D01*
X45720Y-37607D01*
X45682Y-37531D01*
X45682Y-37379D01*
X45720Y-37303D01*
X46178Y-37645D02*
X46216Y-37569D01*
X46216Y-37379D01*
X46178Y-37303D01*
X46101Y-37265D01*
X46025Y-37265D01*
X45949Y-37303D01*
X45911Y-37379D01*
X45911Y-37569D01*
X45873Y-37645D01*
X45682Y-38026D02*
X46216Y-38026D01*
X45759Y-38026D02*
X45720Y-38064D01*
X45682Y-38141D01*
X45682Y-38255D01*
X45720Y-38331D01*
X45797Y-38369D01*
X46216Y-38369D01*
X46216Y-38750D02*
X45682Y-38750D01*
X45416Y-38750D02*
X45454Y-38712D01*
X45492Y-38750D01*
X45454Y-38788D01*
X45416Y-38750D01*
X45492Y-38750D01*
X46178Y-39093D02*
X46216Y-39169D01*
X46216Y-39322D01*
X46178Y-39398D01*
X46101Y-39436D01*
X46063Y-39436D01*
X45987Y-39398D01*
X45949Y-39322D01*
X45949Y-39207D01*
X45911Y-39131D01*
X45835Y-39093D01*
X45797Y-39093D01*
X45720Y-39131D01*
X45682Y-39207D01*
X45682Y-39322D01*
X45720Y-39398D01*
X46216Y-39893D02*
X46178Y-39817D01*
X46101Y-39779D01*
X45416Y-39779D01*
X46216Y-40541D02*
X45797Y-40541D01*
X45720Y-40503D01*
X45682Y-40426D01*
X45682Y-40274D01*
X45720Y-40198D01*
X46178Y-40541D02*
X46216Y-40464D01*
X46216Y-40274D01*
X46178Y-40198D01*
X46101Y-40160D01*
X46025Y-40160D01*
X45949Y-40198D01*
X45911Y-40274D01*
X45911Y-40464D01*
X45873Y-40541D01*
X46216Y-41036D02*
X46178Y-40960D01*
X46139Y-40922D01*
X46063Y-40884D01*
X45835Y-40884D01*
X45759Y-40922D01*
X45720Y-40960D01*
X45682Y-41036D01*
X45682Y-41150D01*
X45720Y-41226D01*
X45759Y-41264D01*
X45835Y-41303D01*
X46063Y-41303D01*
X46139Y-41264D01*
X46178Y-41226D01*
X46216Y-41150D01*
X46216Y-41036D01*
X46216Y-42636D02*
X46216Y-42255D01*
X45416Y-42255D01*
X46216Y-43017D02*
X46178Y-42941D01*
X46139Y-42903D01*
X46063Y-42864D01*
X45835Y-42864D01*
X45759Y-42903D01*
X45720Y-42941D01*
X45682Y-43017D01*
X45682Y-43131D01*
X45720Y-43207D01*
X45759Y-43245D01*
X45835Y-43284D01*
X46063Y-43284D01*
X46139Y-43245D01*
X46178Y-43207D01*
X46216Y-43131D01*
X46216Y-43017D01*
X45378Y-43169D02*
X45492Y-43055D01*
X45682Y-43626D02*
X46482Y-43626D01*
X45720Y-43626D02*
X45682Y-43703D01*
X45682Y-43855D01*
X45720Y-43931D01*
X45759Y-43969D01*
X45835Y-44007D01*
X46063Y-44007D01*
X46139Y-43969D01*
X46178Y-43931D01*
X46216Y-43855D01*
X46216Y-43703D01*
X46178Y-43626D01*
X46178Y-44655D02*
X46216Y-44579D01*
X46216Y-44426D01*
X46178Y-44350D01*
X46101Y-44312D01*
X45797Y-44312D01*
X45720Y-44350D01*
X45682Y-44426D01*
X45682Y-44579D01*
X45720Y-44655D01*
X45797Y-44693D01*
X45873Y-44693D01*
X45949Y-44312D01*
X45682Y-44960D02*
X45682Y-45379D01*
X46216Y-44960D01*
X46216Y-45379D01*
X46216Y-46293D02*
X45416Y-46293D01*
X45987Y-46560D01*
X45416Y-46826D01*
X46216Y-46826D01*
X46216Y-47322D02*
X46178Y-47245D01*
X46139Y-47207D01*
X46063Y-47169D01*
X45835Y-47169D01*
X45759Y-47207D01*
X45720Y-47245D01*
X45682Y-47322D01*
X45682Y-47436D01*
X45720Y-47512D01*
X45759Y-47550D01*
X45835Y-47588D01*
X46063Y-47588D01*
X46139Y-47550D01*
X46178Y-47512D01*
X46216Y-47436D01*
X46216Y-47322D01*
X46216Y-47931D02*
X45682Y-47931D01*
X45835Y-47931D02*
X45759Y-47969D01*
X45720Y-48007D01*
X45682Y-48084D01*
X45682Y-48160D01*
X45682Y-48769D02*
X46330Y-48769D01*
X46406Y-48731D01*
X46444Y-48693D01*
X46482Y-48617D01*
X46482Y-48503D01*
X46444Y-48426D01*
X46178Y-48769D02*
X46216Y-48693D01*
X46216Y-48541D01*
X46178Y-48464D01*
X46139Y-48426D01*
X46063Y-48388D01*
X45835Y-48388D01*
X45759Y-48426D01*
X45720Y-48464D01*
X45682Y-48541D01*
X45682Y-48693D01*
X45720Y-48769D01*
X46216Y-49493D02*
X45797Y-49493D01*
X45720Y-49455D01*
X45682Y-49379D01*
X45682Y-49226D01*
X45720Y-49150D01*
X46178Y-49493D02*
X46216Y-49417D01*
X46216Y-49226D01*
X46178Y-49150D01*
X46101Y-49112D01*
X46025Y-49112D01*
X45949Y-49150D01*
X45911Y-49226D01*
X45911Y-49417D01*
X45873Y-49493D01*
X45682Y-49874D02*
X46216Y-49874D01*
X45759Y-49874D02*
X45720Y-49912D01*
X45682Y-49988D01*
X45682Y-50103D01*
X45720Y-50179D01*
X45797Y-50217D01*
X46216Y-50217D01*
X46178Y-52122D02*
X46216Y-52045D01*
X46216Y-51893D01*
X46178Y-51817D01*
X46101Y-51779D01*
X45797Y-51779D01*
X45720Y-51817D01*
X45682Y-51893D01*
X45682Y-52045D01*
X45720Y-52122D01*
X45797Y-52160D01*
X45873Y-52160D01*
X45949Y-51779D01*
X46178Y-52464D02*
X46216Y-52541D01*
X46216Y-52693D01*
X46178Y-52769D01*
X46101Y-52807D01*
X46063Y-52807D01*
X45987Y-52769D01*
X45949Y-52693D01*
X45949Y-52579D01*
X45911Y-52503D01*
X45835Y-52464D01*
X45797Y-52464D01*
X45720Y-52503D01*
X45682Y-52579D01*
X45682Y-52693D01*
X45720Y-52769D01*
X45682Y-53036D02*
X45682Y-53341D01*
X45416Y-53150D02*
X46101Y-53150D01*
X46178Y-53188D01*
X46216Y-53264D01*
X46216Y-53341D01*
X46216Y-53950D02*
X45797Y-53950D01*
X45720Y-53912D01*
X45682Y-53836D01*
X45682Y-53684D01*
X45720Y-53607D01*
X46178Y-53950D02*
X46216Y-53874D01*
X46216Y-53684D01*
X46178Y-53607D01*
X46101Y-53569D01*
X46025Y-53569D01*
X45949Y-53607D01*
X45911Y-53684D01*
X45911Y-53874D01*
X45873Y-53950D01*
X45682Y-54331D02*
X46216Y-54331D01*
X45759Y-54331D02*
X45720Y-54369D01*
X45682Y-54445D01*
X45682Y-54560D01*
X45720Y-54636D01*
X45797Y-54674D01*
X46216Y-54674D01*
X45682Y-55398D02*
X46216Y-55398D01*
X45682Y-55055D02*
X46101Y-55055D01*
X46178Y-55093D01*
X46216Y-55169D01*
X46216Y-55284D01*
X46178Y-55360D01*
X46139Y-55398D01*
X46216Y-55703D02*
X45682Y-56122D01*
X45682Y-55703D02*
X46216Y-56122D01*
X45835Y-56922D02*
X45797Y-56884D01*
X45759Y-56807D01*
X45759Y-56731D01*
X45797Y-56655D01*
X45835Y-56617D01*
X45911Y-56579D01*
X45987Y-56579D01*
X46063Y-56617D01*
X46101Y-56655D01*
X46139Y-56731D01*
X46139Y-56807D01*
X46101Y-56884D01*
X46063Y-56922D01*
X45759Y-56922D02*
X46063Y-56922D01*
X46101Y-56960D01*
X46101Y-56998D01*
X46063Y-57074D01*
X45987Y-57112D01*
X45797Y-57112D01*
X45682Y-57036D01*
X45606Y-56922D01*
X45568Y-56769D01*
X45606Y-56617D01*
X45682Y-56503D01*
X45797Y-56426D01*
X45949Y-56388D01*
X46101Y-56426D01*
X46216Y-56503D01*
X46292Y-56617D01*
X46330Y-56769D01*
X46292Y-56922D01*
X46216Y-57036D01*
X45682Y-57798D02*
X46330Y-57798D01*
X46406Y-57760D01*
X46444Y-57722D01*
X46482Y-57645D01*
X46482Y-57531D01*
X46444Y-57455D01*
X46178Y-57798D02*
X46216Y-57722D01*
X46216Y-57569D01*
X46178Y-57493D01*
X46139Y-57455D01*
X46063Y-57417D01*
X45835Y-57417D01*
X45759Y-57455D01*
X45720Y-57493D01*
X45682Y-57569D01*
X45682Y-57722D01*
X45720Y-57798D01*
X46216Y-58179D02*
X45682Y-58179D01*
X45759Y-58179D02*
X45720Y-58217D01*
X45682Y-58293D01*
X45682Y-58407D01*
X45720Y-58484D01*
X45797Y-58522D01*
X46216Y-58522D01*
X45797Y-58522D02*
X45720Y-58560D01*
X45682Y-58636D01*
X45682Y-58750D01*
X45720Y-58826D01*
X45797Y-58864D01*
X46216Y-58864D01*
X46216Y-59588D02*
X45797Y-59588D01*
X45720Y-59550D01*
X45682Y-59474D01*
X45682Y-59322D01*
X45720Y-59245D01*
X46178Y-59588D02*
X46216Y-59512D01*
X46216Y-59322D01*
X46178Y-59245D01*
X46101Y-59207D01*
X46025Y-59207D01*
X45949Y-59245D01*
X45911Y-59322D01*
X45911Y-59512D01*
X45873Y-59588D01*
X46216Y-59969D02*
X45682Y-59969D01*
X45416Y-59969D02*
X45454Y-59931D01*
X45492Y-59969D01*
X45454Y-60007D01*
X45416Y-59969D01*
X45492Y-59969D01*
X46216Y-60464D02*
X46178Y-60388D01*
X46101Y-60350D01*
X45416Y-60350D01*
X46139Y-60769D02*
X46178Y-60807D01*
X46216Y-60769D01*
X46178Y-60731D01*
X46139Y-60769D01*
X46216Y-60769D01*
X46178Y-61493D02*
X46216Y-61417D01*
X46216Y-61264D01*
X46178Y-61188D01*
X46139Y-61150D01*
X46063Y-61112D01*
X45835Y-61112D01*
X45759Y-61150D01*
X45720Y-61188D01*
X45682Y-61264D01*
X45682Y-61417D01*
X45720Y-61493D01*
X46216Y-61950D02*
X46178Y-61874D01*
X46139Y-61836D01*
X46063Y-61798D01*
X45835Y-61798D01*
X45759Y-61836D01*
X45720Y-61874D01*
X45682Y-61950D01*
X45682Y-62064D01*
X45720Y-62141D01*
X45759Y-62179D01*
X45835Y-62217D01*
X46063Y-62217D01*
X46139Y-62179D01*
X46178Y-62141D01*
X46216Y-62064D01*
X46216Y-61950D01*
X46216Y-62560D02*
X45682Y-62560D01*
X45759Y-62560D02*
X45720Y-62598D01*
X45682Y-62674D01*
X45682Y-62788D01*
X45720Y-62864D01*
X45797Y-62903D01*
X46216Y-62903D01*
X45797Y-62903D02*
X45720Y-62941D01*
X45682Y-63017D01*
X45682Y-63131D01*
X45720Y-63207D01*
X45797Y-63245D01*
X46216Y-63245D01*
X42428Y-10448D02*
X41628Y-10448D01*
X41628Y-10753D01*
X41666Y-10829D01*
X41705Y-10867D01*
X41781Y-10905D01*
X41895Y-10905D01*
X41971Y-10867D01*
X42009Y-10829D01*
X42047Y-10753D01*
X42047Y-10448D01*
X42428Y-11629D02*
X42428Y-11248D01*
X41628Y-11248D01*
X42200Y-11858D02*
X42200Y-12239D01*
X42428Y-11781D02*
X41628Y-12048D01*
X42428Y-12315D01*
X42352Y-13039D02*
X42390Y-13000D01*
X42428Y-12886D01*
X42428Y-12810D01*
X42390Y-12696D01*
X42314Y-12619D01*
X42238Y-12581D01*
X42085Y-12543D01*
X41971Y-12543D01*
X41819Y-12581D01*
X41743Y-12619D01*
X41666Y-12696D01*
X41628Y-12810D01*
X41628Y-12886D01*
X41666Y-13000D01*
X41705Y-13039D01*
X42200Y-13343D02*
X42200Y-13724D01*
X42428Y-13267D02*
X41628Y-13534D01*
X42428Y-13800D01*
X42428Y-14677D02*
X41628Y-14677D01*
X42200Y-14943D01*
X41628Y-15210D01*
X42428Y-15210D01*
X41628Y-15743D02*
X41628Y-15896D01*
X41666Y-15972D01*
X41743Y-16048D01*
X41895Y-16086D01*
X42162Y-16086D01*
X42314Y-16048D01*
X42390Y-15972D01*
X42428Y-15896D01*
X42428Y-15743D01*
X42390Y-15667D01*
X42314Y-15591D01*
X42162Y-15553D01*
X41895Y-15553D01*
X41743Y-15591D01*
X41666Y-15667D01*
X41628Y-15743D01*
X41628Y-16315D02*
X41628Y-16772D01*
X42428Y-16543D02*
X41628Y-16543D01*
X42428Y-17039D02*
X41628Y-17039D01*
X42009Y-17039D02*
X42009Y-17496D01*
X42428Y-17496D02*
X41628Y-17496D01*
X42009Y-17877D02*
X42009Y-18143D01*
X42428Y-18258D02*
X42428Y-17877D01*
X41628Y-17877D01*
X41628Y-18258D01*
X42428Y-19058D02*
X42047Y-18791D01*
X42428Y-18600D02*
X41628Y-18600D01*
X41628Y-18905D01*
X41666Y-18981D01*
X41705Y-19019D01*
X41781Y-19058D01*
X41895Y-19058D01*
X41971Y-19019D01*
X42009Y-18981D01*
X42047Y-18905D01*
X42047Y-18600D01*
G54D12*
X13070Y-25452D03*
X16220Y-25452D03*
G54D13*
X19981Y-52519D03*
X19231Y-52519D03*
X14863Y-60629D03*
X14113Y-60629D03*
X14863Y-59370D03*
X14113Y-59370D03*
G54D14*
X33937Y-23642D03*
X33937Y-22892D03*
G54D15*
X15511Y-57007D03*
X13779Y-57007D03*
G54D13*
X19231Y-51614D03*
X19981Y-51614D03*
G54D16*
X31357Y-9881D03*
X33523Y-9881D03*
G54D13*
X32026Y-12086D03*
X32776Y-12086D03*
G54D10*
G36*
X13996Y-10984D02*
X13996Y-9803D01*
X14586Y-9803D01*
X14586Y-10984D01*
X13996Y-10984D01*
X13996Y-10984D01*
G37*
G36*
X12814Y-10984D02*
X12814Y-9803D01*
X13405Y-9803D01*
X13405Y-10984D01*
X12814Y-10984D01*
X12814Y-10984D01*
G37*
G36*
X12814Y-13543D02*
X12814Y-12362D01*
X13405Y-12362D01*
X13405Y-13543D01*
X12814Y-13543D01*
X12814Y-13543D01*
G37*
G36*
X13996Y-13543D02*
X13996Y-12362D01*
X14586Y-12362D01*
X14586Y-13543D01*
X13996Y-13543D01*
X13996Y-13543D01*
G37*
G54D17*
X34527Y-15366D03*
X34527Y-16366D03*
X32559Y-15326D03*
X32559Y-16326D03*
X17165Y-61996D03*
X17165Y-60996D03*
X17165Y-58633D03*
X17165Y-59633D03*
G54D18*
X9015Y-56637D03*
G54D19*
X9015Y-58637D03*
G54D14*
X32834Y-22264D03*
X32834Y-21514D03*
X33937Y-21514D03*
X33937Y-22264D03*
X34566Y-12146D03*
X34566Y-11396D03*
X35511Y-12146D03*
X35511Y-11396D03*
X34566Y-13365D03*
X34566Y-14115D03*
X32559Y-13365D03*
X32559Y-14115D03*
X21338Y-51436D03*
X21338Y-52186D03*
X23385Y-51436D03*
X23385Y-52186D03*
X27244Y-51514D03*
X27244Y-52264D03*
X28110Y-51514D03*
X28110Y-52264D03*
X30629Y-51593D03*
X30629Y-52343D03*
X29527Y-51514D03*
X29527Y-52264D03*
X26299Y-51514D03*
X26299Y-52264D03*
X24488Y-51514D03*
X24488Y-52264D03*
X22440Y-51436D03*
X22440Y-52186D03*
G54D13*
X14863Y-61811D03*
X14113Y-61811D03*
G54D14*
X17125Y-57422D03*
X17125Y-56672D03*
G54D13*
X13918Y-49212D03*
X13168Y-49212D03*
X13997Y-50393D03*
X13247Y-50393D03*
G54D20*
X8852Y-49064D03*
X10852Y-49064D03*
X8852Y-54064D03*
X10852Y-54064D03*
G54D10*
G36*
X28937Y-16988D02*
X30118Y-16988D01*
X30118Y-17578D01*
X28937Y-17578D01*
X28937Y-16988D01*
X28937Y-16988D01*
G37*
G36*
X28937Y-15807D02*
X30118Y-15807D01*
X30118Y-16397D01*
X28937Y-16397D01*
X28937Y-15807D01*
X28937Y-15807D01*
G37*
G36*
X26377Y-15807D02*
X27559Y-15807D01*
X27559Y-16397D01*
X26377Y-16397D01*
X26377Y-15807D01*
X26377Y-15807D01*
G37*
G36*
X26377Y-16988D02*
X27559Y-16988D01*
X27559Y-17578D01*
X26377Y-17578D01*
X26377Y-16988D01*
X26377Y-16988D01*
G37*
G54D21*
X27450Y-19101D03*
X27450Y-19351D03*
X27450Y-19611D03*
X27450Y-19871D03*
X27450Y-20121D03*
X27450Y-20381D03*
X27450Y-20641D03*
X27450Y-20891D03*
X27450Y-21151D03*
X27450Y-21401D03*
X27450Y-21661D03*
X27450Y-21921D03*
X27450Y-22171D03*
X27450Y-22431D03*
X30250Y-22431D03*
X30250Y-22171D03*
X30250Y-21931D03*
X30250Y-21661D03*
X30250Y-21401D03*
X30250Y-21151D03*
X30250Y-20891D03*
X30250Y-20641D03*
X30250Y-20381D03*
X30250Y-20121D03*
X30250Y-19871D03*
X30250Y-19611D03*
X30250Y-19351D03*
X30250Y-19101D03*
G54D22*
X28031Y-9857D03*
G54D23*
X28031Y-13307D03*
X27031Y-13307D03*
X29031Y-13307D03*
G54D24*
X29407Y-55509D03*
G54D25*
X22807Y-55309D03*
G54D26*
X20107Y-54609D03*
G54D25*
X25807Y-55309D03*
G54D26*
X30207Y-66109D03*
G54D27*
X19407Y-66009D03*
G54D28*
X30307Y-64909D03*
G54D29*
X15669Y-49370D03*
G54D30*
X14960Y-49370D03*
X15669Y-50236D03*
X14960Y-50236D03*
G54D31*
X23590Y-26169D03*
G54D32*
X23590Y-25169D03*
X24590Y-26169D03*
X24590Y-25169D03*
X25590Y-26169D03*
X25590Y-25169D03*
X26590Y-26169D03*
X26590Y-25169D03*
X27590Y-26169D03*
X27590Y-25169D03*
G54D31*
X32501Y-44372D03*
G54D32*
X32501Y-45372D03*
X31501Y-44372D03*
X31501Y-45372D03*
X30501Y-44372D03*
X30501Y-45372D03*
X29501Y-44372D03*
X29501Y-45372D03*
X28501Y-44372D03*
X28501Y-45372D03*
X27501Y-44372D03*
X27501Y-45372D03*
X26501Y-44372D03*
X26501Y-45372D03*
X25501Y-44372D03*
X25501Y-45372D03*
X24501Y-44372D03*
X24501Y-45372D03*
X23501Y-44372D03*
X23501Y-45372D03*
G54D13*
X17186Y-28484D03*
X16436Y-28484D03*
G54D18*
X17669Y-7795D03*
G54D19*
X15669Y-7795D03*
X13669Y-7795D03*
G54D33*
X18976Y-18897D03*
X18976Y-15747D03*
X23307Y-18897D03*
X23307Y-15747D03*
G54D12*
X13070Y-21141D03*
X16220Y-21141D03*
G54D14*
X24320Y-12028D03*
X24320Y-11278D03*
X24409Y-9467D03*
X24409Y-10217D03*
G54D34*
X20653Y-11653D03*
X21653Y-11653D03*
X22653Y-11653D03*
X20653Y-7401D03*
X21653Y-7401D03*
X22653Y-7401D03*
G54D35*
X7549Y-65885D03*
X46092Y-66151D03*
X45846Y-7066D03*
X7244Y-7086D03*
G54D34*
X20653Y-9527D03*
X21653Y-9527D03*
X22653Y-9527D03*
X20574Y-13779D03*
X21574Y-13779D03*
X22574Y-13779D03*
G54D36*
X37710Y-26760D03*
G54D37*
X36710Y-26760D03*
X35710Y-26760D03*
X34710Y-26760D03*
X33710Y-26760D03*
X32710Y-26760D03*
G54D36*
X43170Y-26780D03*
G54D37*
X42170Y-26780D03*
X41170Y-26780D03*
X40170Y-26780D03*
X39170Y-26780D03*
G54D18*
X14370Y-15720D03*
G54D19*
X14370Y-17720D03*
G54D31*
X41200Y-30350D03*
X40190Y-30350D03*
X39190Y-30350D03*
X38190Y-30350D03*
X37190Y-30350D03*
X36200Y-30350D03*
X35200Y-30350D03*
X34200Y-30340D03*
X33200Y-30350D03*
X32200Y-30360D03*
X31200Y-30350D03*
X30200Y-30350D03*
X29200Y-30350D03*
X28200Y-30360D03*
X27200Y-30350D03*
X26200Y-30350D03*
X25200Y-30350D03*
X24200Y-30350D03*
X23200Y-30350D03*
X22200Y-30350D03*
X21200Y-30350D03*
X20200Y-30360D03*
X19200Y-30350D03*
X18200Y-30360D03*
X17200Y-30350D03*
X16200Y-30360D03*
X15200Y-30370D03*
X15260Y-39460D03*
X40260Y-39480D03*
X39260Y-39480D03*
X38260Y-39480D03*
X37260Y-39480D03*
X36260Y-39480D03*
X35260Y-39480D03*
X34260Y-39480D03*
X33260Y-39480D03*
X32260Y-39480D03*
X31260Y-39470D03*
X30260Y-39470D03*
X29260Y-39470D03*
X28260Y-39470D03*
X27260Y-39470D03*
X26260Y-39470D03*
X25260Y-39470D03*
X24260Y-39470D03*
X23260Y-39470D03*
X22260Y-39470D03*
X21260Y-39470D03*
X20260Y-39470D03*
X19260Y-39460D03*
X18260Y-39460D03*
X17260Y-39460D03*
X16260Y-39460D03*
X41260Y-39480D03*
G54D38*
X32263Y-46210D03*
X18041Y-29527D03*
X15501Y-55196D03*
X26328Y-19872D03*
X18405Y-25127D03*
X18336Y-27125D03*
X31102Y-16141D03*
X31023Y-21102D03*
X42283Y-25748D03*
X36771Y-25826D03*
X18940Y-23100D03*
X15800Y-12230D03*
X15770Y-13970D03*
X24390Y-7700D03*
X19360Y-10450D03*
X16980Y-11020D03*
X16220Y-17750D03*
X18818Y-13858D03*
X31062Y-12696D03*
X29547Y-50620D03*
X24488Y-50620D03*
X22450Y-50738D03*
X25295Y-52834D03*
X16456Y-50472D03*
X17204Y-55826D03*
X11938Y-49714D03*
X14114Y-49793D03*
X39055Y-41092D03*
X30698Y-50679D03*
X34192Y-40846D03*
X26840Y-47076D03*
X18198Y-49744D03*
X32116Y-48385D03*
X18198Y-52549D03*
X13474Y-58690D03*
X27930Y-49890D03*
X24940Y-49960D03*
X35039Y-40954D03*
X26043Y-47667D03*
X17746Y-25098D03*
X24170Y-29420D03*
X25669Y-14645D03*
X35118Y-9881D03*
X31338Y-24753D03*
X33218Y-29763D03*
X31220Y-29616D03*
X20442Y-24242D03*
X36259Y-38612D03*
X33041Y-27913D03*
X31140Y-40900D03*
X17440Y-47805D03*
X19625Y-27765D03*
X23464Y-21368D03*
X28818Y-41624D03*
X18356Y-44468D03*
X16673Y-44468D03*
X28346Y-37765D03*
X37880Y-34060D03*
X30930Y-22400D03*
X26818Y-18216D03*
X28425Y-18283D03*
X27677Y-40255D03*
X28818Y-18503D03*
X29685Y-18188D03*
X30030Y-38430D03*
X30000Y-42529D03*
X31998Y-22411D03*
X41141Y-37440D03*
X18996Y-55255D03*
X38474Y-35551D03*
X29468Y-53011D03*
X22460Y-52874D03*
X29212Y-19212D03*
X30551Y-18385D03*
X31889Y-20196D03*
X34488Y-17362D03*
X32519Y-17204D03*
X32283Y-19212D03*
X23326Y-52913D03*
X26318Y-52933D03*
X28208Y-53011D03*
G54D39*
X17186Y-28484D02*
X17186Y-29263D01*
X16110Y-29540D02*
X16110Y-30410D01*
X16130Y-29520D02*
X16110Y-29540D01*
X16930Y-29520D02*
X16130Y-29520D01*
X17186Y-29263D02*
X16930Y-29520D01*
X32501Y-45372D02*
X32501Y-45972D01*
X32501Y-45972D02*
X32263Y-46210D01*
X15511Y-57007D02*
X15511Y-55206D01*
X18021Y-29507D02*
X18021Y-28484D01*
X18041Y-29527D02*
X18021Y-29507D01*
X15511Y-55206D02*
X15501Y-55196D01*
X26328Y-19872D02*
X26328Y-20324D01*
X18405Y-22736D02*
X18405Y-25127D01*
X20246Y-20895D02*
X18405Y-22736D01*
X25757Y-20895D02*
X20246Y-20895D01*
X26328Y-20324D02*
X25757Y-20895D01*
G54D40*
X26328Y-19871D02*
X27450Y-19871D01*
X26328Y-19872D02*
X26328Y-19871D01*
G54D39*
X17186Y-28484D02*
X18021Y-28484D01*
X18021Y-28484D02*
X18031Y-28484D01*
X18336Y-28179D02*
X18336Y-27125D01*
X18031Y-28484D02*
X18336Y-28179D01*
X18446Y-25169D02*
X23590Y-25169D01*
X18405Y-25127D02*
X18446Y-25169D01*
G54D41*
X34566Y-13365D02*
X32559Y-13365D01*
X32559Y-13365D02*
X30180Y-13365D01*
X30180Y-13365D02*
X30122Y-13307D01*
X14113Y-59370D02*
X14113Y-58406D01*
X14113Y-58406D02*
X15511Y-57007D01*
X14113Y-60629D02*
X14113Y-59370D01*
X14113Y-61811D02*
X14113Y-60629D01*
G54D40*
X30250Y-21151D02*
X30974Y-21151D01*
G54D39*
X31062Y-16102D02*
X29527Y-16102D01*
X31102Y-16141D02*
X31062Y-16102D01*
G54D40*
X30974Y-21151D02*
X31023Y-21102D01*
G54D41*
X29031Y-13307D02*
X30122Y-13307D01*
X30122Y-13307D02*
X30826Y-14011D01*
X30826Y-14011D02*
X30826Y-15374D01*
X30826Y-15374D02*
X30098Y-16102D01*
X30098Y-16102D02*
X29527Y-16102D01*
X42129Y-25901D02*
X42129Y-26850D01*
X42283Y-25748D02*
X42129Y-25901D01*
X36771Y-25826D02*
X36696Y-25901D01*
X36696Y-25901D02*
X36696Y-26771D01*
G54D39*
X24590Y-25169D02*
X24590Y-25220D01*
X25670Y-23100D02*
X18940Y-23100D01*
X26090Y-23520D02*
X25670Y-23100D01*
G54D40*
X26090Y-25563D02*
X26090Y-23520D01*
X25984Y-25669D02*
X26090Y-25563D01*
X25039Y-25669D02*
X25984Y-25669D01*
X24590Y-25220D02*
X25039Y-25669D01*
G54D39*
X20574Y-13779D02*
X20574Y-14354D01*
X14370Y-15720D02*
X15190Y-15720D01*
X19795Y-13000D02*
X20574Y-13779D01*
X18370Y-13000D02*
X19795Y-13000D01*
X17710Y-12340D02*
X18370Y-13000D01*
X15910Y-12340D02*
X17710Y-12340D01*
X15800Y-12230D02*
X15910Y-12340D01*
X15770Y-15140D02*
X15770Y-13970D01*
X15190Y-15720D02*
X15770Y-15140D01*
X24320Y-14183D02*
X24320Y-12028D01*
X24015Y-14488D02*
X24320Y-14183D01*
X20708Y-14488D02*
X24015Y-14488D01*
X20574Y-14354D02*
X20708Y-14488D01*
X22653Y-11653D02*
X22653Y-12023D01*
X24320Y-12431D02*
X24320Y-12028D01*
X24330Y-12440D02*
X24320Y-12431D01*
X23070Y-12440D02*
X24330Y-12440D01*
X22653Y-12023D02*
X23070Y-12440D01*
X14370Y-17720D02*
X16190Y-17720D01*
X24409Y-7700D02*
X24409Y-7637D01*
X24390Y-7700D02*
X24409Y-7700D01*
X17550Y-10450D02*
X19360Y-10450D01*
X16980Y-11020D02*
X17550Y-10450D01*
X16190Y-17720D02*
X16220Y-17750D01*
X21653Y-9527D02*
X21653Y-8818D01*
X21889Y-8582D02*
X24409Y-8582D01*
X21653Y-8818D02*
X21889Y-8582D01*
X22653Y-7401D02*
X24173Y-7401D01*
X24409Y-7637D02*
X24409Y-8582D01*
X24409Y-8582D02*
X24409Y-9467D01*
X24173Y-7401D02*
X24409Y-7637D01*
X13669Y-7795D02*
X13228Y-7795D01*
X13110Y-7913D02*
X13110Y-10393D01*
X13228Y-7795D02*
X13110Y-7913D01*
X17669Y-7795D02*
X17669Y-9417D01*
X16692Y-10393D02*
X14291Y-10393D01*
X17669Y-9417D02*
X16692Y-10393D01*
X13110Y-12952D02*
X13110Y-11929D01*
X13385Y-11653D02*
X20653Y-11653D01*
X13110Y-11929D02*
X13385Y-11653D01*
X13110Y-12952D02*
X13110Y-21102D01*
X13110Y-21102D02*
X13070Y-21141D01*
X13070Y-21141D02*
X13070Y-25452D01*
X14291Y-12952D02*
X15972Y-12952D01*
X17882Y-15747D02*
X18976Y-15747D01*
X17860Y-15770D02*
X17882Y-15747D01*
X17860Y-14840D02*
X17860Y-15770D01*
X15972Y-12952D02*
X17860Y-14840D01*
X18976Y-14015D02*
X18976Y-15747D01*
X18818Y-13858D02*
X18976Y-14015D01*
X18976Y-15747D02*
X23307Y-15747D01*
X28031Y-12214D02*
X30187Y-12214D01*
X30669Y-12696D02*
X31062Y-12696D01*
X30187Y-12214D02*
X30669Y-12696D01*
X29527Y-51514D02*
X29527Y-50639D01*
X29527Y-50639D02*
X29547Y-50620D01*
X24488Y-50620D02*
X24488Y-51514D01*
X25275Y-51514D02*
X25275Y-52814D01*
X25275Y-52814D02*
X25295Y-52834D01*
G54D41*
X34566Y-12146D02*
X35511Y-12146D01*
X32026Y-12086D02*
X32026Y-12420D01*
X34566Y-12677D02*
X34566Y-12146D01*
X34488Y-12755D02*
X34566Y-12677D01*
X32362Y-12755D02*
X34488Y-12755D01*
X32026Y-12420D02*
X32362Y-12755D01*
X31357Y-9881D02*
X31357Y-11318D01*
X32026Y-11987D02*
X32026Y-12086D01*
X31357Y-11318D02*
X32026Y-11987D01*
X31357Y-9881D02*
X28056Y-9881D01*
X28056Y-9881D02*
X28031Y-9857D01*
X17204Y-55826D02*
X17874Y-55826D01*
X17874Y-55826D02*
X18346Y-55354D01*
X18346Y-55354D02*
X18346Y-53740D01*
X19981Y-53247D02*
X19981Y-52519D01*
X18346Y-53740D02*
X18779Y-53307D01*
X18779Y-53307D02*
X19921Y-53307D01*
X19921Y-53307D02*
X19981Y-53247D01*
X15669Y-50236D02*
X16220Y-50236D01*
X16220Y-50236D02*
X16456Y-50472D01*
X17125Y-55905D02*
X17125Y-56672D01*
X17204Y-55826D02*
X17125Y-55905D01*
X15669Y-50236D02*
X15669Y-50669D01*
X14548Y-50944D02*
X13997Y-50393D01*
X15393Y-50944D02*
X14548Y-50944D01*
X15669Y-50669D02*
X15393Y-50944D01*
X26299Y-51514D02*
X25275Y-51514D01*
X25275Y-51514D02*
X24488Y-51514D01*
X28031Y-9857D02*
X28031Y-12214D01*
X28031Y-12214D02*
X28031Y-13307D01*
G54D39*
X22440Y-51436D02*
X22440Y-50748D01*
X22440Y-50748D02*
X22450Y-50738D01*
G54D40*
X14960Y-50236D02*
X14960Y-49822D01*
G54D39*
X11216Y-49429D02*
X10852Y-49064D01*
X11653Y-49429D02*
X11216Y-49429D01*
X11938Y-49714D02*
X11653Y-49429D01*
G54D40*
X14931Y-49793D02*
X14114Y-49793D01*
X14960Y-49822D02*
X14931Y-49793D01*
G54D39*
X10852Y-49064D02*
X10852Y-54064D01*
X8852Y-54064D02*
X8852Y-56474D01*
X8852Y-49064D02*
X8852Y-54064D01*
X30629Y-51593D02*
X30629Y-50748D01*
X39163Y-40984D02*
X39163Y-39527D01*
X39055Y-41092D02*
X39163Y-40984D01*
X30629Y-50748D02*
X30698Y-50679D01*
X24501Y-45372D02*
X24501Y-46038D01*
X25110Y-34580D02*
X25110Y-30400D01*
X24180Y-35510D02*
X25110Y-34580D01*
X14090Y-35510D02*
X24180Y-35510D01*
X11690Y-37910D02*
X14090Y-35510D01*
X11690Y-41400D02*
X11690Y-37910D01*
X13410Y-43120D02*
X11690Y-41400D01*
X21310Y-43120D02*
X13410Y-43120D01*
X21950Y-43760D02*
X21310Y-43120D01*
X21950Y-45580D02*
X21950Y-43760D01*
X22630Y-46260D02*
X21950Y-45580D01*
X24280Y-46260D02*
X22630Y-46260D01*
X24501Y-46038D02*
X24280Y-46260D01*
X23501Y-45372D02*
X23068Y-45372D01*
X23068Y-45372D02*
X22726Y-45029D01*
X22726Y-45029D02*
X22726Y-42391D01*
X22726Y-42391D02*
X22598Y-42263D01*
X22598Y-42263D02*
X13769Y-42263D01*
X13769Y-42263D02*
X12627Y-41122D01*
X12627Y-41122D02*
X12627Y-38395D01*
X12627Y-38395D02*
X14478Y-36545D01*
X14478Y-36545D02*
X25688Y-36545D01*
X25688Y-36545D02*
X26160Y-35840D01*
X26160Y-35840D02*
X26130Y-30420D01*
X41131Y-30472D02*
X41131Y-26852D01*
X41131Y-26852D02*
X41129Y-26850D01*
X40147Y-26868D02*
X40129Y-26850D01*
X40147Y-30472D02*
X40147Y-26868D01*
X39163Y-30472D02*
X39163Y-26883D01*
X39163Y-26883D02*
X39129Y-26850D01*
X25170Y-39520D02*
X25170Y-42800D01*
X25501Y-43131D02*
X25501Y-44372D01*
X25170Y-42800D02*
X25501Y-43131D01*
X26170Y-39520D02*
X26170Y-42670D01*
X26501Y-43001D02*
X26501Y-44372D01*
X26170Y-42670D02*
X26501Y-43001D01*
X27170Y-39520D02*
X27170Y-42760D01*
X27501Y-43091D02*
X27501Y-44372D01*
X27170Y-42760D02*
X27501Y-43091D01*
X28170Y-39520D02*
X28170Y-41820D01*
X28501Y-42151D02*
X28501Y-44372D01*
X28170Y-41820D02*
X28501Y-42151D01*
X29170Y-39520D02*
X29170Y-41190D01*
X29490Y-44360D02*
X29501Y-44372D01*
X29490Y-41510D02*
X29490Y-44360D01*
X29170Y-41190D02*
X29490Y-41510D01*
X30170Y-39520D02*
X30170Y-40200D01*
X30550Y-44324D02*
X30501Y-44372D01*
X30550Y-40580D02*
X30550Y-44324D01*
X30170Y-40200D02*
X30550Y-40580D01*
X32170Y-39530D02*
X32170Y-41650D01*
X31501Y-42318D02*
X31501Y-44372D01*
X32170Y-41650D02*
X31501Y-42318D01*
X33170Y-39530D02*
X33170Y-42430D01*
X32700Y-44174D02*
X32501Y-44372D01*
X32700Y-42900D02*
X32700Y-44174D01*
X33170Y-42430D02*
X32700Y-42900D01*
X26501Y-45372D02*
X26501Y-46738D01*
X34242Y-40797D02*
X34242Y-39527D01*
X34192Y-40846D02*
X34242Y-40797D01*
X26501Y-46738D02*
X26840Y-47076D01*
X38159Y-39527D02*
X38159Y-42224D01*
X18198Y-49744D02*
X18198Y-52549D01*
X35305Y-45196D02*
X32116Y-48385D01*
X35305Y-43139D02*
X35305Y-45196D01*
X35787Y-42657D02*
X35305Y-43139D01*
X37726Y-42657D02*
X35787Y-42657D01*
X38159Y-42224D02*
X37726Y-42657D01*
X9015Y-58637D02*
X13421Y-58637D01*
X18228Y-52519D02*
X19231Y-52519D01*
X18198Y-52549D02*
X18228Y-52519D01*
X13421Y-58637D02*
X13474Y-58690D01*
G54D41*
X19231Y-51614D02*
X19231Y-52519D01*
G54D39*
X35226Y-30472D02*
X35226Y-29793D01*
X30553Y-25169D02*
X27590Y-25169D01*
X31348Y-25964D02*
X30553Y-25169D01*
X31348Y-27145D02*
X31348Y-25964D01*
X32716Y-28513D02*
X31348Y-27145D01*
X33946Y-28513D02*
X32716Y-28513D01*
X35226Y-29793D02*
X33946Y-28513D01*
X34242Y-30472D02*
X34242Y-29734D01*
X30194Y-26169D02*
X27590Y-26169D01*
X30580Y-26555D02*
X30194Y-26169D01*
X30580Y-27322D02*
X30580Y-26555D01*
X32431Y-29173D02*
X30580Y-27322D01*
X33681Y-29173D02*
X32431Y-29173D01*
X34242Y-29734D02*
X33681Y-29173D01*
X38179Y-29005D02*
X38179Y-30472D01*
X37923Y-28750D02*
X38179Y-29005D01*
X37175Y-28750D02*
X37923Y-28750D01*
X35696Y-27271D02*
X37175Y-28750D01*
X35696Y-26771D02*
X35696Y-27271D01*
X20110Y-30410D02*
X20110Y-32010D01*
X28110Y-50070D02*
X28110Y-51514D01*
X27930Y-49890D02*
X28110Y-50070D01*
X24650Y-49960D02*
X24940Y-49960D01*
X23950Y-49260D02*
X24650Y-49960D01*
X21630Y-49260D02*
X23950Y-49260D01*
X19120Y-46750D02*
X21630Y-49260D01*
X19120Y-46400D02*
X19120Y-46750D01*
X18540Y-45820D02*
X19120Y-46400D01*
X11370Y-45820D02*
X18540Y-45820D01*
X8570Y-43020D02*
X11370Y-45820D01*
X8570Y-37220D02*
X8570Y-43020D01*
X13120Y-32670D02*
X8570Y-37220D01*
X19450Y-32670D02*
X13120Y-32670D01*
X20110Y-32010D02*
X19450Y-32670D01*
X23385Y-50365D02*
X23385Y-51436D01*
X22940Y-49920D02*
X23385Y-50365D01*
X20700Y-49920D02*
X22940Y-49920D01*
X17650Y-46870D02*
X20700Y-49920D01*
X10780Y-46870D02*
X17650Y-46870D01*
X7670Y-43760D02*
X10780Y-46870D01*
X7670Y-36680D02*
X7670Y-43760D01*
X12540Y-31810D02*
X7670Y-36680D01*
X18650Y-31810D02*
X12540Y-31810D01*
X19110Y-31350D02*
X18650Y-31810D01*
X19110Y-30400D02*
X19110Y-31350D01*
X25501Y-45372D02*
X25501Y-47125D01*
X35226Y-40767D02*
X35226Y-39527D01*
X35039Y-40954D02*
X35226Y-40767D01*
X25501Y-47125D02*
X26043Y-47667D01*
G54D41*
X13918Y-49212D02*
X14803Y-49212D01*
X14803Y-49212D02*
X14960Y-49370D01*
X32834Y-21514D02*
X33937Y-21514D01*
G54D40*
X30250Y-21401D02*
X30850Y-21401D01*
X30963Y-21514D02*
X32598Y-21514D01*
X30850Y-21401D02*
X30963Y-21514D01*
G54D39*
X23501Y-44372D02*
X23501Y-42084D01*
X23501Y-42084D02*
X22893Y-41476D01*
X22893Y-41476D02*
X14596Y-41476D01*
X14596Y-41476D02*
X13582Y-40462D01*
X13582Y-40462D02*
X13582Y-38779D01*
X13582Y-38779D02*
X14911Y-37450D01*
X14911Y-37450D02*
X26387Y-37450D01*
X26387Y-37450D02*
X27160Y-36440D01*
X27160Y-36440D02*
X27120Y-30390D01*
X25669Y-14645D02*
X25334Y-14645D01*
X25275Y-18613D02*
X25921Y-19259D01*
X25275Y-14704D02*
X25275Y-18613D01*
X25334Y-14645D02*
X25275Y-14704D01*
X25921Y-19259D02*
X25921Y-19443D01*
X25921Y-19443D02*
X25137Y-20226D01*
X25137Y-20226D02*
X19606Y-20226D01*
X19606Y-20226D02*
X17746Y-22086D01*
X17746Y-22086D02*
X17746Y-25098D01*
X24170Y-29420D02*
X24071Y-29518D01*
X24071Y-29518D02*
X24070Y-30450D01*
G54D41*
X34566Y-11396D02*
X34566Y-10669D01*
G54D40*
X25921Y-19259D02*
X26102Y-19488D01*
G54D41*
X35118Y-10118D02*
X35118Y-9881D01*
X34566Y-10669D02*
X35118Y-10118D01*
G54D40*
X27450Y-19101D02*
X26488Y-19101D01*
X26488Y-19101D02*
X26102Y-19488D01*
G54D39*
X36210Y-29881D02*
X36210Y-30472D01*
X33696Y-27368D02*
X36210Y-29881D01*
X33696Y-26771D02*
X33696Y-27368D01*
X27244Y-51514D02*
X27244Y-49854D01*
X21110Y-32520D02*
X21110Y-30400D01*
X20130Y-33500D02*
X21110Y-32520D01*
X13380Y-33500D02*
X20130Y-33500D01*
X9430Y-37450D02*
X13380Y-33500D01*
X9430Y-42290D02*
X9430Y-37450D01*
X12080Y-44940D02*
X9430Y-42290D01*
X19570Y-44940D02*
X12080Y-44940D01*
X19880Y-45250D02*
X19570Y-44940D01*
X19880Y-46200D02*
X19880Y-45250D01*
X22300Y-48620D02*
X19880Y-46200D01*
X24920Y-48620D02*
X22300Y-48620D01*
X25770Y-49470D02*
X24920Y-48620D01*
X26860Y-49470D02*
X25770Y-49470D01*
X27244Y-49854D02*
X26860Y-49470D01*
X32273Y-30472D02*
X32273Y-29783D01*
X26590Y-26216D02*
X26590Y-26169D01*
X27303Y-26929D02*
X26590Y-26216D01*
X29419Y-26929D02*
X27303Y-26929D01*
X32273Y-29783D02*
X29419Y-26929D01*
X33257Y-30472D02*
X33257Y-29803D01*
X26590Y-24659D02*
X26590Y-25169D01*
X26948Y-24301D02*
X26590Y-24659D01*
X31003Y-24301D02*
X26948Y-24301D01*
X31368Y-24665D02*
X31003Y-24301D01*
X31368Y-24724D02*
X31368Y-24665D01*
X31338Y-24753D02*
X31368Y-24724D01*
X33257Y-29803D02*
X33218Y-29763D01*
X25590Y-25169D02*
X25590Y-24468D01*
X31289Y-29685D02*
X31289Y-30472D01*
X31220Y-29616D02*
X31289Y-29685D01*
X25364Y-24242D02*
X20442Y-24242D01*
X25590Y-24468D02*
X25364Y-24242D01*
X30305Y-30472D02*
X30305Y-29557D01*
X25590Y-26673D02*
X25590Y-26169D01*
X26811Y-27893D02*
X25590Y-26673D01*
X28641Y-27893D02*
X26811Y-27893D01*
X30305Y-29557D02*
X28641Y-27893D01*
X24590Y-26169D02*
X24590Y-26618D01*
X29320Y-29586D02*
X29320Y-30472D01*
X28375Y-28641D02*
X29320Y-29586D01*
X26614Y-28641D02*
X28375Y-28641D01*
X24590Y-26618D02*
X26614Y-28641D01*
X32696Y-26771D02*
X32696Y-27568D01*
X36220Y-38651D02*
X36210Y-39527D01*
X36259Y-38612D02*
X36220Y-38651D01*
X32696Y-27568D02*
X33041Y-27913D01*
X21338Y-51436D02*
X21338Y-50767D01*
X31159Y-40880D02*
X31160Y-39510D01*
X31140Y-40900D02*
X31159Y-40880D01*
X17440Y-48149D02*
X17440Y-47805D01*
X20019Y-50728D02*
X17440Y-48149D01*
X21299Y-50728D02*
X20019Y-50728D01*
X21338Y-50767D02*
X21299Y-50728D01*
X22110Y-33650D02*
X22110Y-30400D01*
X21310Y-34450D02*
X22110Y-33650D01*
X13760Y-34450D02*
X21310Y-34450D01*
X10610Y-37600D02*
X13760Y-34450D01*
X10610Y-41970D02*
X10610Y-37600D01*
X12640Y-44000D02*
X10610Y-41970D01*
X20240Y-44000D02*
X12640Y-44000D01*
X20900Y-44660D02*
X20240Y-44000D01*
X20900Y-46000D02*
X20900Y-44660D01*
X22660Y-47760D02*
X20900Y-46000D01*
X24990Y-47760D02*
X22660Y-47760D01*
X25960Y-48730D02*
X24990Y-47760D01*
X30300Y-48730D02*
X25960Y-48730D01*
X30501Y-48528D02*
X30300Y-48730D01*
X30501Y-45372D02*
X30501Y-48528D01*
G54D40*
X27450Y-20121D02*
X26876Y-20121D01*
G54D39*
X23110Y-29170D02*
X23110Y-30410D01*
X22380Y-28560D02*
X23110Y-29170D01*
X20413Y-28553D02*
X22380Y-28560D01*
X19625Y-27765D02*
X20413Y-28553D01*
G54D40*
X26062Y-21368D02*
X23464Y-21368D01*
X26732Y-20698D02*
X26062Y-21368D01*
X26732Y-20265D02*
X26732Y-20698D01*
X26876Y-20121D02*
X26732Y-20265D01*
G54D41*
X28818Y-41624D02*
X29000Y-41805D01*
X29000Y-41805D02*
X29000Y-43647D01*
X29327Y-37802D02*
X28382Y-37802D01*
X16673Y-44468D02*
X18356Y-44468D01*
X28382Y-37802D02*
X28346Y-37765D01*
G54D42*
X30250Y-22431D02*
X30898Y-22431D01*
G54D40*
X28501Y-45348D02*
X28501Y-45372D01*
X29000Y-44850D02*
X28501Y-45348D01*
X29000Y-43647D02*
X29000Y-44850D01*
G54D39*
X29820Y-37310D02*
X29327Y-37802D01*
X34310Y-37310D02*
X29820Y-37310D01*
X34720Y-36900D02*
X34310Y-37310D01*
X34720Y-34830D02*
X34720Y-36900D01*
X35560Y-33990D02*
X34720Y-34830D01*
X37810Y-33990D02*
X35560Y-33990D01*
X37880Y-34060D02*
X37810Y-33990D01*
G54D42*
X30898Y-22431D02*
X30930Y-22400D01*
G54D40*
X30250Y-22431D02*
X30246Y-22627D01*
X26968Y-18066D02*
X26968Y-17283D01*
X26818Y-18216D02*
X26968Y-18066D01*
X28454Y-22627D02*
X28425Y-18283D01*
X30246Y-22627D02*
X28454Y-22627D01*
G54D41*
X28000Y-42780D02*
X28000Y-43633D01*
X27972Y-43671D02*
X28000Y-43671D01*
X27972Y-43661D02*
X27972Y-43671D01*
X28000Y-43633D02*
X27972Y-43661D01*
X27677Y-40255D02*
X27677Y-42559D01*
X27898Y-42780D02*
X28000Y-42780D01*
X27677Y-42559D02*
X27898Y-42780D01*
G54D40*
X29881Y-22171D02*
X29662Y-22171D01*
X29662Y-22171D02*
X29484Y-22171D01*
X29484Y-22171D02*
X28845Y-22171D01*
X28845Y-22171D02*
X28818Y-22145D01*
X28818Y-22145D02*
X28818Y-18503D01*
G54D41*
X29685Y-18188D02*
X29881Y-18188D01*
G54D40*
X28000Y-44874D02*
X27501Y-45372D01*
X28000Y-43671D02*
X28000Y-44874D01*
G54D41*
X34760Y-38430D02*
X30030Y-38430D01*
X35770Y-37420D02*
X34760Y-38430D01*
X37870Y-37420D02*
X35770Y-37420D01*
X39200Y-36090D02*
X37870Y-37420D01*
X39200Y-35290D02*
X39200Y-36090D01*
X40330Y-34160D02*
X39200Y-35290D01*
X41830Y-34160D02*
X40330Y-34160D01*
X43890Y-32100D02*
X41830Y-34160D01*
X43890Y-30140D02*
X43890Y-32100D01*
X44770Y-29260D02*
X43890Y-30140D01*
X44770Y-25330D02*
X44770Y-29260D01*
X43740Y-24300D02*
X44770Y-25330D01*
X38010Y-24300D02*
X43740Y-24300D01*
X37490Y-23780D02*
X38010Y-24300D01*
X35490Y-23780D02*
X37490Y-23780D01*
X35440Y-23730D02*
X35490Y-23780D01*
X35440Y-20810D02*
X35440Y-23730D01*
X34800Y-20170D02*
X35440Y-20810D01*
X34270Y-20170D02*
X34800Y-20170D01*
X33970Y-19870D02*
X34270Y-20170D01*
X33970Y-18790D02*
X33970Y-19870D01*
X33020Y-17840D02*
X33970Y-18790D01*
X30880Y-17840D02*
X33020Y-17840D01*
X30770Y-17950D02*
X30880Y-17840D01*
X30120Y-17950D02*
X30770Y-17950D01*
X29881Y-18188D02*
X30120Y-17950D01*
G54D42*
X30250Y-22171D02*
X29881Y-22171D01*
G54D41*
X29527Y-18031D02*
X29527Y-17283D01*
X29685Y-18188D02*
X29527Y-18031D01*
X30000Y-42529D02*
X30000Y-43730D01*
X29960Y-43769D02*
X30000Y-43769D01*
X30000Y-43730D02*
X29960Y-43769D01*
G54D39*
X32834Y-22264D02*
X32144Y-22264D01*
G54D40*
X29677Y-45372D02*
X29501Y-45372D01*
X30000Y-45049D02*
X29677Y-45372D01*
X30000Y-43769D02*
X30000Y-45049D01*
G54D39*
X32144Y-22264D02*
X31998Y-22411D01*
X34696Y-26771D02*
X34696Y-27383D01*
X34696Y-27383D02*
X36771Y-29458D01*
X36771Y-29458D02*
X37066Y-29458D01*
X37066Y-29458D02*
X37194Y-29586D01*
X37194Y-29586D02*
X37194Y-30472D01*
X24501Y-44372D02*
X24501Y-40948D01*
X24501Y-40948D02*
X24222Y-40669D01*
X24222Y-40669D02*
X15118Y-40669D01*
X15118Y-40669D02*
X14458Y-40009D01*
X14458Y-40009D02*
X14458Y-39055D01*
X14458Y-39055D02*
X15314Y-38198D01*
X15314Y-38198D02*
X27214Y-38198D01*
X27214Y-38198D02*
X28180Y-36960D01*
X28180Y-36960D02*
X28140Y-30470D01*
X28140Y-30470D02*
X28090Y-30420D01*
G54D40*
X30250Y-21661D02*
X29880Y-21661D01*
X29645Y-21427D02*
X29645Y-20755D01*
X29880Y-21661D02*
X29645Y-21427D01*
X29645Y-20755D02*
X29645Y-18779D01*
G54D39*
X31501Y-51998D02*
X31501Y-51549D01*
X31501Y-51549D02*
X37903Y-45147D01*
X37903Y-45147D02*
X37903Y-44222D01*
X37903Y-44222D02*
X41131Y-40994D01*
X31501Y-45372D02*
X31501Y-51998D01*
X41131Y-40994D02*
X41131Y-39527D01*
X41131Y-37450D02*
X41131Y-39527D01*
X41141Y-37440D02*
X41131Y-37450D01*
X31501Y-51998D02*
X31501Y-55929D01*
X31289Y-56141D02*
X19803Y-56141D01*
X31501Y-55929D02*
X31289Y-56141D01*
X19015Y-55275D02*
X19015Y-55354D01*
X18996Y-55255D02*
X19015Y-55275D01*
G54D41*
X19015Y-55354D02*
X19803Y-56141D01*
X19015Y-54212D02*
X19015Y-55354D01*
X19448Y-53779D02*
X19015Y-54212D01*
X20551Y-53779D02*
X19448Y-53779D01*
X20590Y-53818D02*
X20551Y-53779D01*
X19881Y-60196D02*
X19881Y-56141D01*
X19803Y-56141D02*
X19881Y-56141D01*
X20590Y-51614D02*
X20590Y-53818D01*
X19082Y-60996D02*
X19881Y-60196D01*
G54D39*
X43129Y-26850D02*
X43129Y-30501D01*
X43129Y-30501D02*
X41643Y-31988D01*
X43129Y-26850D02*
X43129Y-25797D01*
X41555Y-25698D02*
X37578Y-25698D01*
X41614Y-25757D02*
X41555Y-25698D01*
X41614Y-25393D02*
X41614Y-25757D01*
X41761Y-25246D02*
X41614Y-25393D01*
X42578Y-25246D02*
X41761Y-25246D01*
X43129Y-25797D02*
X42578Y-25246D01*
X37578Y-25305D02*
X37578Y-25698D01*
X37578Y-25698D02*
X37578Y-26653D01*
X37578Y-26653D02*
X37696Y-26771D01*
X37578Y-24960D02*
X37578Y-25305D01*
X37578Y-25305D02*
X37578Y-25925D01*
X37096Y-24478D02*
X37578Y-24960D01*
X33622Y-24478D02*
X37096Y-24478D01*
X33139Y-23996D02*
X33622Y-24478D01*
X33139Y-23110D02*
X33139Y-23996D01*
G54D41*
X37696Y-26771D02*
X37696Y-26043D01*
X37696Y-26043D02*
X37578Y-25925D01*
G54D39*
X41643Y-31988D02*
X38917Y-31988D01*
X33357Y-22892D02*
X33139Y-23110D01*
X38917Y-31988D02*
X38474Y-32431D01*
X38474Y-32431D02*
X38474Y-35551D01*
X25383Y-12613D02*
X25383Y-13592D01*
X24803Y-17401D02*
X23307Y-18897D01*
X24803Y-14173D02*
X24803Y-17401D01*
X25383Y-13592D02*
X24803Y-14173D01*
X24320Y-11278D02*
X24320Y-11250D01*
X23937Y-10866D02*
X21653Y-10866D01*
X24320Y-11250D02*
X23937Y-10866D01*
X15669Y-7795D02*
X15669Y-7244D01*
X16299Y-6614D02*
X20653Y-6614D01*
X15669Y-7244D02*
X16299Y-6614D01*
X21653Y-11653D02*
X21653Y-13700D01*
X21653Y-13700D02*
X21574Y-13779D01*
X20653Y-9527D02*
X20653Y-9866D01*
X20653Y-9866D02*
X21653Y-10866D01*
X21653Y-10866D02*
X21653Y-11653D01*
X20653Y-7401D02*
X20653Y-9527D01*
X18976Y-18897D02*
X17007Y-18897D01*
X16220Y-19684D02*
X16220Y-21141D01*
X17007Y-18897D02*
X16220Y-19684D01*
X18976Y-18897D02*
X23307Y-18897D01*
X20653Y-7401D02*
X20653Y-6614D01*
X20653Y-6614D02*
X20653Y-6354D01*
X33523Y-6909D02*
X33523Y-9881D01*
X32677Y-6062D02*
X33523Y-6909D01*
X20944Y-6062D02*
X32677Y-6062D01*
X20653Y-6354D02*
X20944Y-6062D01*
X14863Y-59370D02*
X14863Y-59339D01*
X15049Y-53503D02*
X13779Y-53503D01*
X16456Y-54911D02*
X15049Y-53503D01*
X16456Y-57746D02*
X16456Y-54911D01*
X14863Y-59339D02*
X16456Y-57746D01*
X9015Y-56637D02*
X13409Y-56637D01*
X13409Y-56637D02*
X13779Y-57007D01*
X8852Y-56474D02*
X9015Y-56637D01*
X15669Y-49370D02*
X16476Y-49370D01*
X13779Y-51860D02*
X13779Y-53503D01*
X14025Y-51614D02*
X13779Y-51860D01*
X16830Y-51614D02*
X14025Y-51614D01*
X17362Y-51082D02*
X16830Y-51614D01*
X17362Y-50255D02*
X17362Y-51082D01*
X16476Y-49370D02*
X17362Y-50255D01*
X13779Y-53503D02*
X13779Y-57007D01*
X33937Y-22892D02*
X33357Y-22892D01*
X15120Y-30440D02*
X15120Y-29000D01*
X16131Y-28484D02*
X16436Y-28484D01*
X15120Y-29000D02*
X16131Y-28484D01*
G54D43*
X27031Y-13307D02*
X26190Y-13307D01*
X25186Y-11278D02*
X24320Y-11278D01*
X25383Y-11476D02*
X25186Y-11278D01*
X25383Y-12500D02*
X25383Y-12613D01*
X25383Y-12613D02*
X25383Y-11476D01*
X26190Y-13307D02*
X25383Y-12500D01*
G54D39*
X24409Y-10217D02*
X24409Y-11189D01*
X24409Y-11189D02*
X24320Y-11278D01*
X16220Y-25452D02*
X16761Y-25452D01*
X17478Y-26169D02*
X23590Y-26169D01*
X16761Y-25452D02*
X17478Y-26169D01*
X16220Y-25452D02*
X16220Y-28268D01*
X16220Y-28268D02*
X16436Y-28484D01*
X16220Y-25452D02*
X16220Y-21141D01*
G54D41*
X32776Y-12086D02*
X32913Y-12086D01*
X33523Y-11476D02*
X33523Y-9881D01*
X32913Y-12086D02*
X33523Y-11476D01*
G54D40*
X33937Y-22264D02*
X33937Y-22892D01*
X30250Y-21661D02*
X30795Y-21661D01*
X33562Y-21889D02*
X33937Y-22264D01*
X32401Y-21889D02*
X33562Y-21889D01*
X32283Y-21771D02*
X32401Y-21889D01*
X30905Y-21771D02*
X32283Y-21771D01*
X30795Y-21661D02*
X30905Y-21771D01*
G54D41*
X17165Y-60996D02*
X19082Y-60996D01*
X14863Y-60629D02*
X14863Y-59370D01*
X14863Y-60629D02*
X16799Y-60629D01*
X16799Y-60629D02*
X17165Y-60996D01*
X14863Y-59370D02*
X15511Y-59370D01*
X15511Y-59370D02*
X15775Y-59633D01*
X15775Y-59633D02*
X17165Y-59633D01*
X19981Y-51614D02*
X20590Y-51614D01*
G54D40*
X29645Y-19842D02*
X29645Y-18779D01*
X28740Y-17874D02*
X28078Y-17874D01*
X29645Y-18779D02*
X28740Y-17874D01*
X30250Y-20891D02*
X29781Y-20891D01*
X29781Y-20891D02*
X29645Y-20755D01*
X29645Y-20755D02*
X29645Y-19842D01*
X29645Y-19842D02*
X29645Y-19787D01*
X29821Y-19611D02*
X30250Y-19611D01*
X29645Y-19787D02*
X29821Y-19611D01*
X30250Y-19611D02*
X30250Y-19871D01*
X27450Y-20641D02*
X28027Y-20641D01*
X28027Y-20641D02*
X28078Y-20590D01*
X28078Y-20590D02*
X28078Y-17874D01*
X27700Y-16102D02*
X26968Y-16102D01*
X28078Y-17874D02*
X28078Y-16480D01*
X28078Y-16480D02*
X27700Y-16102D01*
G54D41*
X26917Y-13940D02*
X26917Y-16051D01*
X26917Y-16051D02*
X26968Y-16102D01*
X27031Y-13826D02*
X27031Y-13307D01*
X26917Y-13940D02*
X27031Y-13826D01*
G54D39*
X29527Y-52264D02*
X29527Y-52952D01*
X29527Y-52952D02*
X29468Y-53011D01*
G54D41*
X30629Y-52343D02*
X29606Y-52343D01*
X29606Y-52343D02*
X29527Y-52264D01*
G54D39*
X22440Y-52186D02*
X22440Y-52854D01*
X22440Y-52854D02*
X22460Y-52874D01*
G54D41*
X22440Y-52186D02*
X21338Y-52186D01*
G54D39*
X13168Y-49212D02*
X13168Y-48128D01*
X18110Y-30970D02*
X18110Y-30410D01*
X17920Y-31160D02*
X18110Y-30970D01*
X11810Y-31160D02*
X17920Y-31160D01*
X6610Y-36360D02*
X11810Y-31160D01*
X6610Y-44380D02*
X6610Y-36360D01*
X10010Y-47780D02*
X6610Y-44380D01*
X12820Y-47780D02*
X10010Y-47780D01*
X13168Y-48128D02*
X12820Y-47780D01*
G54D41*
X13247Y-50393D02*
X13247Y-49291D01*
X13247Y-49291D02*
X13168Y-49212D01*
X14863Y-61811D02*
X16980Y-61811D01*
X16980Y-61811D02*
X17165Y-61996D01*
X17165Y-58633D02*
X17165Y-57461D01*
X17165Y-57461D02*
X17125Y-57422D01*
X32559Y-15326D02*
X32559Y-14115D01*
G54D40*
X29163Y-21712D02*
X29163Y-19261D01*
X29382Y-21931D02*
X29163Y-21712D01*
X29458Y-21931D02*
X29382Y-21931D01*
X29163Y-19261D02*
X29212Y-19212D01*
X29458Y-21931D02*
X29458Y-21878D01*
X29458Y-21878D02*
X29212Y-21632D01*
X29891Y-21931D02*
X29458Y-21931D01*
X29458Y-21931D02*
X29451Y-21931D01*
X29212Y-19212D02*
X29212Y-21632D01*
G54D41*
X34664Y-23642D02*
X33937Y-23642D01*
X30551Y-18385D02*
X30629Y-18307D01*
X30629Y-18307D02*
X32755Y-18307D01*
X32755Y-18307D02*
X32834Y-18385D01*
X32834Y-18385D02*
X32838Y-20820D01*
X32838Y-20820D02*
X32720Y-20820D01*
X32720Y-20820D02*
X34606Y-20826D01*
X34606Y-20826D02*
X34842Y-21062D01*
X34842Y-21062D02*
X34842Y-23464D01*
X34842Y-23464D02*
X34664Y-23642D01*
G54D40*
X29370Y-21820D02*
X29370Y-21850D01*
X29420Y-21871D02*
X29370Y-21820D01*
X29451Y-21871D02*
X29420Y-21871D01*
X29212Y-21632D02*
X29451Y-21871D01*
G54D42*
X30250Y-21931D02*
X29891Y-21931D01*
X29451Y-21931D02*
X29370Y-21850D01*
G54D41*
X34527Y-15366D02*
X34527Y-14154D01*
X34527Y-14154D02*
X34566Y-14115D01*
G54D39*
X34488Y-17362D02*
X34488Y-16405D01*
X34488Y-16405D02*
X34527Y-16366D01*
G54D40*
X30250Y-20381D02*
X31704Y-20381D01*
X31704Y-20381D02*
X31889Y-20196D01*
G54D39*
X32519Y-17204D02*
X32519Y-16366D01*
X32519Y-16366D02*
X32559Y-16326D01*
G54D40*
X30250Y-20641D02*
X32192Y-20641D01*
X32440Y-19370D02*
X32283Y-19212D01*
X32440Y-20393D02*
X32440Y-19370D01*
X32192Y-20641D02*
X32440Y-20393D01*
G54D39*
X23385Y-52854D02*
X23385Y-52186D01*
X23326Y-52913D02*
X23385Y-52854D01*
G54D41*
X24488Y-52264D02*
X23464Y-52264D01*
X23464Y-52264D02*
X23385Y-52186D01*
G54D39*
X26299Y-52264D02*
X26299Y-52913D01*
X26299Y-52913D02*
X26318Y-52933D01*
G54D41*
X26299Y-52264D02*
X27244Y-52264D01*
G54D39*
X28110Y-52913D02*
X28110Y-52264D01*
X28208Y-53011D02*
X28110Y-52913D01*
G54D10*
G36*
X16458Y-58043D02*
X16388Y-58113D01*
X16248Y-58450D01*
X16248Y-58815D01*
X16342Y-59042D01*
X16189Y-59046D01*
X16038Y-59464D01*
X16059Y-59908D01*
X16189Y-60221D01*
X16331Y-60224D01*
X16292Y-60262D01*
X16345Y-60314D01*
X16292Y-60367D01*
X16331Y-60405D01*
X16189Y-60408D01*
X16038Y-60826D01*
X16051Y-61104D01*
X15807Y-61104D01*
X15825Y-61061D01*
X15825Y-60925D01*
X15628Y-60728D01*
X14950Y-60728D01*
X14950Y-60736D01*
X14875Y-60736D01*
X14875Y-60523D01*
X14950Y-60523D01*
X14950Y-60531D01*
X15628Y-60531D01*
X15825Y-60334D01*
X15825Y-60198D01*
X15743Y-60000D01*
X15825Y-59801D01*
X15825Y-59665D01*
X15628Y-59468D01*
X14950Y-59468D01*
X14950Y-59476D01*
X14875Y-59476D01*
X14875Y-59263D01*
X14950Y-59263D01*
X14950Y-59271D01*
X15628Y-59271D01*
X15825Y-59074D01*
X15825Y-58938D01*
X15705Y-58649D01*
X15484Y-58427D01*
X15206Y-58312D01*
X15609Y-57909D01*
X16218Y-57909D01*
X16326Y-57865D01*
X16353Y-57929D01*
X16458Y-58034D01*
X16458Y-58043D01*
X16458Y-58043D01*
G37*
G54D44*
X16458Y-58043D02*
X16388Y-58113D01*
X16248Y-58450D01*
X16248Y-58815D01*
X16342Y-59042D01*
X16189Y-59046D01*
X16038Y-59464D01*
X16059Y-59908D01*
X16189Y-60221D01*
X16331Y-60224D01*
X16292Y-60262D01*
X16345Y-60314D01*
X16292Y-60367D01*
X16331Y-60405D01*
X16189Y-60408D01*
X16038Y-60826D01*
X16051Y-61104D01*
X15807Y-61104D01*
X15825Y-61061D01*
X15825Y-60925D01*
X15628Y-60728D01*
X14950Y-60728D01*
X14950Y-60736D01*
X14875Y-60736D01*
X14875Y-60523D01*
X14950Y-60523D01*
X14950Y-60531D01*
X15628Y-60531D01*
X15825Y-60334D01*
X15825Y-60198D01*
X15743Y-60000D01*
X15825Y-59801D01*
X15825Y-59665D01*
X15628Y-59468D01*
X14950Y-59468D01*
X14950Y-59476D01*
X14875Y-59476D01*
X14875Y-59263D01*
X14950Y-59263D01*
X14950Y-59271D01*
X15628Y-59271D01*
X15825Y-59074D01*
X15825Y-58938D01*
X15705Y-58649D01*
X15484Y-58427D01*
X15206Y-58312D01*
X15609Y-57909D01*
X16218Y-57909D01*
X16326Y-57865D01*
X16353Y-57929D01*
X16458Y-58034D01*
X16458Y-58043D01*
G54D10*
G36*
X17310Y-59639D02*
X17170Y-59778D01*
X17165Y-59773D01*
X17159Y-59778D01*
X17020Y-59639D01*
X17026Y-59633D01*
X17020Y-59628D01*
X17098Y-59550D01*
X17232Y-59550D01*
X17310Y-59628D01*
X17304Y-59633D01*
X17310Y-59639D01*
X17310Y-59639D01*
G37*
G54D44*
X17310Y-59639D02*
X17170Y-59778D01*
X17165Y-59773D01*
X17159Y-59778D01*
X17020Y-59639D01*
X17026Y-59633D01*
X17020Y-59628D01*
X17098Y-59550D01*
X17232Y-59550D01*
X17310Y-59628D01*
X17304Y-59633D01*
X17310Y-59639D01*
G54D10*
G36*
X17310Y-61001D02*
X17232Y-61079D01*
X17098Y-61079D01*
X17020Y-61001D01*
X17026Y-60996D01*
X17020Y-60990D01*
X17159Y-60851D01*
X17165Y-60856D01*
X17170Y-60851D01*
X17310Y-60990D01*
X17304Y-60996D01*
X17310Y-61001D01*
X17310Y-61001D01*
G37*
G54D44*
X17310Y-61001D02*
X17232Y-61079D01*
X17098Y-61079D01*
X17020Y-61001D01*
X17026Y-60996D01*
X17020Y-60990D01*
X17159Y-60851D01*
X17165Y-60856D01*
X17170Y-60851D01*
X17310Y-60990D01*
X17304Y-60996D01*
X17310Y-61001D01*
G54D10*
G36*
X17855Y-53231D02*
X17846Y-53240D01*
X17693Y-53469D01*
X17684Y-53514D01*
X17639Y-53740D01*
X17639Y-53740D01*
X17639Y-55061D01*
X17581Y-55119D01*
X17489Y-55119D01*
X17356Y-55065D01*
X17053Y-55064D01*
X16773Y-55180D01*
X16559Y-55394D01*
X16443Y-55674D01*
X16442Y-55785D01*
X16442Y-55785D01*
X16419Y-55905D01*
X16419Y-55905D01*
X16419Y-56099D01*
X16355Y-56162D01*
X16273Y-56128D01*
X16273Y-55206D01*
X16263Y-55157D01*
X16263Y-55157D01*
X16263Y-55045D01*
X16220Y-54941D01*
X16220Y-54941D01*
X16215Y-54915D01*
X16215Y-54915D01*
X16200Y-54892D01*
X16200Y-54892D01*
X16148Y-54765D01*
X16050Y-54667D01*
X16050Y-54667D01*
X16041Y-54658D01*
X15934Y-54551D01*
X15654Y-54435D01*
X15351Y-54434D01*
X15070Y-54550D01*
X14856Y-54764D01*
X14740Y-55044D01*
X14739Y-55347D01*
X14749Y-55371D01*
X14749Y-55997D01*
X14526Y-55905D01*
X14074Y-55905D01*
X13878Y-56102D01*
X13878Y-56909D01*
X13885Y-56909D01*
X13885Y-57106D01*
X13878Y-57106D01*
X13878Y-57114D01*
X13681Y-57114D01*
X13681Y-57106D01*
X13681Y-56909D01*
X13681Y-56102D01*
X13484Y-55905D01*
X13032Y-55905D01*
X12743Y-56025D01*
X12521Y-56246D01*
X12401Y-56536D01*
X12401Y-56712D01*
X12598Y-56909D01*
X13681Y-56909D01*
X13681Y-57106D01*
X12598Y-57106D01*
X12401Y-57303D01*
X12401Y-57479D01*
X12521Y-57768D01*
X12628Y-57875D01*
X9791Y-57875D01*
X9961Y-57805D01*
X10183Y-57583D01*
X10303Y-57294D01*
X10303Y-56933D01*
X10106Y-56736D01*
X9562Y-56736D01*
X9601Y-56539D01*
X10106Y-56539D01*
X10303Y-56342D01*
X10303Y-55981D01*
X10183Y-55691D01*
X9961Y-55470D01*
X9672Y-55350D01*
X9614Y-55350D01*
X9614Y-54844D01*
X9708Y-54702D01*
X9779Y-54348D01*
X9779Y-53781D01*
X9708Y-53427D01*
X9614Y-53285D01*
X9614Y-49844D01*
X9708Y-49702D01*
X9779Y-49348D01*
X9779Y-48781D01*
X9720Y-48484D01*
X9974Y-48534D01*
X9925Y-48781D01*
X9925Y-49348D01*
X9996Y-49702D01*
X10090Y-49844D01*
X10090Y-53285D01*
X9996Y-53427D01*
X9925Y-53781D01*
X9925Y-54348D01*
X9996Y-54702D01*
X10196Y-55003D01*
X10497Y-55204D01*
X10852Y-55275D01*
X11207Y-55204D01*
X11507Y-55003D01*
X11708Y-54702D01*
X11779Y-54348D01*
X11779Y-53781D01*
X11708Y-53427D01*
X11614Y-53285D01*
X11614Y-50404D01*
X11786Y-50476D01*
X11938Y-50476D01*
X12089Y-50476D01*
X12369Y-50360D01*
X12477Y-50253D01*
X12485Y-50245D01*
X12485Y-50785D01*
X12574Y-51001D01*
X12739Y-51166D01*
X12955Y-51255D01*
X13188Y-51255D01*
X13538Y-51255D01*
X13622Y-51221D01*
X13705Y-51255D01*
X13859Y-51255D01*
X14048Y-51444D01*
X14277Y-51597D01*
X14277Y-51597D01*
X14322Y-51606D01*
X14548Y-51651D01*
X14548Y-51651D01*
X14548Y-51651D01*
X15393Y-51651D01*
X15393Y-51651D01*
X15393Y-51651D01*
X15619Y-51606D01*
X15664Y-51597D01*
X15664Y-51597D01*
X15893Y-51444D01*
X16162Y-51175D01*
X16304Y-51234D01*
X16607Y-51234D01*
X16887Y-51118D01*
X17102Y-50904D01*
X17218Y-50624D01*
X17218Y-50321D01*
X17102Y-50041D01*
X16888Y-49826D01*
X16755Y-49771D01*
X16720Y-49736D01*
X16614Y-49665D01*
X16614Y-49665D01*
X16614Y-49074D01*
X16614Y-49016D01*
X16494Y-48727D01*
X16272Y-48505D01*
X15983Y-48385D01*
X15944Y-48385D01*
X15748Y-48582D01*
X15748Y-49271D01*
X16417Y-49271D01*
X16614Y-49074D01*
X16614Y-49665D01*
X16417Y-49468D01*
X15748Y-49468D01*
X15748Y-49472D01*
X15650Y-49472D01*
X15647Y-49472D01*
X15667Y-49370D01*
X15645Y-49261D01*
X15645Y-49076D01*
X15590Y-48942D01*
X15590Y-48582D01*
X15393Y-48385D01*
X15355Y-48385D01*
X15065Y-48505D01*
X15022Y-48549D01*
X14803Y-48505D01*
X14803Y-48505D01*
X14491Y-48505D01*
X14425Y-48440D01*
X14210Y-48350D01*
X13976Y-48350D01*
X13930Y-48350D01*
X13930Y-48128D01*
X13872Y-47836D01*
X13872Y-47836D01*
X13806Y-47737D01*
X13735Y-47631D01*
X16687Y-47631D01*
X16679Y-47652D01*
X16678Y-47955D01*
X16679Y-47956D01*
X16679Y-48149D01*
X16737Y-48441D01*
X16902Y-48688D01*
X17545Y-49331D01*
X17437Y-49591D01*
X17436Y-49894D01*
X17436Y-49895D01*
X17436Y-52548D01*
X17436Y-52700D01*
X17552Y-52980D01*
X17766Y-53194D01*
X17855Y-53231D01*
X17855Y-53231D01*
G37*
G54D44*
X17855Y-53231D02*
X17846Y-53240D01*
X17693Y-53469D01*
X17684Y-53514D01*
X17639Y-53740D01*
X17639Y-53740D01*
X17639Y-55061D01*
X17581Y-55119D01*
X17489Y-55119D01*
X17356Y-55065D01*
X17053Y-55064D01*
X16773Y-55180D01*
X16559Y-55394D01*
X16443Y-55674D01*
X16442Y-55785D01*
X16442Y-55785D01*
X16419Y-55905D01*
X16419Y-55905D01*
X16419Y-56099D01*
X16355Y-56162D01*
X16273Y-56128D01*
X16273Y-55206D01*
X16263Y-55157D01*
X16263Y-55157D01*
X16263Y-55045D01*
X16220Y-54941D01*
X16220Y-54941D01*
X16215Y-54915D01*
X16215Y-54915D01*
X16200Y-54892D01*
X16200Y-54892D01*
X16148Y-54765D01*
X16050Y-54667D01*
X16050Y-54667D01*
X16041Y-54658D01*
X15934Y-54551D01*
X15654Y-54435D01*
X15351Y-54434D01*
X15070Y-54550D01*
X14856Y-54764D01*
X14740Y-55044D01*
X14739Y-55347D01*
X14749Y-55371D01*
X14749Y-55997D01*
X14526Y-55905D01*
X14074Y-55905D01*
X13878Y-56102D01*
X13878Y-56909D01*
X13885Y-56909D01*
X13885Y-57106D01*
X13878Y-57106D01*
X13878Y-57114D01*
X13681Y-57114D01*
X13681Y-57106D01*
X13681Y-56909D01*
X13681Y-56102D01*
X13484Y-55905D01*
X13032Y-55905D01*
X12743Y-56025D01*
X12521Y-56246D01*
X12401Y-56536D01*
X12401Y-56712D01*
X12598Y-56909D01*
X13681Y-56909D01*
X13681Y-57106D01*
X12598Y-57106D01*
X12401Y-57303D01*
X12401Y-57479D01*
X12521Y-57768D01*
X12628Y-57875D01*
X9791Y-57875D01*
X9961Y-57805D01*
X10183Y-57583D01*
X10303Y-57294D01*
X10303Y-56933D01*
X10106Y-56736D01*
X9562Y-56736D01*
X9601Y-56539D01*
X10106Y-56539D01*
X10303Y-56342D01*
X10303Y-55981D01*
X10183Y-55691D01*
X9961Y-55470D01*
X9672Y-55350D01*
X9614Y-55350D01*
X9614Y-54844D01*
X9708Y-54702D01*
X9779Y-54348D01*
X9779Y-53781D01*
X9708Y-53427D01*
X9614Y-53285D01*
X9614Y-49844D01*
X9708Y-49702D01*
X9779Y-49348D01*
X9779Y-48781D01*
X9720Y-48484D01*
X9974Y-48534D01*
X9925Y-48781D01*
X9925Y-49348D01*
X9996Y-49702D01*
X10090Y-49844D01*
X10090Y-53285D01*
X9996Y-53427D01*
X9925Y-53781D01*
X9925Y-54348D01*
X9996Y-54702D01*
X10196Y-55003D01*
X10497Y-55204D01*
X10852Y-55275D01*
X11207Y-55204D01*
X11507Y-55003D01*
X11708Y-54702D01*
X11779Y-54348D01*
X11779Y-53781D01*
X11708Y-53427D01*
X11614Y-53285D01*
X11614Y-50404D01*
X11786Y-50476D01*
X11938Y-50476D01*
X12089Y-50476D01*
X12369Y-50360D01*
X12477Y-50253D01*
X12485Y-50245D01*
X12485Y-50785D01*
X12574Y-51001D01*
X12739Y-51166D01*
X12955Y-51255D01*
X13188Y-51255D01*
X13538Y-51255D01*
X13622Y-51221D01*
X13705Y-51255D01*
X13859Y-51255D01*
X14048Y-51444D01*
X14277Y-51597D01*
X14277Y-51597D01*
X14322Y-51606D01*
X14548Y-51651D01*
X14548Y-51651D01*
X14548Y-51651D01*
X15393Y-51651D01*
X15393Y-51651D01*
X15393Y-51651D01*
X15619Y-51606D01*
X15664Y-51597D01*
X15664Y-51597D01*
X15893Y-51444D01*
X16162Y-51175D01*
X16304Y-51234D01*
X16607Y-51234D01*
X16887Y-51118D01*
X17102Y-50904D01*
X17218Y-50624D01*
X17218Y-50321D01*
X17102Y-50041D01*
X16888Y-49826D01*
X16755Y-49771D01*
X16720Y-49736D01*
X16614Y-49665D01*
X16614Y-49665D01*
X16614Y-49074D01*
X16614Y-49016D01*
X16494Y-48727D01*
X16272Y-48505D01*
X15983Y-48385D01*
X15944Y-48385D01*
X15748Y-48582D01*
X15748Y-49271D01*
X16417Y-49271D01*
X16614Y-49074D01*
X16614Y-49665D01*
X16417Y-49468D01*
X15748Y-49468D01*
X15748Y-49472D01*
X15650Y-49472D01*
X15647Y-49472D01*
X15667Y-49370D01*
X15645Y-49261D01*
X15645Y-49076D01*
X15590Y-48942D01*
X15590Y-48582D01*
X15393Y-48385D01*
X15355Y-48385D01*
X15065Y-48505D01*
X15022Y-48549D01*
X14803Y-48505D01*
X14803Y-48505D01*
X14491Y-48505D01*
X14425Y-48440D01*
X14210Y-48350D01*
X13976Y-48350D01*
X13930Y-48350D01*
X13930Y-48128D01*
X13872Y-47836D01*
X13872Y-47836D01*
X13806Y-47737D01*
X13735Y-47631D01*
X16687Y-47631D01*
X16679Y-47652D01*
X16678Y-47955D01*
X16679Y-47956D01*
X16679Y-48149D01*
X16737Y-48441D01*
X16902Y-48688D01*
X17545Y-49331D01*
X17437Y-49591D01*
X17436Y-49894D01*
X17436Y-49895D01*
X17436Y-52548D01*
X17436Y-52700D01*
X17552Y-52980D01*
X17766Y-53194D01*
X17855Y-53231D01*
G54D10*
G36*
X21716Y-11566D02*
X21716Y-11740D01*
X21659Y-11798D01*
X21653Y-11792D01*
X21647Y-11798D01*
X21590Y-11740D01*
X21590Y-11566D01*
X21647Y-11508D01*
X21653Y-11514D01*
X21659Y-11508D01*
X21716Y-11566D01*
X21716Y-11566D01*
G37*
G54D44*
X21716Y-11566D02*
X21716Y-11740D01*
X21659Y-11798D01*
X21653Y-11792D01*
X21647Y-11798D01*
X21590Y-11740D01*
X21590Y-11566D01*
X21647Y-11508D01*
X21653Y-11514D01*
X21659Y-11508D01*
X21716Y-11566D01*
G54D10*
G36*
X24515Y-10305D02*
X24507Y-10305D01*
X24507Y-10316D01*
X24507Y-10424D01*
X24419Y-10512D01*
X24419Y-11191D01*
X24427Y-11191D01*
X24427Y-11266D01*
X24320Y-11266D01*
X24214Y-11266D01*
X24214Y-11191D01*
X24222Y-11191D01*
X24222Y-11179D01*
X24222Y-11071D01*
X24311Y-10983D01*
X24311Y-10305D01*
X23543Y-10305D01*
X23347Y-10501D01*
X23347Y-10549D01*
X23387Y-10647D01*
X23378Y-10657D01*
X23262Y-10937D01*
X23184Y-10859D01*
X22840Y-10716D01*
X22468Y-10716D01*
X22257Y-10803D01*
X22253Y-10660D01*
X21827Y-10506D01*
X21375Y-10527D01*
X21053Y-10660D01*
X21049Y-10803D01*
X20840Y-10716D01*
X20468Y-10716D01*
X20123Y-10858D01*
X20090Y-10891D01*
X19995Y-10891D01*
X20005Y-10882D01*
X20063Y-10741D01*
X20121Y-10602D01*
X20121Y-10544D01*
X20479Y-10674D01*
X20931Y-10653D01*
X21253Y-10520D01*
X21257Y-10377D01*
X21466Y-10464D01*
X21839Y-10464D01*
X22153Y-10334D01*
X22466Y-10464D01*
X22839Y-10464D01*
X23183Y-10322D01*
X23447Y-10058D01*
X23454Y-10040D01*
X23543Y-10130D01*
X23792Y-10130D01*
X23802Y-10140D01*
X24017Y-10229D01*
X24251Y-10229D01*
X24409Y-10229D01*
X24515Y-10229D01*
X24515Y-10305D01*
X24515Y-10305D01*
G37*
G54D44*
X24515Y-10305D02*
X24507Y-10305D01*
X24507Y-10316D01*
X24507Y-10424D01*
X24419Y-10512D01*
X24419Y-11191D01*
X24427Y-11191D01*
X24427Y-11266D01*
X24320Y-11266D01*
X24214Y-11266D01*
X24214Y-11191D01*
X24222Y-11191D01*
X24222Y-11179D01*
X24222Y-11071D01*
X24311Y-10983D01*
X24311Y-10305D01*
X23543Y-10305D01*
X23347Y-10501D01*
X23347Y-10549D01*
X23387Y-10647D01*
X23378Y-10657D01*
X23262Y-10937D01*
X23184Y-10859D01*
X22840Y-10716D01*
X22468Y-10716D01*
X22257Y-10803D01*
X22253Y-10660D01*
X21827Y-10506D01*
X21375Y-10527D01*
X21053Y-10660D01*
X21049Y-10803D01*
X20840Y-10716D01*
X20468Y-10716D01*
X20123Y-10858D01*
X20090Y-10891D01*
X19995Y-10891D01*
X20005Y-10882D01*
X20063Y-10741D01*
X20121Y-10602D01*
X20121Y-10544D01*
X20479Y-10674D01*
X20931Y-10653D01*
X21253Y-10520D01*
X21257Y-10377D01*
X21466Y-10464D01*
X21839Y-10464D01*
X22153Y-10334D01*
X22466Y-10464D01*
X22839Y-10464D01*
X23183Y-10322D01*
X23447Y-10058D01*
X23454Y-10040D01*
X23543Y-10130D01*
X23792Y-10130D01*
X23802Y-10140D01*
X24017Y-10229D01*
X24251Y-10229D01*
X24409Y-10229D01*
X24515Y-10229D01*
X24515Y-10305D01*
G54D10*
G36*
X30119Y-15081D02*
X29980Y-15220D01*
X28820Y-15220D01*
X28604Y-15309D01*
X28439Y-15474D01*
X28350Y-15690D01*
X28350Y-15923D01*
X28350Y-16514D01*
X28424Y-16692D01*
X28350Y-16871D01*
X28350Y-17104D01*
X28350Y-17521D01*
X28274Y-17521D01*
X28145Y-17574D01*
X28145Y-17462D01*
X28145Y-16871D01*
X28071Y-16692D01*
X28145Y-16514D01*
X28145Y-16280D01*
X28145Y-15690D01*
X28056Y-15474D01*
X27891Y-15309D01*
X27675Y-15220D01*
X27442Y-15220D01*
X26261Y-15220D01*
X26108Y-15283D01*
X26208Y-15184D01*
X26314Y-15077D01*
X26373Y-14937D01*
X26431Y-14797D01*
X26431Y-14645D01*
X26431Y-14505D01*
X26524Y-14544D01*
X26736Y-14544D01*
X26933Y-14347D01*
X26933Y-13405D01*
X26090Y-13405D01*
X25894Y-13602D01*
X25894Y-13913D01*
X25894Y-13914D01*
X25821Y-13883D01*
X25518Y-13883D01*
X25518Y-13883D01*
X25334Y-13883D01*
X25082Y-13933D01*
X25082Y-12546D01*
X25093Y-12535D01*
X25182Y-12320D01*
X25182Y-12086D01*
X25182Y-11980D01*
X25263Y-11899D01*
X25344Y-11703D01*
X25344Y-11723D01*
X25433Y-11939D01*
X25599Y-12104D01*
X25814Y-12193D01*
X26048Y-12193D01*
X26231Y-12193D01*
X26013Y-12411D01*
X25894Y-12700D01*
X25894Y-13011D01*
X26090Y-13208D01*
X26933Y-13208D01*
X26933Y-13200D01*
X27094Y-13200D01*
X27094Y-13873D01*
X27129Y-13958D01*
X27129Y-14347D01*
X27326Y-14544D01*
X27538Y-14544D01*
X27827Y-14424D01*
X27908Y-14343D01*
X28498Y-14343D01*
X28531Y-14330D01*
X28564Y-14343D01*
X28798Y-14343D01*
X29498Y-14343D01*
X29713Y-14254D01*
X29879Y-14089D01*
X29886Y-14071D01*
X30119Y-14304D01*
X30119Y-15081D01*
X30119Y-15081D01*
G37*
G54D44*
X30119Y-15081D02*
X29980Y-15220D01*
X28820Y-15220D01*
X28604Y-15309D01*
X28439Y-15474D01*
X28350Y-15690D01*
X28350Y-15923D01*
X28350Y-16514D01*
X28424Y-16692D01*
X28350Y-16871D01*
X28350Y-17104D01*
X28350Y-17521D01*
X28274Y-17521D01*
X28145Y-17574D01*
X28145Y-17462D01*
X28145Y-16871D01*
X28071Y-16692D01*
X28145Y-16514D01*
X28145Y-16280D01*
X28145Y-15690D01*
X28056Y-15474D01*
X27891Y-15309D01*
X27675Y-15220D01*
X27442Y-15220D01*
X26261Y-15220D01*
X26108Y-15283D01*
X26208Y-15184D01*
X26314Y-15077D01*
X26373Y-14937D01*
X26431Y-14797D01*
X26431Y-14645D01*
X26431Y-14505D01*
X26524Y-14544D01*
X26736Y-14544D01*
X26933Y-14347D01*
X26933Y-13405D01*
X26090Y-13405D01*
X25894Y-13602D01*
X25894Y-13913D01*
X25894Y-13914D01*
X25821Y-13883D01*
X25518Y-13883D01*
X25518Y-13883D01*
X25334Y-13883D01*
X25082Y-13933D01*
X25082Y-12546D01*
X25093Y-12535D01*
X25182Y-12320D01*
X25182Y-12086D01*
X25182Y-11980D01*
X25263Y-11899D01*
X25344Y-11703D01*
X25344Y-11723D01*
X25433Y-11939D01*
X25599Y-12104D01*
X25814Y-12193D01*
X26048Y-12193D01*
X26231Y-12193D01*
X26013Y-12411D01*
X25894Y-12700D01*
X25894Y-13011D01*
X26090Y-13208D01*
X26933Y-13208D01*
X26933Y-13200D01*
X27094Y-13200D01*
X27094Y-13873D01*
X27129Y-13958D01*
X27129Y-14347D01*
X27326Y-14544D01*
X27538Y-14544D01*
X27827Y-14424D01*
X27908Y-14343D01*
X28498Y-14343D01*
X28531Y-14330D01*
X28564Y-14343D01*
X28798Y-14343D01*
X29498Y-14343D01*
X29713Y-14254D01*
X29879Y-14089D01*
X29886Y-14071D01*
X30119Y-14304D01*
X30119Y-15081D01*
G54D10*
G36*
X31615Y-45334D02*
X31615Y-45409D01*
X31507Y-45516D01*
X31501Y-45511D01*
X31496Y-45516D01*
X31388Y-45409D01*
X31388Y-45334D01*
X31464Y-45258D01*
X31539Y-45258D01*
X31615Y-45334D01*
X31615Y-45334D01*
G37*
G54D44*
X31615Y-45334D02*
X31615Y-45409D01*
X31507Y-45516D01*
X31501Y-45511D01*
X31496Y-45516D01*
X31388Y-45409D01*
X31388Y-45334D01*
X31464Y-45258D01*
X31539Y-45258D01*
X31615Y-45334D01*
G54D10*
G36*
X42082Y-25006D02*
X41852Y-25101D01*
X41637Y-25315D01*
X41556Y-25511D01*
X41556Y-25511D01*
X41476Y-25631D01*
X41467Y-25675D01*
X41423Y-25901D01*
X41423Y-25901D01*
X41423Y-25951D01*
X41342Y-25918D01*
X40999Y-25918D01*
X40682Y-26048D01*
X40670Y-26061D01*
X40658Y-26049D01*
X40342Y-25918D01*
X39999Y-25918D01*
X39682Y-26048D01*
X39670Y-26061D01*
X39658Y-26049D01*
X39342Y-25918D01*
X38999Y-25918D01*
X38682Y-26048D01*
X38664Y-26067D01*
X38652Y-26038D01*
X38431Y-25817D01*
X38141Y-25697D01*
X38005Y-25697D01*
X37808Y-25894D01*
X37808Y-26661D01*
X37816Y-26661D01*
X37816Y-26858D01*
X37808Y-26858D01*
X37808Y-27625D01*
X38005Y-27822D01*
X38141Y-27822D01*
X38401Y-27714D01*
X38401Y-28170D01*
X38214Y-28046D01*
X37923Y-27988D01*
X37490Y-27988D01*
X37325Y-27822D01*
X37414Y-27822D01*
X37611Y-27625D01*
X37611Y-26858D01*
X37603Y-26858D01*
X37603Y-26661D01*
X37611Y-26661D01*
X37611Y-25894D01*
X37533Y-25816D01*
X37533Y-25675D01*
X37417Y-25395D01*
X37203Y-25181D01*
X36923Y-25065D01*
X36620Y-25064D01*
X36340Y-25180D01*
X36126Y-25394D01*
X36009Y-25674D01*
X36009Y-25801D01*
X35989Y-25901D01*
X35990Y-25901D01*
X35990Y-25943D01*
X35882Y-25898D01*
X35539Y-25898D01*
X35222Y-26028D01*
X35210Y-26041D01*
X35198Y-26029D01*
X34882Y-25898D01*
X34539Y-25898D01*
X34222Y-26028D01*
X34210Y-26041D01*
X34198Y-26029D01*
X33882Y-25898D01*
X33539Y-25898D01*
X33222Y-26028D01*
X33210Y-26041D01*
X33198Y-26029D01*
X32882Y-25898D01*
X32539Y-25898D01*
X32222Y-26028D01*
X32110Y-26140D01*
X32110Y-25964D01*
X32052Y-25673D01*
X31887Y-25425D01*
X31887Y-25425D01*
X31815Y-25354D01*
X31877Y-25292D01*
X31984Y-25186D01*
X32026Y-25084D01*
X32071Y-25015D01*
X32071Y-25015D01*
X32087Y-24936D01*
X32087Y-24936D01*
X32100Y-24906D01*
X32100Y-24873D01*
X32100Y-24873D01*
X32129Y-24724D01*
X32129Y-24665D01*
X32071Y-24373D01*
X32071Y-24373D01*
X31906Y-24126D01*
X31542Y-23762D01*
X31295Y-23597D01*
X31003Y-23539D01*
X26948Y-23539D01*
X26843Y-23560D01*
X26851Y-23520D01*
X26793Y-23228D01*
X26628Y-22981D01*
X26208Y-22561D01*
X25961Y-22396D01*
X25670Y-22338D01*
X19881Y-22338D01*
X20561Y-21657D01*
X22759Y-21657D01*
X22818Y-21799D01*
X23032Y-22013D01*
X23312Y-22129D01*
X23615Y-22130D01*
X23894Y-22014D01*
X26062Y-22014D01*
X26062Y-22014D01*
X26310Y-21965D01*
X26520Y-21825D01*
X26613Y-21732D01*
X26613Y-21858D01*
X26613Y-21958D01*
X26613Y-21975D01*
X26613Y-22118D01*
X26613Y-22208D01*
X26613Y-22235D01*
X26613Y-22368D01*
X26613Y-22468D01*
X26613Y-22628D01*
X26702Y-22844D01*
X26867Y-23009D01*
X27083Y-23098D01*
X27317Y-23098D01*
X27817Y-23098D01*
X27965Y-23037D01*
X27997Y-23085D01*
X27999Y-23086D01*
X28000Y-23088D01*
X28104Y-23156D01*
X28207Y-23225D01*
X28209Y-23226D01*
X28211Y-23227D01*
X28333Y-23250D01*
X28454Y-23274D01*
X30246Y-23274D01*
X30362Y-23251D01*
X30480Y-23230D01*
X30486Y-23226D01*
X30493Y-23225D01*
X30592Y-23159D01*
X30663Y-23114D01*
X30777Y-23161D01*
X31080Y-23161D01*
X31360Y-23046D01*
X31458Y-22949D01*
X31565Y-23056D01*
X31845Y-23173D01*
X31998Y-23173D01*
X32148Y-23173D01*
X32429Y-23057D01*
X32460Y-23026D01*
X32676Y-23026D01*
X32834Y-23026D01*
X33025Y-23026D01*
X32874Y-23177D01*
X32874Y-23224D01*
X32994Y-23513D01*
X33075Y-23594D01*
X33075Y-23934D01*
X33164Y-24150D01*
X33329Y-24315D01*
X33545Y-24404D01*
X33778Y-24404D01*
X34328Y-24404D01*
X34461Y-24349D01*
X34664Y-24349D01*
X34664Y-24349D01*
X34664Y-24349D01*
X34889Y-24304D01*
X34934Y-24295D01*
X34934Y-24295D01*
X34977Y-24267D01*
X34990Y-24279D01*
X34990Y-24279D01*
X35219Y-24433D01*
X35490Y-24486D01*
X35490Y-24486D01*
X35490Y-24486D01*
X37197Y-24486D01*
X37510Y-24799D01*
X37510Y-24799D01*
X37739Y-24953D01*
X38010Y-25006D01*
X42082Y-25006D01*
X42082Y-25006D01*
G37*
G54D44*
X42082Y-25006D02*
X41852Y-25101D01*
X41637Y-25315D01*
X41556Y-25511D01*
X41556Y-25511D01*
X41476Y-25631D01*
X41467Y-25675D01*
X41423Y-25901D01*
X41423Y-25901D01*
X41423Y-25951D01*
X41342Y-25918D01*
X40999Y-25918D01*
X40682Y-26048D01*
X40670Y-26061D01*
X40658Y-26049D01*
X40342Y-25918D01*
X39999Y-25918D01*
X39682Y-26048D01*
X39670Y-26061D01*
X39658Y-26049D01*
X39342Y-25918D01*
X38999Y-25918D01*
X38682Y-26048D01*
X38664Y-26067D01*
X38652Y-26038D01*
X38431Y-25817D01*
X38141Y-25697D01*
X38005Y-25697D01*
X37808Y-25894D01*
X37808Y-26661D01*
X37816Y-26661D01*
X37816Y-26858D01*
X37808Y-26858D01*
X37808Y-27625D01*
X38005Y-27822D01*
X38141Y-27822D01*
X38401Y-27714D01*
X38401Y-28170D01*
X38214Y-28046D01*
X37923Y-27988D01*
X37490Y-27988D01*
X37325Y-27822D01*
X37414Y-27822D01*
X37611Y-27625D01*
X37611Y-26858D01*
X37603Y-26858D01*
X37603Y-26661D01*
X37611Y-26661D01*
X37611Y-25894D01*
X37533Y-25816D01*
X37533Y-25675D01*
X37417Y-25395D01*
X37203Y-25181D01*
X36923Y-25065D01*
X36620Y-25064D01*
X36340Y-25180D01*
X36126Y-25394D01*
X36009Y-25674D01*
X36009Y-25801D01*
X35989Y-25901D01*
X35990Y-25901D01*
X35990Y-25943D01*
X35882Y-25898D01*
X35539Y-25898D01*
X35222Y-26028D01*
X35210Y-26041D01*
X35198Y-26029D01*
X34882Y-25898D01*
X34539Y-25898D01*
X34222Y-26028D01*
X34210Y-26041D01*
X34198Y-26029D01*
X33882Y-25898D01*
X33539Y-25898D01*
X33222Y-26028D01*
X33210Y-26041D01*
X33198Y-26029D01*
X32882Y-25898D01*
X32539Y-25898D01*
X32222Y-26028D01*
X32110Y-26140D01*
X32110Y-25964D01*
X32052Y-25673D01*
X31887Y-25425D01*
X31887Y-25425D01*
X31815Y-25354D01*
X31877Y-25292D01*
X31984Y-25186D01*
X32026Y-25084D01*
X32071Y-25015D01*
X32071Y-25015D01*
X32087Y-24936D01*
X32087Y-24936D01*
X32100Y-24906D01*
X32100Y-24873D01*
X32100Y-24873D01*
X32129Y-24724D01*
X32129Y-24665D01*
X32071Y-24373D01*
X32071Y-24373D01*
X31906Y-24126D01*
X31542Y-23762D01*
X31295Y-23597D01*
X31003Y-23539D01*
X26948Y-23539D01*
X26843Y-23560D01*
X26851Y-23520D01*
X26793Y-23228D01*
X26628Y-22981D01*
X26208Y-22561D01*
X25961Y-22396D01*
X25670Y-22338D01*
X19881Y-22338D01*
X20561Y-21657D01*
X22759Y-21657D01*
X22818Y-21799D01*
X23032Y-22013D01*
X23312Y-22129D01*
X23615Y-22130D01*
X23894Y-22014D01*
X26062Y-22014D01*
X26062Y-22014D01*
X26310Y-21965D01*
X26520Y-21825D01*
X26613Y-21732D01*
X26613Y-21858D01*
X26613Y-21958D01*
X26613Y-21975D01*
X26613Y-22118D01*
X26613Y-22208D01*
X26613Y-22235D01*
X26613Y-22368D01*
X26613Y-22468D01*
X26613Y-22628D01*
X26702Y-22844D01*
X26867Y-23009D01*
X27083Y-23098D01*
X27317Y-23098D01*
X27817Y-23098D01*
X27965Y-23037D01*
X27997Y-23085D01*
X27999Y-23086D01*
X28000Y-23088D01*
X28104Y-23156D01*
X28207Y-23225D01*
X28209Y-23226D01*
X28211Y-23227D01*
X28333Y-23250D01*
X28454Y-23274D01*
X30246Y-23274D01*
X30362Y-23251D01*
X30480Y-23230D01*
X30486Y-23226D01*
X30493Y-23225D01*
X30592Y-23159D01*
X30663Y-23114D01*
X30777Y-23161D01*
X31080Y-23161D01*
X31360Y-23046D01*
X31458Y-22949D01*
X31565Y-23056D01*
X31845Y-23173D01*
X31998Y-23173D01*
X32148Y-23173D01*
X32429Y-23057D01*
X32460Y-23026D01*
X32676Y-23026D01*
X32834Y-23026D01*
X33025Y-23026D01*
X32874Y-23177D01*
X32874Y-23224D01*
X32994Y-23513D01*
X33075Y-23594D01*
X33075Y-23934D01*
X33164Y-24150D01*
X33329Y-24315D01*
X33545Y-24404D01*
X33778Y-24404D01*
X34328Y-24404D01*
X34461Y-24349D01*
X34664Y-24349D01*
X34664Y-24349D01*
X34664Y-24349D01*
X34889Y-24304D01*
X34934Y-24295D01*
X34934Y-24295D01*
X34977Y-24267D01*
X34990Y-24279D01*
X34990Y-24279D01*
X35219Y-24433D01*
X35490Y-24486D01*
X35490Y-24486D01*
X35490Y-24486D01*
X37197Y-24486D01*
X37510Y-24799D01*
X37510Y-24799D01*
X37739Y-24953D01*
X38010Y-25006D01*
X42082Y-25006D01*
G54D10*
G36*
X44063Y-28967D02*
X43390Y-29640D01*
X43236Y-29869D01*
X43228Y-29914D01*
X43183Y-30140D01*
X43183Y-30140D01*
X43183Y-31807D01*
X41537Y-33453D01*
X40330Y-33453D01*
X40330Y-33453D01*
X40104Y-33498D01*
X40059Y-33506D01*
X39830Y-33660D01*
X39830Y-33660D01*
X38700Y-34790D01*
X38546Y-35019D01*
X38538Y-35064D01*
X38493Y-35290D01*
X38493Y-35290D01*
X38493Y-35797D01*
X37577Y-36713D01*
X35770Y-36713D01*
X35499Y-36766D01*
X35481Y-36778D01*
X35481Y-35145D01*
X35875Y-34751D01*
X37559Y-34751D01*
X37727Y-34821D01*
X38030Y-34821D01*
X38310Y-34706D01*
X38418Y-34598D01*
X38525Y-34492D01*
X38641Y-34212D01*
X38641Y-33909D01*
X38526Y-33629D01*
X38312Y-33414D01*
X38263Y-33394D01*
X38263Y-33394D01*
X38101Y-33286D01*
X37810Y-33228D01*
X35560Y-33228D01*
X35268Y-33286D01*
X35021Y-33451D01*
X34181Y-34291D01*
X34016Y-34538D01*
X33958Y-34830D01*
X33958Y-36548D01*
X29820Y-36548D01*
X29528Y-36606D01*
X29281Y-36771D01*
X28957Y-37095D01*
X28919Y-37095D01*
X28922Y-37058D01*
X28941Y-36955D01*
X28906Y-31236D01*
X29016Y-31236D01*
X29616Y-31236D01*
X29700Y-31202D01*
X29783Y-31236D01*
X30016Y-31236D01*
X30616Y-31236D01*
X30700Y-31202D01*
X30783Y-31236D01*
X31016Y-31236D01*
X31616Y-31236D01*
X31687Y-31207D01*
X31783Y-31246D01*
X32016Y-31246D01*
X32616Y-31246D01*
X32712Y-31207D01*
X32783Y-31236D01*
X33016Y-31236D01*
X33616Y-31236D01*
X33712Y-31197D01*
X33783Y-31226D01*
X34016Y-31226D01*
X34204Y-31226D01*
X34242Y-31234D01*
X34279Y-31226D01*
X34616Y-31226D01*
X34687Y-31197D01*
X34783Y-31236D01*
X35016Y-31236D01*
X35616Y-31236D01*
X35700Y-31202D01*
X35783Y-31236D01*
X36016Y-31236D01*
X36616Y-31236D01*
X36695Y-31204D01*
X36773Y-31236D01*
X37006Y-31236D01*
X37606Y-31236D01*
X37690Y-31202D01*
X37773Y-31236D01*
X38006Y-31236D01*
X38606Y-31236D01*
X38690Y-31202D01*
X38773Y-31236D01*
X39006Y-31236D01*
X39606Y-31236D01*
X39690Y-31202D01*
X39773Y-31236D01*
X40006Y-31236D01*
X40606Y-31236D01*
X40695Y-31200D01*
X40783Y-31236D01*
X41016Y-31236D01*
X41616Y-31236D01*
X41832Y-31147D01*
X41997Y-30982D01*
X42086Y-30766D01*
X42086Y-30533D01*
X42086Y-29933D01*
X41997Y-29717D01*
X41893Y-29613D01*
X41893Y-27598D01*
X41997Y-27641D01*
X42340Y-27641D01*
X42360Y-27633D01*
X42448Y-27722D01*
X42738Y-27842D01*
X42874Y-27842D01*
X43071Y-27645D01*
X43071Y-26878D01*
X43063Y-26878D01*
X43063Y-26681D01*
X43071Y-26681D01*
X43071Y-25914D01*
X43045Y-25888D01*
X43045Y-25597D01*
X42929Y-25317D01*
X42715Y-25102D01*
X42485Y-25006D01*
X43447Y-25006D01*
X44063Y-25622D01*
X44063Y-26009D01*
X43891Y-25837D01*
X43601Y-25717D01*
X43465Y-25717D01*
X43268Y-25914D01*
X43268Y-26681D01*
X43276Y-26681D01*
X43276Y-26878D01*
X43268Y-26878D01*
X43268Y-27645D01*
X43465Y-27842D01*
X43601Y-27842D01*
X43891Y-27722D01*
X44063Y-27550D01*
X44063Y-28967D01*
X44063Y-28967D01*
G37*
G54D44*
X44063Y-28967D02*
X43390Y-29640D01*
X43236Y-29869D01*
X43228Y-29914D01*
X43183Y-30140D01*
X43183Y-30140D01*
X43183Y-31807D01*
X41537Y-33453D01*
X40330Y-33453D01*
X40330Y-33453D01*
X40104Y-33498D01*
X40059Y-33506D01*
X39830Y-33660D01*
X39830Y-33660D01*
X38700Y-34790D01*
X38546Y-35019D01*
X38538Y-35064D01*
X38493Y-35290D01*
X38493Y-35290D01*
X38493Y-35797D01*
X37577Y-36713D01*
X35770Y-36713D01*
X35499Y-36766D01*
X35481Y-36778D01*
X35481Y-35145D01*
X35875Y-34751D01*
X37559Y-34751D01*
X37727Y-34821D01*
X38030Y-34821D01*
X38310Y-34706D01*
X38418Y-34598D01*
X38525Y-34492D01*
X38641Y-34212D01*
X38641Y-33909D01*
X38526Y-33629D01*
X38312Y-33414D01*
X38263Y-33394D01*
X38263Y-33394D01*
X38101Y-33286D01*
X37810Y-33228D01*
X35560Y-33228D01*
X35268Y-33286D01*
X35021Y-33451D01*
X34181Y-34291D01*
X34016Y-34538D01*
X33958Y-34830D01*
X33958Y-36548D01*
X29820Y-36548D01*
X29528Y-36606D01*
X29281Y-36771D01*
X28957Y-37095D01*
X28919Y-37095D01*
X28922Y-37058D01*
X28941Y-36955D01*
X28906Y-31236D01*
X29016Y-31236D01*
X29616Y-31236D01*
X29700Y-31202D01*
X29783Y-31236D01*
X30016Y-31236D01*
X30616Y-31236D01*
X30700Y-31202D01*
X30783Y-31236D01*
X31016Y-31236D01*
X31616Y-31236D01*
X31687Y-31207D01*
X31783Y-31246D01*
X32016Y-31246D01*
X32616Y-31246D01*
X32712Y-31207D01*
X32783Y-31236D01*
X33016Y-31236D01*
X33616Y-31236D01*
X33712Y-31197D01*
X33783Y-31226D01*
X34016Y-31226D01*
X34204Y-31226D01*
X34242Y-31234D01*
X34279Y-31226D01*
X34616Y-31226D01*
X34687Y-31197D01*
X34783Y-31236D01*
X35016Y-31236D01*
X35616Y-31236D01*
X35700Y-31202D01*
X35783Y-31236D01*
X36016Y-31236D01*
X36616Y-31236D01*
X36695Y-31204D01*
X36773Y-31236D01*
X37006Y-31236D01*
X37606Y-31236D01*
X37690Y-31202D01*
X37773Y-31236D01*
X38006Y-31236D01*
X38606Y-31236D01*
X38690Y-31202D01*
X38773Y-31236D01*
X39006Y-31236D01*
X39606Y-31236D01*
X39690Y-31202D01*
X39773Y-31236D01*
X40006Y-31236D01*
X40606Y-31236D01*
X40695Y-31200D01*
X40783Y-31236D01*
X41016Y-31236D01*
X41616Y-31236D01*
X41832Y-31147D01*
X41997Y-30982D01*
X42086Y-30766D01*
X42086Y-30533D01*
X42086Y-29933D01*
X41997Y-29717D01*
X41893Y-29613D01*
X41893Y-27598D01*
X41997Y-27641D01*
X42340Y-27641D01*
X42360Y-27633D01*
X42448Y-27722D01*
X42738Y-27842D01*
X42874Y-27842D01*
X43071Y-27645D01*
X43071Y-26878D01*
X43063Y-26878D01*
X43063Y-26681D01*
X43071Y-26681D01*
X43071Y-25914D01*
X43045Y-25888D01*
X43045Y-25597D01*
X42929Y-25317D01*
X42715Y-25102D01*
X42485Y-25006D01*
X43447Y-25006D01*
X44063Y-25622D01*
X44063Y-26009D01*
X43891Y-25837D01*
X43601Y-25717D01*
X43465Y-25717D01*
X43268Y-25914D01*
X43268Y-26681D01*
X43276Y-26681D01*
X43276Y-26878D01*
X43268Y-26878D01*
X43268Y-27645D01*
X43465Y-27842D01*
X43601Y-27842D01*
X43891Y-27722D01*
X44063Y-27550D01*
X44063Y-28967D01*
G54D10*
G36*
X47050Y-65148D02*
X47050Y-65148D01*
X47050Y-64072D01*
X47050Y-34647D01*
X43341Y-34647D01*
X43341Y-64072D01*
X47050Y-64072D01*
X47050Y-65148D01*
X46879Y-64976D01*
X46369Y-64764D01*
X45817Y-64764D01*
X45307Y-64975D01*
X44917Y-65364D01*
X44705Y-65874D01*
X44705Y-66426D01*
X44902Y-66903D01*
X42347Y-66903D01*
X42347Y-39936D01*
X42347Y-39775D01*
X42347Y-39184D01*
X42347Y-39023D01*
X42227Y-38733D01*
X42006Y-38512D01*
X41716Y-38392D01*
X41555Y-38392D01*
X41358Y-38589D01*
X41358Y-39381D01*
X42150Y-39381D01*
X42347Y-39184D01*
X42347Y-39775D01*
X42150Y-39578D01*
X41358Y-39578D01*
X41358Y-40370D01*
X41555Y-40567D01*
X41716Y-40567D01*
X42006Y-40447D01*
X42227Y-40226D01*
X42347Y-39936D01*
X42347Y-66903D01*
X30793Y-66903D01*
X30989Y-66771D01*
X31192Y-66467D01*
X31264Y-66109D01*
X31222Y-65899D01*
X31229Y-65891D01*
X31318Y-65676D01*
X31318Y-65442D01*
X31318Y-64142D01*
X31229Y-63927D01*
X31064Y-63761D01*
X30848Y-63672D01*
X30615Y-63672D01*
X30311Y-63672D01*
X30311Y-55509D01*
X30251Y-55208D01*
X30080Y-54953D01*
X29825Y-54782D01*
X29524Y-54722D01*
X29289Y-54722D01*
X28988Y-54782D01*
X28733Y-54953D01*
X28562Y-55208D01*
X28502Y-55509D01*
X28562Y-55810D01*
X28733Y-56065D01*
X28988Y-56236D01*
X29289Y-56296D01*
X29524Y-56296D01*
X29825Y-56236D01*
X30080Y-56065D01*
X30251Y-55810D01*
X30311Y-55509D01*
X30311Y-63672D01*
X29765Y-63672D01*
X29549Y-63761D01*
X29384Y-63927D01*
X29295Y-64142D01*
X29295Y-64376D01*
X29295Y-65640D01*
X29221Y-65750D01*
X29149Y-66109D01*
X29221Y-66467D01*
X29424Y-66771D01*
X29620Y-66903D01*
X26593Y-66903D01*
X26593Y-55426D01*
X26593Y-55192D01*
X26534Y-54890D01*
X26363Y-54635D01*
X26108Y-54465D01*
X25807Y-54405D01*
X25505Y-54465D01*
X25250Y-54635D01*
X25080Y-54890D01*
X25020Y-55192D01*
X25020Y-55426D01*
X25080Y-55727D01*
X25250Y-55983D01*
X25505Y-56153D01*
X25807Y-56213D01*
X26108Y-56153D01*
X26363Y-55983D01*
X26534Y-55727D01*
X26593Y-55426D01*
X26593Y-66903D01*
X23593Y-66903D01*
X23593Y-55426D01*
X23593Y-55192D01*
X23534Y-54890D01*
X23363Y-54635D01*
X23108Y-54465D01*
X22807Y-54405D01*
X22505Y-54465D01*
X22250Y-54635D01*
X22080Y-54890D01*
X22020Y-55192D01*
X22020Y-55426D01*
X22080Y-55727D01*
X22250Y-55983D01*
X22505Y-56153D01*
X22807Y-56213D01*
X23108Y-56153D01*
X23363Y-55983D01*
X23534Y-55727D01*
X23593Y-55426D01*
X23593Y-66903D01*
X20131Y-66903D01*
X20272Y-66692D01*
X20343Y-66333D01*
X20343Y-65685D01*
X20272Y-65326D01*
X20069Y-65022D01*
X19765Y-64819D01*
X19407Y-64748D01*
X19048Y-64819D01*
X18744Y-65022D01*
X18541Y-65326D01*
X18470Y-65685D01*
X18470Y-66333D01*
X18541Y-66692D01*
X18682Y-66903D01*
X8492Y-66903D01*
X8724Y-66672D01*
X8935Y-66162D01*
X8936Y-65611D01*
X8725Y-65101D01*
X8335Y-64710D01*
X7826Y-64499D01*
X7274Y-64498D01*
X6764Y-64709D01*
X6393Y-65079D01*
X6393Y-45241D01*
X9045Y-47893D01*
X8852Y-47854D01*
X8497Y-47925D01*
X8196Y-48126D01*
X7996Y-48427D01*
X7925Y-48781D01*
X7925Y-49348D01*
X7996Y-49702D01*
X8090Y-49844D01*
X8090Y-53285D01*
X7996Y-53427D01*
X7925Y-53781D01*
X7925Y-54348D01*
X7996Y-54702D01*
X8090Y-54844D01*
X8090Y-55461D01*
X8069Y-55470D01*
X7848Y-55691D01*
X7728Y-55981D01*
X7728Y-56342D01*
X7925Y-56539D01*
X8103Y-56539D01*
X8142Y-56736D01*
X7925Y-56736D01*
X7728Y-56933D01*
X7728Y-57294D01*
X7848Y-57583D01*
X8069Y-57805D01*
X8240Y-57876D01*
X8094Y-58021D01*
X7929Y-58420D01*
X7928Y-58853D01*
X8093Y-59252D01*
X8399Y-59558D01*
X8798Y-59724D01*
X9230Y-59724D01*
X9630Y-59559D01*
X9790Y-59399D01*
X13194Y-59399D01*
X13322Y-59452D01*
X13351Y-59452D01*
X13351Y-59761D01*
X13406Y-59894D01*
X13406Y-60105D01*
X13351Y-60238D01*
X13351Y-60471D01*
X13351Y-61021D01*
X13406Y-61154D01*
X13406Y-61286D01*
X13351Y-61419D01*
X13351Y-61652D01*
X13351Y-62202D01*
X13440Y-62418D01*
X13605Y-62583D01*
X13821Y-62672D01*
X14054Y-62672D01*
X14404Y-62672D01*
X14488Y-62638D01*
X14571Y-62672D01*
X14804Y-62672D01*
X15154Y-62672D01*
X15370Y-62583D01*
X15436Y-62517D01*
X16390Y-62517D01*
X16645Y-62772D01*
X16982Y-62912D01*
X17346Y-62913D01*
X17684Y-62773D01*
X17942Y-62516D01*
X18082Y-62179D01*
X18082Y-61814D01*
X17988Y-61587D01*
X18141Y-61583D01*
X18292Y-61165D01*
X18271Y-60721D01*
X18141Y-60408D01*
X17999Y-60405D01*
X18037Y-60367D01*
X17985Y-60314D01*
X18037Y-60262D01*
X17999Y-60224D01*
X18141Y-60221D01*
X18292Y-59803D01*
X18271Y-59359D01*
X18141Y-59046D01*
X17988Y-59042D01*
X18082Y-58817D01*
X18082Y-58452D01*
X17943Y-58115D01*
X17872Y-58044D01*
X17872Y-57955D01*
X17898Y-57929D01*
X17987Y-57713D01*
X17987Y-57480D01*
X17987Y-57130D01*
X17953Y-57047D01*
X17987Y-56963D01*
X17987Y-56730D01*
X17987Y-56510D01*
X18099Y-56488D01*
X18144Y-56479D01*
X18144Y-56479D01*
X18373Y-56326D01*
X18846Y-55854D01*
X18846Y-55854D01*
X18846Y-55854D01*
X18999Y-55624D01*
X19053Y-55354D01*
X19053Y-54626D01*
X19121Y-54967D01*
X19324Y-55271D01*
X19628Y-55474D01*
X19986Y-55546D01*
X20227Y-55546D01*
X20585Y-55474D01*
X20889Y-55271D01*
X21092Y-54967D01*
X21164Y-54609D01*
X21092Y-54250D01*
X20889Y-53946D01*
X20585Y-53743D01*
X20495Y-53725D01*
X20583Y-53593D01*
X20634Y-53517D01*
X20634Y-53517D01*
X20688Y-53247D01*
X20688Y-53247D01*
X20688Y-53247D01*
X20688Y-53044D01*
X20743Y-52911D01*
X20743Y-52863D01*
X20946Y-52947D01*
X21180Y-52947D01*
X21697Y-52947D01*
X21698Y-52952D01*
X21698Y-52952D01*
X21698Y-53024D01*
X21726Y-53091D01*
X21726Y-53091D01*
X21737Y-53145D01*
X21767Y-53191D01*
X21767Y-53191D01*
X21814Y-53305D01*
X21902Y-53392D01*
X21902Y-53393D01*
X21921Y-53412D01*
X21921Y-53412D01*
X22028Y-53519D01*
X22169Y-53577D01*
X22308Y-53635D01*
X22460Y-53635D01*
X22611Y-53635D01*
X22752Y-53577D01*
X22866Y-53530D01*
X22894Y-53558D01*
X23174Y-53675D01*
X23326Y-53675D01*
X23477Y-53675D01*
X23757Y-53559D01*
X23865Y-53452D01*
X23972Y-53345D01*
X23998Y-53282D01*
X24089Y-53145D01*
X24089Y-53145D01*
X24113Y-53026D01*
X24329Y-53026D01*
X24550Y-53026D01*
X24561Y-53052D01*
X24561Y-53052D01*
X24571Y-53106D01*
X24602Y-53151D01*
X24602Y-53151D01*
X24649Y-53265D01*
X24736Y-53353D01*
X24736Y-53353D01*
X24756Y-53373D01*
X24756Y-53373D01*
X24863Y-53480D01*
X25003Y-53538D01*
X25143Y-53596D01*
X25295Y-53596D01*
X25446Y-53596D01*
X25586Y-53538D01*
X25726Y-53480D01*
X25757Y-53449D01*
X25760Y-53451D01*
X25760Y-53452D01*
X25780Y-53471D01*
X25780Y-53471D01*
X25886Y-53578D01*
X26027Y-53636D01*
X26166Y-53694D01*
X26318Y-53694D01*
X26469Y-53695D01*
X26610Y-53636D01*
X26749Y-53579D01*
X26857Y-53471D01*
X26857Y-53471D01*
X26857Y-53471D01*
X26964Y-53365D01*
X27022Y-53224D01*
X27080Y-53085D01*
X27080Y-53026D01*
X27085Y-53026D01*
X27370Y-53026D01*
X27406Y-53204D01*
X27557Y-53431D01*
X27562Y-53442D01*
X27571Y-53451D01*
X27571Y-53452D01*
X27669Y-53550D01*
X27669Y-53550D01*
X27776Y-53657D01*
X28056Y-53773D01*
X28359Y-53773D01*
X28639Y-53658D01*
X28747Y-53550D01*
X28838Y-53459D01*
X29036Y-53657D01*
X29316Y-53773D01*
X29468Y-53773D01*
X29619Y-53773D01*
X29899Y-53658D01*
X30007Y-53550D01*
X30113Y-53443D01*
X30140Y-53380D01*
X30231Y-53244D01*
X30231Y-53244D01*
X30259Y-53105D01*
X30471Y-53105D01*
X31021Y-53105D01*
X31237Y-53016D01*
X31402Y-52850D01*
X31491Y-52635D01*
X31491Y-52401D01*
X31491Y-52051D01*
X31457Y-51968D01*
X31491Y-51885D01*
X31491Y-51651D01*
X31491Y-51301D01*
X31402Y-51086D01*
X31391Y-51075D01*
X31391Y-50996D01*
X31402Y-50970D01*
X31460Y-50831D01*
X31460Y-50528D01*
X31345Y-50248D01*
X31130Y-50033D01*
X30851Y-49917D01*
X30547Y-49917D01*
X30267Y-50032D01*
X30152Y-50148D01*
X30085Y-50081D01*
X30085Y-50081D01*
X30085Y-50081D01*
X29979Y-49974D01*
X29838Y-49916D01*
X29699Y-49858D01*
X29396Y-49858D01*
X29116Y-49973D01*
X28901Y-50187D01*
X28872Y-50259D01*
X28872Y-50070D01*
X28814Y-49778D01*
X28814Y-49778D01*
X28648Y-49531D01*
X28609Y-49491D01*
X30300Y-49491D01*
X30591Y-49433D01*
X30591Y-49433D01*
X30838Y-49268D01*
X31040Y-49066D01*
X31040Y-49066D01*
X31205Y-48819D01*
X31205Y-48819D01*
X31263Y-48528D01*
X31263Y-46441D01*
X31339Y-46468D01*
X31541Y-46458D01*
X31617Y-46641D01*
X31831Y-46856D01*
X32111Y-46972D01*
X32263Y-46972D01*
X32414Y-46972D01*
X32478Y-46946D01*
X31577Y-47846D01*
X31470Y-47953D01*
X31354Y-48233D01*
X31354Y-48536D01*
X31469Y-48816D01*
X31684Y-49031D01*
X31963Y-49147D01*
X32116Y-49147D01*
X32267Y-49147D01*
X32547Y-49032D01*
X32654Y-48924D01*
X32761Y-48817D01*
X32761Y-48817D01*
X35843Y-45735D01*
X36008Y-45488D01*
X36008Y-45488D01*
X36066Y-45196D01*
X36066Y-43455D01*
X36102Y-43419D01*
X37726Y-43419D01*
X38017Y-43361D01*
X38017Y-43361D01*
X38265Y-43196D01*
X38698Y-42763D01*
X38863Y-42515D01*
X38863Y-42515D01*
X38921Y-42224D01*
X38921Y-41854D01*
X39055Y-41854D01*
X39205Y-41854D01*
X39486Y-41738D01*
X39593Y-41631D01*
X39700Y-41524D01*
X39700Y-41524D01*
X39702Y-41522D01*
X39702Y-41522D01*
X39801Y-41374D01*
X39867Y-41275D01*
X39867Y-41275D01*
X39925Y-40984D01*
X39925Y-40366D01*
X40076Y-40366D01*
X40433Y-40366D01*
X40513Y-40447D01*
X40803Y-40567D01*
X40964Y-40567D01*
X41161Y-40370D01*
X41161Y-39578D01*
X41153Y-39578D01*
X41153Y-39381D01*
X41161Y-39381D01*
X41161Y-38589D01*
X40964Y-38392D01*
X40803Y-38392D01*
X40513Y-38512D01*
X40433Y-38593D01*
X39843Y-38593D01*
X39760Y-38627D01*
X39676Y-38593D01*
X39443Y-38593D01*
X38843Y-38593D01*
X38760Y-38627D01*
X38676Y-38593D01*
X38443Y-38593D01*
X37843Y-38593D01*
X37760Y-38627D01*
X37676Y-38593D01*
X37443Y-38593D01*
X37021Y-38593D01*
X37021Y-38461D01*
X36906Y-38181D01*
X36851Y-38126D01*
X37869Y-38126D01*
X37870Y-38126D01*
X37870Y-38126D01*
X38095Y-38081D01*
X38140Y-38073D01*
X38140Y-38073D01*
X38369Y-37919D01*
X39699Y-36589D01*
X39699Y-36589D01*
X39699Y-36589D01*
X39853Y-36360D01*
X39906Y-36090D01*
X39906Y-36090D01*
X39906Y-36089D01*
X39906Y-35582D01*
X40622Y-34866D01*
X41829Y-34866D01*
X41830Y-34866D01*
X41830Y-34866D01*
X42055Y-34821D01*
X42100Y-34813D01*
X42100Y-34813D01*
X42329Y-34659D01*
X44389Y-32599D01*
X44389Y-32599D01*
X44389Y-32599D01*
X44543Y-32370D01*
X44596Y-32100D01*
X44596Y-32100D01*
X44596Y-32099D01*
X44596Y-30432D01*
X45269Y-29759D01*
X45269Y-29759D01*
X45269Y-29759D01*
X45423Y-29530D01*
X45476Y-29260D01*
X45476Y-29260D01*
X45476Y-29259D01*
X45476Y-25330D01*
X45476Y-25330D01*
X45476Y-25330D01*
X45423Y-25059D01*
X45423Y-25059D01*
X45372Y-24983D01*
X45269Y-24830D01*
X45269Y-24830D01*
X45269Y-24830D01*
X44239Y-23800D01*
X44010Y-23646D01*
X43965Y-23638D01*
X43740Y-23593D01*
X43739Y-23593D01*
X43262Y-23593D01*
X43262Y-19846D01*
X43262Y-9621D01*
X40772Y-9621D01*
X40772Y-19846D01*
X43262Y-19846D01*
X43262Y-23593D01*
X38302Y-23593D01*
X37989Y-23280D01*
X37760Y-23126D01*
X37715Y-23118D01*
X37490Y-23073D01*
X37489Y-23073D01*
X36146Y-23073D01*
X36146Y-20810D01*
X36146Y-20810D01*
X36146Y-20810D01*
X36093Y-20539D01*
X36093Y-20539D01*
X36042Y-20463D01*
X35939Y-20310D01*
X35939Y-20310D01*
X35939Y-20310D01*
X35299Y-19670D01*
X35070Y-19516D01*
X35025Y-19508D01*
X34800Y-19463D01*
X34799Y-19463D01*
X34676Y-19463D01*
X34676Y-18790D01*
X34623Y-18519D01*
X34469Y-18290D01*
X34469Y-18290D01*
X34280Y-18100D01*
X34335Y-18123D01*
X34488Y-18124D01*
X34639Y-18124D01*
X34779Y-18066D01*
X34919Y-18008D01*
X35026Y-17900D01*
X35133Y-17794D01*
X35192Y-17653D01*
X35249Y-17514D01*
X35250Y-17362D01*
X35250Y-17211D01*
X35250Y-17211D01*
X35250Y-16940D01*
X35304Y-16886D01*
X35444Y-16549D01*
X35444Y-16184D01*
X35312Y-15865D01*
X35444Y-15549D01*
X35444Y-15184D01*
X35305Y-14847D01*
X35234Y-14776D01*
X35234Y-14727D01*
X35339Y-14622D01*
X35428Y-14406D01*
X35428Y-14173D01*
X35428Y-13823D01*
X35394Y-13740D01*
X35428Y-13656D01*
X35428Y-13423D01*
X35428Y-13073D01*
X35360Y-12908D01*
X35903Y-12908D01*
X36119Y-12819D01*
X36284Y-12654D01*
X36373Y-12438D01*
X36373Y-12204D01*
X36373Y-11854D01*
X36339Y-11771D01*
X36373Y-11688D01*
X36373Y-11454D01*
X36373Y-11104D01*
X36284Y-10889D01*
X36119Y-10724D01*
X35903Y-10634D01*
X35670Y-10634D01*
X35601Y-10634D01*
X35617Y-10617D01*
X35771Y-10388D01*
X35771Y-10388D01*
X35780Y-10343D01*
X35806Y-10210D01*
X35806Y-10210D01*
X35879Y-10034D01*
X35880Y-9731D01*
X35764Y-9450D01*
X35550Y-9236D01*
X35270Y-9120D01*
X34967Y-9119D01*
X34909Y-9143D01*
X34899Y-9120D01*
X34678Y-8899D01*
X34389Y-8779D01*
X33819Y-8779D01*
X33622Y-8976D01*
X33622Y-9783D01*
X33630Y-9783D01*
X33630Y-9980D01*
X33622Y-9980D01*
X33622Y-10787D01*
X33773Y-10938D01*
X33705Y-11104D01*
X33705Y-11338D01*
X33705Y-11573D01*
X33619Y-11365D01*
X33397Y-11144D01*
X33108Y-11024D01*
X33060Y-11024D01*
X32864Y-11221D01*
X32864Y-11988D01*
X32882Y-11988D01*
X32882Y-12049D01*
X32788Y-12049D01*
X32788Y-11694D01*
X32699Y-11479D01*
X32689Y-11469D01*
X32689Y-11221D01*
X32492Y-11024D01*
X32444Y-11024D01*
X32175Y-11136D01*
X32064Y-11025D01*
X32064Y-10783D01*
X32183Y-10783D01*
X32257Y-10752D01*
X32369Y-10864D01*
X32658Y-10984D01*
X33228Y-10984D01*
X33425Y-10787D01*
X33425Y-9980D01*
X33417Y-9980D01*
X33417Y-9783D01*
X33425Y-9783D01*
X33425Y-8976D01*
X33228Y-8779D01*
X32658Y-8779D01*
X32369Y-8899D01*
X32257Y-9010D01*
X32183Y-8980D01*
X31949Y-8980D01*
X30718Y-8980D01*
X30718Y-7990D01*
X30629Y-7774D01*
X30463Y-7609D01*
X30248Y-7520D01*
X30014Y-7520D01*
X25814Y-7520D01*
X25599Y-7609D01*
X25433Y-7774D01*
X25344Y-7990D01*
X25344Y-8223D01*
X25344Y-9589D01*
X25271Y-9515D01*
X25271Y-9175D01*
X25181Y-8960D01*
X25171Y-8949D01*
X25171Y-8582D01*
X25171Y-7700D01*
X25171Y-7637D01*
X25113Y-7346D01*
X25113Y-7346D01*
X24948Y-7099D01*
X24711Y-6862D01*
X24464Y-6697D01*
X24173Y-6639D01*
X23216Y-6639D01*
X23184Y-6607D01*
X22840Y-6464D01*
X22468Y-6464D01*
X22153Y-6594D01*
X21840Y-6464D01*
X21468Y-6464D01*
X21257Y-6551D01*
X21253Y-6408D01*
X20827Y-6255D01*
X20375Y-6275D01*
X20053Y-6408D01*
X20045Y-6654D01*
X20653Y-7262D01*
X20659Y-7256D01*
X20716Y-7314D01*
X20716Y-7488D01*
X20659Y-7546D01*
X20653Y-7540D01*
X20514Y-7679D01*
X20514Y-7401D01*
X19906Y-6793D01*
X19660Y-6802D01*
X19506Y-7227D01*
X19527Y-7679D01*
X19660Y-8001D01*
X19906Y-8009D01*
X20514Y-7401D01*
X20514Y-7679D01*
X20045Y-8148D01*
X20053Y-8394D01*
X20235Y-8459D01*
X20053Y-8534D01*
X20045Y-8780D01*
X20653Y-9388D01*
X20659Y-9382D01*
X20716Y-9440D01*
X20716Y-9614D01*
X20659Y-9672D01*
X20653Y-9666D01*
X20647Y-9672D01*
X20508Y-9533D01*
X20514Y-9527D01*
X19906Y-8919D01*
X19660Y-8928D01*
X19506Y-9353D01*
X19522Y-9692D01*
X19512Y-9688D01*
X19209Y-9688D01*
X19208Y-9688D01*
X18377Y-9688D01*
X18431Y-9417D01*
X18431Y-8822D01*
X18501Y-8792D01*
X18666Y-8627D01*
X18756Y-8412D01*
X18756Y-8178D01*
X18756Y-7178D01*
X18666Y-6962D01*
X18501Y-6797D01*
X18286Y-6708D01*
X18052Y-6708D01*
X17052Y-6708D01*
X16836Y-6797D01*
X16671Y-6962D01*
X16619Y-7088D01*
X16524Y-7078D01*
X16385Y-7218D01*
X16385Y-6939D01*
X16359Y-6678D01*
X15879Y-6499D01*
X15367Y-6517D01*
X14979Y-6678D01*
X14952Y-6939D01*
X15669Y-7656D01*
X16385Y-6939D01*
X16385Y-7218D01*
X15808Y-7795D01*
X16524Y-8511D01*
X16619Y-8501D01*
X16671Y-8627D01*
X16836Y-8792D01*
X16907Y-8822D01*
X16907Y-9101D01*
X16385Y-9623D01*
X16385Y-8650D01*
X15669Y-7934D01*
X14952Y-8650D01*
X14979Y-8912D01*
X15459Y-9091D01*
X15971Y-9072D01*
X16359Y-8912D01*
X16385Y-8650D01*
X16385Y-9623D01*
X16377Y-9631D01*
X15150Y-9631D01*
X15084Y-9470D01*
X14919Y-9305D01*
X14703Y-9216D01*
X14469Y-9216D01*
X13879Y-9216D01*
X13872Y-9219D01*
X13872Y-8882D01*
X13884Y-8882D01*
X14284Y-8717D01*
X14542Y-8459D01*
X14552Y-8485D01*
X14813Y-8511D01*
X15530Y-7795D01*
X14813Y-7078D01*
X14552Y-7105D01*
X14542Y-7131D01*
X14285Y-6874D01*
X13886Y-6708D01*
X13454Y-6708D01*
X13054Y-6873D01*
X12748Y-7178D01*
X12726Y-7232D01*
X12689Y-7256D01*
X12571Y-7374D01*
X12406Y-7621D01*
X12348Y-7913D01*
X12348Y-9439D01*
X12317Y-9470D01*
X12228Y-9686D01*
X12228Y-9919D01*
X12228Y-11100D01*
X12317Y-11316D01*
X12482Y-11481D01*
X12504Y-11490D01*
X12406Y-11637D01*
X12348Y-11929D01*
X12348Y-11998D01*
X12317Y-12029D01*
X12228Y-12245D01*
X12228Y-12478D01*
X12228Y-13660D01*
X12317Y-13875D01*
X12348Y-13906D01*
X12348Y-20082D01*
X12166Y-20082D01*
X11950Y-20171D01*
X11785Y-20336D01*
X11696Y-20552D01*
X11696Y-20785D01*
X11696Y-21730D01*
X11785Y-21946D01*
X11950Y-22111D01*
X12166Y-22201D01*
X12308Y-22201D01*
X12308Y-24393D01*
X12166Y-24393D01*
X11950Y-24482D01*
X11785Y-24647D01*
X11696Y-24863D01*
X11696Y-25096D01*
X11696Y-26041D01*
X11785Y-26257D01*
X11950Y-26422D01*
X12166Y-26512D01*
X12399Y-26512D01*
X13974Y-26512D01*
X14190Y-26422D01*
X14355Y-26257D01*
X14445Y-26041D01*
X14445Y-25808D01*
X14445Y-24863D01*
X14355Y-24647D01*
X14190Y-24482D01*
X13974Y-24393D01*
X13832Y-24393D01*
X13832Y-22201D01*
X13974Y-22201D01*
X14190Y-22111D01*
X14355Y-21946D01*
X14445Y-21730D01*
X14445Y-21497D01*
X14445Y-20552D01*
X14355Y-20336D01*
X14190Y-20171D01*
X13974Y-20082D01*
X13872Y-20082D01*
X13872Y-18690D01*
X14152Y-18806D01*
X14585Y-18807D01*
X14984Y-18641D01*
X15145Y-18481D01*
X15995Y-18481D01*
X16067Y-18511D01*
X16370Y-18511D01*
X16650Y-18396D01*
X16758Y-18288D01*
X16865Y-18182D01*
X16981Y-17902D01*
X16981Y-17599D01*
X16866Y-17319D01*
X16652Y-17104D01*
X16550Y-17062D01*
X16550Y-17062D01*
X16481Y-17016D01*
X16400Y-17000D01*
X16372Y-16988D01*
X16341Y-16988D01*
X16341Y-16988D01*
X16190Y-16958D01*
X15145Y-16958D01*
X14991Y-16804D01*
X15202Y-16717D01*
X15367Y-16552D01*
X15415Y-16437D01*
X15481Y-16423D01*
X15481Y-16423D01*
X15728Y-16258D01*
X16308Y-15678D01*
X16308Y-15678D01*
X16473Y-15431D01*
X16531Y-15140D01*
X16531Y-15140D01*
X16531Y-14589D01*
X17098Y-15155D01*
X17098Y-15770D01*
X17156Y-16061D01*
X17321Y-16308D01*
X17568Y-16473D01*
X17568Y-16473D01*
X17860Y-16531D01*
X17917Y-16520D01*
X17917Y-16652D01*
X18006Y-16867D01*
X18171Y-17032D01*
X18387Y-17122D01*
X18620Y-17122D01*
X19565Y-17122D01*
X19781Y-17032D01*
X19946Y-16867D01*
X20035Y-16652D01*
X20035Y-16509D01*
X22247Y-16509D01*
X22247Y-16652D01*
X22337Y-16867D01*
X22502Y-17032D01*
X22717Y-17122D01*
X22951Y-17122D01*
X23896Y-17122D01*
X24112Y-17032D01*
X24277Y-16867D01*
X24366Y-16652D01*
X24366Y-16418D01*
X24366Y-15152D01*
X24513Y-15054D01*
X24513Y-17825D01*
X24447Y-17664D01*
X24225Y-17442D01*
X23936Y-17322D01*
X23622Y-17322D01*
X23602Y-17322D01*
X23405Y-17519D01*
X23405Y-18799D01*
X24370Y-18799D01*
X24520Y-18648D01*
X24571Y-18905D01*
X24736Y-19152D01*
X24935Y-19351D01*
X24822Y-19464D01*
X24566Y-19464D01*
X24566Y-19193D01*
X24370Y-18996D01*
X23405Y-18996D01*
X23405Y-19004D01*
X23208Y-19004D01*
X23208Y-18996D01*
X23208Y-18799D01*
X23208Y-17519D01*
X23011Y-17322D01*
X22991Y-17322D01*
X22677Y-17322D01*
X22388Y-17442D01*
X22167Y-17664D01*
X22047Y-17953D01*
X22047Y-18602D01*
X22244Y-18799D01*
X23208Y-18799D01*
X23208Y-18996D01*
X22244Y-18996D01*
X22047Y-19193D01*
X22047Y-19464D01*
X20236Y-19464D01*
X20236Y-19193D01*
X20236Y-18602D01*
X20236Y-17953D01*
X20116Y-17664D01*
X19894Y-17442D01*
X19605Y-17322D01*
X19292Y-17322D01*
X19271Y-17322D01*
X19074Y-17519D01*
X19074Y-18799D01*
X20039Y-18799D01*
X20236Y-18602D01*
X20236Y-19193D01*
X20039Y-18996D01*
X19074Y-18996D01*
X19074Y-19004D01*
X18877Y-19004D01*
X18877Y-18996D01*
X18877Y-18799D01*
X18877Y-17519D01*
X18681Y-17322D01*
X18660Y-17322D01*
X18347Y-17322D01*
X18057Y-17442D01*
X17836Y-17664D01*
X17716Y-17953D01*
X17716Y-18602D01*
X17913Y-18799D01*
X18877Y-18799D01*
X18877Y-18996D01*
X17913Y-18996D01*
X17716Y-19193D01*
X17716Y-19841D01*
X17836Y-20131D01*
X18057Y-20352D01*
X18301Y-20453D01*
X17795Y-20959D01*
X17711Y-21043D01*
X17598Y-21043D01*
X17795Y-20846D01*
X17795Y-20825D01*
X17795Y-20512D01*
X17675Y-20223D01*
X17454Y-20001D01*
X17164Y-19881D01*
X16515Y-19881D01*
X16319Y-20078D01*
X16319Y-21043D01*
X16326Y-21043D01*
X16326Y-21240D01*
X16319Y-21240D01*
X16319Y-22204D01*
X16515Y-22401D01*
X16984Y-22401D01*
X16984Y-24192D01*
X16515Y-24192D01*
X16319Y-24389D01*
X16319Y-25354D01*
X16326Y-25354D01*
X16326Y-25551D01*
X16319Y-25551D01*
X16319Y-26515D01*
X16515Y-26712D01*
X17164Y-26712D01*
X17454Y-26592D01*
X17675Y-26371D01*
X17795Y-26081D01*
X17795Y-25860D01*
X17896Y-25860D01*
X18037Y-25802D01*
X18040Y-25801D01*
X18059Y-25809D01*
X18059Y-25809D01*
X18155Y-25873D01*
X18446Y-25931D01*
X22503Y-25931D01*
X22560Y-25931D01*
X22700Y-26070D01*
X23492Y-26070D01*
X23492Y-26062D01*
X23688Y-26062D01*
X23688Y-26070D01*
X23696Y-26070D01*
X23696Y-26267D01*
X23688Y-26267D01*
X23688Y-27059D01*
X23885Y-27256D01*
X24047Y-27256D01*
X24121Y-27226D01*
X26075Y-29180D01*
X26223Y-29279D01*
X26322Y-29345D01*
X26322Y-29345D01*
X26614Y-29403D01*
X28060Y-29403D01*
X28129Y-29473D01*
X27783Y-29473D01*
X27712Y-29502D01*
X27616Y-29463D01*
X27383Y-29463D01*
X26783Y-29463D01*
X26700Y-29497D01*
X26616Y-29463D01*
X26383Y-29463D01*
X25783Y-29463D01*
X25700Y-29497D01*
X25616Y-29463D01*
X25383Y-29463D01*
X24931Y-29463D01*
X24931Y-29269D01*
X24816Y-28989D01*
X24602Y-28774D01*
X24322Y-28658D01*
X24019Y-28658D01*
X23747Y-28770D01*
X23712Y-28727D01*
X23648Y-28631D01*
X23620Y-28612D01*
X23598Y-28585D01*
X23492Y-28496D01*
X23492Y-27059D01*
X23492Y-26267D01*
X22700Y-26267D01*
X22503Y-26464D01*
X22503Y-26625D01*
X22623Y-26915D01*
X22844Y-27136D01*
X23133Y-27256D01*
X23295Y-27256D01*
X23492Y-27059D01*
X23492Y-28496D01*
X22868Y-27975D01*
X22768Y-27920D01*
X22673Y-27857D01*
X22638Y-27850D01*
X22607Y-27832D01*
X22494Y-27820D01*
X22382Y-27798D01*
X20730Y-27792D01*
X20165Y-27227D01*
X20058Y-27120D01*
X19778Y-27004D01*
X19475Y-27003D01*
X19194Y-27119D01*
X19098Y-27215D01*
X19098Y-27126D01*
X19098Y-27125D01*
X19098Y-26975D01*
X18982Y-26694D01*
X18768Y-26480D01*
X18488Y-26364D01*
X18185Y-26364D01*
X17905Y-26479D01*
X17691Y-26693D01*
X17574Y-26973D01*
X17574Y-27276D01*
X17574Y-27277D01*
X17574Y-27662D01*
X17477Y-27622D01*
X17244Y-27622D01*
X17137Y-27622D01*
X17057Y-27541D01*
X16767Y-27421D01*
X16720Y-27421D01*
X16523Y-27618D01*
X16523Y-27866D01*
X16513Y-27876D01*
X16424Y-28092D01*
X16424Y-28325D01*
X16424Y-28484D01*
X16424Y-28590D01*
X16348Y-28590D01*
X16348Y-28582D01*
X16348Y-28385D01*
X16348Y-27618D01*
X16151Y-27421D01*
X16122Y-27421D01*
X16122Y-26515D01*
X16122Y-25551D01*
X16122Y-25354D01*
X16122Y-24389D01*
X16122Y-22204D01*
X16122Y-21240D01*
X16122Y-21043D01*
X16122Y-20078D01*
X15925Y-19881D01*
X15276Y-19881D01*
X14987Y-20001D01*
X14765Y-20223D01*
X14645Y-20512D01*
X14645Y-20825D01*
X14645Y-20846D01*
X14842Y-21043D01*
X16122Y-21043D01*
X16122Y-21240D01*
X14842Y-21240D01*
X14645Y-21437D01*
X14645Y-21457D01*
X14645Y-21770D01*
X14765Y-22060D01*
X14987Y-22281D01*
X15276Y-22401D01*
X15925Y-22401D01*
X16122Y-22204D01*
X16122Y-24389D01*
X15925Y-24192D01*
X15276Y-24192D01*
X14987Y-24312D01*
X14765Y-24534D01*
X14645Y-24823D01*
X14645Y-25136D01*
X14645Y-25157D01*
X14842Y-25354D01*
X16122Y-25354D01*
X16122Y-25551D01*
X14842Y-25551D01*
X14645Y-25748D01*
X14645Y-25768D01*
X14645Y-26081D01*
X14765Y-26371D01*
X14987Y-26592D01*
X15276Y-26712D01*
X15925Y-26712D01*
X16122Y-26515D01*
X16122Y-27421D01*
X16104Y-27421D01*
X15814Y-27541D01*
X15593Y-27763D01*
X15473Y-28052D01*
X15473Y-28188D01*
X15670Y-28385D01*
X16348Y-28385D01*
X16348Y-28582D01*
X15670Y-28582D01*
X15473Y-28779D01*
X15473Y-28915D01*
X15532Y-29058D01*
X15406Y-29248D01*
X15399Y-29282D01*
X15375Y-29402D01*
X15298Y-29479D01*
X15298Y-30271D01*
X15306Y-30271D01*
X15306Y-30398D01*
X15101Y-30398D01*
X15101Y-30271D01*
X15101Y-29479D01*
X14904Y-29282D01*
X14743Y-29282D01*
X14453Y-29402D01*
X14232Y-29623D01*
X14112Y-29913D01*
X14112Y-30074D01*
X14309Y-30271D01*
X15101Y-30271D01*
X15101Y-30398D01*
X11810Y-30398D01*
X11518Y-30456D01*
X11419Y-30522D01*
X11271Y-30621D01*
X6393Y-35498D01*
X6393Y-8197D01*
X6457Y-8261D01*
X6967Y-8473D01*
X7518Y-8473D01*
X8028Y-8263D01*
X8419Y-7873D01*
X8630Y-7363D01*
X8631Y-6811D01*
X8420Y-6302D01*
X8256Y-6138D01*
X44813Y-6138D01*
X44671Y-6280D01*
X44459Y-6789D01*
X44459Y-7341D01*
X44670Y-7851D01*
X45059Y-8241D01*
X45569Y-8453D01*
X46121Y-8454D01*
X46631Y-8243D01*
X47021Y-7853D01*
X47050Y-7782D01*
X47050Y-65148D01*
X47050Y-65148D01*
G37*
G54D44*
X47050Y-65148D02*
X47050Y-65148D01*
X47050Y-64072D01*
X47050Y-34647D01*
X43341Y-34647D01*
X43341Y-64072D01*
X47050Y-64072D01*
X47050Y-65148D01*
X46879Y-64976D01*
X46369Y-64764D01*
X45817Y-64764D01*
X45307Y-64975D01*
X44917Y-65364D01*
X44705Y-65874D01*
X44705Y-66426D01*
X44902Y-66903D01*
X42347Y-66903D01*
X42347Y-39936D01*
X42347Y-39775D01*
X42347Y-39184D01*
X42347Y-39023D01*
X42227Y-38733D01*
X42006Y-38512D01*
X41716Y-38392D01*
X41555Y-38392D01*
X41358Y-38589D01*
X41358Y-39381D01*
X42150Y-39381D01*
X42347Y-39184D01*
X42347Y-39775D01*
X42150Y-39578D01*
X41358Y-39578D01*
X41358Y-40370D01*
X41555Y-40567D01*
X41716Y-40567D01*
X42006Y-40447D01*
X42227Y-40226D01*
X42347Y-39936D01*
X42347Y-66903D01*
X30793Y-66903D01*
X30989Y-66771D01*
X31192Y-66467D01*
X31264Y-66109D01*
X31222Y-65899D01*
X31229Y-65891D01*
X31318Y-65676D01*
X31318Y-65442D01*
X31318Y-64142D01*
X31229Y-63927D01*
X31064Y-63761D01*
X30848Y-63672D01*
X30615Y-63672D01*
X30311Y-63672D01*
X30311Y-55509D01*
X30251Y-55208D01*
X30080Y-54953D01*
X29825Y-54782D01*
X29524Y-54722D01*
X29289Y-54722D01*
X28988Y-54782D01*
X28733Y-54953D01*
X28562Y-55208D01*
X28502Y-55509D01*
X28562Y-55810D01*
X28733Y-56065D01*
X28988Y-56236D01*
X29289Y-56296D01*
X29524Y-56296D01*
X29825Y-56236D01*
X30080Y-56065D01*
X30251Y-55810D01*
X30311Y-55509D01*
X30311Y-63672D01*
X29765Y-63672D01*
X29549Y-63761D01*
X29384Y-63927D01*
X29295Y-64142D01*
X29295Y-64376D01*
X29295Y-65640D01*
X29221Y-65750D01*
X29149Y-66109D01*
X29221Y-66467D01*
X29424Y-66771D01*
X29620Y-66903D01*
X26593Y-66903D01*
X26593Y-55426D01*
X26593Y-55192D01*
X26534Y-54890D01*
X26363Y-54635D01*
X26108Y-54465D01*
X25807Y-54405D01*
X25505Y-54465D01*
X25250Y-54635D01*
X25080Y-54890D01*
X25020Y-55192D01*
X25020Y-55426D01*
X25080Y-55727D01*
X25250Y-55983D01*
X25505Y-56153D01*
X25807Y-56213D01*
X26108Y-56153D01*
X26363Y-55983D01*
X26534Y-55727D01*
X26593Y-55426D01*
X26593Y-66903D01*
X23593Y-66903D01*
X23593Y-55426D01*
X23593Y-55192D01*
X23534Y-54890D01*
X23363Y-54635D01*
X23108Y-54465D01*
X22807Y-54405D01*
X22505Y-54465D01*
X22250Y-54635D01*
X22080Y-54890D01*
X22020Y-55192D01*
X22020Y-55426D01*
X22080Y-55727D01*
X22250Y-55983D01*
X22505Y-56153D01*
X22807Y-56213D01*
X23108Y-56153D01*
X23363Y-55983D01*
X23534Y-55727D01*
X23593Y-55426D01*
X23593Y-66903D01*
X20131Y-66903D01*
X20272Y-66692D01*
X20343Y-66333D01*
X20343Y-65685D01*
X20272Y-65326D01*
X20069Y-65022D01*
X19765Y-64819D01*
X19407Y-64748D01*
X19048Y-64819D01*
X18744Y-65022D01*
X18541Y-65326D01*
X18470Y-65685D01*
X18470Y-66333D01*
X18541Y-66692D01*
X18682Y-66903D01*
X8492Y-66903D01*
X8724Y-66672D01*
X8935Y-66162D01*
X8936Y-65611D01*
X8725Y-65101D01*
X8335Y-64710D01*
X7826Y-64499D01*
X7274Y-64498D01*
X6764Y-64709D01*
X6393Y-65079D01*
X6393Y-45241D01*
X9045Y-47893D01*
X8852Y-47854D01*
X8497Y-47925D01*
X8196Y-48126D01*
X7996Y-48427D01*
X7925Y-48781D01*
X7925Y-49348D01*
X7996Y-49702D01*
X8090Y-49844D01*
X8090Y-53285D01*
X7996Y-53427D01*
X7925Y-53781D01*
X7925Y-54348D01*
X7996Y-54702D01*
X8090Y-54844D01*
X8090Y-55461D01*
X8069Y-55470D01*
X7848Y-55691D01*
X7728Y-55981D01*
X7728Y-56342D01*
X7925Y-56539D01*
X8103Y-56539D01*
X8142Y-56736D01*
X7925Y-56736D01*
X7728Y-56933D01*
X7728Y-57294D01*
X7848Y-57583D01*
X8069Y-57805D01*
X8240Y-57876D01*
X8094Y-58021D01*
X7929Y-58420D01*
X7928Y-58853D01*
X8093Y-59252D01*
X8399Y-59558D01*
X8798Y-59724D01*
X9230Y-59724D01*
X9630Y-59559D01*
X9790Y-59399D01*
X13194Y-59399D01*
X13322Y-59452D01*
X13351Y-59452D01*
X13351Y-59761D01*
X13406Y-59894D01*
X13406Y-60105D01*
X13351Y-60238D01*
X13351Y-60471D01*
X13351Y-61021D01*
X13406Y-61154D01*
X13406Y-61286D01*
X13351Y-61419D01*
X13351Y-61652D01*
X13351Y-62202D01*
X13440Y-62418D01*
X13605Y-62583D01*
X13821Y-62672D01*
X14054Y-62672D01*
X14404Y-62672D01*
X14488Y-62638D01*
X14571Y-62672D01*
X14804Y-62672D01*
X15154Y-62672D01*
X15370Y-62583D01*
X15436Y-62517D01*
X16390Y-62517D01*
X16645Y-62772D01*
X16982Y-62912D01*
X17346Y-62913D01*
X17684Y-62773D01*
X17942Y-62516D01*
X18082Y-62179D01*
X18082Y-61814D01*
X17988Y-61587D01*
X18141Y-61583D01*
X18292Y-61165D01*
X18271Y-60721D01*
X18141Y-60408D01*
X17999Y-60405D01*
X18037Y-60367D01*
X17985Y-60314D01*
X18037Y-60262D01*
X17999Y-60224D01*
X18141Y-60221D01*
X18292Y-59803D01*
X18271Y-59359D01*
X18141Y-59046D01*
X17988Y-59042D01*
X18082Y-58817D01*
X18082Y-58452D01*
X17943Y-58115D01*
X17872Y-58044D01*
X17872Y-57955D01*
X17898Y-57929D01*
X17987Y-57713D01*
X17987Y-57480D01*
X17987Y-57130D01*
X17953Y-57047D01*
X17987Y-56963D01*
X17987Y-56730D01*
X17987Y-56510D01*
X18099Y-56488D01*
X18144Y-56479D01*
X18144Y-56479D01*
X18373Y-56326D01*
X18846Y-55854D01*
X18846Y-55854D01*
X18846Y-55854D01*
X18999Y-55624D01*
X19053Y-55354D01*
X19053Y-54626D01*
X19121Y-54967D01*
X19324Y-55271D01*
X19628Y-55474D01*
X19986Y-55546D01*
X20227Y-55546D01*
X20585Y-55474D01*
X20889Y-55271D01*
X21092Y-54967D01*
X21164Y-54609D01*
X21092Y-54250D01*
X20889Y-53946D01*
X20585Y-53743D01*
X20495Y-53725D01*
X20583Y-53593D01*
X20634Y-53517D01*
X20634Y-53517D01*
X20688Y-53247D01*
X20688Y-53247D01*
X20688Y-53247D01*
X20688Y-53044D01*
X20743Y-52911D01*
X20743Y-52863D01*
X20946Y-52947D01*
X21180Y-52947D01*
X21697Y-52947D01*
X21698Y-52952D01*
X21698Y-52952D01*
X21698Y-53024D01*
X21726Y-53091D01*
X21726Y-53091D01*
X21737Y-53145D01*
X21767Y-53191D01*
X21767Y-53191D01*
X21814Y-53305D01*
X21902Y-53392D01*
X21902Y-53393D01*
X21921Y-53412D01*
X21921Y-53412D01*
X22028Y-53519D01*
X22169Y-53577D01*
X22308Y-53635D01*
X22460Y-53635D01*
X22611Y-53635D01*
X22752Y-53577D01*
X22866Y-53530D01*
X22894Y-53558D01*
X23174Y-53675D01*
X23326Y-53675D01*
X23477Y-53675D01*
X23757Y-53559D01*
X23865Y-53452D01*
X23972Y-53345D01*
X23998Y-53282D01*
X24089Y-53145D01*
X24089Y-53145D01*
X24113Y-53026D01*
X24329Y-53026D01*
X24550Y-53026D01*
X24561Y-53052D01*
X24561Y-53052D01*
X24571Y-53106D01*
X24602Y-53151D01*
X24602Y-53151D01*
X24649Y-53265D01*
X24736Y-53353D01*
X24736Y-53353D01*
X24756Y-53373D01*
X24756Y-53373D01*
X24863Y-53480D01*
X25003Y-53538D01*
X25143Y-53596D01*
X25295Y-53596D01*
X25446Y-53596D01*
X25586Y-53538D01*
X25726Y-53480D01*
X25757Y-53449D01*
X25760Y-53451D01*
X25760Y-53452D01*
X25780Y-53471D01*
X25780Y-53471D01*
X25886Y-53578D01*
X26027Y-53636D01*
X26166Y-53694D01*
X26318Y-53694D01*
X26469Y-53695D01*
X26610Y-53636D01*
X26749Y-53579D01*
X26857Y-53471D01*
X26857Y-53471D01*
X26857Y-53471D01*
X26964Y-53365D01*
X27022Y-53224D01*
X27080Y-53085D01*
X27080Y-53026D01*
X27085Y-53026D01*
X27370Y-53026D01*
X27406Y-53204D01*
X27557Y-53431D01*
X27562Y-53442D01*
X27571Y-53451D01*
X27571Y-53452D01*
X27669Y-53550D01*
X27669Y-53550D01*
X27776Y-53657D01*
X28056Y-53773D01*
X28359Y-53773D01*
X28639Y-53658D01*
X28747Y-53550D01*
X28838Y-53459D01*
X29036Y-53657D01*
X29316Y-53773D01*
X29468Y-53773D01*
X29619Y-53773D01*
X29899Y-53658D01*
X30007Y-53550D01*
X30113Y-53443D01*
X30140Y-53380D01*
X30231Y-53244D01*
X30231Y-53244D01*
X30259Y-53105D01*
X30471Y-53105D01*
X31021Y-53105D01*
X31237Y-53016D01*
X31402Y-52850D01*
X31491Y-52635D01*
X31491Y-52401D01*
X31491Y-52051D01*
X31457Y-51968D01*
X31491Y-51885D01*
X31491Y-51651D01*
X31491Y-51301D01*
X31402Y-51086D01*
X31391Y-51075D01*
X31391Y-50996D01*
X31402Y-50970D01*
X31460Y-50831D01*
X31460Y-50528D01*
X31345Y-50248D01*
X31130Y-50033D01*
X30851Y-49917D01*
X30547Y-49917D01*
X30267Y-50032D01*
X30152Y-50148D01*
X30085Y-50081D01*
X30085Y-50081D01*
X30085Y-50081D01*
X29979Y-49974D01*
X29838Y-49916D01*
X29699Y-49858D01*
X29396Y-49858D01*
X29116Y-49973D01*
X28901Y-50187D01*
X28872Y-50259D01*
X28872Y-50070D01*
X28814Y-49778D01*
X28814Y-49778D01*
X28648Y-49531D01*
X28609Y-49491D01*
X30300Y-49491D01*
X30591Y-49433D01*
X30591Y-49433D01*
X30838Y-49268D01*
X31040Y-49066D01*
X31040Y-49066D01*
X31205Y-48819D01*
X31205Y-48819D01*
X31263Y-48528D01*
X31263Y-46441D01*
X31339Y-46468D01*
X31541Y-46458D01*
X31617Y-46641D01*
X31831Y-46856D01*
X32111Y-46972D01*
X32263Y-46972D01*
X32414Y-46972D01*
X32478Y-46946D01*
X31577Y-47846D01*
X31470Y-47953D01*
X31354Y-48233D01*
X31354Y-48536D01*
X31469Y-48816D01*
X31684Y-49031D01*
X31963Y-49147D01*
X32116Y-49147D01*
X32267Y-49147D01*
X32547Y-49032D01*
X32654Y-48924D01*
X32761Y-48817D01*
X32761Y-48817D01*
X35843Y-45735D01*
X36008Y-45488D01*
X36008Y-45488D01*
X36066Y-45196D01*
X36066Y-43455D01*
X36102Y-43419D01*
X37726Y-43419D01*
X38017Y-43361D01*
X38017Y-43361D01*
X38265Y-43196D01*
X38698Y-42763D01*
X38863Y-42515D01*
X38863Y-42515D01*
X38921Y-42224D01*
X38921Y-41854D01*
X39055Y-41854D01*
X39205Y-41854D01*
X39486Y-41738D01*
X39593Y-41631D01*
X39700Y-41524D01*
X39700Y-41524D01*
X39702Y-41522D01*
X39702Y-41522D01*
X39801Y-41374D01*
X39867Y-41275D01*
X39867Y-41275D01*
X39925Y-40984D01*
X39925Y-40366D01*
X40076Y-40366D01*
X40433Y-40366D01*
X40513Y-40447D01*
X40803Y-40567D01*
X40964Y-40567D01*
X41161Y-40370D01*
X41161Y-39578D01*
X41153Y-39578D01*
X41153Y-39381D01*
X41161Y-39381D01*
X41161Y-38589D01*
X40964Y-38392D01*
X40803Y-38392D01*
X40513Y-38512D01*
X40433Y-38593D01*
X39843Y-38593D01*
X39760Y-38627D01*
X39676Y-38593D01*
X39443Y-38593D01*
X38843Y-38593D01*
X38760Y-38627D01*
X38676Y-38593D01*
X38443Y-38593D01*
X37843Y-38593D01*
X37760Y-38627D01*
X37676Y-38593D01*
X37443Y-38593D01*
X37021Y-38593D01*
X37021Y-38461D01*
X36906Y-38181D01*
X36851Y-38126D01*
X37869Y-38126D01*
X37870Y-38126D01*
X37870Y-38126D01*
X38095Y-38081D01*
X38140Y-38073D01*
X38140Y-38073D01*
X38369Y-37919D01*
X39699Y-36589D01*
X39699Y-36589D01*
X39699Y-36589D01*
X39853Y-36360D01*
X39906Y-36090D01*
X39906Y-36090D01*
X39906Y-36089D01*
X39906Y-35582D01*
X40622Y-34866D01*
X41829Y-34866D01*
X41830Y-34866D01*
X41830Y-34866D01*
X42055Y-34821D01*
X42100Y-34813D01*
X42100Y-34813D01*
X42329Y-34659D01*
X44389Y-32599D01*
X44389Y-32599D01*
X44389Y-32599D01*
X44543Y-32370D01*
X44596Y-32100D01*
X44596Y-32100D01*
X44596Y-32099D01*
X44596Y-30432D01*
X45269Y-29759D01*
X45269Y-29759D01*
X45269Y-29759D01*
X45423Y-29530D01*
X45476Y-29260D01*
X45476Y-29260D01*
X45476Y-29259D01*
X45476Y-25330D01*
X45476Y-25330D01*
X45476Y-25330D01*
X45423Y-25059D01*
X45423Y-25059D01*
X45372Y-24983D01*
X45269Y-24830D01*
X45269Y-24830D01*
X45269Y-24830D01*
X44239Y-23800D01*
X44010Y-23646D01*
X43965Y-23638D01*
X43740Y-23593D01*
X43739Y-23593D01*
X43262Y-23593D01*
X43262Y-19846D01*
X43262Y-9621D01*
X40772Y-9621D01*
X40772Y-19846D01*
X43262Y-19846D01*
X43262Y-23593D01*
X38302Y-23593D01*
X37989Y-23280D01*
X37760Y-23126D01*
X37715Y-23118D01*
X37490Y-23073D01*
X37489Y-23073D01*
X36146Y-23073D01*
X36146Y-20810D01*
X36146Y-20810D01*
X36146Y-20810D01*
X36093Y-20539D01*
X36093Y-20539D01*
X36042Y-20463D01*
X35939Y-20310D01*
X35939Y-20310D01*
X35939Y-20310D01*
X35299Y-19670D01*
X35070Y-19516D01*
X35025Y-19508D01*
X34800Y-19463D01*
X34799Y-19463D01*
X34676Y-19463D01*
X34676Y-18790D01*
X34623Y-18519D01*
X34469Y-18290D01*
X34469Y-18290D01*
X34280Y-18100D01*
X34335Y-18123D01*
X34488Y-18124D01*
X34639Y-18124D01*
X34779Y-18066D01*
X34919Y-18008D01*
X35026Y-17900D01*
X35133Y-17794D01*
X35192Y-17653D01*
X35249Y-17514D01*
X35250Y-17362D01*
X35250Y-17211D01*
X35250Y-17211D01*
X35250Y-16940D01*
X35304Y-16886D01*
X35444Y-16549D01*
X35444Y-16184D01*
X35312Y-15865D01*
X35444Y-15549D01*
X35444Y-15184D01*
X35305Y-14847D01*
X35234Y-14776D01*
X35234Y-14727D01*
X35339Y-14622D01*
X35428Y-14406D01*
X35428Y-14173D01*
X35428Y-13823D01*
X35394Y-13740D01*
X35428Y-13656D01*
X35428Y-13423D01*
X35428Y-13073D01*
X35360Y-12908D01*
X35903Y-12908D01*
X36119Y-12819D01*
X36284Y-12654D01*
X36373Y-12438D01*
X36373Y-12204D01*
X36373Y-11854D01*
X36339Y-11771D01*
X36373Y-11688D01*
X36373Y-11454D01*
X36373Y-11104D01*
X36284Y-10889D01*
X36119Y-10724D01*
X35903Y-10634D01*
X35670Y-10634D01*
X35601Y-10634D01*
X35617Y-10617D01*
X35771Y-10388D01*
X35771Y-10388D01*
X35780Y-10343D01*
X35806Y-10210D01*
X35806Y-10210D01*
X35879Y-10034D01*
X35880Y-9731D01*
X35764Y-9450D01*
X35550Y-9236D01*
X35270Y-9120D01*
X34967Y-9119D01*
X34909Y-9143D01*
X34899Y-9120D01*
X34678Y-8899D01*
X34389Y-8779D01*
X33819Y-8779D01*
X33622Y-8976D01*
X33622Y-9783D01*
X33630Y-9783D01*
X33630Y-9980D01*
X33622Y-9980D01*
X33622Y-10787D01*
X33773Y-10938D01*
X33705Y-11104D01*
X33705Y-11338D01*
X33705Y-11573D01*
X33619Y-11365D01*
X33397Y-11144D01*
X33108Y-11024D01*
X33060Y-11024D01*
X32864Y-11221D01*
X32864Y-11988D01*
X32882Y-11988D01*
X32882Y-12049D01*
X32788Y-12049D01*
X32788Y-11694D01*
X32699Y-11479D01*
X32689Y-11469D01*
X32689Y-11221D01*
X32492Y-11024D01*
X32444Y-11024D01*
X32175Y-11136D01*
X32064Y-11025D01*
X32064Y-10783D01*
X32183Y-10783D01*
X32257Y-10752D01*
X32369Y-10864D01*
X32658Y-10984D01*
X33228Y-10984D01*
X33425Y-10787D01*
X33425Y-9980D01*
X33417Y-9980D01*
X33417Y-9783D01*
X33425Y-9783D01*
X33425Y-8976D01*
X33228Y-8779D01*
X32658Y-8779D01*
X32369Y-8899D01*
X32257Y-9010D01*
X32183Y-8980D01*
X31949Y-8980D01*
X30718Y-8980D01*
X30718Y-7990D01*
X30629Y-7774D01*
X30463Y-7609D01*
X30248Y-7520D01*
X30014Y-7520D01*
X25814Y-7520D01*
X25599Y-7609D01*
X25433Y-7774D01*
X25344Y-7990D01*
X25344Y-8223D01*
X25344Y-9589D01*
X25271Y-9515D01*
X25271Y-9175D01*
X25181Y-8960D01*
X25171Y-8949D01*
X25171Y-8582D01*
X25171Y-7700D01*
X25171Y-7637D01*
X25113Y-7346D01*
X25113Y-7346D01*
X24948Y-7099D01*
X24711Y-6862D01*
X24464Y-6697D01*
X24173Y-6639D01*
X23216Y-6639D01*
X23184Y-6607D01*
X22840Y-6464D01*
X22468Y-6464D01*
X22153Y-6594D01*
X21840Y-6464D01*
X21468Y-6464D01*
X21257Y-6551D01*
X21253Y-6408D01*
X20827Y-6255D01*
X20375Y-6275D01*
X20053Y-6408D01*
X20045Y-6654D01*
X20653Y-7262D01*
X20659Y-7256D01*
X20716Y-7314D01*
X20716Y-7488D01*
X20659Y-7546D01*
X20653Y-7540D01*
X20514Y-7679D01*
X20514Y-7401D01*
X19906Y-6793D01*
X19660Y-6802D01*
X19506Y-7227D01*
X19527Y-7679D01*
X19660Y-8001D01*
X19906Y-8009D01*
X20514Y-7401D01*
X20514Y-7679D01*
X20045Y-8148D01*
X20053Y-8394D01*
X20235Y-8459D01*
X20053Y-8534D01*
X20045Y-8780D01*
X20653Y-9388D01*
X20659Y-9382D01*
X20716Y-9440D01*
X20716Y-9614D01*
X20659Y-9672D01*
X20653Y-9666D01*
X20647Y-9672D01*
X20508Y-9533D01*
X20514Y-9527D01*
X19906Y-8919D01*
X19660Y-8928D01*
X19506Y-9353D01*
X19522Y-9692D01*
X19512Y-9688D01*
X19209Y-9688D01*
X19208Y-9688D01*
X18377Y-9688D01*
X18431Y-9417D01*
X18431Y-8822D01*
X18501Y-8792D01*
X18666Y-8627D01*
X18756Y-8412D01*
X18756Y-8178D01*
X18756Y-7178D01*
X18666Y-6962D01*
X18501Y-6797D01*
X18286Y-6708D01*
X18052Y-6708D01*
X17052Y-6708D01*
X16836Y-6797D01*
X16671Y-6962D01*
X16619Y-7088D01*
X16524Y-7078D01*
X16385Y-7218D01*
X16385Y-6939D01*
X16359Y-6678D01*
X15879Y-6499D01*
X15367Y-6517D01*
X14979Y-6678D01*
X14952Y-6939D01*
X15669Y-7656D01*
X16385Y-6939D01*
X16385Y-7218D01*
X15808Y-7795D01*
X16524Y-8511D01*
X16619Y-8501D01*
X16671Y-8627D01*
X16836Y-8792D01*
X16907Y-8822D01*
X16907Y-9101D01*
X16385Y-9623D01*
X16385Y-8650D01*
X15669Y-7934D01*
X14952Y-8650D01*
X14979Y-8912D01*
X15459Y-9091D01*
X15971Y-9072D01*
X16359Y-8912D01*
X16385Y-8650D01*
X16385Y-9623D01*
X16377Y-9631D01*
X15150Y-9631D01*
X15084Y-9470D01*
X14919Y-9305D01*
X14703Y-9216D01*
X14469Y-9216D01*
X13879Y-9216D01*
X13872Y-9219D01*
X13872Y-8882D01*
X13884Y-8882D01*
X14284Y-8717D01*
X14542Y-8459D01*
X14552Y-8485D01*
X14813Y-8511D01*
X15530Y-7795D01*
X14813Y-7078D01*
X14552Y-7105D01*
X14542Y-7131D01*
X14285Y-6874D01*
X13886Y-6708D01*
X13454Y-6708D01*
X13054Y-6873D01*
X12748Y-7178D01*
X12726Y-7232D01*
X12689Y-7256D01*
X12571Y-7374D01*
X12406Y-7621D01*
X12348Y-7913D01*
X12348Y-9439D01*
X12317Y-9470D01*
X12228Y-9686D01*
X12228Y-9919D01*
X12228Y-11100D01*
X12317Y-11316D01*
X12482Y-11481D01*
X12504Y-11490D01*
X12406Y-11637D01*
X12348Y-11929D01*
X12348Y-11998D01*
X12317Y-12029D01*
X12228Y-12245D01*
X12228Y-12478D01*
X12228Y-13660D01*
X12317Y-13875D01*
X12348Y-13906D01*
X12348Y-20082D01*
X12166Y-20082D01*
X11950Y-20171D01*
X11785Y-20336D01*
X11696Y-20552D01*
X11696Y-20785D01*
X11696Y-21730D01*
X11785Y-21946D01*
X11950Y-22111D01*
X12166Y-22201D01*
X12308Y-22201D01*
X12308Y-24393D01*
X12166Y-24393D01*
X11950Y-24482D01*
X11785Y-24647D01*
X11696Y-24863D01*
X11696Y-25096D01*
X11696Y-26041D01*
X11785Y-26257D01*
X11950Y-26422D01*
X12166Y-26512D01*
X12399Y-26512D01*
X13974Y-26512D01*
X14190Y-26422D01*
X14355Y-26257D01*
X14445Y-26041D01*
X14445Y-25808D01*
X14445Y-24863D01*
X14355Y-24647D01*
X14190Y-24482D01*
X13974Y-24393D01*
X13832Y-24393D01*
X13832Y-22201D01*
X13974Y-22201D01*
X14190Y-22111D01*
X14355Y-21946D01*
X14445Y-21730D01*
X14445Y-21497D01*
X14445Y-20552D01*
X14355Y-20336D01*
X14190Y-20171D01*
X13974Y-20082D01*
X13872Y-20082D01*
X13872Y-18690D01*
X14152Y-18806D01*
X14585Y-18807D01*
X14984Y-18641D01*
X15145Y-18481D01*
X15995Y-18481D01*
X16067Y-18511D01*
X16370Y-18511D01*
X16650Y-18396D01*
X16758Y-18288D01*
X16865Y-18182D01*
X16981Y-17902D01*
X16981Y-17599D01*
X16866Y-17319D01*
X16652Y-17104D01*
X16550Y-17062D01*
X16550Y-17062D01*
X16481Y-17016D01*
X16400Y-17000D01*
X16372Y-16988D01*
X16341Y-16988D01*
X16341Y-16988D01*
X16190Y-16958D01*
X15145Y-16958D01*
X14991Y-16804D01*
X15202Y-16717D01*
X15367Y-16552D01*
X15415Y-16437D01*
X15481Y-16423D01*
X15481Y-16423D01*
X15728Y-16258D01*
X16308Y-15678D01*
X16308Y-15678D01*
X16473Y-15431D01*
X16531Y-15140D01*
X16531Y-15140D01*
X16531Y-14589D01*
X17098Y-15155D01*
X17098Y-15770D01*
X17156Y-16061D01*
X17321Y-16308D01*
X17568Y-16473D01*
X17568Y-16473D01*
X17860Y-16531D01*
X17917Y-16520D01*
X17917Y-16652D01*
X18006Y-16867D01*
X18171Y-17032D01*
X18387Y-17122D01*
X18620Y-17122D01*
X19565Y-17122D01*
X19781Y-17032D01*
X19946Y-16867D01*
X20035Y-16652D01*
X20035Y-16509D01*
X22247Y-16509D01*
X22247Y-16652D01*
X22337Y-16867D01*
X22502Y-17032D01*
X22717Y-17122D01*
X22951Y-17122D01*
X23896Y-17122D01*
X24112Y-17032D01*
X24277Y-16867D01*
X24366Y-16652D01*
X24366Y-16418D01*
X24366Y-15152D01*
X24513Y-15054D01*
X24513Y-17825D01*
X24447Y-17664D01*
X24225Y-17442D01*
X23936Y-17322D01*
X23622Y-17322D01*
X23602Y-17322D01*
X23405Y-17519D01*
X23405Y-18799D01*
X24370Y-18799D01*
X24520Y-18648D01*
X24571Y-18905D01*
X24736Y-19152D01*
X24935Y-19351D01*
X24822Y-19464D01*
X24566Y-19464D01*
X24566Y-19193D01*
X24370Y-18996D01*
X23405Y-18996D01*
X23405Y-19004D01*
X23208Y-19004D01*
X23208Y-18996D01*
X23208Y-18799D01*
X23208Y-17519D01*
X23011Y-17322D01*
X22991Y-17322D01*
X22677Y-17322D01*
X22388Y-17442D01*
X22167Y-17664D01*
X22047Y-17953D01*
X22047Y-18602D01*
X22244Y-18799D01*
X23208Y-18799D01*
X23208Y-18996D01*
X22244Y-18996D01*
X22047Y-19193D01*
X22047Y-19464D01*
X20236Y-19464D01*
X20236Y-19193D01*
X20236Y-18602D01*
X20236Y-17953D01*
X20116Y-17664D01*
X19894Y-17442D01*
X19605Y-17322D01*
X19292Y-17322D01*
X19271Y-17322D01*
X19074Y-17519D01*
X19074Y-18799D01*
X20039Y-18799D01*
X20236Y-18602D01*
X20236Y-19193D01*
X20039Y-18996D01*
X19074Y-18996D01*
X19074Y-19004D01*
X18877Y-19004D01*
X18877Y-18996D01*
X18877Y-18799D01*
X18877Y-17519D01*
X18681Y-17322D01*
X18660Y-17322D01*
X18347Y-17322D01*
X18057Y-17442D01*
X17836Y-17664D01*
X17716Y-17953D01*
X17716Y-18602D01*
X17913Y-18799D01*
X18877Y-18799D01*
X18877Y-18996D01*
X17913Y-18996D01*
X17716Y-19193D01*
X17716Y-19841D01*
X17836Y-20131D01*
X18057Y-20352D01*
X18301Y-20453D01*
X17795Y-20959D01*
X17711Y-21043D01*
X17598Y-21043D01*
X17795Y-20846D01*
X17795Y-20825D01*
X17795Y-20512D01*
X17675Y-20223D01*
X17454Y-20001D01*
X17164Y-19881D01*
X16515Y-19881D01*
X16319Y-20078D01*
X16319Y-21043D01*
X16326Y-21043D01*
X16326Y-21240D01*
X16319Y-21240D01*
X16319Y-22204D01*
X16515Y-22401D01*
X16984Y-22401D01*
X16984Y-24192D01*
X16515Y-24192D01*
X16319Y-24389D01*
X16319Y-25354D01*
X16326Y-25354D01*
X16326Y-25551D01*
X16319Y-25551D01*
X16319Y-26515D01*
X16515Y-26712D01*
X17164Y-26712D01*
X17454Y-26592D01*
X17675Y-26371D01*
X17795Y-26081D01*
X17795Y-25860D01*
X17896Y-25860D01*
X18037Y-25802D01*
X18040Y-25801D01*
X18059Y-25809D01*
X18059Y-25809D01*
X18155Y-25873D01*
X18446Y-25931D01*
X22503Y-25931D01*
X22560Y-25931D01*
X22700Y-26070D01*
X23492Y-26070D01*
X23492Y-26062D01*
X23688Y-26062D01*
X23688Y-26070D01*
X23696Y-26070D01*
X23696Y-26267D01*
X23688Y-26267D01*
X23688Y-27059D01*
X23885Y-27256D01*
X24047Y-27256D01*
X24121Y-27226D01*
X26075Y-29180D01*
X26223Y-29279D01*
X26322Y-29345D01*
X26322Y-29345D01*
X26614Y-29403D01*
X28060Y-29403D01*
X28129Y-29473D01*
X27783Y-29473D01*
X27712Y-29502D01*
X27616Y-29463D01*
X27383Y-29463D01*
X26783Y-29463D01*
X26700Y-29497D01*
X26616Y-29463D01*
X26383Y-29463D01*
X25783Y-29463D01*
X25700Y-29497D01*
X25616Y-29463D01*
X25383Y-29463D01*
X24931Y-29463D01*
X24931Y-29269D01*
X24816Y-28989D01*
X24602Y-28774D01*
X24322Y-28658D01*
X24019Y-28658D01*
X23747Y-28770D01*
X23712Y-28727D01*
X23648Y-28631D01*
X23620Y-28612D01*
X23598Y-28585D01*
X23492Y-28496D01*
X23492Y-27059D01*
X23492Y-26267D01*
X22700Y-26267D01*
X22503Y-26464D01*
X22503Y-26625D01*
X22623Y-26915D01*
X22844Y-27136D01*
X23133Y-27256D01*
X23295Y-27256D01*
X23492Y-27059D01*
X23492Y-28496D01*
X22868Y-27975D01*
X22768Y-27920D01*
X22673Y-27857D01*
X22638Y-27850D01*
X22607Y-27832D01*
X22494Y-27820D01*
X22382Y-27798D01*
X20730Y-27792D01*
X20165Y-27227D01*
X20058Y-27120D01*
X19778Y-27004D01*
X19475Y-27003D01*
X19194Y-27119D01*
X19098Y-27215D01*
X19098Y-27126D01*
X19098Y-27125D01*
X19098Y-26975D01*
X18982Y-26694D01*
X18768Y-26480D01*
X18488Y-26364D01*
X18185Y-26364D01*
X17905Y-26479D01*
X17691Y-26693D01*
X17574Y-26973D01*
X17574Y-27276D01*
X17574Y-27277D01*
X17574Y-27662D01*
X17477Y-27622D01*
X17244Y-27622D01*
X17137Y-27622D01*
X17057Y-27541D01*
X16767Y-27421D01*
X16720Y-27421D01*
X16523Y-27618D01*
X16523Y-27866D01*
X16513Y-27876D01*
X16424Y-28092D01*
X16424Y-28325D01*
X16424Y-28484D01*
X16424Y-28590D01*
X16348Y-28590D01*
X16348Y-28582D01*
X16348Y-28385D01*
X16348Y-27618D01*
X16151Y-27421D01*
X16122Y-27421D01*
X16122Y-26515D01*
X16122Y-25551D01*
X16122Y-25354D01*
X16122Y-24389D01*
X16122Y-22204D01*
X16122Y-21240D01*
X16122Y-21043D01*
X16122Y-20078D01*
X15925Y-19881D01*
X15276Y-19881D01*
X14987Y-20001D01*
X14765Y-20223D01*
X14645Y-20512D01*
X14645Y-20825D01*
X14645Y-20846D01*
X14842Y-21043D01*
X16122Y-21043D01*
X16122Y-21240D01*
X14842Y-21240D01*
X14645Y-21437D01*
X14645Y-21457D01*
X14645Y-21770D01*
X14765Y-22060D01*
X14987Y-22281D01*
X15276Y-22401D01*
X15925Y-22401D01*
X16122Y-22204D01*
X16122Y-24389D01*
X15925Y-24192D01*
X15276Y-24192D01*
X14987Y-24312D01*
X14765Y-24534D01*
X14645Y-24823D01*
X14645Y-25136D01*
X14645Y-25157D01*
X14842Y-25354D01*
X16122Y-25354D01*
X16122Y-25551D01*
X14842Y-25551D01*
X14645Y-25748D01*
X14645Y-25768D01*
X14645Y-26081D01*
X14765Y-26371D01*
X14987Y-26592D01*
X15276Y-26712D01*
X15925Y-26712D01*
X16122Y-26515D01*
X16122Y-27421D01*
X16104Y-27421D01*
X15814Y-27541D01*
X15593Y-27763D01*
X15473Y-28052D01*
X15473Y-28188D01*
X15670Y-28385D01*
X16348Y-28385D01*
X16348Y-28582D01*
X15670Y-28582D01*
X15473Y-28779D01*
X15473Y-28915D01*
X15532Y-29058D01*
X15406Y-29248D01*
X15399Y-29282D01*
X15375Y-29402D01*
X15298Y-29479D01*
X15298Y-30271D01*
X15306Y-30271D01*
X15306Y-30398D01*
X15101Y-30398D01*
X15101Y-30271D01*
X15101Y-29479D01*
X14904Y-29282D01*
X14743Y-29282D01*
X14453Y-29402D01*
X14232Y-29623D01*
X14112Y-29913D01*
X14112Y-30074D01*
X14309Y-30271D01*
X15101Y-30271D01*
X15101Y-30398D01*
X11810Y-30398D01*
X11518Y-30456D01*
X11419Y-30522D01*
X11271Y-30621D01*
X6393Y-35498D01*
X6393Y-8197D01*
X6457Y-8261D01*
X6967Y-8473D01*
X7518Y-8473D01*
X8028Y-8263D01*
X8419Y-7873D01*
X8630Y-7363D01*
X8631Y-6811D01*
X8420Y-6302D01*
X8256Y-6138D01*
X44813Y-6138D01*
X44671Y-6280D01*
X44459Y-6789D01*
X44459Y-7341D01*
X44670Y-7851D01*
X45059Y-8241D01*
X45569Y-8453D01*
X46121Y-8454D01*
X46631Y-8243D01*
X47021Y-7853D01*
X47050Y-7782D01*
X47050Y-65148D01*
M02*
