G04 (created by PCBNEW (2013-mar-13)-testing) date Mon 17 Jun 2013 23:55:39 ART*
%MOIN*%
G04 Gerber Fmt 3.4, Leading zero omitted, Abs format*
%FSLAX34Y34*%
G01*
G70*
G90*
G04 APERTURE LIST*
%ADD10C,0.005906*%
%ADD11C,0.009843*%
%ADD12C,0.011811*%
%ADD13C,0.066000*%
%ADD14R,0.100000X0.100000*%
%ADD15C,0.100000*%
%ADD16O,0.068000X0.120000*%
%ADD17R,0.050000X0.100000*%
%ADD18R,0.030000X0.100000*%
%ADD19O,0.060000X0.040000*%
%ADD20O,0.040000X0.060000*%
%ADD21O,0.090000X0.070000*%
%ADD22O,0.070000X0.130000*%
%ADD23R,0.060000X0.060000*%
%ADD24C,0.060000*%
%ADD25C,0.070000*%
%ADD26C,0.160000*%
%ADD27R,0.055000X0.055000*%
%ADD28C,0.055000*%
%ADD29C,0.035000*%
%ADD30C,0.035000*%
%ADD31C,0.024000*%
%ADD32C,0.012000*%
%ADD33C,0.010000*%
%ADD34C,0.040000*%
G04 APERTURE END LIST*
G54D10*
G54D11*
X12508Y-18907D02*
X12508Y-18607D01*
X12658Y-18213D02*
X12658Y-18438D01*
X12658Y-18326D02*
X12264Y-18326D01*
X12320Y-18363D01*
X12358Y-18401D01*
X12376Y-18438D01*
X12264Y-17857D02*
X12264Y-18044D01*
X12451Y-18063D01*
X12433Y-18044D01*
X12414Y-18007D01*
X12414Y-17913D01*
X12433Y-17876D01*
X12451Y-17857D01*
X12489Y-17838D01*
X12583Y-17838D01*
X12620Y-17857D01*
X12639Y-17876D01*
X12658Y-17913D01*
X12658Y-18007D01*
X12639Y-18044D01*
X12620Y-18063D01*
X12264Y-17726D02*
X12658Y-17595D01*
X12264Y-17463D01*
X12658Y-17332D02*
X12264Y-17332D01*
X12264Y-17238D01*
X12283Y-17182D01*
X12320Y-17145D01*
X12358Y-17126D01*
X12433Y-17107D01*
X12489Y-17107D01*
X12564Y-17126D01*
X12601Y-17145D01*
X12639Y-17182D01*
X12658Y-17238D01*
X12658Y-17332D01*
X12620Y-16713D02*
X12639Y-16732D01*
X12658Y-16788D01*
X12658Y-16826D01*
X12639Y-16882D01*
X12601Y-16920D01*
X12564Y-16938D01*
X12489Y-16957D01*
X12433Y-16957D01*
X12358Y-16938D01*
X12320Y-16920D01*
X12283Y-16882D01*
X12264Y-16826D01*
X12264Y-16788D01*
X12283Y-16732D01*
X12301Y-16713D01*
X12468Y-16357D02*
X12468Y-16057D01*
X12618Y-16207D02*
X12318Y-16207D01*
X12618Y-15663D02*
X12618Y-15888D01*
X12618Y-15776D02*
X12224Y-15776D01*
X12280Y-15813D01*
X12318Y-15851D01*
X12336Y-15888D01*
X12224Y-15307D02*
X12224Y-15494D01*
X12411Y-15513D01*
X12393Y-15494D01*
X12374Y-15457D01*
X12374Y-15363D01*
X12393Y-15326D01*
X12411Y-15307D01*
X12449Y-15288D01*
X12543Y-15288D01*
X12580Y-15307D01*
X12599Y-15326D01*
X12618Y-15363D01*
X12618Y-15457D01*
X12599Y-15494D01*
X12580Y-15513D01*
X12224Y-15176D02*
X12618Y-15045D01*
X12224Y-14913D01*
X12618Y-14782D02*
X12224Y-14782D01*
X12224Y-14688D01*
X12243Y-14632D01*
X12280Y-14595D01*
X12318Y-14576D01*
X12393Y-14557D01*
X12449Y-14557D01*
X12524Y-14576D01*
X12561Y-14595D01*
X12599Y-14632D01*
X12618Y-14688D01*
X12618Y-14782D01*
X12580Y-14163D02*
X12599Y-14182D01*
X12618Y-14238D01*
X12618Y-14276D01*
X12599Y-14332D01*
X12561Y-14370D01*
X12524Y-14388D01*
X12449Y-14407D01*
X12393Y-14407D01*
X12318Y-14388D01*
X12280Y-14370D01*
X12243Y-14332D01*
X12224Y-14276D01*
X12224Y-14238D01*
X12243Y-14182D01*
X12261Y-14163D01*
X16578Y-6012D02*
X16878Y-6012D01*
X17272Y-6162D02*
X17047Y-6162D01*
X17159Y-6162D02*
X17159Y-5768D01*
X17122Y-5824D01*
X17084Y-5862D01*
X17047Y-5881D01*
X17628Y-5768D02*
X17440Y-5768D01*
X17422Y-5956D01*
X17440Y-5937D01*
X17478Y-5918D01*
X17572Y-5918D01*
X17609Y-5937D01*
X17628Y-5956D01*
X17647Y-5993D01*
X17647Y-6087D01*
X17628Y-6124D01*
X17609Y-6143D01*
X17572Y-6162D01*
X17478Y-6162D01*
X17440Y-6143D01*
X17422Y-6124D01*
X17759Y-5768D02*
X17890Y-6162D01*
X18022Y-5768D01*
X18134Y-6049D02*
X18322Y-6049D01*
X18097Y-6162D02*
X18228Y-5768D01*
X18359Y-6162D01*
X18715Y-6124D02*
X18697Y-6143D01*
X18640Y-6162D01*
X18603Y-6162D01*
X18547Y-6143D01*
X18509Y-6106D01*
X18490Y-6068D01*
X18472Y-5993D01*
X18472Y-5937D01*
X18490Y-5862D01*
X18509Y-5824D01*
X18547Y-5787D01*
X18603Y-5768D01*
X18640Y-5768D01*
X18697Y-5787D01*
X18715Y-5806D01*
X33368Y-18293D02*
X33387Y-18312D01*
X33406Y-18368D01*
X33406Y-18406D01*
X33387Y-18462D01*
X33350Y-18500D01*
X33312Y-18518D01*
X33237Y-18537D01*
X33181Y-18537D01*
X33106Y-18518D01*
X33068Y-18500D01*
X33031Y-18462D01*
X33012Y-18406D01*
X33012Y-18368D01*
X33031Y-18312D01*
X33050Y-18293D01*
X33200Y-17994D02*
X33218Y-17937D01*
X33237Y-17919D01*
X33275Y-17900D01*
X33331Y-17900D01*
X33368Y-17919D01*
X33387Y-17937D01*
X33406Y-17975D01*
X33406Y-18125D01*
X33012Y-18125D01*
X33012Y-17994D01*
X33031Y-17956D01*
X33050Y-17937D01*
X33087Y-17919D01*
X33125Y-17919D01*
X33162Y-17937D01*
X33181Y-17956D01*
X33200Y-17994D01*
X33200Y-18125D01*
X33012Y-17731D02*
X33331Y-17731D01*
X33368Y-17712D01*
X33387Y-17694D01*
X33406Y-17656D01*
X33406Y-17581D01*
X33387Y-17544D01*
X33368Y-17525D01*
X33331Y-17506D01*
X33012Y-17506D01*
X33387Y-17337D02*
X33406Y-17281D01*
X33406Y-17187D01*
X33387Y-17150D01*
X33368Y-17131D01*
X33331Y-17112D01*
X33293Y-17112D01*
X33256Y-17131D01*
X33237Y-17150D01*
X33218Y-17187D01*
X33200Y-17262D01*
X33181Y-17300D01*
X33162Y-17319D01*
X33125Y-17337D01*
X33087Y-17337D01*
X33050Y-17319D01*
X33031Y-17300D01*
X33012Y-17262D01*
X33012Y-17169D01*
X33031Y-17112D01*
X33406Y-16737D02*
X33406Y-16962D01*
X33406Y-16850D02*
X33012Y-16850D01*
X33068Y-16887D01*
X33106Y-16925D01*
X33125Y-16962D01*
X35534Y-18293D02*
X35553Y-18312D01*
X35571Y-18368D01*
X35571Y-18406D01*
X35553Y-18462D01*
X35515Y-18500D01*
X35478Y-18518D01*
X35403Y-18537D01*
X35346Y-18537D01*
X35271Y-18518D01*
X35234Y-18500D01*
X35196Y-18462D01*
X35178Y-18406D01*
X35178Y-18368D01*
X35196Y-18312D01*
X35215Y-18293D01*
X35365Y-17994D02*
X35384Y-17937D01*
X35403Y-17919D01*
X35440Y-17900D01*
X35496Y-17900D01*
X35534Y-17919D01*
X35553Y-17937D01*
X35571Y-17975D01*
X35571Y-18125D01*
X35178Y-18125D01*
X35178Y-17994D01*
X35196Y-17956D01*
X35215Y-17937D01*
X35253Y-17919D01*
X35290Y-17919D01*
X35328Y-17937D01*
X35346Y-17956D01*
X35365Y-17994D01*
X35365Y-18125D01*
X35178Y-17731D02*
X35496Y-17731D01*
X35534Y-17712D01*
X35553Y-17694D01*
X35571Y-17656D01*
X35571Y-17581D01*
X35553Y-17544D01*
X35534Y-17525D01*
X35496Y-17506D01*
X35178Y-17506D01*
X35553Y-17337D02*
X35571Y-17281D01*
X35571Y-17187D01*
X35553Y-17150D01*
X35534Y-17131D01*
X35496Y-17112D01*
X35459Y-17112D01*
X35421Y-17131D01*
X35403Y-17150D01*
X35384Y-17187D01*
X35365Y-17262D01*
X35346Y-17300D01*
X35328Y-17319D01*
X35290Y-17337D01*
X35253Y-17337D01*
X35215Y-17319D01*
X35196Y-17300D01*
X35178Y-17262D01*
X35178Y-17169D01*
X35196Y-17112D01*
X35178Y-16869D02*
X35178Y-16831D01*
X35196Y-16794D01*
X35215Y-16775D01*
X35253Y-16756D01*
X35328Y-16737D01*
X35421Y-16737D01*
X35496Y-16756D01*
X35534Y-16775D01*
X35553Y-16794D01*
X35571Y-16831D01*
X35571Y-16869D01*
X35553Y-16906D01*
X35534Y-16925D01*
X35496Y-16944D01*
X35421Y-16962D01*
X35328Y-16962D01*
X35253Y-16944D01*
X35215Y-16925D01*
X35196Y-16906D01*
X35178Y-16869D01*
X18482Y-62130D02*
X18482Y-61830D01*
X18632Y-61980D02*
X18332Y-61980D01*
X18239Y-61455D02*
X18239Y-61642D01*
X18426Y-61661D01*
X18407Y-61642D01*
X18389Y-61605D01*
X18389Y-61511D01*
X18407Y-61474D01*
X18426Y-61455D01*
X18464Y-61436D01*
X18557Y-61436D01*
X18595Y-61455D01*
X18614Y-61474D01*
X18632Y-61511D01*
X18632Y-61605D01*
X18614Y-61642D01*
X18595Y-61661D01*
X18239Y-61324D02*
X18632Y-61192D01*
X18239Y-61061D01*
X18512Y-59940D02*
X18512Y-59640D01*
X18662Y-59790D02*
X18362Y-59790D01*
X18268Y-59491D02*
X18268Y-59247D01*
X18418Y-59378D01*
X18418Y-59322D01*
X18437Y-59284D01*
X18456Y-59266D01*
X18493Y-59247D01*
X18587Y-59247D01*
X18624Y-59266D01*
X18643Y-59284D01*
X18662Y-59322D01*
X18662Y-59434D01*
X18643Y-59472D01*
X18624Y-59491D01*
X18624Y-59078D02*
X18643Y-59059D01*
X18662Y-59078D01*
X18643Y-59097D01*
X18624Y-59078D01*
X18662Y-59078D01*
X18268Y-58928D02*
X18268Y-58684D01*
X18418Y-58816D01*
X18418Y-58759D01*
X18437Y-58722D01*
X18456Y-58703D01*
X18493Y-58684D01*
X18587Y-58684D01*
X18624Y-58703D01*
X18643Y-58722D01*
X18662Y-58759D01*
X18662Y-58872D01*
X18643Y-58909D01*
X18624Y-58928D01*
X18268Y-58572D02*
X18662Y-58441D01*
X18268Y-58309D01*
G54D12*
X22037Y-61736D02*
X22178Y-61783D01*
X22412Y-61783D01*
X22506Y-61736D01*
X22553Y-61690D01*
X22600Y-61596D01*
X22600Y-61502D01*
X22553Y-61408D01*
X22506Y-61362D01*
X22412Y-61315D01*
X22225Y-61268D01*
X22131Y-61221D01*
X22084Y-61174D01*
X22037Y-61080D01*
X22037Y-60987D01*
X22084Y-60893D01*
X22131Y-60846D01*
X22225Y-60799D01*
X22459Y-60799D01*
X22600Y-60846D01*
X23022Y-61783D02*
X23022Y-60799D01*
X23256Y-60799D01*
X23397Y-60846D01*
X23490Y-60940D01*
X23537Y-61033D01*
X23584Y-61221D01*
X23584Y-61362D01*
X23537Y-61549D01*
X23490Y-61643D01*
X23397Y-61736D01*
X23256Y-61783D01*
X23022Y-61783D01*
X25178Y-61736D02*
X25084Y-61783D01*
X24896Y-61783D01*
X24803Y-61736D01*
X24756Y-61690D01*
X24709Y-61596D01*
X24709Y-61315D01*
X24756Y-61221D01*
X24803Y-61174D01*
X24896Y-61127D01*
X25084Y-61127D01*
X25178Y-61174D01*
X26021Y-61783D02*
X26021Y-61268D01*
X25974Y-61174D01*
X25881Y-61127D01*
X25693Y-61127D01*
X25599Y-61174D01*
X26021Y-61736D02*
X25928Y-61783D01*
X25693Y-61783D01*
X25599Y-61736D01*
X25553Y-61643D01*
X25553Y-61549D01*
X25599Y-61455D01*
X25693Y-61408D01*
X25928Y-61408D01*
X26021Y-61362D01*
X26490Y-61783D02*
X26490Y-61127D01*
X26490Y-61315D02*
X26537Y-61221D01*
X26584Y-61174D01*
X26677Y-61127D01*
X26771Y-61127D01*
X27521Y-61783D02*
X27521Y-60799D01*
X27521Y-61736D02*
X27427Y-61783D01*
X27240Y-61783D01*
X27146Y-61736D01*
X27099Y-61690D01*
X27052Y-61596D01*
X27052Y-61315D01*
X27099Y-61221D01*
X27146Y-61174D01*
X27240Y-61127D01*
X27427Y-61127D01*
X27521Y-61174D01*
X15283Y-38788D02*
X15246Y-38751D01*
X15208Y-38676D01*
X15208Y-38488D01*
X15246Y-38413D01*
X15283Y-38376D01*
X15358Y-38338D01*
X15433Y-38338D01*
X15546Y-38376D01*
X15995Y-38826D01*
X15995Y-38338D01*
X15546Y-37889D02*
X15508Y-37964D01*
X15471Y-38001D01*
X15396Y-38038D01*
X15358Y-38038D01*
X15283Y-38001D01*
X15246Y-37964D01*
X15208Y-37889D01*
X15208Y-37739D01*
X15246Y-37664D01*
X15283Y-37626D01*
X15358Y-37589D01*
X15396Y-37589D01*
X15471Y-37626D01*
X15508Y-37664D01*
X15546Y-37739D01*
X15546Y-37889D01*
X15583Y-37964D01*
X15621Y-38001D01*
X15696Y-38038D01*
X15845Y-38038D01*
X15920Y-38001D01*
X15958Y-37964D01*
X15995Y-37889D01*
X15995Y-37739D01*
X15958Y-37664D01*
X15920Y-37626D01*
X15845Y-37589D01*
X15696Y-37589D01*
X15621Y-37626D01*
X15583Y-37664D01*
X15546Y-37739D01*
X15927Y-31320D02*
X15927Y-31770D01*
X15927Y-31545D02*
X15139Y-31545D01*
X15252Y-31620D01*
X15327Y-31695D01*
X15364Y-31770D01*
G54D11*
X38305Y-25550D02*
X38286Y-25569D01*
X38230Y-25588D01*
X38192Y-25588D01*
X38136Y-25569D01*
X38098Y-25531D01*
X38080Y-25494D01*
X38061Y-25419D01*
X38061Y-25363D01*
X38080Y-25288D01*
X38098Y-25250D01*
X38136Y-25213D01*
X38192Y-25194D01*
X38230Y-25194D01*
X38286Y-25213D01*
X38305Y-25231D01*
X38548Y-25194D02*
X38623Y-25194D01*
X38661Y-25213D01*
X38698Y-25250D01*
X38717Y-25325D01*
X38717Y-25456D01*
X38698Y-25531D01*
X38661Y-25569D01*
X38623Y-25588D01*
X38548Y-25588D01*
X38511Y-25569D01*
X38473Y-25531D01*
X38455Y-25456D01*
X38455Y-25325D01*
X38473Y-25250D01*
X38511Y-25213D01*
X38548Y-25194D01*
X38886Y-25588D02*
X38886Y-25194D01*
X39111Y-25588D01*
X39111Y-25194D01*
X39242Y-25194D02*
X39467Y-25194D01*
X39355Y-25588D02*
X39355Y-25194D01*
X39580Y-25475D02*
X39767Y-25475D01*
X39542Y-25588D02*
X39673Y-25194D01*
X39805Y-25588D01*
X40161Y-25550D02*
X40142Y-25569D01*
X40086Y-25588D01*
X40048Y-25588D01*
X39992Y-25569D01*
X39955Y-25531D01*
X39936Y-25494D01*
X39917Y-25419D01*
X39917Y-25363D01*
X39936Y-25288D01*
X39955Y-25250D01*
X39992Y-25213D01*
X40048Y-25194D01*
X40086Y-25194D01*
X40142Y-25213D01*
X40161Y-25231D01*
X40273Y-25194D02*
X40498Y-25194D01*
X40386Y-25588D02*
X40386Y-25194D01*
X40704Y-25194D02*
X40779Y-25194D01*
X40817Y-25213D01*
X40854Y-25250D01*
X40873Y-25325D01*
X40873Y-25456D01*
X40854Y-25531D01*
X40817Y-25569D01*
X40779Y-25588D01*
X40704Y-25588D01*
X40667Y-25569D01*
X40629Y-25531D01*
X40611Y-25456D01*
X40611Y-25325D01*
X40629Y-25250D01*
X40667Y-25213D01*
X40704Y-25194D01*
X41267Y-25588D02*
X41136Y-25400D01*
X41042Y-25588D02*
X41042Y-25194D01*
X41192Y-25194D01*
X41229Y-25213D01*
X41248Y-25231D01*
X41267Y-25269D01*
X41267Y-25325D01*
X41248Y-25363D01*
X41229Y-25381D01*
X41192Y-25400D01*
X41042Y-25400D01*
X41436Y-25381D02*
X41567Y-25381D01*
X41623Y-25588D02*
X41436Y-25588D01*
X41436Y-25194D01*
X41623Y-25194D01*
X41773Y-25569D02*
X41829Y-25588D01*
X41923Y-25588D01*
X41961Y-25569D01*
X41979Y-25550D01*
X41998Y-25513D01*
X41998Y-25475D01*
X41979Y-25438D01*
X41961Y-25419D01*
X41923Y-25400D01*
X41848Y-25381D01*
X41811Y-25363D01*
X41792Y-25344D01*
X41773Y-25306D01*
X41773Y-25269D01*
X41792Y-25231D01*
X41811Y-25213D01*
X41848Y-25194D01*
X41942Y-25194D01*
X41998Y-25213D01*
X34053Y-25208D02*
X34109Y-25226D01*
X34128Y-25245D01*
X34146Y-25283D01*
X34146Y-25339D01*
X34128Y-25376D01*
X34109Y-25395D01*
X34071Y-25414D01*
X33922Y-25414D01*
X33922Y-25020D01*
X34053Y-25020D01*
X34090Y-25039D01*
X34109Y-25058D01*
X34128Y-25095D01*
X34128Y-25133D01*
X34109Y-25170D01*
X34090Y-25189D01*
X34053Y-25208D01*
X33922Y-25208D01*
X34296Y-25301D02*
X34484Y-25301D01*
X34259Y-25414D02*
X34390Y-25020D01*
X34521Y-25414D01*
X34840Y-25414D02*
X34653Y-25414D01*
X34653Y-25020D01*
X34971Y-25414D02*
X34971Y-25020D01*
X35121Y-25020D02*
X35384Y-25020D01*
X35121Y-25414D01*
X35384Y-25414D01*
X35515Y-25301D02*
X35703Y-25301D01*
X35478Y-25414D02*
X35609Y-25020D01*
X35740Y-25414D01*
G54D12*
X20414Y-23496D02*
X20515Y-23530D01*
X20684Y-23530D01*
X20752Y-23496D01*
X20785Y-23463D01*
X20819Y-23395D01*
X20819Y-23328D01*
X20785Y-23260D01*
X20752Y-23226D01*
X20684Y-23193D01*
X20549Y-23159D01*
X20482Y-23125D01*
X20448Y-23091D01*
X20414Y-23024D01*
X20414Y-22956D01*
X20448Y-22889D01*
X20482Y-22855D01*
X20549Y-22821D01*
X20718Y-22821D01*
X20819Y-22855D01*
X21123Y-23159D02*
X21359Y-23159D01*
X21460Y-23530D02*
X21123Y-23530D01*
X21123Y-22821D01*
X21460Y-22821D01*
X21764Y-23530D02*
X21764Y-22821D01*
X22169Y-23530D01*
X22169Y-22821D01*
X22473Y-23496D02*
X22574Y-23530D01*
X22743Y-23530D01*
X22810Y-23496D01*
X22844Y-23463D01*
X22878Y-23395D01*
X22878Y-23328D01*
X22844Y-23260D01*
X22810Y-23226D01*
X22743Y-23193D01*
X22608Y-23159D01*
X22540Y-23125D01*
X22506Y-23091D01*
X22473Y-23024D01*
X22473Y-22956D01*
X22506Y-22889D01*
X22540Y-22855D01*
X22608Y-22821D01*
X22776Y-22821D01*
X22878Y-22855D01*
X23316Y-22821D02*
X23451Y-22821D01*
X23519Y-22855D01*
X23586Y-22923D01*
X23620Y-23058D01*
X23620Y-23294D01*
X23586Y-23429D01*
X23519Y-23496D01*
X23451Y-23530D01*
X23316Y-23530D01*
X23249Y-23496D01*
X23181Y-23429D01*
X23148Y-23294D01*
X23148Y-23058D01*
X23181Y-22923D01*
X23249Y-22855D01*
X23316Y-22821D01*
X24329Y-23530D02*
X24092Y-23193D01*
X23924Y-23530D02*
X23924Y-22821D01*
X24194Y-22821D01*
X24261Y-22855D01*
X24295Y-22889D01*
X24329Y-22956D01*
X24329Y-23058D01*
X24295Y-23125D01*
X24261Y-23159D01*
X24194Y-23193D01*
X23924Y-23193D01*
X24632Y-23159D02*
X24869Y-23159D01*
X24970Y-23530D02*
X24632Y-23530D01*
X24632Y-22821D01*
X24970Y-22821D01*
X25240Y-23496D02*
X25341Y-23530D01*
X25510Y-23530D01*
X25577Y-23496D01*
X25611Y-23463D01*
X25645Y-23395D01*
X25645Y-23328D01*
X25611Y-23260D01*
X25577Y-23226D01*
X25510Y-23193D01*
X25375Y-23159D01*
X25307Y-23125D01*
X25274Y-23091D01*
X25240Y-23024D01*
X25240Y-22956D01*
X25274Y-22889D01*
X25307Y-22855D01*
X25375Y-22821D01*
X25544Y-22821D01*
X25645Y-22855D01*
G54D11*
X26027Y-42540D02*
X25839Y-42540D01*
X25839Y-42146D01*
X26383Y-42502D02*
X26364Y-42521D01*
X26308Y-42540D01*
X26271Y-42540D01*
X26214Y-42521D01*
X26177Y-42484D01*
X26158Y-42446D01*
X26139Y-42371D01*
X26139Y-42315D01*
X26158Y-42240D01*
X26177Y-42202D01*
X26214Y-42165D01*
X26271Y-42146D01*
X26308Y-42146D01*
X26364Y-42165D01*
X26383Y-42184D01*
X26552Y-42540D02*
X26552Y-42146D01*
X26646Y-42146D01*
X26702Y-42165D01*
X26739Y-42202D01*
X26758Y-42240D01*
X26777Y-42315D01*
X26777Y-42371D01*
X26758Y-42446D01*
X26739Y-42484D01*
X26702Y-42521D01*
X26646Y-42540D01*
X26552Y-42540D01*
X6971Y-63299D02*
X6990Y-63317D01*
X7008Y-63374D01*
X7008Y-63411D01*
X6990Y-63467D01*
X6952Y-63505D01*
X6915Y-63524D01*
X6840Y-63542D01*
X6783Y-63542D01*
X6708Y-63524D01*
X6671Y-63505D01*
X6633Y-63467D01*
X6615Y-63411D01*
X6615Y-63374D01*
X6633Y-63317D01*
X6652Y-63299D01*
X7008Y-63074D02*
X6990Y-63111D01*
X6971Y-63130D01*
X6933Y-63149D01*
X6821Y-63149D01*
X6783Y-63130D01*
X6765Y-63111D01*
X6746Y-63074D01*
X6746Y-63017D01*
X6765Y-62980D01*
X6783Y-62961D01*
X6821Y-62942D01*
X6933Y-62942D01*
X6971Y-62961D01*
X6990Y-62980D01*
X7008Y-63017D01*
X7008Y-63074D01*
X6746Y-62774D02*
X7008Y-62774D01*
X6783Y-62774D02*
X6765Y-62755D01*
X6746Y-62717D01*
X6746Y-62661D01*
X6765Y-62624D01*
X6802Y-62605D01*
X7008Y-62605D01*
X6990Y-62267D02*
X7008Y-62305D01*
X7008Y-62380D01*
X6990Y-62417D01*
X6952Y-62436D01*
X6802Y-62436D01*
X6765Y-62417D01*
X6746Y-62380D01*
X6746Y-62305D01*
X6765Y-62267D01*
X6802Y-62249D01*
X6840Y-62249D01*
X6877Y-62436D01*
X6990Y-61911D02*
X7008Y-61949D01*
X7008Y-62024D01*
X6990Y-62061D01*
X6971Y-62080D01*
X6933Y-62099D01*
X6821Y-62099D01*
X6783Y-62080D01*
X6765Y-62061D01*
X6746Y-62024D01*
X6746Y-61949D01*
X6765Y-61911D01*
X6746Y-61799D02*
X6746Y-61649D01*
X6615Y-61743D02*
X6952Y-61743D01*
X6990Y-61724D01*
X7008Y-61686D01*
X7008Y-61649D01*
X7008Y-61461D02*
X6990Y-61499D01*
X6971Y-61518D01*
X6933Y-61536D01*
X6821Y-61536D01*
X6783Y-61518D01*
X6765Y-61499D01*
X6746Y-61461D01*
X6746Y-61405D01*
X6765Y-61368D01*
X6783Y-61349D01*
X6821Y-61330D01*
X6933Y-61330D01*
X6971Y-61349D01*
X6990Y-61368D01*
X7008Y-61405D01*
X7008Y-61461D01*
X7008Y-61161D02*
X6746Y-61161D01*
X6821Y-61161D02*
X6783Y-61143D01*
X6765Y-61124D01*
X6746Y-61086D01*
X6746Y-61049D01*
X7008Y-60618D02*
X6615Y-60618D01*
X6765Y-60618D02*
X6746Y-60580D01*
X6746Y-60505D01*
X6765Y-60468D01*
X6783Y-60449D01*
X6821Y-60430D01*
X6933Y-60430D01*
X6971Y-60449D01*
X6990Y-60468D01*
X7008Y-60505D01*
X7008Y-60580D01*
X6990Y-60618D01*
X7008Y-60205D02*
X6990Y-60243D01*
X6971Y-60261D01*
X6933Y-60280D01*
X6821Y-60280D01*
X6783Y-60261D01*
X6765Y-60243D01*
X6746Y-60205D01*
X6746Y-60149D01*
X6765Y-60112D01*
X6783Y-60093D01*
X6821Y-60074D01*
X6933Y-60074D01*
X6971Y-60093D01*
X6990Y-60112D01*
X7008Y-60149D01*
X7008Y-60205D01*
X6746Y-59962D02*
X6746Y-59812D01*
X6615Y-59905D02*
X6952Y-59905D01*
X6990Y-59887D01*
X7008Y-59849D01*
X7008Y-59812D01*
X7008Y-59624D02*
X6990Y-59662D01*
X6971Y-59680D01*
X6933Y-59699D01*
X6821Y-59699D01*
X6783Y-59680D01*
X6765Y-59662D01*
X6746Y-59624D01*
X6746Y-59568D01*
X6765Y-59530D01*
X6783Y-59512D01*
X6821Y-59493D01*
X6933Y-59493D01*
X6971Y-59512D01*
X6990Y-59530D01*
X7008Y-59568D01*
X7008Y-59624D01*
X6746Y-59324D02*
X7008Y-59324D01*
X6783Y-59324D02*
X6765Y-59305D01*
X6746Y-59268D01*
X6746Y-59212D01*
X6765Y-59174D01*
X6802Y-59155D01*
X7008Y-59155D01*
X7008Y-58499D02*
X6615Y-58499D01*
X6990Y-58499D02*
X7008Y-58537D01*
X7008Y-58612D01*
X6990Y-58649D01*
X6971Y-58668D01*
X6933Y-58687D01*
X6821Y-58687D01*
X6783Y-58668D01*
X6765Y-58649D01*
X6746Y-58612D01*
X6746Y-58537D01*
X6765Y-58499D01*
X6990Y-58162D02*
X7008Y-58199D01*
X7008Y-58274D01*
X6990Y-58312D01*
X6952Y-58330D01*
X6802Y-58330D01*
X6765Y-58312D01*
X6746Y-58274D01*
X6746Y-58199D01*
X6765Y-58162D01*
X6802Y-58143D01*
X6840Y-58143D01*
X6877Y-58330D01*
X6990Y-57524D02*
X7008Y-57562D01*
X7008Y-57637D01*
X6990Y-57674D01*
X6952Y-57693D01*
X6802Y-57693D01*
X6765Y-57674D01*
X6746Y-57637D01*
X6746Y-57562D01*
X6765Y-57524D01*
X6802Y-57506D01*
X6840Y-57506D01*
X6877Y-57693D01*
X7008Y-57337D02*
X6746Y-57337D01*
X6783Y-57337D02*
X6765Y-57318D01*
X6746Y-57281D01*
X6746Y-57224D01*
X6765Y-57187D01*
X6802Y-57168D01*
X7008Y-57168D01*
X6802Y-57168D02*
X6765Y-57149D01*
X6746Y-57112D01*
X6746Y-57056D01*
X6765Y-57018D01*
X6802Y-56999D01*
X7008Y-56999D01*
X6990Y-56662D02*
X7008Y-56699D01*
X7008Y-56774D01*
X6990Y-56812D01*
X6952Y-56831D01*
X6802Y-56831D01*
X6765Y-56812D01*
X6746Y-56774D01*
X6746Y-56699D01*
X6765Y-56662D01*
X6802Y-56643D01*
X6840Y-56643D01*
X6877Y-56831D01*
X7008Y-56474D02*
X6746Y-56474D01*
X6821Y-56474D02*
X6783Y-56456D01*
X6765Y-56437D01*
X6746Y-56399D01*
X6746Y-56362D01*
X6746Y-56062D02*
X7065Y-56062D01*
X7102Y-56081D01*
X7121Y-56100D01*
X7140Y-56137D01*
X7140Y-56193D01*
X7121Y-56231D01*
X6990Y-56062D02*
X7008Y-56100D01*
X7008Y-56175D01*
X6990Y-56212D01*
X6971Y-56231D01*
X6933Y-56249D01*
X6821Y-56249D01*
X6783Y-56231D01*
X6765Y-56212D01*
X6746Y-56175D01*
X6746Y-56100D01*
X6765Y-56062D01*
X6990Y-55725D02*
X7008Y-55762D01*
X7008Y-55837D01*
X6990Y-55875D01*
X6952Y-55893D01*
X6802Y-55893D01*
X6765Y-55875D01*
X6746Y-55837D01*
X6746Y-55762D01*
X6765Y-55725D01*
X6802Y-55706D01*
X6840Y-55706D01*
X6877Y-55893D01*
X6746Y-55537D02*
X7008Y-55537D01*
X6783Y-55537D02*
X6765Y-55518D01*
X6746Y-55481D01*
X6746Y-55425D01*
X6765Y-55387D01*
X6802Y-55368D01*
X7008Y-55368D01*
X6990Y-55012D02*
X7008Y-55050D01*
X7008Y-55125D01*
X6990Y-55162D01*
X6971Y-55181D01*
X6933Y-55200D01*
X6821Y-55200D01*
X6783Y-55181D01*
X6765Y-55162D01*
X6746Y-55125D01*
X6746Y-55050D01*
X6765Y-55012D01*
X7008Y-54843D02*
X6746Y-54843D01*
X6615Y-54843D02*
X6633Y-54862D01*
X6652Y-54843D01*
X6633Y-54825D01*
X6615Y-54843D01*
X6652Y-54843D01*
X7008Y-54487D02*
X6802Y-54487D01*
X6765Y-54506D01*
X6746Y-54543D01*
X6746Y-54618D01*
X6765Y-54656D01*
X6990Y-54487D02*
X7008Y-54525D01*
X7008Y-54618D01*
X6990Y-54656D01*
X6952Y-54675D01*
X6915Y-54675D01*
X6877Y-54656D01*
X6858Y-54618D01*
X6858Y-54525D01*
X6840Y-54487D01*
G54D12*
X44667Y-61529D02*
X44667Y-61795D01*
X45086Y-61795D02*
X44286Y-61795D01*
X44286Y-61414D01*
X45086Y-60767D02*
X44667Y-60767D01*
X44591Y-60805D01*
X44552Y-60881D01*
X44552Y-61033D01*
X44591Y-61110D01*
X45048Y-60767D02*
X45086Y-60843D01*
X45086Y-61033D01*
X45048Y-61110D01*
X44972Y-61148D01*
X44895Y-61148D01*
X44819Y-61110D01*
X44781Y-61033D01*
X44781Y-60843D01*
X44743Y-60767D01*
X45048Y-60043D02*
X45086Y-60119D01*
X45086Y-60271D01*
X45048Y-60348D01*
X45010Y-60386D01*
X44933Y-60424D01*
X44705Y-60424D01*
X44629Y-60386D01*
X44591Y-60348D01*
X44552Y-60271D01*
X44552Y-60119D01*
X44591Y-60043D01*
X44552Y-59357D02*
X45086Y-59357D01*
X44552Y-59700D02*
X44972Y-59700D01*
X45048Y-59662D01*
X45086Y-59586D01*
X45086Y-59471D01*
X45048Y-59395D01*
X45010Y-59357D01*
X44552Y-58976D02*
X45086Y-58976D01*
X44629Y-58976D02*
X44591Y-58938D01*
X44552Y-58862D01*
X44552Y-58748D01*
X44591Y-58671D01*
X44667Y-58633D01*
X45086Y-58633D01*
X45086Y-57910D02*
X44286Y-57910D01*
X45048Y-57910D02*
X45086Y-57986D01*
X45086Y-58138D01*
X45048Y-58214D01*
X45010Y-58252D01*
X44933Y-58291D01*
X44705Y-58291D01*
X44629Y-58252D01*
X44591Y-58214D01*
X44552Y-58138D01*
X44552Y-57986D01*
X44591Y-57910D01*
X45086Y-57414D02*
X45048Y-57491D01*
X45010Y-57529D01*
X44933Y-57567D01*
X44705Y-57567D01*
X44629Y-57529D01*
X44591Y-57491D01*
X44552Y-57414D01*
X44552Y-57300D01*
X44591Y-57224D01*
X44629Y-57186D01*
X44705Y-57148D01*
X44933Y-57148D01*
X45010Y-57186D01*
X45048Y-57224D01*
X45086Y-57300D01*
X45086Y-57414D01*
X45086Y-56195D02*
X44286Y-56195D01*
X45086Y-55738D01*
X44286Y-55738D01*
X45086Y-55014D02*
X44667Y-55014D01*
X44591Y-55052D01*
X44552Y-55129D01*
X44552Y-55281D01*
X44591Y-55357D01*
X45048Y-55014D02*
X45086Y-55091D01*
X45086Y-55281D01*
X45048Y-55357D01*
X44972Y-55395D01*
X44895Y-55395D01*
X44819Y-55357D01*
X44781Y-55281D01*
X44781Y-55091D01*
X44743Y-55014D01*
X45086Y-54633D02*
X44286Y-54633D01*
X45086Y-54291D02*
X44667Y-54291D01*
X44591Y-54329D01*
X44552Y-54405D01*
X44552Y-54519D01*
X44591Y-54595D01*
X44629Y-54633D01*
X44552Y-53567D02*
X45086Y-53567D01*
X44552Y-53910D02*
X44972Y-53910D01*
X45048Y-53871D01*
X45086Y-53795D01*
X45086Y-53681D01*
X45048Y-53605D01*
X45010Y-53567D01*
X45048Y-52881D02*
X45086Y-52957D01*
X45086Y-53110D01*
X45048Y-53186D01*
X44972Y-53224D01*
X44667Y-53224D01*
X44591Y-53186D01*
X44552Y-53110D01*
X44552Y-52957D01*
X44591Y-52881D01*
X44667Y-52843D01*
X44743Y-52843D01*
X44819Y-53224D01*
X45086Y-52386D02*
X45048Y-52462D01*
X44972Y-52500D01*
X44286Y-52500D01*
X44286Y-51471D02*
X44933Y-51471D01*
X45010Y-51433D01*
X45048Y-51395D01*
X45086Y-51319D01*
X45086Y-51167D01*
X45048Y-51091D01*
X45010Y-51052D01*
X44933Y-51014D01*
X44286Y-51014D01*
X45086Y-50633D02*
X44552Y-50633D01*
X44705Y-50633D02*
X44629Y-50595D01*
X44591Y-50557D01*
X44552Y-50481D01*
X44552Y-50405D01*
X45086Y-50138D02*
X44552Y-50138D01*
X44286Y-50138D02*
X44324Y-50176D01*
X44362Y-50138D01*
X44324Y-50100D01*
X44286Y-50138D01*
X44362Y-50138D01*
X45048Y-49452D02*
X45086Y-49529D01*
X45086Y-49681D01*
X45048Y-49757D01*
X44972Y-49795D01*
X44667Y-49795D01*
X44591Y-49757D01*
X44552Y-49681D01*
X44552Y-49529D01*
X44591Y-49452D01*
X44667Y-49414D01*
X44743Y-49414D01*
X44819Y-49795D01*
X45086Y-48957D02*
X45048Y-49033D01*
X44972Y-49071D01*
X44286Y-49071D01*
X44552Y-47548D02*
X44552Y-47243D01*
X45086Y-47433D02*
X44400Y-47433D01*
X44324Y-47395D01*
X44286Y-47319D01*
X44286Y-47243D01*
X45086Y-46633D02*
X44667Y-46633D01*
X44591Y-46671D01*
X44552Y-46748D01*
X44552Y-46900D01*
X44591Y-46976D01*
X45048Y-46633D02*
X45086Y-46710D01*
X45086Y-46900D01*
X45048Y-46976D01*
X44972Y-47014D01*
X44895Y-47014D01*
X44819Y-46976D01*
X44781Y-46900D01*
X44781Y-46710D01*
X44743Y-46633D01*
X44552Y-46252D02*
X45086Y-46252D01*
X44629Y-46252D02*
X44591Y-46214D01*
X44552Y-46138D01*
X44552Y-46024D01*
X44591Y-45948D01*
X44667Y-45910D01*
X45086Y-45910D01*
X45086Y-45186D02*
X44667Y-45186D01*
X44591Y-45224D01*
X44552Y-45300D01*
X44552Y-45452D01*
X44591Y-45529D01*
X45048Y-45186D02*
X45086Y-45262D01*
X45086Y-45452D01*
X45048Y-45529D01*
X44972Y-45567D01*
X44895Y-45567D01*
X44819Y-45529D01*
X44781Y-45452D01*
X44781Y-45262D01*
X44743Y-45186D01*
X44552Y-44462D02*
X45086Y-44462D01*
X44552Y-44805D02*
X44972Y-44805D01*
X45048Y-44767D01*
X45086Y-44691D01*
X45086Y-44576D01*
X45048Y-44500D01*
X45010Y-44462D01*
X45086Y-44081D02*
X44552Y-44081D01*
X44705Y-44081D02*
X44629Y-44043D01*
X44591Y-44005D01*
X44552Y-43929D01*
X44552Y-43852D01*
X44705Y-43091D02*
X44667Y-43129D01*
X44629Y-43205D01*
X44629Y-43281D01*
X44667Y-43357D01*
X44705Y-43395D01*
X44781Y-43433D01*
X44857Y-43433D01*
X44933Y-43395D01*
X44972Y-43357D01*
X45010Y-43281D01*
X45010Y-43205D01*
X44972Y-43129D01*
X44933Y-43091D01*
X44629Y-43091D02*
X44933Y-43091D01*
X44972Y-43052D01*
X44972Y-43014D01*
X44933Y-42938D01*
X44857Y-42900D01*
X44667Y-42900D01*
X44552Y-42976D01*
X44476Y-43091D01*
X44438Y-43243D01*
X44476Y-43395D01*
X44552Y-43510D01*
X44667Y-43586D01*
X44819Y-43624D01*
X44972Y-43586D01*
X45086Y-43510D01*
X45162Y-43395D01*
X45200Y-43243D01*
X45162Y-43091D01*
X45086Y-42976D01*
X44552Y-42214D02*
X45200Y-42214D01*
X45276Y-42252D01*
X45314Y-42291D01*
X45352Y-42367D01*
X45352Y-42481D01*
X45314Y-42557D01*
X45048Y-42214D02*
X45086Y-42291D01*
X45086Y-42443D01*
X45048Y-42519D01*
X45010Y-42557D01*
X44933Y-42595D01*
X44705Y-42595D01*
X44629Y-42557D01*
X44591Y-42519D01*
X44552Y-42443D01*
X44552Y-42291D01*
X44591Y-42214D01*
X45086Y-41833D02*
X44552Y-41833D01*
X44629Y-41833D02*
X44591Y-41795D01*
X44552Y-41719D01*
X44552Y-41605D01*
X44591Y-41529D01*
X44667Y-41491D01*
X45086Y-41491D01*
X44667Y-41491D02*
X44591Y-41452D01*
X44552Y-41376D01*
X44552Y-41262D01*
X44591Y-41186D01*
X44667Y-41148D01*
X45086Y-41148D01*
X45086Y-40424D02*
X44667Y-40424D01*
X44591Y-40462D01*
X44552Y-40538D01*
X44552Y-40691D01*
X44591Y-40767D01*
X45048Y-40424D02*
X45086Y-40500D01*
X45086Y-40691D01*
X45048Y-40767D01*
X44972Y-40805D01*
X44895Y-40805D01*
X44819Y-40767D01*
X44781Y-40691D01*
X44781Y-40500D01*
X44743Y-40424D01*
X45086Y-40043D02*
X44552Y-40043D01*
X44286Y-40043D02*
X44324Y-40081D01*
X44362Y-40043D01*
X44324Y-40005D01*
X44286Y-40043D01*
X44362Y-40043D01*
X45086Y-39548D02*
X45048Y-39624D01*
X44972Y-39662D01*
X44286Y-39662D01*
X45010Y-39243D02*
X45048Y-39205D01*
X45086Y-39243D01*
X45048Y-39281D01*
X45010Y-39243D01*
X45086Y-39243D01*
X45048Y-38519D02*
X45086Y-38595D01*
X45086Y-38748D01*
X45048Y-38824D01*
X45010Y-38862D01*
X44933Y-38900D01*
X44705Y-38900D01*
X44629Y-38862D01*
X44591Y-38824D01*
X44552Y-38748D01*
X44552Y-38595D01*
X44591Y-38519D01*
X45086Y-38062D02*
X45048Y-38138D01*
X45010Y-38176D01*
X44933Y-38214D01*
X44705Y-38214D01*
X44629Y-38176D01*
X44591Y-38138D01*
X44552Y-38062D01*
X44552Y-37948D01*
X44591Y-37871D01*
X44629Y-37833D01*
X44705Y-37795D01*
X44933Y-37795D01*
X45010Y-37833D01*
X45048Y-37871D01*
X45086Y-37948D01*
X45086Y-38062D01*
X45086Y-37452D02*
X44552Y-37452D01*
X44629Y-37452D02*
X44591Y-37414D01*
X44552Y-37338D01*
X44552Y-37224D01*
X44591Y-37148D01*
X44667Y-37110D01*
X45086Y-37110D01*
X44667Y-37110D02*
X44591Y-37071D01*
X44552Y-36995D01*
X44552Y-36881D01*
X44591Y-36805D01*
X44667Y-36767D01*
X45086Y-36767D01*
X45905Y-63167D02*
X45905Y-62900D01*
X46324Y-62786D02*
X46324Y-63167D01*
X45524Y-63167D01*
X45524Y-62786D01*
X46286Y-62481D02*
X46324Y-62405D01*
X46324Y-62252D01*
X46286Y-62176D01*
X46210Y-62138D01*
X46172Y-62138D01*
X46095Y-62176D01*
X46057Y-62252D01*
X46057Y-62367D01*
X46019Y-62443D01*
X45943Y-62481D01*
X45905Y-62481D01*
X45829Y-62443D01*
X45791Y-62367D01*
X45791Y-62252D01*
X45829Y-62176D01*
X45791Y-61910D02*
X45791Y-61605D01*
X45524Y-61795D02*
X46210Y-61795D01*
X46286Y-61757D01*
X46324Y-61681D01*
X46324Y-61605D01*
X46324Y-60995D02*
X45905Y-60995D01*
X45829Y-61033D01*
X45791Y-61110D01*
X45791Y-61262D01*
X45829Y-61338D01*
X46286Y-60995D02*
X46324Y-61071D01*
X46324Y-61262D01*
X46286Y-61338D01*
X46210Y-61376D01*
X46133Y-61376D01*
X46057Y-61338D01*
X46019Y-61262D01*
X46019Y-61071D01*
X45981Y-60995D01*
X45791Y-60614D02*
X46324Y-60614D01*
X45867Y-60614D02*
X45829Y-60576D01*
X45791Y-60500D01*
X45791Y-60386D01*
X45829Y-60310D01*
X45905Y-60271D01*
X46324Y-60271D01*
X46324Y-59891D02*
X45791Y-59891D01*
X45524Y-59891D02*
X45562Y-59929D01*
X45600Y-59891D01*
X45562Y-59852D01*
X45524Y-59891D01*
X45600Y-59891D01*
X46286Y-59548D02*
X46324Y-59471D01*
X46324Y-59319D01*
X46286Y-59243D01*
X46210Y-59205D01*
X46172Y-59205D01*
X46095Y-59243D01*
X46057Y-59319D01*
X46057Y-59433D01*
X46019Y-59510D01*
X45943Y-59548D01*
X45905Y-59548D01*
X45829Y-59510D01*
X45791Y-59433D01*
X45791Y-59319D01*
X45829Y-59243D01*
X46324Y-58748D02*
X46286Y-58824D01*
X46210Y-58862D01*
X45524Y-58862D01*
X46324Y-58100D02*
X45905Y-58100D01*
X45829Y-58138D01*
X45791Y-58214D01*
X45791Y-58367D01*
X45829Y-58443D01*
X46286Y-58100D02*
X46324Y-58176D01*
X46324Y-58367D01*
X46286Y-58443D01*
X46210Y-58481D01*
X46133Y-58481D01*
X46057Y-58443D01*
X46019Y-58367D01*
X46019Y-58176D01*
X45981Y-58100D01*
X46324Y-57605D02*
X46286Y-57681D01*
X46248Y-57719D01*
X46172Y-57757D01*
X45943Y-57757D01*
X45867Y-57719D01*
X45829Y-57681D01*
X45791Y-57605D01*
X45791Y-57491D01*
X45829Y-57414D01*
X45867Y-57376D01*
X45943Y-57338D01*
X46172Y-57338D01*
X46248Y-57376D01*
X46286Y-57414D01*
X46324Y-57491D01*
X46324Y-57605D01*
X46324Y-56005D02*
X46324Y-56386D01*
X45524Y-56386D01*
X46324Y-55624D02*
X46286Y-55700D01*
X46248Y-55738D01*
X46172Y-55776D01*
X45943Y-55776D01*
X45867Y-55738D01*
X45829Y-55700D01*
X45791Y-55624D01*
X45791Y-55510D01*
X45829Y-55433D01*
X45867Y-55395D01*
X45943Y-55357D01*
X46172Y-55357D01*
X46248Y-55395D01*
X46286Y-55433D01*
X46324Y-55510D01*
X46324Y-55624D01*
X45486Y-55471D02*
X45600Y-55586D01*
X45791Y-55014D02*
X46591Y-55014D01*
X45829Y-55014D02*
X45791Y-54938D01*
X45791Y-54786D01*
X45829Y-54710D01*
X45867Y-54671D01*
X45943Y-54633D01*
X46172Y-54633D01*
X46248Y-54671D01*
X46286Y-54710D01*
X46324Y-54786D01*
X46324Y-54938D01*
X46286Y-55014D01*
X46286Y-53986D02*
X46324Y-54062D01*
X46324Y-54214D01*
X46286Y-54291D01*
X46210Y-54329D01*
X45905Y-54329D01*
X45829Y-54291D01*
X45791Y-54214D01*
X45791Y-54062D01*
X45829Y-53986D01*
X45905Y-53948D01*
X45981Y-53948D01*
X46057Y-54329D01*
X45791Y-53681D02*
X45791Y-53262D01*
X46324Y-53681D01*
X46324Y-53262D01*
X46324Y-52348D02*
X45524Y-52348D01*
X46095Y-52081D01*
X45524Y-51814D01*
X46324Y-51814D01*
X46324Y-51319D02*
X46286Y-51395D01*
X46248Y-51433D01*
X46172Y-51471D01*
X45943Y-51471D01*
X45867Y-51433D01*
X45829Y-51395D01*
X45791Y-51319D01*
X45791Y-51205D01*
X45829Y-51129D01*
X45867Y-51091D01*
X45943Y-51052D01*
X46172Y-51052D01*
X46248Y-51091D01*
X46286Y-51129D01*
X46324Y-51205D01*
X46324Y-51319D01*
X46324Y-50710D02*
X45791Y-50710D01*
X45943Y-50710D02*
X45867Y-50671D01*
X45829Y-50633D01*
X45791Y-50557D01*
X45791Y-50481D01*
X45791Y-49871D02*
X46438Y-49871D01*
X46514Y-49910D01*
X46552Y-49948D01*
X46591Y-50024D01*
X46591Y-50138D01*
X46552Y-50214D01*
X46286Y-49871D02*
X46324Y-49948D01*
X46324Y-50100D01*
X46286Y-50176D01*
X46248Y-50214D01*
X46172Y-50252D01*
X45943Y-50252D01*
X45867Y-50214D01*
X45829Y-50176D01*
X45791Y-50100D01*
X45791Y-49948D01*
X45829Y-49871D01*
X46324Y-49148D02*
X45905Y-49148D01*
X45829Y-49186D01*
X45791Y-49262D01*
X45791Y-49414D01*
X45829Y-49491D01*
X46286Y-49148D02*
X46324Y-49224D01*
X46324Y-49414D01*
X46286Y-49491D01*
X46210Y-49529D01*
X46133Y-49529D01*
X46057Y-49491D01*
X46019Y-49414D01*
X46019Y-49224D01*
X45981Y-49148D01*
X45791Y-48767D02*
X46324Y-48767D01*
X45867Y-48767D02*
X45829Y-48729D01*
X45791Y-48652D01*
X45791Y-48538D01*
X45829Y-48462D01*
X45905Y-48424D01*
X46324Y-48424D01*
X46286Y-46519D02*
X46324Y-46595D01*
X46324Y-46748D01*
X46286Y-46824D01*
X46210Y-46862D01*
X45905Y-46862D01*
X45829Y-46824D01*
X45791Y-46748D01*
X45791Y-46595D01*
X45829Y-46519D01*
X45905Y-46481D01*
X45981Y-46481D01*
X46057Y-46862D01*
X46286Y-46176D02*
X46324Y-46100D01*
X46324Y-45948D01*
X46286Y-45871D01*
X46210Y-45833D01*
X46172Y-45833D01*
X46095Y-45871D01*
X46057Y-45948D01*
X46057Y-46062D01*
X46019Y-46138D01*
X45943Y-46176D01*
X45905Y-46176D01*
X45829Y-46138D01*
X45791Y-46062D01*
X45791Y-45948D01*
X45829Y-45871D01*
X45791Y-45605D02*
X45791Y-45300D01*
X45524Y-45491D02*
X46210Y-45491D01*
X46286Y-45452D01*
X46324Y-45376D01*
X46324Y-45300D01*
X46324Y-44691D02*
X45905Y-44691D01*
X45829Y-44729D01*
X45791Y-44805D01*
X45791Y-44957D01*
X45829Y-45033D01*
X46286Y-44691D02*
X46324Y-44767D01*
X46324Y-44957D01*
X46286Y-45033D01*
X46210Y-45071D01*
X46133Y-45071D01*
X46057Y-45033D01*
X46019Y-44957D01*
X46019Y-44767D01*
X45981Y-44691D01*
X45791Y-44310D02*
X46324Y-44310D01*
X45867Y-44310D02*
X45829Y-44271D01*
X45791Y-44195D01*
X45791Y-44081D01*
X45829Y-44005D01*
X45905Y-43967D01*
X46324Y-43967D01*
X45791Y-43243D02*
X46324Y-43243D01*
X45791Y-43586D02*
X46210Y-43586D01*
X46286Y-43548D01*
X46324Y-43471D01*
X46324Y-43357D01*
X46286Y-43281D01*
X46248Y-43243D01*
X46324Y-42938D02*
X45791Y-42519D01*
X45791Y-42938D02*
X46324Y-42519D01*
X45943Y-41719D02*
X45905Y-41757D01*
X45867Y-41833D01*
X45867Y-41910D01*
X45905Y-41986D01*
X45943Y-42024D01*
X46019Y-42062D01*
X46095Y-42062D01*
X46172Y-42024D01*
X46210Y-41986D01*
X46248Y-41910D01*
X46248Y-41833D01*
X46210Y-41757D01*
X46172Y-41719D01*
X45867Y-41719D02*
X46172Y-41719D01*
X46210Y-41681D01*
X46210Y-41643D01*
X46172Y-41567D01*
X46095Y-41529D01*
X45905Y-41529D01*
X45791Y-41605D01*
X45714Y-41719D01*
X45676Y-41871D01*
X45714Y-42024D01*
X45791Y-42138D01*
X45905Y-42214D01*
X46057Y-42252D01*
X46210Y-42214D01*
X46324Y-42138D01*
X46400Y-42024D01*
X46438Y-41871D01*
X46400Y-41719D01*
X46324Y-41605D01*
X45791Y-40843D02*
X46438Y-40843D01*
X46514Y-40881D01*
X46552Y-40919D01*
X46591Y-40995D01*
X46591Y-41110D01*
X46552Y-41186D01*
X46286Y-40843D02*
X46324Y-40919D01*
X46324Y-41071D01*
X46286Y-41148D01*
X46248Y-41186D01*
X46172Y-41224D01*
X45943Y-41224D01*
X45867Y-41186D01*
X45829Y-41148D01*
X45791Y-41071D01*
X45791Y-40919D01*
X45829Y-40843D01*
X46324Y-40462D02*
X45791Y-40462D01*
X45867Y-40462D02*
X45829Y-40424D01*
X45791Y-40348D01*
X45791Y-40233D01*
X45829Y-40157D01*
X45905Y-40119D01*
X46324Y-40119D01*
X45905Y-40119D02*
X45829Y-40081D01*
X45791Y-40005D01*
X45791Y-39891D01*
X45829Y-39814D01*
X45905Y-39776D01*
X46324Y-39776D01*
X46324Y-39052D02*
X45905Y-39052D01*
X45829Y-39091D01*
X45791Y-39167D01*
X45791Y-39319D01*
X45829Y-39395D01*
X46286Y-39052D02*
X46324Y-39129D01*
X46324Y-39319D01*
X46286Y-39395D01*
X46210Y-39433D01*
X46133Y-39433D01*
X46057Y-39395D01*
X46019Y-39319D01*
X46019Y-39129D01*
X45981Y-39052D01*
X46324Y-38671D02*
X45791Y-38671D01*
X45524Y-38671D02*
X45562Y-38710D01*
X45600Y-38671D01*
X45562Y-38633D01*
X45524Y-38671D01*
X45600Y-38671D01*
X46324Y-38176D02*
X46286Y-38252D01*
X46210Y-38291D01*
X45524Y-38291D01*
X46248Y-37871D02*
X46286Y-37833D01*
X46324Y-37871D01*
X46286Y-37910D01*
X46248Y-37871D01*
X46324Y-37871D01*
X46286Y-37148D02*
X46324Y-37224D01*
X46324Y-37376D01*
X46286Y-37452D01*
X46248Y-37491D01*
X46172Y-37529D01*
X45943Y-37529D01*
X45867Y-37491D01*
X45829Y-37452D01*
X45791Y-37376D01*
X45791Y-37224D01*
X45829Y-37148D01*
X46324Y-36691D02*
X46286Y-36767D01*
X46248Y-36805D01*
X46172Y-36843D01*
X45943Y-36843D01*
X45867Y-36805D01*
X45829Y-36767D01*
X45791Y-36691D01*
X45791Y-36576D01*
X45829Y-36500D01*
X45867Y-36462D01*
X45943Y-36424D01*
X46172Y-36424D01*
X46248Y-36462D01*
X46286Y-36500D01*
X46324Y-36576D01*
X46324Y-36691D01*
X46324Y-36081D02*
X45791Y-36081D01*
X45867Y-36081D02*
X45829Y-36043D01*
X45791Y-35967D01*
X45791Y-35852D01*
X45829Y-35776D01*
X45905Y-35738D01*
X46324Y-35738D01*
X45905Y-35738D02*
X45829Y-35700D01*
X45791Y-35624D01*
X45791Y-35510D01*
X45829Y-35433D01*
X45905Y-35395D01*
X46324Y-35395D01*
X42438Y-19088D02*
X41638Y-19088D01*
X41638Y-18784D01*
X41676Y-18707D01*
X41714Y-18669D01*
X41791Y-18631D01*
X41905Y-18631D01*
X41981Y-18669D01*
X42019Y-18707D01*
X42057Y-18784D01*
X42057Y-19088D01*
X42438Y-17907D02*
X42438Y-18288D01*
X41638Y-18288D01*
X42210Y-17679D02*
X42210Y-17298D01*
X42438Y-17755D02*
X41638Y-17488D01*
X42438Y-17222D01*
X42362Y-16498D02*
X42400Y-16536D01*
X42438Y-16650D01*
X42438Y-16726D01*
X42400Y-16841D01*
X42324Y-16917D01*
X42248Y-16955D01*
X42095Y-16993D01*
X41981Y-16993D01*
X41829Y-16955D01*
X41752Y-16917D01*
X41676Y-16841D01*
X41638Y-16726D01*
X41638Y-16650D01*
X41676Y-16536D01*
X41714Y-16498D01*
X42210Y-16193D02*
X42210Y-15812D01*
X42438Y-16269D02*
X41638Y-16003D01*
X42438Y-15736D01*
X42438Y-14860D02*
X41638Y-14860D01*
X42210Y-14593D01*
X41638Y-14326D01*
X42438Y-14326D01*
X41638Y-13793D02*
X41638Y-13641D01*
X41676Y-13565D01*
X41752Y-13488D01*
X41905Y-13450D01*
X42172Y-13450D01*
X42324Y-13488D01*
X42400Y-13565D01*
X42438Y-13641D01*
X42438Y-13793D01*
X42400Y-13869D01*
X42324Y-13946D01*
X42172Y-13984D01*
X41905Y-13984D01*
X41752Y-13946D01*
X41676Y-13869D01*
X41638Y-13793D01*
X41638Y-13222D02*
X41638Y-12765D01*
X42438Y-12993D02*
X41638Y-12993D01*
X42438Y-12498D02*
X41638Y-12498D01*
X42019Y-12498D02*
X42019Y-12041D01*
X42438Y-12041D02*
X41638Y-12041D01*
X42019Y-11660D02*
X42019Y-11393D01*
X42438Y-11279D02*
X42438Y-11660D01*
X41638Y-11660D01*
X41638Y-11279D01*
X42438Y-10479D02*
X42057Y-10746D01*
X42438Y-10936D02*
X41638Y-10936D01*
X41638Y-10631D01*
X41676Y-10555D01*
X41714Y-10517D01*
X41791Y-10479D01*
X41905Y-10479D01*
X41981Y-10517D01*
X42019Y-10555D01*
X42057Y-10631D01*
X42057Y-10936D01*
G54D11*
X15369Y-5787D02*
X15331Y-5768D01*
X15275Y-5768D01*
X15219Y-5787D01*
X15181Y-5824D01*
X15163Y-5862D01*
X15144Y-5937D01*
X15144Y-5993D01*
X15163Y-6068D01*
X15181Y-6106D01*
X15219Y-6143D01*
X15275Y-6162D01*
X15313Y-6162D01*
X15369Y-6143D01*
X15388Y-6124D01*
X15388Y-5993D01*
X15313Y-5993D01*
X15556Y-6162D02*
X15556Y-5768D01*
X15781Y-6162D01*
X15781Y-5768D01*
X15969Y-6162D02*
X15969Y-5768D01*
X16062Y-5768D01*
X16119Y-5787D01*
X16156Y-5824D01*
X16175Y-5862D01*
X16194Y-5937D01*
X16194Y-5993D01*
X16175Y-6068D01*
X16156Y-6106D01*
X16119Y-6143D01*
X16062Y-6162D01*
X15969Y-6162D01*
X12405Y-6012D02*
X12705Y-6012D01*
X12555Y-6162D02*
X12555Y-5862D01*
X13098Y-6162D02*
X12874Y-6162D01*
X12986Y-6162D02*
X12986Y-5768D01*
X12949Y-5824D01*
X12911Y-5862D01*
X12874Y-5881D01*
X13455Y-5768D02*
X13267Y-5768D01*
X13248Y-5956D01*
X13267Y-5937D01*
X13305Y-5918D01*
X13398Y-5918D01*
X13436Y-5937D01*
X13455Y-5956D01*
X13473Y-5993D01*
X13473Y-6087D01*
X13455Y-6124D01*
X13436Y-6143D01*
X13398Y-6162D01*
X13305Y-6162D01*
X13267Y-6143D01*
X13248Y-6124D01*
X13586Y-5768D02*
X13717Y-6162D01*
X13848Y-5768D01*
X13961Y-6049D02*
X14148Y-6049D01*
X13923Y-6162D02*
X14055Y-5768D01*
X14186Y-6162D01*
X14542Y-6124D02*
X14523Y-6143D01*
X14467Y-6162D01*
X14430Y-6162D01*
X14373Y-6143D01*
X14336Y-6106D01*
X14317Y-6068D01*
X14298Y-5993D01*
X14298Y-5937D01*
X14317Y-5862D01*
X14336Y-5824D01*
X14373Y-5787D01*
X14430Y-5768D01*
X14467Y-5768D01*
X14523Y-5787D01*
X14542Y-5806D01*
G54D13*
X34527Y-15366D03*
X34527Y-16366D03*
X32559Y-15326D03*
X32559Y-16326D03*
X17165Y-61996D03*
X17165Y-60996D03*
X17165Y-58633D03*
X17165Y-59633D03*
G54D14*
X9015Y-56637D03*
G54D15*
X9015Y-58637D03*
G54D16*
X8852Y-49064D03*
X10852Y-49064D03*
X8852Y-54064D03*
X10852Y-54064D03*
G54D17*
X21307Y-54409D03*
X22407Y-54409D03*
X23307Y-54409D03*
X24307Y-54409D03*
X25307Y-54409D03*
X26307Y-54409D03*
X27307Y-54409D03*
G54D18*
X29507Y-54409D03*
G54D17*
X28907Y-54409D03*
X30107Y-54409D03*
G54D19*
X29407Y-55509D03*
G54D20*
X22807Y-55309D03*
G54D21*
X20107Y-54609D03*
G54D20*
X25807Y-55309D03*
G54D21*
X30207Y-66109D03*
G54D22*
X19407Y-66009D03*
G54D17*
X28207Y-54409D03*
G54D23*
X23590Y-26169D03*
G54D24*
X23590Y-25169D03*
X24590Y-26169D03*
X24590Y-25169D03*
X25590Y-26169D03*
X25590Y-25169D03*
X26590Y-26169D03*
X26590Y-25169D03*
X27590Y-26169D03*
X27590Y-25169D03*
G54D23*
X32501Y-44372D03*
G54D24*
X32501Y-45372D03*
X31501Y-44372D03*
X31501Y-45372D03*
X30501Y-44372D03*
X30501Y-45372D03*
X29501Y-44372D03*
X29501Y-45372D03*
X28501Y-44372D03*
X28501Y-45372D03*
X27501Y-44372D03*
X27501Y-45372D03*
X26501Y-44372D03*
X26501Y-45372D03*
X25501Y-44372D03*
X25501Y-45372D03*
X24501Y-44372D03*
X24501Y-45372D03*
X23501Y-44372D03*
X23501Y-45372D03*
G54D14*
X17669Y-7795D03*
G54D15*
X15669Y-7795D03*
X13669Y-7795D03*
G54D25*
X20653Y-11653D03*
X21653Y-11653D03*
X22653Y-11653D03*
X20653Y-7401D03*
X21653Y-7401D03*
X22653Y-7401D03*
G54D26*
X7549Y-65885D03*
X46092Y-66151D03*
X45846Y-7066D03*
X7244Y-7086D03*
G54D25*
X20653Y-9527D03*
X21653Y-9527D03*
X22653Y-9527D03*
X20574Y-13779D03*
X21574Y-13779D03*
X22574Y-13779D03*
G54D27*
X37710Y-26760D03*
G54D28*
X36710Y-26760D03*
X35710Y-26760D03*
X34710Y-26760D03*
X33710Y-26760D03*
X32710Y-26760D03*
G54D27*
X43170Y-26780D03*
G54D28*
X42170Y-26780D03*
X41170Y-26780D03*
X40170Y-26780D03*
X39170Y-26780D03*
G54D14*
X14370Y-15720D03*
G54D15*
X14370Y-17720D03*
G54D23*
X41200Y-30350D03*
X40190Y-30350D03*
X39190Y-30350D03*
X38190Y-30350D03*
X37190Y-30350D03*
X36200Y-30350D03*
X35200Y-30350D03*
X34200Y-30340D03*
X33200Y-30350D03*
X32200Y-30360D03*
X31200Y-30350D03*
X30200Y-30350D03*
X29200Y-30350D03*
X28200Y-30360D03*
X27200Y-30350D03*
X26200Y-30350D03*
X25200Y-30350D03*
X24200Y-30350D03*
X23200Y-30350D03*
X22200Y-30350D03*
X21200Y-30350D03*
X20200Y-30360D03*
X19200Y-30350D03*
X18200Y-30360D03*
X17200Y-30350D03*
X16200Y-30360D03*
X15200Y-30370D03*
X15260Y-39460D03*
X40260Y-39480D03*
X39260Y-39480D03*
X38260Y-39480D03*
X37260Y-39480D03*
X36260Y-39480D03*
X35260Y-39480D03*
X34260Y-39480D03*
X33260Y-39480D03*
X32260Y-39480D03*
X31260Y-39470D03*
X30260Y-39470D03*
X29260Y-39470D03*
X28260Y-39470D03*
X27260Y-39470D03*
X26260Y-39470D03*
X25260Y-39470D03*
X24260Y-39470D03*
X23260Y-39470D03*
X22260Y-39470D03*
X21260Y-39470D03*
X20260Y-39470D03*
X19260Y-39460D03*
X18260Y-39460D03*
X17260Y-39460D03*
X16260Y-39460D03*
X41260Y-39480D03*
G54D29*
X32263Y-46210D03*
X18041Y-29527D03*
X15501Y-55196D03*
X26328Y-19872D03*
X18405Y-25127D03*
X18336Y-27125D03*
X31102Y-16141D03*
X31023Y-21102D03*
X42283Y-25748D03*
X36771Y-25826D03*
X18940Y-23100D03*
X15800Y-12230D03*
X15770Y-13970D03*
X24390Y-7700D03*
X19360Y-10450D03*
X16980Y-11020D03*
X16220Y-17750D03*
X18818Y-13858D03*
X31062Y-12696D03*
X29547Y-50620D03*
X24488Y-50620D03*
X22450Y-50738D03*
X25295Y-52834D03*
X16456Y-50472D03*
X17204Y-55826D03*
X11938Y-49714D03*
X14114Y-49793D03*
X39055Y-41092D03*
X30698Y-50679D03*
X34192Y-40846D03*
X26840Y-47076D03*
X18198Y-49744D03*
X32116Y-48385D03*
X18198Y-52549D03*
X13474Y-58690D03*
X27930Y-49890D03*
X24940Y-49960D03*
X35039Y-40954D03*
X26043Y-47667D03*
X17746Y-25098D03*
X24170Y-29420D03*
X25669Y-14645D03*
X35118Y-9881D03*
X31338Y-24753D03*
X33218Y-29763D03*
X31220Y-29616D03*
X20442Y-24242D03*
X36259Y-38612D03*
X33041Y-27913D03*
X31140Y-40900D03*
X17440Y-47805D03*
X19625Y-27765D03*
X23464Y-21368D03*
X28818Y-41624D03*
X18356Y-44468D03*
X16673Y-44468D03*
X28346Y-37765D03*
X37880Y-34060D03*
X30930Y-22400D03*
X26818Y-18216D03*
X28425Y-18283D03*
X27677Y-40255D03*
X28818Y-18503D03*
X29685Y-18188D03*
X30030Y-38430D03*
X30000Y-42529D03*
X31998Y-22411D03*
X41141Y-37440D03*
X18996Y-55255D03*
X38474Y-35551D03*
X29468Y-53011D03*
X22460Y-52874D03*
X29212Y-19212D03*
X30551Y-18385D03*
X31889Y-20196D03*
X34488Y-17362D03*
X32519Y-17204D03*
X32283Y-19212D03*
X23326Y-52913D03*
X26318Y-52933D03*
X28208Y-53011D03*
G54D30*
X22574Y-13779D02*
X23858Y-13779D01*
X26220Y-15430D02*
X26220Y-15196D01*
X26223Y-15433D02*
X26220Y-15430D01*
X25511Y-15433D02*
X26223Y-15433D01*
X23858Y-13779D02*
X25511Y-15433D01*
X11368Y-47667D02*
X9803Y-47667D01*
X12352Y-48651D02*
X11368Y-47667D01*
X17637Y-48651D02*
X12352Y-48651D01*
X19950Y-46338D02*
X17637Y-48651D01*
X32135Y-46338D02*
X19950Y-46338D01*
X32263Y-46210D02*
X32135Y-46338D01*
X12293Y-29527D02*
X18041Y-29527D01*
X9803Y-32017D02*
X12293Y-29527D01*
X9803Y-50816D02*
X9803Y-47667D01*
X9803Y-47667D02*
X9803Y-32017D01*
X10610Y-51624D02*
X9803Y-50816D01*
X13267Y-51624D02*
X10610Y-51624D01*
X15541Y-53897D02*
X13267Y-51624D01*
X15541Y-55157D02*
X15541Y-53897D01*
X15501Y-55196D02*
X15541Y-55157D01*
X26220Y-15196D02*
X26250Y-17913D01*
X26328Y-17992D02*
X26328Y-19872D01*
X26250Y-17913D02*
X26328Y-17992D01*
X31102Y-15226D02*
X31102Y-16141D01*
X30472Y-15196D02*
X31102Y-15226D01*
X27401Y-15196D02*
X30472Y-15196D01*
X26220Y-15196D02*
X27401Y-15196D01*
X18405Y-27057D02*
X18405Y-25127D01*
X18336Y-27125D02*
X18405Y-27057D01*
X31102Y-21023D02*
X31102Y-16141D01*
X31023Y-21102D02*
X31102Y-21023D01*
G54D31*
X21732Y-24330D02*
X21732Y-24960D01*
X21732Y-24330D02*
X32440Y-24330D01*
X32440Y-24330D02*
X32913Y-24803D01*
X32913Y-24803D02*
X32913Y-25669D01*
X32913Y-25669D02*
X33070Y-25826D01*
X21732Y-24960D02*
X21940Y-25169D01*
X21940Y-25169D02*
X23590Y-25169D01*
X36771Y-25826D02*
X42204Y-25826D01*
X42204Y-25826D02*
X42283Y-25748D01*
X33070Y-25826D02*
X36771Y-25826D01*
G54D30*
X23122Y-9527D02*
X22653Y-9527D01*
X23630Y-9020D02*
X23122Y-9527D01*
X23630Y-6560D02*
X23630Y-9020D01*
X23560Y-6490D02*
X23630Y-6560D01*
X20130Y-6490D02*
X23560Y-6490D01*
X19760Y-6860D02*
X20130Y-6490D01*
X19760Y-7600D02*
X19760Y-6860D01*
X18240Y-9120D02*
X19760Y-7600D01*
X18240Y-10030D02*
X18240Y-9120D01*
X17910Y-10360D02*
X18240Y-10030D01*
X17910Y-22070D02*
X17910Y-10360D01*
X18940Y-23100D02*
X17910Y-22070D01*
X15800Y-13940D02*
X15800Y-12230D01*
X15770Y-13970D02*
X15800Y-13940D01*
X24360Y-7730D02*
X24390Y-7700D01*
X24360Y-9870D02*
X24360Y-7730D01*
X23800Y-10430D02*
X24360Y-9870D01*
X19380Y-10430D02*
X23800Y-10430D01*
X19360Y-10450D02*
X19380Y-10430D01*
X16980Y-16990D02*
X16980Y-11020D01*
X16220Y-17750D02*
X16980Y-16990D01*
X21653Y-7401D02*
X21653Y-8346D01*
X18818Y-9527D02*
X18818Y-13858D01*
X19921Y-8425D02*
X18818Y-9527D01*
X21574Y-8425D02*
X19921Y-8425D01*
X21653Y-8346D02*
X21574Y-8425D01*
X29547Y-51368D02*
X29547Y-50620D01*
X29616Y-51437D02*
X29547Y-51368D01*
X31525Y-51437D02*
X29616Y-51437D01*
X37795Y-45167D02*
X31525Y-51437D01*
X37795Y-44281D02*
X37795Y-45167D01*
X40236Y-41840D02*
X37795Y-44281D01*
X42401Y-41840D02*
X40236Y-41840D01*
X42962Y-41279D02*
X42401Y-41840D01*
X42962Y-34960D02*
X42962Y-41279D01*
X44803Y-33120D02*
X42962Y-34960D01*
X44803Y-30600D02*
X44803Y-33120D01*
X45649Y-29753D02*
X44803Y-30600D01*
X45649Y-24901D02*
X45649Y-29753D01*
X44251Y-23503D02*
X45649Y-24901D01*
X38375Y-23503D02*
X44251Y-23503D01*
X37765Y-22893D02*
X38375Y-23503D01*
X36446Y-22893D02*
X37765Y-22893D01*
X36151Y-22598D02*
X36446Y-22893D01*
X36151Y-13690D02*
X36151Y-22598D01*
X35334Y-12874D02*
X36151Y-13690D01*
X31240Y-12874D02*
X35334Y-12874D01*
X31062Y-12696D02*
X31240Y-12874D01*
X29547Y-50620D02*
X24488Y-50620D01*
X22450Y-50738D02*
X16722Y-50738D01*
X16722Y-50738D02*
X16456Y-50472D01*
X22568Y-50620D02*
X24488Y-50620D01*
X22450Y-50738D02*
X22568Y-50620D01*
X25307Y-52846D02*
X25307Y-54409D01*
X25295Y-52834D02*
X25307Y-52846D01*
G54D31*
X16456Y-50472D02*
X17204Y-51220D01*
X17204Y-51220D02*
X17204Y-55826D01*
G54D30*
X14035Y-49714D02*
X11938Y-49714D01*
X14114Y-49793D02*
X14035Y-49714D01*
X39055Y-41309D02*
X39055Y-41092D01*
X38011Y-42352D02*
X39055Y-41309D01*
X35452Y-42352D02*
X38011Y-42352D01*
X35275Y-42529D02*
X35452Y-42352D01*
X35275Y-46486D02*
X35275Y-42529D01*
X32933Y-48828D02*
X35275Y-46486D01*
X32549Y-48828D02*
X32933Y-48828D01*
X30698Y-50679D02*
X32549Y-48828D01*
X34192Y-41515D02*
X34192Y-40846D01*
X33494Y-42214D02*
X34192Y-41515D01*
X33494Y-45964D02*
X33494Y-42214D01*
X32421Y-47037D02*
X33494Y-45964D01*
X26879Y-47037D02*
X32421Y-47037D01*
X26840Y-47076D02*
X26879Y-47037D01*
X18710Y-49232D02*
X18198Y-49744D01*
X31269Y-49232D02*
X18710Y-49232D01*
X32116Y-48385D02*
X31269Y-49232D01*
X18198Y-56181D02*
X18198Y-52549D01*
X16318Y-58061D02*
X18198Y-56181D01*
X14104Y-58061D02*
X16318Y-58061D01*
X13474Y-58690D02*
X14104Y-58061D01*
X25010Y-49890D02*
X27930Y-49890D01*
X24940Y-49960D02*
X25010Y-49890D01*
X35039Y-41683D02*
X35039Y-40954D01*
X34301Y-42421D02*
X35039Y-41683D01*
X34301Y-46230D02*
X34301Y-42421D01*
X32726Y-47805D02*
X34301Y-46230D01*
X26181Y-47805D02*
X32726Y-47805D01*
X26043Y-47667D02*
X26181Y-47805D01*
X17746Y-25098D02*
X17775Y-25127D01*
X17775Y-25127D02*
X17775Y-27647D01*
X17775Y-27647D02*
X18690Y-28562D01*
X18690Y-28562D02*
X24030Y-28570D01*
X24030Y-28570D02*
X24160Y-28590D01*
X24160Y-28590D02*
X24170Y-29420D01*
X25669Y-14645D02*
X25669Y-14606D01*
X25472Y-7677D02*
X25629Y-7519D01*
X25472Y-14409D02*
X25472Y-7677D01*
X25669Y-14606D02*
X25472Y-14409D01*
X25629Y-7519D02*
X32637Y-7519D01*
X32637Y-7519D02*
X33188Y-8070D01*
X33188Y-8070D02*
X33307Y-8070D01*
X33307Y-8070D02*
X35118Y-9881D01*
G54D32*
X32637Y-7519D02*
X25629Y-7519D01*
X33267Y-8149D02*
X32637Y-7519D01*
X33385Y-8149D02*
X33267Y-8149D01*
X35118Y-9881D02*
X33385Y-8149D01*
G54D30*
X31338Y-27155D02*
X31338Y-24753D01*
X33001Y-28818D02*
X31338Y-27155D01*
X33001Y-29547D02*
X33001Y-28818D01*
X33218Y-29763D02*
X33001Y-29547D01*
X29409Y-27805D02*
X31220Y-29616D01*
X22086Y-27805D02*
X29409Y-27805D01*
X20551Y-26269D02*
X22086Y-27805D01*
X20551Y-24350D02*
X20551Y-26269D01*
X20442Y-24242D02*
X20551Y-24350D01*
X36250Y-32106D02*
X36259Y-38612D01*
X36702Y-31653D02*
X36250Y-32106D01*
X41594Y-31653D02*
X36702Y-31653D01*
X42096Y-31151D02*
X41594Y-31653D01*
X42096Y-29419D02*
X42096Y-31151D01*
X41210Y-28533D02*
X42096Y-29419D01*
X33661Y-28533D02*
X41210Y-28533D01*
X33041Y-27913D02*
X33661Y-28533D01*
X20246Y-40915D02*
X31140Y-40900D01*
X17509Y-43651D02*
X20246Y-40915D01*
X17509Y-47736D02*
X17509Y-43651D01*
X17440Y-47805D02*
X17509Y-47736D01*
X19625Y-22598D02*
X19625Y-27765D01*
X20777Y-21446D02*
X19625Y-22598D01*
X23385Y-21446D02*
X20777Y-21446D01*
X23464Y-21368D02*
X23385Y-21446D01*
G54D31*
X21200Y-41624D02*
X28818Y-41624D01*
X18356Y-44468D02*
X21200Y-41624D01*
X16673Y-43129D02*
X16673Y-44468D01*
X17204Y-42598D02*
X16673Y-43129D01*
X17204Y-42401D02*
X17204Y-42598D01*
X18110Y-41496D02*
X17204Y-42401D01*
X13996Y-41496D02*
X18110Y-41496D01*
X13238Y-40738D02*
X13996Y-41496D01*
X13238Y-38818D02*
X13238Y-40738D01*
X14724Y-37332D02*
X13238Y-38818D01*
X27913Y-37332D02*
X14724Y-37332D01*
X28346Y-37765D02*
X27913Y-37332D01*
G54D30*
X41970Y-34060D02*
X37880Y-34060D01*
X43860Y-32170D02*
X41970Y-34060D01*
X43860Y-30140D02*
X43860Y-32170D01*
X44810Y-29190D02*
X43860Y-30140D01*
X44810Y-25360D02*
X44810Y-29190D01*
X43760Y-24310D02*
X44810Y-25360D01*
X38050Y-24310D02*
X43760Y-24310D01*
X37520Y-23780D02*
X38050Y-24310D01*
X35030Y-23780D02*
X37520Y-23780D01*
X34730Y-23480D02*
X35030Y-23780D01*
X34730Y-22430D02*
X34730Y-23480D01*
X33830Y-21530D02*
X34730Y-22430D01*
X31800Y-21530D02*
X33830Y-21530D01*
X30930Y-22400D02*
X31800Y-21530D01*
G54D32*
X28358Y-18216D02*
X26818Y-18216D01*
X28425Y-18283D02*
X28358Y-18216D01*
G54D31*
X27720Y-38540D02*
X14560Y-38540D01*
X19734Y-40255D02*
X27677Y-40255D01*
X19202Y-40787D02*
X19734Y-40255D01*
X14124Y-40787D02*
X19202Y-40787D01*
X13907Y-40570D02*
X14124Y-40787D01*
X13907Y-39192D02*
X13907Y-40570D01*
X14560Y-38540D02*
X13907Y-39192D01*
X29133Y-18188D02*
X29685Y-18188D01*
X28818Y-18503D02*
X29133Y-18188D01*
X29920Y-38540D02*
X27720Y-38540D01*
X30030Y-38430D02*
X29920Y-38540D01*
G54D30*
X31240Y-42529D02*
X30000Y-42529D01*
X32057Y-41712D02*
X31240Y-42529D01*
X32057Y-40679D02*
X32057Y-41712D01*
X32411Y-40324D02*
X32057Y-40679D01*
X41712Y-40324D02*
X32411Y-40324D01*
X42000Y-40320D02*
X41712Y-40324D01*
X41998Y-38848D02*
X42000Y-40320D01*
X41545Y-38395D02*
X41998Y-38848D01*
X37598Y-38395D02*
X41545Y-38395D01*
X37204Y-38001D02*
X37598Y-38395D01*
X37204Y-33592D02*
X37204Y-38001D01*
X38051Y-32746D02*
X37204Y-33592D01*
X42224Y-32746D02*
X38051Y-32746D01*
X43120Y-31850D02*
X42224Y-32746D01*
X43120Y-29320D02*
X43120Y-31850D01*
X44114Y-28326D02*
X43120Y-29320D01*
X44114Y-25767D02*
X44114Y-28326D01*
X43267Y-24921D02*
X44114Y-25767D01*
X37470Y-24921D02*
X43267Y-24921D01*
X36909Y-24360D02*
X37470Y-24921D01*
X33946Y-24360D02*
X36909Y-24360D01*
X31998Y-22411D02*
X33946Y-24360D01*
X24862Y-55905D02*
X19645Y-55905D01*
X19645Y-55905D02*
X18996Y-55255D01*
X24862Y-55905D02*
X24881Y-55905D01*
X24307Y-55350D02*
X24862Y-55905D01*
X26791Y-55846D02*
X28622Y-55846D01*
X28622Y-55846D02*
X28897Y-56122D01*
X26732Y-55905D02*
X26791Y-55846D01*
X26791Y-55846D02*
X27307Y-55330D01*
X24881Y-55905D02*
X26732Y-55905D01*
X28897Y-56122D02*
X29606Y-56122D01*
X29606Y-56122D02*
X30107Y-55621D01*
X38503Y-35580D02*
X38503Y-36919D01*
X38474Y-35551D02*
X38503Y-35580D01*
X38503Y-36919D02*
X39025Y-37440D01*
X39025Y-37440D02*
X41141Y-37440D01*
X30107Y-55621D02*
X30107Y-54409D01*
X24307Y-54409D02*
X24307Y-55350D01*
X27307Y-55330D02*
X27307Y-54409D01*
X29507Y-53050D02*
X29507Y-54409D01*
X29468Y-53011D02*
X29507Y-53050D01*
X22407Y-52927D02*
X22407Y-54409D01*
X22460Y-52874D02*
X22407Y-52927D01*
G54D33*
X29212Y-19212D02*
X30039Y-18385D01*
X30039Y-18385D02*
X30551Y-18385D01*
G54D30*
X34488Y-17362D02*
X34488Y-19921D01*
X34488Y-19921D02*
X34133Y-20275D01*
X34133Y-20275D02*
X31968Y-20275D01*
X31968Y-20275D02*
X31889Y-20196D01*
G54D32*
X31889Y-20196D02*
X31968Y-20275D01*
X31968Y-20275D02*
X34133Y-20275D01*
X34133Y-20275D02*
X34488Y-19921D01*
G54D30*
X32283Y-19212D02*
X32519Y-18976D01*
X32519Y-18976D02*
X32519Y-17204D01*
G54D32*
X32519Y-18976D02*
X32519Y-17204D01*
G54D30*
X23307Y-54409D02*
X23307Y-52933D01*
X23307Y-52933D02*
X23326Y-52913D01*
X26307Y-52944D02*
X26307Y-54409D01*
X26318Y-52933D02*
X26307Y-52944D01*
X28207Y-54409D02*
X28207Y-53013D01*
X28207Y-53013D02*
X28208Y-53011D01*
G54D10*
G36*
X6573Y-66890D02*
X6407Y-66890D01*
X6407Y-66808D01*
X6477Y-66823D01*
X6491Y-66808D01*
X6573Y-66890D01*
X6573Y-66890D01*
G37*
G54D34*
X6573Y-66890D02*
X6407Y-66890D01*
X6407Y-66808D01*
X6477Y-66823D01*
X6491Y-66808D01*
X6573Y-66890D01*
G54D10*
G36*
X8314Y-6151D02*
X8301Y-6164D01*
X8288Y-6151D01*
X8314Y-6151D01*
X8314Y-6151D01*
G37*
G54D34*
X8314Y-6151D02*
X8301Y-6164D01*
X8288Y-6151D01*
X8314Y-6151D01*
G54D10*
G36*
X13725Y-16809D02*
X13438Y-17096D01*
X13404Y-17176D01*
X13404Y-16603D01*
X13530Y-16728D01*
X13725Y-16809D01*
X13725Y-16809D01*
G37*
G54D34*
X13725Y-16809D02*
X13438Y-17096D01*
X13404Y-17176D01*
X13404Y-16603D01*
X13530Y-16728D01*
X13725Y-16809D01*
G54D10*
G36*
X16706Y-6909D02*
X16660Y-6955D01*
X16579Y-7150D01*
X16338Y-6909D01*
X16706Y-6909D01*
X16706Y-6909D01*
G37*
G54D34*
X16706Y-6909D02*
X16660Y-6955D01*
X16579Y-7150D01*
X16338Y-6909D01*
X16706Y-6909D01*
G54D10*
G36*
X18985Y-7278D02*
X18769Y-7494D01*
X18769Y-7175D01*
X18677Y-6955D01*
X18631Y-6909D01*
X18985Y-6909D01*
X18985Y-7278D01*
X18985Y-7278D01*
G37*
G54D34*
X18985Y-7278D02*
X18769Y-7494D01*
X18769Y-7175D01*
X18677Y-6955D01*
X18631Y-6909D01*
X18985Y-6909D01*
X18985Y-7278D01*
G54D10*
G36*
X19037Y-54480D02*
X18973Y-54480D01*
X18973Y-54415D01*
X19037Y-54480D01*
X19037Y-54480D01*
G37*
G54D34*
X19037Y-54480D02*
X18973Y-54480D01*
X18973Y-54415D01*
X19037Y-54480D01*
G54D10*
G36*
X20976Y-27790D02*
X20400Y-27790D01*
X20400Y-27765D01*
X20401Y-27612D01*
X20400Y-27611D01*
X20400Y-27215D01*
X20976Y-27790D01*
X20976Y-27790D01*
G37*
G54D34*
X20976Y-27790D02*
X20400Y-27790D01*
X20400Y-27765D01*
X20401Y-27612D01*
X20400Y-27611D01*
X20400Y-27215D01*
X20976Y-27790D01*
G54D10*
G36*
X22855Y-8582D02*
X22843Y-8577D01*
X22465Y-8577D01*
X22375Y-8614D01*
X22428Y-8346D01*
X22428Y-8346D01*
X22428Y-8346D01*
X22428Y-8336D01*
X22463Y-8351D01*
X22841Y-8351D01*
X22855Y-8346D01*
X22855Y-8582D01*
X22855Y-8582D01*
G37*
G54D34*
X22855Y-8582D02*
X22843Y-8577D01*
X22465Y-8577D01*
X22375Y-8614D01*
X22428Y-8346D01*
X22428Y-8346D01*
X22428Y-8346D01*
X22428Y-8336D01*
X22463Y-8351D01*
X22841Y-8351D01*
X22855Y-8346D01*
X22855Y-8582D01*
G54D10*
G36*
X23076Y-27030D02*
X22407Y-27030D01*
X21326Y-25948D01*
X21326Y-25572D01*
X21431Y-25678D01*
X21665Y-25834D01*
X21665Y-25834D01*
X21940Y-25889D01*
X22690Y-25889D01*
X22690Y-25988D01*
X22690Y-26588D01*
X22781Y-26809D01*
X22950Y-26977D01*
X23076Y-27030D01*
X23076Y-27030D01*
G37*
G54D34*
X23076Y-27030D02*
X22407Y-27030D01*
X21326Y-25948D01*
X21326Y-25572D01*
X21431Y-25678D01*
X21665Y-25834D01*
X21665Y-25834D01*
X21940Y-25889D01*
X22690Y-25889D01*
X22690Y-25988D01*
X22690Y-26588D01*
X22781Y-26809D01*
X22950Y-26977D01*
X23076Y-27030D01*
G54D10*
G36*
X23394Y-29424D02*
X23394Y-29450D01*
X23380Y-29450D01*
X22780Y-29450D01*
X22700Y-29483D01*
X22619Y-29450D01*
X22380Y-29450D01*
X21780Y-29450D01*
X21700Y-29483D01*
X21619Y-29450D01*
X21380Y-29450D01*
X20780Y-29450D01*
X20687Y-29488D01*
X20619Y-29460D01*
X20380Y-29460D01*
X19780Y-29460D01*
X19712Y-29488D01*
X19619Y-29450D01*
X19380Y-29450D01*
X18816Y-29450D01*
X18816Y-29374D01*
X18801Y-29338D01*
X23394Y-29344D01*
X23394Y-29424D01*
X23394Y-29424D01*
G37*
G54D34*
X23394Y-29424D02*
X23394Y-29450D01*
X23380Y-29450D01*
X22780Y-29450D01*
X22700Y-29483D01*
X22619Y-29450D01*
X22380Y-29450D01*
X21780Y-29450D01*
X21700Y-29483D01*
X21619Y-29450D01*
X21380Y-29450D01*
X20780Y-29450D01*
X20687Y-29488D01*
X20619Y-29460D01*
X20380Y-29460D01*
X19780Y-29460D01*
X19712Y-29488D01*
X19619Y-29450D01*
X19380Y-29450D01*
X18816Y-29450D01*
X18816Y-29374D01*
X18801Y-29338D01*
X23394Y-29344D01*
X23394Y-29424D01*
G54D10*
G36*
X24316Y-27030D02*
X24104Y-27030D01*
X24210Y-26986D01*
X24316Y-27030D01*
X24316Y-27030D01*
G37*
G54D34*
X24316Y-27030D02*
X24104Y-27030D01*
X24210Y-26986D01*
X24316Y-27030D01*
G54D10*
G36*
X25316Y-27030D02*
X24863Y-27030D01*
X25090Y-26936D01*
X25316Y-27030D01*
X25316Y-27030D01*
G37*
G54D34*
X25316Y-27030D02*
X24863Y-27030D01*
X25090Y-26936D01*
X25316Y-27030D01*
G54D10*
G36*
X25788Y-48457D02*
X18928Y-48457D01*
X20271Y-47113D01*
X25501Y-47113D01*
X25386Y-47227D01*
X25268Y-47512D01*
X25268Y-47820D01*
X25327Y-47963D01*
X25385Y-48105D01*
X25495Y-48215D01*
X25603Y-48323D01*
X25604Y-48324D01*
X25633Y-48353D01*
X25788Y-48457D01*
X25788Y-48457D01*
G37*
G54D34*
X25788Y-48457D02*
X18928Y-48457D01*
X20271Y-47113D01*
X25501Y-47113D01*
X25386Y-47227D01*
X25268Y-47512D01*
X25268Y-47820D01*
X25327Y-47963D01*
X25385Y-48105D01*
X25495Y-48215D01*
X25603Y-48323D01*
X25604Y-48324D01*
X25633Y-48353D01*
X25788Y-48457D01*
G54D10*
G36*
X26316Y-27030D02*
X25863Y-27030D01*
X26090Y-26936D01*
X26316Y-27030D01*
X26316Y-27030D01*
G37*
G54D34*
X26316Y-27030D02*
X25863Y-27030D01*
X26090Y-26936D01*
X26316Y-27030D01*
G54D10*
G36*
X27316Y-27030D02*
X26863Y-27030D01*
X27090Y-26936D01*
X27316Y-27030D01*
X27316Y-27030D01*
G37*
G54D34*
X27316Y-27030D02*
X26863Y-27030D01*
X27090Y-26936D01*
X27316Y-27030D01*
G54D10*
G36*
X29958Y-29450D02*
X29780Y-29450D01*
X29700Y-29483D01*
X29619Y-29450D01*
X29380Y-29450D01*
X28780Y-29450D01*
X28687Y-29488D01*
X28619Y-29460D01*
X28380Y-29460D01*
X27780Y-29460D01*
X27712Y-29488D01*
X27619Y-29450D01*
X27380Y-29450D01*
X26780Y-29450D01*
X26700Y-29483D01*
X26619Y-29450D01*
X26380Y-29450D01*
X25780Y-29450D01*
X25700Y-29483D01*
X25619Y-29450D01*
X25380Y-29450D01*
X24944Y-29450D01*
X24945Y-29266D01*
X24943Y-29261D01*
X24934Y-28580D01*
X24934Y-28580D01*
X29088Y-28580D01*
X29958Y-29450D01*
X29958Y-29450D01*
G37*
G54D34*
X29958Y-29450D02*
X29780Y-29450D01*
X29700Y-29483D01*
X29619Y-29450D01*
X29380Y-29450D01*
X28780Y-29450D01*
X28687Y-29488D01*
X28619Y-29460D01*
X28380Y-29460D01*
X27780Y-29460D01*
X27712Y-29488D01*
X27619Y-29450D01*
X27380Y-29450D01*
X26780Y-29450D01*
X26700Y-29483D01*
X26619Y-29450D01*
X26380Y-29450D01*
X25780Y-29450D01*
X25700Y-29483D01*
X25619Y-29450D01*
X25380Y-29450D01*
X24944Y-29450D01*
X24945Y-29266D01*
X24943Y-29261D01*
X24934Y-28580D01*
X24934Y-28580D01*
X29088Y-28580D01*
X29958Y-29450D01*
G54D10*
G36*
X30274Y-50007D02*
X30152Y-50129D01*
X30095Y-50072D01*
X30030Y-50007D01*
X30274Y-50007D01*
X30274Y-50007D01*
G37*
G54D34*
X30274Y-50007D02*
X30152Y-50129D01*
X30095Y-50072D01*
X30030Y-50007D01*
X30274Y-50007D01*
G54D10*
G36*
X30327Y-17639D02*
X30259Y-17667D01*
X30124Y-17532D01*
X29839Y-17414D01*
X29531Y-17413D01*
X29398Y-17468D01*
X29133Y-17468D01*
X28858Y-17523D01*
X28765Y-17585D01*
X28580Y-17508D01*
X28271Y-17508D01*
X28155Y-17556D01*
X27250Y-17556D01*
X27020Y-17460D01*
X27003Y-15971D01*
X27401Y-15971D01*
X30327Y-15971D01*
X30327Y-16141D01*
X30327Y-16295D01*
X30327Y-16295D01*
X30327Y-17639D01*
X30327Y-17639D01*
G37*
G54D34*
X30327Y-17639D02*
X30259Y-17667D01*
X30124Y-17532D01*
X29839Y-17414D01*
X29531Y-17413D01*
X29398Y-17468D01*
X29133Y-17468D01*
X28858Y-17523D01*
X28765Y-17585D01*
X28580Y-17508D01*
X28271Y-17508D01*
X28155Y-17556D01*
X27250Y-17556D01*
X27020Y-17460D01*
X27003Y-15971D01*
X27401Y-15971D01*
X30327Y-15971D01*
X30327Y-16141D01*
X30327Y-16295D01*
X30327Y-16295D01*
X30327Y-17639D01*
G54D10*
G36*
X30998Y-41675D02*
X30919Y-41754D01*
X30000Y-41754D01*
X29846Y-41754D01*
X29561Y-41872D01*
X29550Y-41883D01*
X29593Y-41778D01*
X29593Y-41677D01*
X30998Y-41675D01*
X30998Y-41675D01*
G37*
G54D34*
X30998Y-41675D02*
X30919Y-41754D01*
X30000Y-41754D01*
X29846Y-41754D01*
X29561Y-41872D01*
X29550Y-41883D01*
X29593Y-41778D01*
X29593Y-41677D01*
X30998Y-41675D01*
G54D10*
G36*
X32101Y-23610D02*
X26439Y-23610D01*
X26439Y-21936D01*
X23991Y-21936D01*
X24012Y-21916D01*
X24012Y-21916D01*
X24121Y-21807D01*
X24180Y-21664D01*
X24239Y-21522D01*
X24239Y-21368D01*
X24239Y-21368D01*
X24239Y-21368D01*
X24239Y-21214D01*
X24180Y-21071D01*
X24121Y-20929D01*
X24012Y-20820D01*
X23904Y-20711D01*
X23761Y-20652D01*
X23619Y-20593D01*
X23464Y-20593D01*
X23464Y-20593D01*
X23464Y-20593D01*
X23311Y-20592D01*
X23120Y-20671D01*
X20777Y-20671D01*
X20777Y-20671D01*
X20480Y-20730D01*
X20229Y-20898D01*
X20229Y-20898D01*
X19077Y-22050D01*
X19041Y-22105D01*
X18685Y-21748D01*
X18685Y-14633D01*
X18818Y-14633D01*
X18972Y-14633D01*
X19115Y-14574D01*
X19257Y-14515D01*
X19366Y-14406D01*
X19475Y-14297D01*
X19534Y-14154D01*
X19593Y-14013D01*
X19593Y-13858D01*
X19594Y-13704D01*
X19593Y-13704D01*
X19593Y-11205D01*
X19811Y-11205D01*
X19703Y-11463D01*
X19703Y-11841D01*
X19847Y-12190D01*
X20114Y-12458D01*
X20463Y-12603D01*
X20841Y-12603D01*
X21153Y-12474D01*
X21463Y-12603D01*
X21841Y-12603D01*
X22153Y-12474D01*
X22463Y-12603D01*
X22841Y-12603D01*
X23190Y-12459D01*
X23458Y-12192D01*
X23603Y-11843D01*
X23603Y-11465D01*
X23496Y-11205D01*
X23800Y-11205D01*
X24096Y-11146D01*
X24096Y-11146D01*
X24348Y-10978D01*
X24697Y-10628D01*
X24697Y-13522D01*
X24406Y-13231D01*
X24154Y-13063D01*
X23858Y-13004D01*
X23143Y-13004D01*
X23113Y-12974D01*
X22764Y-12829D01*
X22386Y-12829D01*
X22074Y-12958D01*
X21764Y-12829D01*
X21386Y-12829D01*
X21074Y-12958D01*
X20764Y-12829D01*
X20386Y-12829D01*
X20037Y-12973D01*
X19769Y-13240D01*
X19624Y-13589D01*
X19624Y-13967D01*
X19768Y-14316D01*
X20035Y-14584D01*
X20385Y-14729D01*
X20762Y-14729D01*
X21075Y-14600D01*
X21385Y-14729D01*
X21762Y-14729D01*
X22075Y-14600D01*
X22385Y-14729D01*
X22762Y-14729D01*
X23112Y-14585D01*
X23143Y-14554D01*
X23537Y-14554D01*
X24963Y-15981D01*
X25215Y-16149D01*
X25215Y-16149D01*
X25456Y-16197D01*
X25475Y-17921D01*
X25505Y-18065D01*
X25533Y-18209D01*
X25536Y-18213D01*
X25537Y-18217D01*
X25553Y-18241D01*
X25553Y-19871D01*
X25553Y-20025D01*
X25671Y-20310D01*
X25780Y-20420D01*
X25889Y-20528D01*
X26032Y-20588D01*
X26173Y-20646D01*
X26328Y-20647D01*
X26482Y-20647D01*
X26625Y-20588D01*
X26767Y-20529D01*
X26876Y-20420D01*
X26985Y-20311D01*
X27044Y-20168D01*
X27103Y-20026D01*
X27103Y-19872D01*
X27103Y-19718D01*
X27103Y-19718D01*
X27103Y-18937D01*
X27251Y-18876D01*
X27922Y-18876D01*
X27985Y-18940D01*
X28270Y-19058D01*
X28277Y-19058D01*
X28379Y-19160D01*
X28437Y-19184D01*
X28437Y-19366D01*
X28555Y-19651D01*
X28773Y-19869D01*
X29057Y-19987D01*
X29366Y-19987D01*
X29651Y-19869D01*
X29869Y-19652D01*
X29987Y-19367D01*
X29987Y-19356D01*
X30246Y-19098D01*
X30327Y-19132D01*
X30327Y-20758D01*
X30248Y-20947D01*
X30248Y-21255D01*
X30307Y-21398D01*
X30366Y-21540D01*
X30475Y-21650D01*
X30529Y-21704D01*
X30382Y-21851D01*
X30273Y-21960D01*
X30155Y-22245D01*
X30154Y-22553D01*
X30213Y-22696D01*
X30272Y-22838D01*
X30381Y-22948D01*
X30490Y-23056D01*
X30633Y-23116D01*
X30775Y-23174D01*
X30930Y-23175D01*
X31083Y-23175D01*
X31226Y-23116D01*
X31368Y-23057D01*
X31458Y-22967D01*
X31558Y-23068D01*
X31558Y-23068D01*
X32101Y-23610D01*
X32101Y-23610D01*
G37*
G54D34*
X32101Y-23610D02*
X26439Y-23610D01*
X26439Y-21936D01*
X23991Y-21936D01*
X24012Y-21916D01*
X24012Y-21916D01*
X24121Y-21807D01*
X24180Y-21664D01*
X24239Y-21522D01*
X24239Y-21368D01*
X24239Y-21368D01*
X24239Y-21368D01*
X24239Y-21214D01*
X24180Y-21071D01*
X24121Y-20929D01*
X24012Y-20820D01*
X23904Y-20711D01*
X23761Y-20652D01*
X23619Y-20593D01*
X23464Y-20593D01*
X23464Y-20593D01*
X23464Y-20593D01*
X23311Y-20592D01*
X23120Y-20671D01*
X20777Y-20671D01*
X20777Y-20671D01*
X20480Y-20730D01*
X20229Y-20898D01*
X20229Y-20898D01*
X19077Y-22050D01*
X19041Y-22105D01*
X18685Y-21748D01*
X18685Y-14633D01*
X18818Y-14633D01*
X18972Y-14633D01*
X19115Y-14574D01*
X19257Y-14515D01*
X19366Y-14406D01*
X19475Y-14297D01*
X19534Y-14154D01*
X19593Y-14013D01*
X19593Y-13858D01*
X19594Y-13704D01*
X19593Y-13704D01*
X19593Y-11205D01*
X19811Y-11205D01*
X19703Y-11463D01*
X19703Y-11841D01*
X19847Y-12190D01*
X20114Y-12458D01*
X20463Y-12603D01*
X20841Y-12603D01*
X21153Y-12474D01*
X21463Y-12603D01*
X21841Y-12603D01*
X22153Y-12474D01*
X22463Y-12603D01*
X22841Y-12603D01*
X23190Y-12459D01*
X23458Y-12192D01*
X23603Y-11843D01*
X23603Y-11465D01*
X23496Y-11205D01*
X23800Y-11205D01*
X24096Y-11146D01*
X24096Y-11146D01*
X24348Y-10978D01*
X24697Y-10628D01*
X24697Y-13522D01*
X24406Y-13231D01*
X24154Y-13063D01*
X23858Y-13004D01*
X23143Y-13004D01*
X23113Y-12974D01*
X22764Y-12829D01*
X22386Y-12829D01*
X22074Y-12958D01*
X21764Y-12829D01*
X21386Y-12829D01*
X21074Y-12958D01*
X20764Y-12829D01*
X20386Y-12829D01*
X20037Y-12973D01*
X19769Y-13240D01*
X19624Y-13589D01*
X19624Y-13967D01*
X19768Y-14316D01*
X20035Y-14584D01*
X20385Y-14729D01*
X20762Y-14729D01*
X21075Y-14600D01*
X21385Y-14729D01*
X21762Y-14729D01*
X22075Y-14600D01*
X22385Y-14729D01*
X22762Y-14729D01*
X23112Y-14585D01*
X23143Y-14554D01*
X23537Y-14554D01*
X24963Y-15981D01*
X25215Y-16149D01*
X25215Y-16149D01*
X25456Y-16197D01*
X25475Y-17921D01*
X25505Y-18065D01*
X25533Y-18209D01*
X25536Y-18213D01*
X25537Y-18217D01*
X25553Y-18241D01*
X25553Y-19871D01*
X25553Y-20025D01*
X25671Y-20310D01*
X25780Y-20420D01*
X25889Y-20528D01*
X26032Y-20588D01*
X26173Y-20646D01*
X26328Y-20647D01*
X26482Y-20647D01*
X26625Y-20588D01*
X26767Y-20529D01*
X26876Y-20420D01*
X26985Y-20311D01*
X27044Y-20168D01*
X27103Y-20026D01*
X27103Y-19872D01*
X27103Y-19718D01*
X27103Y-19718D01*
X27103Y-18937D01*
X27251Y-18876D01*
X27922Y-18876D01*
X27985Y-18940D01*
X28270Y-19058D01*
X28277Y-19058D01*
X28379Y-19160D01*
X28437Y-19184D01*
X28437Y-19366D01*
X28555Y-19651D01*
X28773Y-19869D01*
X29057Y-19987D01*
X29366Y-19987D01*
X29651Y-19869D01*
X29869Y-19652D01*
X29987Y-19367D01*
X29987Y-19356D01*
X30246Y-19098D01*
X30327Y-19132D01*
X30327Y-20758D01*
X30248Y-20947D01*
X30248Y-21255D01*
X30307Y-21398D01*
X30366Y-21540D01*
X30475Y-21650D01*
X30529Y-21704D01*
X30382Y-21851D01*
X30273Y-21960D01*
X30155Y-22245D01*
X30154Y-22553D01*
X30213Y-22696D01*
X30272Y-22838D01*
X30381Y-22948D01*
X30490Y-23056D01*
X30633Y-23116D01*
X30775Y-23174D01*
X30930Y-23175D01*
X31083Y-23175D01*
X31226Y-23116D01*
X31368Y-23057D01*
X31458Y-22967D01*
X31558Y-23068D01*
X31558Y-23068D01*
X32101Y-23610D01*
G54D10*
G36*
X32226Y-29460D02*
X31994Y-29460D01*
X31877Y-29177D01*
X31660Y-28959D01*
X31659Y-28959D01*
X29957Y-27257D01*
X29706Y-27089D01*
X29409Y-27030D01*
X27863Y-27030D01*
X28099Y-26932D01*
X28353Y-26679D01*
X28490Y-26349D01*
X28490Y-25991D01*
X28357Y-25668D01*
X28490Y-25349D01*
X28490Y-25050D01*
X30563Y-25050D01*
X30563Y-27155D01*
X30622Y-27452D01*
X30790Y-27703D01*
X32226Y-29139D01*
X32226Y-29460D01*
X32226Y-29460D01*
G37*
G54D34*
X32226Y-29460D02*
X31994Y-29460D01*
X31877Y-29177D01*
X31660Y-28959D01*
X31659Y-28959D01*
X29957Y-27257D01*
X29706Y-27089D01*
X29409Y-27030D01*
X27863Y-27030D01*
X28099Y-26932D01*
X28353Y-26679D01*
X28490Y-26349D01*
X28490Y-25991D01*
X28357Y-25668D01*
X28490Y-25349D01*
X28490Y-25050D01*
X30563Y-25050D01*
X30563Y-27155D01*
X30622Y-27452D01*
X30790Y-27703D01*
X32226Y-29139D01*
X32226Y-29460D01*
G54D10*
G36*
X32279Y-25991D02*
X32215Y-26017D01*
X32113Y-26119D01*
X32113Y-25050D01*
X32142Y-25050D01*
X32193Y-25101D01*
X32193Y-25669D01*
X32248Y-25944D01*
X32279Y-25991D01*
X32279Y-25991D01*
G37*
G54D34*
X32279Y-25991D02*
X32215Y-26017D01*
X32113Y-26119D01*
X32113Y-25050D01*
X32142Y-25050D01*
X32193Y-25101D01*
X32193Y-25669D01*
X32248Y-25944D01*
X32279Y-25991D01*
G54D10*
G36*
X32754Y-42037D02*
X32719Y-42214D01*
X32719Y-43472D01*
X32682Y-43472D01*
X32082Y-43472D01*
X31881Y-43555D01*
X31681Y-43472D01*
X31323Y-43471D01*
X31001Y-43605D01*
X30681Y-43472D01*
X30323Y-43471D01*
X30001Y-43605D01*
X29681Y-43472D01*
X29323Y-43471D01*
X29001Y-43605D01*
X28681Y-43472D01*
X28323Y-43471D01*
X28001Y-43605D01*
X27681Y-43472D01*
X27323Y-43471D01*
X27001Y-43605D01*
X26681Y-43472D01*
X26323Y-43471D01*
X26001Y-43605D01*
X25681Y-43472D01*
X25323Y-43471D01*
X25001Y-43605D01*
X24681Y-43472D01*
X24323Y-43471D01*
X24001Y-43605D01*
X23681Y-43472D01*
X23323Y-43471D01*
X22992Y-43608D01*
X22739Y-43861D01*
X22602Y-44192D01*
X22601Y-44550D01*
X22734Y-44872D01*
X22602Y-45192D01*
X22601Y-45550D01*
X22607Y-45563D01*
X19950Y-45563D01*
X19950Y-45563D01*
X19654Y-45622D01*
X19402Y-45790D01*
X19402Y-45790D01*
X18284Y-46908D01*
X18284Y-45243D01*
X18509Y-45243D01*
X18794Y-45125D01*
X19012Y-44908D01*
X19068Y-44774D01*
X21499Y-42344D01*
X25096Y-42344D01*
X25096Y-43287D01*
X27501Y-43287D01*
X27501Y-42344D01*
X28531Y-42344D01*
X28664Y-42398D01*
X28972Y-42399D01*
X29257Y-42281D01*
X29268Y-42270D01*
X29225Y-42374D01*
X29224Y-42683D01*
X29342Y-42967D01*
X29451Y-43077D01*
X29560Y-43186D01*
X29703Y-43245D01*
X29845Y-43304D01*
X30000Y-43304D01*
X30153Y-43304D01*
X30153Y-43304D01*
X31240Y-43304D01*
X31536Y-43245D01*
X31536Y-43245D01*
X31788Y-43077D01*
X32605Y-42260D01*
X32754Y-42037D01*
X32754Y-42037D01*
G37*
G54D34*
X32754Y-42037D02*
X32719Y-42214D01*
X32719Y-43472D01*
X32682Y-43472D01*
X32082Y-43472D01*
X31881Y-43555D01*
X31681Y-43472D01*
X31323Y-43471D01*
X31001Y-43605D01*
X30681Y-43472D01*
X30323Y-43471D01*
X30001Y-43605D01*
X29681Y-43472D01*
X29323Y-43471D01*
X29001Y-43605D01*
X28681Y-43472D01*
X28323Y-43471D01*
X28001Y-43605D01*
X27681Y-43472D01*
X27323Y-43471D01*
X27001Y-43605D01*
X26681Y-43472D01*
X26323Y-43471D01*
X26001Y-43605D01*
X25681Y-43472D01*
X25323Y-43471D01*
X25001Y-43605D01*
X24681Y-43472D01*
X24323Y-43471D01*
X24001Y-43605D01*
X23681Y-43472D01*
X23323Y-43471D01*
X22992Y-43608D01*
X22739Y-43861D01*
X22602Y-44192D01*
X22601Y-44550D01*
X22734Y-44872D01*
X22602Y-45192D01*
X22601Y-45550D01*
X22607Y-45563D01*
X19950Y-45563D01*
X19950Y-45563D01*
X19654Y-45622D01*
X19402Y-45790D01*
X19402Y-45790D01*
X18284Y-46908D01*
X18284Y-45243D01*
X18509Y-45243D01*
X18794Y-45125D01*
X19012Y-44908D01*
X19068Y-44774D01*
X21499Y-42344D01*
X25096Y-42344D01*
X25096Y-43287D01*
X27501Y-43287D01*
X27501Y-42344D01*
X28531Y-42344D01*
X28664Y-42398D01*
X28972Y-42399D01*
X29257Y-42281D01*
X29268Y-42270D01*
X29225Y-42374D01*
X29224Y-42683D01*
X29342Y-42967D01*
X29451Y-43077D01*
X29560Y-43186D01*
X29703Y-43245D01*
X29845Y-43304D01*
X30000Y-43304D01*
X30153Y-43304D01*
X30153Y-43304D01*
X31240Y-43304D01*
X31536Y-43245D01*
X31536Y-43245D01*
X31788Y-43077D01*
X32605Y-42260D01*
X32754Y-42037D01*
G54D10*
G36*
X33417Y-41194D02*
X32946Y-41666D01*
X32796Y-41889D01*
X32832Y-41712D01*
X32832Y-41099D01*
X33417Y-41099D01*
X33417Y-41194D01*
X33417Y-41194D01*
G37*
G54D34*
X33417Y-41194D02*
X32946Y-41666D01*
X32796Y-41889D01*
X32832Y-41712D01*
X32832Y-41099D01*
X33417Y-41099D01*
X33417Y-41194D01*
G54D10*
G36*
X33713Y-19500D02*
X33083Y-19500D01*
X33235Y-19272D01*
X33235Y-19272D01*
X33237Y-19261D01*
X33237Y-19261D01*
X33713Y-19261D01*
X33713Y-19500D01*
X33713Y-19500D01*
G37*
G54D34*
X33713Y-19500D02*
X33083Y-19500D01*
X33235Y-19272D01*
X33235Y-19272D01*
X33237Y-19261D01*
X33237Y-19261D01*
X33713Y-19261D01*
X33713Y-19500D01*
G54D10*
G36*
X33955Y-23272D02*
X32987Y-22305D01*
X33508Y-22305D01*
X33955Y-22751D01*
X33955Y-23272D01*
X33955Y-23272D01*
G37*
G54D34*
X33955Y-23272D02*
X32987Y-22305D01*
X33508Y-22305D01*
X33955Y-22751D01*
X33955Y-23272D01*
G54D10*
G36*
X35376Y-15985D02*
X35327Y-15865D01*
X35376Y-15746D01*
X35376Y-15985D01*
X35376Y-15985D01*
G37*
G54D34*
X35376Y-15985D02*
X35327Y-15865D01*
X35376Y-15746D01*
X35376Y-15985D01*
G54D10*
G36*
X35376Y-22029D02*
X35278Y-21881D01*
X34394Y-20998D01*
X34430Y-20991D01*
X34430Y-20991D01*
X34681Y-20823D01*
X35036Y-20469D01*
X35204Y-20217D01*
X35204Y-20217D01*
X35263Y-19921D01*
X35263Y-19261D01*
X35376Y-19261D01*
X35376Y-22029D01*
X35376Y-22029D01*
G37*
G54D34*
X35376Y-22029D02*
X35278Y-21881D01*
X34394Y-20998D01*
X34430Y-20991D01*
X34430Y-20991D01*
X34681Y-20823D01*
X35036Y-20469D01*
X35204Y-20217D01*
X35204Y-20217D01*
X35263Y-19921D01*
X35263Y-19261D01*
X35376Y-19261D01*
X35376Y-22029D01*
G54D10*
G36*
X35509Y-23005D02*
X35505Y-23005D01*
X35505Y-22998D01*
X35509Y-23005D01*
X35509Y-23005D01*
G37*
G54D34*
X35509Y-23005D02*
X35505Y-23005D01*
X35505Y-22998D01*
X35509Y-23005D01*
G54D10*
G36*
X36010Y-31250D02*
X35701Y-31558D01*
X35701Y-31558D01*
X35701Y-31559D01*
X35617Y-31684D01*
X35533Y-31809D01*
X35533Y-31810D01*
X35533Y-31810D01*
X35504Y-31958D01*
X35475Y-32106D01*
X35475Y-32106D01*
X35475Y-32107D01*
X35484Y-38580D01*
X35440Y-38580D01*
X34840Y-38580D01*
X34760Y-38613D01*
X34679Y-38580D01*
X34440Y-38580D01*
X33840Y-38580D01*
X33760Y-38613D01*
X33679Y-38580D01*
X33440Y-38580D01*
X32840Y-38580D01*
X32760Y-38613D01*
X32679Y-38580D01*
X32440Y-38580D01*
X31840Y-38580D01*
X31772Y-38608D01*
X31679Y-38570D01*
X31440Y-38570D01*
X30840Y-38570D01*
X30804Y-38584D01*
X30805Y-38276D01*
X30687Y-37991D01*
X30469Y-37773D01*
X30184Y-37655D01*
X29876Y-37654D01*
X29591Y-37772D01*
X29544Y-37820D01*
X29121Y-37820D01*
X29121Y-37612D01*
X29003Y-37327D01*
X28786Y-37109D01*
X28652Y-37053D01*
X28422Y-36823D01*
X28188Y-36667D01*
X27913Y-36612D01*
X14724Y-36612D01*
X14448Y-36667D01*
X14215Y-36823D01*
X12729Y-38309D01*
X12572Y-38543D01*
X12518Y-38818D01*
X12518Y-40738D01*
X12572Y-41013D01*
X12729Y-41247D01*
X13486Y-42005D01*
X13720Y-42161D01*
X13720Y-42161D01*
X13996Y-42216D01*
X16521Y-42216D01*
X16509Y-42275D01*
X16164Y-42620D01*
X16008Y-42854D01*
X15953Y-43129D01*
X15953Y-44181D01*
X15898Y-44313D01*
X15898Y-44621D01*
X16015Y-44906D01*
X16233Y-45125D01*
X16518Y-45243D01*
X16734Y-45243D01*
X16734Y-47484D01*
X16666Y-47650D01*
X16665Y-47876D01*
X12673Y-47876D01*
X11916Y-47119D01*
X11664Y-46951D01*
X11368Y-46892D01*
X10578Y-46892D01*
X10578Y-32338D01*
X12614Y-30302D01*
X14300Y-30302D01*
X14300Y-30511D01*
X14242Y-30511D01*
X14242Y-32579D01*
X16781Y-32579D01*
X16781Y-31250D01*
X17019Y-31250D01*
X17619Y-31250D01*
X17687Y-31221D01*
X17780Y-31260D01*
X18019Y-31260D01*
X18619Y-31260D01*
X18712Y-31221D01*
X18780Y-31250D01*
X19019Y-31250D01*
X19619Y-31250D01*
X19687Y-31221D01*
X19780Y-31260D01*
X20019Y-31260D01*
X20619Y-31260D01*
X20712Y-31221D01*
X20780Y-31250D01*
X21019Y-31250D01*
X21619Y-31250D01*
X21699Y-31216D01*
X21780Y-31250D01*
X22019Y-31250D01*
X22619Y-31250D01*
X22699Y-31216D01*
X22780Y-31250D01*
X23019Y-31250D01*
X23619Y-31250D01*
X23699Y-31216D01*
X23780Y-31250D01*
X24019Y-31250D01*
X24619Y-31250D01*
X24699Y-31216D01*
X24780Y-31250D01*
X25019Y-31250D01*
X25619Y-31250D01*
X25699Y-31216D01*
X25780Y-31250D01*
X26019Y-31250D01*
X26619Y-31250D01*
X26699Y-31216D01*
X26780Y-31250D01*
X27019Y-31250D01*
X27619Y-31250D01*
X27687Y-31221D01*
X27780Y-31260D01*
X28019Y-31260D01*
X28619Y-31260D01*
X28712Y-31221D01*
X28780Y-31250D01*
X29019Y-31250D01*
X29619Y-31250D01*
X29699Y-31216D01*
X29780Y-31250D01*
X30019Y-31250D01*
X30619Y-31250D01*
X30699Y-31216D01*
X30780Y-31250D01*
X31019Y-31250D01*
X31619Y-31250D01*
X31687Y-31221D01*
X31780Y-31260D01*
X32019Y-31260D01*
X32619Y-31260D01*
X32712Y-31221D01*
X32780Y-31250D01*
X33019Y-31250D01*
X33619Y-31250D01*
X33712Y-31211D01*
X33780Y-31240D01*
X34019Y-31240D01*
X34619Y-31240D01*
X34687Y-31211D01*
X34780Y-31250D01*
X35019Y-31250D01*
X35619Y-31250D01*
X35699Y-31216D01*
X35780Y-31250D01*
X36010Y-31250D01*
X36010Y-31250D01*
G37*
G54D34*
X36010Y-31250D02*
X35701Y-31558D01*
X35701Y-31558D01*
X35701Y-31559D01*
X35617Y-31684D01*
X35533Y-31809D01*
X35533Y-31810D01*
X35533Y-31810D01*
X35504Y-31958D01*
X35475Y-32106D01*
X35475Y-32106D01*
X35475Y-32107D01*
X35484Y-38580D01*
X35440Y-38580D01*
X34840Y-38580D01*
X34760Y-38613D01*
X34679Y-38580D01*
X34440Y-38580D01*
X33840Y-38580D01*
X33760Y-38613D01*
X33679Y-38580D01*
X33440Y-38580D01*
X32840Y-38580D01*
X32760Y-38613D01*
X32679Y-38580D01*
X32440Y-38580D01*
X31840Y-38580D01*
X31772Y-38608D01*
X31679Y-38570D01*
X31440Y-38570D01*
X30840Y-38570D01*
X30804Y-38584D01*
X30805Y-38276D01*
X30687Y-37991D01*
X30469Y-37773D01*
X30184Y-37655D01*
X29876Y-37654D01*
X29591Y-37772D01*
X29544Y-37820D01*
X29121Y-37820D01*
X29121Y-37612D01*
X29003Y-37327D01*
X28786Y-37109D01*
X28652Y-37053D01*
X28422Y-36823D01*
X28188Y-36667D01*
X27913Y-36612D01*
X14724Y-36612D01*
X14448Y-36667D01*
X14215Y-36823D01*
X12729Y-38309D01*
X12572Y-38543D01*
X12518Y-38818D01*
X12518Y-40738D01*
X12572Y-41013D01*
X12729Y-41247D01*
X13486Y-42005D01*
X13720Y-42161D01*
X13720Y-42161D01*
X13996Y-42216D01*
X16521Y-42216D01*
X16509Y-42275D01*
X16164Y-42620D01*
X16008Y-42854D01*
X15953Y-43129D01*
X15953Y-44181D01*
X15898Y-44313D01*
X15898Y-44621D01*
X16015Y-44906D01*
X16233Y-45125D01*
X16518Y-45243D01*
X16734Y-45243D01*
X16734Y-47484D01*
X16666Y-47650D01*
X16665Y-47876D01*
X12673Y-47876D01*
X11916Y-47119D01*
X11664Y-46951D01*
X11368Y-46892D01*
X10578Y-46892D01*
X10578Y-32338D01*
X12614Y-30302D01*
X14300Y-30302D01*
X14300Y-30511D01*
X14242Y-30511D01*
X14242Y-32579D01*
X16781Y-32579D01*
X16781Y-31250D01*
X17019Y-31250D01*
X17619Y-31250D01*
X17687Y-31221D01*
X17780Y-31260D01*
X18019Y-31260D01*
X18619Y-31260D01*
X18712Y-31221D01*
X18780Y-31250D01*
X19019Y-31250D01*
X19619Y-31250D01*
X19687Y-31221D01*
X19780Y-31260D01*
X20019Y-31260D01*
X20619Y-31260D01*
X20712Y-31221D01*
X20780Y-31250D01*
X21019Y-31250D01*
X21619Y-31250D01*
X21699Y-31216D01*
X21780Y-31250D01*
X22019Y-31250D01*
X22619Y-31250D01*
X22699Y-31216D01*
X22780Y-31250D01*
X23019Y-31250D01*
X23619Y-31250D01*
X23699Y-31216D01*
X23780Y-31250D01*
X24019Y-31250D01*
X24619Y-31250D01*
X24699Y-31216D01*
X24780Y-31250D01*
X25019Y-31250D01*
X25619Y-31250D01*
X25699Y-31216D01*
X25780Y-31250D01*
X26019Y-31250D01*
X26619Y-31250D01*
X26699Y-31216D01*
X26780Y-31250D01*
X27019Y-31250D01*
X27619Y-31250D01*
X27687Y-31221D01*
X27780Y-31260D01*
X28019Y-31260D01*
X28619Y-31260D01*
X28712Y-31221D01*
X28780Y-31250D01*
X29019Y-31250D01*
X29619Y-31250D01*
X29699Y-31216D01*
X29780Y-31250D01*
X30019Y-31250D01*
X30619Y-31250D01*
X30699Y-31216D01*
X30780Y-31250D01*
X31019Y-31250D01*
X31619Y-31250D01*
X31687Y-31221D01*
X31780Y-31260D01*
X32019Y-31260D01*
X32619Y-31260D01*
X32712Y-31221D01*
X32780Y-31250D01*
X33019Y-31250D01*
X33619Y-31250D01*
X33712Y-31211D01*
X33780Y-31240D01*
X34019Y-31240D01*
X34619Y-31240D01*
X34687Y-31211D01*
X34780Y-31250D01*
X35019Y-31250D01*
X35619Y-31250D01*
X35699Y-31216D01*
X35780Y-31250D01*
X36010Y-31250D01*
G54D10*
G36*
X37272Y-32428D02*
X37025Y-32675D01*
X37025Y-32428D01*
X37272Y-32428D01*
X37272Y-32428D01*
G37*
G54D34*
X37272Y-32428D02*
X37025Y-32675D01*
X37025Y-32428D01*
X37272Y-32428D01*
G54D10*
G36*
X37853Y-43127D02*
X37247Y-43733D01*
X37079Y-43984D01*
X37020Y-44281D01*
X37020Y-44846D01*
X36050Y-45815D01*
X36050Y-43127D01*
X37853Y-43127D01*
X37853Y-43127D01*
G37*
G54D34*
X37853Y-43127D02*
X37247Y-43733D01*
X37079Y-43984D01*
X37020Y-44281D01*
X37020Y-44846D01*
X36050Y-45815D01*
X36050Y-43127D01*
X37853Y-43127D01*
G54D10*
G36*
X38109Y-37620D02*
X37979Y-37620D01*
X37979Y-37491D01*
X38109Y-37620D01*
X38109Y-37620D01*
G37*
G54D34*
X38109Y-37620D02*
X37979Y-37620D01*
X37979Y-37491D01*
X38109Y-37620D01*
G54D10*
G36*
X38168Y-41099D02*
X37690Y-41577D01*
X35814Y-41577D01*
X35814Y-41099D01*
X38168Y-41099D01*
X38168Y-41099D01*
G37*
G54D34*
X38168Y-41099D02*
X37690Y-41577D01*
X35814Y-41577D01*
X35814Y-41099D01*
X38168Y-41099D01*
G54D10*
G36*
X38178Y-34835D02*
X38035Y-34893D01*
X37979Y-34949D01*
X37979Y-34835D01*
X38033Y-34835D01*
X38033Y-34835D01*
X38178Y-34835D01*
X38178Y-34835D01*
G37*
G54D34*
X38178Y-34835D02*
X38035Y-34893D01*
X37979Y-34949D01*
X37979Y-34835D01*
X38033Y-34835D01*
X38033Y-34835D01*
X38178Y-34835D01*
G54D10*
G36*
X40064Y-41099D02*
X39939Y-41124D01*
X39830Y-41197D01*
X39830Y-41099D01*
X40064Y-41099D01*
X40064Y-41099D01*
G37*
G54D34*
X40064Y-41099D02*
X39939Y-41124D01*
X39830Y-41197D01*
X39830Y-41099D01*
X40064Y-41099D01*
G54D10*
G36*
X41031Y-29450D02*
X40780Y-29450D01*
X40695Y-29485D01*
X40609Y-29450D01*
X40370Y-29450D01*
X39770Y-29450D01*
X39690Y-29483D01*
X39609Y-29450D01*
X39370Y-29450D01*
X38770Y-29450D01*
X38690Y-29483D01*
X38609Y-29450D01*
X38370Y-29450D01*
X37770Y-29450D01*
X37690Y-29483D01*
X37609Y-29450D01*
X37370Y-29450D01*
X36770Y-29450D01*
X36695Y-29481D01*
X36619Y-29450D01*
X36380Y-29450D01*
X35780Y-29450D01*
X35700Y-29483D01*
X35619Y-29450D01*
X35380Y-29450D01*
X34780Y-29450D01*
X34712Y-29478D01*
X34619Y-29440D01*
X34380Y-29440D01*
X33923Y-29440D01*
X33875Y-29325D01*
X33859Y-29308D01*
X40889Y-29308D01*
X41031Y-29450D01*
X41031Y-29450D01*
G37*
G54D34*
X41031Y-29450D02*
X40780Y-29450D01*
X40695Y-29485D01*
X40609Y-29450D01*
X40370Y-29450D01*
X39770Y-29450D01*
X39690Y-29483D01*
X39609Y-29450D01*
X39370Y-29450D01*
X38770Y-29450D01*
X38690Y-29483D01*
X38609Y-29450D01*
X38370Y-29450D01*
X37770Y-29450D01*
X37690Y-29483D01*
X37609Y-29450D01*
X37370Y-29450D01*
X36770Y-29450D01*
X36695Y-29481D01*
X36619Y-29450D01*
X36380Y-29450D01*
X35780Y-29450D01*
X35700Y-29483D01*
X35619Y-29450D01*
X35380Y-29450D01*
X34780Y-29450D01*
X34712Y-29478D01*
X34619Y-29440D01*
X34380Y-29440D01*
X33923Y-29440D01*
X33875Y-29325D01*
X33859Y-29308D01*
X40889Y-29308D01*
X41031Y-29450D01*
G54D10*
G36*
X42222Y-34784D02*
X42187Y-34960D01*
X42187Y-37941D01*
X42093Y-37847D01*
X41873Y-37700D01*
X41873Y-37700D01*
X41916Y-37595D01*
X41916Y-37440D01*
X41916Y-37287D01*
X41857Y-37144D01*
X41799Y-37002D01*
X41689Y-36892D01*
X41581Y-36784D01*
X41296Y-36666D01*
X40988Y-36665D01*
X40987Y-36665D01*
X39346Y-36665D01*
X39278Y-36598D01*
X39278Y-35580D01*
X39249Y-35432D01*
X39249Y-35432D01*
X39249Y-35397D01*
X39236Y-35364D01*
X39219Y-35284D01*
X39219Y-35284D01*
X39174Y-35216D01*
X39174Y-35216D01*
X39131Y-35112D01*
X39052Y-35032D01*
X39051Y-35032D01*
X39022Y-35003D01*
X39022Y-35003D01*
X38913Y-34894D01*
X38770Y-34835D01*
X38770Y-34835D01*
X41970Y-34835D01*
X42222Y-34784D01*
X42222Y-34784D01*
G37*
G54D34*
X42222Y-34784D02*
X42187Y-34960D01*
X42187Y-37941D01*
X42093Y-37847D01*
X41873Y-37700D01*
X41873Y-37700D01*
X41916Y-37595D01*
X41916Y-37440D01*
X41916Y-37287D01*
X41857Y-37144D01*
X41799Y-37002D01*
X41689Y-36892D01*
X41581Y-36784D01*
X41296Y-36666D01*
X40988Y-36665D01*
X40987Y-36665D01*
X39346Y-36665D01*
X39278Y-36598D01*
X39278Y-35580D01*
X39249Y-35432D01*
X39249Y-35432D01*
X39249Y-35397D01*
X39236Y-35364D01*
X39219Y-35284D01*
X39219Y-35284D01*
X39174Y-35216D01*
X39174Y-35216D01*
X39131Y-35112D01*
X39052Y-35032D01*
X39051Y-35032D01*
X39022Y-35003D01*
X39022Y-35003D01*
X38913Y-34894D01*
X38770Y-34835D01*
X38770Y-34835D01*
X41970Y-34835D01*
X42222Y-34784D01*
G54D10*
G36*
X43155Y-25905D02*
X43057Y-25905D01*
X43058Y-25902D01*
X43058Y-25807D01*
X43155Y-25905D01*
X43155Y-25905D01*
G37*
G54D34*
X43155Y-25905D02*
X43057Y-25905D01*
X43058Y-25902D01*
X43058Y-25807D01*
X43155Y-25905D01*
G54D10*
G36*
X43339Y-28005D02*
X42572Y-28772D01*
X42561Y-28788D01*
X41758Y-27985D01*
X41507Y-27817D01*
X41210Y-27758D01*
X33982Y-27758D01*
X33859Y-27635D01*
X33883Y-27635D01*
X34205Y-27502D01*
X34209Y-27497D01*
X34213Y-27501D01*
X34535Y-27634D01*
X34883Y-27635D01*
X35205Y-27502D01*
X35209Y-27497D01*
X35213Y-27501D01*
X35535Y-27634D01*
X35883Y-27635D01*
X36205Y-27502D01*
X36209Y-27497D01*
X36213Y-27501D01*
X36535Y-27634D01*
X36883Y-27635D01*
X37099Y-27545D01*
X37315Y-27635D01*
X37554Y-27635D01*
X38104Y-27635D01*
X38324Y-27543D01*
X38493Y-27374D01*
X38503Y-27350D01*
X38673Y-27521D01*
X38995Y-27654D01*
X39343Y-27655D01*
X39665Y-27522D01*
X39669Y-27517D01*
X39673Y-27521D01*
X39995Y-27654D01*
X40343Y-27655D01*
X40665Y-27522D01*
X40669Y-27517D01*
X40673Y-27521D01*
X40995Y-27654D01*
X41343Y-27655D01*
X41665Y-27522D01*
X41669Y-27517D01*
X41673Y-27521D01*
X41995Y-27654D01*
X42343Y-27655D01*
X42559Y-27565D01*
X42775Y-27655D01*
X43014Y-27655D01*
X43339Y-27655D01*
X43339Y-28005D01*
X43339Y-28005D01*
G37*
G54D34*
X43339Y-28005D02*
X42572Y-28772D01*
X42561Y-28788D01*
X41758Y-27985D01*
X41507Y-27817D01*
X41210Y-27758D01*
X33982Y-27758D01*
X33859Y-27635D01*
X33883Y-27635D01*
X34205Y-27502D01*
X34209Y-27497D01*
X34213Y-27501D01*
X34535Y-27634D01*
X34883Y-27635D01*
X35205Y-27502D01*
X35209Y-27497D01*
X35213Y-27501D01*
X35535Y-27634D01*
X35883Y-27635D01*
X36205Y-27502D01*
X36209Y-27497D01*
X36213Y-27501D01*
X36535Y-27634D01*
X36883Y-27635D01*
X37099Y-27545D01*
X37315Y-27635D01*
X37554Y-27635D01*
X38104Y-27635D01*
X38324Y-27543D01*
X38493Y-27374D01*
X38503Y-27350D01*
X38673Y-27521D01*
X38995Y-27654D01*
X39343Y-27655D01*
X39665Y-27522D01*
X39669Y-27517D01*
X39673Y-27521D01*
X39995Y-27654D01*
X40343Y-27655D01*
X40665Y-27522D01*
X40669Y-27517D01*
X40673Y-27521D01*
X40995Y-27654D01*
X41343Y-27655D01*
X41665Y-27522D01*
X41669Y-27517D01*
X41673Y-27521D01*
X41995Y-27654D01*
X42343Y-27655D01*
X42559Y-27565D01*
X42775Y-27655D01*
X43014Y-27655D01*
X43339Y-27655D01*
X43339Y-28005D01*
G54D10*
G36*
X47037Y-6155D02*
X47019Y-6151D01*
X47037Y-6151D01*
X47037Y-6155D01*
X47037Y-6155D01*
G37*
G54D34*
X47037Y-6155D02*
X47019Y-6151D01*
X47037Y-6151D01*
X47037Y-6155D01*
G54D10*
G36*
X47037Y-34546D02*
X44472Y-34546D01*
X45351Y-33668D01*
X45351Y-33668D01*
X45351Y-33668D01*
X45519Y-33416D01*
X45519Y-33416D01*
X45578Y-33120D01*
X45578Y-30921D01*
X46197Y-30301D01*
X46365Y-30050D01*
X46365Y-30050D01*
X46424Y-29753D01*
X46424Y-24901D01*
X46365Y-24604D01*
X46365Y-24604D01*
X46197Y-24353D01*
X44799Y-22955D01*
X44548Y-22787D01*
X44251Y-22728D01*
X43295Y-22728D01*
X43295Y-19938D01*
X43295Y-9667D01*
X40739Y-9667D01*
X40739Y-19938D01*
X43295Y-19938D01*
X43295Y-22728D01*
X38697Y-22728D01*
X38313Y-22345D01*
X38062Y-22177D01*
X37765Y-22118D01*
X36926Y-22118D01*
X36926Y-13690D01*
X36867Y-13394D01*
X36867Y-13394D01*
X36699Y-13142D01*
X35882Y-12326D01*
X35631Y-12158D01*
X35334Y-12099D01*
X31561Y-12099D01*
X31502Y-12040D01*
X31359Y-11980D01*
X31217Y-11921D01*
X30909Y-11921D01*
X30624Y-12039D01*
X30406Y-12257D01*
X30288Y-12542D01*
X30287Y-12850D01*
X30346Y-12993D01*
X30405Y-13135D01*
X30514Y-13244D01*
X30623Y-13353D01*
X30623Y-13353D01*
X30692Y-13422D01*
X30943Y-13590D01*
X30943Y-13590D01*
X31240Y-13649D01*
X35013Y-13649D01*
X35376Y-14011D01*
X35376Y-14985D01*
X35316Y-14840D01*
X35055Y-14578D01*
X34713Y-14436D01*
X34343Y-14435D01*
X34001Y-14577D01*
X33739Y-14838D01*
X33597Y-15180D01*
X33597Y-15550D01*
X33728Y-15866D01*
X33666Y-16013D01*
X33435Y-16013D01*
X33358Y-15826D01*
X33488Y-15512D01*
X33489Y-15142D01*
X33347Y-14800D01*
X33086Y-14538D01*
X32744Y-14396D01*
X32374Y-14396D01*
X32032Y-14537D01*
X31771Y-14799D01*
X31755Y-14836D01*
X31744Y-14818D01*
X31675Y-14704D01*
X31660Y-14693D01*
X31650Y-14678D01*
X31539Y-14604D01*
X31432Y-14525D01*
X31414Y-14520D01*
X31398Y-14510D01*
X31268Y-14484D01*
X31138Y-14452D01*
X30508Y-14422D01*
X30490Y-14425D01*
X30472Y-14421D01*
X27401Y-14421D01*
X26415Y-14421D01*
X26400Y-14385D01*
X26400Y-14385D01*
X26385Y-14309D01*
X26385Y-14309D01*
X26342Y-14245D01*
X26342Y-14245D01*
X26326Y-14207D01*
X26296Y-14177D01*
X26296Y-14177D01*
X26247Y-14103D01*
X26247Y-8294D01*
X32316Y-8294D01*
X32640Y-8618D01*
X32892Y-8786D01*
X32892Y-8786D01*
X32935Y-8795D01*
X32935Y-8795D01*
X34569Y-10429D01*
X34678Y-10538D01*
X34963Y-10656D01*
X35118Y-10656D01*
X35271Y-10657D01*
X35556Y-10539D01*
X35774Y-10321D01*
X35892Y-10036D01*
X35893Y-9881D01*
X35893Y-9728D01*
X35775Y-9443D01*
X35557Y-9225D01*
X35557Y-9225D01*
X33855Y-7522D01*
X33603Y-7354D01*
X33560Y-7346D01*
X33185Y-6971D01*
X32934Y-6803D01*
X32637Y-6744D01*
X25629Y-6744D01*
X25333Y-6803D01*
X25081Y-6971D01*
X25081Y-6971D01*
X24924Y-7129D01*
X24920Y-7134D01*
X24829Y-7043D01*
X24686Y-6983D01*
X24544Y-6925D01*
X24405Y-6925D01*
X24405Y-6560D01*
X24346Y-6263D01*
X24346Y-6263D01*
X24271Y-6151D01*
X44673Y-6151D01*
X44480Y-6192D01*
X44250Y-6781D01*
X44262Y-7414D01*
X44480Y-7941D01*
X44774Y-8004D01*
X44789Y-7989D01*
X44923Y-8124D01*
X44909Y-8139D01*
X44971Y-8432D01*
X45561Y-8663D01*
X46193Y-8651D01*
X46720Y-8432D01*
X46783Y-8139D01*
X46768Y-8124D01*
X46903Y-7989D01*
X46918Y-8004D01*
X47037Y-7978D01*
X47037Y-34546D01*
X47037Y-34546D01*
G37*
G54D34*
X47037Y-34546D02*
X44472Y-34546D01*
X45351Y-33668D01*
X45351Y-33668D01*
X45351Y-33668D01*
X45519Y-33416D01*
X45519Y-33416D01*
X45578Y-33120D01*
X45578Y-30921D01*
X46197Y-30301D01*
X46365Y-30050D01*
X46365Y-30050D01*
X46424Y-29753D01*
X46424Y-24901D01*
X46365Y-24604D01*
X46365Y-24604D01*
X46197Y-24353D01*
X44799Y-22955D01*
X44548Y-22787D01*
X44251Y-22728D01*
X43295Y-22728D01*
X43295Y-19938D01*
X43295Y-9667D01*
X40739Y-9667D01*
X40739Y-19938D01*
X43295Y-19938D01*
X43295Y-22728D01*
X38697Y-22728D01*
X38313Y-22345D01*
X38062Y-22177D01*
X37765Y-22118D01*
X36926Y-22118D01*
X36926Y-13690D01*
X36867Y-13394D01*
X36867Y-13394D01*
X36699Y-13142D01*
X35882Y-12326D01*
X35631Y-12158D01*
X35334Y-12099D01*
X31561Y-12099D01*
X31502Y-12040D01*
X31359Y-11980D01*
X31217Y-11921D01*
X30909Y-11921D01*
X30624Y-12039D01*
X30406Y-12257D01*
X30288Y-12542D01*
X30287Y-12850D01*
X30346Y-12993D01*
X30405Y-13135D01*
X30514Y-13244D01*
X30623Y-13353D01*
X30623Y-13353D01*
X30692Y-13422D01*
X30943Y-13590D01*
X30943Y-13590D01*
X31240Y-13649D01*
X35013Y-13649D01*
X35376Y-14011D01*
X35376Y-14985D01*
X35316Y-14840D01*
X35055Y-14578D01*
X34713Y-14436D01*
X34343Y-14435D01*
X34001Y-14577D01*
X33739Y-14838D01*
X33597Y-15180D01*
X33597Y-15550D01*
X33728Y-15866D01*
X33666Y-16013D01*
X33435Y-16013D01*
X33358Y-15826D01*
X33488Y-15512D01*
X33489Y-15142D01*
X33347Y-14800D01*
X33086Y-14538D01*
X32744Y-14396D01*
X32374Y-14396D01*
X32032Y-14537D01*
X31771Y-14799D01*
X31755Y-14836D01*
X31744Y-14818D01*
X31675Y-14704D01*
X31660Y-14693D01*
X31650Y-14678D01*
X31539Y-14604D01*
X31432Y-14525D01*
X31414Y-14520D01*
X31398Y-14510D01*
X31268Y-14484D01*
X31138Y-14452D01*
X30508Y-14422D01*
X30490Y-14425D01*
X30472Y-14421D01*
X27401Y-14421D01*
X26415Y-14421D01*
X26400Y-14385D01*
X26400Y-14385D01*
X26385Y-14309D01*
X26385Y-14309D01*
X26342Y-14245D01*
X26342Y-14245D01*
X26326Y-14207D01*
X26296Y-14177D01*
X26296Y-14177D01*
X26247Y-14103D01*
X26247Y-8294D01*
X32316Y-8294D01*
X32640Y-8618D01*
X32892Y-8786D01*
X32892Y-8786D01*
X32935Y-8795D01*
X32935Y-8795D01*
X34569Y-10429D01*
X34678Y-10538D01*
X34963Y-10656D01*
X35118Y-10656D01*
X35271Y-10657D01*
X35556Y-10539D01*
X35774Y-10321D01*
X35892Y-10036D01*
X35893Y-9881D01*
X35893Y-9728D01*
X35775Y-9443D01*
X35557Y-9225D01*
X35557Y-9225D01*
X33855Y-7522D01*
X33603Y-7354D01*
X33560Y-7346D01*
X33185Y-6971D01*
X32934Y-6803D01*
X32637Y-6744D01*
X25629Y-6744D01*
X25333Y-6803D01*
X25081Y-6971D01*
X25081Y-6971D01*
X24924Y-7129D01*
X24920Y-7134D01*
X24829Y-7043D01*
X24686Y-6983D01*
X24544Y-6925D01*
X24405Y-6925D01*
X24405Y-6560D01*
X24346Y-6263D01*
X24346Y-6263D01*
X24271Y-6151D01*
X44673Y-6151D01*
X44480Y-6192D01*
X44250Y-6781D01*
X44262Y-7414D01*
X44480Y-7941D01*
X44774Y-8004D01*
X44789Y-7989D01*
X44923Y-8124D01*
X44909Y-8139D01*
X44971Y-8432D01*
X45561Y-8663D01*
X46193Y-8651D01*
X46720Y-8432D01*
X46783Y-8139D01*
X46768Y-8124D01*
X46903Y-7989D01*
X46918Y-8004D01*
X47037Y-7978D01*
X47037Y-34546D01*
G54D10*
G36*
X47037Y-65116D02*
X47015Y-65094D01*
X47029Y-65079D01*
X46967Y-64785D01*
X46377Y-64555D01*
X45745Y-64567D01*
X45218Y-64785D01*
X45155Y-65079D01*
X45169Y-65094D01*
X45035Y-65228D01*
X45020Y-65214D01*
X44726Y-65277D01*
X44496Y-65866D01*
X44508Y-66498D01*
X44670Y-66890D01*
X31111Y-66890D01*
X31227Y-66783D01*
X31414Y-66381D01*
X31256Y-66216D01*
X31277Y-66109D01*
X31256Y-66002D01*
X31414Y-65837D01*
X31227Y-65435D01*
X30899Y-65134D01*
X30480Y-64982D01*
X30309Y-65159D01*
X30105Y-65159D01*
X29933Y-64982D01*
X29515Y-65134D01*
X29186Y-65435D01*
X28999Y-65837D01*
X29157Y-66002D01*
X29136Y-66109D01*
X29157Y-66216D01*
X28999Y-66381D01*
X29186Y-66783D01*
X29303Y-66890D01*
X28414Y-66890D01*
X28414Y-62686D01*
X28414Y-59872D01*
X21191Y-59872D01*
X21191Y-62686D01*
X28414Y-62686D01*
X28414Y-66890D01*
X20379Y-66890D01*
X20424Y-66833D01*
X20547Y-66404D01*
X20547Y-66104D01*
X20357Y-66104D01*
X20357Y-65914D01*
X20547Y-65914D01*
X20547Y-65614D01*
X20424Y-65184D01*
X20146Y-64835D01*
X19755Y-64619D01*
X19678Y-64601D01*
X19517Y-64756D01*
X19407Y-64734D01*
X19296Y-64756D01*
X19135Y-64601D01*
X19058Y-64619D01*
X18667Y-64835D01*
X18389Y-65184D01*
X18266Y-65614D01*
X18266Y-65914D01*
X18457Y-65914D01*
X18457Y-66104D01*
X18266Y-66104D01*
X18266Y-66404D01*
X18389Y-66833D01*
X18434Y-66890D01*
X11792Y-66890D01*
X11792Y-54348D01*
X11792Y-53781D01*
X11720Y-53421D01*
X11517Y-53116D01*
X11212Y-52913D01*
X10852Y-52841D01*
X10492Y-52913D01*
X10187Y-53116D01*
X9983Y-53421D01*
X9912Y-53781D01*
X9912Y-54348D01*
X9983Y-54708D01*
X10187Y-55013D01*
X10492Y-55216D01*
X10852Y-55288D01*
X11212Y-55216D01*
X11517Y-55013D01*
X11720Y-54708D01*
X11792Y-54348D01*
X11792Y-66890D01*
X10115Y-66890D01*
X10115Y-58419D01*
X9948Y-58015D01*
X9660Y-57727D01*
X9855Y-57646D01*
X10024Y-57477D01*
X10115Y-57257D01*
X10115Y-57018D01*
X10115Y-56018D01*
X10024Y-55797D01*
X9855Y-55629D01*
X9792Y-55602D01*
X9792Y-54348D01*
X9792Y-53781D01*
X9720Y-53421D01*
X9517Y-53116D01*
X9212Y-52913D01*
X8852Y-52841D01*
X8492Y-52913D01*
X8187Y-53116D01*
X7983Y-53421D01*
X7912Y-53781D01*
X7912Y-54348D01*
X7983Y-54708D01*
X8187Y-55013D01*
X8492Y-55216D01*
X8852Y-55288D01*
X9212Y-55216D01*
X9517Y-55013D01*
X9720Y-54708D01*
X9792Y-54348D01*
X9792Y-55602D01*
X9635Y-55537D01*
X9396Y-55537D01*
X8396Y-55537D01*
X8175Y-55629D01*
X8007Y-55797D01*
X7915Y-56018D01*
X7915Y-56257D01*
X7915Y-57257D01*
X8007Y-57477D01*
X8175Y-57646D01*
X8370Y-57727D01*
X8083Y-58013D01*
X7915Y-58418D01*
X7915Y-58855D01*
X8082Y-59260D01*
X8391Y-59569D01*
X8795Y-59737D01*
X9233Y-59737D01*
X9638Y-59570D01*
X9947Y-59261D01*
X10115Y-58857D01*
X10115Y-58419D01*
X10115Y-66890D01*
X8524Y-66890D01*
X8606Y-66808D01*
X8621Y-66823D01*
X8914Y-66760D01*
X9145Y-66171D01*
X9133Y-65538D01*
X8914Y-65011D01*
X8621Y-64948D01*
X8606Y-64963D01*
X8471Y-64828D01*
X8486Y-64813D01*
X8423Y-64520D01*
X7834Y-64289D01*
X7201Y-64301D01*
X6674Y-64520D01*
X6611Y-64813D01*
X6626Y-64828D01*
X6491Y-64963D01*
X6477Y-64948D01*
X6407Y-64963D01*
X6407Y-64267D01*
X7755Y-64267D01*
X7755Y-53744D01*
X6407Y-53744D01*
X6407Y-37342D01*
X6407Y-8467D01*
X6958Y-8683D01*
X7591Y-8670D01*
X8118Y-8452D01*
X8181Y-8158D01*
X8166Y-8143D01*
X8301Y-8009D01*
X8316Y-8023D01*
X8609Y-7961D01*
X8840Y-7371D01*
X8828Y-6739D01*
X8609Y-6212D01*
X8325Y-6151D01*
X11662Y-6151D01*
X11662Y-7558D01*
X12576Y-7558D01*
X12569Y-7575D01*
X12569Y-8013D01*
X12736Y-8417D01*
X13045Y-8727D01*
X13449Y-8895D01*
X13887Y-8895D01*
X14291Y-8728D01*
X14601Y-8419D01*
X14669Y-8255D01*
X14736Y-8417D01*
X15045Y-8727D01*
X15449Y-8895D01*
X15887Y-8895D01*
X16291Y-8728D01*
X16579Y-8440D01*
X16660Y-8635D01*
X16829Y-8803D01*
X17049Y-8895D01*
X17288Y-8895D01*
X17509Y-8895D01*
X17465Y-9120D01*
X17465Y-9708D01*
X17361Y-9811D01*
X17193Y-10063D01*
X17156Y-10253D01*
X17134Y-10245D01*
X16826Y-10244D01*
X16541Y-10362D01*
X16323Y-10580D01*
X16205Y-10865D01*
X16204Y-11173D01*
X16205Y-11173D01*
X16205Y-11559D01*
X15954Y-11455D01*
X15646Y-11454D01*
X15361Y-11572D01*
X15143Y-11790D01*
X15025Y-12075D01*
X15024Y-12383D01*
X15025Y-12383D01*
X15025Y-13743D01*
X14995Y-13815D01*
X14994Y-14123D01*
X15053Y-14266D01*
X15112Y-14408D01*
X15221Y-14518D01*
X15330Y-14626D01*
X15473Y-14686D01*
X15615Y-14744D01*
X15770Y-14745D01*
X15923Y-14745D01*
X16066Y-14686D01*
X16205Y-14628D01*
X16205Y-16668D01*
X15672Y-17201D01*
X15563Y-17310D01*
X15470Y-17534D01*
X15470Y-17502D01*
X15303Y-17097D01*
X15015Y-16809D01*
X15209Y-16728D01*
X15378Y-16559D01*
X15470Y-16339D01*
X15470Y-16100D01*
X15470Y-15100D01*
X15378Y-14880D01*
X15209Y-14711D01*
X14989Y-14620D01*
X14750Y-14620D01*
X13750Y-14620D01*
X13530Y-14711D01*
X13364Y-14876D01*
X13364Y-13439D01*
X11416Y-13439D01*
X11416Y-17100D01*
X11456Y-17100D01*
X11456Y-19650D01*
X13404Y-19650D01*
X13404Y-18264D01*
X13436Y-18342D01*
X13746Y-18651D01*
X14150Y-18819D01*
X14587Y-18820D01*
X14992Y-18653D01*
X15301Y-18343D01*
X15464Y-17951D01*
X15503Y-18046D01*
X15562Y-18188D01*
X15671Y-18298D01*
X15780Y-18406D01*
X15923Y-18466D01*
X16065Y-18524D01*
X16220Y-18525D01*
X16373Y-18525D01*
X16516Y-18466D01*
X16658Y-18407D01*
X16768Y-18298D01*
X16876Y-18189D01*
X16876Y-18189D01*
X17135Y-17931D01*
X17135Y-22070D01*
X17193Y-22366D01*
X17361Y-22618D01*
X18391Y-23647D01*
X18500Y-23756D01*
X18643Y-23816D01*
X18785Y-23874D01*
X18850Y-23874D01*
X18850Y-24477D01*
X18845Y-24471D01*
X18560Y-24353D01*
X18252Y-24352D01*
X18111Y-24410D01*
X18042Y-24382D01*
X17900Y-24323D01*
X17592Y-24323D01*
X17307Y-24441D01*
X17089Y-24658D01*
X16971Y-24943D01*
X16970Y-25251D01*
X17000Y-25323D01*
X17000Y-27647D01*
X17059Y-27944D01*
X17227Y-28195D01*
X17784Y-28752D01*
X12293Y-28752D01*
X12293Y-28752D01*
X11996Y-28811D01*
X11745Y-28979D01*
X9255Y-31469D01*
X9087Y-31721D01*
X9028Y-32017D01*
X9028Y-47667D01*
X9028Y-47876D01*
X8852Y-47841D01*
X8492Y-47913D01*
X8187Y-48116D01*
X7983Y-48421D01*
X7912Y-48781D01*
X7912Y-49348D01*
X7983Y-49708D01*
X8187Y-50013D01*
X8492Y-50216D01*
X8852Y-50288D01*
X9028Y-50253D01*
X9028Y-50816D01*
X9087Y-51113D01*
X9255Y-51364D01*
X10062Y-52172D01*
X10313Y-52340D01*
X10313Y-52340D01*
X10610Y-52399D01*
X10610Y-52399D01*
X10610Y-52399D01*
X12946Y-52399D01*
X14766Y-54218D01*
X14766Y-54947D01*
X14727Y-55042D01*
X14726Y-55350D01*
X14785Y-55493D01*
X14844Y-55635D01*
X14953Y-55744D01*
X15062Y-55853D01*
X15205Y-55912D01*
X15347Y-55971D01*
X15501Y-55971D01*
X15655Y-55971D01*
X15798Y-55912D01*
X15940Y-55854D01*
X16049Y-55744D01*
X16158Y-55636D01*
X16196Y-55545D01*
X16196Y-55545D01*
X16257Y-55454D01*
X16257Y-55454D01*
X16316Y-55157D01*
X16316Y-53897D01*
X16257Y-53601D01*
X16257Y-53601D01*
X16089Y-53349D01*
X16089Y-53349D01*
X13815Y-51076D01*
X13564Y-50908D01*
X13267Y-50849D01*
X10931Y-50849D01*
X10578Y-50495D01*
X10578Y-50233D01*
X10852Y-50288D01*
X11212Y-50216D01*
X11292Y-50163D01*
X11390Y-50262D01*
X11499Y-50371D01*
X11642Y-50430D01*
X11784Y-50489D01*
X11938Y-50489D01*
X12092Y-50489D01*
X12092Y-50489D01*
X13770Y-50489D01*
X13817Y-50509D01*
X13959Y-50568D01*
X14114Y-50568D01*
X14114Y-50568D01*
X14114Y-50568D01*
X14267Y-50568D01*
X14410Y-50509D01*
X14552Y-50450D01*
X14662Y-50341D01*
X14770Y-50232D01*
X14830Y-50089D01*
X14889Y-49948D01*
X14889Y-49793D01*
X14889Y-49793D01*
X14889Y-49793D01*
X14889Y-49639D01*
X14830Y-49496D01*
X14801Y-49426D01*
X17491Y-49426D01*
X17423Y-49589D01*
X17423Y-49897D01*
X17450Y-49963D01*
X17043Y-49963D01*
X17004Y-49924D01*
X17004Y-49924D01*
X16896Y-49815D01*
X16753Y-49756D01*
X16611Y-49697D01*
X16303Y-49697D01*
X16018Y-49815D01*
X15800Y-50032D01*
X15681Y-50317D01*
X15681Y-50625D01*
X15740Y-50769D01*
X15799Y-50910D01*
X15908Y-51020D01*
X16017Y-51129D01*
X16017Y-51129D01*
X16174Y-51286D01*
X16408Y-51442D01*
X16408Y-51442D01*
X16484Y-51518D01*
X16484Y-55539D01*
X16429Y-55671D01*
X16429Y-55980D01*
X16547Y-56265D01*
X16765Y-56483D01*
X16790Y-56493D01*
X15997Y-57286D01*
X14104Y-57286D01*
X14104Y-57286D01*
X13807Y-57345D01*
X13556Y-57513D01*
X13556Y-57513D01*
X12926Y-58142D01*
X12817Y-58251D01*
X12699Y-58536D01*
X12699Y-58844D01*
X12758Y-58987D01*
X12817Y-59129D01*
X12926Y-59238D01*
X13034Y-59347D01*
X13177Y-59406D01*
X13319Y-59465D01*
X13474Y-59465D01*
X13627Y-59466D01*
X13770Y-59406D01*
X13912Y-59348D01*
X14022Y-59238D01*
X14131Y-59130D01*
X14131Y-59130D01*
X14425Y-58836D01*
X16242Y-58836D01*
X16365Y-59134D01*
X16235Y-59448D01*
X16235Y-59818D01*
X16376Y-60159D01*
X16531Y-60315D01*
X16377Y-60468D01*
X16235Y-60810D01*
X16235Y-61180D01*
X16365Y-61496D01*
X16235Y-61810D01*
X16235Y-62180D01*
X16376Y-62522D01*
X16637Y-62784D01*
X16979Y-62925D01*
X17349Y-62926D01*
X17477Y-62873D01*
X19379Y-62873D01*
X19379Y-60683D01*
X19409Y-60683D01*
X19409Y-57623D01*
X17852Y-57623D01*
X18746Y-56729D01*
X18914Y-56477D01*
X18914Y-56477D01*
X18949Y-56305D01*
X19097Y-56453D01*
X19097Y-56453D01*
X19349Y-56621D01*
X19349Y-56621D01*
X19645Y-56680D01*
X24862Y-56680D01*
X24881Y-56680D01*
X26732Y-56680D01*
X27028Y-56621D01*
X27028Y-56621D01*
X27028Y-56621D01*
X27028Y-56621D01*
X28301Y-56621D01*
X28349Y-56670D01*
X28349Y-56670D01*
X28601Y-56838D01*
X28601Y-56838D01*
X28897Y-56897D01*
X29606Y-56897D01*
X29902Y-56838D01*
X29902Y-56838D01*
X30154Y-56670D01*
X30655Y-56169D01*
X30655Y-56169D01*
X30655Y-56169D01*
X30823Y-55917D01*
X30882Y-55621D01*
X30882Y-55621D01*
X30882Y-55621D01*
X30882Y-55209D01*
X30957Y-55028D01*
X30957Y-54790D01*
X30957Y-53790D01*
X30865Y-53569D01*
X30696Y-53400D01*
X30476Y-53309D01*
X30282Y-53309D01*
X30282Y-53050D01*
X30223Y-52753D01*
X30223Y-52753D01*
X30163Y-52665D01*
X30163Y-52665D01*
X30125Y-52573D01*
X30055Y-52502D01*
X30055Y-52502D01*
X30016Y-52463D01*
X30016Y-52463D01*
X29908Y-52355D01*
X29765Y-52295D01*
X29623Y-52236D01*
X29315Y-52236D01*
X29030Y-52354D01*
X28838Y-52545D01*
X28756Y-52463D01*
X28648Y-52355D01*
X28505Y-52295D01*
X28363Y-52236D01*
X28208Y-52236D01*
X28208Y-52236D01*
X28208Y-52236D01*
X28055Y-52236D01*
X27770Y-52354D01*
X27552Y-52572D01*
X27493Y-52713D01*
X27493Y-52713D01*
X27491Y-52716D01*
X27490Y-52721D01*
X27490Y-52721D01*
X27433Y-52856D01*
X27433Y-53005D01*
X27432Y-53013D01*
X27432Y-53309D01*
X27082Y-53309D01*
X27082Y-53116D01*
X27093Y-53087D01*
X27093Y-52933D01*
X27094Y-52779D01*
X26976Y-52494D01*
X26758Y-52276D01*
X26473Y-52158D01*
X26165Y-52157D01*
X25880Y-52275D01*
X25856Y-52299D01*
X25855Y-52298D01*
X25855Y-52298D01*
X25855Y-52298D01*
X25843Y-52286D01*
X25843Y-52286D01*
X25734Y-52178D01*
X25591Y-52118D01*
X25450Y-52059D01*
X25141Y-52059D01*
X24856Y-52177D01*
X24638Y-52395D01*
X24520Y-52679D01*
X24520Y-52988D01*
X24532Y-53017D01*
X24532Y-53309D01*
X24437Y-53309D01*
X24082Y-53309D01*
X24082Y-53115D01*
X24101Y-53068D01*
X24101Y-52913D01*
X24101Y-52913D01*
X24101Y-52913D01*
X24101Y-52759D01*
X24042Y-52616D01*
X23984Y-52474D01*
X23874Y-52365D01*
X23766Y-52256D01*
X23623Y-52197D01*
X23481Y-52138D01*
X23326Y-52138D01*
X23326Y-52138D01*
X23326Y-52138D01*
X23173Y-52138D01*
X22924Y-52241D01*
X22900Y-52217D01*
X22757Y-52158D01*
X22615Y-52099D01*
X22307Y-52098D01*
X22022Y-52216D01*
X21804Y-52434D01*
X21773Y-52507D01*
X21773Y-52507D01*
X21691Y-52630D01*
X21632Y-52927D01*
X21632Y-53309D01*
X21437Y-53309D01*
X20937Y-53309D01*
X20717Y-53400D01*
X20567Y-53550D01*
X20380Y-53482D01*
X20209Y-53659D01*
X20005Y-53659D01*
X19833Y-53482D01*
X19415Y-53634D01*
X19086Y-53935D01*
X18973Y-54177D01*
X18973Y-52549D01*
X18973Y-52549D01*
X18973Y-52395D01*
X18914Y-52252D01*
X18856Y-52110D01*
X18746Y-52001D01*
X18638Y-51892D01*
X18353Y-51774D01*
X18045Y-51774D01*
X17924Y-51823D01*
X17924Y-51513D01*
X22450Y-51513D01*
X22450Y-51513D01*
X22604Y-51513D01*
X22747Y-51454D01*
X22747Y-51454D01*
X22889Y-51395D01*
X22889Y-51395D01*
X24487Y-51395D01*
X24488Y-51395D01*
X24641Y-51395D01*
X24641Y-51395D01*
X28777Y-51395D01*
X28831Y-51664D01*
X28999Y-51916D01*
X29068Y-51985D01*
X29068Y-51985D01*
X29319Y-52153D01*
X29319Y-52153D01*
X29616Y-52212D01*
X31525Y-52212D01*
X31822Y-52153D01*
X31822Y-52153D01*
X32073Y-51985D01*
X38343Y-45715D01*
X38511Y-45463D01*
X38511Y-45463D01*
X38570Y-45167D01*
X38570Y-44602D01*
X40557Y-42615D01*
X42401Y-42615D01*
X42698Y-42556D01*
X42698Y-42556D01*
X42949Y-42388D01*
X43387Y-41950D01*
X43387Y-64016D01*
X47037Y-64016D01*
X47037Y-65116D01*
X47037Y-65116D01*
G37*
G54D34*
X47037Y-65116D02*
X47015Y-65094D01*
X47029Y-65079D01*
X46967Y-64785D01*
X46377Y-64555D01*
X45745Y-64567D01*
X45218Y-64785D01*
X45155Y-65079D01*
X45169Y-65094D01*
X45035Y-65228D01*
X45020Y-65214D01*
X44726Y-65277D01*
X44496Y-65866D01*
X44508Y-66498D01*
X44670Y-66890D01*
X31111Y-66890D01*
X31227Y-66783D01*
X31414Y-66381D01*
X31256Y-66216D01*
X31277Y-66109D01*
X31256Y-66002D01*
X31414Y-65837D01*
X31227Y-65435D01*
X30899Y-65134D01*
X30480Y-64982D01*
X30309Y-65159D01*
X30105Y-65159D01*
X29933Y-64982D01*
X29515Y-65134D01*
X29186Y-65435D01*
X28999Y-65837D01*
X29157Y-66002D01*
X29136Y-66109D01*
X29157Y-66216D01*
X28999Y-66381D01*
X29186Y-66783D01*
X29303Y-66890D01*
X28414Y-66890D01*
X28414Y-62686D01*
X28414Y-59872D01*
X21191Y-59872D01*
X21191Y-62686D01*
X28414Y-62686D01*
X28414Y-66890D01*
X20379Y-66890D01*
X20424Y-66833D01*
X20547Y-66404D01*
X20547Y-66104D01*
X20357Y-66104D01*
X20357Y-65914D01*
X20547Y-65914D01*
X20547Y-65614D01*
X20424Y-65184D01*
X20146Y-64835D01*
X19755Y-64619D01*
X19678Y-64601D01*
X19517Y-64756D01*
X19407Y-64734D01*
X19296Y-64756D01*
X19135Y-64601D01*
X19058Y-64619D01*
X18667Y-64835D01*
X18389Y-65184D01*
X18266Y-65614D01*
X18266Y-65914D01*
X18457Y-65914D01*
X18457Y-66104D01*
X18266Y-66104D01*
X18266Y-66404D01*
X18389Y-66833D01*
X18434Y-66890D01*
X11792Y-66890D01*
X11792Y-54348D01*
X11792Y-53781D01*
X11720Y-53421D01*
X11517Y-53116D01*
X11212Y-52913D01*
X10852Y-52841D01*
X10492Y-52913D01*
X10187Y-53116D01*
X9983Y-53421D01*
X9912Y-53781D01*
X9912Y-54348D01*
X9983Y-54708D01*
X10187Y-55013D01*
X10492Y-55216D01*
X10852Y-55288D01*
X11212Y-55216D01*
X11517Y-55013D01*
X11720Y-54708D01*
X11792Y-54348D01*
X11792Y-66890D01*
X10115Y-66890D01*
X10115Y-58419D01*
X9948Y-58015D01*
X9660Y-57727D01*
X9855Y-57646D01*
X10024Y-57477D01*
X10115Y-57257D01*
X10115Y-57018D01*
X10115Y-56018D01*
X10024Y-55797D01*
X9855Y-55629D01*
X9792Y-55602D01*
X9792Y-54348D01*
X9792Y-53781D01*
X9720Y-53421D01*
X9517Y-53116D01*
X9212Y-52913D01*
X8852Y-52841D01*
X8492Y-52913D01*
X8187Y-53116D01*
X7983Y-53421D01*
X7912Y-53781D01*
X7912Y-54348D01*
X7983Y-54708D01*
X8187Y-55013D01*
X8492Y-55216D01*
X8852Y-55288D01*
X9212Y-55216D01*
X9517Y-55013D01*
X9720Y-54708D01*
X9792Y-54348D01*
X9792Y-55602D01*
X9635Y-55537D01*
X9396Y-55537D01*
X8396Y-55537D01*
X8175Y-55629D01*
X8007Y-55797D01*
X7915Y-56018D01*
X7915Y-56257D01*
X7915Y-57257D01*
X8007Y-57477D01*
X8175Y-57646D01*
X8370Y-57727D01*
X8083Y-58013D01*
X7915Y-58418D01*
X7915Y-58855D01*
X8082Y-59260D01*
X8391Y-59569D01*
X8795Y-59737D01*
X9233Y-59737D01*
X9638Y-59570D01*
X9947Y-59261D01*
X10115Y-58857D01*
X10115Y-58419D01*
X10115Y-66890D01*
X8524Y-66890D01*
X8606Y-66808D01*
X8621Y-66823D01*
X8914Y-66760D01*
X9145Y-66171D01*
X9133Y-65538D01*
X8914Y-65011D01*
X8621Y-64948D01*
X8606Y-64963D01*
X8471Y-64828D01*
X8486Y-64813D01*
X8423Y-64520D01*
X7834Y-64289D01*
X7201Y-64301D01*
X6674Y-64520D01*
X6611Y-64813D01*
X6626Y-64828D01*
X6491Y-64963D01*
X6477Y-64948D01*
X6407Y-64963D01*
X6407Y-64267D01*
X7755Y-64267D01*
X7755Y-53744D01*
X6407Y-53744D01*
X6407Y-37342D01*
X6407Y-8467D01*
X6958Y-8683D01*
X7591Y-8670D01*
X8118Y-8452D01*
X8181Y-8158D01*
X8166Y-8143D01*
X8301Y-8009D01*
X8316Y-8023D01*
X8609Y-7961D01*
X8840Y-7371D01*
X8828Y-6739D01*
X8609Y-6212D01*
X8325Y-6151D01*
X11662Y-6151D01*
X11662Y-7558D01*
X12576Y-7558D01*
X12569Y-7575D01*
X12569Y-8013D01*
X12736Y-8417D01*
X13045Y-8727D01*
X13449Y-8895D01*
X13887Y-8895D01*
X14291Y-8728D01*
X14601Y-8419D01*
X14669Y-8255D01*
X14736Y-8417D01*
X15045Y-8727D01*
X15449Y-8895D01*
X15887Y-8895D01*
X16291Y-8728D01*
X16579Y-8440D01*
X16660Y-8635D01*
X16829Y-8803D01*
X17049Y-8895D01*
X17288Y-8895D01*
X17509Y-8895D01*
X17465Y-9120D01*
X17465Y-9708D01*
X17361Y-9811D01*
X17193Y-10063D01*
X17156Y-10253D01*
X17134Y-10245D01*
X16826Y-10244D01*
X16541Y-10362D01*
X16323Y-10580D01*
X16205Y-10865D01*
X16204Y-11173D01*
X16205Y-11173D01*
X16205Y-11559D01*
X15954Y-11455D01*
X15646Y-11454D01*
X15361Y-11572D01*
X15143Y-11790D01*
X15025Y-12075D01*
X15024Y-12383D01*
X15025Y-12383D01*
X15025Y-13743D01*
X14995Y-13815D01*
X14994Y-14123D01*
X15053Y-14266D01*
X15112Y-14408D01*
X15221Y-14518D01*
X15330Y-14626D01*
X15473Y-14686D01*
X15615Y-14744D01*
X15770Y-14745D01*
X15923Y-14745D01*
X16066Y-14686D01*
X16205Y-14628D01*
X16205Y-16668D01*
X15672Y-17201D01*
X15563Y-17310D01*
X15470Y-17534D01*
X15470Y-17502D01*
X15303Y-17097D01*
X15015Y-16809D01*
X15209Y-16728D01*
X15378Y-16559D01*
X15470Y-16339D01*
X15470Y-16100D01*
X15470Y-15100D01*
X15378Y-14880D01*
X15209Y-14711D01*
X14989Y-14620D01*
X14750Y-14620D01*
X13750Y-14620D01*
X13530Y-14711D01*
X13364Y-14876D01*
X13364Y-13439D01*
X11416Y-13439D01*
X11416Y-17100D01*
X11456Y-17100D01*
X11456Y-19650D01*
X13404Y-19650D01*
X13404Y-18264D01*
X13436Y-18342D01*
X13746Y-18651D01*
X14150Y-18819D01*
X14587Y-18820D01*
X14992Y-18653D01*
X15301Y-18343D01*
X15464Y-17951D01*
X15503Y-18046D01*
X15562Y-18188D01*
X15671Y-18298D01*
X15780Y-18406D01*
X15923Y-18466D01*
X16065Y-18524D01*
X16220Y-18525D01*
X16373Y-18525D01*
X16516Y-18466D01*
X16658Y-18407D01*
X16768Y-18298D01*
X16876Y-18189D01*
X16876Y-18189D01*
X17135Y-17931D01*
X17135Y-22070D01*
X17193Y-22366D01*
X17361Y-22618D01*
X18391Y-23647D01*
X18500Y-23756D01*
X18643Y-23816D01*
X18785Y-23874D01*
X18850Y-23874D01*
X18850Y-24477D01*
X18845Y-24471D01*
X18560Y-24353D01*
X18252Y-24352D01*
X18111Y-24410D01*
X18042Y-24382D01*
X17900Y-24323D01*
X17592Y-24323D01*
X17307Y-24441D01*
X17089Y-24658D01*
X16971Y-24943D01*
X16970Y-25251D01*
X17000Y-25323D01*
X17000Y-27647D01*
X17059Y-27944D01*
X17227Y-28195D01*
X17784Y-28752D01*
X12293Y-28752D01*
X12293Y-28752D01*
X11996Y-28811D01*
X11745Y-28979D01*
X9255Y-31469D01*
X9087Y-31721D01*
X9028Y-32017D01*
X9028Y-47667D01*
X9028Y-47876D01*
X8852Y-47841D01*
X8492Y-47913D01*
X8187Y-48116D01*
X7983Y-48421D01*
X7912Y-48781D01*
X7912Y-49348D01*
X7983Y-49708D01*
X8187Y-50013D01*
X8492Y-50216D01*
X8852Y-50288D01*
X9028Y-50253D01*
X9028Y-50816D01*
X9087Y-51113D01*
X9255Y-51364D01*
X10062Y-52172D01*
X10313Y-52340D01*
X10313Y-52340D01*
X10610Y-52399D01*
X10610Y-52399D01*
X10610Y-52399D01*
X12946Y-52399D01*
X14766Y-54218D01*
X14766Y-54947D01*
X14727Y-55042D01*
X14726Y-55350D01*
X14785Y-55493D01*
X14844Y-55635D01*
X14953Y-55744D01*
X15062Y-55853D01*
X15205Y-55912D01*
X15347Y-55971D01*
X15501Y-55971D01*
X15655Y-55971D01*
X15798Y-55912D01*
X15940Y-55854D01*
X16049Y-55744D01*
X16158Y-55636D01*
X16196Y-55545D01*
X16196Y-55545D01*
X16257Y-55454D01*
X16257Y-55454D01*
X16316Y-55157D01*
X16316Y-53897D01*
X16257Y-53601D01*
X16257Y-53601D01*
X16089Y-53349D01*
X16089Y-53349D01*
X13815Y-51076D01*
X13564Y-50908D01*
X13267Y-50849D01*
X10931Y-50849D01*
X10578Y-50495D01*
X10578Y-50233D01*
X10852Y-50288D01*
X11212Y-50216D01*
X11292Y-50163D01*
X11390Y-50262D01*
X11499Y-50371D01*
X11642Y-50430D01*
X11784Y-50489D01*
X11938Y-50489D01*
X12092Y-50489D01*
X12092Y-50489D01*
X13770Y-50489D01*
X13817Y-50509D01*
X13959Y-50568D01*
X14114Y-50568D01*
X14114Y-50568D01*
X14114Y-50568D01*
X14267Y-50568D01*
X14410Y-50509D01*
X14552Y-50450D01*
X14662Y-50341D01*
X14770Y-50232D01*
X14830Y-50089D01*
X14889Y-49948D01*
X14889Y-49793D01*
X14889Y-49793D01*
X14889Y-49793D01*
X14889Y-49639D01*
X14830Y-49496D01*
X14801Y-49426D01*
X17491Y-49426D01*
X17423Y-49589D01*
X17423Y-49897D01*
X17450Y-49963D01*
X17043Y-49963D01*
X17004Y-49924D01*
X17004Y-49924D01*
X16896Y-49815D01*
X16753Y-49756D01*
X16611Y-49697D01*
X16303Y-49697D01*
X16018Y-49815D01*
X15800Y-50032D01*
X15681Y-50317D01*
X15681Y-50625D01*
X15740Y-50769D01*
X15799Y-50910D01*
X15908Y-51020D01*
X16017Y-51129D01*
X16017Y-51129D01*
X16174Y-51286D01*
X16408Y-51442D01*
X16408Y-51442D01*
X16484Y-51518D01*
X16484Y-55539D01*
X16429Y-55671D01*
X16429Y-55980D01*
X16547Y-56265D01*
X16765Y-56483D01*
X16790Y-56493D01*
X15997Y-57286D01*
X14104Y-57286D01*
X14104Y-57286D01*
X13807Y-57345D01*
X13556Y-57513D01*
X13556Y-57513D01*
X12926Y-58142D01*
X12817Y-58251D01*
X12699Y-58536D01*
X12699Y-58844D01*
X12758Y-58987D01*
X12817Y-59129D01*
X12926Y-59238D01*
X13034Y-59347D01*
X13177Y-59406D01*
X13319Y-59465D01*
X13474Y-59465D01*
X13627Y-59466D01*
X13770Y-59406D01*
X13912Y-59348D01*
X14022Y-59238D01*
X14131Y-59130D01*
X14131Y-59130D01*
X14425Y-58836D01*
X16242Y-58836D01*
X16365Y-59134D01*
X16235Y-59448D01*
X16235Y-59818D01*
X16376Y-60159D01*
X16531Y-60315D01*
X16377Y-60468D01*
X16235Y-60810D01*
X16235Y-61180D01*
X16365Y-61496D01*
X16235Y-61810D01*
X16235Y-62180D01*
X16376Y-62522D01*
X16637Y-62784D01*
X16979Y-62925D01*
X17349Y-62926D01*
X17477Y-62873D01*
X19379Y-62873D01*
X19379Y-60683D01*
X19409Y-60683D01*
X19409Y-57623D01*
X17852Y-57623D01*
X18746Y-56729D01*
X18914Y-56477D01*
X18914Y-56477D01*
X18949Y-56305D01*
X19097Y-56453D01*
X19097Y-56453D01*
X19349Y-56621D01*
X19349Y-56621D01*
X19645Y-56680D01*
X24862Y-56680D01*
X24881Y-56680D01*
X26732Y-56680D01*
X27028Y-56621D01*
X27028Y-56621D01*
X27028Y-56621D01*
X27028Y-56621D01*
X28301Y-56621D01*
X28349Y-56670D01*
X28349Y-56670D01*
X28601Y-56838D01*
X28601Y-56838D01*
X28897Y-56897D01*
X29606Y-56897D01*
X29902Y-56838D01*
X29902Y-56838D01*
X30154Y-56670D01*
X30655Y-56169D01*
X30655Y-56169D01*
X30655Y-56169D01*
X30823Y-55917D01*
X30882Y-55621D01*
X30882Y-55621D01*
X30882Y-55621D01*
X30882Y-55209D01*
X30957Y-55028D01*
X30957Y-54790D01*
X30957Y-53790D01*
X30865Y-53569D01*
X30696Y-53400D01*
X30476Y-53309D01*
X30282Y-53309D01*
X30282Y-53050D01*
X30223Y-52753D01*
X30223Y-52753D01*
X30163Y-52665D01*
X30163Y-52665D01*
X30125Y-52573D01*
X30055Y-52502D01*
X30055Y-52502D01*
X30016Y-52463D01*
X30016Y-52463D01*
X29908Y-52355D01*
X29765Y-52295D01*
X29623Y-52236D01*
X29315Y-52236D01*
X29030Y-52354D01*
X28838Y-52545D01*
X28756Y-52463D01*
X28648Y-52355D01*
X28505Y-52295D01*
X28363Y-52236D01*
X28208Y-52236D01*
X28208Y-52236D01*
X28208Y-52236D01*
X28055Y-52236D01*
X27770Y-52354D01*
X27552Y-52572D01*
X27493Y-52713D01*
X27493Y-52713D01*
X27491Y-52716D01*
X27490Y-52721D01*
X27490Y-52721D01*
X27433Y-52856D01*
X27433Y-53005D01*
X27432Y-53013D01*
X27432Y-53309D01*
X27082Y-53309D01*
X27082Y-53116D01*
X27093Y-53087D01*
X27093Y-52933D01*
X27094Y-52779D01*
X26976Y-52494D01*
X26758Y-52276D01*
X26473Y-52158D01*
X26165Y-52157D01*
X25880Y-52275D01*
X25856Y-52299D01*
X25855Y-52298D01*
X25855Y-52298D01*
X25855Y-52298D01*
X25843Y-52286D01*
X25843Y-52286D01*
X25734Y-52178D01*
X25591Y-52118D01*
X25450Y-52059D01*
X25141Y-52059D01*
X24856Y-52177D01*
X24638Y-52395D01*
X24520Y-52679D01*
X24520Y-52988D01*
X24532Y-53017D01*
X24532Y-53309D01*
X24437Y-53309D01*
X24082Y-53309D01*
X24082Y-53115D01*
X24101Y-53068D01*
X24101Y-52913D01*
X24101Y-52913D01*
X24101Y-52913D01*
X24101Y-52759D01*
X24042Y-52616D01*
X23984Y-52474D01*
X23874Y-52365D01*
X23766Y-52256D01*
X23623Y-52197D01*
X23481Y-52138D01*
X23326Y-52138D01*
X23326Y-52138D01*
X23326Y-52138D01*
X23173Y-52138D01*
X22924Y-52241D01*
X22900Y-52217D01*
X22757Y-52158D01*
X22615Y-52099D01*
X22307Y-52098D01*
X22022Y-52216D01*
X21804Y-52434D01*
X21773Y-52507D01*
X21773Y-52507D01*
X21691Y-52630D01*
X21632Y-52927D01*
X21632Y-53309D01*
X21437Y-53309D01*
X20937Y-53309D01*
X20717Y-53400D01*
X20567Y-53550D01*
X20380Y-53482D01*
X20209Y-53659D01*
X20005Y-53659D01*
X19833Y-53482D01*
X19415Y-53634D01*
X19086Y-53935D01*
X18973Y-54177D01*
X18973Y-52549D01*
X18973Y-52549D01*
X18973Y-52395D01*
X18914Y-52252D01*
X18856Y-52110D01*
X18746Y-52001D01*
X18638Y-51892D01*
X18353Y-51774D01*
X18045Y-51774D01*
X17924Y-51823D01*
X17924Y-51513D01*
X22450Y-51513D01*
X22450Y-51513D01*
X22604Y-51513D01*
X22747Y-51454D01*
X22747Y-51454D01*
X22889Y-51395D01*
X22889Y-51395D01*
X24487Y-51395D01*
X24488Y-51395D01*
X24641Y-51395D01*
X24641Y-51395D01*
X28777Y-51395D01*
X28831Y-51664D01*
X28999Y-51916D01*
X29068Y-51985D01*
X29068Y-51985D01*
X29319Y-52153D01*
X29319Y-52153D01*
X29616Y-52212D01*
X31525Y-52212D01*
X31822Y-52153D01*
X31822Y-52153D01*
X32073Y-51985D01*
X38343Y-45715D01*
X38511Y-45463D01*
X38511Y-45463D01*
X38570Y-45167D01*
X38570Y-44602D01*
X40557Y-42615D01*
X42401Y-42615D01*
X42698Y-42556D01*
X42698Y-42556D01*
X42949Y-42388D01*
X43387Y-41950D01*
X43387Y-64016D01*
X47037Y-64016D01*
X47037Y-65116D01*
M02*
