M48
;DRILL file {Pcbnew (2013-mar-13)-testing} date Thu 18 Apr 2013 09:08:14 PM ART
;FORMAT={-:-/ absolute / inch / decimal}
FMAT,2
INCH,TZ
T1C0.031
T2C0.032
T3C0.035
T4C0.039
T5C0.091
T6C0.138
%
G90
G05
M72
T1
X6.758Y-4.458
X7.06Y-4.461
T2
X6.7163Y-4.76
X6.7163Y-4.86
X6.795Y-4.76
X6.795Y-4.86
X9.15Y-4.695
X9.25Y-4.695
T3
X8.7816Y-4.6916
X8.88Y-4.8884
X8.9784Y-4.6916
T4
X6.8039Y-4.2695
X6.9039Y-4.2695
X7.0039Y-4.2695
X7.1039Y-4.2695
X7.2039Y-4.2695
X7.28Y-4.74
X7.28Y-4.84
X7.3039Y-4.2695
X7.38Y-4.74
X7.38Y-4.84
X7.4039Y-4.2695
X7.48Y-4.74
X7.48Y-4.84
X7.5039Y-4.2695
X7.58Y-4.74
X7.58Y-4.84
X7.6039Y-4.2695
X7.68Y-4.74
X7.68Y-4.84
X7.7039Y-4.2695
X7.78Y-4.74
X7.78Y-4.84
X7.8039Y-4.2695
X7.88Y-4.74
X7.88Y-4.84
X7.9039Y-4.2695
X7.98Y-4.74
X7.98Y-4.84
X8.0039Y-4.2695
X8.08Y-4.74
X8.08Y-4.84
X8.1039Y-4.2695
X8.18Y-4.74
X8.18Y-4.84
X8.2039Y-4.2695
X8.3039Y-4.2695
X8.4039Y-4.2695
X8.5039Y-4.2695
X8.6039Y-4.2695
X8.7039Y-4.2695
T5
X6.61Y-4.5738
T6
X6.2527Y-1.7105
X6.2527Y-4.2695
X9.7173Y-1.7105
X9.7173Y-4.2695
T0
M30
