G04 (created by PCBNEW (2013-mar-13)-testing) date Mon 10 Jun 2013 15:49:23 ART*
%MOIN*%
G04 Gerber Fmt 3.4, Leading zero omitted, Abs format*
%FSLAX34Y34*%
G01*
G70*
G90*
G04 APERTURE LIST*
%ADD10C,0.005906*%
%ADD11R,0.075000X0.075000*%
%ADD12C,0.075000*%
%ADD13R,0.043600X0.075100*%
%ADD14R,0.055000X0.075000*%
%ADD15R,0.075000X0.055000*%
%ADD16R,0.051400X0.101000*%
%ADD17R,0.110000X0.082000*%
%ADD18O,0.110000X0.082000*%
%ADD19R,0.120000X0.120000*%
%ADD20C,0.120000*%
%ADD21R,0.094800X0.193200*%
%ADD22C,0.086000*%
%ADD23R,0.080000X0.080000*%
%ADD24C,0.080000*%
G04 APERTURE END LIST*
G54D10*
G54D11*
X58928Y-28547D03*
G54D12*
X58928Y-27547D03*
X57928Y-27547D03*
G54D11*
X57503Y-35022D03*
G54D12*
X58503Y-35022D03*
X58503Y-34022D03*
G54D13*
X53566Y-33485D03*
X53566Y-35585D03*
X53066Y-33485D03*
X52566Y-33485D03*
X52066Y-33485D03*
X53066Y-35585D03*
X52566Y-35585D03*
X52066Y-35585D03*
X46066Y-32960D03*
X46066Y-35060D03*
X45566Y-32960D03*
X45066Y-32960D03*
X44566Y-32960D03*
X45566Y-35060D03*
X45066Y-35060D03*
X44566Y-35060D03*
G54D14*
X70415Y-26785D03*
X71165Y-26785D03*
G54D15*
X45487Y-47376D03*
X45487Y-48126D03*
X46426Y-48121D03*
X46426Y-47371D03*
X53066Y-37410D03*
X53066Y-36660D03*
X53491Y-31535D03*
X53491Y-32285D03*
X44566Y-36735D03*
X44566Y-35985D03*
G54D14*
X59441Y-32335D03*
X58691Y-32335D03*
G54D15*
X44566Y-31260D03*
X44566Y-32010D03*
X60178Y-28497D03*
X60178Y-29247D03*
X58866Y-29685D03*
X58866Y-30435D03*
G54D14*
X59603Y-33347D03*
X60353Y-33347D03*
G54D15*
X52666Y-31535D03*
X52666Y-32285D03*
X52116Y-36685D03*
X52116Y-37435D03*
X45466Y-35960D03*
X45466Y-36710D03*
X46366Y-36685D03*
X46366Y-35935D03*
X45641Y-31235D03*
X45641Y-31985D03*
G54D14*
X47966Y-40035D03*
X47216Y-40035D03*
G54D15*
X53266Y-42810D03*
X53266Y-42060D03*
X46491Y-31235D03*
X46491Y-31985D03*
G54D14*
X47975Y-45500D03*
X47225Y-45500D03*
G54D16*
X54666Y-41127D03*
X55926Y-41127D03*
X56791Y-41127D03*
X57666Y-41127D03*
X57666Y-43543D03*
X56791Y-43543D03*
X55926Y-43543D03*
X54666Y-43543D03*
X54666Y-46652D03*
X55926Y-46652D03*
X56791Y-46652D03*
X57666Y-46652D03*
X57666Y-49068D03*
X56791Y-49068D03*
X55926Y-49068D03*
X54666Y-49068D03*
G54D17*
X47991Y-46910D03*
G54D18*
X47991Y-47910D03*
X47991Y-48910D03*
X50991Y-48910D03*
X50991Y-47910D03*
X50991Y-46910D03*
G54D17*
X47966Y-41410D03*
G54D18*
X47966Y-42410D03*
X47966Y-43410D03*
X50966Y-43410D03*
X50966Y-42410D03*
X50966Y-41410D03*
G54D10*
G36*
X71068Y-30550D02*
X71068Y-31931D01*
X70277Y-31931D01*
X70277Y-30550D01*
X71068Y-30550D01*
X71068Y-30550D01*
G37*
G36*
X72249Y-30550D02*
X72249Y-31931D01*
X71458Y-31931D01*
X71458Y-30550D01*
X72249Y-30550D01*
X72249Y-30550D01*
G37*
G36*
X72249Y-33109D02*
X72249Y-34491D01*
X71458Y-34491D01*
X71458Y-33109D01*
X72249Y-33109D01*
X72249Y-33109D01*
G37*
G36*
X71068Y-33109D02*
X71068Y-34491D01*
X70277Y-34491D01*
X70277Y-33109D01*
X71068Y-33109D01*
X71068Y-33109D01*
G37*
G54D19*
X75438Y-34072D03*
G54D20*
X75438Y-32072D03*
X75438Y-30072D03*
G54D19*
X75401Y-40760D03*
G54D20*
X75401Y-42760D03*
G54D19*
X75344Y-45596D03*
G54D20*
X75344Y-47596D03*
G54D19*
X75344Y-49927D03*
G54D20*
X75344Y-51927D03*
G54D21*
X62903Y-36654D03*
X62903Y-33229D03*
X62892Y-30468D03*
X62892Y-27043D03*
G54D15*
X60328Y-35222D03*
X60328Y-34472D03*
G54D11*
X50866Y-33435D03*
G54D12*
X50866Y-32435D03*
X50866Y-31435D03*
X50866Y-30435D03*
X47866Y-30435D03*
X47866Y-31435D03*
X47866Y-32435D03*
X47866Y-33435D03*
G54D11*
X50816Y-38360D03*
G54D12*
X50816Y-37360D03*
X50816Y-36360D03*
X50816Y-35360D03*
X47816Y-35360D03*
X47816Y-36360D03*
X47816Y-37360D03*
X47816Y-38360D03*
G54D15*
X53416Y-48210D03*
X53416Y-47460D03*
G54D19*
X75426Y-38560D03*
G54D20*
X75426Y-36560D03*
G54D15*
X54716Y-35985D03*
X54716Y-35235D03*
X51866Y-31535D03*
X51866Y-32285D03*
G54D22*
X56806Y-32305D03*
X55806Y-32305D03*
X56801Y-29555D03*
X55801Y-29555D03*
G54D19*
X51550Y-25750D03*
G54D20*
X53550Y-25750D03*
X55550Y-25750D03*
G54D21*
X67555Y-36637D03*
X67555Y-33212D03*
X67520Y-30522D03*
X67520Y-27097D03*
G54D15*
X45902Y-54557D03*
X45902Y-55307D03*
X46816Y-55291D03*
X46816Y-54541D03*
G54D19*
X44050Y-54550D03*
G54D20*
X44050Y-56550D03*
X44050Y-58550D03*
G54D15*
X46106Y-61155D03*
X46106Y-61905D03*
X47142Y-61891D03*
X47142Y-61141D03*
G54D19*
X44210Y-60860D03*
G54D20*
X44210Y-62860D03*
X44210Y-64860D03*
G54D23*
X44080Y-40046D03*
G54D24*
X45080Y-40046D03*
X44080Y-41046D03*
X45080Y-41046D03*
X44080Y-42046D03*
X45080Y-42046D03*
X44080Y-43046D03*
X45080Y-43046D03*
X44080Y-44046D03*
X45080Y-44046D03*
G54D11*
X44130Y-45410D03*
G54D12*
X44130Y-46410D03*
X44130Y-47410D03*
X44130Y-48410D03*
G54D19*
X44000Y-50200D03*
G54D20*
X44000Y-52200D03*
M02*
