M48
;DRILL file {Pcbnew (2013-mar-13)-testing} date Wed 12 Jun 2013 15:08:09 ART
;FORMAT={-:-/ absolute / metric / decimal}
FMAT,2
METRIC,TZ
T1C0.635
T2C0.813
T3C0.813
T4C1.001
T5C1.016
T6C1.524
T7C3.048
%
G90
G05
M71
T1
X106.07Y-118.415
X109.525Y-108.077
X109.652Y-102.743
X109.906Y-118.237
X110.82Y-96.012
X114.554Y-134.849
X115.265Y-95.098
X116.307Y-103.988
X116.637Y-125.501
X117.373Y-109.804
X117.475Y-107.188
X118.008Y-98.958
X118.161Y-133.528
X119.355Y-151.892
X119.405Y-118.567
X120.929Y-135.026
X123.19Y-87.249
X127.25Y-66.275
X131.2Y-70.25
T2
X121.453Y-89.814
X121.453Y-92.354
X121.453Y-94.894
X121.453Y-97.434
X121.58Y-77.305
X121.58Y-79.845
X121.58Y-82.385
X121.58Y-84.925
X121.834Y-105.181
X121.834Y-107.721
X121.834Y-110.261
X121.897Y-119.151
X121.897Y-121.691
X121.897Y-124.231
X129.073Y-89.814
X129.073Y-92.354
X129.073Y-94.894
X129.073Y-97.434
X129.2Y-77.305
X129.2Y-79.845
X129.2Y-82.385
X129.2Y-84.925
X129.454Y-105.181
X129.454Y-107.721
X129.454Y-110.261
X129.517Y-119.151
X129.517Y-121.691
X129.517Y-124.231
X146.059Y-88.957
X147.138Y-69.971
X148.599Y-86.417
X148.599Y-88.957
X149.678Y-69.971
X149.678Y-72.511
T3
X112.09Y-115.341
X112.09Y-117.881
X112.09Y-120.421
X112.09Y-122.961
X141.735Y-75.07
X141.747Y-82.055
X144.275Y-75.07
X144.287Y-82.055
T4
X129.775Y-72.605
X130.975Y-100.355
X137.575Y-93.455
X138.225Y-72.655
X140.975Y-88.205
X143.551Y-95.275
X147.615Y-84.29
X151.925Y-77.955
X166.624Y-80.975
X181.978Y-70.879
T5
X111.963Y-101.717
X111.963Y-104.257
X111.963Y-106.797
X111.963Y-109.337
X111.963Y-111.877
X114.503Y-101.717
X114.503Y-104.257
X114.503Y-106.797
X114.503Y-109.337
X114.503Y-111.877
T6
X111.76Y-127.508
X111.76Y-132.588
X111.887Y-138.557
X111.887Y-143.637
X111.887Y-148.717
X112.293Y-154.584
X112.293Y-159.664
X112.293Y-164.744
X130.937Y-65.405
X136.017Y-65.405
X141.097Y-65.405
X191.375Y-115.815
X191.375Y-120.895
X191.375Y-126.815
X191.375Y-131.895
X191.519Y-103.53
X191.519Y-108.61
X191.582Y-92.862
X191.582Y-97.942
X191.614Y-76.384
X191.614Y-81.464
X191.614Y-86.544
T7
X105.075Y-163.225
X105.775Y-81.275
X196.55Y-164.025
X196.975Y-62.425
T0
M30
