G04 (created by PCBNEW (2013-mar-13)-testing) date Wed 12 Jun 2013 15:08:07 ART*
%MOIN*%
G04 Gerber Fmt 3.4, Leading zero omitted, Abs format*
%FSLAX34Y34*%
G01*
G70*
G90*
G04 APERTURE LIST*
%ADD10C,0.005000*%
%ADD11C,0.015000*%
%ADD12C,0.007874*%
%ADD13C,0.011811*%
G04 APERTURE END LIST*
G54D10*
G54D11*
X40000Y-66000D02*
X79000Y-66000D01*
X79000Y-23000D02*
X40000Y-23000D01*
X40000Y-23000D02*
X40000Y-66000D01*
X79000Y-66000D02*
X79000Y-23000D01*
G54D12*
X41635Y-46495D02*
X41885Y-46745D01*
X41885Y-46495D02*
X41635Y-46745D01*
X42995Y-42425D02*
X43245Y-42675D01*
X43245Y-42425D02*
X42995Y-42675D01*
X43045Y-40325D02*
X43295Y-40575D01*
X43295Y-40325D02*
X43045Y-40575D01*
X43145Y-46425D02*
X43395Y-46675D01*
X43395Y-46425D02*
X43145Y-46675D01*
X43505Y-37675D02*
X43755Y-37925D01*
X43755Y-37675D02*
X43505Y-37925D01*
X44975Y-52965D02*
X45225Y-53215D01*
X45225Y-52965D02*
X44975Y-53215D01*
X45255Y-37315D02*
X45505Y-37565D01*
X45505Y-37315D02*
X45255Y-37565D01*
X45665Y-40815D02*
X45915Y-41065D01*
X45915Y-40815D02*
X45665Y-41065D01*
X45795Y-49285D02*
X46045Y-49535D01*
X46045Y-49285D02*
X45795Y-49535D01*
X46085Y-43105D02*
X46335Y-43355D01*
X46335Y-43105D02*
X46085Y-43355D01*
X46125Y-42075D02*
X46375Y-42325D01*
X46375Y-42075D02*
X46125Y-42325D01*
X46335Y-38835D02*
X46585Y-39085D01*
X46585Y-38835D02*
X46335Y-39085D01*
X46395Y-52445D02*
X46645Y-52695D01*
X46645Y-52445D02*
X46395Y-52695D01*
X46865Y-59675D02*
X47115Y-59925D01*
X47115Y-59675D02*
X46865Y-59925D01*
X46885Y-46555D02*
X47135Y-46805D01*
X47135Y-46555D02*
X46885Y-46805D01*
X47485Y-53035D02*
X47735Y-53285D01*
X47735Y-53035D02*
X47485Y-53285D01*
X48375Y-34225D02*
X48625Y-34475D01*
X48625Y-34225D02*
X48375Y-34475D01*
X49973Y-25967D02*
X50223Y-26217D01*
X50223Y-25967D02*
X49973Y-26217D01*
X51528Y-27532D02*
X51778Y-27782D01*
X51778Y-27532D02*
X51528Y-27782D01*
X47975Y-35360D02*
G75*
G03X47975Y-35360I-159J0D01*
G74*
G01*
X47975Y-36360D02*
G75*
G03X47975Y-36360I-159J0D01*
G74*
G01*
X47975Y-37360D02*
G75*
G03X47975Y-37360I-159J0D01*
G74*
G01*
X47975Y-38360D02*
G75*
G03X47975Y-38360I-159J0D01*
G74*
G01*
X48025Y-30435D02*
G75*
G03X48025Y-30435I-159J0D01*
G74*
G01*
X48025Y-31435D02*
G75*
G03X48025Y-31435I-159J0D01*
G74*
G01*
X48025Y-32435D02*
G75*
G03X48025Y-32435I-159J0D01*
G74*
G01*
X48025Y-33435D02*
G75*
G03X48025Y-33435I-159J0D01*
G74*
G01*
X48125Y-41410D02*
G75*
G03X48125Y-41410I-159J0D01*
G74*
G01*
X48125Y-42410D02*
G75*
G03X48125Y-42410I-159J0D01*
G74*
G01*
X48125Y-43410D02*
G75*
G03X48125Y-43410I-159J0D01*
G74*
G01*
X48150Y-46910D02*
G75*
G03X48150Y-46910I-159J0D01*
G74*
G01*
X48150Y-47910D02*
G75*
G03X48150Y-47910I-159J0D01*
G74*
G01*
X48150Y-48910D02*
G75*
G03X48150Y-48910I-159J0D01*
G74*
G01*
X50975Y-35360D02*
G75*
G03X50975Y-35360I-159J0D01*
G74*
G01*
X50975Y-36360D02*
G75*
G03X50975Y-36360I-159J0D01*
G74*
G01*
X50975Y-37360D02*
G75*
G03X50975Y-37360I-159J0D01*
G74*
G01*
X50975Y-38360D02*
G75*
G03X50975Y-38360I-159J0D01*
G74*
G01*
X51025Y-30435D02*
G75*
G03X51025Y-30435I-159J0D01*
G74*
G01*
X51025Y-31435D02*
G75*
G03X51025Y-31435I-159J0D01*
G74*
G01*
X51025Y-32435D02*
G75*
G03X51025Y-32435I-159J0D01*
G74*
G01*
X51025Y-33435D02*
G75*
G03X51025Y-33435I-159J0D01*
G74*
G01*
X51125Y-41410D02*
G75*
G03X51125Y-41410I-159J0D01*
G74*
G01*
X51125Y-42410D02*
G75*
G03X51125Y-42410I-159J0D01*
G74*
G01*
X51125Y-43410D02*
G75*
G03X51125Y-43410I-159J0D01*
G74*
G01*
X51150Y-46910D02*
G75*
G03X51150Y-46910I-159J0D01*
G74*
G01*
X51150Y-47910D02*
G75*
G03X51150Y-47910I-159J0D01*
G74*
G01*
X51150Y-48910D02*
G75*
G03X51150Y-48910I-159J0D01*
G74*
G01*
X57663Y-35022D02*
G75*
G03X57663Y-35022I-159J0D01*
G74*
G01*
X58088Y-27547D02*
G75*
G03X58088Y-27547I-159J0D01*
G74*
G01*
X58663Y-34022D02*
G75*
G03X58663Y-34022I-159J0D01*
G74*
G01*
X58663Y-35022D02*
G75*
G03X58663Y-35022I-159J0D01*
G74*
G01*
X59088Y-27547D02*
G75*
G03X59088Y-27547I-159J0D01*
G74*
G01*
X59088Y-28547D02*
G75*
G03X59088Y-28547I-159J0D01*
G74*
G01*
X44130Y-45250D02*
X44130Y-45570D01*
X43970Y-45410D02*
X44290Y-45410D01*
X44130Y-46250D02*
X44130Y-46570D01*
X43970Y-46410D02*
X44290Y-46410D01*
X44130Y-47250D02*
X44130Y-47570D01*
X43970Y-47410D02*
X44290Y-47410D01*
X44130Y-48250D02*
X44130Y-48570D01*
X43970Y-48410D02*
X44290Y-48410D01*
X55801Y-29395D02*
X55801Y-29715D01*
X55641Y-29555D02*
X55961Y-29555D01*
X55806Y-32145D02*
X55806Y-32465D01*
X55646Y-32305D02*
X55966Y-32305D01*
X56801Y-29395D02*
X56801Y-29715D01*
X56641Y-29555D02*
X56961Y-29555D01*
X56806Y-32145D02*
X56806Y-32465D01*
X56646Y-32305D02*
X56966Y-32305D01*
X51231Y-28723D02*
X51231Y-28445D01*
X50953Y-28445D01*
X50953Y-28723D01*
X51231Y-28723D01*
X51704Y-39649D02*
X51704Y-39370D01*
X51425Y-39370D01*
X51425Y-39649D01*
X51704Y-39649D01*
X54302Y-36932D02*
X54302Y-36654D01*
X54024Y-36654D01*
X54024Y-36932D01*
X54302Y-36932D01*
X54558Y-28743D02*
X54558Y-28465D01*
X54279Y-28465D01*
X54279Y-28743D01*
X54558Y-28743D01*
X55641Y-34865D02*
X55641Y-34587D01*
X55362Y-34587D01*
X55362Y-34865D01*
X55641Y-34865D01*
X56655Y-37649D02*
X56655Y-37370D01*
X56376Y-37370D01*
X56376Y-37649D01*
X56655Y-37649D01*
X58255Y-33324D02*
X58255Y-33045D01*
X57976Y-33045D01*
X57976Y-33324D01*
X58255Y-33324D01*
X59952Y-30830D02*
X59952Y-30551D01*
X59673Y-30551D01*
X59673Y-30830D01*
X59952Y-30830D01*
X65739Y-32019D02*
X65739Y-31740D01*
X65460Y-31740D01*
X65460Y-32019D01*
X65739Y-32019D01*
X71784Y-28044D02*
X71784Y-27765D01*
X71505Y-27765D01*
X71505Y-28044D01*
X71784Y-28044D01*
X44080Y-40246D02*
X44280Y-40046D01*
X44080Y-39846D01*
X43880Y-40046D01*
X44080Y-40246D01*
X44080Y-41246D02*
X44280Y-41046D01*
X44080Y-40846D01*
X43880Y-41046D01*
X44080Y-41246D01*
X44080Y-42246D02*
X44280Y-42046D01*
X44080Y-41846D01*
X43880Y-42046D01*
X44080Y-42246D01*
X44080Y-43246D02*
X44280Y-43046D01*
X44080Y-42846D01*
X43880Y-43046D01*
X44080Y-43246D01*
X44080Y-44246D02*
X44280Y-44046D01*
X44080Y-43846D01*
X43880Y-44046D01*
X44080Y-44246D01*
X45080Y-40246D02*
X45280Y-40046D01*
X45080Y-39846D01*
X44880Y-40046D01*
X45080Y-40246D01*
X45080Y-41246D02*
X45280Y-41046D01*
X45080Y-40846D01*
X44880Y-41046D01*
X45080Y-41246D01*
X45080Y-42246D02*
X45280Y-42046D01*
X45080Y-41846D01*
X44880Y-42046D01*
X45080Y-42246D01*
X45080Y-43246D02*
X45280Y-43046D01*
X45080Y-42846D01*
X44880Y-43046D01*
X45080Y-43246D01*
X45080Y-44246D02*
X45280Y-44046D01*
X45080Y-43846D01*
X44880Y-44046D01*
X45080Y-44246D01*
X43700Y-49900D02*
X44300Y-50500D01*
X44300Y-49900D02*
X43700Y-50500D01*
X44300Y-50200D02*
G75*
G03X44300Y-50200I-300J0D01*
G74*
G01*
X43700Y-51900D02*
X44300Y-52500D01*
X44300Y-51900D02*
X43700Y-52500D01*
X44300Y-52200D02*
G75*
G03X44300Y-52200I-300J0D01*
G74*
G01*
X43750Y-54250D02*
X44350Y-54850D01*
X44350Y-54250D02*
X43750Y-54850D01*
X44350Y-54550D02*
G75*
G03X44350Y-54550I-300J0D01*
G74*
G01*
X43750Y-56250D02*
X44350Y-56850D01*
X44350Y-56250D02*
X43750Y-56850D01*
X44350Y-56550D02*
G75*
G03X44350Y-56550I-300J0D01*
G74*
G01*
X43750Y-58250D02*
X44350Y-58850D01*
X44350Y-58250D02*
X43750Y-58850D01*
X44350Y-58550D02*
G75*
G03X44350Y-58550I-300J0D01*
G74*
G01*
X43910Y-60560D02*
X44510Y-61160D01*
X44510Y-60560D02*
X43910Y-61160D01*
X44510Y-60860D02*
G75*
G03X44510Y-60860I-300J0D01*
G74*
G01*
X43910Y-62560D02*
X44510Y-63160D01*
X44510Y-62560D02*
X43910Y-63160D01*
X44510Y-62860D02*
G75*
G03X44510Y-62860I-300J0D01*
G74*
G01*
X43910Y-64560D02*
X44510Y-65160D01*
X44510Y-64560D02*
X43910Y-65160D01*
X44510Y-64860D02*
G75*
G03X44510Y-64860I-300J0D01*
G74*
G01*
X51250Y-25450D02*
X51850Y-26050D01*
X51850Y-25450D02*
X51250Y-26050D01*
X51850Y-25750D02*
G75*
G03X51850Y-25750I-300J0D01*
G74*
G01*
X53250Y-25450D02*
X53850Y-26050D01*
X53850Y-25450D02*
X53250Y-26050D01*
X53850Y-25750D02*
G75*
G03X53850Y-25750I-300J0D01*
G74*
G01*
X55250Y-25450D02*
X55850Y-26050D01*
X55850Y-25450D02*
X55250Y-26050D01*
X55850Y-25750D02*
G75*
G03X55850Y-25750I-300J0D01*
G74*
G01*
X75044Y-45296D02*
X75644Y-45896D01*
X75644Y-45296D02*
X75044Y-45896D01*
X75644Y-45596D02*
G75*
G03X75644Y-45596I-300J0D01*
G74*
G01*
X75044Y-47296D02*
X75644Y-47896D01*
X75644Y-47296D02*
X75044Y-47896D01*
X75644Y-47596D02*
G75*
G03X75644Y-47596I-300J0D01*
G74*
G01*
X75044Y-49627D02*
X75644Y-50227D01*
X75644Y-49627D02*
X75044Y-50227D01*
X75644Y-49927D02*
G75*
G03X75644Y-49927I-300J0D01*
G74*
G01*
X75044Y-51627D02*
X75644Y-52227D01*
X75644Y-51627D02*
X75044Y-52227D01*
X75644Y-51927D02*
G75*
G03X75644Y-51927I-300J0D01*
G74*
G01*
X75101Y-40460D02*
X75701Y-41060D01*
X75701Y-40460D02*
X75101Y-41060D01*
X75701Y-40760D02*
G75*
G03X75701Y-40760I-300J0D01*
G74*
G01*
X75101Y-42460D02*
X75701Y-43060D01*
X75701Y-42460D02*
X75101Y-43060D01*
X75701Y-42760D02*
G75*
G03X75701Y-42760I-300J0D01*
G74*
G01*
X75126Y-36260D02*
X75726Y-36860D01*
X75726Y-36260D02*
X75126Y-36860D01*
X75726Y-36560D02*
G75*
G03X75726Y-36560I-300J0D01*
G74*
G01*
X75126Y-38260D02*
X75726Y-38860D01*
X75726Y-38260D02*
X75126Y-38860D01*
X75726Y-38560D02*
G75*
G03X75726Y-38560I-300J0D01*
G74*
G01*
X75138Y-29772D02*
X75738Y-30372D01*
X75738Y-29772D02*
X75138Y-30372D01*
X75738Y-30072D02*
G75*
G03X75738Y-30072I-300J0D01*
G74*
G01*
X75138Y-31772D02*
X75738Y-32372D01*
X75738Y-31772D02*
X75138Y-32372D01*
X75738Y-32072D02*
G75*
G03X75738Y-32072I-300J0D01*
G74*
G01*
X75138Y-33772D02*
X75738Y-34372D01*
X75738Y-33772D02*
X75138Y-34372D01*
X75738Y-34072D02*
G75*
G03X75738Y-34072I-300J0D01*
G74*
G01*
X40768Y-63661D02*
X41968Y-64861D01*
X41968Y-63661D02*
X40768Y-64861D01*
X41368Y-63661D02*
X41368Y-64861D01*
X40768Y-64261D02*
X41968Y-64261D01*
X41043Y-31398D02*
X42243Y-32598D01*
X42243Y-31398D02*
X41043Y-32598D01*
X41643Y-31398D02*
X41643Y-32598D01*
X41043Y-31998D02*
X42243Y-31998D01*
X76781Y-63976D02*
X77981Y-65176D01*
X77981Y-63976D02*
X76781Y-65176D01*
X77381Y-63976D02*
X77381Y-65176D01*
X76781Y-64576D02*
X77981Y-64576D01*
X76949Y-23976D02*
X78149Y-25176D01*
X78149Y-23976D02*
X76949Y-25176D01*
X77549Y-23976D02*
X77549Y-25176D01*
X76949Y-24576D02*
X78149Y-24576D01*
G54D13*
X40993Y-67908D02*
X40993Y-66727D01*
X41274Y-66727D01*
X41443Y-66783D01*
X41556Y-66896D01*
X41612Y-67008D01*
X41668Y-67233D01*
X41668Y-67402D01*
X41612Y-67627D01*
X41556Y-67739D01*
X41443Y-67852D01*
X41274Y-67908D01*
X40993Y-67908D01*
X42174Y-67908D02*
X42174Y-67121D01*
X42174Y-67346D02*
X42230Y-67233D01*
X42287Y-67177D01*
X42399Y-67121D01*
X42512Y-67121D01*
X42905Y-67908D02*
X42905Y-67121D01*
X42905Y-66727D02*
X42849Y-66783D01*
X42905Y-66839D01*
X42962Y-66783D01*
X42905Y-66727D01*
X42905Y-66839D01*
X43637Y-67908D02*
X43524Y-67852D01*
X43468Y-67739D01*
X43468Y-66727D01*
X44255Y-67908D02*
X44143Y-67852D01*
X44086Y-67739D01*
X44086Y-66727D01*
X45605Y-67908D02*
X45605Y-66727D01*
X45999Y-67571D01*
X46392Y-66727D01*
X46392Y-67908D01*
X47461Y-67908D02*
X47461Y-67289D01*
X47405Y-67177D01*
X47292Y-67121D01*
X47067Y-67121D01*
X46955Y-67177D01*
X47461Y-67852D02*
X47349Y-67908D01*
X47067Y-67908D01*
X46955Y-67852D01*
X46899Y-67739D01*
X46899Y-67627D01*
X46955Y-67514D01*
X47067Y-67458D01*
X47349Y-67458D01*
X47461Y-67402D01*
X48023Y-67121D02*
X48023Y-68302D01*
X48023Y-67177D02*
X48136Y-67121D01*
X48361Y-67121D01*
X48473Y-67177D01*
X48530Y-67233D01*
X48586Y-67346D01*
X48586Y-67683D01*
X48530Y-67796D01*
X48473Y-67852D01*
X48361Y-67908D01*
X48136Y-67908D01*
X48023Y-67852D01*
X49092Y-67796D02*
X49148Y-67852D01*
X49092Y-67908D01*
X49036Y-67852D01*
X49092Y-67796D01*
X49092Y-67908D01*
X49092Y-67177D02*
X49148Y-67233D01*
X49092Y-67289D01*
X49036Y-67233D01*
X49092Y-67177D01*
X49092Y-67289D01*
X39674Y-69729D02*
X39924Y-69979D01*
X39924Y-69729D02*
X39674Y-69979D01*
X41218Y-69207D02*
X41331Y-69207D01*
X41443Y-69263D01*
X41499Y-69320D01*
X41556Y-69432D01*
X41612Y-69657D01*
X41612Y-69938D01*
X41556Y-70163D01*
X41499Y-70276D01*
X41443Y-70332D01*
X41331Y-70388D01*
X41218Y-70388D01*
X41106Y-70332D01*
X41049Y-70276D01*
X40993Y-70163D01*
X40937Y-69938D01*
X40937Y-69657D01*
X40993Y-69432D01*
X41049Y-69320D01*
X41106Y-69263D01*
X41218Y-69207D01*
X42118Y-70276D02*
X42174Y-70332D01*
X42118Y-70388D01*
X42062Y-70332D01*
X42118Y-70276D01*
X42118Y-70388D01*
X43187Y-69207D02*
X42962Y-69207D01*
X42849Y-69263D01*
X42793Y-69320D01*
X42680Y-69488D01*
X42624Y-69713D01*
X42624Y-70163D01*
X42680Y-70276D01*
X42737Y-70332D01*
X42849Y-70388D01*
X43074Y-70388D01*
X43187Y-70332D01*
X43243Y-70276D01*
X43299Y-70163D01*
X43299Y-69882D01*
X43243Y-69770D01*
X43187Y-69713D01*
X43074Y-69657D01*
X42849Y-69657D01*
X42737Y-69713D01*
X42680Y-69770D01*
X42624Y-69882D01*
X44311Y-69601D02*
X44311Y-70388D01*
X44030Y-69151D02*
X43749Y-69995D01*
X44480Y-69995D01*
X44930Y-70388D02*
X44930Y-69601D01*
X44930Y-69713D02*
X44986Y-69657D01*
X45099Y-69601D01*
X45268Y-69601D01*
X45380Y-69657D01*
X45436Y-69770D01*
X45436Y-70388D01*
X45436Y-69770D02*
X45493Y-69657D01*
X45605Y-69601D01*
X45774Y-69601D01*
X45886Y-69657D01*
X45942Y-69770D01*
X45942Y-70388D01*
X46505Y-70388D02*
X46505Y-69601D01*
X46505Y-69713D02*
X46561Y-69657D01*
X46674Y-69601D01*
X46842Y-69601D01*
X46955Y-69657D01*
X47011Y-69770D01*
X47011Y-70388D01*
X47011Y-69770D02*
X47067Y-69657D01*
X47180Y-69601D01*
X47349Y-69601D01*
X47461Y-69657D01*
X47517Y-69770D01*
X47517Y-70388D01*
X49823Y-69151D02*
X48811Y-70670D01*
X51342Y-69207D02*
X51454Y-69207D01*
X51567Y-69263D01*
X51623Y-69320D01*
X51679Y-69432D01*
X51736Y-69657D01*
X51736Y-69938D01*
X51679Y-70163D01*
X51623Y-70276D01*
X51567Y-70332D01*
X51454Y-70388D01*
X51342Y-70388D01*
X51229Y-70332D01*
X51173Y-70276D01*
X51117Y-70163D01*
X51061Y-69938D01*
X51061Y-69657D01*
X51117Y-69432D01*
X51173Y-69320D01*
X51229Y-69263D01*
X51342Y-69207D01*
X52242Y-70276D02*
X52298Y-70332D01*
X52242Y-70388D01*
X52185Y-70332D01*
X52242Y-70276D01*
X52242Y-70388D01*
X53029Y-69207D02*
X53142Y-69207D01*
X53254Y-69263D01*
X53310Y-69320D01*
X53367Y-69432D01*
X53423Y-69657D01*
X53423Y-69938D01*
X53367Y-70163D01*
X53310Y-70276D01*
X53254Y-70332D01*
X53142Y-70388D01*
X53029Y-70388D01*
X52917Y-70332D01*
X52860Y-70276D01*
X52804Y-70163D01*
X52748Y-69938D01*
X52748Y-69657D01*
X52804Y-69432D01*
X52860Y-69320D01*
X52917Y-69263D01*
X53029Y-69207D01*
X53873Y-69320D02*
X53929Y-69263D01*
X54041Y-69207D01*
X54323Y-69207D01*
X54435Y-69263D01*
X54491Y-69320D01*
X54548Y-69432D01*
X54548Y-69545D01*
X54491Y-69713D01*
X53817Y-70388D01*
X54548Y-70388D01*
X55616Y-69207D02*
X55054Y-69207D01*
X54998Y-69770D01*
X55054Y-69713D01*
X55166Y-69657D01*
X55448Y-69657D01*
X55560Y-69713D01*
X55616Y-69770D01*
X55673Y-69882D01*
X55673Y-70163D01*
X55616Y-70276D01*
X55560Y-70332D01*
X55448Y-70388D01*
X55166Y-70388D01*
X55054Y-70332D01*
X54998Y-70276D01*
X56122Y-69207D02*
X56122Y-69432D01*
X56572Y-69207D02*
X56572Y-69432D01*
X58316Y-70838D02*
X58260Y-70782D01*
X58147Y-70613D01*
X58091Y-70501D01*
X58035Y-70332D01*
X57978Y-70051D01*
X57978Y-69826D01*
X58035Y-69545D01*
X58091Y-69376D01*
X58147Y-69263D01*
X58260Y-69095D01*
X58316Y-69039D01*
X59385Y-70388D02*
X58710Y-70388D01*
X59047Y-70388D02*
X59047Y-69207D01*
X58935Y-69376D01*
X58822Y-69488D01*
X58710Y-69545D01*
X59947Y-70388D02*
X60172Y-70388D01*
X60284Y-70332D01*
X60341Y-70276D01*
X60453Y-70107D01*
X60509Y-69882D01*
X60509Y-69432D01*
X60453Y-69320D01*
X60397Y-69263D01*
X60284Y-69207D01*
X60059Y-69207D01*
X59947Y-69263D01*
X59891Y-69320D01*
X59835Y-69432D01*
X59835Y-69713D01*
X59891Y-69826D01*
X59947Y-69882D01*
X60059Y-69938D01*
X60284Y-69938D01*
X60397Y-69882D01*
X60453Y-69826D01*
X60509Y-69713D01*
X61916Y-70388D02*
X61916Y-69207D01*
X62422Y-70388D02*
X62422Y-69770D01*
X62365Y-69657D01*
X62253Y-69601D01*
X62084Y-69601D01*
X61972Y-69657D01*
X61916Y-69713D01*
X63153Y-70388D02*
X63040Y-70332D01*
X62984Y-70276D01*
X62928Y-70163D01*
X62928Y-69826D01*
X62984Y-69713D01*
X63040Y-69657D01*
X63153Y-69601D01*
X63322Y-69601D01*
X63434Y-69657D01*
X63490Y-69713D01*
X63547Y-69826D01*
X63547Y-70163D01*
X63490Y-70276D01*
X63434Y-70332D01*
X63322Y-70388D01*
X63153Y-70388D01*
X64221Y-70388D02*
X64109Y-70332D01*
X64053Y-70220D01*
X64053Y-69207D01*
X65121Y-70332D02*
X65009Y-70388D01*
X64784Y-70388D01*
X64671Y-70332D01*
X64615Y-70220D01*
X64615Y-69770D01*
X64671Y-69657D01*
X64784Y-69601D01*
X65009Y-69601D01*
X65121Y-69657D01*
X65178Y-69770D01*
X65178Y-69882D01*
X64615Y-69995D01*
X65628Y-70332D02*
X65740Y-70388D01*
X65965Y-70388D01*
X66077Y-70332D01*
X66134Y-70220D01*
X66134Y-70163D01*
X66077Y-70051D01*
X65965Y-69995D01*
X65796Y-69995D01*
X65684Y-69938D01*
X65628Y-69826D01*
X65628Y-69770D01*
X65684Y-69657D01*
X65796Y-69601D01*
X65965Y-69601D01*
X66077Y-69657D01*
X66527Y-70838D02*
X66584Y-70782D01*
X66696Y-70613D01*
X66752Y-70501D01*
X66809Y-70332D01*
X66865Y-70051D01*
X66865Y-69826D01*
X66809Y-69545D01*
X66752Y-69376D01*
X66696Y-69263D01*
X66584Y-69095D01*
X66527Y-69039D01*
G54D12*
X39924Y-71413D02*
G75*
G03X39924Y-71413I-159J0D01*
G74*
G01*
G54D13*
X41218Y-70766D02*
X41331Y-70766D01*
X41443Y-70823D01*
X41499Y-70879D01*
X41556Y-70991D01*
X41612Y-71216D01*
X41612Y-71497D01*
X41556Y-71722D01*
X41499Y-71835D01*
X41443Y-71891D01*
X41331Y-71947D01*
X41218Y-71947D01*
X41106Y-71891D01*
X41049Y-71835D01*
X40993Y-71722D01*
X40937Y-71497D01*
X40937Y-71216D01*
X40993Y-70991D01*
X41049Y-70879D01*
X41106Y-70823D01*
X41218Y-70766D01*
X42118Y-71835D02*
X42174Y-71891D01*
X42118Y-71947D01*
X42062Y-71891D01*
X42118Y-71835D01*
X42118Y-71947D01*
X42849Y-71272D02*
X42737Y-71216D01*
X42680Y-71160D01*
X42624Y-71048D01*
X42624Y-70991D01*
X42680Y-70879D01*
X42737Y-70823D01*
X42849Y-70766D01*
X43074Y-70766D01*
X43187Y-70823D01*
X43243Y-70879D01*
X43299Y-70991D01*
X43299Y-71048D01*
X43243Y-71160D01*
X43187Y-71216D01*
X43074Y-71272D01*
X42849Y-71272D01*
X42737Y-71329D01*
X42680Y-71385D01*
X42624Y-71497D01*
X42624Y-71722D01*
X42680Y-71835D01*
X42737Y-71891D01*
X42849Y-71947D01*
X43074Y-71947D01*
X43187Y-71891D01*
X43243Y-71835D01*
X43299Y-71722D01*
X43299Y-71497D01*
X43243Y-71385D01*
X43187Y-71329D01*
X43074Y-71272D01*
X44424Y-71947D02*
X43749Y-71947D01*
X44086Y-71947D02*
X44086Y-70766D01*
X43974Y-70935D01*
X43862Y-71048D01*
X43749Y-71104D01*
X44930Y-71947D02*
X44930Y-71160D01*
X44930Y-71272D02*
X44986Y-71216D01*
X45099Y-71160D01*
X45268Y-71160D01*
X45380Y-71216D01*
X45436Y-71329D01*
X45436Y-71947D01*
X45436Y-71329D02*
X45493Y-71216D01*
X45605Y-71160D01*
X45774Y-71160D01*
X45886Y-71216D01*
X45942Y-71329D01*
X45942Y-71947D01*
X46505Y-71947D02*
X46505Y-71160D01*
X46505Y-71272D02*
X46561Y-71216D01*
X46674Y-71160D01*
X46842Y-71160D01*
X46955Y-71216D01*
X47011Y-71329D01*
X47011Y-71947D01*
X47011Y-71329D02*
X47067Y-71216D01*
X47180Y-71160D01*
X47349Y-71160D01*
X47461Y-71216D01*
X47517Y-71329D01*
X47517Y-71947D01*
X49823Y-70710D02*
X48811Y-72229D01*
X51342Y-70766D02*
X51454Y-70766D01*
X51567Y-70823D01*
X51623Y-70879D01*
X51679Y-70991D01*
X51736Y-71216D01*
X51736Y-71497D01*
X51679Y-71722D01*
X51623Y-71835D01*
X51567Y-71891D01*
X51454Y-71947D01*
X51342Y-71947D01*
X51229Y-71891D01*
X51173Y-71835D01*
X51117Y-71722D01*
X51061Y-71497D01*
X51061Y-71216D01*
X51117Y-70991D01*
X51173Y-70879D01*
X51229Y-70823D01*
X51342Y-70766D01*
X52242Y-71835D02*
X52298Y-71891D01*
X52242Y-71947D01*
X52185Y-71891D01*
X52242Y-71835D01*
X52242Y-71947D01*
X53029Y-70766D02*
X53142Y-70766D01*
X53254Y-70823D01*
X53310Y-70879D01*
X53367Y-70991D01*
X53423Y-71216D01*
X53423Y-71497D01*
X53367Y-71722D01*
X53310Y-71835D01*
X53254Y-71891D01*
X53142Y-71947D01*
X53029Y-71947D01*
X52917Y-71891D01*
X52860Y-71835D01*
X52804Y-71722D01*
X52748Y-71497D01*
X52748Y-71216D01*
X52804Y-70991D01*
X52860Y-70879D01*
X52917Y-70823D01*
X53029Y-70766D01*
X53817Y-70766D02*
X54548Y-70766D01*
X54154Y-71216D01*
X54323Y-71216D01*
X54435Y-71272D01*
X54491Y-71329D01*
X54548Y-71441D01*
X54548Y-71722D01*
X54491Y-71835D01*
X54435Y-71891D01*
X54323Y-71947D01*
X53985Y-71947D01*
X53873Y-71891D01*
X53817Y-71835D01*
X54998Y-70879D02*
X55054Y-70823D01*
X55166Y-70766D01*
X55448Y-70766D01*
X55560Y-70823D01*
X55616Y-70879D01*
X55673Y-70991D01*
X55673Y-71104D01*
X55616Y-71272D01*
X54941Y-71947D01*
X55673Y-71947D01*
X56122Y-70766D02*
X56122Y-70991D01*
X56572Y-70766D02*
X56572Y-70991D01*
X58316Y-72397D02*
X58260Y-72341D01*
X58147Y-72172D01*
X58091Y-72060D01*
X58035Y-71891D01*
X57978Y-71610D01*
X57978Y-71385D01*
X58035Y-71104D01*
X58091Y-70935D01*
X58147Y-70823D01*
X58260Y-70654D01*
X58316Y-70598D01*
X58653Y-70766D02*
X59385Y-70766D01*
X58991Y-71216D01*
X59160Y-71216D01*
X59272Y-71272D01*
X59328Y-71329D01*
X59385Y-71441D01*
X59385Y-71722D01*
X59328Y-71835D01*
X59272Y-71891D01*
X59160Y-71947D01*
X58822Y-71947D01*
X58710Y-71891D01*
X58653Y-71835D01*
X60397Y-71160D02*
X60397Y-71947D01*
X60116Y-70710D02*
X59835Y-71554D01*
X60566Y-71554D01*
X61916Y-71947D02*
X61916Y-70766D01*
X62422Y-71947D02*
X62422Y-71329D01*
X62365Y-71216D01*
X62253Y-71160D01*
X62084Y-71160D01*
X61972Y-71216D01*
X61916Y-71272D01*
X63153Y-71947D02*
X63040Y-71891D01*
X62984Y-71835D01*
X62928Y-71722D01*
X62928Y-71385D01*
X62984Y-71272D01*
X63040Y-71216D01*
X63153Y-71160D01*
X63322Y-71160D01*
X63434Y-71216D01*
X63490Y-71272D01*
X63547Y-71385D01*
X63547Y-71722D01*
X63490Y-71835D01*
X63434Y-71891D01*
X63322Y-71947D01*
X63153Y-71947D01*
X64221Y-71947D02*
X64109Y-71891D01*
X64053Y-71779D01*
X64053Y-70766D01*
X65121Y-71891D02*
X65009Y-71947D01*
X64784Y-71947D01*
X64671Y-71891D01*
X64615Y-71779D01*
X64615Y-71329D01*
X64671Y-71216D01*
X64784Y-71160D01*
X65009Y-71160D01*
X65121Y-71216D01*
X65178Y-71329D01*
X65178Y-71441D01*
X64615Y-71554D01*
X65628Y-71891D02*
X65740Y-71947D01*
X65965Y-71947D01*
X66077Y-71891D01*
X66134Y-71779D01*
X66134Y-71722D01*
X66077Y-71610D01*
X65965Y-71554D01*
X65796Y-71554D01*
X65684Y-71497D01*
X65628Y-71385D01*
X65628Y-71329D01*
X65684Y-71216D01*
X65796Y-71160D01*
X65965Y-71160D01*
X66077Y-71216D01*
X66527Y-72397D02*
X66584Y-72341D01*
X66696Y-72172D01*
X66752Y-72060D01*
X66809Y-71891D01*
X66865Y-71610D01*
X66865Y-71385D01*
X66809Y-71104D01*
X66752Y-70935D01*
X66696Y-70823D01*
X66584Y-70654D01*
X66527Y-70598D01*
X39764Y-72812D02*
X39764Y-73132D01*
X39604Y-72972D02*
X39924Y-72972D01*
X41218Y-72325D02*
X41331Y-72325D01*
X41443Y-72382D01*
X41499Y-72438D01*
X41556Y-72550D01*
X41612Y-72775D01*
X41612Y-73057D01*
X41556Y-73281D01*
X41499Y-73394D01*
X41443Y-73450D01*
X41331Y-73506D01*
X41218Y-73506D01*
X41106Y-73450D01*
X41049Y-73394D01*
X40993Y-73281D01*
X40937Y-73057D01*
X40937Y-72775D01*
X40993Y-72550D01*
X41049Y-72438D01*
X41106Y-72382D01*
X41218Y-72325D01*
X42118Y-73394D02*
X42174Y-73450D01*
X42118Y-73506D01*
X42062Y-73450D01*
X42118Y-73394D01*
X42118Y-73506D01*
X42849Y-72832D02*
X42737Y-72775D01*
X42680Y-72719D01*
X42624Y-72607D01*
X42624Y-72550D01*
X42680Y-72438D01*
X42737Y-72382D01*
X42849Y-72325D01*
X43074Y-72325D01*
X43187Y-72382D01*
X43243Y-72438D01*
X43299Y-72550D01*
X43299Y-72607D01*
X43243Y-72719D01*
X43187Y-72775D01*
X43074Y-72832D01*
X42849Y-72832D01*
X42737Y-72888D01*
X42680Y-72944D01*
X42624Y-73057D01*
X42624Y-73281D01*
X42680Y-73394D01*
X42737Y-73450D01*
X42849Y-73506D01*
X43074Y-73506D01*
X43187Y-73450D01*
X43243Y-73394D01*
X43299Y-73281D01*
X43299Y-73057D01*
X43243Y-72944D01*
X43187Y-72888D01*
X43074Y-72832D01*
X44424Y-73506D02*
X43749Y-73506D01*
X44086Y-73506D02*
X44086Y-72325D01*
X43974Y-72494D01*
X43862Y-72607D01*
X43749Y-72663D01*
X44930Y-73506D02*
X44930Y-72719D01*
X44930Y-72832D02*
X44986Y-72775D01*
X45099Y-72719D01*
X45268Y-72719D01*
X45380Y-72775D01*
X45436Y-72888D01*
X45436Y-73506D01*
X45436Y-72888D02*
X45493Y-72775D01*
X45605Y-72719D01*
X45774Y-72719D01*
X45886Y-72775D01*
X45942Y-72888D01*
X45942Y-73506D01*
X46505Y-73506D02*
X46505Y-72719D01*
X46505Y-72832D02*
X46561Y-72775D01*
X46674Y-72719D01*
X46842Y-72719D01*
X46955Y-72775D01*
X47011Y-72888D01*
X47011Y-73506D01*
X47011Y-72888D02*
X47067Y-72775D01*
X47180Y-72719D01*
X47349Y-72719D01*
X47461Y-72775D01*
X47517Y-72888D01*
X47517Y-73506D01*
X49823Y-72269D02*
X48811Y-73788D01*
X51342Y-72325D02*
X51454Y-72325D01*
X51567Y-72382D01*
X51623Y-72438D01*
X51679Y-72550D01*
X51736Y-72775D01*
X51736Y-73057D01*
X51679Y-73281D01*
X51623Y-73394D01*
X51567Y-73450D01*
X51454Y-73506D01*
X51342Y-73506D01*
X51229Y-73450D01*
X51173Y-73394D01*
X51117Y-73281D01*
X51061Y-73057D01*
X51061Y-72775D01*
X51117Y-72550D01*
X51173Y-72438D01*
X51229Y-72382D01*
X51342Y-72325D01*
X52242Y-73394D02*
X52298Y-73450D01*
X52242Y-73506D01*
X52185Y-73450D01*
X52242Y-73394D01*
X52242Y-73506D01*
X53029Y-72325D02*
X53142Y-72325D01*
X53254Y-72382D01*
X53310Y-72438D01*
X53367Y-72550D01*
X53423Y-72775D01*
X53423Y-73057D01*
X53367Y-73281D01*
X53310Y-73394D01*
X53254Y-73450D01*
X53142Y-73506D01*
X53029Y-73506D01*
X52917Y-73450D01*
X52860Y-73394D01*
X52804Y-73281D01*
X52748Y-73057D01*
X52748Y-72775D01*
X52804Y-72550D01*
X52860Y-72438D01*
X52917Y-72382D01*
X53029Y-72325D01*
X53817Y-72325D02*
X54548Y-72325D01*
X54154Y-72775D01*
X54323Y-72775D01*
X54435Y-72832D01*
X54491Y-72888D01*
X54548Y-73000D01*
X54548Y-73281D01*
X54491Y-73394D01*
X54435Y-73450D01*
X54323Y-73506D01*
X53985Y-73506D01*
X53873Y-73450D01*
X53817Y-73394D01*
X54998Y-72438D02*
X55054Y-72382D01*
X55166Y-72325D01*
X55448Y-72325D01*
X55560Y-72382D01*
X55616Y-72438D01*
X55673Y-72550D01*
X55673Y-72663D01*
X55616Y-72832D01*
X54941Y-73506D01*
X55673Y-73506D01*
X56122Y-72325D02*
X56122Y-72550D01*
X56572Y-72325D02*
X56572Y-72550D01*
X58316Y-73956D02*
X58260Y-73900D01*
X58147Y-73731D01*
X58091Y-73619D01*
X58035Y-73450D01*
X57978Y-73169D01*
X57978Y-72944D01*
X58035Y-72663D01*
X58091Y-72494D01*
X58147Y-72382D01*
X58260Y-72213D01*
X58316Y-72157D01*
X58935Y-72832D02*
X58822Y-72775D01*
X58766Y-72719D01*
X58710Y-72607D01*
X58710Y-72550D01*
X58766Y-72438D01*
X58822Y-72382D01*
X58935Y-72325D01*
X59160Y-72325D01*
X59272Y-72382D01*
X59328Y-72438D01*
X59385Y-72550D01*
X59385Y-72607D01*
X59328Y-72719D01*
X59272Y-72775D01*
X59160Y-72832D01*
X58935Y-72832D01*
X58822Y-72888D01*
X58766Y-72944D01*
X58710Y-73057D01*
X58710Y-73281D01*
X58766Y-73394D01*
X58822Y-73450D01*
X58935Y-73506D01*
X59160Y-73506D01*
X59272Y-73450D01*
X59328Y-73394D01*
X59385Y-73281D01*
X59385Y-73057D01*
X59328Y-72944D01*
X59272Y-72888D01*
X59160Y-72832D01*
X60791Y-73506D02*
X60791Y-72325D01*
X61297Y-73506D02*
X61297Y-72888D01*
X61241Y-72775D01*
X61128Y-72719D01*
X60959Y-72719D01*
X60847Y-72775D01*
X60791Y-72832D01*
X62028Y-73506D02*
X61916Y-73450D01*
X61859Y-73394D01*
X61803Y-73281D01*
X61803Y-72944D01*
X61859Y-72832D01*
X61916Y-72775D01*
X62028Y-72719D01*
X62197Y-72719D01*
X62309Y-72775D01*
X62365Y-72832D01*
X62422Y-72944D01*
X62422Y-73281D01*
X62365Y-73394D01*
X62309Y-73450D01*
X62197Y-73506D01*
X62028Y-73506D01*
X63097Y-73506D02*
X62984Y-73450D01*
X62928Y-73338D01*
X62928Y-72325D01*
X63996Y-73450D02*
X63884Y-73506D01*
X63659Y-73506D01*
X63547Y-73450D01*
X63490Y-73338D01*
X63490Y-72888D01*
X63547Y-72775D01*
X63659Y-72719D01*
X63884Y-72719D01*
X63996Y-72775D01*
X64053Y-72888D01*
X64053Y-73000D01*
X63490Y-73113D01*
X64503Y-73450D02*
X64615Y-73506D01*
X64840Y-73506D01*
X64953Y-73450D01*
X65009Y-73338D01*
X65009Y-73281D01*
X64953Y-73169D01*
X64840Y-73113D01*
X64671Y-73113D01*
X64559Y-73057D01*
X64503Y-72944D01*
X64503Y-72888D01*
X64559Y-72775D01*
X64671Y-72719D01*
X64840Y-72719D01*
X64953Y-72775D01*
X65403Y-73956D02*
X65459Y-73900D01*
X65571Y-73731D01*
X65628Y-73619D01*
X65684Y-73450D01*
X65740Y-73169D01*
X65740Y-72944D01*
X65684Y-72663D01*
X65628Y-72494D01*
X65571Y-72382D01*
X65459Y-72213D01*
X65403Y-72157D01*
G54D12*
X39867Y-74670D02*
X39867Y-74392D01*
X39588Y-74392D01*
X39588Y-74670D01*
X39867Y-74670D01*
G54D13*
X41612Y-75066D02*
X40937Y-75066D01*
X41274Y-75066D02*
X41274Y-73884D01*
X41162Y-74053D01*
X41049Y-74166D01*
X40937Y-74222D01*
X42118Y-74953D02*
X42174Y-75009D01*
X42118Y-75066D01*
X42062Y-75009D01*
X42118Y-74953D01*
X42118Y-75066D01*
X42905Y-73884D02*
X43018Y-73884D01*
X43130Y-73941D01*
X43187Y-73997D01*
X43243Y-74109D01*
X43299Y-74334D01*
X43299Y-74616D01*
X43243Y-74841D01*
X43187Y-74953D01*
X43130Y-75009D01*
X43018Y-75066D01*
X42905Y-75066D01*
X42793Y-75009D01*
X42737Y-74953D01*
X42680Y-74841D01*
X42624Y-74616D01*
X42624Y-74334D01*
X42680Y-74109D01*
X42737Y-73997D01*
X42793Y-73941D01*
X42905Y-73884D01*
X44030Y-73884D02*
X44143Y-73884D01*
X44255Y-73941D01*
X44311Y-73997D01*
X44368Y-74109D01*
X44424Y-74334D01*
X44424Y-74616D01*
X44368Y-74841D01*
X44311Y-74953D01*
X44255Y-75009D01*
X44143Y-75066D01*
X44030Y-75066D01*
X43918Y-75009D01*
X43862Y-74953D01*
X43805Y-74841D01*
X43749Y-74616D01*
X43749Y-74334D01*
X43805Y-74109D01*
X43862Y-73997D01*
X43918Y-73941D01*
X44030Y-73884D01*
X44930Y-75066D02*
X44930Y-74278D01*
X44930Y-74391D02*
X44986Y-74334D01*
X45099Y-74278D01*
X45268Y-74278D01*
X45380Y-74334D01*
X45436Y-74447D01*
X45436Y-75066D01*
X45436Y-74447D02*
X45493Y-74334D01*
X45605Y-74278D01*
X45774Y-74278D01*
X45886Y-74334D01*
X45942Y-74447D01*
X45942Y-75066D01*
X46505Y-75066D02*
X46505Y-74278D01*
X46505Y-74391D02*
X46561Y-74334D01*
X46674Y-74278D01*
X46842Y-74278D01*
X46955Y-74334D01*
X47011Y-74447D01*
X47011Y-75066D01*
X47011Y-74447D02*
X47067Y-74334D01*
X47180Y-74278D01*
X47349Y-74278D01*
X47461Y-74334D01*
X47517Y-74447D01*
X47517Y-75066D01*
X49823Y-73828D02*
X48811Y-75347D01*
X51342Y-73884D02*
X51454Y-73884D01*
X51567Y-73941D01*
X51623Y-73997D01*
X51679Y-74109D01*
X51736Y-74334D01*
X51736Y-74616D01*
X51679Y-74841D01*
X51623Y-74953D01*
X51567Y-75009D01*
X51454Y-75066D01*
X51342Y-75066D01*
X51229Y-75009D01*
X51173Y-74953D01*
X51117Y-74841D01*
X51061Y-74616D01*
X51061Y-74334D01*
X51117Y-74109D01*
X51173Y-73997D01*
X51229Y-73941D01*
X51342Y-73884D01*
X52242Y-74953D02*
X52298Y-75009D01*
X52242Y-75066D01*
X52185Y-75009D01*
X52242Y-74953D01*
X52242Y-75066D01*
X53029Y-73884D02*
X53142Y-73884D01*
X53254Y-73941D01*
X53310Y-73997D01*
X53367Y-74109D01*
X53423Y-74334D01*
X53423Y-74616D01*
X53367Y-74841D01*
X53310Y-74953D01*
X53254Y-75009D01*
X53142Y-75066D01*
X53029Y-75066D01*
X52917Y-75009D01*
X52860Y-74953D01*
X52804Y-74841D01*
X52748Y-74616D01*
X52748Y-74334D01*
X52804Y-74109D01*
X52860Y-73997D01*
X52917Y-73941D01*
X53029Y-73884D01*
X53817Y-73884D02*
X54548Y-73884D01*
X54154Y-74334D01*
X54323Y-74334D01*
X54435Y-74391D01*
X54491Y-74447D01*
X54548Y-74559D01*
X54548Y-74841D01*
X54491Y-74953D01*
X54435Y-75009D01*
X54323Y-75066D01*
X53985Y-75066D01*
X53873Y-75009D01*
X53817Y-74953D01*
X55110Y-75066D02*
X55335Y-75066D01*
X55448Y-75009D01*
X55504Y-74953D01*
X55616Y-74784D01*
X55673Y-74559D01*
X55673Y-74109D01*
X55616Y-73997D01*
X55560Y-73941D01*
X55448Y-73884D01*
X55223Y-73884D01*
X55110Y-73941D01*
X55054Y-73997D01*
X54998Y-74109D01*
X54998Y-74391D01*
X55054Y-74503D01*
X55110Y-74559D01*
X55223Y-74616D01*
X55448Y-74616D01*
X55560Y-74559D01*
X55616Y-74503D01*
X55673Y-74391D01*
X56122Y-73884D02*
X56122Y-74109D01*
X56572Y-73884D02*
X56572Y-74109D01*
X58316Y-75515D02*
X58260Y-75459D01*
X58147Y-75290D01*
X58091Y-75178D01*
X58035Y-75009D01*
X57978Y-74728D01*
X57978Y-74503D01*
X58035Y-74222D01*
X58091Y-74053D01*
X58147Y-73941D01*
X58260Y-73772D01*
X58316Y-73716D01*
X59385Y-75066D02*
X58710Y-75066D01*
X59047Y-75066D02*
X59047Y-73884D01*
X58935Y-74053D01*
X58822Y-74166D01*
X58710Y-74222D01*
X60116Y-73884D02*
X60228Y-73884D01*
X60341Y-73941D01*
X60397Y-73997D01*
X60453Y-74109D01*
X60509Y-74334D01*
X60509Y-74616D01*
X60453Y-74841D01*
X60397Y-74953D01*
X60341Y-75009D01*
X60228Y-75066D01*
X60116Y-75066D01*
X60003Y-75009D01*
X59947Y-74953D01*
X59891Y-74841D01*
X59835Y-74616D01*
X59835Y-74334D01*
X59891Y-74109D01*
X59947Y-73997D01*
X60003Y-73941D01*
X60116Y-73884D01*
X61916Y-75066D02*
X61916Y-73884D01*
X62422Y-75066D02*
X62422Y-74447D01*
X62365Y-74334D01*
X62253Y-74278D01*
X62084Y-74278D01*
X61972Y-74334D01*
X61916Y-74391D01*
X63153Y-75066D02*
X63040Y-75009D01*
X62984Y-74953D01*
X62928Y-74841D01*
X62928Y-74503D01*
X62984Y-74391D01*
X63040Y-74334D01*
X63153Y-74278D01*
X63322Y-74278D01*
X63434Y-74334D01*
X63490Y-74391D01*
X63547Y-74503D01*
X63547Y-74841D01*
X63490Y-74953D01*
X63434Y-75009D01*
X63322Y-75066D01*
X63153Y-75066D01*
X64221Y-75066D02*
X64109Y-75009D01*
X64053Y-74897D01*
X64053Y-73884D01*
X65121Y-75009D02*
X65009Y-75066D01*
X64784Y-75066D01*
X64671Y-75009D01*
X64615Y-74897D01*
X64615Y-74447D01*
X64671Y-74334D01*
X64784Y-74278D01*
X65009Y-74278D01*
X65121Y-74334D01*
X65178Y-74447D01*
X65178Y-74559D01*
X64615Y-74672D01*
X65628Y-75009D02*
X65740Y-75066D01*
X65965Y-75066D01*
X66077Y-75009D01*
X66134Y-74897D01*
X66134Y-74841D01*
X66077Y-74728D01*
X65965Y-74672D01*
X65796Y-74672D01*
X65684Y-74616D01*
X65628Y-74503D01*
X65628Y-74447D01*
X65684Y-74334D01*
X65796Y-74278D01*
X65965Y-74278D01*
X66077Y-74334D01*
X66527Y-75515D02*
X66584Y-75459D01*
X66696Y-75290D01*
X66752Y-75178D01*
X66809Y-75009D01*
X66865Y-74728D01*
X66865Y-74503D01*
X66809Y-74222D01*
X66752Y-74053D01*
X66696Y-73941D01*
X66584Y-73772D01*
X66527Y-73716D01*
G54D12*
X39724Y-76290D02*
X39924Y-76090D01*
X39724Y-75890D01*
X39524Y-76090D01*
X39724Y-76290D01*
G54D13*
X41612Y-76625D02*
X40937Y-76625D01*
X41274Y-76625D02*
X41274Y-75443D01*
X41162Y-75612D01*
X41049Y-75725D01*
X40937Y-75781D01*
X42118Y-76512D02*
X42174Y-76568D01*
X42118Y-76625D01*
X42062Y-76568D01*
X42118Y-76512D01*
X42118Y-76625D01*
X42905Y-75443D02*
X43018Y-75443D01*
X43130Y-75500D01*
X43187Y-75556D01*
X43243Y-75668D01*
X43299Y-75893D01*
X43299Y-76175D01*
X43243Y-76400D01*
X43187Y-76512D01*
X43130Y-76568D01*
X43018Y-76625D01*
X42905Y-76625D01*
X42793Y-76568D01*
X42737Y-76512D01*
X42680Y-76400D01*
X42624Y-76175D01*
X42624Y-75893D01*
X42680Y-75668D01*
X42737Y-75556D01*
X42793Y-75500D01*
X42905Y-75443D01*
X43749Y-75556D02*
X43805Y-75500D01*
X43918Y-75443D01*
X44199Y-75443D01*
X44311Y-75500D01*
X44368Y-75556D01*
X44424Y-75668D01*
X44424Y-75781D01*
X44368Y-75950D01*
X43693Y-76625D01*
X44424Y-76625D01*
X44930Y-76625D02*
X44930Y-75837D01*
X44930Y-75950D02*
X44986Y-75893D01*
X45099Y-75837D01*
X45268Y-75837D01*
X45380Y-75893D01*
X45436Y-76006D01*
X45436Y-76625D01*
X45436Y-76006D02*
X45493Y-75893D01*
X45605Y-75837D01*
X45774Y-75837D01*
X45886Y-75893D01*
X45942Y-76006D01*
X45942Y-76625D01*
X46505Y-76625D02*
X46505Y-75837D01*
X46505Y-75950D02*
X46561Y-75893D01*
X46674Y-75837D01*
X46842Y-75837D01*
X46955Y-75893D01*
X47011Y-76006D01*
X47011Y-76625D01*
X47011Y-76006D02*
X47067Y-75893D01*
X47180Y-75837D01*
X47349Y-75837D01*
X47461Y-75893D01*
X47517Y-76006D01*
X47517Y-76625D01*
X49823Y-75387D02*
X48811Y-76906D01*
X51342Y-75443D02*
X51454Y-75443D01*
X51567Y-75500D01*
X51623Y-75556D01*
X51679Y-75668D01*
X51736Y-75893D01*
X51736Y-76175D01*
X51679Y-76400D01*
X51623Y-76512D01*
X51567Y-76568D01*
X51454Y-76625D01*
X51342Y-76625D01*
X51229Y-76568D01*
X51173Y-76512D01*
X51117Y-76400D01*
X51061Y-76175D01*
X51061Y-75893D01*
X51117Y-75668D01*
X51173Y-75556D01*
X51229Y-75500D01*
X51342Y-75443D01*
X52242Y-76512D02*
X52298Y-76568D01*
X52242Y-76625D01*
X52185Y-76568D01*
X52242Y-76512D01*
X52242Y-76625D01*
X53029Y-75443D02*
X53142Y-75443D01*
X53254Y-75500D01*
X53310Y-75556D01*
X53367Y-75668D01*
X53423Y-75893D01*
X53423Y-76175D01*
X53367Y-76400D01*
X53310Y-76512D01*
X53254Y-76568D01*
X53142Y-76625D01*
X53029Y-76625D01*
X52917Y-76568D01*
X52860Y-76512D01*
X52804Y-76400D01*
X52748Y-76175D01*
X52748Y-75893D01*
X52804Y-75668D01*
X52860Y-75556D01*
X52917Y-75500D01*
X53029Y-75443D01*
X54435Y-75837D02*
X54435Y-76625D01*
X54154Y-75387D02*
X53873Y-76231D01*
X54604Y-76231D01*
X55279Y-75443D02*
X55391Y-75443D01*
X55504Y-75500D01*
X55560Y-75556D01*
X55616Y-75668D01*
X55673Y-75893D01*
X55673Y-76175D01*
X55616Y-76400D01*
X55560Y-76512D01*
X55504Y-76568D01*
X55391Y-76625D01*
X55279Y-76625D01*
X55166Y-76568D01*
X55110Y-76512D01*
X55054Y-76400D01*
X54998Y-76175D01*
X54998Y-75893D01*
X55054Y-75668D01*
X55110Y-75556D01*
X55166Y-75500D01*
X55279Y-75443D01*
X56122Y-75443D02*
X56122Y-75668D01*
X56572Y-75443D02*
X56572Y-75668D01*
X58316Y-77075D02*
X58260Y-77018D01*
X58147Y-76850D01*
X58091Y-76737D01*
X58035Y-76568D01*
X57978Y-76287D01*
X57978Y-76062D01*
X58035Y-75781D01*
X58091Y-75612D01*
X58147Y-75500D01*
X58260Y-75331D01*
X58316Y-75275D01*
X59385Y-76625D02*
X58710Y-76625D01*
X59047Y-76625D02*
X59047Y-75443D01*
X58935Y-75612D01*
X58822Y-75725D01*
X58710Y-75781D01*
X60116Y-75443D02*
X60228Y-75443D01*
X60341Y-75500D01*
X60397Y-75556D01*
X60453Y-75668D01*
X60509Y-75893D01*
X60509Y-76175D01*
X60453Y-76400D01*
X60397Y-76512D01*
X60341Y-76568D01*
X60228Y-76625D01*
X60116Y-76625D01*
X60003Y-76568D01*
X59947Y-76512D01*
X59891Y-76400D01*
X59835Y-76175D01*
X59835Y-75893D01*
X59891Y-75668D01*
X59947Y-75556D01*
X60003Y-75500D01*
X60116Y-75443D01*
X61916Y-76625D02*
X61916Y-75443D01*
X62422Y-76625D02*
X62422Y-76006D01*
X62365Y-75893D01*
X62253Y-75837D01*
X62084Y-75837D01*
X61972Y-75893D01*
X61916Y-75950D01*
X63153Y-76625D02*
X63040Y-76568D01*
X62984Y-76512D01*
X62928Y-76400D01*
X62928Y-76062D01*
X62984Y-75950D01*
X63040Y-75893D01*
X63153Y-75837D01*
X63322Y-75837D01*
X63434Y-75893D01*
X63490Y-75950D01*
X63547Y-76062D01*
X63547Y-76400D01*
X63490Y-76512D01*
X63434Y-76568D01*
X63322Y-76625D01*
X63153Y-76625D01*
X64221Y-76625D02*
X64109Y-76568D01*
X64053Y-76456D01*
X64053Y-75443D01*
X65121Y-76568D02*
X65009Y-76625D01*
X64784Y-76625D01*
X64671Y-76568D01*
X64615Y-76456D01*
X64615Y-76006D01*
X64671Y-75893D01*
X64784Y-75837D01*
X65009Y-75837D01*
X65121Y-75893D01*
X65178Y-76006D01*
X65178Y-76118D01*
X64615Y-76231D01*
X65628Y-76568D02*
X65740Y-76625D01*
X65965Y-76625D01*
X66077Y-76568D01*
X66134Y-76456D01*
X66134Y-76400D01*
X66077Y-76287D01*
X65965Y-76231D01*
X65796Y-76231D01*
X65684Y-76175D01*
X65628Y-76062D01*
X65628Y-76006D01*
X65684Y-75893D01*
X65796Y-75837D01*
X65965Y-75837D01*
X66077Y-75893D01*
X66527Y-77075D02*
X66584Y-77018D01*
X66696Y-76850D01*
X66752Y-76737D01*
X66809Y-76568D01*
X66865Y-76287D01*
X66865Y-76062D01*
X66809Y-75781D01*
X66752Y-75612D01*
X66696Y-75500D01*
X66584Y-75331D01*
X66527Y-75275D01*
X39324Y-77349D02*
X39924Y-77949D01*
X39924Y-77349D02*
X39324Y-77949D01*
G54D12*
X39924Y-77649D02*
G75*
G03X39924Y-77649I-300J0D01*
G74*
G01*
G54D13*
X41612Y-78184D02*
X40937Y-78184D01*
X41274Y-78184D02*
X41274Y-77003D01*
X41162Y-77171D01*
X41049Y-77284D01*
X40937Y-77340D01*
X42118Y-78071D02*
X42174Y-78127D01*
X42118Y-78184D01*
X42062Y-78127D01*
X42118Y-78071D01*
X42118Y-78184D01*
X43243Y-77003D02*
X42680Y-77003D01*
X42624Y-77565D01*
X42680Y-77509D01*
X42793Y-77452D01*
X43074Y-77452D01*
X43187Y-77509D01*
X43243Y-77565D01*
X43299Y-77677D01*
X43299Y-77959D01*
X43243Y-78071D01*
X43187Y-78127D01*
X43074Y-78184D01*
X42793Y-78184D01*
X42680Y-78127D01*
X42624Y-78071D01*
X43749Y-77115D02*
X43805Y-77059D01*
X43918Y-77003D01*
X44199Y-77003D01*
X44311Y-77059D01*
X44368Y-77115D01*
X44424Y-77227D01*
X44424Y-77340D01*
X44368Y-77509D01*
X43693Y-78184D01*
X44424Y-78184D01*
X44930Y-78184D02*
X44930Y-77396D01*
X44930Y-77509D02*
X44986Y-77452D01*
X45099Y-77396D01*
X45268Y-77396D01*
X45380Y-77452D01*
X45436Y-77565D01*
X45436Y-78184D01*
X45436Y-77565D02*
X45493Y-77452D01*
X45605Y-77396D01*
X45774Y-77396D01*
X45886Y-77452D01*
X45942Y-77565D01*
X45942Y-78184D01*
X46505Y-78184D02*
X46505Y-77396D01*
X46505Y-77509D02*
X46561Y-77452D01*
X46674Y-77396D01*
X46842Y-77396D01*
X46955Y-77452D01*
X47011Y-77565D01*
X47011Y-78184D01*
X47011Y-77565D02*
X47067Y-77452D01*
X47180Y-77396D01*
X47349Y-77396D01*
X47461Y-77452D01*
X47517Y-77565D01*
X47517Y-78184D01*
X49823Y-76946D02*
X48811Y-78465D01*
X51342Y-77003D02*
X51454Y-77003D01*
X51567Y-77059D01*
X51623Y-77115D01*
X51679Y-77227D01*
X51736Y-77452D01*
X51736Y-77734D01*
X51679Y-77959D01*
X51623Y-78071D01*
X51567Y-78127D01*
X51454Y-78184D01*
X51342Y-78184D01*
X51229Y-78127D01*
X51173Y-78071D01*
X51117Y-77959D01*
X51061Y-77734D01*
X51061Y-77452D01*
X51117Y-77227D01*
X51173Y-77115D01*
X51229Y-77059D01*
X51342Y-77003D01*
X52242Y-78071D02*
X52298Y-78127D01*
X52242Y-78184D01*
X52185Y-78127D01*
X52242Y-78071D01*
X52242Y-78184D01*
X53029Y-77003D02*
X53142Y-77003D01*
X53254Y-77059D01*
X53310Y-77115D01*
X53367Y-77227D01*
X53423Y-77452D01*
X53423Y-77734D01*
X53367Y-77959D01*
X53310Y-78071D01*
X53254Y-78127D01*
X53142Y-78184D01*
X53029Y-78184D01*
X52917Y-78127D01*
X52860Y-78071D01*
X52804Y-77959D01*
X52748Y-77734D01*
X52748Y-77452D01*
X52804Y-77227D01*
X52860Y-77115D01*
X52917Y-77059D01*
X53029Y-77003D01*
X54435Y-77003D02*
X54210Y-77003D01*
X54098Y-77059D01*
X54041Y-77115D01*
X53929Y-77284D01*
X53873Y-77509D01*
X53873Y-77959D01*
X53929Y-78071D01*
X53985Y-78127D01*
X54098Y-78184D01*
X54323Y-78184D01*
X54435Y-78127D01*
X54491Y-78071D01*
X54548Y-77959D01*
X54548Y-77677D01*
X54491Y-77565D01*
X54435Y-77509D01*
X54323Y-77452D01*
X54098Y-77452D01*
X53985Y-77509D01*
X53929Y-77565D01*
X53873Y-77677D01*
X55279Y-77003D02*
X55391Y-77003D01*
X55504Y-77059D01*
X55560Y-77115D01*
X55616Y-77227D01*
X55673Y-77452D01*
X55673Y-77734D01*
X55616Y-77959D01*
X55560Y-78071D01*
X55504Y-78127D01*
X55391Y-78184D01*
X55279Y-78184D01*
X55166Y-78127D01*
X55110Y-78071D01*
X55054Y-77959D01*
X54998Y-77734D01*
X54998Y-77452D01*
X55054Y-77227D01*
X55110Y-77115D01*
X55166Y-77059D01*
X55279Y-77003D01*
X56122Y-77003D02*
X56122Y-77227D01*
X56572Y-77003D02*
X56572Y-77227D01*
X58316Y-78634D02*
X58260Y-78577D01*
X58147Y-78409D01*
X58091Y-78296D01*
X58035Y-78127D01*
X57978Y-77846D01*
X57978Y-77621D01*
X58035Y-77340D01*
X58091Y-77171D01*
X58147Y-77059D01*
X58260Y-76890D01*
X58316Y-76834D01*
X58710Y-77115D02*
X58766Y-77059D01*
X58878Y-77003D01*
X59160Y-77003D01*
X59272Y-77059D01*
X59328Y-77115D01*
X59385Y-77227D01*
X59385Y-77340D01*
X59328Y-77509D01*
X58653Y-78184D01*
X59385Y-78184D01*
X59835Y-77115D02*
X59891Y-77059D01*
X60003Y-77003D01*
X60284Y-77003D01*
X60397Y-77059D01*
X60453Y-77115D01*
X60509Y-77227D01*
X60509Y-77340D01*
X60453Y-77509D01*
X59778Y-78184D01*
X60509Y-78184D01*
X61916Y-78184D02*
X61916Y-77003D01*
X62422Y-78184D02*
X62422Y-77565D01*
X62365Y-77452D01*
X62253Y-77396D01*
X62084Y-77396D01*
X61972Y-77452D01*
X61916Y-77509D01*
X63153Y-78184D02*
X63040Y-78127D01*
X62984Y-78071D01*
X62928Y-77959D01*
X62928Y-77621D01*
X62984Y-77509D01*
X63040Y-77452D01*
X63153Y-77396D01*
X63322Y-77396D01*
X63434Y-77452D01*
X63490Y-77509D01*
X63547Y-77621D01*
X63547Y-77959D01*
X63490Y-78071D01*
X63434Y-78127D01*
X63322Y-78184D01*
X63153Y-78184D01*
X64221Y-78184D02*
X64109Y-78127D01*
X64053Y-78015D01*
X64053Y-77003D01*
X65121Y-78127D02*
X65009Y-78184D01*
X64784Y-78184D01*
X64671Y-78127D01*
X64615Y-78015D01*
X64615Y-77565D01*
X64671Y-77452D01*
X64784Y-77396D01*
X65009Y-77396D01*
X65121Y-77452D01*
X65178Y-77565D01*
X65178Y-77677D01*
X64615Y-77790D01*
X65628Y-78127D02*
X65740Y-78184D01*
X65965Y-78184D01*
X66077Y-78127D01*
X66134Y-78015D01*
X66134Y-77959D01*
X66077Y-77846D01*
X65965Y-77790D01*
X65796Y-77790D01*
X65684Y-77734D01*
X65628Y-77621D01*
X65628Y-77565D01*
X65684Y-77452D01*
X65796Y-77396D01*
X65965Y-77396D01*
X66077Y-77452D01*
X66527Y-78634D02*
X66584Y-78577D01*
X66696Y-78409D01*
X66752Y-78296D01*
X66809Y-78127D01*
X66865Y-77846D01*
X66865Y-77621D01*
X66809Y-77340D01*
X66752Y-77171D01*
X66696Y-77059D01*
X66584Y-76890D01*
X66527Y-76834D01*
X38724Y-78608D02*
X39924Y-79808D01*
X39924Y-78608D02*
X38724Y-79808D01*
X39324Y-78608D02*
X39324Y-79808D01*
X38724Y-79208D02*
X39924Y-79208D01*
X40881Y-78562D02*
X41612Y-78562D01*
X41218Y-79012D01*
X41387Y-79012D01*
X41499Y-79068D01*
X41556Y-79124D01*
X41612Y-79236D01*
X41612Y-79518D01*
X41556Y-79630D01*
X41499Y-79686D01*
X41387Y-79743D01*
X41049Y-79743D01*
X40937Y-79686D01*
X40881Y-79630D01*
X42118Y-79630D02*
X42174Y-79686D01*
X42118Y-79743D01*
X42062Y-79686D01*
X42118Y-79630D01*
X42118Y-79743D01*
X42905Y-78562D02*
X43018Y-78562D01*
X43130Y-78618D01*
X43187Y-78674D01*
X43243Y-78787D01*
X43299Y-79012D01*
X43299Y-79293D01*
X43243Y-79518D01*
X43187Y-79630D01*
X43130Y-79686D01*
X43018Y-79743D01*
X42905Y-79743D01*
X42793Y-79686D01*
X42737Y-79630D01*
X42680Y-79518D01*
X42624Y-79293D01*
X42624Y-79012D01*
X42680Y-78787D01*
X42737Y-78674D01*
X42793Y-78618D01*
X42905Y-78562D01*
X44368Y-78562D02*
X43805Y-78562D01*
X43749Y-79124D01*
X43805Y-79068D01*
X43918Y-79012D01*
X44199Y-79012D01*
X44311Y-79068D01*
X44368Y-79124D01*
X44424Y-79236D01*
X44424Y-79518D01*
X44368Y-79630D01*
X44311Y-79686D01*
X44199Y-79743D01*
X43918Y-79743D01*
X43805Y-79686D01*
X43749Y-79630D01*
X44930Y-79743D02*
X44930Y-78955D01*
X44930Y-79068D02*
X44986Y-79012D01*
X45099Y-78955D01*
X45268Y-78955D01*
X45380Y-79012D01*
X45436Y-79124D01*
X45436Y-79743D01*
X45436Y-79124D02*
X45493Y-79012D01*
X45605Y-78955D01*
X45774Y-78955D01*
X45886Y-79012D01*
X45942Y-79124D01*
X45942Y-79743D01*
X46505Y-79743D02*
X46505Y-78955D01*
X46505Y-79068D02*
X46561Y-79012D01*
X46674Y-78955D01*
X46842Y-78955D01*
X46955Y-79012D01*
X47011Y-79124D01*
X47011Y-79743D01*
X47011Y-79124D02*
X47067Y-79012D01*
X47180Y-78955D01*
X47349Y-78955D01*
X47461Y-79012D01*
X47517Y-79124D01*
X47517Y-79743D01*
X49823Y-78505D02*
X48811Y-80024D01*
X51342Y-78562D02*
X51454Y-78562D01*
X51567Y-78618D01*
X51623Y-78674D01*
X51679Y-78787D01*
X51736Y-79012D01*
X51736Y-79293D01*
X51679Y-79518D01*
X51623Y-79630D01*
X51567Y-79686D01*
X51454Y-79743D01*
X51342Y-79743D01*
X51229Y-79686D01*
X51173Y-79630D01*
X51117Y-79518D01*
X51061Y-79293D01*
X51061Y-79012D01*
X51117Y-78787D01*
X51173Y-78674D01*
X51229Y-78618D01*
X51342Y-78562D01*
X52242Y-79630D02*
X52298Y-79686D01*
X52242Y-79743D01*
X52185Y-79686D01*
X52242Y-79630D01*
X52242Y-79743D01*
X53423Y-79743D02*
X52748Y-79743D01*
X53085Y-79743D02*
X53085Y-78562D01*
X52973Y-78730D01*
X52860Y-78843D01*
X52748Y-78899D01*
X53873Y-78674D02*
X53929Y-78618D01*
X54041Y-78562D01*
X54323Y-78562D01*
X54435Y-78618D01*
X54491Y-78674D01*
X54548Y-78787D01*
X54548Y-78899D01*
X54491Y-79068D01*
X53817Y-79743D01*
X54548Y-79743D01*
X55279Y-78562D02*
X55391Y-78562D01*
X55504Y-78618D01*
X55560Y-78674D01*
X55616Y-78787D01*
X55673Y-79012D01*
X55673Y-79293D01*
X55616Y-79518D01*
X55560Y-79630D01*
X55504Y-79686D01*
X55391Y-79743D01*
X55279Y-79743D01*
X55166Y-79686D01*
X55110Y-79630D01*
X55054Y-79518D01*
X54998Y-79293D01*
X54998Y-79012D01*
X55054Y-78787D01*
X55110Y-78674D01*
X55166Y-78618D01*
X55279Y-78562D01*
X56122Y-78562D02*
X56122Y-78787D01*
X56572Y-78562D02*
X56572Y-78787D01*
X58316Y-80193D02*
X58260Y-80136D01*
X58147Y-79968D01*
X58091Y-79855D01*
X58035Y-79686D01*
X57978Y-79405D01*
X57978Y-79180D01*
X58035Y-78899D01*
X58091Y-78730D01*
X58147Y-78618D01*
X58260Y-78449D01*
X58316Y-78393D01*
X59272Y-78955D02*
X59272Y-79743D01*
X58991Y-78505D02*
X58710Y-79349D01*
X59441Y-79349D01*
X60791Y-79743D02*
X60791Y-78562D01*
X61297Y-79743D02*
X61297Y-79124D01*
X61241Y-79012D01*
X61128Y-78955D01*
X60959Y-78955D01*
X60847Y-79012D01*
X60791Y-79068D01*
X62028Y-79743D02*
X61916Y-79686D01*
X61859Y-79630D01*
X61803Y-79518D01*
X61803Y-79180D01*
X61859Y-79068D01*
X61916Y-79012D01*
X62028Y-78955D01*
X62197Y-78955D01*
X62309Y-79012D01*
X62365Y-79068D01*
X62422Y-79180D01*
X62422Y-79518D01*
X62365Y-79630D01*
X62309Y-79686D01*
X62197Y-79743D01*
X62028Y-79743D01*
X63097Y-79743D02*
X62984Y-79686D01*
X62928Y-79574D01*
X62928Y-78562D01*
X63996Y-79686D02*
X63884Y-79743D01*
X63659Y-79743D01*
X63547Y-79686D01*
X63490Y-79574D01*
X63490Y-79124D01*
X63547Y-79012D01*
X63659Y-78955D01*
X63884Y-78955D01*
X63996Y-79012D01*
X64053Y-79124D01*
X64053Y-79236D01*
X63490Y-79349D01*
X64503Y-79686D02*
X64615Y-79743D01*
X64840Y-79743D01*
X64953Y-79686D01*
X65009Y-79574D01*
X65009Y-79518D01*
X64953Y-79405D01*
X64840Y-79349D01*
X64671Y-79349D01*
X64559Y-79293D01*
X64503Y-79180D01*
X64503Y-79124D01*
X64559Y-79012D01*
X64671Y-78955D01*
X64840Y-78955D01*
X64953Y-79012D01*
X65403Y-80193D02*
X65459Y-80136D01*
X65571Y-79968D01*
X65628Y-79855D01*
X65684Y-79686D01*
X65740Y-79405D01*
X65740Y-79180D01*
X65684Y-78899D01*
X65628Y-78730D01*
X65571Y-78618D01*
X65459Y-78449D01*
X65403Y-78393D01*
M02*
