G04 (created by PCBNEW-RS274X (2011-nov-30)-testing) date Wed 03 Apr 2013 02:23:03 PM ART*
G01*
G70*
G90*
%MOIN*%
G04 Gerber Fmt 3.4, Leading zero omitted, Abs format*
%FSLAX34Y34*%
G04 APERTURE LIST*
%ADD10C,0.006000*%
%ADD11C,0.005000*%
%ADD12C,0.008000*%
G04 APERTURE END LIST*
G54D10*
G54D11*
X107350Y-74450D02*
X107349Y-74459D01*
X107346Y-74469D01*
X107341Y-74477D01*
X107335Y-74485D01*
X107327Y-74491D01*
X107319Y-74496D01*
X107310Y-74498D01*
X107300Y-74499D01*
X107291Y-74499D01*
X107282Y-74496D01*
X107273Y-74491D01*
X107266Y-74485D01*
X107259Y-74478D01*
X107255Y-74469D01*
X107252Y-74460D01*
X107251Y-74450D01*
X107251Y-74441D01*
X107254Y-74432D01*
X107258Y-74423D01*
X107265Y-74416D01*
X107272Y-74409D01*
X107280Y-74405D01*
X107290Y-74402D01*
X107299Y-74401D01*
X107308Y-74401D01*
X107318Y-74404D01*
X107326Y-74408D01*
X107334Y-74414D01*
X107340Y-74422D01*
X107345Y-74430D01*
X107348Y-74439D01*
X107349Y-74449D01*
X107350Y-74450D01*
X106850Y-74450D02*
X107250Y-74450D01*
X107250Y-74450D02*
X107250Y-73850D01*
X107250Y-73850D02*
X106850Y-73850D01*
X106450Y-73850D02*
X106050Y-73850D01*
X106050Y-73850D02*
X106050Y-74450D01*
X106050Y-74450D02*
X106450Y-74450D01*
X100550Y-71300D02*
X100549Y-71309D01*
X100546Y-71319D01*
X100541Y-71327D01*
X100535Y-71335D01*
X100527Y-71341D01*
X100519Y-71346D01*
X100510Y-71348D01*
X100500Y-71349D01*
X100491Y-71349D01*
X100482Y-71346D01*
X100473Y-71341D01*
X100466Y-71335D01*
X100459Y-71328D01*
X100455Y-71319D01*
X100452Y-71310D01*
X100451Y-71300D01*
X100451Y-71291D01*
X100454Y-71282D01*
X100458Y-71273D01*
X100465Y-71266D01*
X100472Y-71259D01*
X100480Y-71255D01*
X100490Y-71252D01*
X100499Y-71251D01*
X100508Y-71251D01*
X100518Y-71254D01*
X100526Y-71258D01*
X100534Y-71264D01*
X100540Y-71272D01*
X100545Y-71280D01*
X100548Y-71289D01*
X100549Y-71299D01*
X100550Y-71300D01*
X100500Y-70850D02*
X100500Y-71250D01*
X100500Y-71250D02*
X101100Y-71250D01*
X101100Y-71250D02*
X101100Y-70850D01*
X101100Y-70450D02*
X101100Y-70050D01*
X101100Y-70050D02*
X100500Y-70050D01*
X100500Y-70050D02*
X100500Y-70450D01*
X106650Y-70550D02*
X106649Y-70559D01*
X106646Y-70569D01*
X106641Y-70577D01*
X106635Y-70585D01*
X106627Y-70591D01*
X106619Y-70596D01*
X106610Y-70598D01*
X106600Y-70599D01*
X106591Y-70599D01*
X106582Y-70596D01*
X106573Y-70591D01*
X106566Y-70585D01*
X106559Y-70578D01*
X106555Y-70569D01*
X106552Y-70560D01*
X106551Y-70550D01*
X106551Y-70541D01*
X106554Y-70532D01*
X106558Y-70523D01*
X106565Y-70516D01*
X106572Y-70509D01*
X106580Y-70505D01*
X106590Y-70502D01*
X106599Y-70501D01*
X106608Y-70501D01*
X106618Y-70504D01*
X106626Y-70508D01*
X106634Y-70514D01*
X106640Y-70522D01*
X106645Y-70530D01*
X106648Y-70539D01*
X106649Y-70549D01*
X106650Y-70550D01*
X106600Y-70100D02*
X106600Y-70500D01*
X106600Y-70500D02*
X107200Y-70500D01*
X107200Y-70500D02*
X107200Y-70100D01*
X107200Y-69700D02*
X107200Y-69300D01*
X107200Y-69300D02*
X106600Y-69300D01*
X106600Y-69300D02*
X106600Y-69700D01*
X111050Y-73350D02*
X111049Y-73359D01*
X111046Y-73369D01*
X111041Y-73377D01*
X111035Y-73385D01*
X111027Y-73391D01*
X111019Y-73396D01*
X111010Y-73398D01*
X111000Y-73399D01*
X110991Y-73399D01*
X110982Y-73396D01*
X110973Y-73391D01*
X110966Y-73385D01*
X110959Y-73378D01*
X110955Y-73369D01*
X110952Y-73360D01*
X110951Y-73350D01*
X110951Y-73341D01*
X110954Y-73332D01*
X110958Y-73323D01*
X110965Y-73316D01*
X110972Y-73309D01*
X110980Y-73305D01*
X110990Y-73302D01*
X110999Y-73301D01*
X111008Y-73301D01*
X111018Y-73304D01*
X111026Y-73308D01*
X111034Y-73314D01*
X111040Y-73322D01*
X111045Y-73330D01*
X111048Y-73339D01*
X111049Y-73349D01*
X111050Y-73350D01*
X111000Y-72900D02*
X111000Y-73300D01*
X111000Y-73300D02*
X111600Y-73300D01*
X111600Y-73300D02*
X111600Y-72900D01*
X111600Y-72500D02*
X111600Y-72100D01*
X111600Y-72100D02*
X111000Y-72100D01*
X111000Y-72100D02*
X111000Y-72500D01*
X111950Y-69900D02*
X111949Y-69909D01*
X111946Y-69919D01*
X111941Y-69927D01*
X111935Y-69935D01*
X111927Y-69941D01*
X111919Y-69946D01*
X111910Y-69948D01*
X111900Y-69949D01*
X111891Y-69949D01*
X111882Y-69946D01*
X111873Y-69941D01*
X111866Y-69935D01*
X111859Y-69928D01*
X111855Y-69919D01*
X111852Y-69910D01*
X111851Y-69900D01*
X111851Y-69891D01*
X111854Y-69882D01*
X111858Y-69873D01*
X111865Y-69866D01*
X111872Y-69859D01*
X111880Y-69855D01*
X111890Y-69852D01*
X111899Y-69851D01*
X111908Y-69851D01*
X111918Y-69854D01*
X111926Y-69858D01*
X111934Y-69864D01*
X111940Y-69872D01*
X111945Y-69880D01*
X111948Y-69889D01*
X111949Y-69899D01*
X111950Y-69900D01*
X111450Y-69900D02*
X111850Y-69900D01*
X111850Y-69900D02*
X111850Y-69300D01*
X111850Y-69300D02*
X111450Y-69300D01*
X111050Y-69300D02*
X110650Y-69300D01*
X110650Y-69300D02*
X110650Y-69900D01*
X110650Y-69900D02*
X111050Y-69900D01*
X111950Y-68950D02*
X111949Y-68959D01*
X111946Y-68969D01*
X111941Y-68977D01*
X111935Y-68985D01*
X111927Y-68991D01*
X111919Y-68996D01*
X111910Y-68998D01*
X111900Y-68999D01*
X111891Y-68999D01*
X111882Y-68996D01*
X111873Y-68991D01*
X111866Y-68985D01*
X111859Y-68978D01*
X111855Y-68969D01*
X111852Y-68960D01*
X111851Y-68950D01*
X111851Y-68941D01*
X111854Y-68932D01*
X111858Y-68923D01*
X111865Y-68916D01*
X111872Y-68909D01*
X111880Y-68905D01*
X111890Y-68902D01*
X111899Y-68901D01*
X111908Y-68901D01*
X111918Y-68904D01*
X111926Y-68908D01*
X111934Y-68914D01*
X111940Y-68922D01*
X111945Y-68930D01*
X111948Y-68939D01*
X111949Y-68949D01*
X111950Y-68950D01*
X111450Y-68950D02*
X111850Y-68950D01*
X111850Y-68950D02*
X111850Y-68350D01*
X111850Y-68350D02*
X111450Y-68350D01*
X111050Y-68350D02*
X110650Y-68350D01*
X110650Y-68350D02*
X110650Y-68950D01*
X110650Y-68950D02*
X111050Y-68950D01*
G54D12*
X108250Y-69350D02*
X108250Y-73150D01*
X108250Y-73150D02*
X109750Y-73150D01*
X109750Y-73150D02*
X109750Y-69350D01*
X109750Y-69350D02*
X108250Y-69350D01*
X108750Y-69350D02*
X108750Y-69650D01*
X108750Y-69650D02*
X109150Y-69650D01*
X109150Y-69650D02*
X109150Y-69350D01*
X108250Y-36350D02*
X108250Y-40150D01*
X108250Y-40150D02*
X109750Y-40150D01*
X109750Y-40150D02*
X109750Y-36350D01*
X109750Y-36350D02*
X108250Y-36350D01*
X108750Y-36350D02*
X108750Y-36650D01*
X108750Y-36650D02*
X109150Y-36650D01*
X109150Y-36650D02*
X109150Y-36350D01*
G54D11*
X111950Y-35950D02*
X111949Y-35959D01*
X111946Y-35969D01*
X111941Y-35977D01*
X111935Y-35985D01*
X111927Y-35991D01*
X111919Y-35996D01*
X111910Y-35998D01*
X111900Y-35999D01*
X111891Y-35999D01*
X111882Y-35996D01*
X111873Y-35991D01*
X111866Y-35985D01*
X111859Y-35978D01*
X111855Y-35969D01*
X111852Y-35960D01*
X111851Y-35950D01*
X111851Y-35941D01*
X111854Y-35932D01*
X111858Y-35923D01*
X111865Y-35916D01*
X111872Y-35909D01*
X111880Y-35905D01*
X111890Y-35902D01*
X111899Y-35901D01*
X111908Y-35901D01*
X111918Y-35904D01*
X111926Y-35908D01*
X111934Y-35914D01*
X111940Y-35922D01*
X111945Y-35930D01*
X111948Y-35939D01*
X111949Y-35949D01*
X111950Y-35950D01*
X111450Y-35950D02*
X111850Y-35950D01*
X111850Y-35950D02*
X111850Y-35350D01*
X111850Y-35350D02*
X111450Y-35350D01*
X111050Y-35350D02*
X110650Y-35350D01*
X110650Y-35350D02*
X110650Y-35950D01*
X110650Y-35950D02*
X111050Y-35950D01*
X111950Y-36900D02*
X111949Y-36909D01*
X111946Y-36919D01*
X111941Y-36927D01*
X111935Y-36935D01*
X111927Y-36941D01*
X111919Y-36946D01*
X111910Y-36948D01*
X111900Y-36949D01*
X111891Y-36949D01*
X111882Y-36946D01*
X111873Y-36941D01*
X111866Y-36935D01*
X111859Y-36928D01*
X111855Y-36919D01*
X111852Y-36910D01*
X111851Y-36900D01*
X111851Y-36891D01*
X111854Y-36882D01*
X111858Y-36873D01*
X111865Y-36866D01*
X111872Y-36859D01*
X111880Y-36855D01*
X111890Y-36852D01*
X111899Y-36851D01*
X111908Y-36851D01*
X111918Y-36854D01*
X111926Y-36858D01*
X111934Y-36864D01*
X111940Y-36872D01*
X111945Y-36880D01*
X111948Y-36889D01*
X111949Y-36899D01*
X111950Y-36900D01*
X111450Y-36900D02*
X111850Y-36900D01*
X111850Y-36900D02*
X111850Y-36300D01*
X111850Y-36300D02*
X111450Y-36300D01*
X111050Y-36300D02*
X110650Y-36300D01*
X110650Y-36300D02*
X110650Y-36900D01*
X110650Y-36900D02*
X111050Y-36900D01*
X111050Y-40350D02*
X111049Y-40359D01*
X111046Y-40369D01*
X111041Y-40377D01*
X111035Y-40385D01*
X111027Y-40391D01*
X111019Y-40396D01*
X111010Y-40398D01*
X111000Y-40399D01*
X110991Y-40399D01*
X110982Y-40396D01*
X110973Y-40391D01*
X110966Y-40385D01*
X110959Y-40378D01*
X110955Y-40369D01*
X110952Y-40360D01*
X110951Y-40350D01*
X110951Y-40341D01*
X110954Y-40332D01*
X110958Y-40323D01*
X110965Y-40316D01*
X110972Y-40309D01*
X110980Y-40305D01*
X110990Y-40302D01*
X110999Y-40301D01*
X111008Y-40301D01*
X111018Y-40304D01*
X111026Y-40308D01*
X111034Y-40314D01*
X111040Y-40322D01*
X111045Y-40330D01*
X111048Y-40339D01*
X111049Y-40349D01*
X111050Y-40350D01*
X111000Y-39900D02*
X111000Y-40300D01*
X111000Y-40300D02*
X111600Y-40300D01*
X111600Y-40300D02*
X111600Y-39900D01*
X111600Y-39500D02*
X111600Y-39100D01*
X111600Y-39100D02*
X111000Y-39100D01*
X111000Y-39100D02*
X111000Y-39500D01*
X106650Y-37550D02*
X106649Y-37559D01*
X106646Y-37569D01*
X106641Y-37577D01*
X106635Y-37585D01*
X106627Y-37591D01*
X106619Y-37596D01*
X106610Y-37598D01*
X106600Y-37599D01*
X106591Y-37599D01*
X106582Y-37596D01*
X106573Y-37591D01*
X106566Y-37585D01*
X106559Y-37578D01*
X106555Y-37569D01*
X106552Y-37560D01*
X106551Y-37550D01*
X106551Y-37541D01*
X106554Y-37532D01*
X106558Y-37523D01*
X106565Y-37516D01*
X106572Y-37509D01*
X106580Y-37505D01*
X106590Y-37502D01*
X106599Y-37501D01*
X106608Y-37501D01*
X106618Y-37504D01*
X106626Y-37508D01*
X106634Y-37514D01*
X106640Y-37522D01*
X106645Y-37530D01*
X106648Y-37539D01*
X106649Y-37549D01*
X106650Y-37550D01*
X106600Y-37100D02*
X106600Y-37500D01*
X106600Y-37500D02*
X107200Y-37500D01*
X107200Y-37500D02*
X107200Y-37100D01*
X107200Y-36700D02*
X107200Y-36300D01*
X107200Y-36300D02*
X106600Y-36300D01*
X106600Y-36300D02*
X106600Y-36700D01*
X100550Y-38300D02*
X100549Y-38309D01*
X100546Y-38319D01*
X100541Y-38327D01*
X100535Y-38335D01*
X100527Y-38341D01*
X100519Y-38346D01*
X100510Y-38348D01*
X100500Y-38349D01*
X100491Y-38349D01*
X100482Y-38346D01*
X100473Y-38341D01*
X100466Y-38335D01*
X100459Y-38328D01*
X100455Y-38319D01*
X100452Y-38310D01*
X100451Y-38300D01*
X100451Y-38291D01*
X100454Y-38282D01*
X100458Y-38273D01*
X100465Y-38266D01*
X100472Y-38259D01*
X100480Y-38255D01*
X100490Y-38252D01*
X100499Y-38251D01*
X100508Y-38251D01*
X100518Y-38254D01*
X100526Y-38258D01*
X100534Y-38264D01*
X100540Y-38272D01*
X100545Y-38280D01*
X100548Y-38289D01*
X100549Y-38299D01*
X100550Y-38300D01*
X100500Y-37850D02*
X100500Y-38250D01*
X100500Y-38250D02*
X101100Y-38250D01*
X101100Y-38250D02*
X101100Y-37850D01*
X101100Y-37450D02*
X101100Y-37050D01*
X101100Y-37050D02*
X100500Y-37050D01*
X100500Y-37050D02*
X100500Y-37450D01*
X107350Y-41450D02*
X107349Y-41459D01*
X107346Y-41469D01*
X107341Y-41477D01*
X107335Y-41485D01*
X107327Y-41491D01*
X107319Y-41496D01*
X107310Y-41498D01*
X107300Y-41499D01*
X107291Y-41499D01*
X107282Y-41496D01*
X107273Y-41491D01*
X107266Y-41485D01*
X107259Y-41478D01*
X107255Y-41469D01*
X107252Y-41460D01*
X107251Y-41450D01*
X107251Y-41441D01*
X107254Y-41432D01*
X107258Y-41423D01*
X107265Y-41416D01*
X107272Y-41409D01*
X107280Y-41405D01*
X107290Y-41402D01*
X107299Y-41401D01*
X107308Y-41401D01*
X107318Y-41404D01*
X107326Y-41408D01*
X107334Y-41414D01*
X107340Y-41422D01*
X107345Y-41430D01*
X107348Y-41439D01*
X107349Y-41449D01*
X107350Y-41450D01*
X106850Y-41450D02*
X107250Y-41450D01*
X107250Y-41450D02*
X107250Y-40850D01*
X107250Y-40850D02*
X106850Y-40850D01*
X106450Y-40850D02*
X106050Y-40850D01*
X106050Y-40850D02*
X106050Y-41450D01*
X106050Y-41450D02*
X106450Y-41450D01*
X55350Y-41450D02*
X55349Y-41459D01*
X55346Y-41469D01*
X55341Y-41477D01*
X55335Y-41485D01*
X55327Y-41491D01*
X55319Y-41496D01*
X55310Y-41498D01*
X55300Y-41499D01*
X55291Y-41499D01*
X55282Y-41496D01*
X55273Y-41491D01*
X55266Y-41485D01*
X55259Y-41478D01*
X55255Y-41469D01*
X55252Y-41460D01*
X55251Y-41450D01*
X55251Y-41441D01*
X55254Y-41432D01*
X55258Y-41423D01*
X55265Y-41416D01*
X55272Y-41409D01*
X55280Y-41405D01*
X55290Y-41402D01*
X55299Y-41401D01*
X55308Y-41401D01*
X55318Y-41404D01*
X55326Y-41408D01*
X55334Y-41414D01*
X55340Y-41422D01*
X55345Y-41430D01*
X55348Y-41439D01*
X55349Y-41449D01*
X55350Y-41450D01*
X54850Y-41450D02*
X55250Y-41450D01*
X55250Y-41450D02*
X55250Y-40850D01*
X55250Y-40850D02*
X54850Y-40850D01*
X54450Y-40850D02*
X54050Y-40850D01*
X54050Y-40850D02*
X54050Y-41450D01*
X54050Y-41450D02*
X54450Y-41450D01*
X48550Y-38300D02*
X48549Y-38309D01*
X48546Y-38319D01*
X48541Y-38327D01*
X48535Y-38335D01*
X48527Y-38341D01*
X48519Y-38346D01*
X48510Y-38348D01*
X48500Y-38349D01*
X48491Y-38349D01*
X48482Y-38346D01*
X48473Y-38341D01*
X48466Y-38335D01*
X48459Y-38328D01*
X48455Y-38319D01*
X48452Y-38310D01*
X48451Y-38300D01*
X48451Y-38291D01*
X48454Y-38282D01*
X48458Y-38273D01*
X48465Y-38266D01*
X48472Y-38259D01*
X48480Y-38255D01*
X48490Y-38252D01*
X48499Y-38251D01*
X48508Y-38251D01*
X48518Y-38254D01*
X48526Y-38258D01*
X48534Y-38264D01*
X48540Y-38272D01*
X48545Y-38280D01*
X48548Y-38289D01*
X48549Y-38299D01*
X48550Y-38300D01*
X48500Y-37850D02*
X48500Y-38250D01*
X48500Y-38250D02*
X49100Y-38250D01*
X49100Y-38250D02*
X49100Y-37850D01*
X49100Y-37450D02*
X49100Y-37050D01*
X49100Y-37050D02*
X48500Y-37050D01*
X48500Y-37050D02*
X48500Y-37450D01*
X54650Y-37550D02*
X54649Y-37559D01*
X54646Y-37569D01*
X54641Y-37577D01*
X54635Y-37585D01*
X54627Y-37591D01*
X54619Y-37596D01*
X54610Y-37598D01*
X54600Y-37599D01*
X54591Y-37599D01*
X54582Y-37596D01*
X54573Y-37591D01*
X54566Y-37585D01*
X54559Y-37578D01*
X54555Y-37569D01*
X54552Y-37560D01*
X54551Y-37550D01*
X54551Y-37541D01*
X54554Y-37532D01*
X54558Y-37523D01*
X54565Y-37516D01*
X54572Y-37509D01*
X54580Y-37505D01*
X54590Y-37502D01*
X54599Y-37501D01*
X54608Y-37501D01*
X54618Y-37504D01*
X54626Y-37508D01*
X54634Y-37514D01*
X54640Y-37522D01*
X54645Y-37530D01*
X54648Y-37539D01*
X54649Y-37549D01*
X54650Y-37550D01*
X54600Y-37100D02*
X54600Y-37500D01*
X54600Y-37500D02*
X55200Y-37500D01*
X55200Y-37500D02*
X55200Y-37100D01*
X55200Y-36700D02*
X55200Y-36300D01*
X55200Y-36300D02*
X54600Y-36300D01*
X54600Y-36300D02*
X54600Y-36700D01*
X59050Y-40350D02*
X59049Y-40359D01*
X59046Y-40369D01*
X59041Y-40377D01*
X59035Y-40385D01*
X59027Y-40391D01*
X59019Y-40396D01*
X59010Y-40398D01*
X59000Y-40399D01*
X58991Y-40399D01*
X58982Y-40396D01*
X58973Y-40391D01*
X58966Y-40385D01*
X58959Y-40378D01*
X58955Y-40369D01*
X58952Y-40360D01*
X58951Y-40350D01*
X58951Y-40341D01*
X58954Y-40332D01*
X58958Y-40323D01*
X58965Y-40316D01*
X58972Y-40309D01*
X58980Y-40305D01*
X58990Y-40302D01*
X58999Y-40301D01*
X59008Y-40301D01*
X59018Y-40304D01*
X59026Y-40308D01*
X59034Y-40314D01*
X59040Y-40322D01*
X59045Y-40330D01*
X59048Y-40339D01*
X59049Y-40349D01*
X59050Y-40350D01*
X59000Y-39900D02*
X59000Y-40300D01*
X59000Y-40300D02*
X59600Y-40300D01*
X59600Y-40300D02*
X59600Y-39900D01*
X59600Y-39500D02*
X59600Y-39100D01*
X59600Y-39100D02*
X59000Y-39100D01*
X59000Y-39100D02*
X59000Y-39500D01*
X59950Y-36900D02*
X59949Y-36909D01*
X59946Y-36919D01*
X59941Y-36927D01*
X59935Y-36935D01*
X59927Y-36941D01*
X59919Y-36946D01*
X59910Y-36948D01*
X59900Y-36949D01*
X59891Y-36949D01*
X59882Y-36946D01*
X59873Y-36941D01*
X59866Y-36935D01*
X59859Y-36928D01*
X59855Y-36919D01*
X59852Y-36910D01*
X59851Y-36900D01*
X59851Y-36891D01*
X59854Y-36882D01*
X59858Y-36873D01*
X59865Y-36866D01*
X59872Y-36859D01*
X59880Y-36855D01*
X59890Y-36852D01*
X59899Y-36851D01*
X59908Y-36851D01*
X59918Y-36854D01*
X59926Y-36858D01*
X59934Y-36864D01*
X59940Y-36872D01*
X59945Y-36880D01*
X59948Y-36889D01*
X59949Y-36899D01*
X59950Y-36900D01*
X59450Y-36900D02*
X59850Y-36900D01*
X59850Y-36900D02*
X59850Y-36300D01*
X59850Y-36300D02*
X59450Y-36300D01*
X59050Y-36300D02*
X58650Y-36300D01*
X58650Y-36300D02*
X58650Y-36900D01*
X58650Y-36900D02*
X59050Y-36900D01*
X59950Y-35950D02*
X59949Y-35959D01*
X59946Y-35969D01*
X59941Y-35977D01*
X59935Y-35985D01*
X59927Y-35991D01*
X59919Y-35996D01*
X59910Y-35998D01*
X59900Y-35999D01*
X59891Y-35999D01*
X59882Y-35996D01*
X59873Y-35991D01*
X59866Y-35985D01*
X59859Y-35978D01*
X59855Y-35969D01*
X59852Y-35960D01*
X59851Y-35950D01*
X59851Y-35941D01*
X59854Y-35932D01*
X59858Y-35923D01*
X59865Y-35916D01*
X59872Y-35909D01*
X59880Y-35905D01*
X59890Y-35902D01*
X59899Y-35901D01*
X59908Y-35901D01*
X59918Y-35904D01*
X59926Y-35908D01*
X59934Y-35914D01*
X59940Y-35922D01*
X59945Y-35930D01*
X59948Y-35939D01*
X59949Y-35949D01*
X59950Y-35950D01*
X59450Y-35950D02*
X59850Y-35950D01*
X59850Y-35950D02*
X59850Y-35350D01*
X59850Y-35350D02*
X59450Y-35350D01*
X59050Y-35350D02*
X58650Y-35350D01*
X58650Y-35350D02*
X58650Y-35950D01*
X58650Y-35950D02*
X59050Y-35950D01*
G54D12*
X56250Y-36350D02*
X56250Y-40150D01*
X56250Y-40150D02*
X57750Y-40150D01*
X57750Y-40150D02*
X57750Y-36350D01*
X57750Y-36350D02*
X56250Y-36350D01*
X56750Y-36350D02*
X56750Y-36650D01*
X56750Y-36650D02*
X57150Y-36650D01*
X57150Y-36650D02*
X57150Y-36350D01*
X56250Y-69350D02*
X56250Y-73150D01*
X56250Y-73150D02*
X57750Y-73150D01*
X57750Y-73150D02*
X57750Y-69350D01*
X57750Y-69350D02*
X56250Y-69350D01*
X56750Y-69350D02*
X56750Y-69650D01*
X56750Y-69650D02*
X57150Y-69650D01*
X57150Y-69650D02*
X57150Y-69350D01*
G54D11*
X59950Y-68950D02*
X59949Y-68959D01*
X59946Y-68969D01*
X59941Y-68977D01*
X59935Y-68985D01*
X59927Y-68991D01*
X59919Y-68996D01*
X59910Y-68998D01*
X59900Y-68999D01*
X59891Y-68999D01*
X59882Y-68996D01*
X59873Y-68991D01*
X59866Y-68985D01*
X59859Y-68978D01*
X59855Y-68969D01*
X59852Y-68960D01*
X59851Y-68950D01*
X59851Y-68941D01*
X59854Y-68932D01*
X59858Y-68923D01*
X59865Y-68916D01*
X59872Y-68909D01*
X59880Y-68905D01*
X59890Y-68902D01*
X59899Y-68901D01*
X59908Y-68901D01*
X59918Y-68904D01*
X59926Y-68908D01*
X59934Y-68914D01*
X59940Y-68922D01*
X59945Y-68930D01*
X59948Y-68939D01*
X59949Y-68949D01*
X59950Y-68950D01*
X59450Y-68950D02*
X59850Y-68950D01*
X59850Y-68950D02*
X59850Y-68350D01*
X59850Y-68350D02*
X59450Y-68350D01*
X59050Y-68350D02*
X58650Y-68350D01*
X58650Y-68350D02*
X58650Y-68950D01*
X58650Y-68950D02*
X59050Y-68950D01*
X59950Y-69900D02*
X59949Y-69909D01*
X59946Y-69919D01*
X59941Y-69927D01*
X59935Y-69935D01*
X59927Y-69941D01*
X59919Y-69946D01*
X59910Y-69948D01*
X59900Y-69949D01*
X59891Y-69949D01*
X59882Y-69946D01*
X59873Y-69941D01*
X59866Y-69935D01*
X59859Y-69928D01*
X59855Y-69919D01*
X59852Y-69910D01*
X59851Y-69900D01*
X59851Y-69891D01*
X59854Y-69882D01*
X59858Y-69873D01*
X59865Y-69866D01*
X59872Y-69859D01*
X59880Y-69855D01*
X59890Y-69852D01*
X59899Y-69851D01*
X59908Y-69851D01*
X59918Y-69854D01*
X59926Y-69858D01*
X59934Y-69864D01*
X59940Y-69872D01*
X59945Y-69880D01*
X59948Y-69889D01*
X59949Y-69899D01*
X59950Y-69900D01*
X59450Y-69900D02*
X59850Y-69900D01*
X59850Y-69900D02*
X59850Y-69300D01*
X59850Y-69300D02*
X59450Y-69300D01*
X59050Y-69300D02*
X58650Y-69300D01*
X58650Y-69300D02*
X58650Y-69900D01*
X58650Y-69900D02*
X59050Y-69900D01*
X59050Y-73350D02*
X59049Y-73359D01*
X59046Y-73369D01*
X59041Y-73377D01*
X59035Y-73385D01*
X59027Y-73391D01*
X59019Y-73396D01*
X59010Y-73398D01*
X59000Y-73399D01*
X58991Y-73399D01*
X58982Y-73396D01*
X58973Y-73391D01*
X58966Y-73385D01*
X58959Y-73378D01*
X58955Y-73369D01*
X58952Y-73360D01*
X58951Y-73350D01*
X58951Y-73341D01*
X58954Y-73332D01*
X58958Y-73323D01*
X58965Y-73316D01*
X58972Y-73309D01*
X58980Y-73305D01*
X58990Y-73302D01*
X58999Y-73301D01*
X59008Y-73301D01*
X59018Y-73304D01*
X59026Y-73308D01*
X59034Y-73314D01*
X59040Y-73322D01*
X59045Y-73330D01*
X59048Y-73339D01*
X59049Y-73349D01*
X59050Y-73350D01*
X59000Y-72900D02*
X59000Y-73300D01*
X59000Y-73300D02*
X59600Y-73300D01*
X59600Y-73300D02*
X59600Y-72900D01*
X59600Y-72500D02*
X59600Y-72100D01*
X59600Y-72100D02*
X59000Y-72100D01*
X59000Y-72100D02*
X59000Y-72500D01*
X54650Y-70550D02*
X54649Y-70559D01*
X54646Y-70569D01*
X54641Y-70577D01*
X54635Y-70585D01*
X54627Y-70591D01*
X54619Y-70596D01*
X54610Y-70598D01*
X54600Y-70599D01*
X54591Y-70599D01*
X54582Y-70596D01*
X54573Y-70591D01*
X54566Y-70585D01*
X54559Y-70578D01*
X54555Y-70569D01*
X54552Y-70560D01*
X54551Y-70550D01*
X54551Y-70541D01*
X54554Y-70532D01*
X54558Y-70523D01*
X54565Y-70516D01*
X54572Y-70509D01*
X54580Y-70505D01*
X54590Y-70502D01*
X54599Y-70501D01*
X54608Y-70501D01*
X54618Y-70504D01*
X54626Y-70508D01*
X54634Y-70514D01*
X54640Y-70522D01*
X54645Y-70530D01*
X54648Y-70539D01*
X54649Y-70549D01*
X54650Y-70550D01*
X54600Y-70100D02*
X54600Y-70500D01*
X54600Y-70500D02*
X55200Y-70500D01*
X55200Y-70500D02*
X55200Y-70100D01*
X55200Y-69700D02*
X55200Y-69300D01*
X55200Y-69300D02*
X54600Y-69300D01*
X54600Y-69300D02*
X54600Y-69700D01*
X48550Y-71300D02*
X48549Y-71309D01*
X48546Y-71319D01*
X48541Y-71327D01*
X48535Y-71335D01*
X48527Y-71341D01*
X48519Y-71346D01*
X48510Y-71348D01*
X48500Y-71349D01*
X48491Y-71349D01*
X48482Y-71346D01*
X48473Y-71341D01*
X48466Y-71335D01*
X48459Y-71328D01*
X48455Y-71319D01*
X48452Y-71310D01*
X48451Y-71300D01*
X48451Y-71291D01*
X48454Y-71282D01*
X48458Y-71273D01*
X48465Y-71266D01*
X48472Y-71259D01*
X48480Y-71255D01*
X48490Y-71252D01*
X48499Y-71251D01*
X48508Y-71251D01*
X48518Y-71254D01*
X48526Y-71258D01*
X48534Y-71264D01*
X48540Y-71272D01*
X48545Y-71280D01*
X48548Y-71289D01*
X48549Y-71299D01*
X48550Y-71300D01*
X48500Y-70850D02*
X48500Y-71250D01*
X48500Y-71250D02*
X49100Y-71250D01*
X49100Y-71250D02*
X49100Y-70850D01*
X49100Y-70450D02*
X49100Y-70050D01*
X49100Y-70050D02*
X48500Y-70050D01*
X48500Y-70050D02*
X48500Y-70450D01*
X55350Y-74450D02*
X55349Y-74459D01*
X55346Y-74469D01*
X55341Y-74477D01*
X55335Y-74485D01*
X55327Y-74491D01*
X55319Y-74496D01*
X55310Y-74498D01*
X55300Y-74499D01*
X55291Y-74499D01*
X55282Y-74496D01*
X55273Y-74491D01*
X55266Y-74485D01*
X55259Y-74478D01*
X55255Y-74469D01*
X55252Y-74460D01*
X55251Y-74450D01*
X55251Y-74441D01*
X55254Y-74432D01*
X55258Y-74423D01*
X55265Y-74416D01*
X55272Y-74409D01*
X55280Y-74405D01*
X55290Y-74402D01*
X55299Y-74401D01*
X55308Y-74401D01*
X55318Y-74404D01*
X55326Y-74408D01*
X55334Y-74414D01*
X55340Y-74422D01*
X55345Y-74430D01*
X55348Y-74439D01*
X55349Y-74449D01*
X55350Y-74450D01*
X54850Y-74450D02*
X55250Y-74450D01*
X55250Y-74450D02*
X55250Y-73850D01*
X55250Y-73850D02*
X54850Y-73850D01*
X54450Y-73850D02*
X54050Y-73850D01*
X54050Y-73850D02*
X54050Y-74450D01*
X54050Y-74450D02*
X54450Y-74450D01*
X106692Y-74251D02*
X106775Y-74132D01*
X106834Y-74251D02*
X106834Y-74001D01*
X106739Y-74001D01*
X106715Y-74013D01*
X106704Y-74025D01*
X106692Y-74049D01*
X106692Y-74085D01*
X106704Y-74108D01*
X106715Y-74120D01*
X106739Y-74132D01*
X106834Y-74132D01*
X106465Y-74001D02*
X106584Y-74001D01*
X106596Y-74120D01*
X106584Y-74108D01*
X106561Y-74096D01*
X106501Y-74096D01*
X106477Y-74108D01*
X106465Y-74120D01*
X106454Y-74144D01*
X106454Y-74204D01*
X106465Y-74227D01*
X106477Y-74239D01*
X106501Y-74251D01*
X106561Y-74251D01*
X106584Y-74239D01*
X106596Y-74227D01*
X100901Y-70608D02*
X100782Y-70525D01*
X100901Y-70466D02*
X100651Y-70466D01*
X100651Y-70561D01*
X100663Y-70585D01*
X100675Y-70596D01*
X100699Y-70608D01*
X100735Y-70608D01*
X100758Y-70596D01*
X100770Y-70585D01*
X100782Y-70561D01*
X100782Y-70466D01*
X100651Y-70823D02*
X100651Y-70775D01*
X100663Y-70751D01*
X100675Y-70739D01*
X100711Y-70716D01*
X100758Y-70704D01*
X100854Y-70704D01*
X100877Y-70716D01*
X100889Y-70727D01*
X100901Y-70751D01*
X100901Y-70799D01*
X100889Y-70823D01*
X100877Y-70835D01*
X100854Y-70846D01*
X100794Y-70846D01*
X100770Y-70835D01*
X100758Y-70823D01*
X100746Y-70799D01*
X100746Y-70751D01*
X100758Y-70727D01*
X100770Y-70716D01*
X100794Y-70704D01*
X107001Y-69858D02*
X106882Y-69775D01*
X107001Y-69716D02*
X106751Y-69716D01*
X106751Y-69811D01*
X106763Y-69835D01*
X106775Y-69846D01*
X106799Y-69858D01*
X106835Y-69858D01*
X106858Y-69846D01*
X106870Y-69835D01*
X106882Y-69811D01*
X106882Y-69716D01*
X106775Y-69954D02*
X106763Y-69966D01*
X106751Y-69989D01*
X106751Y-70049D01*
X106763Y-70073D01*
X106775Y-70085D01*
X106799Y-70096D01*
X106823Y-70096D01*
X106858Y-70085D01*
X107001Y-69942D01*
X107001Y-70096D01*
X111401Y-72658D02*
X111282Y-72575D01*
X111401Y-72516D02*
X111151Y-72516D01*
X111151Y-72611D01*
X111163Y-72635D01*
X111175Y-72646D01*
X111199Y-72658D01*
X111235Y-72658D01*
X111258Y-72646D01*
X111270Y-72635D01*
X111282Y-72611D01*
X111282Y-72516D01*
X111235Y-72873D02*
X111401Y-72873D01*
X111139Y-72813D02*
X111318Y-72754D01*
X111318Y-72908D01*
X111292Y-69701D02*
X111375Y-69582D01*
X111434Y-69701D02*
X111434Y-69451D01*
X111339Y-69451D01*
X111315Y-69463D01*
X111304Y-69475D01*
X111292Y-69499D01*
X111292Y-69535D01*
X111304Y-69558D01*
X111315Y-69570D01*
X111339Y-69582D01*
X111434Y-69582D01*
X111208Y-69451D02*
X111054Y-69451D01*
X111137Y-69546D01*
X111101Y-69546D01*
X111077Y-69558D01*
X111065Y-69570D01*
X111054Y-69594D01*
X111054Y-69654D01*
X111065Y-69677D01*
X111077Y-69689D01*
X111101Y-69701D01*
X111173Y-69701D01*
X111196Y-69689D01*
X111208Y-69677D01*
X111292Y-68751D02*
X111375Y-68632D01*
X111434Y-68751D02*
X111434Y-68501D01*
X111339Y-68501D01*
X111315Y-68513D01*
X111304Y-68525D01*
X111292Y-68549D01*
X111292Y-68585D01*
X111304Y-68608D01*
X111315Y-68620D01*
X111339Y-68632D01*
X111434Y-68632D01*
X111054Y-68751D02*
X111196Y-68751D01*
X111125Y-68751D02*
X111125Y-68501D01*
X111149Y-68537D01*
X111173Y-68561D01*
X111196Y-68573D01*
X108412Y-70907D02*
X108736Y-70907D01*
X108774Y-70929D01*
X108793Y-70950D01*
X108812Y-70993D01*
X108812Y-71079D01*
X108793Y-71121D01*
X108774Y-71143D01*
X108736Y-71164D01*
X108412Y-71164D01*
X108812Y-71614D02*
X108812Y-71357D01*
X108812Y-71485D02*
X108412Y-71485D01*
X108469Y-71442D01*
X108507Y-71400D01*
X108526Y-71357D01*
X109112Y-70402D02*
X109112Y-70631D01*
X109512Y-70516D02*
X109112Y-70516D01*
X109512Y-70955D02*
X109512Y-70764D01*
X109112Y-70764D01*
X109112Y-71164D02*
X109112Y-71203D01*
X109131Y-71241D01*
X109150Y-71260D01*
X109188Y-71279D01*
X109264Y-71298D01*
X109360Y-71298D01*
X109436Y-71279D01*
X109474Y-71260D01*
X109493Y-71241D01*
X109512Y-71203D01*
X109512Y-71164D01*
X109493Y-71126D01*
X109474Y-71107D01*
X109436Y-71088D01*
X109360Y-71069D01*
X109264Y-71069D01*
X109188Y-71088D01*
X109150Y-71107D01*
X109131Y-71126D01*
X109112Y-71164D01*
X109283Y-71526D02*
X109264Y-71488D01*
X109245Y-71469D01*
X109207Y-71450D01*
X109188Y-71450D01*
X109150Y-71469D01*
X109131Y-71488D01*
X109112Y-71526D01*
X109112Y-71603D01*
X109131Y-71641D01*
X109150Y-71660D01*
X109188Y-71679D01*
X109207Y-71679D01*
X109245Y-71660D01*
X109264Y-71641D01*
X109283Y-71603D01*
X109283Y-71526D01*
X109302Y-71488D01*
X109321Y-71469D01*
X109360Y-71450D01*
X109436Y-71450D01*
X109474Y-71469D01*
X109493Y-71488D01*
X109512Y-71526D01*
X109512Y-71603D01*
X109493Y-71641D01*
X109474Y-71660D01*
X109436Y-71679D01*
X109360Y-71679D01*
X109321Y-71660D01*
X109302Y-71641D01*
X109283Y-71603D01*
X109245Y-72022D02*
X109512Y-72022D01*
X109093Y-71926D02*
X109379Y-71831D01*
X109379Y-72079D01*
X108412Y-37907D02*
X108736Y-37907D01*
X108774Y-37929D01*
X108793Y-37950D01*
X108812Y-37993D01*
X108812Y-38079D01*
X108793Y-38121D01*
X108774Y-38143D01*
X108736Y-38164D01*
X108412Y-38164D01*
X108812Y-38614D02*
X108812Y-38357D01*
X108812Y-38485D02*
X108412Y-38485D01*
X108469Y-38442D01*
X108507Y-38400D01*
X108526Y-38357D01*
X109112Y-37402D02*
X109112Y-37631D01*
X109512Y-37516D02*
X109112Y-37516D01*
X109512Y-37955D02*
X109512Y-37764D01*
X109112Y-37764D01*
X109112Y-38164D02*
X109112Y-38203D01*
X109131Y-38241D01*
X109150Y-38260D01*
X109188Y-38279D01*
X109264Y-38298D01*
X109360Y-38298D01*
X109436Y-38279D01*
X109474Y-38260D01*
X109493Y-38241D01*
X109512Y-38203D01*
X109512Y-38164D01*
X109493Y-38126D01*
X109474Y-38107D01*
X109436Y-38088D01*
X109360Y-38069D01*
X109264Y-38069D01*
X109188Y-38088D01*
X109150Y-38107D01*
X109131Y-38126D01*
X109112Y-38164D01*
X109283Y-38526D02*
X109264Y-38488D01*
X109245Y-38469D01*
X109207Y-38450D01*
X109188Y-38450D01*
X109150Y-38469D01*
X109131Y-38488D01*
X109112Y-38526D01*
X109112Y-38603D01*
X109131Y-38641D01*
X109150Y-38660D01*
X109188Y-38679D01*
X109207Y-38679D01*
X109245Y-38660D01*
X109264Y-38641D01*
X109283Y-38603D01*
X109283Y-38526D01*
X109302Y-38488D01*
X109321Y-38469D01*
X109360Y-38450D01*
X109436Y-38450D01*
X109474Y-38469D01*
X109493Y-38488D01*
X109512Y-38526D01*
X109512Y-38603D01*
X109493Y-38641D01*
X109474Y-38660D01*
X109436Y-38679D01*
X109360Y-38679D01*
X109321Y-38660D01*
X109302Y-38641D01*
X109283Y-38603D01*
X109245Y-39022D02*
X109512Y-39022D01*
X109093Y-38926D02*
X109379Y-38831D01*
X109379Y-39079D01*
X111292Y-35751D02*
X111375Y-35632D01*
X111434Y-35751D02*
X111434Y-35501D01*
X111339Y-35501D01*
X111315Y-35513D01*
X111304Y-35525D01*
X111292Y-35549D01*
X111292Y-35585D01*
X111304Y-35608D01*
X111315Y-35620D01*
X111339Y-35632D01*
X111434Y-35632D01*
X111054Y-35751D02*
X111196Y-35751D01*
X111125Y-35751D02*
X111125Y-35501D01*
X111149Y-35537D01*
X111173Y-35561D01*
X111196Y-35573D01*
X111292Y-36701D02*
X111375Y-36582D01*
X111434Y-36701D02*
X111434Y-36451D01*
X111339Y-36451D01*
X111315Y-36463D01*
X111304Y-36475D01*
X111292Y-36499D01*
X111292Y-36535D01*
X111304Y-36558D01*
X111315Y-36570D01*
X111339Y-36582D01*
X111434Y-36582D01*
X111208Y-36451D02*
X111054Y-36451D01*
X111137Y-36546D01*
X111101Y-36546D01*
X111077Y-36558D01*
X111065Y-36570D01*
X111054Y-36594D01*
X111054Y-36654D01*
X111065Y-36677D01*
X111077Y-36689D01*
X111101Y-36701D01*
X111173Y-36701D01*
X111196Y-36689D01*
X111208Y-36677D01*
X111401Y-39658D02*
X111282Y-39575D01*
X111401Y-39516D02*
X111151Y-39516D01*
X111151Y-39611D01*
X111163Y-39635D01*
X111175Y-39646D01*
X111199Y-39658D01*
X111235Y-39658D01*
X111258Y-39646D01*
X111270Y-39635D01*
X111282Y-39611D01*
X111282Y-39516D01*
X111235Y-39873D02*
X111401Y-39873D01*
X111139Y-39813D02*
X111318Y-39754D01*
X111318Y-39908D01*
X107001Y-36858D02*
X106882Y-36775D01*
X107001Y-36716D02*
X106751Y-36716D01*
X106751Y-36811D01*
X106763Y-36835D01*
X106775Y-36846D01*
X106799Y-36858D01*
X106835Y-36858D01*
X106858Y-36846D01*
X106870Y-36835D01*
X106882Y-36811D01*
X106882Y-36716D01*
X106775Y-36954D02*
X106763Y-36966D01*
X106751Y-36989D01*
X106751Y-37049D01*
X106763Y-37073D01*
X106775Y-37085D01*
X106799Y-37096D01*
X106823Y-37096D01*
X106858Y-37085D01*
X107001Y-36942D01*
X107001Y-37096D01*
X100901Y-37608D02*
X100782Y-37525D01*
X100901Y-37466D02*
X100651Y-37466D01*
X100651Y-37561D01*
X100663Y-37585D01*
X100675Y-37596D01*
X100699Y-37608D01*
X100735Y-37608D01*
X100758Y-37596D01*
X100770Y-37585D01*
X100782Y-37561D01*
X100782Y-37466D01*
X100651Y-37823D02*
X100651Y-37775D01*
X100663Y-37751D01*
X100675Y-37739D01*
X100711Y-37716D01*
X100758Y-37704D01*
X100854Y-37704D01*
X100877Y-37716D01*
X100889Y-37727D01*
X100901Y-37751D01*
X100901Y-37799D01*
X100889Y-37823D01*
X100877Y-37835D01*
X100854Y-37846D01*
X100794Y-37846D01*
X100770Y-37835D01*
X100758Y-37823D01*
X100746Y-37799D01*
X100746Y-37751D01*
X100758Y-37727D01*
X100770Y-37716D01*
X100794Y-37704D01*
X106692Y-41251D02*
X106775Y-41132D01*
X106834Y-41251D02*
X106834Y-41001D01*
X106739Y-41001D01*
X106715Y-41013D01*
X106704Y-41025D01*
X106692Y-41049D01*
X106692Y-41085D01*
X106704Y-41108D01*
X106715Y-41120D01*
X106739Y-41132D01*
X106834Y-41132D01*
X106465Y-41001D02*
X106584Y-41001D01*
X106596Y-41120D01*
X106584Y-41108D01*
X106561Y-41096D01*
X106501Y-41096D01*
X106477Y-41108D01*
X106465Y-41120D01*
X106454Y-41144D01*
X106454Y-41204D01*
X106465Y-41227D01*
X106477Y-41239D01*
X106501Y-41251D01*
X106561Y-41251D01*
X106584Y-41239D01*
X106596Y-41227D01*
X54692Y-41251D02*
X54775Y-41132D01*
X54834Y-41251D02*
X54834Y-41001D01*
X54739Y-41001D01*
X54715Y-41013D01*
X54704Y-41025D01*
X54692Y-41049D01*
X54692Y-41085D01*
X54704Y-41108D01*
X54715Y-41120D01*
X54739Y-41132D01*
X54834Y-41132D01*
X54465Y-41001D02*
X54584Y-41001D01*
X54596Y-41120D01*
X54584Y-41108D01*
X54561Y-41096D01*
X54501Y-41096D01*
X54477Y-41108D01*
X54465Y-41120D01*
X54454Y-41144D01*
X54454Y-41204D01*
X54465Y-41227D01*
X54477Y-41239D01*
X54501Y-41251D01*
X54561Y-41251D01*
X54584Y-41239D01*
X54596Y-41227D01*
X48901Y-37608D02*
X48782Y-37525D01*
X48901Y-37466D02*
X48651Y-37466D01*
X48651Y-37561D01*
X48663Y-37585D01*
X48675Y-37596D01*
X48699Y-37608D01*
X48735Y-37608D01*
X48758Y-37596D01*
X48770Y-37585D01*
X48782Y-37561D01*
X48782Y-37466D01*
X48651Y-37823D02*
X48651Y-37775D01*
X48663Y-37751D01*
X48675Y-37739D01*
X48711Y-37716D01*
X48758Y-37704D01*
X48854Y-37704D01*
X48877Y-37716D01*
X48889Y-37727D01*
X48901Y-37751D01*
X48901Y-37799D01*
X48889Y-37823D01*
X48877Y-37835D01*
X48854Y-37846D01*
X48794Y-37846D01*
X48770Y-37835D01*
X48758Y-37823D01*
X48746Y-37799D01*
X48746Y-37751D01*
X48758Y-37727D01*
X48770Y-37716D01*
X48794Y-37704D01*
X55001Y-36858D02*
X54882Y-36775D01*
X55001Y-36716D02*
X54751Y-36716D01*
X54751Y-36811D01*
X54763Y-36835D01*
X54775Y-36846D01*
X54799Y-36858D01*
X54835Y-36858D01*
X54858Y-36846D01*
X54870Y-36835D01*
X54882Y-36811D01*
X54882Y-36716D01*
X54775Y-36954D02*
X54763Y-36966D01*
X54751Y-36989D01*
X54751Y-37049D01*
X54763Y-37073D01*
X54775Y-37085D01*
X54799Y-37096D01*
X54823Y-37096D01*
X54858Y-37085D01*
X55001Y-36942D01*
X55001Y-37096D01*
X59401Y-39658D02*
X59282Y-39575D01*
X59401Y-39516D02*
X59151Y-39516D01*
X59151Y-39611D01*
X59163Y-39635D01*
X59175Y-39646D01*
X59199Y-39658D01*
X59235Y-39658D01*
X59258Y-39646D01*
X59270Y-39635D01*
X59282Y-39611D01*
X59282Y-39516D01*
X59235Y-39873D02*
X59401Y-39873D01*
X59139Y-39813D02*
X59318Y-39754D01*
X59318Y-39908D01*
X59292Y-36701D02*
X59375Y-36582D01*
X59434Y-36701D02*
X59434Y-36451D01*
X59339Y-36451D01*
X59315Y-36463D01*
X59304Y-36475D01*
X59292Y-36499D01*
X59292Y-36535D01*
X59304Y-36558D01*
X59315Y-36570D01*
X59339Y-36582D01*
X59434Y-36582D01*
X59208Y-36451D02*
X59054Y-36451D01*
X59137Y-36546D01*
X59101Y-36546D01*
X59077Y-36558D01*
X59065Y-36570D01*
X59054Y-36594D01*
X59054Y-36654D01*
X59065Y-36677D01*
X59077Y-36689D01*
X59101Y-36701D01*
X59173Y-36701D01*
X59196Y-36689D01*
X59208Y-36677D01*
X59292Y-35751D02*
X59375Y-35632D01*
X59434Y-35751D02*
X59434Y-35501D01*
X59339Y-35501D01*
X59315Y-35513D01*
X59304Y-35525D01*
X59292Y-35549D01*
X59292Y-35585D01*
X59304Y-35608D01*
X59315Y-35620D01*
X59339Y-35632D01*
X59434Y-35632D01*
X59054Y-35751D02*
X59196Y-35751D01*
X59125Y-35751D02*
X59125Y-35501D01*
X59149Y-35537D01*
X59173Y-35561D01*
X59196Y-35573D01*
X56412Y-37907D02*
X56736Y-37907D01*
X56774Y-37929D01*
X56793Y-37950D01*
X56812Y-37993D01*
X56812Y-38079D01*
X56793Y-38121D01*
X56774Y-38143D01*
X56736Y-38164D01*
X56412Y-38164D01*
X56812Y-38614D02*
X56812Y-38357D01*
X56812Y-38485D02*
X56412Y-38485D01*
X56469Y-38442D01*
X56507Y-38400D01*
X56526Y-38357D01*
X57112Y-37402D02*
X57112Y-37631D01*
X57512Y-37516D02*
X57112Y-37516D01*
X57512Y-37955D02*
X57512Y-37764D01*
X57112Y-37764D01*
X57112Y-38164D02*
X57112Y-38203D01*
X57131Y-38241D01*
X57150Y-38260D01*
X57188Y-38279D01*
X57264Y-38298D01*
X57360Y-38298D01*
X57436Y-38279D01*
X57474Y-38260D01*
X57493Y-38241D01*
X57512Y-38203D01*
X57512Y-38164D01*
X57493Y-38126D01*
X57474Y-38107D01*
X57436Y-38088D01*
X57360Y-38069D01*
X57264Y-38069D01*
X57188Y-38088D01*
X57150Y-38107D01*
X57131Y-38126D01*
X57112Y-38164D01*
X57283Y-38526D02*
X57264Y-38488D01*
X57245Y-38469D01*
X57207Y-38450D01*
X57188Y-38450D01*
X57150Y-38469D01*
X57131Y-38488D01*
X57112Y-38526D01*
X57112Y-38603D01*
X57131Y-38641D01*
X57150Y-38660D01*
X57188Y-38679D01*
X57207Y-38679D01*
X57245Y-38660D01*
X57264Y-38641D01*
X57283Y-38603D01*
X57283Y-38526D01*
X57302Y-38488D01*
X57321Y-38469D01*
X57360Y-38450D01*
X57436Y-38450D01*
X57474Y-38469D01*
X57493Y-38488D01*
X57512Y-38526D01*
X57512Y-38603D01*
X57493Y-38641D01*
X57474Y-38660D01*
X57436Y-38679D01*
X57360Y-38679D01*
X57321Y-38660D01*
X57302Y-38641D01*
X57283Y-38603D01*
X57245Y-39022D02*
X57512Y-39022D01*
X57093Y-38926D02*
X57379Y-38831D01*
X57379Y-39079D01*
X56412Y-70907D02*
X56736Y-70907D01*
X56774Y-70929D01*
X56793Y-70950D01*
X56812Y-70993D01*
X56812Y-71079D01*
X56793Y-71121D01*
X56774Y-71143D01*
X56736Y-71164D01*
X56412Y-71164D01*
X56812Y-71614D02*
X56812Y-71357D01*
X56812Y-71485D02*
X56412Y-71485D01*
X56469Y-71442D01*
X56507Y-71400D01*
X56526Y-71357D01*
X57112Y-70402D02*
X57112Y-70631D01*
X57512Y-70516D02*
X57112Y-70516D01*
X57512Y-70955D02*
X57512Y-70764D01*
X57112Y-70764D01*
X57112Y-71164D02*
X57112Y-71203D01*
X57131Y-71241D01*
X57150Y-71260D01*
X57188Y-71279D01*
X57264Y-71298D01*
X57360Y-71298D01*
X57436Y-71279D01*
X57474Y-71260D01*
X57493Y-71241D01*
X57512Y-71203D01*
X57512Y-71164D01*
X57493Y-71126D01*
X57474Y-71107D01*
X57436Y-71088D01*
X57360Y-71069D01*
X57264Y-71069D01*
X57188Y-71088D01*
X57150Y-71107D01*
X57131Y-71126D01*
X57112Y-71164D01*
X57283Y-71526D02*
X57264Y-71488D01*
X57245Y-71469D01*
X57207Y-71450D01*
X57188Y-71450D01*
X57150Y-71469D01*
X57131Y-71488D01*
X57112Y-71526D01*
X57112Y-71603D01*
X57131Y-71641D01*
X57150Y-71660D01*
X57188Y-71679D01*
X57207Y-71679D01*
X57245Y-71660D01*
X57264Y-71641D01*
X57283Y-71603D01*
X57283Y-71526D01*
X57302Y-71488D01*
X57321Y-71469D01*
X57360Y-71450D01*
X57436Y-71450D01*
X57474Y-71469D01*
X57493Y-71488D01*
X57512Y-71526D01*
X57512Y-71603D01*
X57493Y-71641D01*
X57474Y-71660D01*
X57436Y-71679D01*
X57360Y-71679D01*
X57321Y-71660D01*
X57302Y-71641D01*
X57283Y-71603D01*
X57245Y-72022D02*
X57512Y-72022D01*
X57093Y-71926D02*
X57379Y-71831D01*
X57379Y-72079D01*
X59292Y-68751D02*
X59375Y-68632D01*
X59434Y-68751D02*
X59434Y-68501D01*
X59339Y-68501D01*
X59315Y-68513D01*
X59304Y-68525D01*
X59292Y-68549D01*
X59292Y-68585D01*
X59304Y-68608D01*
X59315Y-68620D01*
X59339Y-68632D01*
X59434Y-68632D01*
X59054Y-68751D02*
X59196Y-68751D01*
X59125Y-68751D02*
X59125Y-68501D01*
X59149Y-68537D01*
X59173Y-68561D01*
X59196Y-68573D01*
X59292Y-69701D02*
X59375Y-69582D01*
X59434Y-69701D02*
X59434Y-69451D01*
X59339Y-69451D01*
X59315Y-69463D01*
X59304Y-69475D01*
X59292Y-69499D01*
X59292Y-69535D01*
X59304Y-69558D01*
X59315Y-69570D01*
X59339Y-69582D01*
X59434Y-69582D01*
X59208Y-69451D02*
X59054Y-69451D01*
X59137Y-69546D01*
X59101Y-69546D01*
X59077Y-69558D01*
X59065Y-69570D01*
X59054Y-69594D01*
X59054Y-69654D01*
X59065Y-69677D01*
X59077Y-69689D01*
X59101Y-69701D01*
X59173Y-69701D01*
X59196Y-69689D01*
X59208Y-69677D01*
X59401Y-72658D02*
X59282Y-72575D01*
X59401Y-72516D02*
X59151Y-72516D01*
X59151Y-72611D01*
X59163Y-72635D01*
X59175Y-72646D01*
X59199Y-72658D01*
X59235Y-72658D01*
X59258Y-72646D01*
X59270Y-72635D01*
X59282Y-72611D01*
X59282Y-72516D01*
X59235Y-72873D02*
X59401Y-72873D01*
X59139Y-72813D02*
X59318Y-72754D01*
X59318Y-72908D01*
X55001Y-69858D02*
X54882Y-69775D01*
X55001Y-69716D02*
X54751Y-69716D01*
X54751Y-69811D01*
X54763Y-69835D01*
X54775Y-69846D01*
X54799Y-69858D01*
X54835Y-69858D01*
X54858Y-69846D01*
X54870Y-69835D01*
X54882Y-69811D01*
X54882Y-69716D01*
X54775Y-69954D02*
X54763Y-69966D01*
X54751Y-69989D01*
X54751Y-70049D01*
X54763Y-70073D01*
X54775Y-70085D01*
X54799Y-70096D01*
X54823Y-70096D01*
X54858Y-70085D01*
X55001Y-69942D01*
X55001Y-70096D01*
X48901Y-70608D02*
X48782Y-70525D01*
X48901Y-70466D02*
X48651Y-70466D01*
X48651Y-70561D01*
X48663Y-70585D01*
X48675Y-70596D01*
X48699Y-70608D01*
X48735Y-70608D01*
X48758Y-70596D01*
X48770Y-70585D01*
X48782Y-70561D01*
X48782Y-70466D01*
X48651Y-70823D02*
X48651Y-70775D01*
X48663Y-70751D01*
X48675Y-70739D01*
X48711Y-70716D01*
X48758Y-70704D01*
X48854Y-70704D01*
X48877Y-70716D01*
X48889Y-70727D01*
X48901Y-70751D01*
X48901Y-70799D01*
X48889Y-70823D01*
X48877Y-70835D01*
X48854Y-70846D01*
X48794Y-70846D01*
X48770Y-70835D01*
X48758Y-70823D01*
X48746Y-70799D01*
X48746Y-70751D01*
X48758Y-70727D01*
X48770Y-70716D01*
X48794Y-70704D01*
X54692Y-74251D02*
X54775Y-74132D01*
X54834Y-74251D02*
X54834Y-74001D01*
X54739Y-74001D01*
X54715Y-74013D01*
X54704Y-74025D01*
X54692Y-74049D01*
X54692Y-74085D01*
X54704Y-74108D01*
X54715Y-74120D01*
X54739Y-74132D01*
X54834Y-74132D01*
X54465Y-74001D02*
X54584Y-74001D01*
X54596Y-74120D01*
X54584Y-74108D01*
X54561Y-74096D01*
X54501Y-74096D01*
X54477Y-74108D01*
X54465Y-74120D01*
X54454Y-74144D01*
X54454Y-74204D01*
X54465Y-74227D01*
X54477Y-74239D01*
X54501Y-74251D01*
X54561Y-74251D01*
X54584Y-74239D01*
X54596Y-74227D01*
M02*
