G04 (created by PCBNEW-RS274X (2011-nov-30)-testing) date Wed 03 Apr 2013 02:23:03 PM ART*
G01*
G70*
G90*
%MOIN*%
G04 Gerber Fmt 3.4, Leading zero omitted, Abs format*
%FSLAX34Y34*%
G04 APERTURE LIST*
%ADD10C,0.006000*%
%ADD11R,0.100000X0.100000*%
%ADD12C,0.100000*%
%ADD13R,0.055000X0.055000*%
%ADD14C,0.055000*%
%ADD15R,0.035000X0.055000*%
%ADD16R,0.055000X0.035000*%
%ADD17R,0.045000X0.020000*%
%ADD18C,0.059100*%
%ADD19C,0.019700*%
%ADD20C,0.027600*%
%ADD21C,0.023600*%
%ADD22C,0.010000*%
G04 APERTURE END LIST*
G54D10*
G54D11*
X101200Y-65100D03*
G54D12*
X103200Y-65100D03*
X105200Y-65100D03*
G54D13*
X109150Y-75200D03*
G54D14*
X108150Y-75200D03*
G54D13*
X112650Y-69900D03*
G54D14*
X112650Y-70900D03*
X112650Y-71900D03*
X112650Y-72900D03*
X115650Y-72900D03*
X115650Y-71900D03*
X115650Y-70900D03*
X115650Y-69900D03*
G54D13*
X101950Y-70050D03*
G54D14*
X101950Y-71050D03*
X101950Y-72050D03*
X101950Y-73050D03*
X104950Y-73050D03*
X104950Y-72050D03*
X104950Y-71050D03*
X104950Y-70050D03*
G54D13*
X110000Y-66800D03*
G54D14*
X109000Y-66800D03*
X108000Y-66800D03*
G54D15*
X107025Y-74150D03*
X106275Y-74150D03*
G54D16*
X100800Y-71025D03*
X100800Y-70275D03*
X106900Y-70275D03*
X106900Y-69525D03*
X111300Y-73075D03*
X111300Y-72325D03*
G54D15*
X111625Y-69600D03*
X110875Y-69600D03*
X111625Y-68650D03*
X110875Y-68650D03*
G54D17*
X110050Y-69750D03*
X110050Y-70250D03*
X110050Y-70750D03*
X110050Y-71250D03*
X110050Y-71750D03*
X110050Y-72250D03*
X110050Y-72750D03*
X107950Y-72750D03*
X107950Y-72250D03*
X107950Y-71750D03*
X107950Y-71250D03*
X107950Y-70750D03*
X107950Y-70250D03*
X107950Y-69750D03*
X110050Y-36750D03*
X110050Y-37250D03*
X110050Y-37750D03*
X110050Y-38250D03*
X110050Y-38750D03*
X110050Y-39250D03*
X110050Y-39750D03*
X107950Y-39750D03*
X107950Y-39250D03*
X107950Y-38750D03*
X107950Y-38250D03*
X107950Y-37750D03*
X107950Y-37250D03*
X107950Y-36750D03*
G54D15*
X111625Y-35650D03*
X110875Y-35650D03*
X111625Y-36600D03*
X110875Y-36600D03*
G54D16*
X111300Y-40075D03*
X111300Y-39325D03*
X106900Y-37275D03*
X106900Y-36525D03*
X100800Y-38025D03*
X100800Y-37275D03*
G54D15*
X107025Y-41150D03*
X106275Y-41150D03*
G54D13*
X110000Y-33800D03*
G54D14*
X109000Y-33800D03*
X108000Y-33800D03*
G54D13*
X101950Y-37050D03*
G54D14*
X101950Y-38050D03*
X101950Y-39050D03*
X101950Y-40050D03*
X104950Y-40050D03*
X104950Y-39050D03*
X104950Y-38050D03*
X104950Y-37050D03*
G54D13*
X112650Y-36900D03*
G54D14*
X112650Y-37900D03*
X112650Y-38900D03*
X112650Y-39900D03*
X115650Y-39900D03*
X115650Y-38900D03*
X115650Y-37900D03*
X115650Y-36900D03*
G54D13*
X109150Y-42200D03*
G54D14*
X108150Y-42200D03*
G54D11*
X101200Y-32100D03*
G54D12*
X103200Y-32100D03*
X105200Y-32100D03*
G54D11*
X49200Y-32100D03*
G54D12*
X51200Y-32100D03*
X53200Y-32100D03*
G54D13*
X57150Y-42200D03*
G54D14*
X56150Y-42200D03*
G54D13*
X60650Y-36900D03*
G54D14*
X60650Y-37900D03*
X60650Y-38900D03*
X60650Y-39900D03*
X63650Y-39900D03*
X63650Y-38900D03*
X63650Y-37900D03*
X63650Y-36900D03*
G54D13*
X49950Y-37050D03*
G54D14*
X49950Y-38050D03*
X49950Y-39050D03*
X49950Y-40050D03*
X52950Y-40050D03*
X52950Y-39050D03*
X52950Y-38050D03*
X52950Y-37050D03*
G54D13*
X58000Y-33800D03*
G54D14*
X57000Y-33800D03*
X56000Y-33800D03*
G54D15*
X55025Y-41150D03*
X54275Y-41150D03*
G54D16*
X48800Y-38025D03*
X48800Y-37275D03*
X54900Y-37275D03*
X54900Y-36525D03*
X59300Y-40075D03*
X59300Y-39325D03*
G54D15*
X59625Y-36600D03*
X58875Y-36600D03*
X59625Y-35650D03*
X58875Y-35650D03*
G54D17*
X58050Y-36750D03*
X58050Y-37250D03*
X58050Y-37750D03*
X58050Y-38250D03*
X58050Y-38750D03*
X58050Y-39250D03*
X58050Y-39750D03*
X55950Y-39750D03*
X55950Y-39250D03*
X55950Y-38750D03*
X55950Y-38250D03*
X55950Y-37750D03*
X55950Y-37250D03*
X55950Y-36750D03*
X58050Y-69750D03*
X58050Y-70250D03*
X58050Y-70750D03*
X58050Y-71250D03*
X58050Y-71750D03*
X58050Y-72250D03*
X58050Y-72750D03*
X55950Y-72750D03*
X55950Y-72250D03*
X55950Y-71750D03*
X55950Y-71250D03*
X55950Y-70750D03*
X55950Y-70250D03*
X55950Y-69750D03*
G54D15*
X59625Y-68650D03*
X58875Y-68650D03*
X59625Y-69600D03*
X58875Y-69600D03*
G54D16*
X59300Y-73075D03*
X59300Y-72325D03*
X54900Y-70275D03*
X54900Y-69525D03*
X48800Y-71025D03*
X48800Y-70275D03*
G54D15*
X55025Y-74150D03*
X54275Y-74150D03*
G54D13*
X58000Y-66800D03*
G54D14*
X57000Y-66800D03*
X56000Y-66800D03*
G54D13*
X49950Y-70050D03*
G54D14*
X49950Y-71050D03*
X49950Y-72050D03*
X49950Y-73050D03*
X52950Y-73050D03*
X52950Y-72050D03*
X52950Y-71050D03*
X52950Y-70050D03*
G54D13*
X60650Y-69900D03*
G54D14*
X60650Y-70900D03*
X60650Y-71900D03*
X60650Y-72900D03*
X63650Y-72900D03*
X63650Y-71900D03*
X63650Y-70900D03*
X63650Y-69900D03*
G54D13*
X57150Y-75200D03*
G54D14*
X56150Y-75200D03*
G54D11*
X49200Y-65100D03*
G54D12*
X51200Y-65100D03*
X53200Y-65100D03*
G54D18*
X57600Y-67850D03*
X54000Y-67900D03*
X54000Y-34900D03*
X57600Y-34850D03*
X109600Y-34850D03*
X106000Y-34900D03*
X106000Y-67900D03*
X109600Y-67850D03*
X60350Y-67800D03*
X58650Y-67800D03*
X60350Y-34800D03*
X58650Y-34800D03*
X110650Y-34800D03*
X112350Y-34800D03*
X110650Y-67800D03*
X112350Y-67800D03*
G54D19*
X49200Y-65100D02*
X49200Y-68500D01*
X49200Y-68500D02*
X49900Y-69200D01*
G54D20*
X59650Y-71250D02*
X60300Y-71900D01*
X58050Y-71250D02*
X59650Y-71250D01*
X60650Y-71900D02*
X63650Y-71900D01*
G54D19*
X58000Y-67450D02*
X57600Y-67850D01*
X57600Y-67850D02*
X57600Y-68200D01*
X57600Y-71250D02*
X58050Y-71250D01*
X57300Y-70950D02*
X57600Y-71250D01*
X57300Y-68500D02*
X57300Y-70950D01*
X57600Y-68200D02*
X57300Y-68500D01*
X58000Y-66800D02*
X58000Y-67450D01*
X54000Y-67900D02*
X52700Y-69200D01*
X52700Y-69200D02*
X49900Y-69200D01*
X49900Y-69200D02*
X49875Y-69200D01*
X49875Y-69200D02*
X48800Y-70275D01*
G54D20*
X60300Y-71900D02*
X60650Y-71900D01*
G54D19*
X57300Y-35500D02*
X57300Y-37950D01*
X57600Y-35200D02*
X57300Y-35500D01*
X58000Y-33800D02*
X58000Y-34450D01*
X54000Y-34900D02*
X52700Y-36200D01*
X52700Y-36200D02*
X49900Y-36200D01*
X49900Y-36200D02*
X49875Y-36200D01*
X49875Y-36200D02*
X48800Y-37275D01*
G54D20*
X60300Y-38900D02*
X60650Y-38900D01*
G54D19*
X57300Y-37950D02*
X57600Y-38250D01*
X57600Y-38250D02*
X58050Y-38250D01*
X57600Y-34850D02*
X57600Y-35200D01*
X58000Y-34450D02*
X57600Y-34850D01*
G54D20*
X60650Y-38900D02*
X63650Y-38900D01*
X58050Y-38250D02*
X59650Y-38250D01*
X59650Y-38250D02*
X60300Y-38900D01*
G54D19*
X49200Y-35500D02*
X49900Y-36200D01*
X49200Y-32100D02*
X49200Y-35500D01*
X101200Y-32100D02*
X101200Y-35500D01*
X101200Y-35500D02*
X101900Y-36200D01*
G54D20*
X111650Y-38250D02*
X112300Y-38900D01*
X110050Y-38250D02*
X111650Y-38250D01*
X112650Y-38900D02*
X115650Y-38900D01*
G54D19*
X110000Y-34450D02*
X109600Y-34850D01*
X109600Y-34850D02*
X109600Y-35200D01*
X109600Y-38250D02*
X110050Y-38250D01*
X109300Y-37950D02*
X109600Y-38250D01*
X109300Y-35500D02*
X109300Y-37950D01*
X109600Y-35200D02*
X109300Y-35500D01*
X110000Y-33800D02*
X110000Y-34450D01*
X106000Y-34900D02*
X104700Y-36200D01*
X104700Y-36200D02*
X101900Y-36200D01*
X101900Y-36200D02*
X101875Y-36200D01*
X101875Y-36200D02*
X100800Y-37275D01*
G54D20*
X112300Y-38900D02*
X112650Y-38900D01*
X112300Y-71900D02*
X112650Y-71900D01*
G54D19*
X101875Y-69200D02*
X100800Y-70275D01*
X101900Y-69200D02*
X101875Y-69200D01*
X104700Y-69200D02*
X101900Y-69200D01*
X106000Y-67900D02*
X104700Y-69200D01*
X110000Y-66800D02*
X110000Y-67450D01*
X109600Y-68200D02*
X109300Y-68500D01*
X109300Y-68500D02*
X109300Y-70950D01*
X109300Y-70950D02*
X109600Y-71250D01*
X109600Y-71250D02*
X110050Y-71250D01*
X109600Y-67850D02*
X109600Y-68200D01*
X110000Y-67450D02*
X109600Y-67850D01*
G54D20*
X112650Y-71900D02*
X115650Y-71900D01*
X110050Y-71250D02*
X111650Y-71250D01*
X111650Y-71250D02*
X112300Y-71900D01*
G54D19*
X101200Y-68500D02*
X101900Y-69200D01*
X101200Y-65100D02*
X101200Y-68500D01*
X56000Y-67950D02*
X56550Y-68500D01*
X56550Y-68500D02*
X56550Y-70900D01*
X56550Y-70900D02*
X56200Y-71250D01*
X56000Y-66800D02*
X56000Y-67950D01*
X56200Y-71250D02*
X55950Y-71250D01*
X56200Y-38250D02*
X55950Y-38250D01*
X56000Y-33800D02*
X56000Y-34950D01*
X56550Y-37900D02*
X56200Y-38250D01*
X56550Y-35500D02*
X56550Y-37900D01*
X56000Y-34950D02*
X56550Y-35500D01*
X108000Y-67950D02*
X108550Y-68500D01*
X108550Y-68500D02*
X108550Y-70900D01*
X108550Y-70900D02*
X108200Y-71250D01*
X108000Y-66800D02*
X108000Y-67950D01*
X108200Y-71250D02*
X107950Y-71250D01*
X108200Y-38250D02*
X107950Y-38250D01*
X108000Y-33800D02*
X108000Y-34950D01*
X108550Y-37900D02*
X108200Y-38250D01*
X108550Y-35500D02*
X108550Y-37900D01*
X108000Y-34950D02*
X108550Y-35500D01*
X57600Y-68850D02*
X58650Y-67800D01*
X58050Y-70750D02*
X57800Y-70750D01*
X57600Y-70550D02*
X57600Y-68850D01*
X57800Y-70750D02*
X57600Y-70550D01*
X54900Y-69525D02*
X54900Y-66650D01*
X58950Y-65900D02*
X60350Y-67300D01*
X55650Y-65900D02*
X58950Y-65900D01*
X54900Y-66650D02*
X55650Y-65900D01*
X60350Y-67300D02*
X60350Y-67800D01*
X51200Y-65200D02*
X52650Y-66650D01*
X52650Y-66650D02*
X54900Y-66650D01*
X51200Y-65100D02*
X51200Y-65200D01*
X57600Y-35850D02*
X58650Y-34800D01*
X58050Y-37750D02*
X57800Y-37750D01*
X57600Y-37550D02*
X57600Y-35850D01*
X57800Y-37750D02*
X57600Y-37550D01*
X54900Y-36525D02*
X54900Y-33650D01*
X58950Y-32900D02*
X60350Y-34300D01*
X55650Y-32900D02*
X58950Y-32900D01*
X54900Y-33650D02*
X55650Y-32900D01*
X60350Y-34300D02*
X60350Y-34800D01*
X51200Y-32200D02*
X52650Y-33650D01*
X52650Y-33650D02*
X54900Y-33650D01*
X51200Y-32100D02*
X51200Y-32200D01*
X103200Y-32100D02*
X103200Y-32200D01*
X104650Y-33650D02*
X106900Y-33650D01*
X103200Y-32200D02*
X104650Y-33650D01*
X112350Y-34300D02*
X112350Y-34800D01*
X106900Y-33650D02*
X107650Y-32900D01*
X107650Y-32900D02*
X110950Y-32900D01*
X110950Y-32900D02*
X112350Y-34300D01*
X106900Y-36525D02*
X106900Y-33650D01*
X109800Y-37750D02*
X109600Y-37550D01*
X109600Y-37550D02*
X109600Y-35850D01*
X110050Y-37750D02*
X109800Y-37750D01*
X109600Y-35850D02*
X110650Y-34800D01*
X103200Y-65100D02*
X103200Y-65200D01*
X104650Y-66650D02*
X106900Y-66650D01*
X103200Y-65200D02*
X104650Y-66650D01*
X112350Y-67300D02*
X112350Y-67800D01*
X106900Y-66650D02*
X107650Y-65900D01*
X107650Y-65900D02*
X110950Y-65900D01*
X110950Y-65900D02*
X112350Y-67300D01*
X106900Y-69525D02*
X106900Y-66650D01*
X109800Y-70750D02*
X109600Y-70550D01*
X109600Y-70550D02*
X109600Y-68850D01*
X110050Y-70750D02*
X109800Y-70750D01*
X109600Y-68850D02*
X110650Y-67800D01*
G54D20*
X58050Y-39750D02*
X58975Y-39750D01*
X58975Y-39750D02*
X59300Y-40075D01*
G54D19*
X57850Y-39750D02*
X57150Y-40450D01*
X57150Y-40450D02*
X57150Y-42200D01*
X58050Y-39750D02*
X57850Y-39750D01*
X58050Y-72750D02*
X57850Y-72750D01*
X57150Y-73450D02*
X57150Y-75200D01*
X57850Y-72750D02*
X57150Y-73450D01*
G54D20*
X58975Y-72750D02*
X59300Y-73075D01*
X58050Y-72750D02*
X58975Y-72750D01*
X110050Y-39750D02*
X110975Y-39750D01*
X110975Y-39750D02*
X111300Y-40075D01*
G54D19*
X109850Y-39750D02*
X109150Y-40450D01*
X109150Y-40450D02*
X109150Y-42200D01*
X110050Y-39750D02*
X109850Y-39750D01*
X110050Y-72750D02*
X109850Y-72750D01*
X109150Y-73450D02*
X109150Y-75200D01*
X109850Y-72750D02*
X109150Y-73450D01*
G54D20*
X110975Y-72750D02*
X111300Y-73075D01*
X110050Y-72750D02*
X110975Y-72750D01*
G54D19*
X55750Y-42200D02*
X56150Y-42200D01*
X55950Y-40225D02*
X55025Y-41150D01*
X55950Y-39750D02*
X55950Y-40225D01*
X55025Y-41475D02*
X55750Y-42200D01*
X55025Y-41150D02*
X55025Y-41475D01*
X55025Y-74150D02*
X55025Y-74475D01*
X55025Y-74475D02*
X55750Y-75200D01*
X55950Y-72750D02*
X55950Y-73225D01*
X55950Y-73225D02*
X55025Y-74150D01*
X55750Y-75200D02*
X56150Y-75200D01*
X107750Y-42200D02*
X108150Y-42200D01*
X107950Y-40225D02*
X107025Y-41150D01*
X107950Y-39750D02*
X107950Y-40225D01*
X107025Y-41475D02*
X107750Y-42200D01*
X107025Y-41150D02*
X107025Y-41475D01*
X107025Y-74150D02*
X107025Y-74475D01*
X107025Y-74475D02*
X107750Y-75200D01*
X107950Y-72750D02*
X107950Y-73225D01*
X107950Y-73225D02*
X107025Y-74150D01*
X107750Y-75200D02*
X108150Y-75200D01*
X57000Y-66800D02*
X57000Y-71600D01*
X57000Y-71600D02*
X56850Y-71750D01*
X55950Y-71750D02*
X56850Y-71750D01*
X56850Y-71750D02*
X57000Y-71750D01*
X57000Y-71750D02*
X58050Y-71750D01*
X59625Y-69600D02*
X59500Y-69600D01*
X57000Y-66500D02*
X57000Y-66800D01*
X57300Y-66200D02*
X57000Y-66500D01*
X58550Y-66200D02*
X57300Y-66200D01*
X59250Y-66900D02*
X58550Y-66200D01*
X59250Y-69350D02*
X59250Y-66900D01*
X59500Y-69600D02*
X59250Y-69350D01*
X50800Y-73050D02*
X52950Y-73050D01*
X49950Y-73050D02*
X50800Y-73050D01*
X54625Y-71475D02*
X55350Y-70750D01*
X55350Y-70750D02*
X55950Y-70750D01*
X54550Y-71550D02*
X54625Y-71475D01*
X52100Y-71550D02*
X54550Y-71550D01*
X50800Y-72850D02*
X52100Y-71550D01*
X50800Y-73050D02*
X50800Y-72850D01*
X54900Y-71750D02*
X54625Y-71475D01*
X55950Y-71750D02*
X54900Y-71750D01*
G54D20*
X59925Y-69900D02*
X59625Y-69600D01*
X60650Y-69900D02*
X59925Y-69900D01*
G54D19*
X50800Y-40050D02*
X52950Y-40050D01*
X49950Y-40050D02*
X50800Y-40050D01*
X54625Y-38475D02*
X55350Y-37750D01*
X55350Y-37750D02*
X55950Y-37750D01*
X54550Y-38550D02*
X54625Y-38475D01*
X52100Y-38550D02*
X54550Y-38550D01*
X50800Y-39850D02*
X52100Y-38550D01*
X50800Y-40050D02*
X50800Y-39850D01*
X54900Y-38750D02*
X54625Y-38475D01*
X55950Y-38750D02*
X54900Y-38750D01*
G54D20*
X59925Y-36900D02*
X59625Y-36600D01*
X60650Y-36900D02*
X59925Y-36900D01*
G54D19*
X59500Y-36600D02*
X59250Y-36350D01*
X59250Y-36350D02*
X59250Y-33900D01*
X59250Y-33900D02*
X58550Y-33200D01*
X58550Y-33200D02*
X57300Y-33200D01*
X57300Y-33200D02*
X57000Y-33500D01*
X57000Y-33500D02*
X57000Y-33800D01*
X59625Y-36600D02*
X59500Y-36600D01*
X57000Y-38750D02*
X58050Y-38750D01*
X56850Y-38750D02*
X57000Y-38750D01*
X55950Y-38750D02*
X56850Y-38750D01*
X57000Y-38600D02*
X56850Y-38750D01*
X57000Y-33800D02*
X57000Y-38600D01*
X109000Y-33800D02*
X109000Y-38600D01*
X109000Y-38600D02*
X108850Y-38750D01*
X107950Y-38750D02*
X108850Y-38750D01*
X108850Y-38750D02*
X109000Y-38750D01*
X109000Y-38750D02*
X110050Y-38750D01*
X111625Y-36600D02*
X111500Y-36600D01*
X109000Y-33500D02*
X109000Y-33800D01*
X109300Y-33200D02*
X109000Y-33500D01*
X110550Y-33200D02*
X109300Y-33200D01*
X111250Y-33900D02*
X110550Y-33200D01*
X111250Y-36350D02*
X111250Y-33900D01*
X111500Y-36600D02*
X111250Y-36350D01*
G54D20*
X112650Y-36900D02*
X111925Y-36900D01*
X111925Y-36900D02*
X111625Y-36600D01*
G54D19*
X107950Y-38750D02*
X106900Y-38750D01*
X106900Y-38750D02*
X106625Y-38475D01*
X102800Y-40050D02*
X102800Y-39850D01*
X102800Y-39850D02*
X104100Y-38550D01*
X104100Y-38550D02*
X106550Y-38550D01*
X106550Y-38550D02*
X106625Y-38475D01*
X107350Y-37750D02*
X107950Y-37750D01*
X106625Y-38475D02*
X107350Y-37750D01*
X101950Y-40050D02*
X102800Y-40050D01*
X102800Y-40050D02*
X104950Y-40050D01*
G54D20*
X112650Y-69900D02*
X111925Y-69900D01*
X111925Y-69900D02*
X111625Y-69600D01*
G54D19*
X107950Y-71750D02*
X106900Y-71750D01*
X106900Y-71750D02*
X106625Y-71475D01*
X102800Y-73050D02*
X102800Y-72850D01*
X102800Y-72850D02*
X104100Y-71550D01*
X104100Y-71550D02*
X106550Y-71550D01*
X106550Y-71550D02*
X106625Y-71475D01*
X107350Y-70750D02*
X107950Y-70750D01*
X106625Y-71475D02*
X107350Y-70750D01*
X101950Y-73050D02*
X102800Y-73050D01*
X102800Y-73050D02*
X104950Y-73050D01*
X111500Y-69600D02*
X111250Y-69350D01*
X111250Y-69350D02*
X111250Y-66900D01*
X111250Y-66900D02*
X110550Y-66200D01*
X110550Y-66200D02*
X109300Y-66200D01*
X109300Y-66200D02*
X109000Y-66500D01*
X109000Y-66500D02*
X109000Y-66800D01*
X111625Y-69600D02*
X111500Y-69600D01*
X109000Y-71750D02*
X110050Y-71750D01*
X108850Y-71750D02*
X109000Y-71750D01*
X107950Y-71750D02*
X108850Y-71750D01*
X109000Y-71600D02*
X108850Y-71750D01*
X109000Y-66800D02*
X109000Y-71600D01*
G54D20*
X59625Y-35650D02*
X60750Y-35650D01*
X60900Y-37900D02*
X60650Y-37900D01*
X61350Y-37450D02*
X60900Y-37900D01*
X61350Y-36250D02*
X61350Y-37450D01*
X60750Y-35650D02*
X61350Y-36250D01*
X60750Y-68650D02*
X61350Y-69250D01*
X61350Y-69250D02*
X61350Y-70450D01*
X61350Y-70450D02*
X60900Y-70900D01*
X60900Y-70900D02*
X60650Y-70900D01*
X59625Y-68650D02*
X60750Y-68650D01*
X111625Y-68650D02*
X112750Y-68650D01*
X112900Y-70900D02*
X112650Y-70900D01*
X113350Y-70450D02*
X112900Y-70900D01*
X113350Y-69250D02*
X113350Y-70450D01*
X112750Y-68650D02*
X113350Y-69250D01*
X112750Y-35650D02*
X113350Y-36250D01*
X113350Y-36250D02*
X113350Y-37450D01*
X113350Y-37450D02*
X112900Y-37900D01*
X112900Y-37900D02*
X112650Y-37900D01*
X111625Y-35650D02*
X112750Y-35650D01*
G54D19*
X60650Y-72900D02*
X61950Y-72900D01*
X58875Y-69875D02*
X58875Y-69600D01*
X60400Y-71400D02*
X58875Y-69875D01*
X64100Y-71400D02*
X60400Y-71400D01*
X64500Y-71800D02*
X64100Y-71400D01*
X64500Y-73250D02*
X64500Y-71800D01*
X64250Y-73500D02*
X64500Y-73250D01*
X62550Y-73500D02*
X64250Y-73500D01*
X61950Y-72900D02*
X62550Y-73500D01*
G54D20*
X58875Y-69600D02*
X58875Y-69825D01*
X58450Y-70250D02*
X58050Y-70250D01*
X58875Y-69825D02*
X58450Y-70250D01*
G54D19*
X60650Y-39900D02*
X61950Y-39900D01*
X58875Y-36875D02*
X58875Y-36600D01*
X60400Y-38400D02*
X58875Y-36875D01*
X64100Y-38400D02*
X60400Y-38400D01*
X64500Y-38800D02*
X64100Y-38400D01*
X64500Y-40250D02*
X64500Y-38800D01*
X64250Y-40500D02*
X64500Y-40250D01*
X62550Y-40500D02*
X64250Y-40500D01*
X61950Y-39900D02*
X62550Y-40500D01*
G54D20*
X58875Y-36600D02*
X58875Y-36825D01*
X58450Y-37250D02*
X58050Y-37250D01*
X58875Y-36825D02*
X58450Y-37250D01*
X110875Y-36825D02*
X110450Y-37250D01*
X110450Y-37250D02*
X110050Y-37250D01*
X110875Y-36600D02*
X110875Y-36825D01*
G54D19*
X113950Y-39900D02*
X114550Y-40500D01*
X114550Y-40500D02*
X116250Y-40500D01*
X116250Y-40500D02*
X116500Y-40250D01*
X116500Y-40250D02*
X116500Y-38800D01*
X116500Y-38800D02*
X116100Y-38400D01*
X116100Y-38400D02*
X112400Y-38400D01*
X112400Y-38400D02*
X110875Y-36875D01*
X110875Y-36875D02*
X110875Y-36600D01*
X112650Y-39900D02*
X113950Y-39900D01*
G54D20*
X110875Y-69825D02*
X110450Y-70250D01*
X110450Y-70250D02*
X110050Y-70250D01*
X110875Y-69600D02*
X110875Y-69825D01*
G54D19*
X113950Y-72900D02*
X114550Y-73500D01*
X114550Y-73500D02*
X116250Y-73500D01*
X116250Y-73500D02*
X116500Y-73250D01*
X116500Y-73250D02*
X116500Y-71800D01*
X116500Y-71800D02*
X116100Y-71400D01*
X116100Y-71400D02*
X112400Y-71400D01*
X112400Y-71400D02*
X110875Y-69875D01*
X110875Y-69875D02*
X110875Y-69600D01*
X112650Y-72900D02*
X113950Y-72900D01*
G54D20*
X58125Y-72325D02*
X58050Y-72250D01*
X59300Y-72325D02*
X58125Y-72325D01*
G54D21*
X60225Y-72325D02*
X60300Y-72400D01*
X60300Y-72400D02*
X62100Y-72400D01*
X62100Y-72400D02*
X62600Y-72900D01*
X62600Y-72900D02*
X63650Y-72900D01*
X59300Y-72325D02*
X60225Y-72325D01*
X59300Y-39325D02*
X60225Y-39325D01*
X62600Y-39900D02*
X63650Y-39900D01*
X62100Y-39400D02*
X62600Y-39900D01*
X60300Y-39400D02*
X62100Y-39400D01*
X60225Y-39325D02*
X60300Y-39400D01*
G54D20*
X59300Y-39325D02*
X58125Y-39325D01*
X58125Y-39325D02*
X58050Y-39250D01*
X110125Y-39325D02*
X110050Y-39250D01*
X111300Y-39325D02*
X110125Y-39325D01*
G54D21*
X112225Y-39325D02*
X112300Y-39400D01*
X112300Y-39400D02*
X114100Y-39400D01*
X114100Y-39400D02*
X114600Y-39900D01*
X114600Y-39900D02*
X115650Y-39900D01*
X111300Y-39325D02*
X112225Y-39325D01*
X111300Y-72325D02*
X112225Y-72325D01*
X114600Y-72900D02*
X115650Y-72900D01*
X114100Y-72400D02*
X114600Y-72900D01*
X112300Y-72400D02*
X114100Y-72400D01*
X112225Y-72325D02*
X112300Y-72400D01*
G54D20*
X111300Y-72325D02*
X110125Y-72325D01*
X110125Y-72325D02*
X110050Y-72250D01*
X58050Y-36750D02*
X58050Y-36300D01*
X58700Y-35650D02*
X58875Y-35650D01*
X58050Y-36300D02*
X58700Y-35650D01*
X58050Y-69300D02*
X58700Y-68650D01*
X58700Y-68650D02*
X58875Y-68650D01*
X58050Y-69750D02*
X58050Y-69300D01*
X110050Y-69750D02*
X110050Y-69300D01*
X110700Y-68650D02*
X110875Y-68650D01*
X110050Y-69300D02*
X110700Y-68650D01*
X110050Y-36300D02*
X110700Y-35650D01*
X110700Y-35650D02*
X110875Y-35650D01*
X110050Y-36750D02*
X110050Y-36300D01*
G54D19*
X49925Y-71025D02*
X49950Y-71050D01*
X48800Y-71025D02*
X49925Y-71025D01*
X48800Y-38025D02*
X49925Y-38025D01*
X49925Y-38025D02*
X49950Y-38050D01*
X101925Y-38025D02*
X101950Y-38050D01*
X100800Y-38025D02*
X101925Y-38025D01*
X100800Y-71025D02*
X101925Y-71025D01*
X101925Y-71025D02*
X101950Y-71050D01*
X55150Y-72250D02*
X55950Y-72250D01*
X54950Y-72050D02*
X55150Y-72250D01*
X52950Y-72050D02*
X54950Y-72050D01*
X54275Y-73375D02*
X52950Y-72050D01*
X54275Y-74150D02*
X54275Y-73375D01*
X54275Y-41150D02*
X54275Y-40375D01*
X54275Y-40375D02*
X52950Y-39050D01*
X52950Y-39050D02*
X54950Y-39050D01*
X54950Y-39050D02*
X55150Y-39250D01*
X55150Y-39250D02*
X55950Y-39250D01*
X107150Y-72250D02*
X107950Y-72250D01*
X106950Y-72050D02*
X107150Y-72250D01*
X104950Y-72050D02*
X106950Y-72050D01*
X106275Y-73375D02*
X104950Y-72050D01*
X106275Y-74150D02*
X106275Y-73375D01*
X106275Y-41150D02*
X106275Y-40375D01*
X106275Y-40375D02*
X104950Y-39050D01*
X104950Y-39050D02*
X106950Y-39050D01*
X106950Y-39050D02*
X107150Y-39250D01*
X107150Y-39250D02*
X107950Y-39250D01*
X54900Y-70275D02*
X53975Y-70275D01*
X50300Y-72050D02*
X49950Y-72050D01*
X51800Y-70550D02*
X50300Y-72050D01*
X53700Y-70550D02*
X51800Y-70550D01*
X53975Y-70275D02*
X53700Y-70550D01*
X54900Y-70275D02*
X55925Y-70275D01*
X55925Y-70275D02*
X55950Y-70250D01*
X55925Y-37275D02*
X55950Y-37250D01*
X54900Y-37275D02*
X55925Y-37275D01*
X53975Y-37275D02*
X53700Y-37550D01*
X53700Y-37550D02*
X51800Y-37550D01*
X51800Y-37550D02*
X50300Y-39050D01*
X50300Y-39050D02*
X49950Y-39050D01*
X54900Y-37275D02*
X53975Y-37275D01*
X106900Y-37275D02*
X105975Y-37275D01*
X102300Y-39050D02*
X101950Y-39050D01*
X103800Y-37550D02*
X102300Y-39050D01*
X105700Y-37550D02*
X103800Y-37550D01*
X105975Y-37275D02*
X105700Y-37550D01*
X106900Y-37275D02*
X107925Y-37275D01*
X107925Y-37275D02*
X107950Y-37250D01*
X107925Y-70275D02*
X107950Y-70250D01*
X106900Y-70275D02*
X107925Y-70275D01*
X105975Y-70275D02*
X105700Y-70550D01*
X105700Y-70550D02*
X103800Y-70550D01*
X103800Y-70550D02*
X102300Y-72050D01*
X102300Y-72050D02*
X101950Y-72050D01*
X106900Y-70275D02*
X105975Y-70275D01*
X55750Y-36750D02*
X55600Y-36900D01*
X55600Y-36900D02*
X53850Y-36900D01*
X53850Y-36900D02*
X53500Y-36550D01*
X53500Y-36550D02*
X50450Y-36550D01*
X50450Y-36550D02*
X49950Y-37050D01*
X55950Y-36750D02*
X55750Y-36750D01*
X55950Y-69750D02*
X55750Y-69750D01*
X50450Y-69550D02*
X49950Y-70050D01*
X53500Y-69550D02*
X50450Y-69550D01*
X53850Y-69900D02*
X53500Y-69550D01*
X55600Y-69900D02*
X53850Y-69900D01*
X55750Y-69750D02*
X55600Y-69900D01*
X107750Y-36750D02*
X107600Y-36900D01*
X107600Y-36900D02*
X105850Y-36900D01*
X105850Y-36900D02*
X105500Y-36550D01*
X105500Y-36550D02*
X102450Y-36550D01*
X102450Y-36550D02*
X101950Y-37050D01*
X107950Y-36750D02*
X107750Y-36750D01*
X107950Y-69750D02*
X107750Y-69750D01*
X102450Y-69550D02*
X101950Y-70050D01*
X105500Y-69550D02*
X102450Y-69550D01*
X105850Y-69900D02*
X105500Y-69550D01*
X107600Y-69900D02*
X105850Y-69900D01*
X107750Y-69750D02*
X107600Y-69900D01*
G54D10*
G36*
X60044Y-68262D02*
X60022Y-68262D01*
X60011Y-68234D01*
X59941Y-68164D01*
X59850Y-68126D01*
X59751Y-68126D01*
X59401Y-68126D01*
X59309Y-68164D01*
X59250Y-68223D01*
X59191Y-68164D01*
X59100Y-68126D01*
X59093Y-68126D01*
X59111Y-68108D01*
X59194Y-67908D01*
X59194Y-67692D01*
X59111Y-67492D01*
X58958Y-67339D01*
X58758Y-67256D01*
X58542Y-67256D01*
X58348Y-67336D01*
X58348Y-67314D01*
X58416Y-67286D01*
X58486Y-67216D01*
X58524Y-67125D01*
X58524Y-67026D01*
X58524Y-66476D01*
X58486Y-66384D01*
X58416Y-66314D01*
X58325Y-66276D01*
X58226Y-66276D01*
X57676Y-66276D01*
X57584Y-66314D01*
X57514Y-66384D01*
X57476Y-66475D01*
X57476Y-66566D01*
X57460Y-66528D01*
X57368Y-66503D01*
X57297Y-66574D01*
X57297Y-66432D01*
X57272Y-66340D01*
X57076Y-66270D01*
X56868Y-66282D01*
X56728Y-66340D01*
X56703Y-66432D01*
X57000Y-66729D01*
X57297Y-66432D01*
X57297Y-66574D01*
X57071Y-66800D01*
X57368Y-67097D01*
X57460Y-67072D01*
X57476Y-67027D01*
X57476Y-67124D01*
X57514Y-67216D01*
X57584Y-67286D01*
X57631Y-67306D01*
X57492Y-67306D01*
X57297Y-67386D01*
X57297Y-67168D01*
X57000Y-66871D01*
X56703Y-67168D01*
X56728Y-67260D01*
X56924Y-67330D01*
X57132Y-67318D01*
X57272Y-67260D01*
X57297Y-67168D01*
X57297Y-67386D01*
X57292Y-67389D01*
X57139Y-67542D01*
X57056Y-67742D01*
X57056Y-67958D01*
X57139Y-68158D01*
X57144Y-68163D01*
X57054Y-68254D01*
X56978Y-68366D01*
X56952Y-68500D01*
X56952Y-70950D01*
X56978Y-71084D01*
X57054Y-71196D01*
X57354Y-71496D01*
X57466Y-71572D01*
X57467Y-71572D01*
X57578Y-71593D01*
X57576Y-71601D01*
X57575Y-71638D01*
X57637Y-71700D01*
X57950Y-71700D01*
X58000Y-71700D01*
X58100Y-71700D01*
X58150Y-71700D01*
X58463Y-71700D01*
X58525Y-71638D01*
X59489Y-71638D01*
X59808Y-71957D01*
X59734Y-71957D01*
X59716Y-71939D01*
X59625Y-71901D01*
X59526Y-71901D01*
X58976Y-71901D01*
X58888Y-71937D01*
X58508Y-71937D01*
X58524Y-71899D01*
X58525Y-71862D01*
X58463Y-71800D01*
X58150Y-71800D01*
X58100Y-71800D01*
X58000Y-71800D01*
X57950Y-71800D01*
X57637Y-71800D01*
X57575Y-71862D01*
X57576Y-71899D01*
X57614Y-71991D01*
X57623Y-72000D01*
X57614Y-72009D01*
X57576Y-72100D01*
X57576Y-72199D01*
X57576Y-72399D01*
X57614Y-72491D01*
X57617Y-72494D01*
X57604Y-72504D01*
X57603Y-72504D01*
X57603Y-72505D01*
X56904Y-73204D01*
X56828Y-73316D01*
X56802Y-73450D01*
X56802Y-74685D01*
X56734Y-74714D01*
X56664Y-74784D01*
X56626Y-74875D01*
X56626Y-74974D01*
X56626Y-74977D01*
X56595Y-74903D01*
X56448Y-74755D01*
X56255Y-74675D01*
X56046Y-74675D01*
X55853Y-74755D01*
X55824Y-74782D01*
X55449Y-74407D01*
X55449Y-74376D01*
X55449Y-74218D01*
X56196Y-73471D01*
X56272Y-73359D01*
X56272Y-73358D01*
X56298Y-73225D01*
X56298Y-73068D01*
X56316Y-73061D01*
X56386Y-72991D01*
X56424Y-72900D01*
X56424Y-72801D01*
X56424Y-72601D01*
X56386Y-72509D01*
X56377Y-72500D01*
X56386Y-72491D01*
X56424Y-72400D01*
X56424Y-72301D01*
X56424Y-72101D01*
X56386Y-72009D01*
X56377Y-72000D01*
X56386Y-71991D01*
X56424Y-71899D01*
X56425Y-71862D01*
X56363Y-71800D01*
X56050Y-71800D01*
X56000Y-71800D01*
X55900Y-71800D01*
X55850Y-71800D01*
X55537Y-71800D01*
X55475Y-71862D01*
X55476Y-71899D01*
X55477Y-71902D01*
X55294Y-71902D01*
X55196Y-71804D01*
X55084Y-71728D01*
X54950Y-71702D01*
X53344Y-71702D01*
X53248Y-71605D01*
X53114Y-71549D01*
X53247Y-71495D01*
X53395Y-71348D01*
X53475Y-71155D01*
X53475Y-70946D01*
X53455Y-70898D01*
X53700Y-70898D01*
X53833Y-70872D01*
X53834Y-70872D01*
X53946Y-70796D01*
X54119Y-70623D01*
X54446Y-70623D01*
X54484Y-70661D01*
X54575Y-70699D01*
X54674Y-70699D01*
X55224Y-70699D01*
X55316Y-70661D01*
X55354Y-70623D01*
X55475Y-70623D01*
X55475Y-70638D01*
X55537Y-70700D01*
X55850Y-70700D01*
X55900Y-70700D01*
X56000Y-70700D01*
X56000Y-70800D01*
X55900Y-70800D01*
X55850Y-70800D01*
X55537Y-70800D01*
X55475Y-70862D01*
X55476Y-70899D01*
X55514Y-70991D01*
X55523Y-71000D01*
X55514Y-71009D01*
X55476Y-71100D01*
X55476Y-71199D01*
X55476Y-71399D01*
X55514Y-71491D01*
X55523Y-71500D01*
X55514Y-71509D01*
X55476Y-71601D01*
X55475Y-71638D01*
X55537Y-71700D01*
X55850Y-71700D01*
X55900Y-71700D01*
X56000Y-71700D01*
X56050Y-71700D01*
X56363Y-71700D01*
X56425Y-71638D01*
X56424Y-71601D01*
X56394Y-71530D01*
X56446Y-71496D01*
X56795Y-71147D01*
X56795Y-71146D01*
X56796Y-71146D01*
X56871Y-71034D01*
X56872Y-71033D01*
X56897Y-70901D01*
X56898Y-70900D01*
X56898Y-68500D01*
X56897Y-68499D01*
X56872Y-68367D01*
X56871Y-68366D01*
X56796Y-68254D01*
X56795Y-68253D01*
X56348Y-67806D01*
X56348Y-67194D01*
X56445Y-67098D01*
X56497Y-66970D01*
X56540Y-67072D01*
X56632Y-67097D01*
X56929Y-66800D01*
X56632Y-66503D01*
X56540Y-66528D01*
X56500Y-66637D01*
X56445Y-66503D01*
X56298Y-66355D01*
X56105Y-66275D01*
X55896Y-66275D01*
X55703Y-66355D01*
X55555Y-66502D01*
X55475Y-66695D01*
X55475Y-66904D01*
X55555Y-67097D01*
X55652Y-67194D01*
X55652Y-67950D01*
X55678Y-68084D01*
X55754Y-68196D01*
X56202Y-68644D01*
X56202Y-69401D01*
X56126Y-69401D01*
X55676Y-69401D01*
X55584Y-69439D01*
X55550Y-69472D01*
X55549Y-69473D01*
X55504Y-69504D01*
X55456Y-69552D01*
X55424Y-69552D01*
X55424Y-69301D01*
X55386Y-69209D01*
X55316Y-69139D01*
X55248Y-69110D01*
X55248Y-66794D01*
X55794Y-66248D01*
X58806Y-66248D01*
X59969Y-67411D01*
X59889Y-67492D01*
X59806Y-67692D01*
X59806Y-67908D01*
X59889Y-68108D01*
X60042Y-68261D01*
X60044Y-68262D01*
X60044Y-68262D01*
G37*
G54D22*
X60044Y-68262D02*
X60022Y-68262D01*
X60011Y-68234D01*
X59941Y-68164D01*
X59850Y-68126D01*
X59751Y-68126D01*
X59401Y-68126D01*
X59309Y-68164D01*
X59250Y-68223D01*
X59191Y-68164D01*
X59100Y-68126D01*
X59093Y-68126D01*
X59111Y-68108D01*
X59194Y-67908D01*
X59194Y-67692D01*
X59111Y-67492D01*
X58958Y-67339D01*
X58758Y-67256D01*
X58542Y-67256D01*
X58348Y-67336D01*
X58348Y-67314D01*
X58416Y-67286D01*
X58486Y-67216D01*
X58524Y-67125D01*
X58524Y-67026D01*
X58524Y-66476D01*
X58486Y-66384D01*
X58416Y-66314D01*
X58325Y-66276D01*
X58226Y-66276D01*
X57676Y-66276D01*
X57584Y-66314D01*
X57514Y-66384D01*
X57476Y-66475D01*
X57476Y-66566D01*
X57460Y-66528D01*
X57368Y-66503D01*
X57297Y-66574D01*
X57297Y-66432D01*
X57272Y-66340D01*
X57076Y-66270D01*
X56868Y-66282D01*
X56728Y-66340D01*
X56703Y-66432D01*
X57000Y-66729D01*
X57297Y-66432D01*
X57297Y-66574D01*
X57071Y-66800D01*
X57368Y-67097D01*
X57460Y-67072D01*
X57476Y-67027D01*
X57476Y-67124D01*
X57514Y-67216D01*
X57584Y-67286D01*
X57631Y-67306D01*
X57492Y-67306D01*
X57297Y-67386D01*
X57297Y-67168D01*
X57000Y-66871D01*
X56703Y-67168D01*
X56728Y-67260D01*
X56924Y-67330D01*
X57132Y-67318D01*
X57272Y-67260D01*
X57297Y-67168D01*
X57297Y-67386D01*
X57292Y-67389D01*
X57139Y-67542D01*
X57056Y-67742D01*
X57056Y-67958D01*
X57139Y-68158D01*
X57144Y-68163D01*
X57054Y-68254D01*
X56978Y-68366D01*
X56952Y-68500D01*
X56952Y-70950D01*
X56978Y-71084D01*
X57054Y-71196D01*
X57354Y-71496D01*
X57466Y-71572D01*
X57467Y-71572D01*
X57578Y-71593D01*
X57576Y-71601D01*
X57575Y-71638D01*
X57637Y-71700D01*
X57950Y-71700D01*
X58000Y-71700D01*
X58100Y-71700D01*
X58150Y-71700D01*
X58463Y-71700D01*
X58525Y-71638D01*
X59489Y-71638D01*
X59808Y-71957D01*
X59734Y-71957D01*
X59716Y-71939D01*
X59625Y-71901D01*
X59526Y-71901D01*
X58976Y-71901D01*
X58888Y-71937D01*
X58508Y-71937D01*
X58524Y-71899D01*
X58525Y-71862D01*
X58463Y-71800D01*
X58150Y-71800D01*
X58100Y-71800D01*
X58000Y-71800D01*
X57950Y-71800D01*
X57637Y-71800D01*
X57575Y-71862D01*
X57576Y-71899D01*
X57614Y-71991D01*
X57623Y-72000D01*
X57614Y-72009D01*
X57576Y-72100D01*
X57576Y-72199D01*
X57576Y-72399D01*
X57614Y-72491D01*
X57617Y-72494D01*
X57604Y-72504D01*
X57603Y-72504D01*
X57603Y-72505D01*
X56904Y-73204D01*
X56828Y-73316D01*
X56802Y-73450D01*
X56802Y-74685D01*
X56734Y-74714D01*
X56664Y-74784D01*
X56626Y-74875D01*
X56626Y-74974D01*
X56626Y-74977D01*
X56595Y-74903D01*
X56448Y-74755D01*
X56255Y-74675D01*
X56046Y-74675D01*
X55853Y-74755D01*
X55824Y-74782D01*
X55449Y-74407D01*
X55449Y-74376D01*
X55449Y-74218D01*
X56196Y-73471D01*
X56272Y-73359D01*
X56272Y-73358D01*
X56298Y-73225D01*
X56298Y-73068D01*
X56316Y-73061D01*
X56386Y-72991D01*
X56424Y-72900D01*
X56424Y-72801D01*
X56424Y-72601D01*
X56386Y-72509D01*
X56377Y-72500D01*
X56386Y-72491D01*
X56424Y-72400D01*
X56424Y-72301D01*
X56424Y-72101D01*
X56386Y-72009D01*
X56377Y-72000D01*
X56386Y-71991D01*
X56424Y-71899D01*
X56425Y-71862D01*
X56363Y-71800D01*
X56050Y-71800D01*
X56000Y-71800D01*
X55900Y-71800D01*
X55850Y-71800D01*
X55537Y-71800D01*
X55475Y-71862D01*
X55476Y-71899D01*
X55477Y-71902D01*
X55294Y-71902D01*
X55196Y-71804D01*
X55084Y-71728D01*
X54950Y-71702D01*
X53344Y-71702D01*
X53248Y-71605D01*
X53114Y-71549D01*
X53247Y-71495D01*
X53395Y-71348D01*
X53475Y-71155D01*
X53475Y-70946D01*
X53455Y-70898D01*
X53700Y-70898D01*
X53833Y-70872D01*
X53834Y-70872D01*
X53946Y-70796D01*
X54119Y-70623D01*
X54446Y-70623D01*
X54484Y-70661D01*
X54575Y-70699D01*
X54674Y-70699D01*
X55224Y-70699D01*
X55316Y-70661D01*
X55354Y-70623D01*
X55475Y-70623D01*
X55475Y-70638D01*
X55537Y-70700D01*
X55850Y-70700D01*
X55900Y-70700D01*
X56000Y-70700D01*
X56000Y-70800D01*
X55900Y-70800D01*
X55850Y-70800D01*
X55537Y-70800D01*
X55475Y-70862D01*
X55476Y-70899D01*
X55514Y-70991D01*
X55523Y-71000D01*
X55514Y-71009D01*
X55476Y-71100D01*
X55476Y-71199D01*
X55476Y-71399D01*
X55514Y-71491D01*
X55523Y-71500D01*
X55514Y-71509D01*
X55476Y-71601D01*
X55475Y-71638D01*
X55537Y-71700D01*
X55850Y-71700D01*
X55900Y-71700D01*
X56000Y-71700D01*
X56050Y-71700D01*
X56363Y-71700D01*
X56425Y-71638D01*
X56424Y-71601D01*
X56394Y-71530D01*
X56446Y-71496D01*
X56795Y-71147D01*
X56795Y-71146D01*
X56796Y-71146D01*
X56871Y-71034D01*
X56872Y-71033D01*
X56897Y-70901D01*
X56898Y-70900D01*
X56898Y-68500D01*
X56897Y-68499D01*
X56872Y-68367D01*
X56871Y-68366D01*
X56796Y-68254D01*
X56795Y-68253D01*
X56348Y-67806D01*
X56348Y-67194D01*
X56445Y-67098D01*
X56497Y-66970D01*
X56540Y-67072D01*
X56632Y-67097D01*
X56929Y-66800D01*
X56632Y-66503D01*
X56540Y-66528D01*
X56500Y-66637D01*
X56445Y-66503D01*
X56298Y-66355D01*
X56105Y-66275D01*
X55896Y-66275D01*
X55703Y-66355D01*
X55555Y-66502D01*
X55475Y-66695D01*
X55475Y-66904D01*
X55555Y-67097D01*
X55652Y-67194D01*
X55652Y-67950D01*
X55678Y-68084D01*
X55754Y-68196D01*
X56202Y-68644D01*
X56202Y-69401D01*
X56126Y-69401D01*
X55676Y-69401D01*
X55584Y-69439D01*
X55550Y-69472D01*
X55549Y-69473D01*
X55504Y-69504D01*
X55456Y-69552D01*
X55424Y-69552D01*
X55424Y-69301D01*
X55386Y-69209D01*
X55316Y-69139D01*
X55248Y-69110D01*
X55248Y-66794D01*
X55794Y-66248D01*
X58806Y-66248D01*
X59969Y-67411D01*
X59889Y-67492D01*
X59806Y-67692D01*
X59806Y-67908D01*
X59889Y-68108D01*
X60042Y-68261D01*
X60044Y-68262D01*
G54D10*
G36*
X60927Y-69376D02*
X60876Y-69376D01*
X60762Y-69375D01*
X60700Y-69437D01*
X60700Y-69800D01*
X60700Y-69850D01*
X60700Y-69950D01*
X60600Y-69950D01*
X60600Y-69850D01*
X60600Y-69437D01*
X60538Y-69375D01*
X60424Y-69376D01*
X60325Y-69376D01*
X60234Y-69414D01*
X60164Y-69484D01*
X60126Y-69576D01*
X60125Y-69788D01*
X60187Y-69850D01*
X60600Y-69850D01*
X60600Y-69950D01*
X60550Y-69950D01*
X60187Y-69950D01*
X60125Y-70012D01*
X60126Y-70224D01*
X60164Y-70316D01*
X60234Y-70386D01*
X60325Y-70424D01*
X60424Y-70424D01*
X60353Y-70455D01*
X60205Y-70602D01*
X60172Y-70679D01*
X60050Y-70557D01*
X60050Y-69712D01*
X59988Y-69650D01*
X59675Y-69650D01*
X59675Y-70063D01*
X59737Y-70125D01*
X59849Y-70124D01*
X59941Y-70086D01*
X60011Y-70016D01*
X60049Y-69925D01*
X60049Y-69826D01*
X60050Y-69712D01*
X60050Y-70557D01*
X59565Y-70072D01*
X59575Y-70063D01*
X59575Y-69700D01*
X59575Y-69650D01*
X59575Y-69550D01*
X59675Y-69550D01*
X59725Y-69550D01*
X59988Y-69550D01*
X60050Y-69488D01*
X60049Y-69374D01*
X60049Y-69275D01*
X60011Y-69184D01*
X59952Y-69125D01*
X60011Y-69066D01*
X60022Y-69038D01*
X60589Y-69038D01*
X60927Y-69376D01*
X60927Y-69376D01*
G37*
G54D22*
X60927Y-69376D02*
X60876Y-69376D01*
X60762Y-69375D01*
X60700Y-69437D01*
X60700Y-69800D01*
X60700Y-69850D01*
X60700Y-69950D01*
X60600Y-69950D01*
X60600Y-69850D01*
X60600Y-69437D01*
X60538Y-69375D01*
X60424Y-69376D01*
X60325Y-69376D01*
X60234Y-69414D01*
X60164Y-69484D01*
X60126Y-69576D01*
X60125Y-69788D01*
X60187Y-69850D01*
X60600Y-69850D01*
X60600Y-69950D01*
X60550Y-69950D01*
X60187Y-69950D01*
X60125Y-70012D01*
X60126Y-70224D01*
X60164Y-70316D01*
X60234Y-70386D01*
X60325Y-70424D01*
X60424Y-70424D01*
X60353Y-70455D01*
X60205Y-70602D01*
X60172Y-70679D01*
X60050Y-70557D01*
X60050Y-69712D01*
X59988Y-69650D01*
X59675Y-69650D01*
X59675Y-70063D01*
X59737Y-70125D01*
X59849Y-70124D01*
X59941Y-70086D01*
X60011Y-70016D01*
X60049Y-69925D01*
X60049Y-69826D01*
X60050Y-69712D01*
X60050Y-70557D01*
X59565Y-70072D01*
X59575Y-70063D01*
X59575Y-69700D01*
X59575Y-69650D01*
X59575Y-69550D01*
X59675Y-69550D01*
X59725Y-69550D01*
X59988Y-69550D01*
X60050Y-69488D01*
X60049Y-69374D01*
X60049Y-69275D01*
X60011Y-69184D01*
X59952Y-69125D01*
X60011Y-69066D01*
X60022Y-69038D01*
X60589Y-69038D01*
X60927Y-69376D01*
G54D10*
G36*
X64950Y-76950D02*
X64848Y-76950D01*
X64848Y-73250D01*
X64848Y-71800D01*
X64822Y-71667D01*
X64821Y-71666D01*
X64796Y-71629D01*
X64746Y-71554D01*
X64746Y-71553D01*
X64346Y-71154D01*
X64234Y-71078D01*
X64151Y-71062D01*
X64151Y-71061D01*
X64175Y-71005D01*
X64175Y-70796D01*
X64095Y-70603D01*
X63948Y-70455D01*
X63814Y-70399D01*
X63947Y-70345D01*
X64095Y-70198D01*
X64175Y-70005D01*
X64175Y-69796D01*
X64095Y-69603D01*
X63948Y-69455D01*
X63755Y-69375D01*
X63546Y-69375D01*
X63353Y-69455D01*
X63205Y-69602D01*
X63125Y-69795D01*
X63125Y-70004D01*
X63205Y-70197D01*
X63352Y-70345D01*
X63485Y-70400D01*
X63353Y-70455D01*
X63205Y-70602D01*
X63125Y-70795D01*
X63125Y-71004D01*
X63144Y-71052D01*
X61296Y-71052D01*
X61624Y-70725D01*
X61624Y-70724D01*
X61708Y-70599D01*
X61708Y-70598D01*
X61712Y-70573D01*
X61737Y-70450D01*
X61738Y-70450D01*
X61738Y-69250D01*
X61708Y-69102D01*
X61707Y-69101D01*
X61679Y-69059D01*
X61624Y-68976D01*
X61624Y-68975D01*
X61024Y-68376D01*
X60898Y-68292D01*
X60750Y-68262D01*
X60655Y-68262D01*
X60658Y-68261D01*
X60811Y-68108D01*
X60894Y-67908D01*
X60894Y-67692D01*
X60811Y-67492D01*
X60698Y-67379D01*
X60698Y-67300D01*
X60697Y-67299D01*
X60672Y-67167D01*
X60671Y-67166D01*
X60596Y-67054D01*
X60595Y-67053D01*
X59196Y-65654D01*
X59084Y-65578D01*
X58950Y-65552D01*
X55650Y-65552D01*
X55517Y-65578D01*
X55479Y-65603D01*
X55403Y-65654D01*
X54755Y-66302D01*
X53953Y-66302D01*
X53953Y-65229D01*
X53945Y-64932D01*
X53846Y-64693D01*
X53730Y-64640D01*
X53660Y-64710D01*
X53660Y-64570D01*
X53607Y-64454D01*
X53329Y-64347D01*
X53032Y-64355D01*
X52793Y-64454D01*
X52740Y-64570D01*
X53200Y-65029D01*
X53660Y-64570D01*
X53660Y-64710D01*
X53271Y-65100D01*
X53730Y-65560D01*
X53846Y-65507D01*
X53953Y-65229D01*
X53953Y-66302D01*
X53660Y-66302D01*
X53660Y-65630D01*
X53200Y-65171D01*
X53129Y-65241D01*
X53129Y-65100D01*
X52670Y-64640D01*
X52554Y-64693D01*
X52447Y-64971D01*
X52455Y-65268D01*
X52554Y-65507D01*
X52670Y-65560D01*
X53129Y-65100D01*
X53129Y-65241D01*
X52740Y-65630D01*
X52793Y-65746D01*
X53071Y-65853D01*
X53368Y-65845D01*
X53607Y-65746D01*
X53660Y-65630D01*
X53660Y-66302D01*
X52794Y-66302D01*
X51888Y-65395D01*
X51949Y-65250D01*
X51949Y-64952D01*
X51835Y-64677D01*
X51625Y-64466D01*
X51350Y-64351D01*
X51052Y-64351D01*
X50777Y-64465D01*
X50566Y-64675D01*
X50451Y-64950D01*
X50451Y-65248D01*
X50565Y-65523D01*
X50775Y-65734D01*
X51050Y-65849D01*
X51348Y-65849D01*
X51354Y-65846D01*
X52403Y-66896D01*
X52404Y-66896D01*
X52479Y-66946D01*
X52516Y-66971D01*
X52517Y-66972D01*
X52650Y-66998D01*
X54552Y-66998D01*
X54552Y-69110D01*
X54484Y-69139D01*
X54414Y-69209D01*
X54376Y-69300D01*
X54376Y-69399D01*
X54376Y-69552D01*
X53994Y-69552D01*
X53746Y-69304D01*
X53634Y-69228D01*
X53500Y-69202D01*
X53190Y-69202D01*
X53948Y-68444D01*
X54108Y-68444D01*
X54308Y-68361D01*
X54461Y-68208D01*
X54544Y-68008D01*
X54544Y-67792D01*
X54461Y-67592D01*
X54308Y-67439D01*
X54108Y-67356D01*
X53892Y-67356D01*
X53692Y-67439D01*
X53539Y-67592D01*
X53456Y-67792D01*
X53456Y-67952D01*
X52556Y-68852D01*
X50044Y-68852D01*
X49548Y-68356D01*
X49548Y-65849D01*
X49749Y-65849D01*
X49841Y-65811D01*
X49911Y-65741D01*
X49949Y-65650D01*
X49949Y-65551D01*
X49949Y-64551D01*
X49911Y-64459D01*
X49841Y-64389D01*
X49750Y-64351D01*
X49651Y-64351D01*
X48651Y-64351D01*
X48559Y-64389D01*
X48489Y-64459D01*
X48451Y-64550D01*
X48451Y-64649D01*
X48451Y-65649D01*
X48489Y-65741D01*
X48559Y-65811D01*
X48650Y-65849D01*
X48749Y-65849D01*
X48852Y-65849D01*
X48852Y-68500D01*
X48878Y-68634D01*
X48954Y-68746D01*
X49395Y-69187D01*
X48732Y-69851D01*
X48476Y-69851D01*
X48384Y-69889D01*
X48314Y-69959D01*
X48276Y-70050D01*
X48276Y-70149D01*
X48276Y-70499D01*
X48314Y-70591D01*
X48373Y-70650D01*
X48314Y-70709D01*
X48276Y-70800D01*
X48276Y-70899D01*
X48276Y-71249D01*
X48314Y-71341D01*
X48384Y-71411D01*
X48475Y-71449D01*
X48574Y-71449D01*
X49124Y-71449D01*
X49216Y-71411D01*
X49254Y-71373D01*
X49530Y-71373D01*
X49652Y-71495D01*
X49785Y-71550D01*
X49653Y-71605D01*
X49505Y-71752D01*
X49425Y-71945D01*
X49425Y-72154D01*
X49505Y-72347D01*
X49652Y-72495D01*
X49779Y-72547D01*
X49678Y-72590D01*
X49653Y-72682D01*
X49950Y-72979D01*
X50247Y-72682D01*
X50222Y-72590D01*
X50112Y-72550D01*
X50247Y-72495D01*
X50355Y-72387D01*
X50433Y-72372D01*
X50434Y-72372D01*
X50546Y-72296D01*
X51944Y-70898D01*
X52444Y-70898D01*
X52425Y-70945D01*
X52425Y-71154D01*
X52505Y-71347D01*
X52652Y-71495D01*
X52785Y-71550D01*
X52653Y-71605D01*
X52505Y-71752D01*
X52425Y-71945D01*
X52425Y-72154D01*
X52505Y-72347D01*
X52652Y-72495D01*
X52779Y-72547D01*
X52678Y-72590D01*
X52653Y-72682D01*
X52915Y-72944D01*
X52950Y-72979D01*
X53021Y-73050D01*
X53056Y-73085D01*
X53318Y-73347D01*
X53410Y-73322D01*
X53480Y-73126D01*
X53476Y-73068D01*
X53927Y-73519D01*
X53927Y-73696D01*
X53889Y-73734D01*
X53851Y-73825D01*
X53851Y-73924D01*
X53851Y-74474D01*
X53889Y-74566D01*
X53959Y-74636D01*
X54050Y-74674D01*
X54149Y-74674D01*
X54499Y-74674D01*
X54591Y-74636D01*
X54650Y-74577D01*
X54709Y-74636D01*
X54726Y-74643D01*
X54779Y-74721D01*
X55504Y-75446D01*
X55616Y-75522D01*
X55617Y-75522D01*
X55750Y-75548D01*
X55755Y-75548D01*
X55852Y-75645D01*
X56045Y-75725D01*
X56254Y-75725D01*
X56447Y-75645D01*
X56595Y-75498D01*
X56626Y-75423D01*
X56626Y-75524D01*
X56664Y-75616D01*
X56734Y-75686D01*
X56825Y-75724D01*
X56924Y-75724D01*
X57474Y-75724D01*
X57566Y-75686D01*
X57636Y-75616D01*
X57674Y-75525D01*
X57674Y-75426D01*
X57674Y-74876D01*
X57636Y-74784D01*
X57566Y-74714D01*
X57498Y-74685D01*
X57498Y-73594D01*
X57970Y-73121D01*
X58050Y-73138D01*
X58776Y-73138D01*
X58776Y-73299D01*
X58814Y-73391D01*
X58884Y-73461D01*
X58975Y-73499D01*
X59074Y-73499D01*
X59624Y-73499D01*
X59716Y-73461D01*
X59786Y-73391D01*
X59824Y-73300D01*
X59824Y-73201D01*
X59824Y-72851D01*
X59786Y-72759D01*
X59727Y-72700D01*
X59734Y-72693D01*
X60089Y-72693D01*
X60150Y-72734D01*
X60125Y-72795D01*
X60125Y-73004D01*
X60205Y-73197D01*
X60352Y-73345D01*
X60545Y-73425D01*
X60754Y-73425D01*
X60947Y-73345D01*
X61044Y-73248D01*
X61806Y-73248D01*
X62304Y-73746D01*
X62416Y-73821D01*
X62417Y-73822D01*
X62550Y-73848D01*
X64250Y-73848D01*
X64383Y-73822D01*
X64384Y-73822D01*
X64496Y-73746D01*
X64746Y-73496D01*
X64821Y-73384D01*
X64822Y-73383D01*
X64848Y-73250D01*
X64848Y-76950D01*
X53247Y-76950D01*
X53247Y-73418D01*
X52950Y-73121D01*
X52879Y-73192D01*
X52879Y-73050D01*
X52582Y-72753D01*
X52490Y-72778D01*
X52420Y-72974D01*
X52432Y-73182D01*
X52490Y-73322D01*
X52582Y-73347D01*
X52879Y-73050D01*
X52879Y-73192D01*
X52653Y-73418D01*
X52678Y-73510D01*
X52874Y-73580D01*
X53082Y-73568D01*
X53222Y-73510D01*
X53247Y-73418D01*
X53247Y-76950D01*
X50480Y-76950D01*
X50480Y-73126D01*
X50468Y-72918D01*
X50410Y-72778D01*
X50318Y-72753D01*
X50021Y-73050D01*
X50318Y-73347D01*
X50410Y-73322D01*
X50480Y-73126D01*
X50480Y-76950D01*
X50247Y-76950D01*
X50247Y-73418D01*
X49950Y-73121D01*
X49879Y-73192D01*
X49879Y-73050D01*
X49582Y-72753D01*
X49490Y-72778D01*
X49420Y-72974D01*
X49432Y-73182D01*
X49490Y-73322D01*
X49582Y-73347D01*
X49879Y-73050D01*
X49879Y-73192D01*
X49653Y-73418D01*
X49678Y-73510D01*
X49874Y-73580D01*
X50082Y-73568D01*
X50222Y-73510D01*
X50247Y-73418D01*
X50247Y-76950D01*
X48050Y-76950D01*
X48050Y-63050D01*
X64950Y-63050D01*
X64950Y-76950D01*
X64950Y-76950D01*
G37*
G54D22*
X64950Y-76950D02*
X64848Y-76950D01*
X64848Y-73250D01*
X64848Y-71800D01*
X64822Y-71667D01*
X64821Y-71666D01*
X64796Y-71629D01*
X64746Y-71554D01*
X64746Y-71553D01*
X64346Y-71154D01*
X64234Y-71078D01*
X64151Y-71062D01*
X64151Y-71061D01*
X64175Y-71005D01*
X64175Y-70796D01*
X64095Y-70603D01*
X63948Y-70455D01*
X63814Y-70399D01*
X63947Y-70345D01*
X64095Y-70198D01*
X64175Y-70005D01*
X64175Y-69796D01*
X64095Y-69603D01*
X63948Y-69455D01*
X63755Y-69375D01*
X63546Y-69375D01*
X63353Y-69455D01*
X63205Y-69602D01*
X63125Y-69795D01*
X63125Y-70004D01*
X63205Y-70197D01*
X63352Y-70345D01*
X63485Y-70400D01*
X63353Y-70455D01*
X63205Y-70602D01*
X63125Y-70795D01*
X63125Y-71004D01*
X63144Y-71052D01*
X61296Y-71052D01*
X61624Y-70725D01*
X61624Y-70724D01*
X61708Y-70599D01*
X61708Y-70598D01*
X61712Y-70573D01*
X61737Y-70450D01*
X61738Y-70450D01*
X61738Y-69250D01*
X61708Y-69102D01*
X61707Y-69101D01*
X61679Y-69059D01*
X61624Y-68976D01*
X61624Y-68975D01*
X61024Y-68376D01*
X60898Y-68292D01*
X60750Y-68262D01*
X60655Y-68262D01*
X60658Y-68261D01*
X60811Y-68108D01*
X60894Y-67908D01*
X60894Y-67692D01*
X60811Y-67492D01*
X60698Y-67379D01*
X60698Y-67300D01*
X60697Y-67299D01*
X60672Y-67167D01*
X60671Y-67166D01*
X60596Y-67054D01*
X60595Y-67053D01*
X59196Y-65654D01*
X59084Y-65578D01*
X58950Y-65552D01*
X55650Y-65552D01*
X55517Y-65578D01*
X55479Y-65603D01*
X55403Y-65654D01*
X54755Y-66302D01*
X53953Y-66302D01*
X53953Y-65229D01*
X53945Y-64932D01*
X53846Y-64693D01*
X53730Y-64640D01*
X53660Y-64710D01*
X53660Y-64570D01*
X53607Y-64454D01*
X53329Y-64347D01*
X53032Y-64355D01*
X52793Y-64454D01*
X52740Y-64570D01*
X53200Y-65029D01*
X53660Y-64570D01*
X53660Y-64710D01*
X53271Y-65100D01*
X53730Y-65560D01*
X53846Y-65507D01*
X53953Y-65229D01*
X53953Y-66302D01*
X53660Y-66302D01*
X53660Y-65630D01*
X53200Y-65171D01*
X53129Y-65241D01*
X53129Y-65100D01*
X52670Y-64640D01*
X52554Y-64693D01*
X52447Y-64971D01*
X52455Y-65268D01*
X52554Y-65507D01*
X52670Y-65560D01*
X53129Y-65100D01*
X53129Y-65241D01*
X52740Y-65630D01*
X52793Y-65746D01*
X53071Y-65853D01*
X53368Y-65845D01*
X53607Y-65746D01*
X53660Y-65630D01*
X53660Y-66302D01*
X52794Y-66302D01*
X51888Y-65395D01*
X51949Y-65250D01*
X51949Y-64952D01*
X51835Y-64677D01*
X51625Y-64466D01*
X51350Y-64351D01*
X51052Y-64351D01*
X50777Y-64465D01*
X50566Y-64675D01*
X50451Y-64950D01*
X50451Y-65248D01*
X50565Y-65523D01*
X50775Y-65734D01*
X51050Y-65849D01*
X51348Y-65849D01*
X51354Y-65846D01*
X52403Y-66896D01*
X52404Y-66896D01*
X52479Y-66946D01*
X52516Y-66971D01*
X52517Y-66972D01*
X52650Y-66998D01*
X54552Y-66998D01*
X54552Y-69110D01*
X54484Y-69139D01*
X54414Y-69209D01*
X54376Y-69300D01*
X54376Y-69399D01*
X54376Y-69552D01*
X53994Y-69552D01*
X53746Y-69304D01*
X53634Y-69228D01*
X53500Y-69202D01*
X53190Y-69202D01*
X53948Y-68444D01*
X54108Y-68444D01*
X54308Y-68361D01*
X54461Y-68208D01*
X54544Y-68008D01*
X54544Y-67792D01*
X54461Y-67592D01*
X54308Y-67439D01*
X54108Y-67356D01*
X53892Y-67356D01*
X53692Y-67439D01*
X53539Y-67592D01*
X53456Y-67792D01*
X53456Y-67952D01*
X52556Y-68852D01*
X50044Y-68852D01*
X49548Y-68356D01*
X49548Y-65849D01*
X49749Y-65849D01*
X49841Y-65811D01*
X49911Y-65741D01*
X49949Y-65650D01*
X49949Y-65551D01*
X49949Y-64551D01*
X49911Y-64459D01*
X49841Y-64389D01*
X49750Y-64351D01*
X49651Y-64351D01*
X48651Y-64351D01*
X48559Y-64389D01*
X48489Y-64459D01*
X48451Y-64550D01*
X48451Y-64649D01*
X48451Y-65649D01*
X48489Y-65741D01*
X48559Y-65811D01*
X48650Y-65849D01*
X48749Y-65849D01*
X48852Y-65849D01*
X48852Y-68500D01*
X48878Y-68634D01*
X48954Y-68746D01*
X49395Y-69187D01*
X48732Y-69851D01*
X48476Y-69851D01*
X48384Y-69889D01*
X48314Y-69959D01*
X48276Y-70050D01*
X48276Y-70149D01*
X48276Y-70499D01*
X48314Y-70591D01*
X48373Y-70650D01*
X48314Y-70709D01*
X48276Y-70800D01*
X48276Y-70899D01*
X48276Y-71249D01*
X48314Y-71341D01*
X48384Y-71411D01*
X48475Y-71449D01*
X48574Y-71449D01*
X49124Y-71449D01*
X49216Y-71411D01*
X49254Y-71373D01*
X49530Y-71373D01*
X49652Y-71495D01*
X49785Y-71550D01*
X49653Y-71605D01*
X49505Y-71752D01*
X49425Y-71945D01*
X49425Y-72154D01*
X49505Y-72347D01*
X49652Y-72495D01*
X49779Y-72547D01*
X49678Y-72590D01*
X49653Y-72682D01*
X49950Y-72979D01*
X50247Y-72682D01*
X50222Y-72590D01*
X50112Y-72550D01*
X50247Y-72495D01*
X50355Y-72387D01*
X50433Y-72372D01*
X50434Y-72372D01*
X50546Y-72296D01*
X51944Y-70898D01*
X52444Y-70898D01*
X52425Y-70945D01*
X52425Y-71154D01*
X52505Y-71347D01*
X52652Y-71495D01*
X52785Y-71550D01*
X52653Y-71605D01*
X52505Y-71752D01*
X52425Y-71945D01*
X52425Y-72154D01*
X52505Y-72347D01*
X52652Y-72495D01*
X52779Y-72547D01*
X52678Y-72590D01*
X52653Y-72682D01*
X52915Y-72944D01*
X52950Y-72979D01*
X53021Y-73050D01*
X53056Y-73085D01*
X53318Y-73347D01*
X53410Y-73322D01*
X53480Y-73126D01*
X53476Y-73068D01*
X53927Y-73519D01*
X53927Y-73696D01*
X53889Y-73734D01*
X53851Y-73825D01*
X53851Y-73924D01*
X53851Y-74474D01*
X53889Y-74566D01*
X53959Y-74636D01*
X54050Y-74674D01*
X54149Y-74674D01*
X54499Y-74674D01*
X54591Y-74636D01*
X54650Y-74577D01*
X54709Y-74636D01*
X54726Y-74643D01*
X54779Y-74721D01*
X55504Y-75446D01*
X55616Y-75522D01*
X55617Y-75522D01*
X55750Y-75548D01*
X55755Y-75548D01*
X55852Y-75645D01*
X56045Y-75725D01*
X56254Y-75725D01*
X56447Y-75645D01*
X56595Y-75498D01*
X56626Y-75423D01*
X56626Y-75524D01*
X56664Y-75616D01*
X56734Y-75686D01*
X56825Y-75724D01*
X56924Y-75724D01*
X57474Y-75724D01*
X57566Y-75686D01*
X57636Y-75616D01*
X57674Y-75525D01*
X57674Y-75426D01*
X57674Y-74876D01*
X57636Y-74784D01*
X57566Y-74714D01*
X57498Y-74685D01*
X57498Y-73594D01*
X57970Y-73121D01*
X58050Y-73138D01*
X58776Y-73138D01*
X58776Y-73299D01*
X58814Y-73391D01*
X58884Y-73461D01*
X58975Y-73499D01*
X59074Y-73499D01*
X59624Y-73499D01*
X59716Y-73461D01*
X59786Y-73391D01*
X59824Y-73300D01*
X59824Y-73201D01*
X59824Y-72851D01*
X59786Y-72759D01*
X59727Y-72700D01*
X59734Y-72693D01*
X60089Y-72693D01*
X60150Y-72734D01*
X60125Y-72795D01*
X60125Y-73004D01*
X60205Y-73197D01*
X60352Y-73345D01*
X60545Y-73425D01*
X60754Y-73425D01*
X60947Y-73345D01*
X61044Y-73248D01*
X61806Y-73248D01*
X62304Y-73746D01*
X62416Y-73821D01*
X62417Y-73822D01*
X62550Y-73848D01*
X64250Y-73848D01*
X64383Y-73822D01*
X64384Y-73822D01*
X64496Y-73746D01*
X64746Y-73496D01*
X64821Y-73384D01*
X64822Y-73383D01*
X64848Y-73250D01*
X64848Y-76950D01*
X53247Y-76950D01*
X53247Y-73418D01*
X52950Y-73121D01*
X52879Y-73192D01*
X52879Y-73050D01*
X52582Y-72753D01*
X52490Y-72778D01*
X52420Y-72974D01*
X52432Y-73182D01*
X52490Y-73322D01*
X52582Y-73347D01*
X52879Y-73050D01*
X52879Y-73192D01*
X52653Y-73418D01*
X52678Y-73510D01*
X52874Y-73580D01*
X53082Y-73568D01*
X53222Y-73510D01*
X53247Y-73418D01*
X53247Y-76950D01*
X50480Y-76950D01*
X50480Y-73126D01*
X50468Y-72918D01*
X50410Y-72778D01*
X50318Y-72753D01*
X50021Y-73050D01*
X50318Y-73347D01*
X50410Y-73322D01*
X50480Y-73126D01*
X50480Y-76950D01*
X50247Y-76950D01*
X50247Y-73418D01*
X49950Y-73121D01*
X49879Y-73192D01*
X49879Y-73050D01*
X49582Y-72753D01*
X49490Y-72778D01*
X49420Y-72974D01*
X49432Y-73182D01*
X49490Y-73322D01*
X49582Y-73347D01*
X49879Y-73050D01*
X49879Y-73192D01*
X49653Y-73418D01*
X49678Y-73510D01*
X49874Y-73580D01*
X50082Y-73568D01*
X50222Y-73510D01*
X50247Y-73418D01*
X50247Y-76950D01*
X48050Y-76950D01*
X48050Y-63050D01*
X64950Y-63050D01*
X64950Y-76950D01*
G54D10*
G36*
X60044Y-35262D02*
X60022Y-35262D01*
X60011Y-35234D01*
X59941Y-35164D01*
X59850Y-35126D01*
X59751Y-35126D01*
X59401Y-35126D01*
X59309Y-35164D01*
X59250Y-35223D01*
X59191Y-35164D01*
X59100Y-35126D01*
X59093Y-35126D01*
X59111Y-35108D01*
X59194Y-34908D01*
X59194Y-34692D01*
X59111Y-34492D01*
X58958Y-34339D01*
X58758Y-34256D01*
X58542Y-34256D01*
X58348Y-34336D01*
X58348Y-34314D01*
X58416Y-34286D01*
X58486Y-34216D01*
X58524Y-34125D01*
X58524Y-34026D01*
X58524Y-33476D01*
X58486Y-33384D01*
X58416Y-33314D01*
X58325Y-33276D01*
X58226Y-33276D01*
X57676Y-33276D01*
X57584Y-33314D01*
X57514Y-33384D01*
X57476Y-33475D01*
X57476Y-33566D01*
X57460Y-33528D01*
X57368Y-33503D01*
X57297Y-33574D01*
X57297Y-33432D01*
X57272Y-33340D01*
X57076Y-33270D01*
X56868Y-33282D01*
X56728Y-33340D01*
X56703Y-33432D01*
X57000Y-33729D01*
X57297Y-33432D01*
X57297Y-33574D01*
X57071Y-33800D01*
X57368Y-34097D01*
X57460Y-34072D01*
X57476Y-34027D01*
X57476Y-34124D01*
X57514Y-34216D01*
X57584Y-34286D01*
X57631Y-34306D01*
X57492Y-34306D01*
X57297Y-34386D01*
X57297Y-34168D01*
X57000Y-33871D01*
X56703Y-34168D01*
X56728Y-34260D01*
X56924Y-34330D01*
X57132Y-34318D01*
X57272Y-34260D01*
X57297Y-34168D01*
X57297Y-34386D01*
X57292Y-34389D01*
X57139Y-34542D01*
X57056Y-34742D01*
X57056Y-34958D01*
X57139Y-35158D01*
X57144Y-35163D01*
X57054Y-35254D01*
X56978Y-35366D01*
X56952Y-35500D01*
X56952Y-37950D01*
X56978Y-38084D01*
X57054Y-38196D01*
X57354Y-38496D01*
X57466Y-38572D01*
X57467Y-38572D01*
X57578Y-38593D01*
X57576Y-38601D01*
X57575Y-38638D01*
X57637Y-38700D01*
X57950Y-38700D01*
X58000Y-38700D01*
X58100Y-38700D01*
X58150Y-38700D01*
X58463Y-38700D01*
X58525Y-38638D01*
X59489Y-38638D01*
X59808Y-38957D01*
X59734Y-38957D01*
X59716Y-38939D01*
X59625Y-38901D01*
X59526Y-38901D01*
X58976Y-38901D01*
X58888Y-38937D01*
X58508Y-38937D01*
X58524Y-38899D01*
X58525Y-38862D01*
X58463Y-38800D01*
X58150Y-38800D01*
X58100Y-38800D01*
X58000Y-38800D01*
X57950Y-38800D01*
X57637Y-38800D01*
X57575Y-38862D01*
X57576Y-38899D01*
X57614Y-38991D01*
X57623Y-39000D01*
X57614Y-39009D01*
X57576Y-39100D01*
X57576Y-39199D01*
X57576Y-39399D01*
X57614Y-39491D01*
X57617Y-39494D01*
X57604Y-39504D01*
X57603Y-39504D01*
X57603Y-39505D01*
X56904Y-40204D01*
X56828Y-40316D01*
X56802Y-40450D01*
X56802Y-41685D01*
X56734Y-41714D01*
X56664Y-41784D01*
X56626Y-41875D01*
X56626Y-41974D01*
X56626Y-41977D01*
X56595Y-41903D01*
X56448Y-41755D01*
X56255Y-41675D01*
X56046Y-41675D01*
X55853Y-41755D01*
X55824Y-41782D01*
X55449Y-41407D01*
X55449Y-41376D01*
X55449Y-41218D01*
X56196Y-40471D01*
X56272Y-40359D01*
X56272Y-40358D01*
X56298Y-40225D01*
X56298Y-40068D01*
X56316Y-40061D01*
X56386Y-39991D01*
X56424Y-39900D01*
X56424Y-39801D01*
X56424Y-39601D01*
X56386Y-39509D01*
X56377Y-39500D01*
X56386Y-39491D01*
X56424Y-39400D01*
X56424Y-39301D01*
X56424Y-39101D01*
X56386Y-39009D01*
X56377Y-39000D01*
X56386Y-38991D01*
X56424Y-38899D01*
X56425Y-38862D01*
X56363Y-38800D01*
X56050Y-38800D01*
X56000Y-38800D01*
X55900Y-38800D01*
X55850Y-38800D01*
X55537Y-38800D01*
X55475Y-38862D01*
X55476Y-38899D01*
X55477Y-38902D01*
X55294Y-38902D01*
X55196Y-38804D01*
X55084Y-38728D01*
X54950Y-38702D01*
X53344Y-38702D01*
X53248Y-38605D01*
X53114Y-38549D01*
X53247Y-38495D01*
X53395Y-38348D01*
X53475Y-38155D01*
X53475Y-37946D01*
X53455Y-37898D01*
X53700Y-37898D01*
X53833Y-37872D01*
X53834Y-37872D01*
X53946Y-37796D01*
X54119Y-37623D01*
X54446Y-37623D01*
X54484Y-37661D01*
X54575Y-37699D01*
X54674Y-37699D01*
X55224Y-37699D01*
X55316Y-37661D01*
X55354Y-37623D01*
X55475Y-37623D01*
X55475Y-37638D01*
X55537Y-37700D01*
X55850Y-37700D01*
X55900Y-37700D01*
X56000Y-37700D01*
X56000Y-37800D01*
X55900Y-37800D01*
X55850Y-37800D01*
X55537Y-37800D01*
X55475Y-37862D01*
X55476Y-37899D01*
X55514Y-37991D01*
X55523Y-38000D01*
X55514Y-38009D01*
X55476Y-38100D01*
X55476Y-38199D01*
X55476Y-38399D01*
X55514Y-38491D01*
X55523Y-38500D01*
X55514Y-38509D01*
X55476Y-38601D01*
X55475Y-38638D01*
X55537Y-38700D01*
X55850Y-38700D01*
X55900Y-38700D01*
X56000Y-38700D01*
X56050Y-38700D01*
X56363Y-38700D01*
X56425Y-38638D01*
X56424Y-38601D01*
X56394Y-38530D01*
X56446Y-38496D01*
X56795Y-38147D01*
X56795Y-38146D01*
X56796Y-38146D01*
X56871Y-38034D01*
X56872Y-38033D01*
X56897Y-37901D01*
X56898Y-37900D01*
X56898Y-35500D01*
X56897Y-35499D01*
X56872Y-35367D01*
X56871Y-35366D01*
X56796Y-35254D01*
X56795Y-35253D01*
X56348Y-34806D01*
X56348Y-34194D01*
X56445Y-34098D01*
X56497Y-33970D01*
X56540Y-34072D01*
X56632Y-34097D01*
X56929Y-33800D01*
X56632Y-33503D01*
X56540Y-33528D01*
X56500Y-33637D01*
X56445Y-33503D01*
X56298Y-33355D01*
X56105Y-33275D01*
X55896Y-33275D01*
X55703Y-33355D01*
X55555Y-33502D01*
X55475Y-33695D01*
X55475Y-33904D01*
X55555Y-34097D01*
X55652Y-34194D01*
X55652Y-34950D01*
X55678Y-35084D01*
X55754Y-35196D01*
X56202Y-35644D01*
X56202Y-36401D01*
X56126Y-36401D01*
X55676Y-36401D01*
X55584Y-36439D01*
X55550Y-36472D01*
X55549Y-36473D01*
X55504Y-36504D01*
X55456Y-36552D01*
X55424Y-36552D01*
X55424Y-36301D01*
X55386Y-36209D01*
X55316Y-36139D01*
X55248Y-36110D01*
X55248Y-33794D01*
X55794Y-33248D01*
X58806Y-33248D01*
X59969Y-34411D01*
X59889Y-34492D01*
X59806Y-34692D01*
X59806Y-34908D01*
X59889Y-35108D01*
X60042Y-35261D01*
X60044Y-35262D01*
X60044Y-35262D01*
G37*
G54D22*
X60044Y-35262D02*
X60022Y-35262D01*
X60011Y-35234D01*
X59941Y-35164D01*
X59850Y-35126D01*
X59751Y-35126D01*
X59401Y-35126D01*
X59309Y-35164D01*
X59250Y-35223D01*
X59191Y-35164D01*
X59100Y-35126D01*
X59093Y-35126D01*
X59111Y-35108D01*
X59194Y-34908D01*
X59194Y-34692D01*
X59111Y-34492D01*
X58958Y-34339D01*
X58758Y-34256D01*
X58542Y-34256D01*
X58348Y-34336D01*
X58348Y-34314D01*
X58416Y-34286D01*
X58486Y-34216D01*
X58524Y-34125D01*
X58524Y-34026D01*
X58524Y-33476D01*
X58486Y-33384D01*
X58416Y-33314D01*
X58325Y-33276D01*
X58226Y-33276D01*
X57676Y-33276D01*
X57584Y-33314D01*
X57514Y-33384D01*
X57476Y-33475D01*
X57476Y-33566D01*
X57460Y-33528D01*
X57368Y-33503D01*
X57297Y-33574D01*
X57297Y-33432D01*
X57272Y-33340D01*
X57076Y-33270D01*
X56868Y-33282D01*
X56728Y-33340D01*
X56703Y-33432D01*
X57000Y-33729D01*
X57297Y-33432D01*
X57297Y-33574D01*
X57071Y-33800D01*
X57368Y-34097D01*
X57460Y-34072D01*
X57476Y-34027D01*
X57476Y-34124D01*
X57514Y-34216D01*
X57584Y-34286D01*
X57631Y-34306D01*
X57492Y-34306D01*
X57297Y-34386D01*
X57297Y-34168D01*
X57000Y-33871D01*
X56703Y-34168D01*
X56728Y-34260D01*
X56924Y-34330D01*
X57132Y-34318D01*
X57272Y-34260D01*
X57297Y-34168D01*
X57297Y-34386D01*
X57292Y-34389D01*
X57139Y-34542D01*
X57056Y-34742D01*
X57056Y-34958D01*
X57139Y-35158D01*
X57144Y-35163D01*
X57054Y-35254D01*
X56978Y-35366D01*
X56952Y-35500D01*
X56952Y-37950D01*
X56978Y-38084D01*
X57054Y-38196D01*
X57354Y-38496D01*
X57466Y-38572D01*
X57467Y-38572D01*
X57578Y-38593D01*
X57576Y-38601D01*
X57575Y-38638D01*
X57637Y-38700D01*
X57950Y-38700D01*
X58000Y-38700D01*
X58100Y-38700D01*
X58150Y-38700D01*
X58463Y-38700D01*
X58525Y-38638D01*
X59489Y-38638D01*
X59808Y-38957D01*
X59734Y-38957D01*
X59716Y-38939D01*
X59625Y-38901D01*
X59526Y-38901D01*
X58976Y-38901D01*
X58888Y-38937D01*
X58508Y-38937D01*
X58524Y-38899D01*
X58525Y-38862D01*
X58463Y-38800D01*
X58150Y-38800D01*
X58100Y-38800D01*
X58000Y-38800D01*
X57950Y-38800D01*
X57637Y-38800D01*
X57575Y-38862D01*
X57576Y-38899D01*
X57614Y-38991D01*
X57623Y-39000D01*
X57614Y-39009D01*
X57576Y-39100D01*
X57576Y-39199D01*
X57576Y-39399D01*
X57614Y-39491D01*
X57617Y-39494D01*
X57604Y-39504D01*
X57603Y-39504D01*
X57603Y-39505D01*
X56904Y-40204D01*
X56828Y-40316D01*
X56802Y-40450D01*
X56802Y-41685D01*
X56734Y-41714D01*
X56664Y-41784D01*
X56626Y-41875D01*
X56626Y-41974D01*
X56626Y-41977D01*
X56595Y-41903D01*
X56448Y-41755D01*
X56255Y-41675D01*
X56046Y-41675D01*
X55853Y-41755D01*
X55824Y-41782D01*
X55449Y-41407D01*
X55449Y-41376D01*
X55449Y-41218D01*
X56196Y-40471D01*
X56272Y-40359D01*
X56272Y-40358D01*
X56298Y-40225D01*
X56298Y-40068D01*
X56316Y-40061D01*
X56386Y-39991D01*
X56424Y-39900D01*
X56424Y-39801D01*
X56424Y-39601D01*
X56386Y-39509D01*
X56377Y-39500D01*
X56386Y-39491D01*
X56424Y-39400D01*
X56424Y-39301D01*
X56424Y-39101D01*
X56386Y-39009D01*
X56377Y-39000D01*
X56386Y-38991D01*
X56424Y-38899D01*
X56425Y-38862D01*
X56363Y-38800D01*
X56050Y-38800D01*
X56000Y-38800D01*
X55900Y-38800D01*
X55850Y-38800D01*
X55537Y-38800D01*
X55475Y-38862D01*
X55476Y-38899D01*
X55477Y-38902D01*
X55294Y-38902D01*
X55196Y-38804D01*
X55084Y-38728D01*
X54950Y-38702D01*
X53344Y-38702D01*
X53248Y-38605D01*
X53114Y-38549D01*
X53247Y-38495D01*
X53395Y-38348D01*
X53475Y-38155D01*
X53475Y-37946D01*
X53455Y-37898D01*
X53700Y-37898D01*
X53833Y-37872D01*
X53834Y-37872D01*
X53946Y-37796D01*
X54119Y-37623D01*
X54446Y-37623D01*
X54484Y-37661D01*
X54575Y-37699D01*
X54674Y-37699D01*
X55224Y-37699D01*
X55316Y-37661D01*
X55354Y-37623D01*
X55475Y-37623D01*
X55475Y-37638D01*
X55537Y-37700D01*
X55850Y-37700D01*
X55900Y-37700D01*
X56000Y-37700D01*
X56000Y-37800D01*
X55900Y-37800D01*
X55850Y-37800D01*
X55537Y-37800D01*
X55475Y-37862D01*
X55476Y-37899D01*
X55514Y-37991D01*
X55523Y-38000D01*
X55514Y-38009D01*
X55476Y-38100D01*
X55476Y-38199D01*
X55476Y-38399D01*
X55514Y-38491D01*
X55523Y-38500D01*
X55514Y-38509D01*
X55476Y-38601D01*
X55475Y-38638D01*
X55537Y-38700D01*
X55850Y-38700D01*
X55900Y-38700D01*
X56000Y-38700D01*
X56050Y-38700D01*
X56363Y-38700D01*
X56425Y-38638D01*
X56424Y-38601D01*
X56394Y-38530D01*
X56446Y-38496D01*
X56795Y-38147D01*
X56795Y-38146D01*
X56796Y-38146D01*
X56871Y-38034D01*
X56872Y-38033D01*
X56897Y-37901D01*
X56898Y-37900D01*
X56898Y-35500D01*
X56897Y-35499D01*
X56872Y-35367D01*
X56871Y-35366D01*
X56796Y-35254D01*
X56795Y-35253D01*
X56348Y-34806D01*
X56348Y-34194D01*
X56445Y-34098D01*
X56497Y-33970D01*
X56540Y-34072D01*
X56632Y-34097D01*
X56929Y-33800D01*
X56632Y-33503D01*
X56540Y-33528D01*
X56500Y-33637D01*
X56445Y-33503D01*
X56298Y-33355D01*
X56105Y-33275D01*
X55896Y-33275D01*
X55703Y-33355D01*
X55555Y-33502D01*
X55475Y-33695D01*
X55475Y-33904D01*
X55555Y-34097D01*
X55652Y-34194D01*
X55652Y-34950D01*
X55678Y-35084D01*
X55754Y-35196D01*
X56202Y-35644D01*
X56202Y-36401D01*
X56126Y-36401D01*
X55676Y-36401D01*
X55584Y-36439D01*
X55550Y-36472D01*
X55549Y-36473D01*
X55504Y-36504D01*
X55456Y-36552D01*
X55424Y-36552D01*
X55424Y-36301D01*
X55386Y-36209D01*
X55316Y-36139D01*
X55248Y-36110D01*
X55248Y-33794D01*
X55794Y-33248D01*
X58806Y-33248D01*
X59969Y-34411D01*
X59889Y-34492D01*
X59806Y-34692D01*
X59806Y-34908D01*
X59889Y-35108D01*
X60042Y-35261D01*
X60044Y-35262D01*
G54D10*
G36*
X60927Y-36376D02*
X60876Y-36376D01*
X60762Y-36375D01*
X60700Y-36437D01*
X60700Y-36800D01*
X60700Y-36850D01*
X60700Y-36950D01*
X60600Y-36950D01*
X60600Y-36850D01*
X60600Y-36437D01*
X60538Y-36375D01*
X60424Y-36376D01*
X60325Y-36376D01*
X60234Y-36414D01*
X60164Y-36484D01*
X60126Y-36576D01*
X60125Y-36788D01*
X60187Y-36850D01*
X60600Y-36850D01*
X60600Y-36950D01*
X60550Y-36950D01*
X60187Y-36950D01*
X60125Y-37012D01*
X60126Y-37224D01*
X60164Y-37316D01*
X60234Y-37386D01*
X60325Y-37424D01*
X60424Y-37424D01*
X60353Y-37455D01*
X60205Y-37602D01*
X60172Y-37679D01*
X60050Y-37557D01*
X60050Y-36712D01*
X59988Y-36650D01*
X59675Y-36650D01*
X59675Y-37063D01*
X59737Y-37125D01*
X59849Y-37124D01*
X59941Y-37086D01*
X60011Y-37016D01*
X60049Y-36925D01*
X60049Y-36826D01*
X60050Y-36712D01*
X60050Y-37557D01*
X59565Y-37072D01*
X59575Y-37063D01*
X59575Y-36700D01*
X59575Y-36650D01*
X59575Y-36550D01*
X59675Y-36550D01*
X59725Y-36550D01*
X59988Y-36550D01*
X60050Y-36488D01*
X60049Y-36374D01*
X60049Y-36275D01*
X60011Y-36184D01*
X59952Y-36125D01*
X60011Y-36066D01*
X60022Y-36038D01*
X60589Y-36038D01*
X60927Y-36376D01*
X60927Y-36376D01*
G37*
G54D22*
X60927Y-36376D02*
X60876Y-36376D01*
X60762Y-36375D01*
X60700Y-36437D01*
X60700Y-36800D01*
X60700Y-36850D01*
X60700Y-36950D01*
X60600Y-36950D01*
X60600Y-36850D01*
X60600Y-36437D01*
X60538Y-36375D01*
X60424Y-36376D01*
X60325Y-36376D01*
X60234Y-36414D01*
X60164Y-36484D01*
X60126Y-36576D01*
X60125Y-36788D01*
X60187Y-36850D01*
X60600Y-36850D01*
X60600Y-36950D01*
X60550Y-36950D01*
X60187Y-36950D01*
X60125Y-37012D01*
X60126Y-37224D01*
X60164Y-37316D01*
X60234Y-37386D01*
X60325Y-37424D01*
X60424Y-37424D01*
X60353Y-37455D01*
X60205Y-37602D01*
X60172Y-37679D01*
X60050Y-37557D01*
X60050Y-36712D01*
X59988Y-36650D01*
X59675Y-36650D01*
X59675Y-37063D01*
X59737Y-37125D01*
X59849Y-37124D01*
X59941Y-37086D01*
X60011Y-37016D01*
X60049Y-36925D01*
X60049Y-36826D01*
X60050Y-36712D01*
X60050Y-37557D01*
X59565Y-37072D01*
X59575Y-37063D01*
X59575Y-36700D01*
X59575Y-36650D01*
X59575Y-36550D01*
X59675Y-36550D01*
X59725Y-36550D01*
X59988Y-36550D01*
X60050Y-36488D01*
X60049Y-36374D01*
X60049Y-36275D01*
X60011Y-36184D01*
X59952Y-36125D01*
X60011Y-36066D01*
X60022Y-36038D01*
X60589Y-36038D01*
X60927Y-36376D01*
G54D10*
G36*
X64950Y-43950D02*
X64848Y-43950D01*
X64848Y-40250D01*
X64848Y-38800D01*
X64822Y-38667D01*
X64821Y-38666D01*
X64796Y-38629D01*
X64746Y-38554D01*
X64746Y-38553D01*
X64346Y-38154D01*
X64234Y-38078D01*
X64151Y-38062D01*
X64151Y-38061D01*
X64175Y-38005D01*
X64175Y-37796D01*
X64095Y-37603D01*
X63948Y-37455D01*
X63814Y-37399D01*
X63947Y-37345D01*
X64095Y-37198D01*
X64175Y-37005D01*
X64175Y-36796D01*
X64095Y-36603D01*
X63948Y-36455D01*
X63755Y-36375D01*
X63546Y-36375D01*
X63353Y-36455D01*
X63205Y-36602D01*
X63125Y-36795D01*
X63125Y-37004D01*
X63205Y-37197D01*
X63352Y-37345D01*
X63485Y-37400D01*
X63353Y-37455D01*
X63205Y-37602D01*
X63125Y-37795D01*
X63125Y-38004D01*
X63144Y-38052D01*
X61296Y-38052D01*
X61624Y-37725D01*
X61624Y-37724D01*
X61708Y-37599D01*
X61708Y-37598D01*
X61712Y-37573D01*
X61737Y-37450D01*
X61738Y-37450D01*
X61738Y-36250D01*
X61708Y-36102D01*
X61707Y-36101D01*
X61679Y-36059D01*
X61624Y-35976D01*
X61624Y-35975D01*
X61024Y-35376D01*
X60898Y-35292D01*
X60750Y-35262D01*
X60655Y-35262D01*
X60658Y-35261D01*
X60811Y-35108D01*
X60894Y-34908D01*
X60894Y-34692D01*
X60811Y-34492D01*
X60698Y-34379D01*
X60698Y-34300D01*
X60697Y-34299D01*
X60672Y-34167D01*
X60671Y-34166D01*
X60596Y-34054D01*
X60595Y-34053D01*
X59196Y-32654D01*
X59084Y-32578D01*
X58950Y-32552D01*
X55650Y-32552D01*
X55517Y-32578D01*
X55479Y-32603D01*
X55403Y-32654D01*
X54755Y-33302D01*
X53953Y-33302D01*
X53953Y-32229D01*
X53945Y-31932D01*
X53846Y-31693D01*
X53730Y-31640D01*
X53660Y-31710D01*
X53660Y-31570D01*
X53607Y-31454D01*
X53329Y-31347D01*
X53032Y-31355D01*
X52793Y-31454D01*
X52740Y-31570D01*
X53200Y-32029D01*
X53660Y-31570D01*
X53660Y-31710D01*
X53271Y-32100D01*
X53730Y-32560D01*
X53846Y-32507D01*
X53953Y-32229D01*
X53953Y-33302D01*
X53660Y-33302D01*
X53660Y-32630D01*
X53200Y-32171D01*
X53129Y-32241D01*
X53129Y-32100D01*
X52670Y-31640D01*
X52554Y-31693D01*
X52447Y-31971D01*
X52455Y-32268D01*
X52554Y-32507D01*
X52670Y-32560D01*
X53129Y-32100D01*
X53129Y-32241D01*
X52740Y-32630D01*
X52793Y-32746D01*
X53071Y-32853D01*
X53368Y-32845D01*
X53607Y-32746D01*
X53660Y-32630D01*
X53660Y-33302D01*
X52794Y-33302D01*
X51888Y-32395D01*
X51949Y-32250D01*
X51949Y-31952D01*
X51835Y-31677D01*
X51625Y-31466D01*
X51350Y-31351D01*
X51052Y-31351D01*
X50777Y-31465D01*
X50566Y-31675D01*
X50451Y-31950D01*
X50451Y-32248D01*
X50565Y-32523D01*
X50775Y-32734D01*
X51050Y-32849D01*
X51348Y-32849D01*
X51354Y-32846D01*
X52403Y-33896D01*
X52404Y-33896D01*
X52479Y-33946D01*
X52516Y-33971D01*
X52517Y-33972D01*
X52650Y-33998D01*
X54552Y-33998D01*
X54552Y-36110D01*
X54484Y-36139D01*
X54414Y-36209D01*
X54376Y-36300D01*
X54376Y-36399D01*
X54376Y-36552D01*
X53994Y-36552D01*
X53746Y-36304D01*
X53634Y-36228D01*
X53500Y-36202D01*
X53190Y-36202D01*
X53948Y-35444D01*
X54108Y-35444D01*
X54308Y-35361D01*
X54461Y-35208D01*
X54544Y-35008D01*
X54544Y-34792D01*
X54461Y-34592D01*
X54308Y-34439D01*
X54108Y-34356D01*
X53892Y-34356D01*
X53692Y-34439D01*
X53539Y-34592D01*
X53456Y-34792D01*
X53456Y-34952D01*
X52556Y-35852D01*
X50044Y-35852D01*
X49548Y-35356D01*
X49548Y-32849D01*
X49749Y-32849D01*
X49841Y-32811D01*
X49911Y-32741D01*
X49949Y-32650D01*
X49949Y-32551D01*
X49949Y-31551D01*
X49911Y-31459D01*
X49841Y-31389D01*
X49750Y-31351D01*
X49651Y-31351D01*
X48651Y-31351D01*
X48559Y-31389D01*
X48489Y-31459D01*
X48451Y-31550D01*
X48451Y-31649D01*
X48451Y-32649D01*
X48489Y-32741D01*
X48559Y-32811D01*
X48650Y-32849D01*
X48749Y-32849D01*
X48852Y-32849D01*
X48852Y-35500D01*
X48878Y-35634D01*
X48954Y-35746D01*
X49395Y-36187D01*
X48732Y-36851D01*
X48476Y-36851D01*
X48384Y-36889D01*
X48314Y-36959D01*
X48276Y-37050D01*
X48276Y-37149D01*
X48276Y-37499D01*
X48314Y-37591D01*
X48373Y-37650D01*
X48314Y-37709D01*
X48276Y-37800D01*
X48276Y-37899D01*
X48276Y-38249D01*
X48314Y-38341D01*
X48384Y-38411D01*
X48475Y-38449D01*
X48574Y-38449D01*
X49124Y-38449D01*
X49216Y-38411D01*
X49254Y-38373D01*
X49530Y-38373D01*
X49652Y-38495D01*
X49785Y-38550D01*
X49653Y-38605D01*
X49505Y-38752D01*
X49425Y-38945D01*
X49425Y-39154D01*
X49505Y-39347D01*
X49652Y-39495D01*
X49779Y-39547D01*
X49678Y-39590D01*
X49653Y-39682D01*
X49950Y-39979D01*
X50247Y-39682D01*
X50222Y-39590D01*
X50112Y-39550D01*
X50247Y-39495D01*
X50355Y-39387D01*
X50433Y-39372D01*
X50434Y-39372D01*
X50546Y-39296D01*
X51944Y-37898D01*
X52444Y-37898D01*
X52425Y-37945D01*
X52425Y-38154D01*
X52505Y-38347D01*
X52652Y-38495D01*
X52785Y-38550D01*
X52653Y-38605D01*
X52505Y-38752D01*
X52425Y-38945D01*
X52425Y-39154D01*
X52505Y-39347D01*
X52652Y-39495D01*
X52779Y-39547D01*
X52678Y-39590D01*
X52653Y-39682D01*
X52915Y-39944D01*
X52950Y-39979D01*
X53021Y-40050D01*
X53056Y-40085D01*
X53318Y-40347D01*
X53410Y-40322D01*
X53480Y-40126D01*
X53476Y-40068D01*
X53927Y-40519D01*
X53927Y-40696D01*
X53889Y-40734D01*
X53851Y-40825D01*
X53851Y-40924D01*
X53851Y-41474D01*
X53889Y-41566D01*
X53959Y-41636D01*
X54050Y-41674D01*
X54149Y-41674D01*
X54499Y-41674D01*
X54591Y-41636D01*
X54650Y-41577D01*
X54709Y-41636D01*
X54726Y-41643D01*
X54779Y-41721D01*
X55504Y-42446D01*
X55616Y-42522D01*
X55617Y-42522D01*
X55750Y-42548D01*
X55755Y-42548D01*
X55852Y-42645D01*
X56045Y-42725D01*
X56254Y-42725D01*
X56447Y-42645D01*
X56595Y-42498D01*
X56626Y-42423D01*
X56626Y-42524D01*
X56664Y-42616D01*
X56734Y-42686D01*
X56825Y-42724D01*
X56924Y-42724D01*
X57474Y-42724D01*
X57566Y-42686D01*
X57636Y-42616D01*
X57674Y-42525D01*
X57674Y-42426D01*
X57674Y-41876D01*
X57636Y-41784D01*
X57566Y-41714D01*
X57498Y-41685D01*
X57498Y-40594D01*
X57970Y-40121D01*
X58050Y-40138D01*
X58776Y-40138D01*
X58776Y-40299D01*
X58814Y-40391D01*
X58884Y-40461D01*
X58975Y-40499D01*
X59074Y-40499D01*
X59624Y-40499D01*
X59716Y-40461D01*
X59786Y-40391D01*
X59824Y-40300D01*
X59824Y-40201D01*
X59824Y-39851D01*
X59786Y-39759D01*
X59727Y-39700D01*
X59734Y-39693D01*
X60089Y-39693D01*
X60150Y-39734D01*
X60125Y-39795D01*
X60125Y-40004D01*
X60205Y-40197D01*
X60352Y-40345D01*
X60545Y-40425D01*
X60754Y-40425D01*
X60947Y-40345D01*
X61044Y-40248D01*
X61806Y-40248D01*
X62304Y-40746D01*
X62416Y-40821D01*
X62417Y-40822D01*
X62550Y-40848D01*
X64250Y-40848D01*
X64383Y-40822D01*
X64384Y-40822D01*
X64496Y-40746D01*
X64746Y-40496D01*
X64821Y-40384D01*
X64822Y-40383D01*
X64848Y-40250D01*
X64848Y-43950D01*
X53247Y-43950D01*
X53247Y-40418D01*
X52950Y-40121D01*
X52879Y-40192D01*
X52879Y-40050D01*
X52582Y-39753D01*
X52490Y-39778D01*
X52420Y-39974D01*
X52432Y-40182D01*
X52490Y-40322D01*
X52582Y-40347D01*
X52879Y-40050D01*
X52879Y-40192D01*
X52653Y-40418D01*
X52678Y-40510D01*
X52874Y-40580D01*
X53082Y-40568D01*
X53222Y-40510D01*
X53247Y-40418D01*
X53247Y-43950D01*
X50480Y-43950D01*
X50480Y-40126D01*
X50468Y-39918D01*
X50410Y-39778D01*
X50318Y-39753D01*
X50021Y-40050D01*
X50318Y-40347D01*
X50410Y-40322D01*
X50480Y-40126D01*
X50480Y-43950D01*
X50247Y-43950D01*
X50247Y-40418D01*
X49950Y-40121D01*
X49879Y-40192D01*
X49879Y-40050D01*
X49582Y-39753D01*
X49490Y-39778D01*
X49420Y-39974D01*
X49432Y-40182D01*
X49490Y-40322D01*
X49582Y-40347D01*
X49879Y-40050D01*
X49879Y-40192D01*
X49653Y-40418D01*
X49678Y-40510D01*
X49874Y-40580D01*
X50082Y-40568D01*
X50222Y-40510D01*
X50247Y-40418D01*
X50247Y-43950D01*
X48050Y-43950D01*
X48050Y-30050D01*
X64950Y-30050D01*
X64950Y-43950D01*
X64950Y-43950D01*
G37*
G54D22*
X64950Y-43950D02*
X64848Y-43950D01*
X64848Y-40250D01*
X64848Y-38800D01*
X64822Y-38667D01*
X64821Y-38666D01*
X64796Y-38629D01*
X64746Y-38554D01*
X64746Y-38553D01*
X64346Y-38154D01*
X64234Y-38078D01*
X64151Y-38062D01*
X64151Y-38061D01*
X64175Y-38005D01*
X64175Y-37796D01*
X64095Y-37603D01*
X63948Y-37455D01*
X63814Y-37399D01*
X63947Y-37345D01*
X64095Y-37198D01*
X64175Y-37005D01*
X64175Y-36796D01*
X64095Y-36603D01*
X63948Y-36455D01*
X63755Y-36375D01*
X63546Y-36375D01*
X63353Y-36455D01*
X63205Y-36602D01*
X63125Y-36795D01*
X63125Y-37004D01*
X63205Y-37197D01*
X63352Y-37345D01*
X63485Y-37400D01*
X63353Y-37455D01*
X63205Y-37602D01*
X63125Y-37795D01*
X63125Y-38004D01*
X63144Y-38052D01*
X61296Y-38052D01*
X61624Y-37725D01*
X61624Y-37724D01*
X61708Y-37599D01*
X61708Y-37598D01*
X61712Y-37573D01*
X61737Y-37450D01*
X61738Y-37450D01*
X61738Y-36250D01*
X61708Y-36102D01*
X61707Y-36101D01*
X61679Y-36059D01*
X61624Y-35976D01*
X61624Y-35975D01*
X61024Y-35376D01*
X60898Y-35292D01*
X60750Y-35262D01*
X60655Y-35262D01*
X60658Y-35261D01*
X60811Y-35108D01*
X60894Y-34908D01*
X60894Y-34692D01*
X60811Y-34492D01*
X60698Y-34379D01*
X60698Y-34300D01*
X60697Y-34299D01*
X60672Y-34167D01*
X60671Y-34166D01*
X60596Y-34054D01*
X60595Y-34053D01*
X59196Y-32654D01*
X59084Y-32578D01*
X58950Y-32552D01*
X55650Y-32552D01*
X55517Y-32578D01*
X55479Y-32603D01*
X55403Y-32654D01*
X54755Y-33302D01*
X53953Y-33302D01*
X53953Y-32229D01*
X53945Y-31932D01*
X53846Y-31693D01*
X53730Y-31640D01*
X53660Y-31710D01*
X53660Y-31570D01*
X53607Y-31454D01*
X53329Y-31347D01*
X53032Y-31355D01*
X52793Y-31454D01*
X52740Y-31570D01*
X53200Y-32029D01*
X53660Y-31570D01*
X53660Y-31710D01*
X53271Y-32100D01*
X53730Y-32560D01*
X53846Y-32507D01*
X53953Y-32229D01*
X53953Y-33302D01*
X53660Y-33302D01*
X53660Y-32630D01*
X53200Y-32171D01*
X53129Y-32241D01*
X53129Y-32100D01*
X52670Y-31640D01*
X52554Y-31693D01*
X52447Y-31971D01*
X52455Y-32268D01*
X52554Y-32507D01*
X52670Y-32560D01*
X53129Y-32100D01*
X53129Y-32241D01*
X52740Y-32630D01*
X52793Y-32746D01*
X53071Y-32853D01*
X53368Y-32845D01*
X53607Y-32746D01*
X53660Y-32630D01*
X53660Y-33302D01*
X52794Y-33302D01*
X51888Y-32395D01*
X51949Y-32250D01*
X51949Y-31952D01*
X51835Y-31677D01*
X51625Y-31466D01*
X51350Y-31351D01*
X51052Y-31351D01*
X50777Y-31465D01*
X50566Y-31675D01*
X50451Y-31950D01*
X50451Y-32248D01*
X50565Y-32523D01*
X50775Y-32734D01*
X51050Y-32849D01*
X51348Y-32849D01*
X51354Y-32846D01*
X52403Y-33896D01*
X52404Y-33896D01*
X52479Y-33946D01*
X52516Y-33971D01*
X52517Y-33972D01*
X52650Y-33998D01*
X54552Y-33998D01*
X54552Y-36110D01*
X54484Y-36139D01*
X54414Y-36209D01*
X54376Y-36300D01*
X54376Y-36399D01*
X54376Y-36552D01*
X53994Y-36552D01*
X53746Y-36304D01*
X53634Y-36228D01*
X53500Y-36202D01*
X53190Y-36202D01*
X53948Y-35444D01*
X54108Y-35444D01*
X54308Y-35361D01*
X54461Y-35208D01*
X54544Y-35008D01*
X54544Y-34792D01*
X54461Y-34592D01*
X54308Y-34439D01*
X54108Y-34356D01*
X53892Y-34356D01*
X53692Y-34439D01*
X53539Y-34592D01*
X53456Y-34792D01*
X53456Y-34952D01*
X52556Y-35852D01*
X50044Y-35852D01*
X49548Y-35356D01*
X49548Y-32849D01*
X49749Y-32849D01*
X49841Y-32811D01*
X49911Y-32741D01*
X49949Y-32650D01*
X49949Y-32551D01*
X49949Y-31551D01*
X49911Y-31459D01*
X49841Y-31389D01*
X49750Y-31351D01*
X49651Y-31351D01*
X48651Y-31351D01*
X48559Y-31389D01*
X48489Y-31459D01*
X48451Y-31550D01*
X48451Y-31649D01*
X48451Y-32649D01*
X48489Y-32741D01*
X48559Y-32811D01*
X48650Y-32849D01*
X48749Y-32849D01*
X48852Y-32849D01*
X48852Y-35500D01*
X48878Y-35634D01*
X48954Y-35746D01*
X49395Y-36187D01*
X48732Y-36851D01*
X48476Y-36851D01*
X48384Y-36889D01*
X48314Y-36959D01*
X48276Y-37050D01*
X48276Y-37149D01*
X48276Y-37499D01*
X48314Y-37591D01*
X48373Y-37650D01*
X48314Y-37709D01*
X48276Y-37800D01*
X48276Y-37899D01*
X48276Y-38249D01*
X48314Y-38341D01*
X48384Y-38411D01*
X48475Y-38449D01*
X48574Y-38449D01*
X49124Y-38449D01*
X49216Y-38411D01*
X49254Y-38373D01*
X49530Y-38373D01*
X49652Y-38495D01*
X49785Y-38550D01*
X49653Y-38605D01*
X49505Y-38752D01*
X49425Y-38945D01*
X49425Y-39154D01*
X49505Y-39347D01*
X49652Y-39495D01*
X49779Y-39547D01*
X49678Y-39590D01*
X49653Y-39682D01*
X49950Y-39979D01*
X50247Y-39682D01*
X50222Y-39590D01*
X50112Y-39550D01*
X50247Y-39495D01*
X50355Y-39387D01*
X50433Y-39372D01*
X50434Y-39372D01*
X50546Y-39296D01*
X51944Y-37898D01*
X52444Y-37898D01*
X52425Y-37945D01*
X52425Y-38154D01*
X52505Y-38347D01*
X52652Y-38495D01*
X52785Y-38550D01*
X52653Y-38605D01*
X52505Y-38752D01*
X52425Y-38945D01*
X52425Y-39154D01*
X52505Y-39347D01*
X52652Y-39495D01*
X52779Y-39547D01*
X52678Y-39590D01*
X52653Y-39682D01*
X52915Y-39944D01*
X52950Y-39979D01*
X53021Y-40050D01*
X53056Y-40085D01*
X53318Y-40347D01*
X53410Y-40322D01*
X53480Y-40126D01*
X53476Y-40068D01*
X53927Y-40519D01*
X53927Y-40696D01*
X53889Y-40734D01*
X53851Y-40825D01*
X53851Y-40924D01*
X53851Y-41474D01*
X53889Y-41566D01*
X53959Y-41636D01*
X54050Y-41674D01*
X54149Y-41674D01*
X54499Y-41674D01*
X54591Y-41636D01*
X54650Y-41577D01*
X54709Y-41636D01*
X54726Y-41643D01*
X54779Y-41721D01*
X55504Y-42446D01*
X55616Y-42522D01*
X55617Y-42522D01*
X55750Y-42548D01*
X55755Y-42548D01*
X55852Y-42645D01*
X56045Y-42725D01*
X56254Y-42725D01*
X56447Y-42645D01*
X56595Y-42498D01*
X56626Y-42423D01*
X56626Y-42524D01*
X56664Y-42616D01*
X56734Y-42686D01*
X56825Y-42724D01*
X56924Y-42724D01*
X57474Y-42724D01*
X57566Y-42686D01*
X57636Y-42616D01*
X57674Y-42525D01*
X57674Y-42426D01*
X57674Y-41876D01*
X57636Y-41784D01*
X57566Y-41714D01*
X57498Y-41685D01*
X57498Y-40594D01*
X57970Y-40121D01*
X58050Y-40138D01*
X58776Y-40138D01*
X58776Y-40299D01*
X58814Y-40391D01*
X58884Y-40461D01*
X58975Y-40499D01*
X59074Y-40499D01*
X59624Y-40499D01*
X59716Y-40461D01*
X59786Y-40391D01*
X59824Y-40300D01*
X59824Y-40201D01*
X59824Y-39851D01*
X59786Y-39759D01*
X59727Y-39700D01*
X59734Y-39693D01*
X60089Y-39693D01*
X60150Y-39734D01*
X60125Y-39795D01*
X60125Y-40004D01*
X60205Y-40197D01*
X60352Y-40345D01*
X60545Y-40425D01*
X60754Y-40425D01*
X60947Y-40345D01*
X61044Y-40248D01*
X61806Y-40248D01*
X62304Y-40746D01*
X62416Y-40821D01*
X62417Y-40822D01*
X62550Y-40848D01*
X64250Y-40848D01*
X64383Y-40822D01*
X64384Y-40822D01*
X64496Y-40746D01*
X64746Y-40496D01*
X64821Y-40384D01*
X64822Y-40383D01*
X64848Y-40250D01*
X64848Y-43950D01*
X53247Y-43950D01*
X53247Y-40418D01*
X52950Y-40121D01*
X52879Y-40192D01*
X52879Y-40050D01*
X52582Y-39753D01*
X52490Y-39778D01*
X52420Y-39974D01*
X52432Y-40182D01*
X52490Y-40322D01*
X52582Y-40347D01*
X52879Y-40050D01*
X52879Y-40192D01*
X52653Y-40418D01*
X52678Y-40510D01*
X52874Y-40580D01*
X53082Y-40568D01*
X53222Y-40510D01*
X53247Y-40418D01*
X53247Y-43950D01*
X50480Y-43950D01*
X50480Y-40126D01*
X50468Y-39918D01*
X50410Y-39778D01*
X50318Y-39753D01*
X50021Y-40050D01*
X50318Y-40347D01*
X50410Y-40322D01*
X50480Y-40126D01*
X50480Y-43950D01*
X50247Y-43950D01*
X50247Y-40418D01*
X49950Y-40121D01*
X49879Y-40192D01*
X49879Y-40050D01*
X49582Y-39753D01*
X49490Y-39778D01*
X49420Y-39974D01*
X49432Y-40182D01*
X49490Y-40322D01*
X49582Y-40347D01*
X49879Y-40050D01*
X49879Y-40192D01*
X49653Y-40418D01*
X49678Y-40510D01*
X49874Y-40580D01*
X50082Y-40568D01*
X50222Y-40510D01*
X50247Y-40418D01*
X50247Y-43950D01*
X48050Y-43950D01*
X48050Y-30050D01*
X64950Y-30050D01*
X64950Y-43950D01*
G54D10*
G36*
X112044Y-68262D02*
X112022Y-68262D01*
X112011Y-68234D01*
X111941Y-68164D01*
X111850Y-68126D01*
X111751Y-68126D01*
X111401Y-68126D01*
X111309Y-68164D01*
X111250Y-68223D01*
X111191Y-68164D01*
X111100Y-68126D01*
X111093Y-68126D01*
X111111Y-68108D01*
X111194Y-67908D01*
X111194Y-67692D01*
X111111Y-67492D01*
X110958Y-67339D01*
X110758Y-67256D01*
X110542Y-67256D01*
X110348Y-67336D01*
X110348Y-67314D01*
X110416Y-67286D01*
X110486Y-67216D01*
X110524Y-67125D01*
X110524Y-67026D01*
X110524Y-66476D01*
X110486Y-66384D01*
X110416Y-66314D01*
X110325Y-66276D01*
X110226Y-66276D01*
X109676Y-66276D01*
X109584Y-66314D01*
X109514Y-66384D01*
X109476Y-66475D01*
X109476Y-66566D01*
X109460Y-66528D01*
X109368Y-66503D01*
X109297Y-66574D01*
X109297Y-66432D01*
X109272Y-66340D01*
X109076Y-66270D01*
X108868Y-66282D01*
X108728Y-66340D01*
X108703Y-66432D01*
X109000Y-66729D01*
X109297Y-66432D01*
X109297Y-66574D01*
X109071Y-66800D01*
X109368Y-67097D01*
X109460Y-67072D01*
X109476Y-67027D01*
X109476Y-67124D01*
X109514Y-67216D01*
X109584Y-67286D01*
X109631Y-67306D01*
X109492Y-67306D01*
X109297Y-67386D01*
X109297Y-67168D01*
X109000Y-66871D01*
X108703Y-67168D01*
X108728Y-67260D01*
X108924Y-67330D01*
X109132Y-67318D01*
X109272Y-67260D01*
X109297Y-67168D01*
X109297Y-67386D01*
X109292Y-67389D01*
X109139Y-67542D01*
X109056Y-67742D01*
X109056Y-67958D01*
X109139Y-68158D01*
X109144Y-68163D01*
X109054Y-68254D01*
X108978Y-68366D01*
X108952Y-68500D01*
X108952Y-70950D01*
X108978Y-71084D01*
X109054Y-71196D01*
X109354Y-71496D01*
X109466Y-71572D01*
X109467Y-71572D01*
X109578Y-71593D01*
X109576Y-71601D01*
X109575Y-71638D01*
X109637Y-71700D01*
X109950Y-71700D01*
X110000Y-71700D01*
X110100Y-71700D01*
X110150Y-71700D01*
X110463Y-71700D01*
X110525Y-71638D01*
X111489Y-71638D01*
X111808Y-71957D01*
X111734Y-71957D01*
X111716Y-71939D01*
X111625Y-71901D01*
X111526Y-71901D01*
X110976Y-71901D01*
X110888Y-71937D01*
X110508Y-71937D01*
X110524Y-71899D01*
X110525Y-71862D01*
X110463Y-71800D01*
X110150Y-71800D01*
X110100Y-71800D01*
X110000Y-71800D01*
X109950Y-71800D01*
X109637Y-71800D01*
X109575Y-71862D01*
X109576Y-71899D01*
X109614Y-71991D01*
X109623Y-72000D01*
X109614Y-72009D01*
X109576Y-72100D01*
X109576Y-72199D01*
X109576Y-72399D01*
X109614Y-72491D01*
X109617Y-72494D01*
X109604Y-72504D01*
X109603Y-72504D01*
X109603Y-72505D01*
X108904Y-73204D01*
X108828Y-73316D01*
X108802Y-73450D01*
X108802Y-74685D01*
X108734Y-74714D01*
X108664Y-74784D01*
X108626Y-74875D01*
X108626Y-74974D01*
X108626Y-74977D01*
X108595Y-74903D01*
X108448Y-74755D01*
X108255Y-74675D01*
X108046Y-74675D01*
X107853Y-74755D01*
X107824Y-74782D01*
X107449Y-74407D01*
X107449Y-74376D01*
X107449Y-74218D01*
X108196Y-73471D01*
X108272Y-73359D01*
X108272Y-73358D01*
X108298Y-73225D01*
X108298Y-73068D01*
X108316Y-73061D01*
X108386Y-72991D01*
X108424Y-72900D01*
X108424Y-72801D01*
X108424Y-72601D01*
X108386Y-72509D01*
X108377Y-72500D01*
X108386Y-72491D01*
X108424Y-72400D01*
X108424Y-72301D01*
X108424Y-72101D01*
X108386Y-72009D01*
X108377Y-72000D01*
X108386Y-71991D01*
X108424Y-71899D01*
X108425Y-71862D01*
X108363Y-71800D01*
X108050Y-71800D01*
X108000Y-71800D01*
X107900Y-71800D01*
X107850Y-71800D01*
X107537Y-71800D01*
X107475Y-71862D01*
X107476Y-71899D01*
X107477Y-71902D01*
X107294Y-71902D01*
X107196Y-71804D01*
X107084Y-71728D01*
X106950Y-71702D01*
X105344Y-71702D01*
X105248Y-71605D01*
X105114Y-71549D01*
X105247Y-71495D01*
X105395Y-71348D01*
X105475Y-71155D01*
X105475Y-70946D01*
X105455Y-70898D01*
X105700Y-70898D01*
X105833Y-70872D01*
X105834Y-70872D01*
X105946Y-70796D01*
X106119Y-70623D01*
X106446Y-70623D01*
X106484Y-70661D01*
X106575Y-70699D01*
X106674Y-70699D01*
X107224Y-70699D01*
X107316Y-70661D01*
X107354Y-70623D01*
X107475Y-70623D01*
X107475Y-70638D01*
X107537Y-70700D01*
X107850Y-70700D01*
X107900Y-70700D01*
X108000Y-70700D01*
X108000Y-70800D01*
X107900Y-70800D01*
X107850Y-70800D01*
X107537Y-70800D01*
X107475Y-70862D01*
X107476Y-70899D01*
X107514Y-70991D01*
X107523Y-71000D01*
X107514Y-71009D01*
X107476Y-71100D01*
X107476Y-71199D01*
X107476Y-71399D01*
X107514Y-71491D01*
X107523Y-71500D01*
X107514Y-71509D01*
X107476Y-71601D01*
X107475Y-71638D01*
X107537Y-71700D01*
X107850Y-71700D01*
X107900Y-71700D01*
X108000Y-71700D01*
X108050Y-71700D01*
X108363Y-71700D01*
X108425Y-71638D01*
X108424Y-71601D01*
X108394Y-71530D01*
X108446Y-71496D01*
X108795Y-71147D01*
X108795Y-71146D01*
X108796Y-71146D01*
X108871Y-71034D01*
X108872Y-71033D01*
X108897Y-70901D01*
X108898Y-70900D01*
X108898Y-68500D01*
X108897Y-68499D01*
X108872Y-68367D01*
X108871Y-68366D01*
X108796Y-68254D01*
X108795Y-68253D01*
X108348Y-67806D01*
X108348Y-67194D01*
X108445Y-67098D01*
X108497Y-66970D01*
X108540Y-67072D01*
X108632Y-67097D01*
X108929Y-66800D01*
X108632Y-66503D01*
X108540Y-66528D01*
X108500Y-66637D01*
X108445Y-66503D01*
X108298Y-66355D01*
X108105Y-66275D01*
X107896Y-66275D01*
X107703Y-66355D01*
X107555Y-66502D01*
X107475Y-66695D01*
X107475Y-66904D01*
X107555Y-67097D01*
X107652Y-67194D01*
X107652Y-67950D01*
X107678Y-68084D01*
X107754Y-68196D01*
X108202Y-68644D01*
X108202Y-69401D01*
X108126Y-69401D01*
X107676Y-69401D01*
X107584Y-69439D01*
X107550Y-69472D01*
X107549Y-69473D01*
X107504Y-69504D01*
X107456Y-69552D01*
X107424Y-69552D01*
X107424Y-69301D01*
X107386Y-69209D01*
X107316Y-69139D01*
X107248Y-69110D01*
X107248Y-66794D01*
X107794Y-66248D01*
X110806Y-66248D01*
X111969Y-67411D01*
X111889Y-67492D01*
X111806Y-67692D01*
X111806Y-67908D01*
X111889Y-68108D01*
X112042Y-68261D01*
X112044Y-68262D01*
X112044Y-68262D01*
G37*
G54D22*
X112044Y-68262D02*
X112022Y-68262D01*
X112011Y-68234D01*
X111941Y-68164D01*
X111850Y-68126D01*
X111751Y-68126D01*
X111401Y-68126D01*
X111309Y-68164D01*
X111250Y-68223D01*
X111191Y-68164D01*
X111100Y-68126D01*
X111093Y-68126D01*
X111111Y-68108D01*
X111194Y-67908D01*
X111194Y-67692D01*
X111111Y-67492D01*
X110958Y-67339D01*
X110758Y-67256D01*
X110542Y-67256D01*
X110348Y-67336D01*
X110348Y-67314D01*
X110416Y-67286D01*
X110486Y-67216D01*
X110524Y-67125D01*
X110524Y-67026D01*
X110524Y-66476D01*
X110486Y-66384D01*
X110416Y-66314D01*
X110325Y-66276D01*
X110226Y-66276D01*
X109676Y-66276D01*
X109584Y-66314D01*
X109514Y-66384D01*
X109476Y-66475D01*
X109476Y-66566D01*
X109460Y-66528D01*
X109368Y-66503D01*
X109297Y-66574D01*
X109297Y-66432D01*
X109272Y-66340D01*
X109076Y-66270D01*
X108868Y-66282D01*
X108728Y-66340D01*
X108703Y-66432D01*
X109000Y-66729D01*
X109297Y-66432D01*
X109297Y-66574D01*
X109071Y-66800D01*
X109368Y-67097D01*
X109460Y-67072D01*
X109476Y-67027D01*
X109476Y-67124D01*
X109514Y-67216D01*
X109584Y-67286D01*
X109631Y-67306D01*
X109492Y-67306D01*
X109297Y-67386D01*
X109297Y-67168D01*
X109000Y-66871D01*
X108703Y-67168D01*
X108728Y-67260D01*
X108924Y-67330D01*
X109132Y-67318D01*
X109272Y-67260D01*
X109297Y-67168D01*
X109297Y-67386D01*
X109292Y-67389D01*
X109139Y-67542D01*
X109056Y-67742D01*
X109056Y-67958D01*
X109139Y-68158D01*
X109144Y-68163D01*
X109054Y-68254D01*
X108978Y-68366D01*
X108952Y-68500D01*
X108952Y-70950D01*
X108978Y-71084D01*
X109054Y-71196D01*
X109354Y-71496D01*
X109466Y-71572D01*
X109467Y-71572D01*
X109578Y-71593D01*
X109576Y-71601D01*
X109575Y-71638D01*
X109637Y-71700D01*
X109950Y-71700D01*
X110000Y-71700D01*
X110100Y-71700D01*
X110150Y-71700D01*
X110463Y-71700D01*
X110525Y-71638D01*
X111489Y-71638D01*
X111808Y-71957D01*
X111734Y-71957D01*
X111716Y-71939D01*
X111625Y-71901D01*
X111526Y-71901D01*
X110976Y-71901D01*
X110888Y-71937D01*
X110508Y-71937D01*
X110524Y-71899D01*
X110525Y-71862D01*
X110463Y-71800D01*
X110150Y-71800D01*
X110100Y-71800D01*
X110000Y-71800D01*
X109950Y-71800D01*
X109637Y-71800D01*
X109575Y-71862D01*
X109576Y-71899D01*
X109614Y-71991D01*
X109623Y-72000D01*
X109614Y-72009D01*
X109576Y-72100D01*
X109576Y-72199D01*
X109576Y-72399D01*
X109614Y-72491D01*
X109617Y-72494D01*
X109604Y-72504D01*
X109603Y-72504D01*
X109603Y-72505D01*
X108904Y-73204D01*
X108828Y-73316D01*
X108802Y-73450D01*
X108802Y-74685D01*
X108734Y-74714D01*
X108664Y-74784D01*
X108626Y-74875D01*
X108626Y-74974D01*
X108626Y-74977D01*
X108595Y-74903D01*
X108448Y-74755D01*
X108255Y-74675D01*
X108046Y-74675D01*
X107853Y-74755D01*
X107824Y-74782D01*
X107449Y-74407D01*
X107449Y-74376D01*
X107449Y-74218D01*
X108196Y-73471D01*
X108272Y-73359D01*
X108272Y-73358D01*
X108298Y-73225D01*
X108298Y-73068D01*
X108316Y-73061D01*
X108386Y-72991D01*
X108424Y-72900D01*
X108424Y-72801D01*
X108424Y-72601D01*
X108386Y-72509D01*
X108377Y-72500D01*
X108386Y-72491D01*
X108424Y-72400D01*
X108424Y-72301D01*
X108424Y-72101D01*
X108386Y-72009D01*
X108377Y-72000D01*
X108386Y-71991D01*
X108424Y-71899D01*
X108425Y-71862D01*
X108363Y-71800D01*
X108050Y-71800D01*
X108000Y-71800D01*
X107900Y-71800D01*
X107850Y-71800D01*
X107537Y-71800D01*
X107475Y-71862D01*
X107476Y-71899D01*
X107477Y-71902D01*
X107294Y-71902D01*
X107196Y-71804D01*
X107084Y-71728D01*
X106950Y-71702D01*
X105344Y-71702D01*
X105248Y-71605D01*
X105114Y-71549D01*
X105247Y-71495D01*
X105395Y-71348D01*
X105475Y-71155D01*
X105475Y-70946D01*
X105455Y-70898D01*
X105700Y-70898D01*
X105833Y-70872D01*
X105834Y-70872D01*
X105946Y-70796D01*
X106119Y-70623D01*
X106446Y-70623D01*
X106484Y-70661D01*
X106575Y-70699D01*
X106674Y-70699D01*
X107224Y-70699D01*
X107316Y-70661D01*
X107354Y-70623D01*
X107475Y-70623D01*
X107475Y-70638D01*
X107537Y-70700D01*
X107850Y-70700D01*
X107900Y-70700D01*
X108000Y-70700D01*
X108000Y-70800D01*
X107900Y-70800D01*
X107850Y-70800D01*
X107537Y-70800D01*
X107475Y-70862D01*
X107476Y-70899D01*
X107514Y-70991D01*
X107523Y-71000D01*
X107514Y-71009D01*
X107476Y-71100D01*
X107476Y-71199D01*
X107476Y-71399D01*
X107514Y-71491D01*
X107523Y-71500D01*
X107514Y-71509D01*
X107476Y-71601D01*
X107475Y-71638D01*
X107537Y-71700D01*
X107850Y-71700D01*
X107900Y-71700D01*
X108000Y-71700D01*
X108050Y-71700D01*
X108363Y-71700D01*
X108425Y-71638D01*
X108424Y-71601D01*
X108394Y-71530D01*
X108446Y-71496D01*
X108795Y-71147D01*
X108795Y-71146D01*
X108796Y-71146D01*
X108871Y-71034D01*
X108872Y-71033D01*
X108897Y-70901D01*
X108898Y-70900D01*
X108898Y-68500D01*
X108897Y-68499D01*
X108872Y-68367D01*
X108871Y-68366D01*
X108796Y-68254D01*
X108795Y-68253D01*
X108348Y-67806D01*
X108348Y-67194D01*
X108445Y-67098D01*
X108497Y-66970D01*
X108540Y-67072D01*
X108632Y-67097D01*
X108929Y-66800D01*
X108632Y-66503D01*
X108540Y-66528D01*
X108500Y-66637D01*
X108445Y-66503D01*
X108298Y-66355D01*
X108105Y-66275D01*
X107896Y-66275D01*
X107703Y-66355D01*
X107555Y-66502D01*
X107475Y-66695D01*
X107475Y-66904D01*
X107555Y-67097D01*
X107652Y-67194D01*
X107652Y-67950D01*
X107678Y-68084D01*
X107754Y-68196D01*
X108202Y-68644D01*
X108202Y-69401D01*
X108126Y-69401D01*
X107676Y-69401D01*
X107584Y-69439D01*
X107550Y-69472D01*
X107549Y-69473D01*
X107504Y-69504D01*
X107456Y-69552D01*
X107424Y-69552D01*
X107424Y-69301D01*
X107386Y-69209D01*
X107316Y-69139D01*
X107248Y-69110D01*
X107248Y-66794D01*
X107794Y-66248D01*
X110806Y-66248D01*
X111969Y-67411D01*
X111889Y-67492D01*
X111806Y-67692D01*
X111806Y-67908D01*
X111889Y-68108D01*
X112042Y-68261D01*
X112044Y-68262D01*
G54D10*
G36*
X112927Y-69376D02*
X112876Y-69376D01*
X112762Y-69375D01*
X112700Y-69437D01*
X112700Y-69800D01*
X112700Y-69850D01*
X112700Y-69950D01*
X112600Y-69950D01*
X112600Y-69850D01*
X112600Y-69437D01*
X112538Y-69375D01*
X112424Y-69376D01*
X112325Y-69376D01*
X112234Y-69414D01*
X112164Y-69484D01*
X112126Y-69576D01*
X112125Y-69788D01*
X112187Y-69850D01*
X112600Y-69850D01*
X112600Y-69950D01*
X112550Y-69950D01*
X112187Y-69950D01*
X112125Y-70012D01*
X112126Y-70224D01*
X112164Y-70316D01*
X112234Y-70386D01*
X112325Y-70424D01*
X112424Y-70424D01*
X112353Y-70455D01*
X112205Y-70602D01*
X112172Y-70679D01*
X112050Y-70557D01*
X112050Y-69712D01*
X111988Y-69650D01*
X111675Y-69650D01*
X111675Y-70063D01*
X111737Y-70125D01*
X111849Y-70124D01*
X111941Y-70086D01*
X112011Y-70016D01*
X112049Y-69925D01*
X112049Y-69826D01*
X112050Y-69712D01*
X112050Y-70557D01*
X111565Y-70072D01*
X111575Y-70063D01*
X111575Y-69700D01*
X111575Y-69650D01*
X111575Y-69550D01*
X111675Y-69550D01*
X111725Y-69550D01*
X111988Y-69550D01*
X112050Y-69488D01*
X112049Y-69374D01*
X112049Y-69275D01*
X112011Y-69184D01*
X111952Y-69125D01*
X112011Y-69066D01*
X112022Y-69038D01*
X112589Y-69038D01*
X112927Y-69376D01*
X112927Y-69376D01*
G37*
G54D22*
X112927Y-69376D02*
X112876Y-69376D01*
X112762Y-69375D01*
X112700Y-69437D01*
X112700Y-69800D01*
X112700Y-69850D01*
X112700Y-69950D01*
X112600Y-69950D01*
X112600Y-69850D01*
X112600Y-69437D01*
X112538Y-69375D01*
X112424Y-69376D01*
X112325Y-69376D01*
X112234Y-69414D01*
X112164Y-69484D01*
X112126Y-69576D01*
X112125Y-69788D01*
X112187Y-69850D01*
X112600Y-69850D01*
X112600Y-69950D01*
X112550Y-69950D01*
X112187Y-69950D01*
X112125Y-70012D01*
X112126Y-70224D01*
X112164Y-70316D01*
X112234Y-70386D01*
X112325Y-70424D01*
X112424Y-70424D01*
X112353Y-70455D01*
X112205Y-70602D01*
X112172Y-70679D01*
X112050Y-70557D01*
X112050Y-69712D01*
X111988Y-69650D01*
X111675Y-69650D01*
X111675Y-70063D01*
X111737Y-70125D01*
X111849Y-70124D01*
X111941Y-70086D01*
X112011Y-70016D01*
X112049Y-69925D01*
X112049Y-69826D01*
X112050Y-69712D01*
X112050Y-70557D01*
X111565Y-70072D01*
X111575Y-70063D01*
X111575Y-69700D01*
X111575Y-69650D01*
X111575Y-69550D01*
X111675Y-69550D01*
X111725Y-69550D01*
X111988Y-69550D01*
X112050Y-69488D01*
X112049Y-69374D01*
X112049Y-69275D01*
X112011Y-69184D01*
X111952Y-69125D01*
X112011Y-69066D01*
X112022Y-69038D01*
X112589Y-69038D01*
X112927Y-69376D01*
G54D10*
G36*
X116950Y-76950D02*
X116848Y-76950D01*
X116848Y-73250D01*
X116848Y-71800D01*
X116822Y-71667D01*
X116821Y-71666D01*
X116796Y-71629D01*
X116746Y-71554D01*
X116746Y-71553D01*
X116346Y-71154D01*
X116234Y-71078D01*
X116151Y-71062D01*
X116151Y-71061D01*
X116175Y-71005D01*
X116175Y-70796D01*
X116095Y-70603D01*
X115948Y-70455D01*
X115814Y-70399D01*
X115947Y-70345D01*
X116095Y-70198D01*
X116175Y-70005D01*
X116175Y-69796D01*
X116095Y-69603D01*
X115948Y-69455D01*
X115755Y-69375D01*
X115546Y-69375D01*
X115353Y-69455D01*
X115205Y-69602D01*
X115125Y-69795D01*
X115125Y-70004D01*
X115205Y-70197D01*
X115352Y-70345D01*
X115485Y-70400D01*
X115353Y-70455D01*
X115205Y-70602D01*
X115125Y-70795D01*
X115125Y-71004D01*
X115144Y-71052D01*
X113296Y-71052D01*
X113624Y-70725D01*
X113624Y-70724D01*
X113708Y-70599D01*
X113708Y-70598D01*
X113712Y-70573D01*
X113737Y-70450D01*
X113738Y-70450D01*
X113738Y-69250D01*
X113708Y-69102D01*
X113707Y-69101D01*
X113679Y-69059D01*
X113624Y-68976D01*
X113624Y-68975D01*
X113024Y-68376D01*
X112898Y-68292D01*
X112750Y-68262D01*
X112655Y-68262D01*
X112658Y-68261D01*
X112811Y-68108D01*
X112894Y-67908D01*
X112894Y-67692D01*
X112811Y-67492D01*
X112698Y-67379D01*
X112698Y-67300D01*
X112697Y-67299D01*
X112672Y-67167D01*
X112671Y-67166D01*
X112596Y-67054D01*
X112595Y-67053D01*
X111196Y-65654D01*
X111084Y-65578D01*
X110950Y-65552D01*
X107650Y-65552D01*
X107517Y-65578D01*
X107479Y-65603D01*
X107403Y-65654D01*
X106755Y-66302D01*
X105953Y-66302D01*
X105953Y-65229D01*
X105945Y-64932D01*
X105846Y-64693D01*
X105730Y-64640D01*
X105660Y-64710D01*
X105660Y-64570D01*
X105607Y-64454D01*
X105329Y-64347D01*
X105032Y-64355D01*
X104793Y-64454D01*
X104740Y-64570D01*
X105200Y-65029D01*
X105660Y-64570D01*
X105660Y-64710D01*
X105271Y-65100D01*
X105730Y-65560D01*
X105846Y-65507D01*
X105953Y-65229D01*
X105953Y-66302D01*
X105660Y-66302D01*
X105660Y-65630D01*
X105200Y-65171D01*
X105129Y-65241D01*
X105129Y-65100D01*
X104670Y-64640D01*
X104554Y-64693D01*
X104447Y-64971D01*
X104455Y-65268D01*
X104554Y-65507D01*
X104670Y-65560D01*
X105129Y-65100D01*
X105129Y-65241D01*
X104740Y-65630D01*
X104793Y-65746D01*
X105071Y-65853D01*
X105368Y-65845D01*
X105607Y-65746D01*
X105660Y-65630D01*
X105660Y-66302D01*
X104794Y-66302D01*
X103888Y-65395D01*
X103949Y-65250D01*
X103949Y-64952D01*
X103835Y-64677D01*
X103625Y-64466D01*
X103350Y-64351D01*
X103052Y-64351D01*
X102777Y-64465D01*
X102566Y-64675D01*
X102451Y-64950D01*
X102451Y-65248D01*
X102565Y-65523D01*
X102775Y-65734D01*
X103050Y-65849D01*
X103348Y-65849D01*
X103354Y-65846D01*
X104403Y-66896D01*
X104404Y-66896D01*
X104479Y-66946D01*
X104516Y-66971D01*
X104517Y-66972D01*
X104650Y-66998D01*
X106552Y-66998D01*
X106552Y-69110D01*
X106484Y-69139D01*
X106414Y-69209D01*
X106376Y-69300D01*
X106376Y-69399D01*
X106376Y-69552D01*
X105994Y-69552D01*
X105746Y-69304D01*
X105634Y-69228D01*
X105500Y-69202D01*
X105190Y-69202D01*
X105948Y-68444D01*
X106108Y-68444D01*
X106308Y-68361D01*
X106461Y-68208D01*
X106544Y-68008D01*
X106544Y-67792D01*
X106461Y-67592D01*
X106308Y-67439D01*
X106108Y-67356D01*
X105892Y-67356D01*
X105692Y-67439D01*
X105539Y-67592D01*
X105456Y-67792D01*
X105456Y-67952D01*
X104556Y-68852D01*
X102044Y-68852D01*
X101548Y-68356D01*
X101548Y-65849D01*
X101749Y-65849D01*
X101841Y-65811D01*
X101911Y-65741D01*
X101949Y-65650D01*
X101949Y-65551D01*
X101949Y-64551D01*
X101911Y-64459D01*
X101841Y-64389D01*
X101750Y-64351D01*
X101651Y-64351D01*
X100651Y-64351D01*
X100559Y-64389D01*
X100489Y-64459D01*
X100451Y-64550D01*
X100451Y-64649D01*
X100451Y-65649D01*
X100489Y-65741D01*
X100559Y-65811D01*
X100650Y-65849D01*
X100749Y-65849D01*
X100852Y-65849D01*
X100852Y-68500D01*
X100878Y-68634D01*
X100954Y-68746D01*
X101395Y-69187D01*
X100732Y-69851D01*
X100476Y-69851D01*
X100384Y-69889D01*
X100314Y-69959D01*
X100276Y-70050D01*
X100276Y-70149D01*
X100276Y-70499D01*
X100314Y-70591D01*
X100373Y-70650D01*
X100314Y-70709D01*
X100276Y-70800D01*
X100276Y-70899D01*
X100276Y-71249D01*
X100314Y-71341D01*
X100384Y-71411D01*
X100475Y-71449D01*
X100574Y-71449D01*
X101124Y-71449D01*
X101216Y-71411D01*
X101254Y-71373D01*
X101530Y-71373D01*
X101652Y-71495D01*
X101785Y-71550D01*
X101653Y-71605D01*
X101505Y-71752D01*
X101425Y-71945D01*
X101425Y-72154D01*
X101505Y-72347D01*
X101652Y-72495D01*
X101779Y-72547D01*
X101678Y-72590D01*
X101653Y-72682D01*
X101950Y-72979D01*
X102247Y-72682D01*
X102222Y-72590D01*
X102112Y-72550D01*
X102247Y-72495D01*
X102355Y-72387D01*
X102433Y-72372D01*
X102434Y-72372D01*
X102546Y-72296D01*
X103944Y-70898D01*
X104444Y-70898D01*
X104425Y-70945D01*
X104425Y-71154D01*
X104505Y-71347D01*
X104652Y-71495D01*
X104785Y-71550D01*
X104653Y-71605D01*
X104505Y-71752D01*
X104425Y-71945D01*
X104425Y-72154D01*
X104505Y-72347D01*
X104652Y-72495D01*
X104779Y-72547D01*
X104678Y-72590D01*
X104653Y-72682D01*
X104915Y-72944D01*
X104950Y-72979D01*
X105021Y-73050D01*
X105056Y-73085D01*
X105318Y-73347D01*
X105410Y-73322D01*
X105480Y-73126D01*
X105476Y-73068D01*
X105927Y-73519D01*
X105927Y-73696D01*
X105889Y-73734D01*
X105851Y-73825D01*
X105851Y-73924D01*
X105851Y-74474D01*
X105889Y-74566D01*
X105959Y-74636D01*
X106050Y-74674D01*
X106149Y-74674D01*
X106499Y-74674D01*
X106591Y-74636D01*
X106650Y-74577D01*
X106709Y-74636D01*
X106726Y-74643D01*
X106779Y-74721D01*
X107504Y-75446D01*
X107616Y-75522D01*
X107617Y-75522D01*
X107750Y-75548D01*
X107755Y-75548D01*
X107852Y-75645D01*
X108045Y-75725D01*
X108254Y-75725D01*
X108447Y-75645D01*
X108595Y-75498D01*
X108626Y-75423D01*
X108626Y-75524D01*
X108664Y-75616D01*
X108734Y-75686D01*
X108825Y-75724D01*
X108924Y-75724D01*
X109474Y-75724D01*
X109566Y-75686D01*
X109636Y-75616D01*
X109674Y-75525D01*
X109674Y-75426D01*
X109674Y-74876D01*
X109636Y-74784D01*
X109566Y-74714D01*
X109498Y-74685D01*
X109498Y-73594D01*
X109970Y-73121D01*
X110050Y-73138D01*
X110776Y-73138D01*
X110776Y-73299D01*
X110814Y-73391D01*
X110884Y-73461D01*
X110975Y-73499D01*
X111074Y-73499D01*
X111624Y-73499D01*
X111716Y-73461D01*
X111786Y-73391D01*
X111824Y-73300D01*
X111824Y-73201D01*
X111824Y-72851D01*
X111786Y-72759D01*
X111727Y-72700D01*
X111734Y-72693D01*
X112089Y-72693D01*
X112150Y-72734D01*
X112125Y-72795D01*
X112125Y-73004D01*
X112205Y-73197D01*
X112352Y-73345D01*
X112545Y-73425D01*
X112754Y-73425D01*
X112947Y-73345D01*
X113044Y-73248D01*
X113806Y-73248D01*
X114304Y-73746D01*
X114416Y-73821D01*
X114417Y-73822D01*
X114550Y-73848D01*
X116250Y-73848D01*
X116383Y-73822D01*
X116384Y-73822D01*
X116496Y-73746D01*
X116746Y-73496D01*
X116821Y-73384D01*
X116822Y-73383D01*
X116848Y-73250D01*
X116848Y-76950D01*
X105247Y-76950D01*
X105247Y-73418D01*
X104950Y-73121D01*
X104879Y-73192D01*
X104879Y-73050D01*
X104582Y-72753D01*
X104490Y-72778D01*
X104420Y-72974D01*
X104432Y-73182D01*
X104490Y-73322D01*
X104582Y-73347D01*
X104879Y-73050D01*
X104879Y-73192D01*
X104653Y-73418D01*
X104678Y-73510D01*
X104874Y-73580D01*
X105082Y-73568D01*
X105222Y-73510D01*
X105247Y-73418D01*
X105247Y-76950D01*
X102480Y-76950D01*
X102480Y-73126D01*
X102468Y-72918D01*
X102410Y-72778D01*
X102318Y-72753D01*
X102021Y-73050D01*
X102318Y-73347D01*
X102410Y-73322D01*
X102480Y-73126D01*
X102480Y-76950D01*
X102247Y-76950D01*
X102247Y-73418D01*
X101950Y-73121D01*
X101879Y-73192D01*
X101879Y-73050D01*
X101582Y-72753D01*
X101490Y-72778D01*
X101420Y-72974D01*
X101432Y-73182D01*
X101490Y-73322D01*
X101582Y-73347D01*
X101879Y-73050D01*
X101879Y-73192D01*
X101653Y-73418D01*
X101678Y-73510D01*
X101874Y-73580D01*
X102082Y-73568D01*
X102222Y-73510D01*
X102247Y-73418D01*
X102247Y-76950D01*
X100050Y-76950D01*
X100050Y-63050D01*
X116950Y-63050D01*
X116950Y-76950D01*
X116950Y-76950D01*
G37*
G54D22*
X116950Y-76950D02*
X116848Y-76950D01*
X116848Y-73250D01*
X116848Y-71800D01*
X116822Y-71667D01*
X116821Y-71666D01*
X116796Y-71629D01*
X116746Y-71554D01*
X116746Y-71553D01*
X116346Y-71154D01*
X116234Y-71078D01*
X116151Y-71062D01*
X116151Y-71061D01*
X116175Y-71005D01*
X116175Y-70796D01*
X116095Y-70603D01*
X115948Y-70455D01*
X115814Y-70399D01*
X115947Y-70345D01*
X116095Y-70198D01*
X116175Y-70005D01*
X116175Y-69796D01*
X116095Y-69603D01*
X115948Y-69455D01*
X115755Y-69375D01*
X115546Y-69375D01*
X115353Y-69455D01*
X115205Y-69602D01*
X115125Y-69795D01*
X115125Y-70004D01*
X115205Y-70197D01*
X115352Y-70345D01*
X115485Y-70400D01*
X115353Y-70455D01*
X115205Y-70602D01*
X115125Y-70795D01*
X115125Y-71004D01*
X115144Y-71052D01*
X113296Y-71052D01*
X113624Y-70725D01*
X113624Y-70724D01*
X113708Y-70599D01*
X113708Y-70598D01*
X113712Y-70573D01*
X113737Y-70450D01*
X113738Y-70450D01*
X113738Y-69250D01*
X113708Y-69102D01*
X113707Y-69101D01*
X113679Y-69059D01*
X113624Y-68976D01*
X113624Y-68975D01*
X113024Y-68376D01*
X112898Y-68292D01*
X112750Y-68262D01*
X112655Y-68262D01*
X112658Y-68261D01*
X112811Y-68108D01*
X112894Y-67908D01*
X112894Y-67692D01*
X112811Y-67492D01*
X112698Y-67379D01*
X112698Y-67300D01*
X112697Y-67299D01*
X112672Y-67167D01*
X112671Y-67166D01*
X112596Y-67054D01*
X112595Y-67053D01*
X111196Y-65654D01*
X111084Y-65578D01*
X110950Y-65552D01*
X107650Y-65552D01*
X107517Y-65578D01*
X107479Y-65603D01*
X107403Y-65654D01*
X106755Y-66302D01*
X105953Y-66302D01*
X105953Y-65229D01*
X105945Y-64932D01*
X105846Y-64693D01*
X105730Y-64640D01*
X105660Y-64710D01*
X105660Y-64570D01*
X105607Y-64454D01*
X105329Y-64347D01*
X105032Y-64355D01*
X104793Y-64454D01*
X104740Y-64570D01*
X105200Y-65029D01*
X105660Y-64570D01*
X105660Y-64710D01*
X105271Y-65100D01*
X105730Y-65560D01*
X105846Y-65507D01*
X105953Y-65229D01*
X105953Y-66302D01*
X105660Y-66302D01*
X105660Y-65630D01*
X105200Y-65171D01*
X105129Y-65241D01*
X105129Y-65100D01*
X104670Y-64640D01*
X104554Y-64693D01*
X104447Y-64971D01*
X104455Y-65268D01*
X104554Y-65507D01*
X104670Y-65560D01*
X105129Y-65100D01*
X105129Y-65241D01*
X104740Y-65630D01*
X104793Y-65746D01*
X105071Y-65853D01*
X105368Y-65845D01*
X105607Y-65746D01*
X105660Y-65630D01*
X105660Y-66302D01*
X104794Y-66302D01*
X103888Y-65395D01*
X103949Y-65250D01*
X103949Y-64952D01*
X103835Y-64677D01*
X103625Y-64466D01*
X103350Y-64351D01*
X103052Y-64351D01*
X102777Y-64465D01*
X102566Y-64675D01*
X102451Y-64950D01*
X102451Y-65248D01*
X102565Y-65523D01*
X102775Y-65734D01*
X103050Y-65849D01*
X103348Y-65849D01*
X103354Y-65846D01*
X104403Y-66896D01*
X104404Y-66896D01*
X104479Y-66946D01*
X104516Y-66971D01*
X104517Y-66972D01*
X104650Y-66998D01*
X106552Y-66998D01*
X106552Y-69110D01*
X106484Y-69139D01*
X106414Y-69209D01*
X106376Y-69300D01*
X106376Y-69399D01*
X106376Y-69552D01*
X105994Y-69552D01*
X105746Y-69304D01*
X105634Y-69228D01*
X105500Y-69202D01*
X105190Y-69202D01*
X105948Y-68444D01*
X106108Y-68444D01*
X106308Y-68361D01*
X106461Y-68208D01*
X106544Y-68008D01*
X106544Y-67792D01*
X106461Y-67592D01*
X106308Y-67439D01*
X106108Y-67356D01*
X105892Y-67356D01*
X105692Y-67439D01*
X105539Y-67592D01*
X105456Y-67792D01*
X105456Y-67952D01*
X104556Y-68852D01*
X102044Y-68852D01*
X101548Y-68356D01*
X101548Y-65849D01*
X101749Y-65849D01*
X101841Y-65811D01*
X101911Y-65741D01*
X101949Y-65650D01*
X101949Y-65551D01*
X101949Y-64551D01*
X101911Y-64459D01*
X101841Y-64389D01*
X101750Y-64351D01*
X101651Y-64351D01*
X100651Y-64351D01*
X100559Y-64389D01*
X100489Y-64459D01*
X100451Y-64550D01*
X100451Y-64649D01*
X100451Y-65649D01*
X100489Y-65741D01*
X100559Y-65811D01*
X100650Y-65849D01*
X100749Y-65849D01*
X100852Y-65849D01*
X100852Y-68500D01*
X100878Y-68634D01*
X100954Y-68746D01*
X101395Y-69187D01*
X100732Y-69851D01*
X100476Y-69851D01*
X100384Y-69889D01*
X100314Y-69959D01*
X100276Y-70050D01*
X100276Y-70149D01*
X100276Y-70499D01*
X100314Y-70591D01*
X100373Y-70650D01*
X100314Y-70709D01*
X100276Y-70800D01*
X100276Y-70899D01*
X100276Y-71249D01*
X100314Y-71341D01*
X100384Y-71411D01*
X100475Y-71449D01*
X100574Y-71449D01*
X101124Y-71449D01*
X101216Y-71411D01*
X101254Y-71373D01*
X101530Y-71373D01*
X101652Y-71495D01*
X101785Y-71550D01*
X101653Y-71605D01*
X101505Y-71752D01*
X101425Y-71945D01*
X101425Y-72154D01*
X101505Y-72347D01*
X101652Y-72495D01*
X101779Y-72547D01*
X101678Y-72590D01*
X101653Y-72682D01*
X101950Y-72979D01*
X102247Y-72682D01*
X102222Y-72590D01*
X102112Y-72550D01*
X102247Y-72495D01*
X102355Y-72387D01*
X102433Y-72372D01*
X102434Y-72372D01*
X102546Y-72296D01*
X103944Y-70898D01*
X104444Y-70898D01*
X104425Y-70945D01*
X104425Y-71154D01*
X104505Y-71347D01*
X104652Y-71495D01*
X104785Y-71550D01*
X104653Y-71605D01*
X104505Y-71752D01*
X104425Y-71945D01*
X104425Y-72154D01*
X104505Y-72347D01*
X104652Y-72495D01*
X104779Y-72547D01*
X104678Y-72590D01*
X104653Y-72682D01*
X104915Y-72944D01*
X104950Y-72979D01*
X105021Y-73050D01*
X105056Y-73085D01*
X105318Y-73347D01*
X105410Y-73322D01*
X105480Y-73126D01*
X105476Y-73068D01*
X105927Y-73519D01*
X105927Y-73696D01*
X105889Y-73734D01*
X105851Y-73825D01*
X105851Y-73924D01*
X105851Y-74474D01*
X105889Y-74566D01*
X105959Y-74636D01*
X106050Y-74674D01*
X106149Y-74674D01*
X106499Y-74674D01*
X106591Y-74636D01*
X106650Y-74577D01*
X106709Y-74636D01*
X106726Y-74643D01*
X106779Y-74721D01*
X107504Y-75446D01*
X107616Y-75522D01*
X107617Y-75522D01*
X107750Y-75548D01*
X107755Y-75548D01*
X107852Y-75645D01*
X108045Y-75725D01*
X108254Y-75725D01*
X108447Y-75645D01*
X108595Y-75498D01*
X108626Y-75423D01*
X108626Y-75524D01*
X108664Y-75616D01*
X108734Y-75686D01*
X108825Y-75724D01*
X108924Y-75724D01*
X109474Y-75724D01*
X109566Y-75686D01*
X109636Y-75616D01*
X109674Y-75525D01*
X109674Y-75426D01*
X109674Y-74876D01*
X109636Y-74784D01*
X109566Y-74714D01*
X109498Y-74685D01*
X109498Y-73594D01*
X109970Y-73121D01*
X110050Y-73138D01*
X110776Y-73138D01*
X110776Y-73299D01*
X110814Y-73391D01*
X110884Y-73461D01*
X110975Y-73499D01*
X111074Y-73499D01*
X111624Y-73499D01*
X111716Y-73461D01*
X111786Y-73391D01*
X111824Y-73300D01*
X111824Y-73201D01*
X111824Y-72851D01*
X111786Y-72759D01*
X111727Y-72700D01*
X111734Y-72693D01*
X112089Y-72693D01*
X112150Y-72734D01*
X112125Y-72795D01*
X112125Y-73004D01*
X112205Y-73197D01*
X112352Y-73345D01*
X112545Y-73425D01*
X112754Y-73425D01*
X112947Y-73345D01*
X113044Y-73248D01*
X113806Y-73248D01*
X114304Y-73746D01*
X114416Y-73821D01*
X114417Y-73822D01*
X114550Y-73848D01*
X116250Y-73848D01*
X116383Y-73822D01*
X116384Y-73822D01*
X116496Y-73746D01*
X116746Y-73496D01*
X116821Y-73384D01*
X116822Y-73383D01*
X116848Y-73250D01*
X116848Y-76950D01*
X105247Y-76950D01*
X105247Y-73418D01*
X104950Y-73121D01*
X104879Y-73192D01*
X104879Y-73050D01*
X104582Y-72753D01*
X104490Y-72778D01*
X104420Y-72974D01*
X104432Y-73182D01*
X104490Y-73322D01*
X104582Y-73347D01*
X104879Y-73050D01*
X104879Y-73192D01*
X104653Y-73418D01*
X104678Y-73510D01*
X104874Y-73580D01*
X105082Y-73568D01*
X105222Y-73510D01*
X105247Y-73418D01*
X105247Y-76950D01*
X102480Y-76950D01*
X102480Y-73126D01*
X102468Y-72918D01*
X102410Y-72778D01*
X102318Y-72753D01*
X102021Y-73050D01*
X102318Y-73347D01*
X102410Y-73322D01*
X102480Y-73126D01*
X102480Y-76950D01*
X102247Y-76950D01*
X102247Y-73418D01*
X101950Y-73121D01*
X101879Y-73192D01*
X101879Y-73050D01*
X101582Y-72753D01*
X101490Y-72778D01*
X101420Y-72974D01*
X101432Y-73182D01*
X101490Y-73322D01*
X101582Y-73347D01*
X101879Y-73050D01*
X101879Y-73192D01*
X101653Y-73418D01*
X101678Y-73510D01*
X101874Y-73580D01*
X102082Y-73568D01*
X102222Y-73510D01*
X102247Y-73418D01*
X102247Y-76950D01*
X100050Y-76950D01*
X100050Y-63050D01*
X116950Y-63050D01*
X116950Y-76950D01*
G54D10*
G36*
X112044Y-35262D02*
X112022Y-35262D01*
X112011Y-35234D01*
X111941Y-35164D01*
X111850Y-35126D01*
X111751Y-35126D01*
X111401Y-35126D01*
X111309Y-35164D01*
X111250Y-35223D01*
X111191Y-35164D01*
X111100Y-35126D01*
X111093Y-35126D01*
X111111Y-35108D01*
X111194Y-34908D01*
X111194Y-34692D01*
X111111Y-34492D01*
X110958Y-34339D01*
X110758Y-34256D01*
X110542Y-34256D01*
X110348Y-34336D01*
X110348Y-34314D01*
X110416Y-34286D01*
X110486Y-34216D01*
X110524Y-34125D01*
X110524Y-34026D01*
X110524Y-33476D01*
X110486Y-33384D01*
X110416Y-33314D01*
X110325Y-33276D01*
X110226Y-33276D01*
X109676Y-33276D01*
X109584Y-33314D01*
X109514Y-33384D01*
X109476Y-33475D01*
X109476Y-33566D01*
X109460Y-33528D01*
X109368Y-33503D01*
X109297Y-33574D01*
X109297Y-33432D01*
X109272Y-33340D01*
X109076Y-33270D01*
X108868Y-33282D01*
X108728Y-33340D01*
X108703Y-33432D01*
X109000Y-33729D01*
X109297Y-33432D01*
X109297Y-33574D01*
X109071Y-33800D01*
X109368Y-34097D01*
X109460Y-34072D01*
X109476Y-34027D01*
X109476Y-34124D01*
X109514Y-34216D01*
X109584Y-34286D01*
X109631Y-34306D01*
X109492Y-34306D01*
X109297Y-34386D01*
X109297Y-34168D01*
X109000Y-33871D01*
X108703Y-34168D01*
X108728Y-34260D01*
X108924Y-34330D01*
X109132Y-34318D01*
X109272Y-34260D01*
X109297Y-34168D01*
X109297Y-34386D01*
X109292Y-34389D01*
X109139Y-34542D01*
X109056Y-34742D01*
X109056Y-34958D01*
X109139Y-35158D01*
X109144Y-35163D01*
X109054Y-35254D01*
X108978Y-35366D01*
X108952Y-35500D01*
X108952Y-37950D01*
X108978Y-38084D01*
X109054Y-38196D01*
X109354Y-38496D01*
X109466Y-38572D01*
X109467Y-38572D01*
X109578Y-38593D01*
X109576Y-38601D01*
X109575Y-38638D01*
X109637Y-38700D01*
X109950Y-38700D01*
X110000Y-38700D01*
X110100Y-38700D01*
X110150Y-38700D01*
X110463Y-38700D01*
X110525Y-38638D01*
X111489Y-38638D01*
X111808Y-38957D01*
X111734Y-38957D01*
X111716Y-38939D01*
X111625Y-38901D01*
X111526Y-38901D01*
X110976Y-38901D01*
X110888Y-38937D01*
X110508Y-38937D01*
X110524Y-38899D01*
X110525Y-38862D01*
X110463Y-38800D01*
X110150Y-38800D01*
X110100Y-38800D01*
X110000Y-38800D01*
X109950Y-38800D01*
X109637Y-38800D01*
X109575Y-38862D01*
X109576Y-38899D01*
X109614Y-38991D01*
X109623Y-39000D01*
X109614Y-39009D01*
X109576Y-39100D01*
X109576Y-39199D01*
X109576Y-39399D01*
X109614Y-39491D01*
X109617Y-39494D01*
X109604Y-39504D01*
X109603Y-39504D01*
X109603Y-39505D01*
X108904Y-40204D01*
X108828Y-40316D01*
X108802Y-40450D01*
X108802Y-41685D01*
X108734Y-41714D01*
X108664Y-41784D01*
X108626Y-41875D01*
X108626Y-41974D01*
X108626Y-41977D01*
X108595Y-41903D01*
X108448Y-41755D01*
X108255Y-41675D01*
X108046Y-41675D01*
X107853Y-41755D01*
X107824Y-41782D01*
X107449Y-41407D01*
X107449Y-41376D01*
X107449Y-41218D01*
X108196Y-40471D01*
X108272Y-40359D01*
X108272Y-40358D01*
X108298Y-40225D01*
X108298Y-40068D01*
X108316Y-40061D01*
X108386Y-39991D01*
X108424Y-39900D01*
X108424Y-39801D01*
X108424Y-39601D01*
X108386Y-39509D01*
X108377Y-39500D01*
X108386Y-39491D01*
X108424Y-39400D01*
X108424Y-39301D01*
X108424Y-39101D01*
X108386Y-39009D01*
X108377Y-39000D01*
X108386Y-38991D01*
X108424Y-38899D01*
X108425Y-38862D01*
X108363Y-38800D01*
X108050Y-38800D01*
X108000Y-38800D01*
X107900Y-38800D01*
X107850Y-38800D01*
X107537Y-38800D01*
X107475Y-38862D01*
X107476Y-38899D01*
X107477Y-38902D01*
X107294Y-38902D01*
X107196Y-38804D01*
X107084Y-38728D01*
X106950Y-38702D01*
X105344Y-38702D01*
X105248Y-38605D01*
X105114Y-38549D01*
X105247Y-38495D01*
X105395Y-38348D01*
X105475Y-38155D01*
X105475Y-37946D01*
X105455Y-37898D01*
X105700Y-37898D01*
X105833Y-37872D01*
X105834Y-37872D01*
X105946Y-37796D01*
X106119Y-37623D01*
X106446Y-37623D01*
X106484Y-37661D01*
X106575Y-37699D01*
X106674Y-37699D01*
X107224Y-37699D01*
X107316Y-37661D01*
X107354Y-37623D01*
X107475Y-37623D01*
X107475Y-37638D01*
X107537Y-37700D01*
X107850Y-37700D01*
X107900Y-37700D01*
X108000Y-37700D01*
X108000Y-37800D01*
X107900Y-37800D01*
X107850Y-37800D01*
X107537Y-37800D01*
X107475Y-37862D01*
X107476Y-37899D01*
X107514Y-37991D01*
X107523Y-38000D01*
X107514Y-38009D01*
X107476Y-38100D01*
X107476Y-38199D01*
X107476Y-38399D01*
X107514Y-38491D01*
X107523Y-38500D01*
X107514Y-38509D01*
X107476Y-38601D01*
X107475Y-38638D01*
X107537Y-38700D01*
X107850Y-38700D01*
X107900Y-38700D01*
X108000Y-38700D01*
X108050Y-38700D01*
X108363Y-38700D01*
X108425Y-38638D01*
X108424Y-38601D01*
X108394Y-38530D01*
X108446Y-38496D01*
X108795Y-38147D01*
X108795Y-38146D01*
X108796Y-38146D01*
X108871Y-38034D01*
X108872Y-38033D01*
X108897Y-37901D01*
X108898Y-37900D01*
X108898Y-35500D01*
X108897Y-35499D01*
X108872Y-35367D01*
X108871Y-35366D01*
X108796Y-35254D01*
X108795Y-35253D01*
X108348Y-34806D01*
X108348Y-34194D01*
X108445Y-34098D01*
X108497Y-33970D01*
X108540Y-34072D01*
X108632Y-34097D01*
X108929Y-33800D01*
X108632Y-33503D01*
X108540Y-33528D01*
X108500Y-33637D01*
X108445Y-33503D01*
X108298Y-33355D01*
X108105Y-33275D01*
X107896Y-33275D01*
X107703Y-33355D01*
X107555Y-33502D01*
X107475Y-33695D01*
X107475Y-33904D01*
X107555Y-34097D01*
X107652Y-34194D01*
X107652Y-34950D01*
X107678Y-35084D01*
X107754Y-35196D01*
X108202Y-35644D01*
X108202Y-36401D01*
X108126Y-36401D01*
X107676Y-36401D01*
X107584Y-36439D01*
X107550Y-36472D01*
X107549Y-36473D01*
X107504Y-36504D01*
X107456Y-36552D01*
X107424Y-36552D01*
X107424Y-36301D01*
X107386Y-36209D01*
X107316Y-36139D01*
X107248Y-36110D01*
X107248Y-33794D01*
X107794Y-33248D01*
X110806Y-33248D01*
X111969Y-34411D01*
X111889Y-34492D01*
X111806Y-34692D01*
X111806Y-34908D01*
X111889Y-35108D01*
X112042Y-35261D01*
X112044Y-35262D01*
X112044Y-35262D01*
G37*
G54D22*
X112044Y-35262D02*
X112022Y-35262D01*
X112011Y-35234D01*
X111941Y-35164D01*
X111850Y-35126D01*
X111751Y-35126D01*
X111401Y-35126D01*
X111309Y-35164D01*
X111250Y-35223D01*
X111191Y-35164D01*
X111100Y-35126D01*
X111093Y-35126D01*
X111111Y-35108D01*
X111194Y-34908D01*
X111194Y-34692D01*
X111111Y-34492D01*
X110958Y-34339D01*
X110758Y-34256D01*
X110542Y-34256D01*
X110348Y-34336D01*
X110348Y-34314D01*
X110416Y-34286D01*
X110486Y-34216D01*
X110524Y-34125D01*
X110524Y-34026D01*
X110524Y-33476D01*
X110486Y-33384D01*
X110416Y-33314D01*
X110325Y-33276D01*
X110226Y-33276D01*
X109676Y-33276D01*
X109584Y-33314D01*
X109514Y-33384D01*
X109476Y-33475D01*
X109476Y-33566D01*
X109460Y-33528D01*
X109368Y-33503D01*
X109297Y-33574D01*
X109297Y-33432D01*
X109272Y-33340D01*
X109076Y-33270D01*
X108868Y-33282D01*
X108728Y-33340D01*
X108703Y-33432D01*
X109000Y-33729D01*
X109297Y-33432D01*
X109297Y-33574D01*
X109071Y-33800D01*
X109368Y-34097D01*
X109460Y-34072D01*
X109476Y-34027D01*
X109476Y-34124D01*
X109514Y-34216D01*
X109584Y-34286D01*
X109631Y-34306D01*
X109492Y-34306D01*
X109297Y-34386D01*
X109297Y-34168D01*
X109000Y-33871D01*
X108703Y-34168D01*
X108728Y-34260D01*
X108924Y-34330D01*
X109132Y-34318D01*
X109272Y-34260D01*
X109297Y-34168D01*
X109297Y-34386D01*
X109292Y-34389D01*
X109139Y-34542D01*
X109056Y-34742D01*
X109056Y-34958D01*
X109139Y-35158D01*
X109144Y-35163D01*
X109054Y-35254D01*
X108978Y-35366D01*
X108952Y-35500D01*
X108952Y-37950D01*
X108978Y-38084D01*
X109054Y-38196D01*
X109354Y-38496D01*
X109466Y-38572D01*
X109467Y-38572D01*
X109578Y-38593D01*
X109576Y-38601D01*
X109575Y-38638D01*
X109637Y-38700D01*
X109950Y-38700D01*
X110000Y-38700D01*
X110100Y-38700D01*
X110150Y-38700D01*
X110463Y-38700D01*
X110525Y-38638D01*
X111489Y-38638D01*
X111808Y-38957D01*
X111734Y-38957D01*
X111716Y-38939D01*
X111625Y-38901D01*
X111526Y-38901D01*
X110976Y-38901D01*
X110888Y-38937D01*
X110508Y-38937D01*
X110524Y-38899D01*
X110525Y-38862D01*
X110463Y-38800D01*
X110150Y-38800D01*
X110100Y-38800D01*
X110000Y-38800D01*
X109950Y-38800D01*
X109637Y-38800D01*
X109575Y-38862D01*
X109576Y-38899D01*
X109614Y-38991D01*
X109623Y-39000D01*
X109614Y-39009D01*
X109576Y-39100D01*
X109576Y-39199D01*
X109576Y-39399D01*
X109614Y-39491D01*
X109617Y-39494D01*
X109604Y-39504D01*
X109603Y-39504D01*
X109603Y-39505D01*
X108904Y-40204D01*
X108828Y-40316D01*
X108802Y-40450D01*
X108802Y-41685D01*
X108734Y-41714D01*
X108664Y-41784D01*
X108626Y-41875D01*
X108626Y-41974D01*
X108626Y-41977D01*
X108595Y-41903D01*
X108448Y-41755D01*
X108255Y-41675D01*
X108046Y-41675D01*
X107853Y-41755D01*
X107824Y-41782D01*
X107449Y-41407D01*
X107449Y-41376D01*
X107449Y-41218D01*
X108196Y-40471D01*
X108272Y-40359D01*
X108272Y-40358D01*
X108298Y-40225D01*
X108298Y-40068D01*
X108316Y-40061D01*
X108386Y-39991D01*
X108424Y-39900D01*
X108424Y-39801D01*
X108424Y-39601D01*
X108386Y-39509D01*
X108377Y-39500D01*
X108386Y-39491D01*
X108424Y-39400D01*
X108424Y-39301D01*
X108424Y-39101D01*
X108386Y-39009D01*
X108377Y-39000D01*
X108386Y-38991D01*
X108424Y-38899D01*
X108425Y-38862D01*
X108363Y-38800D01*
X108050Y-38800D01*
X108000Y-38800D01*
X107900Y-38800D01*
X107850Y-38800D01*
X107537Y-38800D01*
X107475Y-38862D01*
X107476Y-38899D01*
X107477Y-38902D01*
X107294Y-38902D01*
X107196Y-38804D01*
X107084Y-38728D01*
X106950Y-38702D01*
X105344Y-38702D01*
X105248Y-38605D01*
X105114Y-38549D01*
X105247Y-38495D01*
X105395Y-38348D01*
X105475Y-38155D01*
X105475Y-37946D01*
X105455Y-37898D01*
X105700Y-37898D01*
X105833Y-37872D01*
X105834Y-37872D01*
X105946Y-37796D01*
X106119Y-37623D01*
X106446Y-37623D01*
X106484Y-37661D01*
X106575Y-37699D01*
X106674Y-37699D01*
X107224Y-37699D01*
X107316Y-37661D01*
X107354Y-37623D01*
X107475Y-37623D01*
X107475Y-37638D01*
X107537Y-37700D01*
X107850Y-37700D01*
X107900Y-37700D01*
X108000Y-37700D01*
X108000Y-37800D01*
X107900Y-37800D01*
X107850Y-37800D01*
X107537Y-37800D01*
X107475Y-37862D01*
X107476Y-37899D01*
X107514Y-37991D01*
X107523Y-38000D01*
X107514Y-38009D01*
X107476Y-38100D01*
X107476Y-38199D01*
X107476Y-38399D01*
X107514Y-38491D01*
X107523Y-38500D01*
X107514Y-38509D01*
X107476Y-38601D01*
X107475Y-38638D01*
X107537Y-38700D01*
X107850Y-38700D01*
X107900Y-38700D01*
X108000Y-38700D01*
X108050Y-38700D01*
X108363Y-38700D01*
X108425Y-38638D01*
X108424Y-38601D01*
X108394Y-38530D01*
X108446Y-38496D01*
X108795Y-38147D01*
X108795Y-38146D01*
X108796Y-38146D01*
X108871Y-38034D01*
X108872Y-38033D01*
X108897Y-37901D01*
X108898Y-37900D01*
X108898Y-35500D01*
X108897Y-35499D01*
X108872Y-35367D01*
X108871Y-35366D01*
X108796Y-35254D01*
X108795Y-35253D01*
X108348Y-34806D01*
X108348Y-34194D01*
X108445Y-34098D01*
X108497Y-33970D01*
X108540Y-34072D01*
X108632Y-34097D01*
X108929Y-33800D01*
X108632Y-33503D01*
X108540Y-33528D01*
X108500Y-33637D01*
X108445Y-33503D01*
X108298Y-33355D01*
X108105Y-33275D01*
X107896Y-33275D01*
X107703Y-33355D01*
X107555Y-33502D01*
X107475Y-33695D01*
X107475Y-33904D01*
X107555Y-34097D01*
X107652Y-34194D01*
X107652Y-34950D01*
X107678Y-35084D01*
X107754Y-35196D01*
X108202Y-35644D01*
X108202Y-36401D01*
X108126Y-36401D01*
X107676Y-36401D01*
X107584Y-36439D01*
X107550Y-36472D01*
X107549Y-36473D01*
X107504Y-36504D01*
X107456Y-36552D01*
X107424Y-36552D01*
X107424Y-36301D01*
X107386Y-36209D01*
X107316Y-36139D01*
X107248Y-36110D01*
X107248Y-33794D01*
X107794Y-33248D01*
X110806Y-33248D01*
X111969Y-34411D01*
X111889Y-34492D01*
X111806Y-34692D01*
X111806Y-34908D01*
X111889Y-35108D01*
X112042Y-35261D01*
X112044Y-35262D01*
G54D10*
G36*
X112927Y-36376D02*
X112876Y-36376D01*
X112762Y-36375D01*
X112700Y-36437D01*
X112700Y-36800D01*
X112700Y-36850D01*
X112700Y-36950D01*
X112600Y-36950D01*
X112600Y-36850D01*
X112600Y-36437D01*
X112538Y-36375D01*
X112424Y-36376D01*
X112325Y-36376D01*
X112234Y-36414D01*
X112164Y-36484D01*
X112126Y-36576D01*
X112125Y-36788D01*
X112187Y-36850D01*
X112600Y-36850D01*
X112600Y-36950D01*
X112550Y-36950D01*
X112187Y-36950D01*
X112125Y-37012D01*
X112126Y-37224D01*
X112164Y-37316D01*
X112234Y-37386D01*
X112325Y-37424D01*
X112424Y-37424D01*
X112353Y-37455D01*
X112205Y-37602D01*
X112172Y-37679D01*
X112050Y-37557D01*
X112050Y-36712D01*
X111988Y-36650D01*
X111675Y-36650D01*
X111675Y-37063D01*
X111737Y-37125D01*
X111849Y-37124D01*
X111941Y-37086D01*
X112011Y-37016D01*
X112049Y-36925D01*
X112049Y-36826D01*
X112050Y-36712D01*
X112050Y-37557D01*
X111565Y-37072D01*
X111575Y-37063D01*
X111575Y-36700D01*
X111575Y-36650D01*
X111575Y-36550D01*
X111675Y-36550D01*
X111725Y-36550D01*
X111988Y-36550D01*
X112050Y-36488D01*
X112049Y-36374D01*
X112049Y-36275D01*
X112011Y-36184D01*
X111952Y-36125D01*
X112011Y-36066D01*
X112022Y-36038D01*
X112589Y-36038D01*
X112927Y-36376D01*
X112927Y-36376D01*
G37*
G54D22*
X112927Y-36376D02*
X112876Y-36376D01*
X112762Y-36375D01*
X112700Y-36437D01*
X112700Y-36800D01*
X112700Y-36850D01*
X112700Y-36950D01*
X112600Y-36950D01*
X112600Y-36850D01*
X112600Y-36437D01*
X112538Y-36375D01*
X112424Y-36376D01*
X112325Y-36376D01*
X112234Y-36414D01*
X112164Y-36484D01*
X112126Y-36576D01*
X112125Y-36788D01*
X112187Y-36850D01*
X112600Y-36850D01*
X112600Y-36950D01*
X112550Y-36950D01*
X112187Y-36950D01*
X112125Y-37012D01*
X112126Y-37224D01*
X112164Y-37316D01*
X112234Y-37386D01*
X112325Y-37424D01*
X112424Y-37424D01*
X112353Y-37455D01*
X112205Y-37602D01*
X112172Y-37679D01*
X112050Y-37557D01*
X112050Y-36712D01*
X111988Y-36650D01*
X111675Y-36650D01*
X111675Y-37063D01*
X111737Y-37125D01*
X111849Y-37124D01*
X111941Y-37086D01*
X112011Y-37016D01*
X112049Y-36925D01*
X112049Y-36826D01*
X112050Y-36712D01*
X112050Y-37557D01*
X111565Y-37072D01*
X111575Y-37063D01*
X111575Y-36700D01*
X111575Y-36650D01*
X111575Y-36550D01*
X111675Y-36550D01*
X111725Y-36550D01*
X111988Y-36550D01*
X112050Y-36488D01*
X112049Y-36374D01*
X112049Y-36275D01*
X112011Y-36184D01*
X111952Y-36125D01*
X112011Y-36066D01*
X112022Y-36038D01*
X112589Y-36038D01*
X112927Y-36376D01*
G54D10*
G36*
X116950Y-43950D02*
X116848Y-43950D01*
X116848Y-40250D01*
X116848Y-38800D01*
X116822Y-38667D01*
X116821Y-38666D01*
X116796Y-38629D01*
X116746Y-38554D01*
X116746Y-38553D01*
X116346Y-38154D01*
X116234Y-38078D01*
X116151Y-38062D01*
X116151Y-38061D01*
X116175Y-38005D01*
X116175Y-37796D01*
X116095Y-37603D01*
X115948Y-37455D01*
X115814Y-37399D01*
X115947Y-37345D01*
X116095Y-37198D01*
X116175Y-37005D01*
X116175Y-36796D01*
X116095Y-36603D01*
X115948Y-36455D01*
X115755Y-36375D01*
X115546Y-36375D01*
X115353Y-36455D01*
X115205Y-36602D01*
X115125Y-36795D01*
X115125Y-37004D01*
X115205Y-37197D01*
X115352Y-37345D01*
X115485Y-37400D01*
X115353Y-37455D01*
X115205Y-37602D01*
X115125Y-37795D01*
X115125Y-38004D01*
X115144Y-38052D01*
X113296Y-38052D01*
X113624Y-37725D01*
X113624Y-37724D01*
X113708Y-37599D01*
X113708Y-37598D01*
X113712Y-37573D01*
X113737Y-37450D01*
X113738Y-37450D01*
X113738Y-36250D01*
X113708Y-36102D01*
X113707Y-36101D01*
X113679Y-36059D01*
X113624Y-35976D01*
X113624Y-35975D01*
X113024Y-35376D01*
X112898Y-35292D01*
X112750Y-35262D01*
X112655Y-35262D01*
X112658Y-35261D01*
X112811Y-35108D01*
X112894Y-34908D01*
X112894Y-34692D01*
X112811Y-34492D01*
X112698Y-34379D01*
X112698Y-34300D01*
X112697Y-34299D01*
X112672Y-34167D01*
X112671Y-34166D01*
X112596Y-34054D01*
X112595Y-34053D01*
X111196Y-32654D01*
X111084Y-32578D01*
X110950Y-32552D01*
X107650Y-32552D01*
X107517Y-32578D01*
X107479Y-32603D01*
X107403Y-32654D01*
X106755Y-33302D01*
X105953Y-33302D01*
X105953Y-32229D01*
X105945Y-31932D01*
X105846Y-31693D01*
X105730Y-31640D01*
X105660Y-31710D01*
X105660Y-31570D01*
X105607Y-31454D01*
X105329Y-31347D01*
X105032Y-31355D01*
X104793Y-31454D01*
X104740Y-31570D01*
X105200Y-32029D01*
X105660Y-31570D01*
X105660Y-31710D01*
X105271Y-32100D01*
X105730Y-32560D01*
X105846Y-32507D01*
X105953Y-32229D01*
X105953Y-33302D01*
X105660Y-33302D01*
X105660Y-32630D01*
X105200Y-32171D01*
X105129Y-32241D01*
X105129Y-32100D01*
X104670Y-31640D01*
X104554Y-31693D01*
X104447Y-31971D01*
X104455Y-32268D01*
X104554Y-32507D01*
X104670Y-32560D01*
X105129Y-32100D01*
X105129Y-32241D01*
X104740Y-32630D01*
X104793Y-32746D01*
X105071Y-32853D01*
X105368Y-32845D01*
X105607Y-32746D01*
X105660Y-32630D01*
X105660Y-33302D01*
X104794Y-33302D01*
X103888Y-32395D01*
X103949Y-32250D01*
X103949Y-31952D01*
X103835Y-31677D01*
X103625Y-31466D01*
X103350Y-31351D01*
X103052Y-31351D01*
X102777Y-31465D01*
X102566Y-31675D01*
X102451Y-31950D01*
X102451Y-32248D01*
X102565Y-32523D01*
X102775Y-32734D01*
X103050Y-32849D01*
X103348Y-32849D01*
X103354Y-32846D01*
X104403Y-33896D01*
X104404Y-33896D01*
X104479Y-33946D01*
X104516Y-33971D01*
X104517Y-33972D01*
X104650Y-33998D01*
X106552Y-33998D01*
X106552Y-36110D01*
X106484Y-36139D01*
X106414Y-36209D01*
X106376Y-36300D01*
X106376Y-36399D01*
X106376Y-36552D01*
X105994Y-36552D01*
X105746Y-36304D01*
X105634Y-36228D01*
X105500Y-36202D01*
X105190Y-36202D01*
X105948Y-35444D01*
X106108Y-35444D01*
X106308Y-35361D01*
X106461Y-35208D01*
X106544Y-35008D01*
X106544Y-34792D01*
X106461Y-34592D01*
X106308Y-34439D01*
X106108Y-34356D01*
X105892Y-34356D01*
X105692Y-34439D01*
X105539Y-34592D01*
X105456Y-34792D01*
X105456Y-34952D01*
X104556Y-35852D01*
X102044Y-35852D01*
X101548Y-35356D01*
X101548Y-32849D01*
X101749Y-32849D01*
X101841Y-32811D01*
X101911Y-32741D01*
X101949Y-32650D01*
X101949Y-32551D01*
X101949Y-31551D01*
X101911Y-31459D01*
X101841Y-31389D01*
X101750Y-31351D01*
X101651Y-31351D01*
X100651Y-31351D01*
X100559Y-31389D01*
X100489Y-31459D01*
X100451Y-31550D01*
X100451Y-31649D01*
X100451Y-32649D01*
X100489Y-32741D01*
X100559Y-32811D01*
X100650Y-32849D01*
X100749Y-32849D01*
X100852Y-32849D01*
X100852Y-35500D01*
X100878Y-35634D01*
X100954Y-35746D01*
X101395Y-36187D01*
X100732Y-36851D01*
X100476Y-36851D01*
X100384Y-36889D01*
X100314Y-36959D01*
X100276Y-37050D01*
X100276Y-37149D01*
X100276Y-37499D01*
X100314Y-37591D01*
X100373Y-37650D01*
X100314Y-37709D01*
X100276Y-37800D01*
X100276Y-37899D01*
X100276Y-38249D01*
X100314Y-38341D01*
X100384Y-38411D01*
X100475Y-38449D01*
X100574Y-38449D01*
X101124Y-38449D01*
X101216Y-38411D01*
X101254Y-38373D01*
X101530Y-38373D01*
X101652Y-38495D01*
X101785Y-38550D01*
X101653Y-38605D01*
X101505Y-38752D01*
X101425Y-38945D01*
X101425Y-39154D01*
X101505Y-39347D01*
X101652Y-39495D01*
X101779Y-39547D01*
X101678Y-39590D01*
X101653Y-39682D01*
X101950Y-39979D01*
X102247Y-39682D01*
X102222Y-39590D01*
X102112Y-39550D01*
X102247Y-39495D01*
X102355Y-39387D01*
X102433Y-39372D01*
X102434Y-39372D01*
X102546Y-39296D01*
X103944Y-37898D01*
X104444Y-37898D01*
X104425Y-37945D01*
X104425Y-38154D01*
X104505Y-38347D01*
X104652Y-38495D01*
X104785Y-38550D01*
X104653Y-38605D01*
X104505Y-38752D01*
X104425Y-38945D01*
X104425Y-39154D01*
X104505Y-39347D01*
X104652Y-39495D01*
X104779Y-39547D01*
X104678Y-39590D01*
X104653Y-39682D01*
X104915Y-39944D01*
X104950Y-39979D01*
X105021Y-40050D01*
X105056Y-40085D01*
X105318Y-40347D01*
X105410Y-40322D01*
X105480Y-40126D01*
X105476Y-40068D01*
X105927Y-40519D01*
X105927Y-40696D01*
X105889Y-40734D01*
X105851Y-40825D01*
X105851Y-40924D01*
X105851Y-41474D01*
X105889Y-41566D01*
X105959Y-41636D01*
X106050Y-41674D01*
X106149Y-41674D01*
X106499Y-41674D01*
X106591Y-41636D01*
X106650Y-41577D01*
X106709Y-41636D01*
X106726Y-41643D01*
X106779Y-41721D01*
X107504Y-42446D01*
X107616Y-42522D01*
X107617Y-42522D01*
X107750Y-42548D01*
X107755Y-42548D01*
X107852Y-42645D01*
X108045Y-42725D01*
X108254Y-42725D01*
X108447Y-42645D01*
X108595Y-42498D01*
X108626Y-42423D01*
X108626Y-42524D01*
X108664Y-42616D01*
X108734Y-42686D01*
X108825Y-42724D01*
X108924Y-42724D01*
X109474Y-42724D01*
X109566Y-42686D01*
X109636Y-42616D01*
X109674Y-42525D01*
X109674Y-42426D01*
X109674Y-41876D01*
X109636Y-41784D01*
X109566Y-41714D01*
X109498Y-41685D01*
X109498Y-40594D01*
X109970Y-40121D01*
X110050Y-40138D01*
X110776Y-40138D01*
X110776Y-40299D01*
X110814Y-40391D01*
X110884Y-40461D01*
X110975Y-40499D01*
X111074Y-40499D01*
X111624Y-40499D01*
X111716Y-40461D01*
X111786Y-40391D01*
X111824Y-40300D01*
X111824Y-40201D01*
X111824Y-39851D01*
X111786Y-39759D01*
X111727Y-39700D01*
X111734Y-39693D01*
X112089Y-39693D01*
X112150Y-39734D01*
X112125Y-39795D01*
X112125Y-40004D01*
X112205Y-40197D01*
X112352Y-40345D01*
X112545Y-40425D01*
X112754Y-40425D01*
X112947Y-40345D01*
X113044Y-40248D01*
X113806Y-40248D01*
X114304Y-40746D01*
X114416Y-40821D01*
X114417Y-40822D01*
X114550Y-40848D01*
X116250Y-40848D01*
X116383Y-40822D01*
X116384Y-40822D01*
X116496Y-40746D01*
X116746Y-40496D01*
X116821Y-40384D01*
X116822Y-40383D01*
X116848Y-40250D01*
X116848Y-43950D01*
X105247Y-43950D01*
X105247Y-40418D01*
X104950Y-40121D01*
X104879Y-40192D01*
X104879Y-40050D01*
X104582Y-39753D01*
X104490Y-39778D01*
X104420Y-39974D01*
X104432Y-40182D01*
X104490Y-40322D01*
X104582Y-40347D01*
X104879Y-40050D01*
X104879Y-40192D01*
X104653Y-40418D01*
X104678Y-40510D01*
X104874Y-40580D01*
X105082Y-40568D01*
X105222Y-40510D01*
X105247Y-40418D01*
X105247Y-43950D01*
X102480Y-43950D01*
X102480Y-40126D01*
X102468Y-39918D01*
X102410Y-39778D01*
X102318Y-39753D01*
X102021Y-40050D01*
X102318Y-40347D01*
X102410Y-40322D01*
X102480Y-40126D01*
X102480Y-43950D01*
X102247Y-43950D01*
X102247Y-40418D01*
X101950Y-40121D01*
X101879Y-40192D01*
X101879Y-40050D01*
X101582Y-39753D01*
X101490Y-39778D01*
X101420Y-39974D01*
X101432Y-40182D01*
X101490Y-40322D01*
X101582Y-40347D01*
X101879Y-40050D01*
X101879Y-40192D01*
X101653Y-40418D01*
X101678Y-40510D01*
X101874Y-40580D01*
X102082Y-40568D01*
X102222Y-40510D01*
X102247Y-40418D01*
X102247Y-43950D01*
X100050Y-43950D01*
X100050Y-30050D01*
X116950Y-30050D01*
X116950Y-43950D01*
X116950Y-43950D01*
G37*
G54D22*
X116950Y-43950D02*
X116848Y-43950D01*
X116848Y-40250D01*
X116848Y-38800D01*
X116822Y-38667D01*
X116821Y-38666D01*
X116796Y-38629D01*
X116746Y-38554D01*
X116746Y-38553D01*
X116346Y-38154D01*
X116234Y-38078D01*
X116151Y-38062D01*
X116151Y-38061D01*
X116175Y-38005D01*
X116175Y-37796D01*
X116095Y-37603D01*
X115948Y-37455D01*
X115814Y-37399D01*
X115947Y-37345D01*
X116095Y-37198D01*
X116175Y-37005D01*
X116175Y-36796D01*
X116095Y-36603D01*
X115948Y-36455D01*
X115755Y-36375D01*
X115546Y-36375D01*
X115353Y-36455D01*
X115205Y-36602D01*
X115125Y-36795D01*
X115125Y-37004D01*
X115205Y-37197D01*
X115352Y-37345D01*
X115485Y-37400D01*
X115353Y-37455D01*
X115205Y-37602D01*
X115125Y-37795D01*
X115125Y-38004D01*
X115144Y-38052D01*
X113296Y-38052D01*
X113624Y-37725D01*
X113624Y-37724D01*
X113708Y-37599D01*
X113708Y-37598D01*
X113712Y-37573D01*
X113737Y-37450D01*
X113738Y-37450D01*
X113738Y-36250D01*
X113708Y-36102D01*
X113707Y-36101D01*
X113679Y-36059D01*
X113624Y-35976D01*
X113624Y-35975D01*
X113024Y-35376D01*
X112898Y-35292D01*
X112750Y-35262D01*
X112655Y-35262D01*
X112658Y-35261D01*
X112811Y-35108D01*
X112894Y-34908D01*
X112894Y-34692D01*
X112811Y-34492D01*
X112698Y-34379D01*
X112698Y-34300D01*
X112697Y-34299D01*
X112672Y-34167D01*
X112671Y-34166D01*
X112596Y-34054D01*
X112595Y-34053D01*
X111196Y-32654D01*
X111084Y-32578D01*
X110950Y-32552D01*
X107650Y-32552D01*
X107517Y-32578D01*
X107479Y-32603D01*
X107403Y-32654D01*
X106755Y-33302D01*
X105953Y-33302D01*
X105953Y-32229D01*
X105945Y-31932D01*
X105846Y-31693D01*
X105730Y-31640D01*
X105660Y-31710D01*
X105660Y-31570D01*
X105607Y-31454D01*
X105329Y-31347D01*
X105032Y-31355D01*
X104793Y-31454D01*
X104740Y-31570D01*
X105200Y-32029D01*
X105660Y-31570D01*
X105660Y-31710D01*
X105271Y-32100D01*
X105730Y-32560D01*
X105846Y-32507D01*
X105953Y-32229D01*
X105953Y-33302D01*
X105660Y-33302D01*
X105660Y-32630D01*
X105200Y-32171D01*
X105129Y-32241D01*
X105129Y-32100D01*
X104670Y-31640D01*
X104554Y-31693D01*
X104447Y-31971D01*
X104455Y-32268D01*
X104554Y-32507D01*
X104670Y-32560D01*
X105129Y-32100D01*
X105129Y-32241D01*
X104740Y-32630D01*
X104793Y-32746D01*
X105071Y-32853D01*
X105368Y-32845D01*
X105607Y-32746D01*
X105660Y-32630D01*
X105660Y-33302D01*
X104794Y-33302D01*
X103888Y-32395D01*
X103949Y-32250D01*
X103949Y-31952D01*
X103835Y-31677D01*
X103625Y-31466D01*
X103350Y-31351D01*
X103052Y-31351D01*
X102777Y-31465D01*
X102566Y-31675D01*
X102451Y-31950D01*
X102451Y-32248D01*
X102565Y-32523D01*
X102775Y-32734D01*
X103050Y-32849D01*
X103348Y-32849D01*
X103354Y-32846D01*
X104403Y-33896D01*
X104404Y-33896D01*
X104479Y-33946D01*
X104516Y-33971D01*
X104517Y-33972D01*
X104650Y-33998D01*
X106552Y-33998D01*
X106552Y-36110D01*
X106484Y-36139D01*
X106414Y-36209D01*
X106376Y-36300D01*
X106376Y-36399D01*
X106376Y-36552D01*
X105994Y-36552D01*
X105746Y-36304D01*
X105634Y-36228D01*
X105500Y-36202D01*
X105190Y-36202D01*
X105948Y-35444D01*
X106108Y-35444D01*
X106308Y-35361D01*
X106461Y-35208D01*
X106544Y-35008D01*
X106544Y-34792D01*
X106461Y-34592D01*
X106308Y-34439D01*
X106108Y-34356D01*
X105892Y-34356D01*
X105692Y-34439D01*
X105539Y-34592D01*
X105456Y-34792D01*
X105456Y-34952D01*
X104556Y-35852D01*
X102044Y-35852D01*
X101548Y-35356D01*
X101548Y-32849D01*
X101749Y-32849D01*
X101841Y-32811D01*
X101911Y-32741D01*
X101949Y-32650D01*
X101949Y-32551D01*
X101949Y-31551D01*
X101911Y-31459D01*
X101841Y-31389D01*
X101750Y-31351D01*
X101651Y-31351D01*
X100651Y-31351D01*
X100559Y-31389D01*
X100489Y-31459D01*
X100451Y-31550D01*
X100451Y-31649D01*
X100451Y-32649D01*
X100489Y-32741D01*
X100559Y-32811D01*
X100650Y-32849D01*
X100749Y-32849D01*
X100852Y-32849D01*
X100852Y-35500D01*
X100878Y-35634D01*
X100954Y-35746D01*
X101395Y-36187D01*
X100732Y-36851D01*
X100476Y-36851D01*
X100384Y-36889D01*
X100314Y-36959D01*
X100276Y-37050D01*
X100276Y-37149D01*
X100276Y-37499D01*
X100314Y-37591D01*
X100373Y-37650D01*
X100314Y-37709D01*
X100276Y-37800D01*
X100276Y-37899D01*
X100276Y-38249D01*
X100314Y-38341D01*
X100384Y-38411D01*
X100475Y-38449D01*
X100574Y-38449D01*
X101124Y-38449D01*
X101216Y-38411D01*
X101254Y-38373D01*
X101530Y-38373D01*
X101652Y-38495D01*
X101785Y-38550D01*
X101653Y-38605D01*
X101505Y-38752D01*
X101425Y-38945D01*
X101425Y-39154D01*
X101505Y-39347D01*
X101652Y-39495D01*
X101779Y-39547D01*
X101678Y-39590D01*
X101653Y-39682D01*
X101950Y-39979D01*
X102247Y-39682D01*
X102222Y-39590D01*
X102112Y-39550D01*
X102247Y-39495D01*
X102355Y-39387D01*
X102433Y-39372D01*
X102434Y-39372D01*
X102546Y-39296D01*
X103944Y-37898D01*
X104444Y-37898D01*
X104425Y-37945D01*
X104425Y-38154D01*
X104505Y-38347D01*
X104652Y-38495D01*
X104785Y-38550D01*
X104653Y-38605D01*
X104505Y-38752D01*
X104425Y-38945D01*
X104425Y-39154D01*
X104505Y-39347D01*
X104652Y-39495D01*
X104779Y-39547D01*
X104678Y-39590D01*
X104653Y-39682D01*
X104915Y-39944D01*
X104950Y-39979D01*
X105021Y-40050D01*
X105056Y-40085D01*
X105318Y-40347D01*
X105410Y-40322D01*
X105480Y-40126D01*
X105476Y-40068D01*
X105927Y-40519D01*
X105927Y-40696D01*
X105889Y-40734D01*
X105851Y-40825D01*
X105851Y-40924D01*
X105851Y-41474D01*
X105889Y-41566D01*
X105959Y-41636D01*
X106050Y-41674D01*
X106149Y-41674D01*
X106499Y-41674D01*
X106591Y-41636D01*
X106650Y-41577D01*
X106709Y-41636D01*
X106726Y-41643D01*
X106779Y-41721D01*
X107504Y-42446D01*
X107616Y-42522D01*
X107617Y-42522D01*
X107750Y-42548D01*
X107755Y-42548D01*
X107852Y-42645D01*
X108045Y-42725D01*
X108254Y-42725D01*
X108447Y-42645D01*
X108595Y-42498D01*
X108626Y-42423D01*
X108626Y-42524D01*
X108664Y-42616D01*
X108734Y-42686D01*
X108825Y-42724D01*
X108924Y-42724D01*
X109474Y-42724D01*
X109566Y-42686D01*
X109636Y-42616D01*
X109674Y-42525D01*
X109674Y-42426D01*
X109674Y-41876D01*
X109636Y-41784D01*
X109566Y-41714D01*
X109498Y-41685D01*
X109498Y-40594D01*
X109970Y-40121D01*
X110050Y-40138D01*
X110776Y-40138D01*
X110776Y-40299D01*
X110814Y-40391D01*
X110884Y-40461D01*
X110975Y-40499D01*
X111074Y-40499D01*
X111624Y-40499D01*
X111716Y-40461D01*
X111786Y-40391D01*
X111824Y-40300D01*
X111824Y-40201D01*
X111824Y-39851D01*
X111786Y-39759D01*
X111727Y-39700D01*
X111734Y-39693D01*
X112089Y-39693D01*
X112150Y-39734D01*
X112125Y-39795D01*
X112125Y-40004D01*
X112205Y-40197D01*
X112352Y-40345D01*
X112545Y-40425D01*
X112754Y-40425D01*
X112947Y-40345D01*
X113044Y-40248D01*
X113806Y-40248D01*
X114304Y-40746D01*
X114416Y-40821D01*
X114417Y-40822D01*
X114550Y-40848D01*
X116250Y-40848D01*
X116383Y-40822D01*
X116384Y-40822D01*
X116496Y-40746D01*
X116746Y-40496D01*
X116821Y-40384D01*
X116822Y-40383D01*
X116848Y-40250D01*
X116848Y-43950D01*
X105247Y-43950D01*
X105247Y-40418D01*
X104950Y-40121D01*
X104879Y-40192D01*
X104879Y-40050D01*
X104582Y-39753D01*
X104490Y-39778D01*
X104420Y-39974D01*
X104432Y-40182D01*
X104490Y-40322D01*
X104582Y-40347D01*
X104879Y-40050D01*
X104879Y-40192D01*
X104653Y-40418D01*
X104678Y-40510D01*
X104874Y-40580D01*
X105082Y-40568D01*
X105222Y-40510D01*
X105247Y-40418D01*
X105247Y-43950D01*
X102480Y-43950D01*
X102480Y-40126D01*
X102468Y-39918D01*
X102410Y-39778D01*
X102318Y-39753D01*
X102021Y-40050D01*
X102318Y-40347D01*
X102410Y-40322D01*
X102480Y-40126D01*
X102480Y-43950D01*
X102247Y-43950D01*
X102247Y-40418D01*
X101950Y-40121D01*
X101879Y-40192D01*
X101879Y-40050D01*
X101582Y-39753D01*
X101490Y-39778D01*
X101420Y-39974D01*
X101432Y-40182D01*
X101490Y-40322D01*
X101582Y-40347D01*
X101879Y-40050D01*
X101879Y-40192D01*
X101653Y-40418D01*
X101678Y-40510D01*
X101874Y-40580D01*
X102082Y-40568D01*
X102222Y-40510D01*
X102247Y-40418D01*
X102247Y-43950D01*
X100050Y-43950D01*
X100050Y-30050D01*
X116950Y-30050D01*
X116950Y-43950D01*
M02*
