G04 (created by PCBNEW (2013-mar-13)-testing) date Tue 16 Apr 2013 12:09:55 PM ART*
%MOIN*%
G04 Gerber Fmt 3.4, Leading zero omitted, Abs format*
%FSLAX34Y34*%
G01*
G70*
G90*
G04 APERTURE LIST*
%ADD10C,2.3622e-06*%
%ADD11C,0.1181*%
%ADD12C,0.16*%
%ADD13R,0.055X0.055*%
%ADD14C,0.055*%
%ADD15C,0.07*%
%ADD16R,0.09X0.062*%
%ADD17O,0.09X0.062*%
%ADD18C,0.19685*%
%ADD19R,0.1X0.1*%
%ADD20C,0.1*%
%ADD21R,0.06X0.06*%
%ADD22C,0.06*%
%ADD23C,0.4*%
%ADD24C,0.066*%
%ADD25C,0.035*%
%ADD26C,0.0787*%
%ADD27C,0.0197*%
%ADD28C,0.0394*%
G04 APERTURE END LIST*
G54D10*
G54D11*
X72550Y-56400D03*
X84050Y-56400D03*
G54D12*
X40550Y-105400D03*
X101000Y-105000D03*
G54D13*
X73812Y-80887D03*
G54D14*
X73812Y-79887D03*
X72812Y-79887D03*
G54D13*
X72387Y-87362D03*
G54D14*
X73387Y-87362D03*
X73387Y-86362D03*
G54D15*
X70000Y-72200D03*
X70000Y-76200D03*
X66750Y-72150D03*
X66750Y-76150D03*
G54D10*
G36*
X86119Y-57187D02*
X86119Y-55612D01*
X87694Y-55612D01*
X87694Y-57187D01*
X86119Y-57187D01*
X86119Y-57187D01*
G37*
G36*
X99505Y-57187D02*
X99505Y-55612D01*
X101080Y-55612D01*
X101080Y-57187D01*
X99505Y-57187D01*
X99505Y-57187D01*
G37*
G36*
X89269Y-57187D02*
X89269Y-55612D01*
X90844Y-55612D01*
X90844Y-57187D01*
X89269Y-57187D01*
X89269Y-57187D01*
G37*
G36*
X96355Y-57187D02*
X96355Y-55612D01*
X97930Y-55612D01*
X97930Y-57187D01*
X96355Y-57187D01*
X96355Y-57187D01*
G37*
G54D16*
X62875Y-99250D03*
G54D17*
X62875Y-100250D03*
X62875Y-101250D03*
X65875Y-101250D03*
X65875Y-100250D03*
X65875Y-99250D03*
G54D16*
X62850Y-93750D03*
G54D17*
X62850Y-94750D03*
X62850Y-95750D03*
X65850Y-95750D03*
X65850Y-94750D03*
X65850Y-93750D03*
G54D18*
X62331Y-52825D03*
X69024Y-52825D03*
X69024Y-59518D03*
X64693Y-59518D03*
G54D19*
X86212Y-86462D03*
G54D20*
X86212Y-84462D03*
X86212Y-82462D03*
G54D19*
X59075Y-97800D03*
G54D20*
X59075Y-99800D03*
X59075Y-101800D03*
G54D19*
X86175Y-93150D03*
G54D20*
X86175Y-95150D03*
G54D19*
X86125Y-97475D03*
G54D20*
X86125Y-99475D03*
G54D19*
X86175Y-101750D03*
G54D20*
X86175Y-103750D03*
G54D12*
X60350Y-72125D03*
X80255Y-72205D03*
G54D13*
X65750Y-85775D03*
G54D14*
X65750Y-84775D03*
X65750Y-83775D03*
X65750Y-82775D03*
X62750Y-82775D03*
X62750Y-83775D03*
X62750Y-84775D03*
X62750Y-85775D03*
G54D13*
X65700Y-90700D03*
G54D14*
X65700Y-89700D03*
X65700Y-88700D03*
X65700Y-87700D03*
X62700Y-87700D03*
X62700Y-88700D03*
X62700Y-89700D03*
X62700Y-90700D03*
G54D21*
X58975Y-92375D03*
G54D22*
X59975Y-92375D03*
X58975Y-93375D03*
X59975Y-93375D03*
X58975Y-94375D03*
X59975Y-94375D03*
X58975Y-95375D03*
X59975Y-95375D03*
G54D23*
X59600Y-42775D03*
X71400Y-42775D03*
X97025Y-42700D03*
X85225Y-42700D03*
G54D12*
X47875Y-41475D03*
G54D19*
X86200Y-90950D03*
G54D20*
X86200Y-88950D03*
G54D12*
X41000Y-37000D03*
G54D24*
X71690Y-84645D03*
X70690Y-84645D03*
X71685Y-81895D03*
X70685Y-81895D03*
X60370Y-90350D03*
X61370Y-90350D03*
G54D25*
X62835Y-97005D03*
X57975Y-96240D03*
G54D26*
X73000Y-85525D03*
X71400Y-89850D03*
X69300Y-85525D03*
X65800Y-81700D03*
X70550Y-87000D03*
X75000Y-82650D03*
X79875Y-102650D03*
X79900Y-96575D03*
X75337Y-84162D03*
X81237Y-81262D03*
X70025Y-78475D03*
X69550Y-89075D03*
G54D27*
X58740Y-97005D02*
X62835Y-97005D01*
X57975Y-96240D02*
X58740Y-97005D01*
X71425Y-87100D02*
X73000Y-85525D01*
X71425Y-89825D02*
X71425Y-87100D01*
X71400Y-89850D02*
X71425Y-89825D01*
X69300Y-83650D02*
X69300Y-85525D01*
X68425Y-82775D02*
X69300Y-83650D01*
X66875Y-82775D02*
X68425Y-82775D01*
X65800Y-81700D02*
X66875Y-82775D01*
X70650Y-87000D02*
X70550Y-87000D01*
X75000Y-82650D02*
X70650Y-87000D01*
G54D28*
X79875Y-96600D02*
X79875Y-102650D01*
X79900Y-96575D02*
X79875Y-96600D01*
X78337Y-84162D02*
X75337Y-84162D01*
X81237Y-81262D02*
X78337Y-84162D01*
G54D27*
X69900Y-78600D02*
X70025Y-78475D01*
X69900Y-88725D02*
X69900Y-78600D01*
X69550Y-89075D02*
X69900Y-88725D01*
M02*
