G04 (created by PCBNEW (2013-mar-13)-testing) date mar 28 may 2013 16:21:24 ART*
%MOIN*%
G04 Gerber Fmt 3.4, Leading zero omitted, Abs format*
%FSLAX34Y34*%
G01*
G70*
G90*
G04 APERTURE LIST*
%ADD10C,0.005000*%
%ADD11C,0.015000*%
%ADD12C,0.007874*%
%ADD13C,0.011811*%
G04 APERTURE END LIST*
G54D10*
G54D11*
X17000Y-25000D02*
X50000Y-25000D01*
X17000Y-62000D02*
X17000Y-25000D01*
X50000Y-62000D02*
X17000Y-62000D01*
X50000Y-25000D02*
X50000Y-62000D01*
X109000Y-73000D02*
X108000Y-73000D01*
X109000Y-10000D02*
X109000Y-73000D01*
X68000Y-10000D02*
X109000Y-10000D01*
X68000Y-73000D02*
X68000Y-10000D01*
X108000Y-73000D02*
X68000Y-73000D01*
G54D12*
X27630Y-32256D02*
X27880Y-32506D01*
X27880Y-32256D02*
X27630Y-32506D01*
X27630Y-34914D02*
X27880Y-35164D01*
X27880Y-34914D02*
X27630Y-35164D01*
X33615Y-35189D02*
X33865Y-35439D01*
X33865Y-35189D02*
X33615Y-35439D01*
X36292Y-30780D02*
X36542Y-31030D01*
X36542Y-30780D02*
X36292Y-31030D01*
X36390Y-27040D02*
X36640Y-27290D01*
X36640Y-27040D02*
X36390Y-27290D01*
X37178Y-27040D02*
X37428Y-27290D01*
X37428Y-27040D02*
X37178Y-27290D01*
X38162Y-27138D02*
X38412Y-27388D01*
X38412Y-27138D02*
X38162Y-27388D01*
X38457Y-34815D02*
X38707Y-35065D01*
X38707Y-34815D02*
X38457Y-35065D01*
X41804Y-27434D02*
X42054Y-27684D01*
X42054Y-27434D02*
X41804Y-27684D01*
X24499Y-31741D02*
G75*
G03X24499Y-31741I-159J0D01*
G74*
G01*
X24499Y-34741D02*
G75*
G03X24499Y-34741I-159J0D01*
G74*
G01*
X25499Y-31741D02*
G75*
G03X25499Y-31741I-159J0D01*
G74*
G01*
X25499Y-34741D02*
G75*
G03X25499Y-34741I-159J0D01*
G74*
G01*
X26499Y-31741D02*
G75*
G03X26499Y-31741I-159J0D01*
G74*
G01*
X26499Y-34741D02*
G75*
G03X26499Y-34741I-159J0D01*
G74*
G01*
X29999Y-31716D02*
G75*
G03X29999Y-31716I-159J0D01*
G74*
G01*
X29999Y-34716D02*
G75*
G03X29999Y-34716I-159J0D01*
G74*
G01*
X30999Y-31716D02*
G75*
G03X30999Y-31716I-159J0D01*
G74*
G01*
X30999Y-34716D02*
G75*
G03X30999Y-34716I-159J0D01*
G74*
G01*
X31999Y-31716D02*
G75*
G03X31999Y-31716I-159J0D01*
G74*
G01*
X31999Y-34716D02*
G75*
G03X31999Y-34716I-159J0D01*
G74*
G01*
X35049Y-31566D02*
G75*
G03X35049Y-31566I-159J0D01*
G74*
G01*
X35049Y-34566D02*
G75*
G03X35049Y-34566I-159J0D01*
G74*
G01*
X36049Y-31566D02*
G75*
G03X36049Y-31566I-159J0D01*
G74*
G01*
X36049Y-34566D02*
G75*
G03X36049Y-34566I-159J0D01*
G74*
G01*
X37049Y-31566D02*
G75*
G03X37049Y-31566I-159J0D01*
G74*
G01*
X37049Y-34566D02*
G75*
G03X37049Y-34566I-159J0D01*
G74*
G01*
X38049Y-31566D02*
G75*
G03X38049Y-31566I-159J0D01*
G74*
G01*
X38049Y-34566D02*
G75*
G03X38049Y-34566I-159J0D01*
G74*
G01*
X38387Y-41253D02*
G75*
G03X38387Y-41253I-159J0D01*
G74*
G01*
X38387Y-42253D02*
G75*
G03X38387Y-42253I-159J0D01*
G74*
G01*
X39387Y-42253D02*
G75*
G03X39387Y-42253I-159J0D01*
G74*
G01*
X39974Y-31616D02*
G75*
G03X39974Y-31616I-159J0D01*
G74*
G01*
X39974Y-34616D02*
G75*
G03X39974Y-34616I-159J0D01*
G74*
G01*
X40974Y-31616D02*
G75*
G03X40974Y-31616I-159J0D01*
G74*
G01*
X40974Y-34616D02*
G75*
G03X40974Y-34616I-159J0D01*
G74*
G01*
X41974Y-31616D02*
G75*
G03X41974Y-31616I-159J0D01*
G74*
G01*
X41974Y-34616D02*
G75*
G03X41974Y-34616I-159J0D01*
G74*
G01*
X42974Y-31616D02*
G75*
G03X42974Y-31616I-159J0D01*
G74*
G01*
X42974Y-34616D02*
G75*
G03X42974Y-34616I-159J0D01*
G74*
G01*
X44862Y-42678D02*
G75*
G03X44862Y-42678I-159J0D01*
G74*
G01*
X45862Y-41678D02*
G75*
G03X45862Y-41678I-159J0D01*
G74*
G01*
X45862Y-42678D02*
G75*
G03X45862Y-42678I-159J0D01*
G74*
G01*
X76159Y-44000D02*
G75*
G03X76159Y-44000I-159J0D01*
G74*
G01*
X76159Y-48000D02*
G75*
G03X76159Y-48000I-159J0D01*
G74*
G01*
X80334Y-14280D02*
G75*
G03X80334Y-14280I-159J0D01*
G74*
G01*
X84334Y-14280D02*
G75*
G03X84334Y-14280I-159J0D01*
G74*
G01*
X35240Y-29076D02*
X35240Y-29396D01*
X35080Y-29236D02*
X35400Y-29236D01*
X35240Y-30076D02*
X35240Y-30396D01*
X35080Y-30236D02*
X35400Y-30236D01*
X40945Y-39396D02*
X40945Y-39716D01*
X40785Y-39556D02*
X41105Y-39556D01*
X40945Y-40396D02*
X40945Y-40716D01*
X40785Y-40556D02*
X41105Y-40556D01*
X43695Y-39391D02*
X43695Y-39711D01*
X43535Y-39551D02*
X43855Y-39551D01*
X43695Y-40391D02*
X43695Y-40711D01*
X43535Y-40551D02*
X43855Y-40551D01*
X76000Y-29840D02*
X76000Y-30160D01*
X75840Y-30000D02*
X76160Y-30000D01*
X76000Y-33840D02*
X76000Y-34160D01*
X75840Y-34000D02*
X76160Y-34000D01*
X76000Y-35840D02*
X76000Y-36160D01*
X75840Y-36000D02*
X76160Y-36000D01*
X76000Y-39840D02*
X76000Y-40160D01*
X75840Y-40000D02*
X76160Y-40000D01*
X28505Y-31792D02*
X28505Y-31514D01*
X28226Y-31514D01*
X28226Y-31792D01*
X28505Y-31792D01*
X29470Y-27029D02*
X29470Y-26750D01*
X29191Y-26750D01*
X29191Y-27029D01*
X29470Y-27029D01*
X35879Y-40405D02*
X35879Y-40126D01*
X35600Y-40126D01*
X35600Y-40405D01*
X35879Y-40405D01*
X36595Y-38052D02*
X36595Y-37774D01*
X36317Y-37774D01*
X36317Y-38052D01*
X36595Y-38052D01*
X38662Y-39391D02*
X38662Y-39112D01*
X38384Y-39112D01*
X38384Y-39391D01*
X38662Y-39391D01*
X40204Y-42005D02*
X40204Y-41726D01*
X39925Y-41726D01*
X39925Y-42005D01*
X40204Y-42005D01*
X41509Y-49489D02*
X41509Y-49210D01*
X41230Y-49210D01*
X41230Y-49489D01*
X41509Y-49489D01*
X42698Y-43702D02*
X42698Y-43423D01*
X42419Y-43423D01*
X42419Y-43702D01*
X42698Y-43702D01*
X44784Y-38308D02*
X44784Y-38029D01*
X44506Y-38029D01*
X44506Y-38308D01*
X44784Y-38308D01*
X44804Y-34981D02*
X44804Y-34703D01*
X44526Y-34703D01*
X44526Y-34981D01*
X44804Y-34981D01*
X45484Y-55534D02*
X45484Y-55255D01*
X45205Y-55255D01*
X45205Y-55534D01*
X45484Y-55534D01*
X89129Y-39555D02*
X89129Y-39276D01*
X88850Y-39276D01*
X88850Y-39555D01*
X89129Y-39555D01*
X89129Y-51055D02*
X89129Y-50776D01*
X88850Y-50776D01*
X88850Y-51055D01*
X89129Y-51055D01*
X30215Y-28041D02*
X30415Y-27841D01*
X30215Y-27641D01*
X30015Y-27841D01*
X30215Y-28041D01*
X30215Y-29041D02*
X30415Y-28841D01*
X30215Y-28641D01*
X30015Y-28841D01*
X30215Y-29041D01*
X31215Y-28041D02*
X31415Y-27841D01*
X31215Y-27641D01*
X31015Y-27841D01*
X31215Y-28041D01*
X31215Y-29041D02*
X31415Y-28841D01*
X31215Y-28641D01*
X31015Y-28841D01*
X31215Y-29041D01*
X32215Y-28041D02*
X32415Y-27841D01*
X32215Y-27641D01*
X32015Y-27841D01*
X32215Y-28041D01*
X32215Y-29041D02*
X32415Y-28841D01*
X32215Y-28641D01*
X32015Y-28841D01*
X32215Y-29041D01*
X33215Y-28041D02*
X33415Y-27841D01*
X33215Y-27641D01*
X33015Y-27841D01*
X33215Y-28041D01*
X33215Y-29041D02*
X33415Y-28841D01*
X33215Y-28641D01*
X33015Y-28841D01*
X33215Y-29041D01*
X85655Y-31343D02*
X86088Y-31776D01*
X86088Y-31343D02*
X85655Y-31776D01*
X86088Y-31559D02*
G75*
G03X86088Y-31559I-216J0D01*
G74*
G01*
X85655Y-35674D02*
X86088Y-36107D01*
X86088Y-35674D02*
X85655Y-36107D01*
X86088Y-35890D02*
G75*
G03X86088Y-35890I-216J0D01*
G74*
G01*
X92348Y-28981D02*
X92781Y-29414D01*
X92781Y-28981D02*
X92348Y-29414D01*
X92781Y-29197D02*
G75*
G03X92781Y-29197I-216J0D01*
G74*
G01*
X92348Y-35674D02*
X92781Y-36107D01*
X92781Y-35674D02*
X92348Y-36107D01*
X92781Y-35890D02*
G75*
G03X92781Y-35890I-216J0D01*
G74*
G01*
X21022Y-58794D02*
X21622Y-59394D01*
X21622Y-58794D02*
X21022Y-59394D01*
X21322Y-58794D02*
X21322Y-59394D01*
X21022Y-59094D02*
X21622Y-59094D01*
X23022Y-58794D02*
X23622Y-59394D01*
X23622Y-58794D02*
X23022Y-59394D01*
X23322Y-58794D02*
X23322Y-59394D01*
X23022Y-59094D02*
X23622Y-59094D01*
X23490Y-27641D02*
X24090Y-28241D01*
X24090Y-27641D02*
X23490Y-28241D01*
X23790Y-27641D02*
X23790Y-28241D01*
X23490Y-27941D02*
X24090Y-27941D01*
X25353Y-58794D02*
X25953Y-59394D01*
X25953Y-58794D02*
X25353Y-59394D01*
X25653Y-58794D02*
X25653Y-59394D01*
X25353Y-59094D02*
X25953Y-59094D01*
X25490Y-27641D02*
X26090Y-28241D01*
X26090Y-27641D02*
X25490Y-28241D01*
X25790Y-27641D02*
X25790Y-28241D01*
X25490Y-27941D02*
X26090Y-27941D01*
X27353Y-58794D02*
X27953Y-59394D01*
X27953Y-58794D02*
X27353Y-59394D01*
X27653Y-58794D02*
X27653Y-59394D01*
X27353Y-59094D02*
X27953Y-59094D01*
X27490Y-27641D02*
X28090Y-28241D01*
X28090Y-27641D02*
X27490Y-28241D01*
X27790Y-27641D02*
X27790Y-28241D01*
X27490Y-27941D02*
X28090Y-27941D01*
X30190Y-58851D02*
X30790Y-59451D01*
X30790Y-58851D02*
X30190Y-59451D01*
X30490Y-58851D02*
X30490Y-59451D01*
X30190Y-59151D02*
X30790Y-59151D01*
X32190Y-58851D02*
X32790Y-59451D01*
X32790Y-58851D02*
X32190Y-59451D01*
X32490Y-58851D02*
X32490Y-59451D01*
X32190Y-59151D02*
X32790Y-59151D01*
X34390Y-58876D02*
X34990Y-59476D01*
X34990Y-58876D02*
X34390Y-59476D01*
X34690Y-58876D02*
X34690Y-59476D01*
X34390Y-59176D02*
X34990Y-59176D01*
X36390Y-58876D02*
X36990Y-59476D01*
X36990Y-58876D02*
X36390Y-59476D01*
X36690Y-58876D02*
X36690Y-59476D01*
X36390Y-59176D02*
X36990Y-59176D01*
X38877Y-58888D02*
X39477Y-59488D01*
X39477Y-58888D02*
X38877Y-59488D01*
X39177Y-58888D02*
X39177Y-59488D01*
X38877Y-59188D02*
X39477Y-59188D01*
X40877Y-58888D02*
X41477Y-59488D01*
X41477Y-58888D02*
X40877Y-59488D01*
X41177Y-58888D02*
X41177Y-59488D01*
X40877Y-59188D02*
X41477Y-59188D01*
X42877Y-58888D02*
X43477Y-59488D01*
X43477Y-58888D02*
X42877Y-59488D01*
X43177Y-58888D02*
X43177Y-59488D01*
X42877Y-59188D02*
X43477Y-59188D01*
X47200Y-35000D02*
X47800Y-35600D01*
X47800Y-35000D02*
X47200Y-35600D01*
X47500Y-35000D02*
X47500Y-35600D01*
X47200Y-35300D02*
X47800Y-35300D01*
X47200Y-37000D02*
X47800Y-37600D01*
X47800Y-37000D02*
X47200Y-37600D01*
X47500Y-37000D02*
X47500Y-37600D01*
X47200Y-37300D02*
X47800Y-37300D01*
X47200Y-39000D02*
X47800Y-39600D01*
X47800Y-39000D02*
X47200Y-39600D01*
X47500Y-39000D02*
X47500Y-39600D01*
X47200Y-39300D02*
X47800Y-39300D01*
X73400Y-32600D02*
X74000Y-33200D01*
X74000Y-32600D02*
X73400Y-33200D01*
X73700Y-32600D02*
X73700Y-33200D01*
X73400Y-32900D02*
X74000Y-32900D01*
X73400Y-34600D02*
X74000Y-35200D01*
X74000Y-34600D02*
X73400Y-35200D01*
X73700Y-34600D02*
X73700Y-35200D01*
X73400Y-34900D02*
X74000Y-34900D01*
X73400Y-36600D02*
X74000Y-37200D01*
X74000Y-36600D02*
X73400Y-37200D01*
X73700Y-36600D02*
X73700Y-37200D01*
X73400Y-36900D02*
X74000Y-36900D01*
X88399Y-53182D02*
X89580Y-54363D01*
X89580Y-53182D02*
X88399Y-54363D01*
X89407Y-54190D02*
X89407Y-53355D01*
X88572Y-53355D01*
X88572Y-54190D01*
X89407Y-54190D01*
X88399Y-56332D02*
X89580Y-57513D01*
X89580Y-56332D02*
X88399Y-57513D01*
X89407Y-57340D02*
X89407Y-56505D01*
X88572Y-56505D01*
X88572Y-57340D01*
X89407Y-57340D01*
X88399Y-63418D02*
X89580Y-64599D01*
X89580Y-63418D02*
X88399Y-64599D01*
X89407Y-64426D02*
X89407Y-63591D01*
X88572Y-63591D01*
X88572Y-64426D01*
X89407Y-64426D01*
X88399Y-66568D02*
X89580Y-67749D01*
X89580Y-66568D02*
X88399Y-67749D01*
X89407Y-67576D02*
X89407Y-66741D01*
X88572Y-66741D01*
X88572Y-67576D01*
X89407Y-67576D01*
X18400Y-26400D02*
X19600Y-27600D01*
X19600Y-26400D02*
X18400Y-27600D01*
X19000Y-27600D02*
X19600Y-27000D01*
X19000Y-26400D01*
X18400Y-27000D01*
X19000Y-27600D01*
X18400Y-59400D02*
X19600Y-60600D01*
X19600Y-59400D02*
X18400Y-60600D01*
X19000Y-60600D02*
X19600Y-60000D01*
X19000Y-59400D01*
X18400Y-60000D01*
X19000Y-60600D01*
X47400Y-26400D02*
X48600Y-27600D01*
X48600Y-26400D02*
X47400Y-27600D01*
X48000Y-27600D02*
X48600Y-27000D01*
X48000Y-26400D01*
X47400Y-27000D01*
X48000Y-27600D01*
X47400Y-59400D02*
X48600Y-60600D01*
X48600Y-59400D02*
X47400Y-60600D01*
X48000Y-60600D02*
X48600Y-60000D01*
X48000Y-59400D01*
X47400Y-60000D01*
X48000Y-60600D01*
X69400Y-70400D02*
X70600Y-71600D01*
X70600Y-70400D02*
X69400Y-71600D01*
X70000Y-71600D02*
X70600Y-71000D01*
X70000Y-70400D01*
X69400Y-71000D01*
X70000Y-71600D01*
X70800Y-10900D02*
X72000Y-12100D01*
X72000Y-10900D02*
X70800Y-12100D01*
X71400Y-12100D02*
X72000Y-11500D01*
X71400Y-10900D01*
X70800Y-11500D01*
X71400Y-12100D01*
X75400Y-50400D02*
X76600Y-51600D01*
X76600Y-50400D02*
X75400Y-51600D01*
X76000Y-51600D02*
X76600Y-51000D01*
X76000Y-50400D01*
X75400Y-51000D01*
X76000Y-51600D01*
X87775Y-13610D02*
X88975Y-14810D01*
X88975Y-13610D02*
X87775Y-14810D01*
X88375Y-14810D02*
X88975Y-14210D01*
X88375Y-13610D01*
X87775Y-14210D01*
X88375Y-14810D01*
X102190Y-13566D02*
X103390Y-14766D01*
X103390Y-13566D02*
X102190Y-14766D01*
X102790Y-14766D02*
X103390Y-14166D01*
X102790Y-13566D01*
X102190Y-14166D01*
X102790Y-14766D01*
X106400Y-70400D02*
X107600Y-71600D01*
X107600Y-70400D02*
X106400Y-71600D01*
X107000Y-71600D02*
X107600Y-71000D01*
X107000Y-70400D01*
X106400Y-71000D01*
X107000Y-71600D01*
X106500Y-10900D02*
X107700Y-12100D01*
X107700Y-10900D02*
X106500Y-12100D01*
X107100Y-12100D02*
X107700Y-11500D01*
X107100Y-10900D01*
X106500Y-11500D01*
X107100Y-12100D01*
X102615Y-25266D02*
X102615Y-27666D01*
X101415Y-26466D02*
X103815Y-26466D01*
X103815Y-26466D02*
G75*
G03X103815Y-26466I-1200J0D01*
G74*
G01*
X102615Y-37066D02*
X102615Y-39466D01*
X101415Y-38266D02*
X103815Y-38266D01*
X103815Y-38266D02*
G75*
G03X103815Y-38266I-1200J0D01*
G74*
G01*
X102690Y-50891D02*
X102690Y-53291D01*
X101490Y-52091D02*
X103890Y-52091D01*
X103890Y-52091D02*
G75*
G03X103890Y-52091I-1200J0D01*
G74*
G01*
X102690Y-62691D02*
X102690Y-65091D01*
X101490Y-63891D02*
X103890Y-63891D01*
X103890Y-63891D02*
G75*
G03X103890Y-63891I-1200J0D01*
G74*
G01*
G54D13*
X17993Y-74908D02*
X17993Y-73727D01*
X18274Y-73727D01*
X18443Y-73783D01*
X18556Y-73896D01*
X18612Y-74008D01*
X18668Y-74233D01*
X18668Y-74402D01*
X18612Y-74627D01*
X18556Y-74739D01*
X18443Y-74852D01*
X18274Y-74908D01*
X17993Y-74908D01*
X19174Y-74908D02*
X19174Y-74121D01*
X19174Y-74346D02*
X19230Y-74233D01*
X19287Y-74177D01*
X19399Y-74121D01*
X19512Y-74121D01*
X19905Y-74908D02*
X19905Y-74121D01*
X19905Y-73727D02*
X19849Y-73783D01*
X19905Y-73839D01*
X19962Y-73783D01*
X19905Y-73727D01*
X19905Y-73839D01*
X20637Y-74908D02*
X20524Y-74852D01*
X20468Y-74739D01*
X20468Y-73727D01*
X21255Y-74908D02*
X21143Y-74852D01*
X21086Y-74739D01*
X21086Y-73727D01*
X22605Y-74908D02*
X22605Y-73727D01*
X22999Y-74571D01*
X23392Y-73727D01*
X23392Y-74908D01*
X24461Y-74908D02*
X24461Y-74289D01*
X24405Y-74177D01*
X24292Y-74121D01*
X24067Y-74121D01*
X23955Y-74177D01*
X24461Y-74852D02*
X24349Y-74908D01*
X24067Y-74908D01*
X23955Y-74852D01*
X23899Y-74739D01*
X23899Y-74627D01*
X23955Y-74514D01*
X24067Y-74458D01*
X24349Y-74458D01*
X24461Y-74402D01*
X25023Y-74121D02*
X25023Y-75302D01*
X25023Y-74177D02*
X25136Y-74121D01*
X25361Y-74121D01*
X25473Y-74177D01*
X25530Y-74233D01*
X25586Y-74346D01*
X25586Y-74683D01*
X25530Y-74796D01*
X25473Y-74852D01*
X25361Y-74908D01*
X25136Y-74908D01*
X25023Y-74852D01*
X26092Y-74796D02*
X26148Y-74852D01*
X26092Y-74908D01*
X26036Y-74852D01*
X26092Y-74796D01*
X26092Y-74908D01*
X26092Y-74177D02*
X26148Y-74233D01*
X26092Y-74289D01*
X26036Y-74233D01*
X26092Y-74177D01*
X26092Y-74289D01*
X16674Y-76729D02*
X16924Y-76979D01*
X16924Y-76729D02*
X16674Y-76979D01*
X18218Y-76207D02*
X18331Y-76207D01*
X18443Y-76263D01*
X18499Y-76320D01*
X18556Y-76432D01*
X18612Y-76657D01*
X18612Y-76938D01*
X18556Y-77163D01*
X18499Y-77276D01*
X18443Y-77332D01*
X18331Y-77388D01*
X18218Y-77388D01*
X18106Y-77332D01*
X18049Y-77276D01*
X17993Y-77163D01*
X17937Y-76938D01*
X17937Y-76657D01*
X17993Y-76432D01*
X18049Y-76320D01*
X18106Y-76263D01*
X18218Y-76207D01*
X19118Y-77276D02*
X19174Y-77332D01*
X19118Y-77388D01*
X19062Y-77332D01*
X19118Y-77276D01*
X19118Y-77388D01*
X20187Y-76207D02*
X19962Y-76207D01*
X19849Y-76263D01*
X19793Y-76320D01*
X19680Y-76488D01*
X19624Y-76713D01*
X19624Y-77163D01*
X19680Y-77276D01*
X19737Y-77332D01*
X19849Y-77388D01*
X20074Y-77388D01*
X20187Y-77332D01*
X20243Y-77276D01*
X20299Y-77163D01*
X20299Y-76882D01*
X20243Y-76770D01*
X20187Y-76713D01*
X20074Y-76657D01*
X19849Y-76657D01*
X19737Y-76713D01*
X19680Y-76770D01*
X19624Y-76882D01*
X21311Y-76601D02*
X21311Y-77388D01*
X21030Y-76151D02*
X20749Y-76995D01*
X21480Y-76995D01*
X21930Y-77388D02*
X21930Y-76601D01*
X21930Y-76713D02*
X21986Y-76657D01*
X22099Y-76601D01*
X22268Y-76601D01*
X22380Y-76657D01*
X22436Y-76770D01*
X22436Y-77388D01*
X22436Y-76770D02*
X22493Y-76657D01*
X22605Y-76601D01*
X22774Y-76601D01*
X22886Y-76657D01*
X22942Y-76770D01*
X22942Y-77388D01*
X23505Y-77388D02*
X23505Y-76601D01*
X23505Y-76713D02*
X23561Y-76657D01*
X23674Y-76601D01*
X23842Y-76601D01*
X23955Y-76657D01*
X24011Y-76770D01*
X24011Y-77388D01*
X24011Y-76770D02*
X24067Y-76657D01*
X24180Y-76601D01*
X24349Y-76601D01*
X24461Y-76657D01*
X24517Y-76770D01*
X24517Y-77388D01*
X26823Y-76151D02*
X25811Y-77670D01*
X28342Y-76207D02*
X28454Y-76207D01*
X28567Y-76263D01*
X28623Y-76320D01*
X28679Y-76432D01*
X28736Y-76657D01*
X28736Y-76938D01*
X28679Y-77163D01*
X28623Y-77276D01*
X28567Y-77332D01*
X28454Y-77388D01*
X28342Y-77388D01*
X28229Y-77332D01*
X28173Y-77276D01*
X28117Y-77163D01*
X28061Y-76938D01*
X28061Y-76657D01*
X28117Y-76432D01*
X28173Y-76320D01*
X28229Y-76263D01*
X28342Y-76207D01*
X29242Y-77276D02*
X29298Y-77332D01*
X29242Y-77388D01*
X29185Y-77332D01*
X29242Y-77276D01*
X29242Y-77388D01*
X30029Y-76207D02*
X30142Y-76207D01*
X30254Y-76263D01*
X30310Y-76320D01*
X30367Y-76432D01*
X30423Y-76657D01*
X30423Y-76938D01*
X30367Y-77163D01*
X30310Y-77276D01*
X30254Y-77332D01*
X30142Y-77388D01*
X30029Y-77388D01*
X29917Y-77332D01*
X29860Y-77276D01*
X29804Y-77163D01*
X29748Y-76938D01*
X29748Y-76657D01*
X29804Y-76432D01*
X29860Y-76320D01*
X29917Y-76263D01*
X30029Y-76207D01*
X30873Y-76320D02*
X30929Y-76263D01*
X31041Y-76207D01*
X31323Y-76207D01*
X31435Y-76263D01*
X31491Y-76320D01*
X31548Y-76432D01*
X31548Y-76545D01*
X31491Y-76713D01*
X30817Y-77388D01*
X31548Y-77388D01*
X32616Y-76207D02*
X32054Y-76207D01*
X31998Y-76770D01*
X32054Y-76713D01*
X32166Y-76657D01*
X32448Y-76657D01*
X32560Y-76713D01*
X32616Y-76770D01*
X32673Y-76882D01*
X32673Y-77163D01*
X32616Y-77276D01*
X32560Y-77332D01*
X32448Y-77388D01*
X32166Y-77388D01*
X32054Y-77332D01*
X31998Y-77276D01*
X33122Y-76207D02*
X33122Y-76432D01*
X33572Y-76207D02*
X33572Y-76432D01*
X35316Y-77838D02*
X35260Y-77782D01*
X35147Y-77613D01*
X35091Y-77501D01*
X35035Y-77332D01*
X34978Y-77051D01*
X34978Y-76826D01*
X35035Y-76545D01*
X35091Y-76376D01*
X35147Y-76263D01*
X35260Y-76095D01*
X35316Y-76039D01*
X35822Y-77388D02*
X36047Y-77388D01*
X36160Y-77332D01*
X36216Y-77276D01*
X36328Y-77107D01*
X36385Y-76882D01*
X36385Y-76432D01*
X36328Y-76320D01*
X36272Y-76263D01*
X36160Y-76207D01*
X35935Y-76207D01*
X35822Y-76263D01*
X35766Y-76320D01*
X35710Y-76432D01*
X35710Y-76713D01*
X35766Y-76826D01*
X35822Y-76882D01*
X35935Y-76938D01*
X36160Y-76938D01*
X36272Y-76882D01*
X36328Y-76826D01*
X36385Y-76713D01*
X37791Y-77388D02*
X37791Y-76207D01*
X38297Y-77388D02*
X38297Y-76770D01*
X38241Y-76657D01*
X38128Y-76601D01*
X37959Y-76601D01*
X37847Y-76657D01*
X37791Y-76713D01*
X39028Y-77388D02*
X38916Y-77332D01*
X38859Y-77276D01*
X38803Y-77163D01*
X38803Y-76826D01*
X38859Y-76713D01*
X38916Y-76657D01*
X39028Y-76601D01*
X39197Y-76601D01*
X39309Y-76657D01*
X39365Y-76713D01*
X39422Y-76826D01*
X39422Y-77163D01*
X39365Y-77276D01*
X39309Y-77332D01*
X39197Y-77388D01*
X39028Y-77388D01*
X40097Y-77388D02*
X39984Y-77332D01*
X39928Y-77220D01*
X39928Y-76207D01*
X40996Y-77332D02*
X40884Y-77388D01*
X40659Y-77388D01*
X40547Y-77332D01*
X40490Y-77220D01*
X40490Y-76770D01*
X40547Y-76657D01*
X40659Y-76601D01*
X40884Y-76601D01*
X40996Y-76657D01*
X41053Y-76770D01*
X41053Y-76882D01*
X40490Y-76995D01*
X41503Y-77332D02*
X41615Y-77388D01*
X41840Y-77388D01*
X41953Y-77332D01*
X42009Y-77220D01*
X42009Y-77163D01*
X41953Y-77051D01*
X41840Y-76995D01*
X41671Y-76995D01*
X41559Y-76938D01*
X41503Y-76826D01*
X41503Y-76770D01*
X41559Y-76657D01*
X41671Y-76601D01*
X41840Y-76601D01*
X41953Y-76657D01*
X42403Y-77838D02*
X42459Y-77782D01*
X42571Y-77613D01*
X42628Y-77501D01*
X42684Y-77332D01*
X42740Y-77051D01*
X42740Y-76826D01*
X42684Y-76545D01*
X42628Y-76376D01*
X42571Y-76263D01*
X42459Y-76095D01*
X42403Y-76039D01*
G54D12*
X16924Y-78413D02*
G75*
G03X16924Y-78413I-159J0D01*
G74*
G01*
G54D13*
X18218Y-77766D02*
X18331Y-77766D01*
X18443Y-77823D01*
X18499Y-77879D01*
X18556Y-77991D01*
X18612Y-78216D01*
X18612Y-78497D01*
X18556Y-78722D01*
X18499Y-78835D01*
X18443Y-78891D01*
X18331Y-78947D01*
X18218Y-78947D01*
X18106Y-78891D01*
X18049Y-78835D01*
X17993Y-78722D01*
X17937Y-78497D01*
X17937Y-78216D01*
X17993Y-77991D01*
X18049Y-77879D01*
X18106Y-77823D01*
X18218Y-77766D01*
X19118Y-78835D02*
X19174Y-78891D01*
X19118Y-78947D01*
X19062Y-78891D01*
X19118Y-78835D01*
X19118Y-78947D01*
X19849Y-78272D02*
X19737Y-78216D01*
X19680Y-78160D01*
X19624Y-78048D01*
X19624Y-77991D01*
X19680Y-77879D01*
X19737Y-77823D01*
X19849Y-77766D01*
X20074Y-77766D01*
X20187Y-77823D01*
X20243Y-77879D01*
X20299Y-77991D01*
X20299Y-78048D01*
X20243Y-78160D01*
X20187Y-78216D01*
X20074Y-78272D01*
X19849Y-78272D01*
X19737Y-78329D01*
X19680Y-78385D01*
X19624Y-78497D01*
X19624Y-78722D01*
X19680Y-78835D01*
X19737Y-78891D01*
X19849Y-78947D01*
X20074Y-78947D01*
X20187Y-78891D01*
X20243Y-78835D01*
X20299Y-78722D01*
X20299Y-78497D01*
X20243Y-78385D01*
X20187Y-78329D01*
X20074Y-78272D01*
X21424Y-78947D02*
X20749Y-78947D01*
X21086Y-78947D02*
X21086Y-77766D01*
X20974Y-77935D01*
X20862Y-78048D01*
X20749Y-78104D01*
X21930Y-78947D02*
X21930Y-78160D01*
X21930Y-78272D02*
X21986Y-78216D01*
X22099Y-78160D01*
X22268Y-78160D01*
X22380Y-78216D01*
X22436Y-78329D01*
X22436Y-78947D01*
X22436Y-78329D02*
X22493Y-78216D01*
X22605Y-78160D01*
X22774Y-78160D01*
X22886Y-78216D01*
X22942Y-78329D01*
X22942Y-78947D01*
X23505Y-78947D02*
X23505Y-78160D01*
X23505Y-78272D02*
X23561Y-78216D01*
X23674Y-78160D01*
X23842Y-78160D01*
X23955Y-78216D01*
X24011Y-78329D01*
X24011Y-78947D01*
X24011Y-78329D02*
X24067Y-78216D01*
X24180Y-78160D01*
X24349Y-78160D01*
X24461Y-78216D01*
X24517Y-78329D01*
X24517Y-78947D01*
X26823Y-77710D02*
X25811Y-79229D01*
X28342Y-77766D02*
X28454Y-77766D01*
X28567Y-77823D01*
X28623Y-77879D01*
X28679Y-77991D01*
X28736Y-78216D01*
X28736Y-78497D01*
X28679Y-78722D01*
X28623Y-78835D01*
X28567Y-78891D01*
X28454Y-78947D01*
X28342Y-78947D01*
X28229Y-78891D01*
X28173Y-78835D01*
X28117Y-78722D01*
X28061Y-78497D01*
X28061Y-78216D01*
X28117Y-77991D01*
X28173Y-77879D01*
X28229Y-77823D01*
X28342Y-77766D01*
X29242Y-78835D02*
X29298Y-78891D01*
X29242Y-78947D01*
X29185Y-78891D01*
X29242Y-78835D01*
X29242Y-78947D01*
X30029Y-77766D02*
X30142Y-77766D01*
X30254Y-77823D01*
X30310Y-77879D01*
X30367Y-77991D01*
X30423Y-78216D01*
X30423Y-78497D01*
X30367Y-78722D01*
X30310Y-78835D01*
X30254Y-78891D01*
X30142Y-78947D01*
X30029Y-78947D01*
X29917Y-78891D01*
X29860Y-78835D01*
X29804Y-78722D01*
X29748Y-78497D01*
X29748Y-78216D01*
X29804Y-77991D01*
X29860Y-77879D01*
X29917Y-77823D01*
X30029Y-77766D01*
X30817Y-77766D02*
X31548Y-77766D01*
X31154Y-78216D01*
X31323Y-78216D01*
X31435Y-78272D01*
X31491Y-78329D01*
X31548Y-78441D01*
X31548Y-78722D01*
X31491Y-78835D01*
X31435Y-78891D01*
X31323Y-78947D01*
X30985Y-78947D01*
X30873Y-78891D01*
X30817Y-78835D01*
X31998Y-77879D02*
X32054Y-77823D01*
X32166Y-77766D01*
X32448Y-77766D01*
X32560Y-77823D01*
X32616Y-77879D01*
X32673Y-77991D01*
X32673Y-78104D01*
X32616Y-78272D01*
X31941Y-78947D01*
X32673Y-78947D01*
X33122Y-77766D02*
X33122Y-77991D01*
X33572Y-77766D02*
X33572Y-77991D01*
X35316Y-79397D02*
X35260Y-79341D01*
X35147Y-79172D01*
X35091Y-79060D01*
X35035Y-78891D01*
X34978Y-78610D01*
X34978Y-78385D01*
X35035Y-78104D01*
X35091Y-77935D01*
X35147Y-77823D01*
X35260Y-77654D01*
X35316Y-77598D01*
X35653Y-77766D02*
X36385Y-77766D01*
X35991Y-78216D01*
X36160Y-78216D01*
X36272Y-78272D01*
X36328Y-78329D01*
X36385Y-78441D01*
X36385Y-78722D01*
X36328Y-78835D01*
X36272Y-78891D01*
X36160Y-78947D01*
X35822Y-78947D01*
X35710Y-78891D01*
X35653Y-78835D01*
X37059Y-78272D02*
X36947Y-78216D01*
X36891Y-78160D01*
X36835Y-78048D01*
X36835Y-77991D01*
X36891Y-77879D01*
X36947Y-77823D01*
X37059Y-77766D01*
X37284Y-77766D01*
X37397Y-77823D01*
X37453Y-77879D01*
X37509Y-77991D01*
X37509Y-78048D01*
X37453Y-78160D01*
X37397Y-78216D01*
X37284Y-78272D01*
X37059Y-78272D01*
X36947Y-78329D01*
X36891Y-78385D01*
X36835Y-78497D01*
X36835Y-78722D01*
X36891Y-78835D01*
X36947Y-78891D01*
X37059Y-78947D01*
X37284Y-78947D01*
X37397Y-78891D01*
X37453Y-78835D01*
X37509Y-78722D01*
X37509Y-78497D01*
X37453Y-78385D01*
X37397Y-78329D01*
X37284Y-78272D01*
X38916Y-78947D02*
X38916Y-77766D01*
X39422Y-78947D02*
X39422Y-78329D01*
X39365Y-78216D01*
X39253Y-78160D01*
X39084Y-78160D01*
X38972Y-78216D01*
X38916Y-78272D01*
X40153Y-78947D02*
X40040Y-78891D01*
X39984Y-78835D01*
X39928Y-78722D01*
X39928Y-78385D01*
X39984Y-78272D01*
X40040Y-78216D01*
X40153Y-78160D01*
X40322Y-78160D01*
X40434Y-78216D01*
X40490Y-78272D01*
X40547Y-78385D01*
X40547Y-78722D01*
X40490Y-78835D01*
X40434Y-78891D01*
X40322Y-78947D01*
X40153Y-78947D01*
X41221Y-78947D02*
X41109Y-78891D01*
X41053Y-78779D01*
X41053Y-77766D01*
X42121Y-78891D02*
X42009Y-78947D01*
X41784Y-78947D01*
X41671Y-78891D01*
X41615Y-78779D01*
X41615Y-78329D01*
X41671Y-78216D01*
X41784Y-78160D01*
X42009Y-78160D01*
X42121Y-78216D01*
X42178Y-78329D01*
X42178Y-78441D01*
X41615Y-78554D01*
X42628Y-78891D02*
X42740Y-78947D01*
X42965Y-78947D01*
X43077Y-78891D01*
X43134Y-78779D01*
X43134Y-78722D01*
X43077Y-78610D01*
X42965Y-78554D01*
X42796Y-78554D01*
X42684Y-78497D01*
X42628Y-78385D01*
X42628Y-78329D01*
X42684Y-78216D01*
X42796Y-78160D01*
X42965Y-78160D01*
X43077Y-78216D01*
X43527Y-79397D02*
X43584Y-79341D01*
X43696Y-79172D01*
X43752Y-79060D01*
X43809Y-78891D01*
X43865Y-78610D01*
X43865Y-78385D01*
X43809Y-78104D01*
X43752Y-77935D01*
X43696Y-77823D01*
X43584Y-77654D01*
X43527Y-77598D01*
X16764Y-79812D02*
X16764Y-80132D01*
X16604Y-79972D02*
X16924Y-79972D01*
X18218Y-79325D02*
X18331Y-79325D01*
X18443Y-79382D01*
X18499Y-79438D01*
X18556Y-79550D01*
X18612Y-79775D01*
X18612Y-80057D01*
X18556Y-80281D01*
X18499Y-80394D01*
X18443Y-80450D01*
X18331Y-80506D01*
X18218Y-80506D01*
X18106Y-80450D01*
X18049Y-80394D01*
X17993Y-80281D01*
X17937Y-80057D01*
X17937Y-79775D01*
X17993Y-79550D01*
X18049Y-79438D01*
X18106Y-79382D01*
X18218Y-79325D01*
X19118Y-80394D02*
X19174Y-80450D01*
X19118Y-80506D01*
X19062Y-80450D01*
X19118Y-80394D01*
X19118Y-80506D01*
X19849Y-79832D02*
X19737Y-79775D01*
X19680Y-79719D01*
X19624Y-79607D01*
X19624Y-79550D01*
X19680Y-79438D01*
X19737Y-79382D01*
X19849Y-79325D01*
X20074Y-79325D01*
X20187Y-79382D01*
X20243Y-79438D01*
X20299Y-79550D01*
X20299Y-79607D01*
X20243Y-79719D01*
X20187Y-79775D01*
X20074Y-79832D01*
X19849Y-79832D01*
X19737Y-79888D01*
X19680Y-79944D01*
X19624Y-80057D01*
X19624Y-80281D01*
X19680Y-80394D01*
X19737Y-80450D01*
X19849Y-80506D01*
X20074Y-80506D01*
X20187Y-80450D01*
X20243Y-80394D01*
X20299Y-80281D01*
X20299Y-80057D01*
X20243Y-79944D01*
X20187Y-79888D01*
X20074Y-79832D01*
X21424Y-80506D02*
X20749Y-80506D01*
X21086Y-80506D02*
X21086Y-79325D01*
X20974Y-79494D01*
X20862Y-79607D01*
X20749Y-79663D01*
X21930Y-80506D02*
X21930Y-79719D01*
X21930Y-79832D02*
X21986Y-79775D01*
X22099Y-79719D01*
X22268Y-79719D01*
X22380Y-79775D01*
X22436Y-79888D01*
X22436Y-80506D01*
X22436Y-79888D02*
X22493Y-79775D01*
X22605Y-79719D01*
X22774Y-79719D01*
X22886Y-79775D01*
X22942Y-79888D01*
X22942Y-80506D01*
X23505Y-80506D02*
X23505Y-79719D01*
X23505Y-79832D02*
X23561Y-79775D01*
X23674Y-79719D01*
X23842Y-79719D01*
X23955Y-79775D01*
X24011Y-79888D01*
X24011Y-80506D01*
X24011Y-79888D02*
X24067Y-79775D01*
X24180Y-79719D01*
X24349Y-79719D01*
X24461Y-79775D01*
X24517Y-79888D01*
X24517Y-80506D01*
X26823Y-79269D02*
X25811Y-80788D01*
X28342Y-79325D02*
X28454Y-79325D01*
X28567Y-79382D01*
X28623Y-79438D01*
X28679Y-79550D01*
X28736Y-79775D01*
X28736Y-80057D01*
X28679Y-80281D01*
X28623Y-80394D01*
X28567Y-80450D01*
X28454Y-80506D01*
X28342Y-80506D01*
X28229Y-80450D01*
X28173Y-80394D01*
X28117Y-80281D01*
X28061Y-80057D01*
X28061Y-79775D01*
X28117Y-79550D01*
X28173Y-79438D01*
X28229Y-79382D01*
X28342Y-79325D01*
X29242Y-80394D02*
X29298Y-80450D01*
X29242Y-80506D01*
X29185Y-80450D01*
X29242Y-80394D01*
X29242Y-80506D01*
X30029Y-79325D02*
X30142Y-79325D01*
X30254Y-79382D01*
X30310Y-79438D01*
X30367Y-79550D01*
X30423Y-79775D01*
X30423Y-80057D01*
X30367Y-80281D01*
X30310Y-80394D01*
X30254Y-80450D01*
X30142Y-80506D01*
X30029Y-80506D01*
X29917Y-80450D01*
X29860Y-80394D01*
X29804Y-80281D01*
X29748Y-80057D01*
X29748Y-79775D01*
X29804Y-79550D01*
X29860Y-79438D01*
X29917Y-79382D01*
X30029Y-79325D01*
X30817Y-79325D02*
X31548Y-79325D01*
X31154Y-79775D01*
X31323Y-79775D01*
X31435Y-79832D01*
X31491Y-79888D01*
X31548Y-80000D01*
X31548Y-80281D01*
X31491Y-80394D01*
X31435Y-80450D01*
X31323Y-80506D01*
X30985Y-80506D01*
X30873Y-80450D01*
X30817Y-80394D01*
X31998Y-79438D02*
X32054Y-79382D01*
X32166Y-79325D01*
X32448Y-79325D01*
X32560Y-79382D01*
X32616Y-79438D01*
X32673Y-79550D01*
X32673Y-79663D01*
X32616Y-79832D01*
X31941Y-80506D01*
X32673Y-80506D01*
X33122Y-79325D02*
X33122Y-79550D01*
X33572Y-79325D02*
X33572Y-79550D01*
X35316Y-80956D02*
X35260Y-80900D01*
X35147Y-80731D01*
X35091Y-80619D01*
X35035Y-80450D01*
X34978Y-80169D01*
X34978Y-79944D01*
X35035Y-79663D01*
X35091Y-79494D01*
X35147Y-79382D01*
X35260Y-79213D01*
X35316Y-79157D01*
X36385Y-80506D02*
X35710Y-80506D01*
X36047Y-80506D02*
X36047Y-79325D01*
X35935Y-79494D01*
X35822Y-79607D01*
X35710Y-79663D01*
X37116Y-79325D02*
X37228Y-79325D01*
X37341Y-79382D01*
X37397Y-79438D01*
X37453Y-79550D01*
X37509Y-79775D01*
X37509Y-80057D01*
X37453Y-80281D01*
X37397Y-80394D01*
X37341Y-80450D01*
X37228Y-80506D01*
X37116Y-80506D01*
X37003Y-80450D01*
X36947Y-80394D01*
X36891Y-80281D01*
X36835Y-80057D01*
X36835Y-79775D01*
X36891Y-79550D01*
X36947Y-79438D01*
X37003Y-79382D01*
X37116Y-79325D01*
X38916Y-80506D02*
X38916Y-79325D01*
X39422Y-80506D02*
X39422Y-79888D01*
X39365Y-79775D01*
X39253Y-79719D01*
X39084Y-79719D01*
X38972Y-79775D01*
X38916Y-79832D01*
X40153Y-80506D02*
X40040Y-80450D01*
X39984Y-80394D01*
X39928Y-80281D01*
X39928Y-79944D01*
X39984Y-79832D01*
X40040Y-79775D01*
X40153Y-79719D01*
X40322Y-79719D01*
X40434Y-79775D01*
X40490Y-79832D01*
X40547Y-79944D01*
X40547Y-80281D01*
X40490Y-80394D01*
X40434Y-80450D01*
X40322Y-80506D01*
X40153Y-80506D01*
X41221Y-80506D02*
X41109Y-80450D01*
X41053Y-80338D01*
X41053Y-79325D01*
X42121Y-80450D02*
X42009Y-80506D01*
X41784Y-80506D01*
X41671Y-80450D01*
X41615Y-80338D01*
X41615Y-79888D01*
X41671Y-79775D01*
X41784Y-79719D01*
X42009Y-79719D01*
X42121Y-79775D01*
X42178Y-79888D01*
X42178Y-80000D01*
X41615Y-80113D01*
X42628Y-80450D02*
X42740Y-80506D01*
X42965Y-80506D01*
X43077Y-80450D01*
X43134Y-80338D01*
X43134Y-80281D01*
X43077Y-80169D01*
X42965Y-80113D01*
X42796Y-80113D01*
X42684Y-80057D01*
X42628Y-79944D01*
X42628Y-79888D01*
X42684Y-79775D01*
X42796Y-79719D01*
X42965Y-79719D01*
X43077Y-79775D01*
X43527Y-80956D02*
X43584Y-80900D01*
X43696Y-80731D01*
X43752Y-80619D01*
X43809Y-80450D01*
X43865Y-80169D01*
X43865Y-79944D01*
X43809Y-79663D01*
X43752Y-79494D01*
X43696Y-79382D01*
X43584Y-79213D01*
X43527Y-79157D01*
G54D12*
X16867Y-81670D02*
X16867Y-81392D01*
X16588Y-81392D01*
X16588Y-81670D01*
X16867Y-81670D01*
G54D13*
X18612Y-82066D02*
X17937Y-82066D01*
X18274Y-82066D02*
X18274Y-80884D01*
X18162Y-81053D01*
X18049Y-81166D01*
X17937Y-81222D01*
X19118Y-81953D02*
X19174Y-82009D01*
X19118Y-82066D01*
X19062Y-82009D01*
X19118Y-81953D01*
X19118Y-82066D01*
X19905Y-80884D02*
X20018Y-80884D01*
X20130Y-80941D01*
X20187Y-80997D01*
X20243Y-81109D01*
X20299Y-81334D01*
X20299Y-81616D01*
X20243Y-81841D01*
X20187Y-81953D01*
X20130Y-82009D01*
X20018Y-82066D01*
X19905Y-82066D01*
X19793Y-82009D01*
X19737Y-81953D01*
X19680Y-81841D01*
X19624Y-81616D01*
X19624Y-81334D01*
X19680Y-81109D01*
X19737Y-80997D01*
X19793Y-80941D01*
X19905Y-80884D01*
X21030Y-80884D02*
X21143Y-80884D01*
X21255Y-80941D01*
X21311Y-80997D01*
X21368Y-81109D01*
X21424Y-81334D01*
X21424Y-81616D01*
X21368Y-81841D01*
X21311Y-81953D01*
X21255Y-82009D01*
X21143Y-82066D01*
X21030Y-82066D01*
X20918Y-82009D01*
X20862Y-81953D01*
X20805Y-81841D01*
X20749Y-81616D01*
X20749Y-81334D01*
X20805Y-81109D01*
X20862Y-80997D01*
X20918Y-80941D01*
X21030Y-80884D01*
X21930Y-82066D02*
X21930Y-81278D01*
X21930Y-81391D02*
X21986Y-81334D01*
X22099Y-81278D01*
X22268Y-81278D01*
X22380Y-81334D01*
X22436Y-81447D01*
X22436Y-82066D01*
X22436Y-81447D02*
X22493Y-81334D01*
X22605Y-81278D01*
X22774Y-81278D01*
X22886Y-81334D01*
X22942Y-81447D01*
X22942Y-82066D01*
X23505Y-82066D02*
X23505Y-81278D01*
X23505Y-81391D02*
X23561Y-81334D01*
X23674Y-81278D01*
X23842Y-81278D01*
X23955Y-81334D01*
X24011Y-81447D01*
X24011Y-82066D01*
X24011Y-81447D02*
X24067Y-81334D01*
X24180Y-81278D01*
X24349Y-81278D01*
X24461Y-81334D01*
X24517Y-81447D01*
X24517Y-82066D01*
X26823Y-80828D02*
X25811Y-82347D01*
X28342Y-80884D02*
X28454Y-80884D01*
X28567Y-80941D01*
X28623Y-80997D01*
X28679Y-81109D01*
X28736Y-81334D01*
X28736Y-81616D01*
X28679Y-81841D01*
X28623Y-81953D01*
X28567Y-82009D01*
X28454Y-82066D01*
X28342Y-82066D01*
X28229Y-82009D01*
X28173Y-81953D01*
X28117Y-81841D01*
X28061Y-81616D01*
X28061Y-81334D01*
X28117Y-81109D01*
X28173Y-80997D01*
X28229Y-80941D01*
X28342Y-80884D01*
X29242Y-81953D02*
X29298Y-82009D01*
X29242Y-82066D01*
X29185Y-82009D01*
X29242Y-81953D01*
X29242Y-82066D01*
X30029Y-80884D02*
X30142Y-80884D01*
X30254Y-80941D01*
X30310Y-80997D01*
X30367Y-81109D01*
X30423Y-81334D01*
X30423Y-81616D01*
X30367Y-81841D01*
X30310Y-81953D01*
X30254Y-82009D01*
X30142Y-82066D01*
X30029Y-82066D01*
X29917Y-82009D01*
X29860Y-81953D01*
X29804Y-81841D01*
X29748Y-81616D01*
X29748Y-81334D01*
X29804Y-81109D01*
X29860Y-80997D01*
X29917Y-80941D01*
X30029Y-80884D01*
X30817Y-80884D02*
X31548Y-80884D01*
X31154Y-81334D01*
X31323Y-81334D01*
X31435Y-81391D01*
X31491Y-81447D01*
X31548Y-81559D01*
X31548Y-81841D01*
X31491Y-81953D01*
X31435Y-82009D01*
X31323Y-82066D01*
X30985Y-82066D01*
X30873Y-82009D01*
X30817Y-81953D01*
X32110Y-82066D02*
X32335Y-82066D01*
X32448Y-82009D01*
X32504Y-81953D01*
X32616Y-81784D01*
X32673Y-81559D01*
X32673Y-81109D01*
X32616Y-80997D01*
X32560Y-80941D01*
X32448Y-80884D01*
X32223Y-80884D01*
X32110Y-80941D01*
X32054Y-80997D01*
X31998Y-81109D01*
X31998Y-81391D01*
X32054Y-81503D01*
X32110Y-81559D01*
X32223Y-81616D01*
X32448Y-81616D01*
X32560Y-81559D01*
X32616Y-81503D01*
X32673Y-81391D01*
X33122Y-80884D02*
X33122Y-81109D01*
X33572Y-80884D02*
X33572Y-81109D01*
X35316Y-82515D02*
X35260Y-82459D01*
X35147Y-82290D01*
X35091Y-82178D01*
X35035Y-82009D01*
X34978Y-81728D01*
X34978Y-81503D01*
X35035Y-81222D01*
X35091Y-81053D01*
X35147Y-80941D01*
X35260Y-80772D01*
X35316Y-80716D01*
X36385Y-82066D02*
X35710Y-82066D01*
X36047Y-82066D02*
X36047Y-80884D01*
X35935Y-81053D01*
X35822Y-81166D01*
X35710Y-81222D01*
X36778Y-80884D02*
X37509Y-80884D01*
X37116Y-81334D01*
X37284Y-81334D01*
X37397Y-81391D01*
X37453Y-81447D01*
X37509Y-81559D01*
X37509Y-81841D01*
X37453Y-81953D01*
X37397Y-82009D01*
X37284Y-82066D01*
X36947Y-82066D01*
X36835Y-82009D01*
X36778Y-81953D01*
X38916Y-82066D02*
X38916Y-80884D01*
X39422Y-82066D02*
X39422Y-81447D01*
X39365Y-81334D01*
X39253Y-81278D01*
X39084Y-81278D01*
X38972Y-81334D01*
X38916Y-81391D01*
X40153Y-82066D02*
X40040Y-82009D01*
X39984Y-81953D01*
X39928Y-81841D01*
X39928Y-81503D01*
X39984Y-81391D01*
X40040Y-81334D01*
X40153Y-81278D01*
X40322Y-81278D01*
X40434Y-81334D01*
X40490Y-81391D01*
X40547Y-81503D01*
X40547Y-81841D01*
X40490Y-81953D01*
X40434Y-82009D01*
X40322Y-82066D01*
X40153Y-82066D01*
X41221Y-82066D02*
X41109Y-82009D01*
X41053Y-81897D01*
X41053Y-80884D01*
X42121Y-82009D02*
X42009Y-82066D01*
X41784Y-82066D01*
X41671Y-82009D01*
X41615Y-81897D01*
X41615Y-81447D01*
X41671Y-81334D01*
X41784Y-81278D01*
X42009Y-81278D01*
X42121Y-81334D01*
X42178Y-81447D01*
X42178Y-81559D01*
X41615Y-81672D01*
X42628Y-82009D02*
X42740Y-82066D01*
X42965Y-82066D01*
X43077Y-82009D01*
X43134Y-81897D01*
X43134Y-81841D01*
X43077Y-81728D01*
X42965Y-81672D01*
X42796Y-81672D01*
X42684Y-81616D01*
X42628Y-81503D01*
X42628Y-81447D01*
X42684Y-81334D01*
X42796Y-81278D01*
X42965Y-81278D01*
X43077Y-81334D01*
X43527Y-82515D02*
X43584Y-82459D01*
X43696Y-82290D01*
X43752Y-82178D01*
X43809Y-82009D01*
X43865Y-81728D01*
X43865Y-81503D01*
X43809Y-81222D01*
X43752Y-81053D01*
X43696Y-80941D01*
X43584Y-80772D01*
X43527Y-80716D01*
G54D12*
X16724Y-83290D02*
X16924Y-83090D01*
X16724Y-82890D01*
X16524Y-83090D01*
X16724Y-83290D01*
G54D13*
X18612Y-83625D02*
X17937Y-83625D01*
X18274Y-83625D02*
X18274Y-82443D01*
X18162Y-82612D01*
X18049Y-82725D01*
X17937Y-82781D01*
X19118Y-83512D02*
X19174Y-83568D01*
X19118Y-83625D01*
X19062Y-83568D01*
X19118Y-83512D01*
X19118Y-83625D01*
X19905Y-82443D02*
X20018Y-82443D01*
X20130Y-82500D01*
X20187Y-82556D01*
X20243Y-82668D01*
X20299Y-82893D01*
X20299Y-83175D01*
X20243Y-83400D01*
X20187Y-83512D01*
X20130Y-83568D01*
X20018Y-83625D01*
X19905Y-83625D01*
X19793Y-83568D01*
X19737Y-83512D01*
X19680Y-83400D01*
X19624Y-83175D01*
X19624Y-82893D01*
X19680Y-82668D01*
X19737Y-82556D01*
X19793Y-82500D01*
X19905Y-82443D01*
X20749Y-82556D02*
X20805Y-82500D01*
X20918Y-82443D01*
X21199Y-82443D01*
X21311Y-82500D01*
X21368Y-82556D01*
X21424Y-82668D01*
X21424Y-82781D01*
X21368Y-82950D01*
X20693Y-83625D01*
X21424Y-83625D01*
X21930Y-83625D02*
X21930Y-82837D01*
X21930Y-82950D02*
X21986Y-82893D01*
X22099Y-82837D01*
X22268Y-82837D01*
X22380Y-82893D01*
X22436Y-83006D01*
X22436Y-83625D01*
X22436Y-83006D02*
X22493Y-82893D01*
X22605Y-82837D01*
X22774Y-82837D01*
X22886Y-82893D01*
X22942Y-83006D01*
X22942Y-83625D01*
X23505Y-83625D02*
X23505Y-82837D01*
X23505Y-82950D02*
X23561Y-82893D01*
X23674Y-82837D01*
X23842Y-82837D01*
X23955Y-82893D01*
X24011Y-83006D01*
X24011Y-83625D01*
X24011Y-83006D02*
X24067Y-82893D01*
X24180Y-82837D01*
X24349Y-82837D01*
X24461Y-82893D01*
X24517Y-83006D01*
X24517Y-83625D01*
X26823Y-82387D02*
X25811Y-83906D01*
X28342Y-82443D02*
X28454Y-82443D01*
X28567Y-82500D01*
X28623Y-82556D01*
X28679Y-82668D01*
X28736Y-82893D01*
X28736Y-83175D01*
X28679Y-83400D01*
X28623Y-83512D01*
X28567Y-83568D01*
X28454Y-83625D01*
X28342Y-83625D01*
X28229Y-83568D01*
X28173Y-83512D01*
X28117Y-83400D01*
X28061Y-83175D01*
X28061Y-82893D01*
X28117Y-82668D01*
X28173Y-82556D01*
X28229Y-82500D01*
X28342Y-82443D01*
X29242Y-83512D02*
X29298Y-83568D01*
X29242Y-83625D01*
X29185Y-83568D01*
X29242Y-83512D01*
X29242Y-83625D01*
X30029Y-82443D02*
X30142Y-82443D01*
X30254Y-82500D01*
X30310Y-82556D01*
X30367Y-82668D01*
X30423Y-82893D01*
X30423Y-83175D01*
X30367Y-83400D01*
X30310Y-83512D01*
X30254Y-83568D01*
X30142Y-83625D01*
X30029Y-83625D01*
X29917Y-83568D01*
X29860Y-83512D01*
X29804Y-83400D01*
X29748Y-83175D01*
X29748Y-82893D01*
X29804Y-82668D01*
X29860Y-82556D01*
X29917Y-82500D01*
X30029Y-82443D01*
X31435Y-82837D02*
X31435Y-83625D01*
X31154Y-82387D02*
X30873Y-83231D01*
X31604Y-83231D01*
X32279Y-82443D02*
X32391Y-82443D01*
X32504Y-82500D01*
X32560Y-82556D01*
X32616Y-82668D01*
X32673Y-82893D01*
X32673Y-83175D01*
X32616Y-83400D01*
X32560Y-83512D01*
X32504Y-83568D01*
X32391Y-83625D01*
X32279Y-83625D01*
X32166Y-83568D01*
X32110Y-83512D01*
X32054Y-83400D01*
X31998Y-83175D01*
X31998Y-82893D01*
X32054Y-82668D01*
X32110Y-82556D01*
X32166Y-82500D01*
X32279Y-82443D01*
X33122Y-82443D02*
X33122Y-82668D01*
X33572Y-82443D02*
X33572Y-82668D01*
X35316Y-84075D02*
X35260Y-84018D01*
X35147Y-83850D01*
X35091Y-83737D01*
X35035Y-83568D01*
X34978Y-83287D01*
X34978Y-83062D01*
X35035Y-82781D01*
X35091Y-82612D01*
X35147Y-82500D01*
X35260Y-82331D01*
X35316Y-82275D01*
X35935Y-82950D02*
X35822Y-82893D01*
X35766Y-82837D01*
X35710Y-82725D01*
X35710Y-82668D01*
X35766Y-82556D01*
X35822Y-82500D01*
X35935Y-82443D01*
X36160Y-82443D01*
X36272Y-82500D01*
X36328Y-82556D01*
X36385Y-82668D01*
X36385Y-82725D01*
X36328Y-82837D01*
X36272Y-82893D01*
X36160Y-82950D01*
X35935Y-82950D01*
X35822Y-83006D01*
X35766Y-83062D01*
X35710Y-83175D01*
X35710Y-83400D01*
X35766Y-83512D01*
X35822Y-83568D01*
X35935Y-83625D01*
X36160Y-83625D01*
X36272Y-83568D01*
X36328Y-83512D01*
X36385Y-83400D01*
X36385Y-83175D01*
X36328Y-83062D01*
X36272Y-83006D01*
X36160Y-82950D01*
X37791Y-83625D02*
X37791Y-82443D01*
X38297Y-83625D02*
X38297Y-83006D01*
X38241Y-82893D01*
X38128Y-82837D01*
X37959Y-82837D01*
X37847Y-82893D01*
X37791Y-82950D01*
X39028Y-83625D02*
X38916Y-83568D01*
X38859Y-83512D01*
X38803Y-83400D01*
X38803Y-83062D01*
X38859Y-82950D01*
X38916Y-82893D01*
X39028Y-82837D01*
X39197Y-82837D01*
X39309Y-82893D01*
X39365Y-82950D01*
X39422Y-83062D01*
X39422Y-83400D01*
X39365Y-83512D01*
X39309Y-83568D01*
X39197Y-83625D01*
X39028Y-83625D01*
X40097Y-83625D02*
X39984Y-83568D01*
X39928Y-83456D01*
X39928Y-82443D01*
X40996Y-83568D02*
X40884Y-83625D01*
X40659Y-83625D01*
X40547Y-83568D01*
X40490Y-83456D01*
X40490Y-83006D01*
X40547Y-82893D01*
X40659Y-82837D01*
X40884Y-82837D01*
X40996Y-82893D01*
X41053Y-83006D01*
X41053Y-83118D01*
X40490Y-83231D01*
X41503Y-83568D02*
X41615Y-83625D01*
X41840Y-83625D01*
X41953Y-83568D01*
X42009Y-83456D01*
X42009Y-83400D01*
X41953Y-83287D01*
X41840Y-83231D01*
X41671Y-83231D01*
X41559Y-83175D01*
X41503Y-83062D01*
X41503Y-83006D01*
X41559Y-82893D01*
X41671Y-82837D01*
X41840Y-82837D01*
X41953Y-82893D01*
X42403Y-84075D02*
X42459Y-84018D01*
X42571Y-83850D01*
X42628Y-83737D01*
X42684Y-83568D01*
X42740Y-83287D01*
X42740Y-83062D01*
X42684Y-82781D01*
X42628Y-82612D01*
X42571Y-82500D01*
X42459Y-82331D01*
X42403Y-82275D01*
X16491Y-84433D02*
X16924Y-84866D01*
X16924Y-84433D02*
X16491Y-84866D01*
G54D12*
X16924Y-84649D02*
G75*
G03X16924Y-84649I-216J0D01*
G74*
G01*
G54D13*
X18612Y-85184D02*
X17937Y-85184D01*
X18274Y-85184D02*
X18274Y-84003D01*
X18162Y-84171D01*
X18049Y-84284D01*
X17937Y-84340D01*
X19118Y-85071D02*
X19174Y-85127D01*
X19118Y-85184D01*
X19062Y-85127D01*
X19118Y-85071D01*
X19118Y-85184D01*
X20299Y-85184D02*
X19624Y-85184D01*
X19962Y-85184D02*
X19962Y-84003D01*
X19849Y-84171D01*
X19737Y-84284D01*
X19624Y-84340D01*
X21030Y-84003D02*
X21143Y-84003D01*
X21255Y-84059D01*
X21311Y-84115D01*
X21368Y-84227D01*
X21424Y-84452D01*
X21424Y-84734D01*
X21368Y-84959D01*
X21311Y-85071D01*
X21255Y-85127D01*
X21143Y-85184D01*
X21030Y-85184D01*
X20918Y-85127D01*
X20862Y-85071D01*
X20805Y-84959D01*
X20749Y-84734D01*
X20749Y-84452D01*
X20805Y-84227D01*
X20862Y-84115D01*
X20918Y-84059D01*
X21030Y-84003D01*
X21930Y-85184D02*
X21930Y-84396D01*
X21930Y-84509D02*
X21986Y-84452D01*
X22099Y-84396D01*
X22268Y-84396D01*
X22380Y-84452D01*
X22436Y-84565D01*
X22436Y-85184D01*
X22436Y-84565D02*
X22493Y-84452D01*
X22605Y-84396D01*
X22774Y-84396D01*
X22886Y-84452D01*
X22942Y-84565D01*
X22942Y-85184D01*
X23505Y-85184D02*
X23505Y-84396D01*
X23505Y-84509D02*
X23561Y-84452D01*
X23674Y-84396D01*
X23842Y-84396D01*
X23955Y-84452D01*
X24011Y-84565D01*
X24011Y-85184D01*
X24011Y-84565D02*
X24067Y-84452D01*
X24180Y-84396D01*
X24349Y-84396D01*
X24461Y-84452D01*
X24517Y-84565D01*
X24517Y-85184D01*
X26823Y-83946D02*
X25811Y-85465D01*
X28342Y-84003D02*
X28454Y-84003D01*
X28567Y-84059D01*
X28623Y-84115D01*
X28679Y-84227D01*
X28736Y-84452D01*
X28736Y-84734D01*
X28679Y-84959D01*
X28623Y-85071D01*
X28567Y-85127D01*
X28454Y-85184D01*
X28342Y-85184D01*
X28229Y-85127D01*
X28173Y-85071D01*
X28117Y-84959D01*
X28061Y-84734D01*
X28061Y-84452D01*
X28117Y-84227D01*
X28173Y-84115D01*
X28229Y-84059D01*
X28342Y-84003D01*
X29242Y-85071D02*
X29298Y-85127D01*
X29242Y-85184D01*
X29185Y-85127D01*
X29242Y-85071D01*
X29242Y-85184D01*
X30029Y-84003D02*
X30142Y-84003D01*
X30254Y-84059D01*
X30310Y-84115D01*
X30367Y-84227D01*
X30423Y-84452D01*
X30423Y-84734D01*
X30367Y-84959D01*
X30310Y-85071D01*
X30254Y-85127D01*
X30142Y-85184D01*
X30029Y-85184D01*
X29917Y-85127D01*
X29860Y-85071D01*
X29804Y-84959D01*
X29748Y-84734D01*
X29748Y-84452D01*
X29804Y-84227D01*
X29860Y-84115D01*
X29917Y-84059D01*
X30029Y-84003D01*
X31435Y-84396D02*
X31435Y-85184D01*
X31154Y-83946D02*
X30873Y-84790D01*
X31604Y-84790D01*
X31941Y-84003D02*
X32673Y-84003D01*
X32279Y-84452D01*
X32448Y-84452D01*
X32560Y-84509D01*
X32616Y-84565D01*
X32673Y-84677D01*
X32673Y-84959D01*
X32616Y-85071D01*
X32560Y-85127D01*
X32448Y-85184D01*
X32110Y-85184D01*
X31998Y-85127D01*
X31941Y-85071D01*
X33122Y-84003D02*
X33122Y-84227D01*
X33572Y-84003D02*
X33572Y-84227D01*
X35316Y-85634D02*
X35260Y-85577D01*
X35147Y-85409D01*
X35091Y-85296D01*
X35035Y-85127D01*
X34978Y-84846D01*
X34978Y-84621D01*
X35035Y-84340D01*
X35091Y-84171D01*
X35147Y-84059D01*
X35260Y-83890D01*
X35316Y-83834D01*
X36272Y-84396D02*
X36272Y-85184D01*
X35991Y-83946D02*
X35710Y-84790D01*
X36441Y-84790D01*
X37791Y-85184D02*
X37791Y-84003D01*
X38297Y-85184D02*
X38297Y-84565D01*
X38241Y-84452D01*
X38128Y-84396D01*
X37959Y-84396D01*
X37847Y-84452D01*
X37791Y-84509D01*
X39028Y-85184D02*
X38916Y-85127D01*
X38859Y-85071D01*
X38803Y-84959D01*
X38803Y-84621D01*
X38859Y-84509D01*
X38916Y-84452D01*
X39028Y-84396D01*
X39197Y-84396D01*
X39309Y-84452D01*
X39365Y-84509D01*
X39422Y-84621D01*
X39422Y-84959D01*
X39365Y-85071D01*
X39309Y-85127D01*
X39197Y-85184D01*
X39028Y-85184D01*
X40097Y-85184D02*
X39984Y-85127D01*
X39928Y-85015D01*
X39928Y-84003D01*
X40996Y-85127D02*
X40884Y-85184D01*
X40659Y-85184D01*
X40547Y-85127D01*
X40490Y-85015D01*
X40490Y-84565D01*
X40547Y-84452D01*
X40659Y-84396D01*
X40884Y-84396D01*
X40996Y-84452D01*
X41053Y-84565D01*
X41053Y-84677D01*
X40490Y-84790D01*
X41503Y-85127D02*
X41615Y-85184D01*
X41840Y-85184D01*
X41953Y-85127D01*
X42009Y-85015D01*
X42009Y-84959D01*
X41953Y-84846D01*
X41840Y-84790D01*
X41671Y-84790D01*
X41559Y-84734D01*
X41503Y-84621D01*
X41503Y-84565D01*
X41559Y-84452D01*
X41671Y-84396D01*
X41840Y-84396D01*
X41953Y-84452D01*
X42403Y-85634D02*
X42459Y-85577D01*
X42571Y-85409D01*
X42628Y-85296D01*
X42684Y-85127D01*
X42740Y-84846D01*
X42740Y-84621D01*
X42684Y-84340D01*
X42628Y-84171D01*
X42571Y-84059D01*
X42459Y-83890D01*
X42403Y-83834D01*
X16324Y-85908D02*
X16924Y-86508D01*
X16924Y-85908D02*
X16324Y-86508D01*
X16624Y-85908D02*
X16624Y-86508D01*
X16324Y-86208D02*
X16924Y-86208D01*
X18612Y-86743D02*
X17937Y-86743D01*
X18274Y-86743D02*
X18274Y-85562D01*
X18162Y-85730D01*
X18049Y-85843D01*
X17937Y-85899D01*
X19118Y-86630D02*
X19174Y-86686D01*
X19118Y-86743D01*
X19062Y-86686D01*
X19118Y-86630D01*
X19118Y-86743D01*
X20243Y-85562D02*
X19680Y-85562D01*
X19624Y-86124D01*
X19680Y-86068D01*
X19793Y-86012D01*
X20074Y-86012D01*
X20187Y-86068D01*
X20243Y-86124D01*
X20299Y-86236D01*
X20299Y-86518D01*
X20243Y-86630D01*
X20187Y-86686D01*
X20074Y-86743D01*
X19793Y-86743D01*
X19680Y-86686D01*
X19624Y-86630D01*
X20749Y-85674D02*
X20805Y-85618D01*
X20918Y-85562D01*
X21199Y-85562D01*
X21311Y-85618D01*
X21368Y-85674D01*
X21424Y-85787D01*
X21424Y-85899D01*
X21368Y-86068D01*
X20693Y-86743D01*
X21424Y-86743D01*
X21930Y-86743D02*
X21930Y-85955D01*
X21930Y-86068D02*
X21986Y-86012D01*
X22099Y-85955D01*
X22268Y-85955D01*
X22380Y-86012D01*
X22436Y-86124D01*
X22436Y-86743D01*
X22436Y-86124D02*
X22493Y-86012D01*
X22605Y-85955D01*
X22774Y-85955D01*
X22886Y-86012D01*
X22942Y-86124D01*
X22942Y-86743D01*
X23505Y-86743D02*
X23505Y-85955D01*
X23505Y-86068D02*
X23561Y-86012D01*
X23674Y-85955D01*
X23842Y-85955D01*
X23955Y-86012D01*
X24011Y-86124D01*
X24011Y-86743D01*
X24011Y-86124D02*
X24067Y-86012D01*
X24180Y-85955D01*
X24349Y-85955D01*
X24461Y-86012D01*
X24517Y-86124D01*
X24517Y-86743D01*
X26823Y-85505D02*
X25811Y-87024D01*
X28342Y-85562D02*
X28454Y-85562D01*
X28567Y-85618D01*
X28623Y-85674D01*
X28679Y-85787D01*
X28736Y-86012D01*
X28736Y-86293D01*
X28679Y-86518D01*
X28623Y-86630D01*
X28567Y-86686D01*
X28454Y-86743D01*
X28342Y-86743D01*
X28229Y-86686D01*
X28173Y-86630D01*
X28117Y-86518D01*
X28061Y-86293D01*
X28061Y-86012D01*
X28117Y-85787D01*
X28173Y-85674D01*
X28229Y-85618D01*
X28342Y-85562D01*
X29242Y-86630D02*
X29298Y-86686D01*
X29242Y-86743D01*
X29185Y-86686D01*
X29242Y-86630D01*
X29242Y-86743D01*
X30029Y-85562D02*
X30142Y-85562D01*
X30254Y-85618D01*
X30310Y-85674D01*
X30367Y-85787D01*
X30423Y-86012D01*
X30423Y-86293D01*
X30367Y-86518D01*
X30310Y-86630D01*
X30254Y-86686D01*
X30142Y-86743D01*
X30029Y-86743D01*
X29917Y-86686D01*
X29860Y-86630D01*
X29804Y-86518D01*
X29748Y-86293D01*
X29748Y-86012D01*
X29804Y-85787D01*
X29860Y-85674D01*
X29917Y-85618D01*
X30029Y-85562D01*
X31435Y-85562D02*
X31210Y-85562D01*
X31098Y-85618D01*
X31041Y-85674D01*
X30929Y-85843D01*
X30873Y-86068D01*
X30873Y-86518D01*
X30929Y-86630D01*
X30985Y-86686D01*
X31098Y-86743D01*
X31323Y-86743D01*
X31435Y-86686D01*
X31491Y-86630D01*
X31548Y-86518D01*
X31548Y-86236D01*
X31491Y-86124D01*
X31435Y-86068D01*
X31323Y-86012D01*
X31098Y-86012D01*
X30985Y-86068D01*
X30929Y-86124D01*
X30873Y-86236D01*
X32279Y-85562D02*
X32391Y-85562D01*
X32504Y-85618D01*
X32560Y-85674D01*
X32616Y-85787D01*
X32673Y-86012D01*
X32673Y-86293D01*
X32616Y-86518D01*
X32560Y-86630D01*
X32504Y-86686D01*
X32391Y-86743D01*
X32279Y-86743D01*
X32166Y-86686D01*
X32110Y-86630D01*
X32054Y-86518D01*
X31998Y-86293D01*
X31998Y-86012D01*
X32054Y-85787D01*
X32110Y-85674D01*
X32166Y-85618D01*
X32279Y-85562D01*
X33122Y-85562D02*
X33122Y-85787D01*
X33572Y-85562D02*
X33572Y-85787D01*
X35316Y-87193D02*
X35260Y-87136D01*
X35147Y-86968D01*
X35091Y-86855D01*
X35035Y-86686D01*
X34978Y-86405D01*
X34978Y-86180D01*
X35035Y-85899D01*
X35091Y-85730D01*
X35147Y-85618D01*
X35260Y-85449D01*
X35316Y-85393D01*
X35710Y-85674D02*
X35766Y-85618D01*
X35878Y-85562D01*
X36160Y-85562D01*
X36272Y-85618D01*
X36328Y-85674D01*
X36385Y-85787D01*
X36385Y-85899D01*
X36328Y-86068D01*
X35653Y-86743D01*
X36385Y-86743D01*
X37116Y-85562D02*
X37228Y-85562D01*
X37341Y-85618D01*
X37397Y-85674D01*
X37453Y-85787D01*
X37509Y-86012D01*
X37509Y-86293D01*
X37453Y-86518D01*
X37397Y-86630D01*
X37341Y-86686D01*
X37228Y-86743D01*
X37116Y-86743D01*
X37003Y-86686D01*
X36947Y-86630D01*
X36891Y-86518D01*
X36835Y-86293D01*
X36835Y-86012D01*
X36891Y-85787D01*
X36947Y-85674D01*
X37003Y-85618D01*
X37116Y-85562D01*
X38916Y-86743D02*
X38916Y-85562D01*
X39422Y-86743D02*
X39422Y-86124D01*
X39365Y-86012D01*
X39253Y-85955D01*
X39084Y-85955D01*
X38972Y-86012D01*
X38916Y-86068D01*
X40153Y-86743D02*
X40040Y-86686D01*
X39984Y-86630D01*
X39928Y-86518D01*
X39928Y-86180D01*
X39984Y-86068D01*
X40040Y-86012D01*
X40153Y-85955D01*
X40322Y-85955D01*
X40434Y-86012D01*
X40490Y-86068D01*
X40547Y-86180D01*
X40547Y-86518D01*
X40490Y-86630D01*
X40434Y-86686D01*
X40322Y-86743D01*
X40153Y-86743D01*
X41221Y-86743D02*
X41109Y-86686D01*
X41053Y-86574D01*
X41053Y-85562D01*
X42121Y-86686D02*
X42009Y-86743D01*
X41784Y-86743D01*
X41671Y-86686D01*
X41615Y-86574D01*
X41615Y-86124D01*
X41671Y-86012D01*
X41784Y-85955D01*
X42009Y-85955D01*
X42121Y-86012D01*
X42178Y-86124D01*
X42178Y-86236D01*
X41615Y-86349D01*
X42628Y-86686D02*
X42740Y-86743D01*
X42965Y-86743D01*
X43077Y-86686D01*
X43134Y-86574D01*
X43134Y-86518D01*
X43077Y-86405D01*
X42965Y-86349D01*
X42796Y-86349D01*
X42684Y-86293D01*
X42628Y-86180D01*
X42628Y-86124D01*
X42684Y-86012D01*
X42796Y-85955D01*
X42965Y-85955D01*
X43077Y-86012D01*
X43527Y-87193D02*
X43584Y-87136D01*
X43696Y-86968D01*
X43752Y-86855D01*
X43809Y-86686D01*
X43865Y-86405D01*
X43865Y-86180D01*
X43809Y-85899D01*
X43752Y-85730D01*
X43696Y-85618D01*
X43584Y-85449D01*
X43527Y-85393D01*
X15743Y-87177D02*
X16924Y-88358D01*
X16924Y-87177D02*
X15743Y-88358D01*
G54D12*
X16752Y-88185D02*
X16752Y-87350D01*
X15916Y-87350D01*
X15916Y-88185D01*
X16752Y-88185D01*
G54D13*
X17881Y-87121D02*
X18612Y-87121D01*
X18218Y-87571D01*
X18387Y-87571D01*
X18499Y-87627D01*
X18556Y-87683D01*
X18612Y-87796D01*
X18612Y-88077D01*
X18556Y-88189D01*
X18499Y-88245D01*
X18387Y-88302D01*
X18049Y-88302D01*
X17937Y-88245D01*
X17881Y-88189D01*
X19118Y-88189D02*
X19174Y-88245D01*
X19118Y-88302D01*
X19062Y-88245D01*
X19118Y-88189D01*
X19118Y-88302D01*
X19905Y-87121D02*
X20018Y-87121D01*
X20130Y-87177D01*
X20187Y-87233D01*
X20243Y-87346D01*
X20299Y-87571D01*
X20299Y-87852D01*
X20243Y-88077D01*
X20187Y-88189D01*
X20130Y-88245D01*
X20018Y-88302D01*
X19905Y-88302D01*
X19793Y-88245D01*
X19737Y-88189D01*
X19680Y-88077D01*
X19624Y-87852D01*
X19624Y-87571D01*
X19680Y-87346D01*
X19737Y-87233D01*
X19793Y-87177D01*
X19905Y-87121D01*
X21030Y-87121D02*
X21143Y-87121D01*
X21255Y-87177D01*
X21311Y-87233D01*
X21368Y-87346D01*
X21424Y-87571D01*
X21424Y-87852D01*
X21368Y-88077D01*
X21311Y-88189D01*
X21255Y-88245D01*
X21143Y-88302D01*
X21030Y-88302D01*
X20918Y-88245D01*
X20862Y-88189D01*
X20805Y-88077D01*
X20749Y-87852D01*
X20749Y-87571D01*
X20805Y-87346D01*
X20862Y-87233D01*
X20918Y-87177D01*
X21030Y-87121D01*
X21930Y-88302D02*
X21930Y-87514D01*
X21930Y-87627D02*
X21986Y-87571D01*
X22099Y-87514D01*
X22268Y-87514D01*
X22380Y-87571D01*
X22436Y-87683D01*
X22436Y-88302D01*
X22436Y-87683D02*
X22493Y-87571D01*
X22605Y-87514D01*
X22774Y-87514D01*
X22886Y-87571D01*
X22942Y-87683D01*
X22942Y-88302D01*
X23505Y-88302D02*
X23505Y-87514D01*
X23505Y-87627D02*
X23561Y-87571D01*
X23674Y-87514D01*
X23842Y-87514D01*
X23955Y-87571D01*
X24011Y-87683D01*
X24011Y-88302D01*
X24011Y-87683D02*
X24067Y-87571D01*
X24180Y-87514D01*
X24349Y-87514D01*
X24461Y-87571D01*
X24517Y-87683D01*
X24517Y-88302D01*
X26823Y-87064D02*
X25811Y-88583D01*
X28342Y-87121D02*
X28454Y-87121D01*
X28567Y-87177D01*
X28623Y-87233D01*
X28679Y-87346D01*
X28736Y-87571D01*
X28736Y-87852D01*
X28679Y-88077D01*
X28623Y-88189D01*
X28567Y-88245D01*
X28454Y-88302D01*
X28342Y-88302D01*
X28229Y-88245D01*
X28173Y-88189D01*
X28117Y-88077D01*
X28061Y-87852D01*
X28061Y-87571D01*
X28117Y-87346D01*
X28173Y-87233D01*
X28229Y-87177D01*
X28342Y-87121D01*
X29242Y-88189D02*
X29298Y-88245D01*
X29242Y-88302D01*
X29185Y-88245D01*
X29242Y-88189D01*
X29242Y-88302D01*
X30423Y-88302D02*
X29748Y-88302D01*
X30085Y-88302D02*
X30085Y-87121D01*
X29973Y-87289D01*
X29860Y-87402D01*
X29748Y-87458D01*
X31548Y-88302D02*
X30873Y-88302D01*
X31210Y-88302D02*
X31210Y-87121D01*
X31098Y-87289D01*
X30985Y-87402D01*
X30873Y-87458D01*
X32223Y-87627D02*
X32110Y-87571D01*
X32054Y-87514D01*
X31998Y-87402D01*
X31998Y-87346D01*
X32054Y-87233D01*
X32110Y-87177D01*
X32223Y-87121D01*
X32448Y-87121D01*
X32560Y-87177D01*
X32616Y-87233D01*
X32673Y-87346D01*
X32673Y-87402D01*
X32616Y-87514D01*
X32560Y-87571D01*
X32448Y-87627D01*
X32223Y-87627D01*
X32110Y-87683D01*
X32054Y-87739D01*
X31998Y-87852D01*
X31998Y-88077D01*
X32054Y-88189D01*
X32110Y-88245D01*
X32223Y-88302D01*
X32448Y-88302D01*
X32560Y-88245D01*
X32616Y-88189D01*
X32673Y-88077D01*
X32673Y-87852D01*
X32616Y-87739D01*
X32560Y-87683D01*
X32448Y-87627D01*
X33122Y-87121D02*
X33122Y-87346D01*
X33572Y-87121D02*
X33572Y-87346D01*
X35316Y-88752D02*
X35260Y-88695D01*
X35147Y-88527D01*
X35091Y-88414D01*
X35035Y-88245D01*
X34978Y-87964D01*
X34978Y-87739D01*
X35035Y-87458D01*
X35091Y-87289D01*
X35147Y-87177D01*
X35260Y-87008D01*
X35316Y-86952D01*
X36272Y-87514D02*
X36272Y-88302D01*
X35991Y-87064D02*
X35710Y-87908D01*
X36441Y-87908D01*
X37791Y-88302D02*
X37791Y-87121D01*
X38297Y-88302D02*
X38297Y-87683D01*
X38241Y-87571D01*
X38128Y-87514D01*
X37959Y-87514D01*
X37847Y-87571D01*
X37791Y-87627D01*
X39028Y-88302D02*
X38916Y-88245D01*
X38859Y-88189D01*
X38803Y-88077D01*
X38803Y-87739D01*
X38859Y-87627D01*
X38916Y-87571D01*
X39028Y-87514D01*
X39197Y-87514D01*
X39309Y-87571D01*
X39365Y-87627D01*
X39422Y-87739D01*
X39422Y-88077D01*
X39365Y-88189D01*
X39309Y-88245D01*
X39197Y-88302D01*
X39028Y-88302D01*
X40097Y-88302D02*
X39984Y-88245D01*
X39928Y-88133D01*
X39928Y-87121D01*
X40996Y-88245D02*
X40884Y-88302D01*
X40659Y-88302D01*
X40547Y-88245D01*
X40490Y-88133D01*
X40490Y-87683D01*
X40547Y-87571D01*
X40659Y-87514D01*
X40884Y-87514D01*
X40996Y-87571D01*
X41053Y-87683D01*
X41053Y-87796D01*
X40490Y-87908D01*
X41503Y-88245D02*
X41615Y-88302D01*
X41840Y-88302D01*
X41953Y-88245D01*
X42009Y-88133D01*
X42009Y-88077D01*
X41953Y-87964D01*
X41840Y-87908D01*
X41671Y-87908D01*
X41559Y-87852D01*
X41503Y-87739D01*
X41503Y-87683D01*
X41559Y-87571D01*
X41671Y-87514D01*
X41840Y-87514D01*
X41953Y-87571D01*
X42403Y-88752D02*
X42459Y-88695D01*
X42571Y-88527D01*
X42628Y-88414D01*
X42684Y-88245D01*
X42740Y-87964D01*
X42740Y-87739D01*
X42684Y-87458D01*
X42628Y-87289D01*
X42571Y-87177D01*
X42459Y-87008D01*
X42403Y-86952D01*
X15724Y-88860D02*
X16924Y-90060D01*
X16924Y-88860D02*
X15724Y-90060D01*
G54D12*
X16324Y-90060D02*
X16924Y-89460D01*
X16324Y-88860D01*
X15724Y-89460D01*
X16324Y-90060D01*
G54D13*
X17881Y-88814D02*
X18612Y-88814D01*
X18218Y-89263D01*
X18387Y-89263D01*
X18499Y-89320D01*
X18556Y-89376D01*
X18612Y-89488D01*
X18612Y-89770D01*
X18556Y-89882D01*
X18499Y-89938D01*
X18387Y-89995D01*
X18049Y-89995D01*
X17937Y-89938D01*
X17881Y-89882D01*
X19118Y-89882D02*
X19174Y-89938D01*
X19118Y-89995D01*
X19062Y-89938D01*
X19118Y-89882D01*
X19118Y-89995D01*
X19905Y-88814D02*
X20018Y-88814D01*
X20130Y-88870D01*
X20187Y-88926D01*
X20243Y-89039D01*
X20299Y-89263D01*
X20299Y-89545D01*
X20243Y-89770D01*
X20187Y-89882D01*
X20130Y-89938D01*
X20018Y-89995D01*
X19905Y-89995D01*
X19793Y-89938D01*
X19737Y-89882D01*
X19680Y-89770D01*
X19624Y-89545D01*
X19624Y-89263D01*
X19680Y-89039D01*
X19737Y-88926D01*
X19793Y-88870D01*
X19905Y-88814D01*
X21368Y-88814D02*
X20805Y-88814D01*
X20749Y-89376D01*
X20805Y-89320D01*
X20918Y-89263D01*
X21199Y-89263D01*
X21311Y-89320D01*
X21368Y-89376D01*
X21424Y-89488D01*
X21424Y-89770D01*
X21368Y-89882D01*
X21311Y-89938D01*
X21199Y-89995D01*
X20918Y-89995D01*
X20805Y-89938D01*
X20749Y-89882D01*
X21930Y-89995D02*
X21930Y-89207D01*
X21930Y-89320D02*
X21986Y-89263D01*
X22099Y-89207D01*
X22268Y-89207D01*
X22380Y-89263D01*
X22436Y-89376D01*
X22436Y-89995D01*
X22436Y-89376D02*
X22493Y-89263D01*
X22605Y-89207D01*
X22774Y-89207D01*
X22886Y-89263D01*
X22942Y-89376D01*
X22942Y-89995D01*
X23505Y-89995D02*
X23505Y-89207D01*
X23505Y-89320D02*
X23561Y-89263D01*
X23674Y-89207D01*
X23842Y-89207D01*
X23955Y-89263D01*
X24011Y-89376D01*
X24011Y-89995D01*
X24011Y-89376D02*
X24067Y-89263D01*
X24180Y-89207D01*
X24349Y-89207D01*
X24461Y-89263D01*
X24517Y-89376D01*
X24517Y-89995D01*
X26823Y-88757D02*
X25811Y-90276D01*
X28342Y-88814D02*
X28454Y-88814D01*
X28567Y-88870D01*
X28623Y-88926D01*
X28679Y-89039D01*
X28736Y-89263D01*
X28736Y-89545D01*
X28679Y-89770D01*
X28623Y-89882D01*
X28567Y-89938D01*
X28454Y-89995D01*
X28342Y-89995D01*
X28229Y-89938D01*
X28173Y-89882D01*
X28117Y-89770D01*
X28061Y-89545D01*
X28061Y-89263D01*
X28117Y-89039D01*
X28173Y-88926D01*
X28229Y-88870D01*
X28342Y-88814D01*
X29242Y-89882D02*
X29298Y-89938D01*
X29242Y-89995D01*
X29185Y-89938D01*
X29242Y-89882D01*
X29242Y-89995D01*
X30423Y-89995D02*
X29748Y-89995D01*
X30085Y-89995D02*
X30085Y-88814D01*
X29973Y-88982D01*
X29860Y-89095D01*
X29748Y-89151D01*
X30873Y-88926D02*
X30929Y-88870D01*
X31041Y-88814D01*
X31323Y-88814D01*
X31435Y-88870D01*
X31491Y-88926D01*
X31548Y-89039D01*
X31548Y-89151D01*
X31491Y-89320D01*
X30817Y-89995D01*
X31548Y-89995D01*
X32279Y-88814D02*
X32391Y-88814D01*
X32504Y-88870D01*
X32560Y-88926D01*
X32616Y-89039D01*
X32673Y-89263D01*
X32673Y-89545D01*
X32616Y-89770D01*
X32560Y-89882D01*
X32504Y-89938D01*
X32391Y-89995D01*
X32279Y-89995D01*
X32166Y-89938D01*
X32110Y-89882D01*
X32054Y-89770D01*
X31998Y-89545D01*
X31998Y-89263D01*
X32054Y-89039D01*
X32110Y-88926D01*
X32166Y-88870D01*
X32279Y-88814D01*
X33122Y-88814D02*
X33122Y-89039D01*
X33572Y-88814D02*
X33572Y-89039D01*
X35316Y-90445D02*
X35260Y-90388D01*
X35147Y-90220D01*
X35091Y-90107D01*
X35035Y-89938D01*
X34978Y-89657D01*
X34978Y-89432D01*
X35035Y-89151D01*
X35091Y-88982D01*
X35147Y-88870D01*
X35260Y-88701D01*
X35316Y-88645D01*
X36385Y-89995D02*
X35710Y-89995D01*
X36047Y-89995D02*
X36047Y-88814D01*
X35935Y-88982D01*
X35822Y-89095D01*
X35710Y-89151D01*
X37509Y-89995D02*
X36835Y-89995D01*
X37172Y-89995D02*
X37172Y-88814D01*
X37059Y-88982D01*
X36947Y-89095D01*
X36835Y-89151D01*
X38916Y-89995D02*
X38916Y-88814D01*
X39422Y-89995D02*
X39422Y-89376D01*
X39365Y-89263D01*
X39253Y-89207D01*
X39084Y-89207D01*
X38972Y-89263D01*
X38916Y-89320D01*
X40153Y-89995D02*
X40040Y-89938D01*
X39984Y-89882D01*
X39928Y-89770D01*
X39928Y-89432D01*
X39984Y-89320D01*
X40040Y-89263D01*
X40153Y-89207D01*
X40322Y-89207D01*
X40434Y-89263D01*
X40490Y-89320D01*
X40547Y-89432D01*
X40547Y-89770D01*
X40490Y-89882D01*
X40434Y-89938D01*
X40322Y-89995D01*
X40153Y-89995D01*
X41221Y-89995D02*
X41109Y-89938D01*
X41053Y-89826D01*
X41053Y-88814D01*
X42121Y-89938D02*
X42009Y-89995D01*
X41784Y-89995D01*
X41671Y-89938D01*
X41615Y-89826D01*
X41615Y-89376D01*
X41671Y-89263D01*
X41784Y-89207D01*
X42009Y-89207D01*
X42121Y-89263D01*
X42178Y-89376D01*
X42178Y-89488D01*
X41615Y-89601D01*
X42628Y-89938D02*
X42740Y-89995D01*
X42965Y-89995D01*
X43077Y-89938D01*
X43134Y-89826D01*
X43134Y-89770D01*
X43077Y-89657D01*
X42965Y-89601D01*
X42796Y-89601D01*
X42684Y-89545D01*
X42628Y-89432D01*
X42628Y-89376D01*
X42684Y-89263D01*
X42796Y-89207D01*
X42965Y-89207D01*
X43077Y-89263D01*
X43527Y-90445D02*
X43584Y-90388D01*
X43696Y-90220D01*
X43752Y-90107D01*
X43809Y-89938D01*
X43865Y-89657D01*
X43865Y-89432D01*
X43809Y-89151D01*
X43752Y-88982D01*
X43696Y-88870D01*
X43584Y-88701D01*
X43527Y-88645D01*
X15724Y-89972D02*
X15724Y-92372D01*
X14524Y-91172D02*
X16924Y-91172D01*
G54D12*
X16924Y-91172D02*
G75*
G03X16924Y-91172I-1200J0D01*
G74*
G01*
G54D13*
X18499Y-90525D02*
X18274Y-90525D01*
X18162Y-90582D01*
X18106Y-90638D01*
X17993Y-90807D01*
X17937Y-91032D01*
X17937Y-91481D01*
X17993Y-91594D01*
X18049Y-91650D01*
X18162Y-91706D01*
X18387Y-91706D01*
X18499Y-91650D01*
X18556Y-91594D01*
X18612Y-91481D01*
X18612Y-91200D01*
X18556Y-91088D01*
X18499Y-91032D01*
X18387Y-90975D01*
X18162Y-90975D01*
X18049Y-91032D01*
X17993Y-91088D01*
X17937Y-91200D01*
X19118Y-91594D02*
X19174Y-91650D01*
X19118Y-91706D01*
X19062Y-91650D01*
X19118Y-91594D01*
X19118Y-91706D01*
X20299Y-91706D02*
X19624Y-91706D01*
X19962Y-91706D02*
X19962Y-90525D01*
X19849Y-90694D01*
X19737Y-90807D01*
X19624Y-90863D01*
X21030Y-90525D02*
X21143Y-90525D01*
X21255Y-90582D01*
X21311Y-90638D01*
X21368Y-90750D01*
X21424Y-90975D01*
X21424Y-91257D01*
X21368Y-91481D01*
X21311Y-91594D01*
X21255Y-91650D01*
X21143Y-91706D01*
X21030Y-91706D01*
X20918Y-91650D01*
X20862Y-91594D01*
X20805Y-91481D01*
X20749Y-91257D01*
X20749Y-90975D01*
X20805Y-90750D01*
X20862Y-90638D01*
X20918Y-90582D01*
X21030Y-90525D01*
X21930Y-91706D02*
X21930Y-90919D01*
X21930Y-91032D02*
X21986Y-90975D01*
X22099Y-90919D01*
X22268Y-90919D01*
X22380Y-90975D01*
X22436Y-91088D01*
X22436Y-91706D01*
X22436Y-91088D02*
X22493Y-90975D01*
X22605Y-90919D01*
X22774Y-90919D01*
X22886Y-90975D01*
X22942Y-91088D01*
X22942Y-91706D01*
X23505Y-91706D02*
X23505Y-90919D01*
X23505Y-91032D02*
X23561Y-90975D01*
X23674Y-90919D01*
X23842Y-90919D01*
X23955Y-90975D01*
X24011Y-91088D01*
X24011Y-91706D01*
X24011Y-91088D02*
X24067Y-90975D01*
X24180Y-90919D01*
X24349Y-90919D01*
X24461Y-90975D01*
X24517Y-91088D01*
X24517Y-91706D01*
X26823Y-90469D02*
X25811Y-91988D01*
X28342Y-90525D02*
X28454Y-90525D01*
X28567Y-90582D01*
X28623Y-90638D01*
X28679Y-90750D01*
X28736Y-90975D01*
X28736Y-91257D01*
X28679Y-91481D01*
X28623Y-91594D01*
X28567Y-91650D01*
X28454Y-91706D01*
X28342Y-91706D01*
X28229Y-91650D01*
X28173Y-91594D01*
X28117Y-91481D01*
X28061Y-91257D01*
X28061Y-90975D01*
X28117Y-90750D01*
X28173Y-90638D01*
X28229Y-90582D01*
X28342Y-90525D01*
X29242Y-91594D02*
X29298Y-91650D01*
X29242Y-91706D01*
X29185Y-91650D01*
X29242Y-91594D01*
X29242Y-91706D01*
X29748Y-90638D02*
X29804Y-90582D01*
X29917Y-90525D01*
X30198Y-90525D01*
X30310Y-90582D01*
X30367Y-90638D01*
X30423Y-90750D01*
X30423Y-90863D01*
X30367Y-91032D01*
X29692Y-91706D01*
X30423Y-91706D01*
X31435Y-90919D02*
X31435Y-91706D01*
X31154Y-90469D02*
X30873Y-91313D01*
X31604Y-91313D01*
X32279Y-90525D02*
X32391Y-90525D01*
X32504Y-90582D01*
X32560Y-90638D01*
X32616Y-90750D01*
X32673Y-90975D01*
X32673Y-91257D01*
X32616Y-91481D01*
X32560Y-91594D01*
X32504Y-91650D01*
X32391Y-91706D01*
X32279Y-91706D01*
X32166Y-91650D01*
X32110Y-91594D01*
X32054Y-91481D01*
X31998Y-91257D01*
X31998Y-90975D01*
X32054Y-90750D01*
X32110Y-90638D01*
X32166Y-90582D01*
X32279Y-90525D01*
X33122Y-90525D02*
X33122Y-90750D01*
X33572Y-90525D02*
X33572Y-90750D01*
X35316Y-92156D02*
X35260Y-92100D01*
X35147Y-91931D01*
X35091Y-91819D01*
X35035Y-91650D01*
X34978Y-91369D01*
X34978Y-91144D01*
X35035Y-90863D01*
X35091Y-90694D01*
X35147Y-90582D01*
X35260Y-90413D01*
X35316Y-90357D01*
X36272Y-90919D02*
X36272Y-91706D01*
X35991Y-90469D02*
X35710Y-91313D01*
X36441Y-91313D01*
X37791Y-91706D02*
X37791Y-90525D01*
X38297Y-91706D02*
X38297Y-91088D01*
X38241Y-90975D01*
X38128Y-90919D01*
X37959Y-90919D01*
X37847Y-90975D01*
X37791Y-91032D01*
X39028Y-91706D02*
X38916Y-91650D01*
X38859Y-91594D01*
X38803Y-91481D01*
X38803Y-91144D01*
X38859Y-91032D01*
X38916Y-90975D01*
X39028Y-90919D01*
X39197Y-90919D01*
X39309Y-90975D01*
X39365Y-91032D01*
X39422Y-91144D01*
X39422Y-91481D01*
X39365Y-91594D01*
X39309Y-91650D01*
X39197Y-91706D01*
X39028Y-91706D01*
X40097Y-91706D02*
X39984Y-91650D01*
X39928Y-91538D01*
X39928Y-90525D01*
X40996Y-91650D02*
X40884Y-91706D01*
X40659Y-91706D01*
X40547Y-91650D01*
X40490Y-91538D01*
X40490Y-91088D01*
X40547Y-90975D01*
X40659Y-90919D01*
X40884Y-90919D01*
X40996Y-90975D01*
X41053Y-91088D01*
X41053Y-91200D01*
X40490Y-91313D01*
X41503Y-91650D02*
X41615Y-91706D01*
X41840Y-91706D01*
X41953Y-91650D01*
X42009Y-91538D01*
X42009Y-91481D01*
X41953Y-91369D01*
X41840Y-91313D01*
X41671Y-91313D01*
X41559Y-91257D01*
X41503Y-91144D01*
X41503Y-91088D01*
X41559Y-90975D01*
X41671Y-90919D01*
X41840Y-90919D01*
X41953Y-90975D01*
X42403Y-92156D02*
X42459Y-92100D01*
X42571Y-91931D01*
X42628Y-91819D01*
X42684Y-91650D01*
X42740Y-91369D01*
X42740Y-91144D01*
X42684Y-90863D01*
X42628Y-90694D01*
X42571Y-90582D01*
X42459Y-90413D01*
X42403Y-90357D01*
M02*
