M48
;DRILL file {Pcbnew (2013-mar-13)-testing} date mar 28 may 2013 16:21:31 ART
;FORMAT={-:-/ absolute / metric / decimal}
FMAT,2
METRIC,TZ
T1C0.635
T2C0.813
T3C0.813
T4C1.001
T5C1.016
T6C1.100
T7C1.524
T8C3.000
T9C3.048
T10C6.096
%
G90
G05
M71
T1
X70.5Y-82.25
X70.5Y-89.
X85.7Y-89.7
X92.5Y-78.5
X92.75Y-69.
X94.75Y-69.
X97.25Y-69.25
X98.Y-88.75
X106.5Y-70.
T2
X61.824Y-80.622
X61.824Y-88.242
X64.364Y-80.622
X64.364Y-88.242
X66.904Y-80.622
X66.904Y-88.242
X75.794Y-80.559
X75.794Y-88.179
X78.334Y-80.559
X78.334Y-88.179
X80.874Y-80.559
X80.874Y-88.179
X88.621Y-80.178
X88.621Y-87.798
X91.161Y-80.178
X91.161Y-87.798
X93.701Y-80.178
X93.701Y-87.798
X96.241Y-80.178
X96.241Y-87.798
X97.098Y-104.784
X97.098Y-107.324
X99.638Y-107.324
X101.13Y-80.305
X101.13Y-87.925
X103.67Y-80.305
X103.67Y-87.925
X106.21Y-80.305
X106.21Y-87.925
X108.75Y-80.305
X108.75Y-87.925
X113.544Y-108.403
X116.084Y-105.863
X116.084Y-108.403
X193.04Y-111.76
X193.04Y-121.92
X203.644Y-36.271
X213.804Y-36.271
T3
X89.51Y-74.259
X89.51Y-76.799
X104.Y-100.472
X104.Y-103.012
X110.985Y-100.46
X110.985Y-103.
X193.04Y-76.2
X193.04Y-86.36
X193.04Y-91.44
X193.04Y-101.6
T4
X72.05Y-80.4
X74.5Y-68.3
X90.78Y-102.276
X92.6Y-96.3
X97.85Y-99.7
X101.765Y-106.34
X105.08Y-125.349
X108.1Y-110.65
X113.4Y-96.95
X113.45Y-88.5
X115.176Y-140.703
X226.035Y-100.117
X226.035Y-129.327
T5
X76.746Y-70.716
X76.746Y-73.256
X79.286Y-70.716
X79.286Y-73.256
X81.826Y-70.716
X81.826Y-73.256
X84.366Y-70.716
X84.366Y-73.256
T6
X218.114Y-80.162
X218.114Y-91.162
X235.114Y-74.162
X235.114Y-91.162
T7
X54.16Y-150.1
X59.24Y-150.1
X60.427Y-70.97
X65.16Y-150.1
X65.507Y-70.97
X70.24Y-150.1
X70.587Y-70.97
X77.445Y-150.244
X82.525Y-150.244
X88.113Y-150.307
X93.193Y-150.307
X99.511Y-150.339
X104.591Y-150.339
X109.671Y-150.339
X120.65Y-89.662
X120.65Y-94.742
X120.65Y-99.822
X187.198Y-83.566
X187.198Y-88.646
X187.198Y-93.726
T8
X226.035Y-136.584
X226.035Y-144.584
X226.035Y-162.584
X226.035Y-170.584
T9
X48.26Y-68.58
X48.26Y-152.4
X121.92Y-68.58
X121.92Y-152.4
X177.8Y-180.34
X181.356Y-29.21
X193.04Y-129.54
X224.472Y-36.093
X261.087Y-35.982
X271.78Y-180.34
X272.034Y-29.21
T10
X260.642Y-67.224
X260.642Y-97.196
X260.833Y-132.311
X260.833Y-162.283
T0
M30
