G04 (created by PCBNEW (2013-mar-13)-testing) date mar 28 may 2013 16:21:42 ART*
%MOIN*%
G04 Gerber Fmt 3.4, Leading zero omitted, Abs format*
%FSLAX34Y34*%
G01*
G70*
G90*
G04 APERTURE LIST*
%ADD10C,0.005906*%
%ADD11C,0.012000*%
%ADD12C,0.015000*%
%ADD13C,0.160000*%
%ADD14C,0.118100*%
%ADD15R,0.055000X0.055000*%
%ADD16C,0.055000*%
%ADD17R,0.055100X0.023600*%
%ADD18R,0.055000X0.035000*%
%ADD19R,0.035000X0.055000*%
%ADD20R,0.081000X0.031400*%
%ADD21C,0.070000*%
%ADD22R,0.062000X0.090000*%
%ADD23O,0.062000X0.090000*%
%ADD24C,0.196850*%
%ADD25R,0.100000X0.100000*%
%ADD26C,0.100000*%
%ADD27R,0.173200X0.074800*%
%ADD28R,0.060000X0.060000*%
%ADD29C,0.060000*%
%ADD30C,0.400000*%
%ADD31C,0.066000*%
%ADD32C,0.035000*%
%ADD33C,0.078700*%
%ADD34C,0.027600*%
%ADD35C,0.019700*%
%ADD36C,0.039400*%
%ADD37C,0.157480*%
%ADD38C,0.031500*%
%ADD39C,0.010000*%
G04 APERTURE END LIST*
G54D10*
G54D11*
X81254Y-17580D02*
X81054Y-17580D01*
X81054Y-17999D02*
X81054Y-17199D01*
X81340Y-17199D01*
X81825Y-17999D02*
X81825Y-17580D01*
X81797Y-17504D01*
X81740Y-17466D01*
X81625Y-17466D01*
X81568Y-17504D01*
X81825Y-17961D02*
X81768Y-17999D01*
X81625Y-17999D01*
X81568Y-17961D01*
X81540Y-17885D01*
X81540Y-17809D01*
X81568Y-17733D01*
X81625Y-17694D01*
X81768Y-17694D01*
X81825Y-17656D01*
X82368Y-17961D02*
X82311Y-17999D01*
X82197Y-17999D01*
X82140Y-17961D01*
X82111Y-17923D01*
X82083Y-17847D01*
X82083Y-17618D01*
X82111Y-17542D01*
X82140Y-17504D01*
X82197Y-17466D01*
X82311Y-17466D01*
X82368Y-17504D01*
X82883Y-17466D02*
X82883Y-17999D01*
X82625Y-17466D02*
X82625Y-17885D01*
X82654Y-17961D01*
X82711Y-17999D01*
X82797Y-17999D01*
X82854Y-17961D01*
X82883Y-17923D01*
X83168Y-17466D02*
X83168Y-17999D01*
X83168Y-17542D02*
X83197Y-17504D01*
X83254Y-17466D01*
X83340Y-17466D01*
X83397Y-17504D01*
X83425Y-17580D01*
X83425Y-17999D01*
X83968Y-17999D02*
X83968Y-17199D01*
X83968Y-17961D02*
X83911Y-17999D01*
X83797Y-17999D01*
X83740Y-17961D01*
X83711Y-17923D01*
X83683Y-17847D01*
X83683Y-17618D01*
X83711Y-17542D01*
X83740Y-17504D01*
X83797Y-17466D01*
X83911Y-17466D01*
X83968Y-17504D01*
X84340Y-17999D02*
X84283Y-17961D01*
X84254Y-17923D01*
X84225Y-17847D01*
X84225Y-17618D01*
X84254Y-17542D01*
X84283Y-17504D01*
X84340Y-17466D01*
X84425Y-17466D01*
X84483Y-17504D01*
X84511Y-17542D01*
X84540Y-17618D01*
X84540Y-17847D01*
X84511Y-17923D01*
X84483Y-17961D01*
X84425Y-17999D01*
X84340Y-17999D01*
X85254Y-17999D02*
X85254Y-17199D01*
X85597Y-17999D01*
X85597Y-17199D01*
X86140Y-17999D02*
X86140Y-17580D01*
X86111Y-17504D01*
X86054Y-17466D01*
X85940Y-17466D01*
X85883Y-17504D01*
X86140Y-17961D02*
X86083Y-17999D01*
X85940Y-17999D01*
X85883Y-17961D01*
X85854Y-17885D01*
X85854Y-17809D01*
X85883Y-17733D01*
X85940Y-17694D01*
X86083Y-17694D01*
X86140Y-17656D01*
X86425Y-17999D02*
X86425Y-17199D01*
X86683Y-17999D02*
X86683Y-17580D01*
X86654Y-17504D01*
X86597Y-17466D01*
X86511Y-17466D01*
X86454Y-17504D01*
X86425Y-17542D01*
X87225Y-17466D02*
X87225Y-17999D01*
X86968Y-17466D02*
X86968Y-17885D01*
X86997Y-17961D01*
X87054Y-17999D01*
X87140Y-17999D01*
X87197Y-17961D01*
X87225Y-17923D01*
X87740Y-17961D02*
X87683Y-17999D01*
X87568Y-17999D01*
X87511Y-17961D01*
X87483Y-17885D01*
X87483Y-17580D01*
X87511Y-17504D01*
X87568Y-17466D01*
X87683Y-17466D01*
X87740Y-17504D01*
X87768Y-17580D01*
X87768Y-17656D01*
X87483Y-17733D01*
X88111Y-17999D02*
X88054Y-17961D01*
X88025Y-17885D01*
X88025Y-17199D01*
X88797Y-17199D02*
X88797Y-17847D01*
X88825Y-17923D01*
X88854Y-17961D01*
X88911Y-17999D01*
X89025Y-17999D01*
X89083Y-17961D01*
X89111Y-17923D01*
X89140Y-17847D01*
X89140Y-17199D01*
X89425Y-17999D02*
X89425Y-17466D01*
X89425Y-17618D02*
X89454Y-17542D01*
X89483Y-17504D01*
X89540Y-17466D01*
X89597Y-17466D01*
X89797Y-17999D02*
X89797Y-17466D01*
X89797Y-17199D02*
X89768Y-17237D01*
X89797Y-17275D01*
X89825Y-17237D01*
X89797Y-17199D01*
X89797Y-17275D01*
X90311Y-17961D02*
X90254Y-17999D01*
X90140Y-17999D01*
X90083Y-17961D01*
X90054Y-17885D01*
X90054Y-17580D01*
X90083Y-17504D01*
X90140Y-17466D01*
X90254Y-17466D01*
X90311Y-17504D01*
X90340Y-17580D01*
X90340Y-17656D01*
X90054Y-17733D01*
X90683Y-17999D02*
X90625Y-17961D01*
X90597Y-17885D01*
X90597Y-17199D01*
X91340Y-17961D02*
X91425Y-17999D01*
X91568Y-17999D01*
X91625Y-17961D01*
X91654Y-17923D01*
X91683Y-17847D01*
X91683Y-17771D01*
X91654Y-17694D01*
X91625Y-17656D01*
X91568Y-17618D01*
X91454Y-17580D01*
X91397Y-17542D01*
X91368Y-17504D01*
X91340Y-17428D01*
X91340Y-17352D01*
X91368Y-17275D01*
X91397Y-17237D01*
X91454Y-17199D01*
X91597Y-17199D01*
X91683Y-17237D01*
X91940Y-17999D02*
X91940Y-17466D01*
X91940Y-17199D02*
X91911Y-17237D01*
X91940Y-17275D01*
X91968Y-17237D01*
X91940Y-17199D01*
X91940Y-17275D01*
X92311Y-17999D02*
X92254Y-17961D01*
X92225Y-17885D01*
X92225Y-17199D01*
X92483Y-17466D02*
X92625Y-17999D01*
X92768Y-17466D01*
X93254Y-17999D02*
X93254Y-17580D01*
X93225Y-17504D01*
X93168Y-17466D01*
X93054Y-17466D01*
X92997Y-17504D01*
X93254Y-17961D02*
X93197Y-17999D01*
X93054Y-17999D01*
X92997Y-17961D01*
X92968Y-17885D01*
X92968Y-17809D01*
X92997Y-17733D01*
X93054Y-17694D01*
X93197Y-17694D01*
X93254Y-17656D01*
X93997Y-17694D02*
X94454Y-17694D01*
X95111Y-17466D02*
X95340Y-17466D01*
X95197Y-17999D02*
X95197Y-17313D01*
X95225Y-17237D01*
X95283Y-17199D01*
X95340Y-17199D01*
X95797Y-17999D02*
X95797Y-17580D01*
X95768Y-17504D01*
X95711Y-17466D01*
X95597Y-17466D01*
X95540Y-17504D01*
X95797Y-17961D02*
X95740Y-17999D01*
X95597Y-17999D01*
X95540Y-17961D01*
X95511Y-17885D01*
X95511Y-17809D01*
X95540Y-17733D01*
X95597Y-17694D01*
X95740Y-17694D01*
X95797Y-17656D01*
X96083Y-17466D02*
X96083Y-17999D01*
X96083Y-17542D02*
X96111Y-17504D01*
X96168Y-17466D01*
X96254Y-17466D01*
X96311Y-17504D01*
X96340Y-17580D01*
X96340Y-17999D01*
X96883Y-17999D02*
X96883Y-17580D01*
X96854Y-17504D01*
X96797Y-17466D01*
X96683Y-17466D01*
X96625Y-17504D01*
X96883Y-17961D02*
X96825Y-17999D01*
X96683Y-17999D01*
X96625Y-17961D01*
X96597Y-17885D01*
X96597Y-17809D01*
X96625Y-17733D01*
X96683Y-17694D01*
X96825Y-17694D01*
X96883Y-17656D01*
X97425Y-17466D02*
X97425Y-17999D01*
X97168Y-17466D02*
X97168Y-17885D01*
X97197Y-17961D01*
X97254Y-17999D01*
X97340Y-17999D01*
X97397Y-17961D01*
X97425Y-17923D01*
X97711Y-17999D02*
X97711Y-17466D01*
X97711Y-17618D02*
X97740Y-17542D01*
X97768Y-17504D01*
X97825Y-17466D01*
X97883Y-17466D01*
X98454Y-17618D02*
X98425Y-17580D01*
X98368Y-17542D01*
X98311Y-17542D01*
X98254Y-17580D01*
X98225Y-17618D01*
X98197Y-17694D01*
X98197Y-17771D01*
X98225Y-17847D01*
X98254Y-17885D01*
X98311Y-17923D01*
X98368Y-17923D01*
X98425Y-17885D01*
X98454Y-17847D01*
X98454Y-17542D02*
X98454Y-17847D01*
X98483Y-17885D01*
X98511Y-17885D01*
X98568Y-17847D01*
X98597Y-17771D01*
X98597Y-17580D01*
X98540Y-17466D01*
X98454Y-17390D01*
X98340Y-17352D01*
X98225Y-17390D01*
X98140Y-17466D01*
X98083Y-17580D01*
X98054Y-17733D01*
X98083Y-17885D01*
X98140Y-17999D01*
X98225Y-18075D01*
X98340Y-18113D01*
X98454Y-18075D01*
X98540Y-17999D01*
X99111Y-17466D02*
X99111Y-18113D01*
X99083Y-18190D01*
X99054Y-18228D01*
X98997Y-18266D01*
X98911Y-18266D01*
X98854Y-18228D01*
X99111Y-17961D02*
X99054Y-17999D01*
X98940Y-17999D01*
X98883Y-17961D01*
X98854Y-17923D01*
X98825Y-17847D01*
X98825Y-17618D01*
X98854Y-17542D01*
X98883Y-17504D01*
X98940Y-17466D01*
X99054Y-17466D01*
X99111Y-17504D01*
X99397Y-17999D02*
X99397Y-17466D01*
X99397Y-17542D02*
X99425Y-17504D01*
X99483Y-17466D01*
X99568Y-17466D01*
X99625Y-17504D01*
X99654Y-17580D01*
X99654Y-17999D01*
X99654Y-17580D02*
X99683Y-17504D01*
X99740Y-17466D01*
X99825Y-17466D01*
X99883Y-17504D01*
X99911Y-17580D01*
X99911Y-17999D01*
X100454Y-17999D02*
X100454Y-17580D01*
X100425Y-17504D01*
X100368Y-17466D01*
X100254Y-17466D01*
X100197Y-17504D01*
X100454Y-17961D02*
X100397Y-17999D01*
X100254Y-17999D01*
X100197Y-17961D01*
X100168Y-17885D01*
X100168Y-17809D01*
X100197Y-17733D01*
X100254Y-17694D01*
X100397Y-17694D01*
X100454Y-17656D01*
X100740Y-17999D02*
X100740Y-17466D01*
X100740Y-17199D02*
X100711Y-17237D01*
X100740Y-17275D01*
X100768Y-17237D01*
X100740Y-17199D01*
X100740Y-17275D01*
X101111Y-17999D02*
X101054Y-17961D01*
X101025Y-17885D01*
X101025Y-17199D01*
X101340Y-17923D02*
X101368Y-17961D01*
X101340Y-17999D01*
X101311Y-17961D01*
X101340Y-17923D01*
X101340Y-17999D01*
X101883Y-17961D02*
X101825Y-17999D01*
X101711Y-17999D01*
X101654Y-17961D01*
X101625Y-17923D01*
X101597Y-17847D01*
X101597Y-17618D01*
X101625Y-17542D01*
X101654Y-17504D01*
X101711Y-17466D01*
X101825Y-17466D01*
X101883Y-17504D01*
X102225Y-17999D02*
X102168Y-17961D01*
X102140Y-17923D01*
X102111Y-17847D01*
X102111Y-17618D01*
X102140Y-17542D01*
X102168Y-17504D01*
X102225Y-17466D01*
X102311Y-17466D01*
X102368Y-17504D01*
X102397Y-17542D01*
X102425Y-17618D01*
X102425Y-17847D01*
X102397Y-17923D01*
X102368Y-17961D01*
X102311Y-17999D01*
X102225Y-17999D01*
X102683Y-17999D02*
X102683Y-17466D01*
X102683Y-17542D02*
X102711Y-17504D01*
X102768Y-17466D01*
X102854Y-17466D01*
X102911Y-17504D01*
X102940Y-17580D01*
X102940Y-17999D01*
X102940Y-17580D02*
X102968Y-17504D01*
X103025Y-17466D01*
X103111Y-17466D01*
X103168Y-17504D01*
X103197Y-17580D01*
X103197Y-17999D01*
X81111Y-18820D02*
X81311Y-18820D01*
X81397Y-19239D02*
X81111Y-19239D01*
X81111Y-18439D01*
X81397Y-18439D01*
X81625Y-19201D02*
X81683Y-19239D01*
X81797Y-19239D01*
X81854Y-19201D01*
X81883Y-19125D01*
X81883Y-19087D01*
X81854Y-19011D01*
X81797Y-18973D01*
X81711Y-18973D01*
X81654Y-18934D01*
X81625Y-18858D01*
X81625Y-18820D01*
X81654Y-18744D01*
X81711Y-18706D01*
X81797Y-18706D01*
X81854Y-18744D01*
X82054Y-18706D02*
X82283Y-18706D01*
X82140Y-18439D02*
X82140Y-19125D01*
X82168Y-19201D01*
X82225Y-19239D01*
X82283Y-19239D01*
X82740Y-19239D02*
X82740Y-18820D01*
X82711Y-18744D01*
X82654Y-18706D01*
X82540Y-18706D01*
X82483Y-18744D01*
X82740Y-19201D02*
X82683Y-19239D01*
X82540Y-19239D01*
X82483Y-19201D01*
X82454Y-19125D01*
X82454Y-19049D01*
X82483Y-18973D01*
X82540Y-18934D01*
X82683Y-18934D01*
X82740Y-18896D01*
X83025Y-18706D02*
X83025Y-19239D01*
X83025Y-18782D02*
X83054Y-18744D01*
X83111Y-18706D01*
X83197Y-18706D01*
X83254Y-18744D01*
X83283Y-18820D01*
X83283Y-19239D01*
X83568Y-19239D02*
X83568Y-18706D01*
X83568Y-18439D02*
X83540Y-18477D01*
X83568Y-18515D01*
X83597Y-18477D01*
X83568Y-18439D01*
X83568Y-18515D01*
X83825Y-19201D02*
X83883Y-19239D01*
X83997Y-19239D01*
X84054Y-19201D01*
X84083Y-19125D01*
X84083Y-19087D01*
X84054Y-19011D01*
X83997Y-18973D01*
X83911Y-18973D01*
X83854Y-18934D01*
X83825Y-18858D01*
X83825Y-18820D01*
X83854Y-18744D01*
X83911Y-18706D01*
X83997Y-18706D01*
X84054Y-18744D01*
X84425Y-19239D02*
X84368Y-19201D01*
X84340Y-19125D01*
X84340Y-18439D01*
X84911Y-19239D02*
X84911Y-18820D01*
X84883Y-18744D01*
X84825Y-18706D01*
X84711Y-18706D01*
X84654Y-18744D01*
X84911Y-19201D02*
X84854Y-19239D01*
X84711Y-19239D01*
X84654Y-19201D01*
X84625Y-19125D01*
X84625Y-19049D01*
X84654Y-18973D01*
X84711Y-18934D01*
X84854Y-18934D01*
X84911Y-18896D01*
X85283Y-19239D02*
X85225Y-19201D01*
X85197Y-19163D01*
X85168Y-19087D01*
X85168Y-18858D01*
X85197Y-18782D01*
X85225Y-18744D01*
X85283Y-18706D01*
X85368Y-18706D01*
X85425Y-18744D01*
X85454Y-18782D01*
X85483Y-18858D01*
X85483Y-19087D01*
X85454Y-19163D01*
X85425Y-19201D01*
X85368Y-19239D01*
X85283Y-19239D01*
X86483Y-19239D02*
X86197Y-19239D01*
X86197Y-18439D01*
X86768Y-19239D02*
X86711Y-19201D01*
X86683Y-19163D01*
X86654Y-19087D01*
X86654Y-18858D01*
X86683Y-18782D01*
X86711Y-18744D01*
X86768Y-18706D01*
X86854Y-18706D01*
X86911Y-18744D01*
X86940Y-18782D01*
X86968Y-18858D01*
X86968Y-19087D01*
X86940Y-19163D01*
X86911Y-19201D01*
X86854Y-19239D01*
X86768Y-19239D01*
X86883Y-18401D02*
X86797Y-18515D01*
X87225Y-18706D02*
X87225Y-19506D01*
X87225Y-18744D02*
X87283Y-18706D01*
X87397Y-18706D01*
X87454Y-18744D01*
X87483Y-18782D01*
X87511Y-18858D01*
X87511Y-19087D01*
X87483Y-19163D01*
X87454Y-19201D01*
X87397Y-19239D01*
X87283Y-19239D01*
X87225Y-19201D01*
X87997Y-19201D02*
X87940Y-19239D01*
X87825Y-19239D01*
X87768Y-19201D01*
X87740Y-19125D01*
X87740Y-18820D01*
X87768Y-18744D01*
X87825Y-18706D01*
X87940Y-18706D01*
X87997Y-18744D01*
X88025Y-18820D01*
X88025Y-18896D01*
X87740Y-18973D01*
X88225Y-18706D02*
X88540Y-18706D01*
X88225Y-19239D01*
X88540Y-19239D01*
X89225Y-19239D02*
X89225Y-18439D01*
X89425Y-19011D01*
X89625Y-18439D01*
X89625Y-19239D01*
X89997Y-19239D02*
X89940Y-19201D01*
X89911Y-19163D01*
X89883Y-19087D01*
X89883Y-18858D01*
X89911Y-18782D01*
X89940Y-18744D01*
X89997Y-18706D01*
X90083Y-18706D01*
X90140Y-18744D01*
X90168Y-18782D01*
X90197Y-18858D01*
X90197Y-19087D01*
X90168Y-19163D01*
X90140Y-19201D01*
X90083Y-19239D01*
X89997Y-19239D01*
X90454Y-19239D02*
X90454Y-18706D01*
X90454Y-18858D02*
X90483Y-18782D01*
X90511Y-18744D01*
X90568Y-18706D01*
X90625Y-18706D01*
X91083Y-18706D02*
X91083Y-19353D01*
X91054Y-19430D01*
X91025Y-19468D01*
X90968Y-19506D01*
X90883Y-19506D01*
X90825Y-19468D01*
X91083Y-19201D02*
X91025Y-19239D01*
X90911Y-19239D01*
X90854Y-19201D01*
X90825Y-19163D01*
X90797Y-19087D01*
X90797Y-18858D01*
X90825Y-18782D01*
X90854Y-18744D01*
X90911Y-18706D01*
X91025Y-18706D01*
X91083Y-18744D01*
X91625Y-19239D02*
X91625Y-18820D01*
X91597Y-18744D01*
X91540Y-18706D01*
X91425Y-18706D01*
X91368Y-18744D01*
X91625Y-19201D02*
X91568Y-19239D01*
X91425Y-19239D01*
X91368Y-19201D01*
X91340Y-19125D01*
X91340Y-19049D01*
X91368Y-18973D01*
X91425Y-18934D01*
X91568Y-18934D01*
X91625Y-18896D01*
X91911Y-18706D02*
X91911Y-19239D01*
X91911Y-18782D02*
X91940Y-18744D01*
X91997Y-18706D01*
X92083Y-18706D01*
X92140Y-18744D01*
X92168Y-18820D01*
X92168Y-19239D01*
X93368Y-18934D02*
X93825Y-18934D01*
X95254Y-19201D02*
X95197Y-19239D01*
X95083Y-19239D01*
X95025Y-19201D01*
X94997Y-19125D01*
X94997Y-18820D01*
X95025Y-18744D01*
X95083Y-18706D01*
X95197Y-18706D01*
X95254Y-18744D01*
X95283Y-18820D01*
X95283Y-18896D01*
X94997Y-18973D01*
X95511Y-19201D02*
X95568Y-19239D01*
X95683Y-19239D01*
X95740Y-19201D01*
X95768Y-19125D01*
X95768Y-19087D01*
X95740Y-19011D01*
X95683Y-18973D01*
X95597Y-18973D01*
X95540Y-18934D01*
X95511Y-18858D01*
X95511Y-18820D01*
X95540Y-18744D01*
X95597Y-18706D01*
X95683Y-18706D01*
X95740Y-18744D01*
X95940Y-18706D02*
X96168Y-18706D01*
X96025Y-18439D02*
X96025Y-19125D01*
X96054Y-19201D01*
X96111Y-19239D01*
X96168Y-19239D01*
X96625Y-19239D02*
X96625Y-18820D01*
X96597Y-18744D01*
X96540Y-18706D01*
X96425Y-18706D01*
X96368Y-18744D01*
X96625Y-19201D02*
X96568Y-19239D01*
X96425Y-19239D01*
X96368Y-19201D01*
X96340Y-19125D01*
X96340Y-19049D01*
X96368Y-18973D01*
X96425Y-18934D01*
X96568Y-18934D01*
X96625Y-18896D01*
X96911Y-18706D02*
X96911Y-19239D01*
X96911Y-18782D02*
X96940Y-18744D01*
X96997Y-18706D01*
X97083Y-18706D01*
X97140Y-18744D01*
X97168Y-18820D01*
X97168Y-19239D01*
X97711Y-18706D02*
X97711Y-19239D01*
X97454Y-18706D02*
X97454Y-19125D01*
X97483Y-19201D01*
X97540Y-19239D01*
X97625Y-19239D01*
X97683Y-19201D01*
X97711Y-19163D01*
X97940Y-19239D02*
X98254Y-18706D01*
X97940Y-18706D02*
X98254Y-19239D01*
X98854Y-18858D02*
X98825Y-18820D01*
X98768Y-18782D01*
X98711Y-18782D01*
X98654Y-18820D01*
X98625Y-18858D01*
X98597Y-18934D01*
X98597Y-19011D01*
X98625Y-19087D01*
X98654Y-19125D01*
X98711Y-19163D01*
X98768Y-19163D01*
X98825Y-19125D01*
X98854Y-19087D01*
X98854Y-18782D02*
X98854Y-19087D01*
X98883Y-19125D01*
X98911Y-19125D01*
X98968Y-19087D01*
X98997Y-19011D01*
X98997Y-18820D01*
X98940Y-18706D01*
X98854Y-18630D01*
X98740Y-18592D01*
X98625Y-18630D01*
X98540Y-18706D01*
X98483Y-18820D01*
X98454Y-18973D01*
X98483Y-19125D01*
X98540Y-19239D01*
X98625Y-19315D01*
X98740Y-19353D01*
X98854Y-19315D01*
X98940Y-19239D01*
X99511Y-18706D02*
X99511Y-19353D01*
X99483Y-19430D01*
X99454Y-19468D01*
X99397Y-19506D01*
X99311Y-19506D01*
X99254Y-19468D01*
X99511Y-19201D02*
X99454Y-19239D01*
X99340Y-19239D01*
X99283Y-19201D01*
X99254Y-19163D01*
X99225Y-19087D01*
X99225Y-18858D01*
X99254Y-18782D01*
X99283Y-18744D01*
X99340Y-18706D01*
X99454Y-18706D01*
X99511Y-18744D01*
X99797Y-19239D02*
X99797Y-18706D01*
X99797Y-18782D02*
X99825Y-18744D01*
X99883Y-18706D01*
X99968Y-18706D01*
X100025Y-18744D01*
X100054Y-18820D01*
X100054Y-19239D01*
X100054Y-18820D02*
X100083Y-18744D01*
X100140Y-18706D01*
X100225Y-18706D01*
X100283Y-18744D01*
X100311Y-18820D01*
X100311Y-19239D01*
X100854Y-19239D02*
X100854Y-18820D01*
X100825Y-18744D01*
X100768Y-18706D01*
X100654Y-18706D01*
X100597Y-18744D01*
X100854Y-19201D02*
X100797Y-19239D01*
X100654Y-19239D01*
X100597Y-19201D01*
X100568Y-19125D01*
X100568Y-19049D01*
X100597Y-18973D01*
X100654Y-18934D01*
X100797Y-18934D01*
X100854Y-18896D01*
X101140Y-19239D02*
X101140Y-18706D01*
X101140Y-18439D02*
X101111Y-18477D01*
X101140Y-18515D01*
X101168Y-18477D01*
X101140Y-18439D01*
X101140Y-18515D01*
X101511Y-19239D02*
X101454Y-19201D01*
X101425Y-19125D01*
X101425Y-18439D01*
X101740Y-19163D02*
X101768Y-19201D01*
X101740Y-19239D01*
X101711Y-19201D01*
X101740Y-19163D01*
X101740Y-19239D01*
X102283Y-19201D02*
X102225Y-19239D01*
X102111Y-19239D01*
X102054Y-19201D01*
X102025Y-19163D01*
X101997Y-19087D01*
X101997Y-18858D01*
X102025Y-18782D01*
X102054Y-18744D01*
X102111Y-18706D01*
X102225Y-18706D01*
X102283Y-18744D01*
X102625Y-19239D02*
X102568Y-19201D01*
X102540Y-19163D01*
X102511Y-19087D01*
X102511Y-18858D01*
X102540Y-18782D01*
X102568Y-18744D01*
X102625Y-18706D01*
X102711Y-18706D01*
X102768Y-18744D01*
X102797Y-18782D01*
X102825Y-18858D01*
X102825Y-19087D01*
X102797Y-19163D01*
X102768Y-19201D01*
X102711Y-19239D01*
X102625Y-19239D01*
X103083Y-19239D02*
X103083Y-18706D01*
X103083Y-18782D02*
X103111Y-18744D01*
X103168Y-18706D01*
X103254Y-18706D01*
X103311Y-18744D01*
X103340Y-18820D01*
X103340Y-19239D01*
X103340Y-18820D02*
X103368Y-18744D01*
X103425Y-18706D01*
X103511Y-18706D01*
X103568Y-18744D01*
X103597Y-18820D01*
X103597Y-19239D01*
X80761Y-11385D02*
X80761Y-10585D01*
X80990Y-10585D01*
X81047Y-10623D01*
X81076Y-10661D01*
X81104Y-10737D01*
X81104Y-10852D01*
X81076Y-10928D01*
X81047Y-10966D01*
X80990Y-11004D01*
X80761Y-11004D01*
X81447Y-11385D02*
X81390Y-11347D01*
X81361Y-11271D01*
X81361Y-10585D01*
X81933Y-11385D02*
X81933Y-10966D01*
X81904Y-10890D01*
X81847Y-10852D01*
X81733Y-10852D01*
X81676Y-10890D01*
X81933Y-11347D02*
X81876Y-11385D01*
X81733Y-11385D01*
X81676Y-11347D01*
X81647Y-11271D01*
X81647Y-11195D01*
X81676Y-11118D01*
X81733Y-11080D01*
X81876Y-11080D01*
X81933Y-11042D01*
X82476Y-11347D02*
X82419Y-11385D01*
X82304Y-11385D01*
X82247Y-11347D01*
X82219Y-11309D01*
X82190Y-11233D01*
X82190Y-11004D01*
X82219Y-10928D01*
X82247Y-10890D01*
X82304Y-10852D01*
X82419Y-10852D01*
X82476Y-10890D01*
X82990Y-11385D02*
X82990Y-10966D01*
X82961Y-10890D01*
X82904Y-10852D01*
X82790Y-10852D01*
X82733Y-10890D01*
X82990Y-11347D02*
X82933Y-11385D01*
X82790Y-11385D01*
X82733Y-11347D01*
X82704Y-11271D01*
X82704Y-11195D01*
X82733Y-11118D01*
X82790Y-11080D01*
X82933Y-11080D01*
X82990Y-11042D01*
X83990Y-11385D02*
X83990Y-10585D01*
X83990Y-11347D02*
X83933Y-11385D01*
X83819Y-11385D01*
X83761Y-11347D01*
X83733Y-11309D01*
X83704Y-11233D01*
X83704Y-11004D01*
X83733Y-10928D01*
X83761Y-10890D01*
X83819Y-10852D01*
X83933Y-10852D01*
X83990Y-10890D01*
X84504Y-11347D02*
X84447Y-11385D01*
X84333Y-11385D01*
X84276Y-11347D01*
X84247Y-11271D01*
X84247Y-10966D01*
X84276Y-10890D01*
X84333Y-10852D01*
X84447Y-10852D01*
X84504Y-10890D01*
X84533Y-10966D01*
X84533Y-11042D01*
X84247Y-11118D01*
X85504Y-11385D02*
X85504Y-10966D01*
X85476Y-10890D01*
X85419Y-10852D01*
X85304Y-10852D01*
X85247Y-10890D01*
X85504Y-11347D02*
X85447Y-11385D01*
X85304Y-11385D01*
X85247Y-11347D01*
X85219Y-11271D01*
X85219Y-11195D01*
X85247Y-11118D01*
X85304Y-11080D01*
X85447Y-11080D01*
X85504Y-11042D01*
X85876Y-11385D02*
X85819Y-11347D01*
X85790Y-11271D01*
X85790Y-10585D01*
X86019Y-10852D02*
X86247Y-10852D01*
X86104Y-10585D02*
X86104Y-11271D01*
X86133Y-11347D01*
X86190Y-11385D01*
X86247Y-11385D01*
X86704Y-11385D02*
X86704Y-10966D01*
X86676Y-10890D01*
X86619Y-10852D01*
X86504Y-10852D01*
X86447Y-10890D01*
X86704Y-11347D02*
X86647Y-11385D01*
X86504Y-11385D01*
X86447Y-11347D01*
X86419Y-11271D01*
X86419Y-11195D01*
X86447Y-11118D01*
X86504Y-11080D01*
X86647Y-11080D01*
X86704Y-11042D01*
X87361Y-10852D02*
X87590Y-10852D01*
X87447Y-10585D02*
X87447Y-11271D01*
X87476Y-11347D01*
X87533Y-11385D01*
X87590Y-11385D01*
X88019Y-11347D02*
X87961Y-11385D01*
X87847Y-11385D01*
X87790Y-11347D01*
X87761Y-11271D01*
X87761Y-10966D01*
X87790Y-10890D01*
X87847Y-10852D01*
X87961Y-10852D01*
X88019Y-10890D01*
X88047Y-10966D01*
X88047Y-11042D01*
X87761Y-11118D01*
X88304Y-10852D02*
X88304Y-11385D01*
X88304Y-10928D02*
X88333Y-10890D01*
X88390Y-10852D01*
X88476Y-10852D01*
X88533Y-10890D01*
X88561Y-10966D01*
X88561Y-11385D01*
X88819Y-11347D02*
X88876Y-11385D01*
X88990Y-11385D01*
X89047Y-11347D01*
X89076Y-11271D01*
X89076Y-11233D01*
X89047Y-11156D01*
X88990Y-11118D01*
X88904Y-11118D01*
X88847Y-11080D01*
X88819Y-11004D01*
X88819Y-10966D01*
X88847Y-10890D01*
X88904Y-10852D01*
X88990Y-10852D01*
X89047Y-10890D01*
X89333Y-11385D02*
X89333Y-10852D01*
X89333Y-10585D02*
X89304Y-10623D01*
X89333Y-10661D01*
X89361Y-10623D01*
X89333Y-10585D01*
X89333Y-10661D01*
X89704Y-11385D02*
X89647Y-11347D01*
X89619Y-11309D01*
X89590Y-11233D01*
X89590Y-11004D01*
X89619Y-10928D01*
X89647Y-10890D01*
X89704Y-10852D01*
X89790Y-10852D01*
X89847Y-10890D01*
X89876Y-10928D01*
X89904Y-11004D01*
X89904Y-11233D01*
X89876Y-11309D01*
X89847Y-11347D01*
X89790Y-11385D01*
X89704Y-11385D01*
X89819Y-10547D02*
X89733Y-10661D01*
X90161Y-10852D02*
X90161Y-11385D01*
X90161Y-10928D02*
X90190Y-10890D01*
X90247Y-10852D01*
X90333Y-10852D01*
X90390Y-10890D01*
X90419Y-10966D01*
X90419Y-11385D01*
X18314Y-46748D02*
X17514Y-46748D01*
X17514Y-46520D01*
X17552Y-46462D01*
X17590Y-46434D01*
X17667Y-46405D01*
X17781Y-46405D01*
X17857Y-46434D01*
X17895Y-46462D01*
X17933Y-46520D01*
X17933Y-46748D01*
X18314Y-46062D02*
X18276Y-46120D01*
X18200Y-46148D01*
X17514Y-46148D01*
X18314Y-45577D02*
X17895Y-45577D01*
X17819Y-45605D01*
X17781Y-45662D01*
X17781Y-45777D01*
X17819Y-45834D01*
X18276Y-45577D02*
X18314Y-45634D01*
X18314Y-45777D01*
X18276Y-45834D01*
X18200Y-45862D01*
X18124Y-45862D01*
X18047Y-45834D01*
X18009Y-45777D01*
X18009Y-45634D01*
X17971Y-45577D01*
X18276Y-45034D02*
X18314Y-45091D01*
X18314Y-45205D01*
X18276Y-45262D01*
X18238Y-45291D01*
X18162Y-45320D01*
X17933Y-45320D01*
X17857Y-45291D01*
X17819Y-45262D01*
X17781Y-45205D01*
X17781Y-45091D01*
X17819Y-45034D01*
X18314Y-44520D02*
X17895Y-44520D01*
X17819Y-44548D01*
X17781Y-44605D01*
X17781Y-44720D01*
X17819Y-44777D01*
X18276Y-44520D02*
X18314Y-44577D01*
X18314Y-44720D01*
X18276Y-44777D01*
X18200Y-44805D01*
X18124Y-44805D01*
X18047Y-44777D01*
X18009Y-44720D01*
X18009Y-44577D01*
X17971Y-44520D01*
X18314Y-43520D02*
X17514Y-43520D01*
X18276Y-43520D02*
X18314Y-43577D01*
X18314Y-43691D01*
X18276Y-43748D01*
X18238Y-43777D01*
X18162Y-43805D01*
X17933Y-43805D01*
X17857Y-43777D01*
X17819Y-43748D01*
X17781Y-43691D01*
X17781Y-43577D01*
X17819Y-43520D01*
X18276Y-43005D02*
X18314Y-43062D01*
X18314Y-43177D01*
X18276Y-43234D01*
X18200Y-43262D01*
X17895Y-43262D01*
X17819Y-43234D01*
X17781Y-43177D01*
X17781Y-43062D01*
X17819Y-43005D01*
X17895Y-42977D01*
X17971Y-42977D01*
X18047Y-43262D01*
X18276Y-42291D02*
X18314Y-42234D01*
X18314Y-42120D01*
X18276Y-42062D01*
X18200Y-42034D01*
X18162Y-42034D01*
X18086Y-42062D01*
X18047Y-42120D01*
X18047Y-42205D01*
X18009Y-42262D01*
X17933Y-42291D01*
X17895Y-42291D01*
X17819Y-42262D01*
X17781Y-42205D01*
X17781Y-42120D01*
X17819Y-42062D01*
X18276Y-41548D02*
X18314Y-41605D01*
X18314Y-41720D01*
X18276Y-41777D01*
X18200Y-41805D01*
X17895Y-41805D01*
X17819Y-41777D01*
X17781Y-41720D01*
X17781Y-41605D01*
X17819Y-41548D01*
X17895Y-41520D01*
X17971Y-41520D01*
X18047Y-41805D01*
X17781Y-41262D02*
X18314Y-41262D01*
X17857Y-41262D02*
X17819Y-41234D01*
X17781Y-41177D01*
X17781Y-41091D01*
X17819Y-41034D01*
X17895Y-41005D01*
X18314Y-41005D01*
X18276Y-40748D02*
X18314Y-40691D01*
X18314Y-40577D01*
X18276Y-40520D01*
X18200Y-40491D01*
X18162Y-40491D01*
X18086Y-40520D01*
X18047Y-40577D01*
X18047Y-40662D01*
X18009Y-40720D01*
X17933Y-40748D01*
X17895Y-40748D01*
X17819Y-40720D01*
X17781Y-40662D01*
X17781Y-40577D01*
X17819Y-40520D01*
X18314Y-40148D02*
X18276Y-40205D01*
X18238Y-40234D01*
X18162Y-40262D01*
X17933Y-40262D01*
X17857Y-40234D01*
X17819Y-40205D01*
X17781Y-40148D01*
X17781Y-40062D01*
X17819Y-40005D01*
X17857Y-39977D01*
X17933Y-39948D01*
X18162Y-39948D01*
X18238Y-39977D01*
X18276Y-40005D01*
X18314Y-40062D01*
X18314Y-40148D01*
X18314Y-39691D02*
X17781Y-39691D01*
X17933Y-39691D02*
X17857Y-39662D01*
X17819Y-39634D01*
X17781Y-39577D01*
X17781Y-39520D01*
X18276Y-39091D02*
X18314Y-39148D01*
X18314Y-39262D01*
X18276Y-39320D01*
X18200Y-39348D01*
X17895Y-39348D01*
X17819Y-39320D01*
X17781Y-39262D01*
X17781Y-39148D01*
X17819Y-39091D01*
X17895Y-39062D01*
X17971Y-39062D01*
X18047Y-39348D01*
X18276Y-38834D02*
X18314Y-38777D01*
X18314Y-38662D01*
X18276Y-38605D01*
X18200Y-38577D01*
X18162Y-38577D01*
X18086Y-38605D01*
X18047Y-38662D01*
X18047Y-38748D01*
X18009Y-38805D01*
X17933Y-38834D01*
X17895Y-38834D01*
X17819Y-38805D01*
X17781Y-38748D01*
X17781Y-38662D01*
X17819Y-38605D01*
X19135Y-54462D02*
X19135Y-54662D01*
X19554Y-54662D02*
X18754Y-54662D01*
X18754Y-54377D01*
X19554Y-53891D02*
X19135Y-53891D01*
X19059Y-53920D01*
X19021Y-53977D01*
X19021Y-54091D01*
X19059Y-54148D01*
X19516Y-53891D02*
X19554Y-53948D01*
X19554Y-54091D01*
X19516Y-54148D01*
X19440Y-54177D01*
X19364Y-54177D01*
X19287Y-54148D01*
X19249Y-54091D01*
X19249Y-53948D01*
X19211Y-53891D01*
X19516Y-53348D02*
X19554Y-53405D01*
X19554Y-53520D01*
X19516Y-53577D01*
X19478Y-53605D01*
X19402Y-53634D01*
X19173Y-53634D01*
X19097Y-53605D01*
X19059Y-53577D01*
X19021Y-53520D01*
X19021Y-53405D01*
X19059Y-53348D01*
X19021Y-52834D02*
X19554Y-52834D01*
X19021Y-53091D02*
X19440Y-53091D01*
X19516Y-53062D01*
X19554Y-53005D01*
X19554Y-52920D01*
X19516Y-52862D01*
X19478Y-52834D01*
X19021Y-52548D02*
X19554Y-52548D01*
X19097Y-52548D02*
X19059Y-52520D01*
X19021Y-52462D01*
X19021Y-52377D01*
X19059Y-52320D01*
X19135Y-52291D01*
X19554Y-52291D01*
X19554Y-51748D02*
X18754Y-51748D01*
X19516Y-51748D02*
X19554Y-51805D01*
X19554Y-51920D01*
X19516Y-51977D01*
X19478Y-52005D01*
X19402Y-52034D01*
X19173Y-52034D01*
X19097Y-52005D01*
X19059Y-51977D01*
X19021Y-51920D01*
X19021Y-51805D01*
X19059Y-51748D01*
X19554Y-51377D02*
X19516Y-51434D01*
X19478Y-51462D01*
X19402Y-51491D01*
X19173Y-51491D01*
X19097Y-51462D01*
X19059Y-51434D01*
X19021Y-51377D01*
X19021Y-51291D01*
X19059Y-51234D01*
X19097Y-51205D01*
X19173Y-51177D01*
X19402Y-51177D01*
X19478Y-51205D01*
X19516Y-51234D01*
X19554Y-51291D01*
X19554Y-51377D01*
X19554Y-50462D02*
X18754Y-50462D01*
X19554Y-50120D01*
X18754Y-50120D01*
X19554Y-49577D02*
X19135Y-49577D01*
X19059Y-49605D01*
X19021Y-49662D01*
X19021Y-49777D01*
X19059Y-49834D01*
X19516Y-49577D02*
X19554Y-49634D01*
X19554Y-49777D01*
X19516Y-49834D01*
X19440Y-49862D01*
X19364Y-49862D01*
X19287Y-49834D01*
X19249Y-49777D01*
X19249Y-49634D01*
X19211Y-49577D01*
X19554Y-49291D02*
X18754Y-49291D01*
X19554Y-49034D02*
X19135Y-49034D01*
X19059Y-49062D01*
X19021Y-49120D01*
X19021Y-49205D01*
X19059Y-49262D01*
X19097Y-49291D01*
X19021Y-48491D02*
X19554Y-48491D01*
X19021Y-48748D02*
X19440Y-48748D01*
X19516Y-48720D01*
X19554Y-48662D01*
X19554Y-48577D01*
X19516Y-48520D01*
X19478Y-48491D01*
X19516Y-47977D02*
X19554Y-48034D01*
X19554Y-48148D01*
X19516Y-48205D01*
X19440Y-48234D01*
X19135Y-48234D01*
X19059Y-48205D01*
X19021Y-48148D01*
X19021Y-48034D01*
X19059Y-47977D01*
X19135Y-47948D01*
X19211Y-47948D01*
X19287Y-48234D01*
X19554Y-47605D02*
X19516Y-47662D01*
X19440Y-47691D01*
X18754Y-47691D01*
X18754Y-46920D02*
X19402Y-46920D01*
X19478Y-46891D01*
X19516Y-46862D01*
X19554Y-46805D01*
X19554Y-46691D01*
X19516Y-46634D01*
X19478Y-46605D01*
X19402Y-46577D01*
X18754Y-46577D01*
X19554Y-46291D02*
X19021Y-46291D01*
X19173Y-46291D02*
X19097Y-46262D01*
X19059Y-46234D01*
X19021Y-46177D01*
X19021Y-46120D01*
X19554Y-45920D02*
X19021Y-45920D01*
X18754Y-45920D02*
X18792Y-45948D01*
X18830Y-45920D01*
X18792Y-45891D01*
X18754Y-45920D01*
X18830Y-45920D01*
X19516Y-45405D02*
X19554Y-45462D01*
X19554Y-45577D01*
X19516Y-45634D01*
X19440Y-45662D01*
X19135Y-45662D01*
X19059Y-45634D01*
X19021Y-45577D01*
X19021Y-45462D01*
X19059Y-45405D01*
X19135Y-45377D01*
X19211Y-45377D01*
X19287Y-45662D01*
X19554Y-45034D02*
X19516Y-45091D01*
X19440Y-45120D01*
X18754Y-45120D01*
X19516Y-44377D02*
X19554Y-44291D01*
X19554Y-44148D01*
X19516Y-44091D01*
X19478Y-44062D01*
X19402Y-44034D01*
X19326Y-44034D01*
X19249Y-44062D01*
X19211Y-44091D01*
X19173Y-44148D01*
X19135Y-44262D01*
X19097Y-44320D01*
X19059Y-44348D01*
X18983Y-44377D01*
X18907Y-44377D01*
X18830Y-44348D01*
X18792Y-44320D01*
X18754Y-44262D01*
X18754Y-44120D01*
X18792Y-44034D01*
X19554Y-43777D02*
X19021Y-43777D01*
X18754Y-43777D02*
X18792Y-43805D01*
X18830Y-43777D01*
X18792Y-43748D01*
X18754Y-43777D01*
X18830Y-43777D01*
X19554Y-43405D02*
X19516Y-43462D01*
X19440Y-43491D01*
X18754Y-43491D01*
X19021Y-43234D02*
X19554Y-43091D01*
X19021Y-42948D01*
X19554Y-42462D02*
X19135Y-42462D01*
X19059Y-42491D01*
X19021Y-42548D01*
X19021Y-42662D01*
X19059Y-42720D01*
X19516Y-42462D02*
X19554Y-42520D01*
X19554Y-42662D01*
X19516Y-42720D01*
X19440Y-42748D01*
X19364Y-42748D01*
X19287Y-42720D01*
X19249Y-42662D01*
X19249Y-42520D01*
X19211Y-42462D01*
X19249Y-41262D02*
X19249Y-40805D01*
X19021Y-39234D02*
X19021Y-39005D01*
X19554Y-39148D02*
X18868Y-39148D01*
X18792Y-39120D01*
X18754Y-39062D01*
X18754Y-39005D01*
X19554Y-38548D02*
X19135Y-38548D01*
X19059Y-38577D01*
X19021Y-38634D01*
X19021Y-38748D01*
X19059Y-38805D01*
X19516Y-38548D02*
X19554Y-38605D01*
X19554Y-38748D01*
X19516Y-38805D01*
X19440Y-38834D01*
X19364Y-38834D01*
X19287Y-38805D01*
X19249Y-38748D01*
X19249Y-38605D01*
X19211Y-38548D01*
X19021Y-38262D02*
X19554Y-38262D01*
X19097Y-38262D02*
X19059Y-38234D01*
X19021Y-38177D01*
X19021Y-38091D01*
X19059Y-38034D01*
X19135Y-38005D01*
X19554Y-38005D01*
X19554Y-37462D02*
X19135Y-37462D01*
X19059Y-37491D01*
X19021Y-37548D01*
X19021Y-37662D01*
X19059Y-37720D01*
X19516Y-37462D02*
X19554Y-37520D01*
X19554Y-37662D01*
X19516Y-37720D01*
X19440Y-37748D01*
X19364Y-37748D01*
X19287Y-37720D01*
X19249Y-37662D01*
X19249Y-37520D01*
X19211Y-37462D01*
X19021Y-36920D02*
X19554Y-36920D01*
X19021Y-37177D02*
X19440Y-37177D01*
X19516Y-37148D01*
X19554Y-37091D01*
X19554Y-37005D01*
X19516Y-36948D01*
X19478Y-36920D01*
X19554Y-36634D02*
X19021Y-36634D01*
X19173Y-36634D02*
X19097Y-36605D01*
X19059Y-36577D01*
X19021Y-36520D01*
X19021Y-36462D01*
X19173Y-35891D02*
X19135Y-35920D01*
X19097Y-35977D01*
X19097Y-36034D01*
X19135Y-36091D01*
X19173Y-36120D01*
X19249Y-36148D01*
X19326Y-36148D01*
X19402Y-36120D01*
X19440Y-36091D01*
X19478Y-36034D01*
X19478Y-35977D01*
X19440Y-35920D01*
X19402Y-35891D01*
X19097Y-35891D02*
X19402Y-35891D01*
X19440Y-35862D01*
X19440Y-35834D01*
X19402Y-35777D01*
X19326Y-35748D01*
X19135Y-35748D01*
X19021Y-35805D01*
X18945Y-35891D01*
X18907Y-36005D01*
X18945Y-36120D01*
X19021Y-36205D01*
X19135Y-36262D01*
X19287Y-36291D01*
X19440Y-36262D01*
X19554Y-36205D01*
X19630Y-36120D01*
X19668Y-36005D01*
X19630Y-35891D01*
X19554Y-35805D01*
X19021Y-35234D02*
X19668Y-35234D01*
X19745Y-35262D01*
X19783Y-35291D01*
X19821Y-35348D01*
X19821Y-35434D01*
X19783Y-35491D01*
X19516Y-35234D02*
X19554Y-35291D01*
X19554Y-35405D01*
X19516Y-35462D01*
X19478Y-35491D01*
X19402Y-35520D01*
X19173Y-35520D01*
X19097Y-35491D01*
X19059Y-35462D01*
X19021Y-35405D01*
X19021Y-35291D01*
X19059Y-35234D01*
X19554Y-34948D02*
X19021Y-34948D01*
X19097Y-34948D02*
X19059Y-34920D01*
X19021Y-34862D01*
X19021Y-34777D01*
X19059Y-34720D01*
X19135Y-34691D01*
X19554Y-34691D01*
X19135Y-34691D02*
X19059Y-34662D01*
X19021Y-34605D01*
X19021Y-34520D01*
X19059Y-34462D01*
X19135Y-34434D01*
X19554Y-34434D01*
X19554Y-33891D02*
X19135Y-33891D01*
X19059Y-33920D01*
X19021Y-33977D01*
X19021Y-34091D01*
X19059Y-34148D01*
X19516Y-33891D02*
X19554Y-33948D01*
X19554Y-34091D01*
X19516Y-34148D01*
X19440Y-34177D01*
X19364Y-34177D01*
X19287Y-34148D01*
X19249Y-34091D01*
X19249Y-33948D01*
X19211Y-33891D01*
X19554Y-33605D02*
X19021Y-33605D01*
X18754Y-33605D02*
X18792Y-33634D01*
X18830Y-33605D01*
X18792Y-33577D01*
X18754Y-33605D01*
X18830Y-33605D01*
X19554Y-33234D02*
X19516Y-33291D01*
X19440Y-33320D01*
X18754Y-33320D01*
X19478Y-33005D02*
X19516Y-32977D01*
X19554Y-33005D01*
X19516Y-33034D01*
X19478Y-33005D01*
X19554Y-33005D01*
X19516Y-32462D02*
X19554Y-32520D01*
X19554Y-32634D01*
X19516Y-32691D01*
X19478Y-32720D01*
X19402Y-32748D01*
X19173Y-32748D01*
X19097Y-32720D01*
X19059Y-32691D01*
X19021Y-32634D01*
X19021Y-32520D01*
X19059Y-32462D01*
X19554Y-32120D02*
X19516Y-32177D01*
X19478Y-32205D01*
X19402Y-32234D01*
X19173Y-32234D01*
X19097Y-32205D01*
X19059Y-32177D01*
X19021Y-32120D01*
X19021Y-32034D01*
X19059Y-31977D01*
X19097Y-31948D01*
X19173Y-31920D01*
X19402Y-31920D01*
X19478Y-31948D01*
X19516Y-31977D01*
X19554Y-32034D01*
X19554Y-32120D01*
X19554Y-31662D02*
X19021Y-31662D01*
X19097Y-31662D02*
X19059Y-31634D01*
X19021Y-31577D01*
X19021Y-31491D01*
X19059Y-31434D01*
X19135Y-31405D01*
X19554Y-31405D01*
X19135Y-31405D02*
X19059Y-31377D01*
X19021Y-31320D01*
X19021Y-31234D01*
X19059Y-31177D01*
X19135Y-31148D01*
X19554Y-31148D01*
X20375Y-55062D02*
X20375Y-54862D01*
X20794Y-54777D02*
X20794Y-55062D01*
X19994Y-55062D01*
X19994Y-54777D01*
X20756Y-54548D02*
X20794Y-54491D01*
X20794Y-54377D01*
X20756Y-54320D01*
X20680Y-54291D01*
X20642Y-54291D01*
X20566Y-54320D01*
X20527Y-54377D01*
X20527Y-54462D01*
X20489Y-54520D01*
X20413Y-54548D01*
X20375Y-54548D01*
X20299Y-54520D01*
X20261Y-54462D01*
X20261Y-54377D01*
X20299Y-54320D01*
X20261Y-54120D02*
X20261Y-53891D01*
X19994Y-54034D02*
X20680Y-54034D01*
X20756Y-54005D01*
X20794Y-53948D01*
X20794Y-53891D01*
X20794Y-53434D02*
X20375Y-53434D01*
X20299Y-53462D01*
X20261Y-53520D01*
X20261Y-53634D01*
X20299Y-53691D01*
X20756Y-53434D02*
X20794Y-53491D01*
X20794Y-53634D01*
X20756Y-53691D01*
X20680Y-53720D01*
X20604Y-53720D01*
X20527Y-53691D01*
X20489Y-53634D01*
X20489Y-53491D01*
X20451Y-53434D01*
X20261Y-53148D02*
X20794Y-53148D01*
X20337Y-53148D02*
X20299Y-53120D01*
X20261Y-53062D01*
X20261Y-52977D01*
X20299Y-52920D01*
X20375Y-52891D01*
X20794Y-52891D01*
X20794Y-52605D02*
X20261Y-52605D01*
X19994Y-52605D02*
X20032Y-52634D01*
X20070Y-52605D01*
X20032Y-52577D01*
X19994Y-52605D01*
X20070Y-52605D01*
X20756Y-52348D02*
X20794Y-52291D01*
X20794Y-52177D01*
X20756Y-52120D01*
X20680Y-52091D01*
X20642Y-52091D01*
X20566Y-52120D01*
X20527Y-52177D01*
X20527Y-52262D01*
X20489Y-52320D01*
X20413Y-52348D01*
X20375Y-52348D01*
X20299Y-52320D01*
X20261Y-52262D01*
X20261Y-52177D01*
X20299Y-52120D01*
X20794Y-51748D02*
X20756Y-51805D01*
X20680Y-51834D01*
X19994Y-51834D01*
X20794Y-51262D02*
X20375Y-51262D01*
X20299Y-51291D01*
X20261Y-51348D01*
X20261Y-51462D01*
X20299Y-51520D01*
X20756Y-51262D02*
X20794Y-51320D01*
X20794Y-51462D01*
X20756Y-51520D01*
X20680Y-51548D01*
X20604Y-51548D01*
X20527Y-51520D01*
X20489Y-51462D01*
X20489Y-51320D01*
X20451Y-51262D01*
X20794Y-50891D02*
X20756Y-50948D01*
X20718Y-50977D01*
X20642Y-51005D01*
X20413Y-51005D01*
X20337Y-50977D01*
X20299Y-50948D01*
X20261Y-50891D01*
X20261Y-50805D01*
X20299Y-50748D01*
X20337Y-50720D01*
X20413Y-50691D01*
X20642Y-50691D01*
X20718Y-50720D01*
X20756Y-50748D01*
X20794Y-50805D01*
X20794Y-50891D01*
X20794Y-49691D02*
X20794Y-49977D01*
X19994Y-49977D01*
X20794Y-49405D02*
X20756Y-49462D01*
X20718Y-49491D01*
X20642Y-49520D01*
X20413Y-49520D01*
X20337Y-49491D01*
X20299Y-49462D01*
X20261Y-49405D01*
X20261Y-49320D01*
X20299Y-49262D01*
X20337Y-49234D01*
X20413Y-49205D01*
X20642Y-49205D01*
X20718Y-49234D01*
X20756Y-49262D01*
X20794Y-49320D01*
X20794Y-49405D01*
X19956Y-49291D02*
X20070Y-49377D01*
X20261Y-48948D02*
X21061Y-48948D01*
X20299Y-48948D02*
X20261Y-48891D01*
X20261Y-48777D01*
X20299Y-48720D01*
X20337Y-48691D01*
X20413Y-48662D01*
X20642Y-48662D01*
X20718Y-48691D01*
X20756Y-48720D01*
X20794Y-48777D01*
X20794Y-48891D01*
X20756Y-48948D01*
X20756Y-48177D02*
X20794Y-48234D01*
X20794Y-48348D01*
X20756Y-48405D01*
X20680Y-48434D01*
X20375Y-48434D01*
X20299Y-48405D01*
X20261Y-48348D01*
X20261Y-48234D01*
X20299Y-48177D01*
X20375Y-48148D01*
X20451Y-48148D01*
X20527Y-48434D01*
X20261Y-47948D02*
X20261Y-47634D01*
X20794Y-47948D01*
X20794Y-47634D01*
X20794Y-46948D02*
X19994Y-46948D01*
X20566Y-46748D01*
X19994Y-46548D01*
X20794Y-46548D01*
X20794Y-46177D02*
X20756Y-46234D01*
X20718Y-46262D01*
X20642Y-46291D01*
X20413Y-46291D01*
X20337Y-46262D01*
X20299Y-46234D01*
X20261Y-46177D01*
X20261Y-46091D01*
X20299Y-46034D01*
X20337Y-46005D01*
X20413Y-45977D01*
X20642Y-45977D01*
X20718Y-46005D01*
X20756Y-46034D01*
X20794Y-46091D01*
X20794Y-46177D01*
X20794Y-45720D02*
X20261Y-45720D01*
X20413Y-45720D02*
X20337Y-45691D01*
X20299Y-45662D01*
X20261Y-45605D01*
X20261Y-45548D01*
X20261Y-45091D02*
X20908Y-45091D01*
X20985Y-45120D01*
X21023Y-45148D01*
X21061Y-45205D01*
X21061Y-45291D01*
X21023Y-45348D01*
X20756Y-45091D02*
X20794Y-45148D01*
X20794Y-45262D01*
X20756Y-45320D01*
X20718Y-45348D01*
X20642Y-45377D01*
X20413Y-45377D01*
X20337Y-45348D01*
X20299Y-45320D01*
X20261Y-45262D01*
X20261Y-45148D01*
X20299Y-45091D01*
X20794Y-44548D02*
X20375Y-44548D01*
X20299Y-44577D01*
X20261Y-44634D01*
X20261Y-44748D01*
X20299Y-44805D01*
X20756Y-44548D02*
X20794Y-44605D01*
X20794Y-44748D01*
X20756Y-44805D01*
X20680Y-44834D01*
X20604Y-44834D01*
X20527Y-44805D01*
X20489Y-44748D01*
X20489Y-44605D01*
X20451Y-44548D01*
X20261Y-44262D02*
X20794Y-44262D01*
X20337Y-44262D02*
X20299Y-44234D01*
X20261Y-44177D01*
X20261Y-44091D01*
X20299Y-44034D01*
X20375Y-44005D01*
X20794Y-44005D01*
X20489Y-41891D02*
X20489Y-41434D01*
X20756Y-39091D02*
X20794Y-39148D01*
X20794Y-39262D01*
X20756Y-39320D01*
X20680Y-39348D01*
X20375Y-39348D01*
X20299Y-39320D01*
X20261Y-39262D01*
X20261Y-39148D01*
X20299Y-39091D01*
X20375Y-39062D01*
X20451Y-39062D01*
X20527Y-39348D01*
X20756Y-38834D02*
X20794Y-38777D01*
X20794Y-38662D01*
X20756Y-38605D01*
X20680Y-38577D01*
X20642Y-38577D01*
X20566Y-38605D01*
X20527Y-38662D01*
X20527Y-38748D01*
X20489Y-38805D01*
X20413Y-38834D01*
X20375Y-38834D01*
X20299Y-38805D01*
X20261Y-38748D01*
X20261Y-38662D01*
X20299Y-38605D01*
X20261Y-38405D02*
X20261Y-38177D01*
X19994Y-38320D02*
X20680Y-38320D01*
X20756Y-38291D01*
X20794Y-38234D01*
X20794Y-38177D01*
X20794Y-37720D02*
X20375Y-37720D01*
X20299Y-37748D01*
X20261Y-37805D01*
X20261Y-37920D01*
X20299Y-37977D01*
X20756Y-37720D02*
X20794Y-37777D01*
X20794Y-37920D01*
X20756Y-37977D01*
X20680Y-38005D01*
X20604Y-38005D01*
X20527Y-37977D01*
X20489Y-37920D01*
X20489Y-37777D01*
X20451Y-37720D01*
X20261Y-37434D02*
X20794Y-37434D01*
X20337Y-37434D02*
X20299Y-37405D01*
X20261Y-37348D01*
X20261Y-37262D01*
X20299Y-37205D01*
X20375Y-37177D01*
X20794Y-37177D01*
X20261Y-36634D02*
X20794Y-36634D01*
X20261Y-36891D02*
X20680Y-36891D01*
X20756Y-36862D01*
X20794Y-36805D01*
X20794Y-36720D01*
X20756Y-36662D01*
X20718Y-36634D01*
X20794Y-36405D02*
X20261Y-36091D01*
X20261Y-36405D02*
X20794Y-36091D01*
X20413Y-35491D02*
X20375Y-35520D01*
X20337Y-35577D01*
X20337Y-35634D01*
X20375Y-35691D01*
X20413Y-35720D01*
X20489Y-35748D01*
X20566Y-35748D01*
X20642Y-35720D01*
X20680Y-35691D01*
X20718Y-35634D01*
X20718Y-35577D01*
X20680Y-35520D01*
X20642Y-35491D01*
X20337Y-35491D02*
X20642Y-35491D01*
X20680Y-35462D01*
X20680Y-35434D01*
X20642Y-35377D01*
X20566Y-35348D01*
X20375Y-35348D01*
X20261Y-35405D01*
X20185Y-35491D01*
X20147Y-35605D01*
X20185Y-35720D01*
X20261Y-35805D01*
X20375Y-35862D01*
X20527Y-35891D01*
X20680Y-35862D01*
X20794Y-35805D01*
X20870Y-35720D01*
X20908Y-35605D01*
X20870Y-35491D01*
X20794Y-35405D01*
X20261Y-34834D02*
X20908Y-34834D01*
X20985Y-34862D01*
X21023Y-34891D01*
X21061Y-34948D01*
X21061Y-35034D01*
X21023Y-35091D01*
X20756Y-34834D02*
X20794Y-34891D01*
X20794Y-35005D01*
X20756Y-35062D01*
X20718Y-35091D01*
X20642Y-35120D01*
X20413Y-35120D01*
X20337Y-35091D01*
X20299Y-35062D01*
X20261Y-35005D01*
X20261Y-34891D01*
X20299Y-34834D01*
X20794Y-34548D02*
X20261Y-34548D01*
X20337Y-34548D02*
X20299Y-34520D01*
X20261Y-34462D01*
X20261Y-34377D01*
X20299Y-34320D01*
X20375Y-34291D01*
X20794Y-34291D01*
X20375Y-34291D02*
X20299Y-34262D01*
X20261Y-34205D01*
X20261Y-34120D01*
X20299Y-34062D01*
X20375Y-34034D01*
X20794Y-34034D01*
X20794Y-33491D02*
X20375Y-33491D01*
X20299Y-33520D01*
X20261Y-33577D01*
X20261Y-33691D01*
X20299Y-33748D01*
X20756Y-33491D02*
X20794Y-33548D01*
X20794Y-33691D01*
X20756Y-33748D01*
X20680Y-33777D01*
X20604Y-33777D01*
X20527Y-33748D01*
X20489Y-33691D01*
X20489Y-33548D01*
X20451Y-33491D01*
X20794Y-33205D02*
X20261Y-33205D01*
X19994Y-33205D02*
X20032Y-33234D01*
X20070Y-33205D01*
X20032Y-33177D01*
X19994Y-33205D01*
X20070Y-33205D01*
X20794Y-32834D02*
X20756Y-32891D01*
X20680Y-32920D01*
X19994Y-32920D01*
X20718Y-32605D02*
X20756Y-32577D01*
X20794Y-32605D01*
X20756Y-32634D01*
X20718Y-32605D01*
X20794Y-32605D01*
X20756Y-32062D02*
X20794Y-32120D01*
X20794Y-32234D01*
X20756Y-32291D01*
X20718Y-32320D01*
X20642Y-32348D01*
X20413Y-32348D01*
X20337Y-32320D01*
X20299Y-32291D01*
X20261Y-32234D01*
X20261Y-32120D01*
X20299Y-32062D01*
X20794Y-31720D02*
X20756Y-31777D01*
X20718Y-31805D01*
X20642Y-31834D01*
X20413Y-31834D01*
X20337Y-31805D01*
X20299Y-31777D01*
X20261Y-31720D01*
X20261Y-31634D01*
X20299Y-31577D01*
X20337Y-31548D01*
X20413Y-31520D01*
X20642Y-31520D01*
X20718Y-31548D01*
X20756Y-31577D01*
X20794Y-31634D01*
X20794Y-31720D01*
X20794Y-31262D02*
X20261Y-31262D01*
X20337Y-31262D02*
X20299Y-31234D01*
X20261Y-31177D01*
X20261Y-31091D01*
X20299Y-31034D01*
X20375Y-31005D01*
X20794Y-31005D01*
X20375Y-31005D02*
X20299Y-30977D01*
X20261Y-30920D01*
X20261Y-30834D01*
X20299Y-30777D01*
X20375Y-30748D01*
X20794Y-30748D01*
G54D12*
X48032Y-27007D02*
G75*
G03X48032Y-27007I0J0D01*
G74*
G01*
X48030Y-27007D02*
X48032Y-27007D01*
X48031Y-27006D02*
X48031Y-27008D01*
X17000Y-25000D02*
X50000Y-25000D01*
X17000Y-62000D02*
X17000Y-25000D01*
X50000Y-62000D02*
X17000Y-62000D01*
X50000Y-25000D02*
X50000Y-62000D01*
G54D11*
X111278Y-39071D02*
X111278Y-38728D01*
X111278Y-38899D02*
X112078Y-38899D01*
X111963Y-38842D01*
X111887Y-38785D01*
X111849Y-38728D01*
X112078Y-39585D02*
X112078Y-39471D01*
X112039Y-39414D01*
X112001Y-39385D01*
X111887Y-39328D01*
X111735Y-39300D01*
X111430Y-39300D01*
X111354Y-39328D01*
X111316Y-39357D01*
X111278Y-39414D01*
X111278Y-39528D01*
X111316Y-39585D01*
X111354Y-39614D01*
X111430Y-39642D01*
X111620Y-39642D01*
X111697Y-39614D01*
X111735Y-39585D01*
X111773Y-39528D01*
X111773Y-39414D01*
X111735Y-39357D01*
X111697Y-39328D01*
X111620Y-39300D01*
X112078Y-40014D02*
X112078Y-40071D01*
X112039Y-40128D01*
X112001Y-40157D01*
X111925Y-40185D01*
X111773Y-40214D01*
X111582Y-40214D01*
X111430Y-40185D01*
X111354Y-40157D01*
X111316Y-40128D01*
X111278Y-40071D01*
X111278Y-40014D01*
X111316Y-39957D01*
X111354Y-39928D01*
X111430Y-39900D01*
X111582Y-39871D01*
X111773Y-39871D01*
X111925Y-39900D01*
X112001Y-39928D01*
X112039Y-39957D01*
X112078Y-40014D01*
X111354Y-40471D02*
X111316Y-40500D01*
X111278Y-40471D01*
X111316Y-40442D01*
X111354Y-40471D01*
X111278Y-40471D01*
X112078Y-40871D02*
X112078Y-40928D01*
X112039Y-40985D01*
X112001Y-41014D01*
X111925Y-41042D01*
X111773Y-41071D01*
X111582Y-41071D01*
X111430Y-41042D01*
X111354Y-41014D01*
X111316Y-40985D01*
X111278Y-40928D01*
X111278Y-40871D01*
X111316Y-40814D01*
X111354Y-40785D01*
X111430Y-40757D01*
X111582Y-40728D01*
X111773Y-40728D01*
X111925Y-40757D01*
X112001Y-40785D01*
X112039Y-40814D01*
X112078Y-40871D01*
X112001Y-41300D02*
X112039Y-41328D01*
X112078Y-41385D01*
X112078Y-41528D01*
X112039Y-41585D01*
X112001Y-41614D01*
X111925Y-41642D01*
X111849Y-41642D01*
X111735Y-41614D01*
X111278Y-41271D01*
X111278Y-41642D01*
X112078Y-42014D02*
X112078Y-42071D01*
X112039Y-42128D01*
X112001Y-42157D01*
X111925Y-42185D01*
X111773Y-42214D01*
X111582Y-42214D01*
X111430Y-42185D01*
X111354Y-42157D01*
X111316Y-42128D01*
X111278Y-42071D01*
X111278Y-42014D01*
X111316Y-41957D01*
X111354Y-41928D01*
X111430Y-41900D01*
X111582Y-41871D01*
X111773Y-41871D01*
X111925Y-41900D01*
X112001Y-41928D01*
X112039Y-41957D01*
X112078Y-42014D01*
X111278Y-42928D02*
X111811Y-42928D01*
X111735Y-42928D02*
X111773Y-42957D01*
X111811Y-43014D01*
X111811Y-43100D01*
X111773Y-43157D01*
X111697Y-43185D01*
X111278Y-43185D01*
X111697Y-43185D02*
X111773Y-43214D01*
X111811Y-43271D01*
X111811Y-43357D01*
X111773Y-43414D01*
X111697Y-43442D01*
X111278Y-43442D01*
X111278Y-43728D02*
X111811Y-43728D01*
X111735Y-43728D02*
X111773Y-43757D01*
X111811Y-43814D01*
X111811Y-43900D01*
X111773Y-43957D01*
X111697Y-43985D01*
X111278Y-43985D01*
X111697Y-43985D02*
X111773Y-44014D01*
X111811Y-44071D01*
X111811Y-44157D01*
X111773Y-44214D01*
X111697Y-44242D01*
X111278Y-44242D01*
X110999Y-10000D02*
X110999Y-73000D01*
X109000Y-10000D02*
X112279Y-10000D01*
X109000Y-73000D02*
X112279Y-73000D01*
X110999Y-73000D02*
X110769Y-72556D01*
X110999Y-73000D02*
X111230Y-72556D01*
X110999Y-10000D02*
X110769Y-10443D01*
X110999Y-10000D02*
X111230Y-10443D01*
X86071Y-7721D02*
X85728Y-7721D01*
X85899Y-7721D02*
X85899Y-6921D01*
X85842Y-7036D01*
X85785Y-7112D01*
X85728Y-7150D01*
X86442Y-6921D02*
X86500Y-6921D01*
X86557Y-6960D01*
X86585Y-6998D01*
X86614Y-7074D01*
X86642Y-7226D01*
X86642Y-7417D01*
X86614Y-7569D01*
X86585Y-7645D01*
X86557Y-7683D01*
X86500Y-7721D01*
X86442Y-7721D01*
X86385Y-7683D01*
X86357Y-7645D01*
X86328Y-7569D01*
X86300Y-7417D01*
X86300Y-7226D01*
X86328Y-7074D01*
X86357Y-6998D01*
X86385Y-6960D01*
X86442Y-6921D01*
X87157Y-7188D02*
X87157Y-7721D01*
X87014Y-6883D02*
X86871Y-7455D01*
X87242Y-7455D01*
X87471Y-7645D02*
X87500Y-7683D01*
X87471Y-7721D01*
X87442Y-7683D01*
X87471Y-7645D01*
X87471Y-7721D01*
X88071Y-7721D02*
X87728Y-7721D01*
X87900Y-7721D02*
X87900Y-6921D01*
X87842Y-7036D01*
X87785Y-7112D01*
X87728Y-7150D01*
X88585Y-7188D02*
X88585Y-7721D01*
X88442Y-6883D02*
X88300Y-7455D01*
X88671Y-7455D01*
X89014Y-6921D02*
X89071Y-6921D01*
X89128Y-6960D01*
X89157Y-6998D01*
X89185Y-7074D01*
X89214Y-7226D01*
X89214Y-7417D01*
X89185Y-7569D01*
X89157Y-7645D01*
X89128Y-7683D01*
X89071Y-7721D01*
X89014Y-7721D01*
X88957Y-7683D01*
X88928Y-7645D01*
X88900Y-7569D01*
X88871Y-7417D01*
X88871Y-7226D01*
X88900Y-7074D01*
X88928Y-6998D01*
X88957Y-6960D01*
X89014Y-6921D01*
X89928Y-7721D02*
X89928Y-7188D01*
X89928Y-7264D02*
X89957Y-7226D01*
X90014Y-7188D01*
X90100Y-7188D01*
X90157Y-7226D01*
X90185Y-7302D01*
X90185Y-7721D01*
X90185Y-7302D02*
X90214Y-7226D01*
X90271Y-7188D01*
X90357Y-7188D01*
X90414Y-7226D01*
X90442Y-7302D01*
X90442Y-7721D01*
X90728Y-7721D02*
X90728Y-7188D01*
X90728Y-7264D02*
X90757Y-7226D01*
X90814Y-7188D01*
X90900Y-7188D01*
X90957Y-7226D01*
X90985Y-7302D01*
X90985Y-7721D01*
X90985Y-7302D02*
X91014Y-7226D01*
X91071Y-7188D01*
X91157Y-7188D01*
X91214Y-7226D01*
X91242Y-7302D01*
X91242Y-7721D01*
X68000Y-8000D02*
X109000Y-8000D01*
X68000Y-10000D02*
X68000Y-6720D01*
X109000Y-10000D02*
X109000Y-6720D01*
X109000Y-8000D02*
X108556Y-8230D01*
X109000Y-8000D02*
X108556Y-7769D01*
X68000Y-8000D02*
X68443Y-8230D01*
X68000Y-8000D02*
X68443Y-7769D01*
G54D12*
X109000Y-73000D02*
X108000Y-73000D01*
X109000Y-10000D02*
X109000Y-73000D01*
X68000Y-10000D02*
X109000Y-10000D01*
X68000Y-73000D02*
X68000Y-10000D01*
X108000Y-73000D02*
X68000Y-73000D01*
G54D13*
X19000Y-27000D03*
X19000Y-60000D03*
X48000Y-60000D03*
X48000Y-27000D03*
X70000Y-71000D03*
G54D14*
X88990Y-39416D03*
X88990Y-50916D03*
G54D13*
X71400Y-11500D03*
X107000Y-71000D03*
G54D15*
X44702Y-42678D03*
G54D16*
X45702Y-42678D03*
X45702Y-41678D03*
G54D15*
X38227Y-41253D03*
G54D16*
X38227Y-42253D03*
X39227Y-42253D03*
G54D17*
X39765Y-37316D03*
X37665Y-37316D03*
X39765Y-36816D03*
X39765Y-36316D03*
X39765Y-35816D03*
X37665Y-36816D03*
X37665Y-36316D03*
X37665Y-35816D03*
X40290Y-29816D03*
X38190Y-29816D03*
X40290Y-29316D03*
X40290Y-28816D03*
X40290Y-28316D03*
X38190Y-29316D03*
X38190Y-28816D03*
X38190Y-28316D03*
G54D18*
X46465Y-54165D03*
X46465Y-54915D03*
G54D19*
X26690Y-29041D03*
X25940Y-29041D03*
X25965Y-29966D03*
X26715Y-29966D03*
X35840Y-36816D03*
X36590Y-36816D03*
X41715Y-37241D03*
X40965Y-37241D03*
X36515Y-28316D03*
X37265Y-28316D03*
G54D18*
X40915Y-43191D03*
X40915Y-42441D03*
X34440Y-27816D03*
X34440Y-28566D03*
G54D19*
X41990Y-28316D03*
X41240Y-28316D03*
X44752Y-43928D03*
X44002Y-43928D03*
X43565Y-42616D03*
X42815Y-42616D03*
G54D18*
X39902Y-43353D03*
X39902Y-44103D03*
G54D19*
X41715Y-36416D03*
X40965Y-36416D03*
X36565Y-35866D03*
X35815Y-35866D03*
X37290Y-29216D03*
X36540Y-29216D03*
X36565Y-30116D03*
X37315Y-30116D03*
X42015Y-29391D03*
X41265Y-29391D03*
G54D18*
X33215Y-31716D03*
X33215Y-30966D03*
G54D19*
X30440Y-37016D03*
X31190Y-37016D03*
X42015Y-30241D03*
X41265Y-30241D03*
X29840Y-30241D03*
X30590Y-30241D03*
G54D20*
X32123Y-38416D03*
X32123Y-39676D03*
X32123Y-40541D03*
X32123Y-41416D03*
X29707Y-41416D03*
X29707Y-40541D03*
X29707Y-39676D03*
X29707Y-38416D03*
X26598Y-38416D03*
X26598Y-39676D03*
X26598Y-40541D03*
X26598Y-41416D03*
X24182Y-41416D03*
X24182Y-40541D03*
X24182Y-39676D03*
X24182Y-38416D03*
G54D21*
X76000Y-48000D03*
X76000Y-44000D03*
X84175Y-14280D03*
X80175Y-14280D03*
G54D10*
G36*
X88202Y-52985D02*
X89777Y-52985D01*
X89777Y-54560D01*
X88202Y-54560D01*
X88202Y-52985D01*
X88202Y-52985D01*
G37*
G36*
X88202Y-66371D02*
X89777Y-66371D01*
X89777Y-67946D01*
X88202Y-67946D01*
X88202Y-66371D01*
X88202Y-66371D01*
G37*
G36*
X88202Y-56135D02*
X89777Y-56135D01*
X89777Y-57710D01*
X88202Y-57710D01*
X88202Y-56135D01*
X88202Y-56135D01*
G37*
G36*
X88202Y-63221D02*
X89777Y-63221D01*
X89777Y-64796D01*
X88202Y-64796D01*
X88202Y-63221D01*
X88202Y-63221D01*
G37*
G54D22*
X26340Y-31741D03*
G54D23*
X25340Y-31741D03*
X24340Y-31741D03*
X24340Y-34741D03*
X25340Y-34741D03*
X26340Y-34741D03*
G54D22*
X31840Y-31716D03*
G54D23*
X30840Y-31716D03*
X29840Y-31716D03*
X29840Y-34716D03*
X30840Y-34716D03*
X31840Y-34716D03*
G54D24*
X92564Y-29197D03*
X92564Y-35890D03*
X85871Y-35890D03*
X85871Y-31559D03*
G54D10*
G36*
X42599Y-54718D02*
X41418Y-54718D01*
X41418Y-54127D01*
X42599Y-54127D01*
X42599Y-54718D01*
X42599Y-54718D01*
G37*
G36*
X42599Y-55899D02*
X41418Y-55899D01*
X41418Y-55308D01*
X42599Y-55308D01*
X42599Y-55899D01*
X42599Y-55899D01*
G37*
G36*
X40040Y-55899D02*
X38858Y-55899D01*
X38858Y-55308D01*
X40040Y-55308D01*
X40040Y-55899D01*
X40040Y-55899D01*
G37*
G36*
X40040Y-54718D02*
X38858Y-54718D01*
X38858Y-54127D01*
X40040Y-54127D01*
X40040Y-54718D01*
X40040Y-54718D01*
G37*
G54D25*
X39177Y-59188D03*
G54D26*
X41177Y-59188D03*
X43177Y-59188D03*
G54D25*
X27790Y-27941D03*
G54D26*
X25790Y-27941D03*
X23790Y-27941D03*
G54D25*
X32490Y-59151D03*
G54D26*
X30490Y-59151D03*
G54D25*
X27653Y-59094D03*
G54D26*
X25653Y-59094D03*
G54D25*
X23322Y-59094D03*
G54D26*
X21322Y-59094D03*
G54D13*
X88375Y-14210D03*
X76000Y-51000D03*
G54D27*
X36595Y-46653D03*
X40020Y-46653D03*
X42782Y-46642D03*
X46207Y-46642D03*
G54D19*
X38027Y-44078D03*
X38777Y-44078D03*
G54D15*
X39815Y-34616D03*
G54D16*
X40815Y-34616D03*
X41815Y-34616D03*
X42815Y-34616D03*
X42815Y-31616D03*
X41815Y-31616D03*
X40815Y-31616D03*
X39815Y-31616D03*
G54D15*
X34890Y-34566D03*
G54D16*
X35890Y-34566D03*
X36890Y-34566D03*
X37890Y-34566D03*
X37890Y-31566D03*
X36890Y-31566D03*
X35890Y-31566D03*
X34890Y-31566D03*
G54D28*
X33215Y-27841D03*
G54D29*
X33215Y-28841D03*
X32215Y-27841D03*
X32215Y-28841D03*
X31215Y-27841D03*
X31215Y-28841D03*
X30215Y-27841D03*
X30215Y-28841D03*
G54D30*
X102615Y-26466D03*
X102615Y-38266D03*
X102690Y-63891D03*
X102690Y-52091D03*
G54D13*
X102790Y-14166D03*
G54D19*
X25040Y-37166D03*
X25790Y-37166D03*
G54D25*
X34690Y-59176D03*
G54D26*
X36690Y-59176D03*
G54D19*
X37265Y-38466D03*
X38015Y-38466D03*
X41715Y-35616D03*
X40965Y-35616D03*
G54D13*
X107100Y-11500D03*
G54D31*
X40945Y-40556D03*
X40945Y-39556D03*
X43695Y-40551D03*
X43695Y-39551D03*
X35240Y-29236D03*
X35240Y-30236D03*
G54D25*
X73700Y-32900D03*
G54D26*
X73700Y-34900D03*
X73700Y-36900D03*
G54D25*
X47500Y-35300D03*
G54D26*
X47500Y-37300D03*
X47500Y-39300D03*
G54D27*
X36613Y-51305D03*
X40038Y-51305D03*
X42728Y-51270D03*
X46153Y-51270D03*
G54D21*
X76000Y-40000D03*
X76000Y-36000D03*
X76000Y-30000D03*
X76000Y-34000D03*
G54D32*
X27755Y-32381D03*
X27755Y-35039D03*
G54D33*
X28366Y-31653D03*
X29330Y-26889D03*
X44665Y-34842D03*
G54D32*
X33740Y-35314D03*
G54D33*
X40065Y-41866D03*
X35740Y-40266D03*
G54D32*
X38582Y-34940D03*
X38287Y-27263D03*
G54D33*
X42559Y-43562D03*
X38523Y-39251D03*
X36456Y-37913D03*
X44645Y-38169D03*
G54D32*
X37303Y-27165D03*
X36417Y-30905D03*
X41929Y-27559D03*
X36515Y-27165D03*
G54D33*
X41370Y-49350D03*
X45345Y-55395D03*
G54D34*
X28149Y-38416D02*
X28149Y-35433D01*
X28366Y-31771D02*
X28366Y-31653D01*
X27755Y-32381D02*
X28366Y-31771D01*
X28149Y-35433D02*
X27755Y-35039D01*
G54D35*
X30215Y-27841D02*
X30215Y-27774D01*
X30215Y-27774D02*
X29330Y-26889D01*
X28366Y-31653D02*
X29311Y-32677D01*
X36696Y-32241D02*
X36608Y-32634D01*
X36968Y-32677D02*
X36696Y-32241D01*
X29311Y-32677D02*
X36968Y-32677D01*
X36608Y-32634D02*
X38153Y-32634D01*
X38153Y-32634D02*
X37591Y-32624D01*
X37591Y-32624D02*
X38442Y-32624D01*
X38442Y-32624D02*
X38965Y-31866D01*
X38965Y-31866D02*
X38965Y-31466D01*
X38965Y-31466D02*
X38965Y-31066D01*
X39890Y-29816D02*
X40290Y-29816D01*
X39490Y-30216D02*
X39890Y-29816D01*
X39490Y-30541D02*
X39490Y-30216D01*
X38965Y-31066D02*
X39490Y-30541D01*
X38965Y-31466D02*
X38965Y-31416D01*
X36608Y-32634D02*
X36890Y-31566D01*
X41815Y-31616D02*
X41815Y-31416D01*
X41815Y-31416D02*
X41167Y-30768D01*
X41167Y-30768D02*
X40667Y-30768D01*
X40667Y-30768D02*
X40290Y-30391D01*
X40290Y-30391D02*
X40290Y-29816D01*
G54D34*
X27790Y-27941D02*
X30115Y-27941D01*
X30115Y-27941D02*
X30215Y-27841D01*
G54D35*
X34465Y-38991D02*
X34465Y-36039D01*
X42478Y-35279D02*
X41815Y-34616D01*
X42968Y-35279D02*
X42478Y-35279D01*
X43484Y-34763D02*
X42968Y-35279D01*
X44586Y-34763D02*
X43484Y-34763D01*
X44665Y-34842D02*
X44586Y-34763D01*
X34465Y-36039D02*
X33740Y-35314D01*
X32490Y-38991D02*
X34465Y-38991D01*
X39902Y-42028D02*
X39902Y-42903D01*
X40065Y-41866D02*
X39902Y-42028D01*
X34465Y-38991D02*
X35740Y-40266D01*
X32123Y-38416D02*
X32123Y-38624D01*
X32465Y-38941D02*
X32465Y-38966D01*
X32465Y-38966D02*
X32465Y-38991D01*
X32490Y-38966D02*
X32465Y-38941D01*
X32490Y-38991D02*
X32490Y-38966D01*
X32123Y-38624D02*
X32490Y-38991D01*
X26598Y-38416D02*
X28149Y-38416D01*
X28149Y-38416D02*
X28265Y-38416D01*
X28265Y-38416D02*
X28840Y-38991D01*
X28840Y-38991D02*
X32465Y-38991D01*
X31190Y-37016D02*
X31190Y-37483D01*
X31190Y-37483D02*
X32123Y-38416D01*
X25790Y-37166D02*
X25790Y-37316D01*
X26598Y-38124D02*
X26598Y-38416D01*
X25790Y-37316D02*
X26598Y-38124D01*
X36890Y-34566D02*
X36915Y-34566D01*
X39315Y-37316D02*
X39765Y-37316D01*
X38815Y-36816D02*
X39315Y-37316D01*
X38815Y-35441D02*
X38815Y-36816D01*
X39190Y-35066D02*
X38815Y-35441D01*
X39190Y-34516D02*
X39190Y-35066D01*
X38665Y-33991D02*
X39190Y-34516D01*
X37490Y-33991D02*
X38665Y-33991D01*
X36915Y-34566D02*
X37490Y-33991D01*
G54D34*
X39902Y-43353D02*
X40752Y-43353D01*
G54D35*
X40752Y-43353D02*
X40915Y-43191D01*
G54D34*
X39227Y-42253D02*
X39227Y-40941D01*
X39227Y-40941D02*
X39227Y-40491D01*
X39227Y-37853D02*
X39765Y-37316D01*
X39227Y-39528D02*
X39227Y-37853D01*
X39227Y-40491D02*
X39227Y-39528D01*
G54D36*
X39902Y-43353D02*
X39902Y-42903D01*
X39902Y-42903D02*
X39227Y-42228D01*
G54D34*
X38190Y-28316D02*
X38190Y-27361D01*
X37707Y-35816D02*
X37665Y-35816D01*
X38582Y-34940D02*
X37707Y-35816D01*
X38190Y-27361D02*
X38287Y-27263D01*
G54D35*
X43565Y-42616D02*
X43565Y-43108D01*
X43565Y-43108D02*
X43110Y-43562D01*
X43110Y-43562D02*
X42559Y-43562D01*
X38523Y-39251D02*
X38517Y-39246D01*
X38517Y-39246D02*
X38517Y-36273D01*
X38517Y-36273D02*
X38060Y-35816D01*
X38060Y-35816D02*
X37665Y-35816D01*
X43565Y-42616D02*
X44640Y-42616D01*
X44640Y-42616D02*
X44702Y-42678D01*
G54D36*
X44752Y-43928D02*
X44752Y-42728D01*
X44752Y-42728D02*
X44702Y-42678D01*
G54D35*
X37665Y-27791D02*
X38190Y-28316D01*
X36865Y-27791D02*
X37665Y-27791D01*
G54D36*
X26598Y-40541D02*
X26073Y-40541D01*
X21322Y-58874D02*
X21322Y-59094D01*
X22165Y-58031D02*
X21322Y-58874D01*
X24251Y-58031D02*
X22165Y-58031D01*
X24566Y-58346D02*
X24251Y-58031D01*
X24566Y-59803D02*
X24566Y-58346D01*
X24960Y-60196D02*
X24566Y-59803D01*
X28346Y-60196D02*
X24960Y-60196D01*
X28700Y-59842D02*
X28346Y-60196D01*
X28700Y-50708D02*
X28700Y-59842D01*
X25551Y-47559D02*
X28700Y-50708D01*
X25551Y-41062D02*
X25551Y-47559D01*
X26073Y-40541D02*
X25551Y-41062D01*
X36690Y-59176D02*
X36690Y-59963D01*
X21322Y-60377D02*
X21322Y-59094D01*
X22244Y-61299D02*
X21322Y-60377D01*
X35354Y-61299D02*
X22244Y-61299D01*
X36690Y-59963D02*
X35354Y-61299D01*
X32123Y-40541D02*
X32666Y-40541D01*
X36616Y-59176D02*
X36690Y-59176D01*
X32244Y-54803D02*
X36616Y-59176D01*
X32244Y-43700D02*
X32244Y-54803D01*
X32972Y-42972D02*
X32244Y-43700D01*
X32972Y-40846D02*
X32972Y-42972D01*
X32666Y-40541D02*
X32972Y-40846D01*
X26598Y-39676D02*
X27235Y-39676D01*
X30551Y-60748D02*
X30629Y-60748D01*
X29448Y-59645D02*
X30551Y-60748D01*
X29448Y-45236D02*
X29448Y-59645D01*
X28031Y-43818D02*
X29448Y-45236D01*
X28031Y-40472D02*
X28031Y-43818D01*
X27235Y-39676D02*
X28031Y-40472D01*
X34690Y-59176D02*
X34682Y-59176D01*
X23322Y-59779D02*
X23322Y-59094D01*
X24291Y-60748D02*
X23322Y-59779D01*
X33110Y-60748D02*
X30629Y-60748D01*
X30629Y-60748D02*
X24291Y-60748D01*
X34682Y-59176D02*
X33110Y-60748D01*
X31690Y-47185D02*
X31690Y-43402D01*
X31524Y-39676D02*
X32123Y-39676D01*
X30866Y-40334D02*
X31524Y-39676D01*
X30866Y-42578D02*
X30866Y-40334D01*
X31690Y-43402D02*
X30866Y-42578D01*
X34690Y-59176D02*
X34690Y-58651D01*
X31690Y-55651D02*
X31690Y-47185D01*
X31690Y-47185D02*
X31690Y-47226D01*
X34690Y-58651D02*
X31690Y-55651D01*
X27653Y-59094D02*
X27653Y-51472D01*
X24182Y-48000D02*
X24182Y-41416D01*
X27653Y-51472D02*
X24182Y-48000D01*
X24182Y-39676D02*
X23827Y-39676D01*
X25653Y-51322D02*
X25653Y-59094D01*
X23188Y-48858D02*
X25653Y-51322D01*
X23188Y-40314D02*
X23188Y-48858D01*
X23827Y-39676D02*
X23188Y-40314D01*
X39449Y-55604D02*
X37184Y-55604D01*
X36613Y-55033D02*
X36613Y-51305D01*
X37184Y-55604D02*
X36613Y-55033D01*
X36613Y-51305D02*
X36595Y-51287D01*
X36595Y-51287D02*
X36595Y-46653D01*
X36645Y-50775D02*
X36645Y-46703D01*
X36645Y-46703D02*
X36595Y-46653D01*
X36595Y-44978D02*
X36595Y-42860D01*
X36595Y-42860D02*
X38227Y-41228D01*
X38027Y-44078D02*
X37427Y-44078D01*
X36595Y-44910D02*
X36595Y-44978D01*
X36595Y-44978D02*
X36595Y-46653D01*
X37427Y-44078D02*
X36595Y-44910D01*
X36645Y-50775D02*
X36645Y-50763D01*
G54D34*
X46465Y-54165D02*
X46465Y-53635D01*
X45610Y-52780D02*
X44810Y-52780D01*
X46465Y-53635D02*
X45610Y-52780D01*
G54D36*
X46207Y-46642D02*
X46207Y-51216D01*
X46207Y-51216D02*
X46153Y-51270D01*
X39449Y-54422D02*
X39449Y-54240D01*
X46153Y-51437D02*
X46153Y-51150D01*
X44760Y-52830D02*
X44810Y-52780D01*
X44810Y-52780D02*
X46153Y-51437D01*
X40860Y-52830D02*
X44760Y-52830D01*
X39449Y-54240D02*
X40860Y-52830D01*
X46102Y-46710D02*
X46070Y-46678D01*
X45702Y-42678D02*
X45702Y-46310D01*
X45702Y-46310D02*
X46070Y-46678D01*
X42008Y-55604D02*
X42008Y-56357D01*
X42008Y-56357D02*
X39177Y-59188D01*
X42008Y-54422D02*
X42411Y-54422D01*
X43177Y-55188D02*
X43177Y-59188D01*
X42411Y-54422D02*
X43177Y-55188D01*
G54D37*
X88990Y-64009D02*
X102571Y-64009D01*
X102571Y-64009D02*
X102690Y-63891D01*
X88990Y-64009D02*
X88990Y-67158D01*
G54D35*
X30590Y-30241D02*
X30815Y-30241D01*
X30815Y-30241D02*
X32215Y-28841D01*
X33215Y-30966D02*
X33215Y-28841D01*
X31215Y-28841D02*
X31215Y-28816D01*
X33915Y-28341D02*
X34440Y-27816D01*
X31690Y-28341D02*
X33915Y-28341D01*
X31215Y-28816D02*
X31690Y-28341D01*
X26690Y-29041D02*
X28790Y-29041D01*
X30715Y-28341D02*
X31215Y-27841D01*
X29490Y-28341D02*
X30715Y-28341D01*
X28790Y-29041D02*
X29490Y-28341D01*
X26690Y-29041D02*
X26690Y-29941D01*
X26690Y-29941D02*
X26715Y-29966D01*
G54D38*
X32215Y-27841D02*
X32215Y-27391D01*
X39552Y-29316D02*
X40290Y-29316D01*
X39527Y-29291D02*
X39552Y-29316D01*
X39527Y-26692D02*
X39527Y-29291D01*
X32913Y-26692D02*
X39527Y-26692D01*
X32215Y-27391D02*
X32913Y-26692D01*
G54D35*
X40290Y-29316D02*
X41190Y-29316D01*
X41190Y-29316D02*
X41265Y-29391D01*
X33215Y-27841D02*
X33215Y-27791D01*
X36065Y-29216D02*
X36540Y-29216D01*
X35840Y-28991D02*
X36065Y-29216D01*
X35840Y-28341D02*
X35840Y-28991D01*
X34840Y-27341D02*
X35840Y-28341D01*
X33665Y-27341D02*
X34840Y-27341D01*
X33215Y-27791D02*
X33665Y-27341D01*
X36540Y-29216D02*
X36565Y-29216D01*
X38190Y-30191D02*
X38190Y-29816D01*
X37665Y-30716D02*
X38190Y-30191D01*
X37115Y-30716D02*
X37665Y-30716D01*
X36940Y-30541D02*
X37115Y-30716D01*
X36940Y-29591D02*
X36940Y-30541D01*
X36565Y-29216D02*
X36940Y-29591D01*
G54D37*
X85871Y-35890D02*
X81889Y-35890D01*
X99890Y-23741D02*
X102615Y-26466D01*
X86215Y-23741D02*
X99890Y-23741D01*
X81165Y-28791D02*
X86215Y-23741D01*
X81165Y-35166D02*
X81165Y-28791D01*
X81889Y-35890D02*
X81165Y-35166D01*
X102615Y-38266D02*
X101632Y-38266D01*
X101632Y-38266D02*
X92564Y-29197D01*
G54D36*
X31115Y-48390D02*
X31115Y-44291D01*
X31065Y-44241D02*
X29707Y-42883D01*
X29707Y-42883D02*
X29707Y-41416D01*
X31115Y-44291D02*
X31065Y-44241D01*
X32490Y-59151D02*
X32490Y-57776D01*
X31115Y-56401D02*
X31115Y-48390D01*
X31115Y-48390D02*
X31115Y-48351D01*
X32490Y-57776D02*
X31115Y-56401D01*
X30490Y-49401D02*
X30490Y-45341D01*
X29030Y-39676D02*
X28640Y-40066D01*
X28640Y-40066D02*
X28640Y-43491D01*
X28640Y-43491D02*
X30440Y-45291D01*
X30490Y-59151D02*
X30490Y-49401D01*
X29030Y-39676D02*
X29707Y-39676D01*
X30490Y-45341D02*
X30440Y-45291D01*
G54D37*
X102790Y-14166D02*
X88419Y-14166D01*
X88419Y-14166D02*
X88375Y-14210D01*
G54D36*
X84175Y-14280D02*
X88305Y-14280D01*
X88305Y-14280D02*
X88375Y-14210D01*
X76000Y-30000D02*
X75000Y-30000D01*
X73700Y-31300D02*
X73700Y-32900D01*
X75000Y-30000D02*
X73700Y-31300D01*
X76000Y-30000D02*
X76000Y-18455D01*
X76000Y-18455D02*
X80175Y-14280D01*
G54D34*
X47500Y-35300D02*
X45800Y-35300D01*
X45484Y-35616D02*
X41715Y-35616D01*
X45800Y-35300D02*
X45484Y-35616D01*
G54D36*
X76000Y-51000D02*
X76000Y-48000D01*
G54D37*
X88990Y-39416D02*
X88990Y-41310D01*
X79300Y-51000D02*
X76000Y-51000D01*
X88990Y-41310D02*
X79300Y-51000D01*
X88990Y-39416D02*
X88990Y-32511D01*
X88038Y-31559D02*
X85871Y-31559D01*
X88990Y-32511D02*
X88038Y-31559D01*
G54D36*
X76000Y-40000D02*
X75039Y-40000D01*
X73700Y-38660D02*
X73700Y-36900D01*
X75039Y-40000D02*
X73700Y-38660D01*
X76000Y-44000D02*
X76000Y-40000D01*
G54D34*
X47500Y-39300D02*
X45776Y-39300D01*
X37009Y-38466D02*
X37265Y-38466D01*
X36456Y-37913D02*
X37009Y-38466D01*
X45776Y-39300D02*
X44645Y-38169D01*
X36565Y-30116D02*
X36565Y-30757D01*
X37303Y-27165D02*
X36515Y-27165D01*
X36565Y-30757D02*
X36417Y-30905D01*
G54D35*
X36515Y-28316D02*
X36515Y-28141D01*
X36515Y-28141D02*
X36865Y-27791D01*
G54D34*
X41990Y-28316D02*
X41990Y-27619D01*
X41990Y-27619D02*
X41929Y-27559D01*
X36515Y-27166D02*
X36515Y-28316D01*
X36515Y-27165D02*
X36515Y-27166D01*
G54D35*
X42015Y-30241D02*
X42190Y-30241D01*
X42190Y-30241D02*
X42515Y-29916D01*
X42515Y-29916D02*
X42515Y-28641D01*
X42515Y-28641D02*
X42190Y-28316D01*
X42190Y-28316D02*
X41990Y-28316D01*
G54D34*
X25965Y-29966D02*
X25965Y-30768D01*
X29134Y-29921D02*
X30215Y-28841D01*
X27795Y-29921D02*
X29134Y-29921D01*
X27007Y-30708D02*
X27795Y-29921D01*
X26024Y-30708D02*
X27007Y-30708D01*
X25965Y-30768D02*
X26024Y-30708D01*
G54D35*
X35240Y-30236D02*
X34965Y-30236D01*
X30840Y-31286D02*
X30840Y-31716D01*
X31240Y-30886D02*
X30840Y-31286D01*
X32320Y-30886D02*
X31240Y-30886D01*
X32775Y-31341D02*
X32320Y-30886D01*
X33860Y-31341D02*
X32775Y-31341D01*
X34965Y-30236D02*
X33860Y-31341D01*
X36565Y-30116D02*
X35360Y-30116D01*
X35360Y-30116D02*
X35240Y-30236D01*
X25965Y-29966D02*
X25515Y-29966D01*
X25515Y-29966D02*
X25340Y-30141D01*
G54D34*
X23790Y-27941D02*
X23790Y-28591D01*
X23790Y-28591D02*
X25340Y-30141D01*
X25340Y-30141D02*
X25340Y-31741D01*
G54D35*
X30215Y-28841D02*
X30215Y-30741D01*
X30840Y-31366D02*
X30840Y-31716D01*
X30215Y-30741D02*
X30840Y-31366D01*
G54D38*
X39606Y-33228D02*
X48818Y-33228D01*
X49055Y-33464D02*
X49055Y-37300D01*
X48818Y-33228D02*
X49055Y-33464D01*
X34881Y-33228D02*
X39606Y-33228D01*
X39815Y-33437D02*
X39815Y-34616D01*
X39606Y-33228D02*
X39815Y-33437D01*
X29685Y-33228D02*
X34881Y-33228D01*
X34890Y-33236D02*
X34890Y-34566D01*
X34881Y-33228D02*
X34890Y-33236D01*
X24340Y-34741D02*
X24340Y-33534D01*
X29840Y-33383D02*
X29840Y-34716D01*
X29685Y-33228D02*
X29840Y-33383D01*
X24645Y-33228D02*
X29685Y-33228D01*
X24340Y-33534D02*
X24645Y-33228D01*
G54D36*
X49055Y-37300D02*
X47500Y-37300D01*
X74900Y-34900D02*
X76000Y-36000D01*
X73700Y-34900D02*
X74900Y-34900D01*
X75800Y-34000D02*
X76000Y-34000D01*
X74900Y-34900D02*
X75800Y-34000D01*
G54D34*
X41425Y-46705D02*
X41425Y-44155D01*
X41715Y-43865D02*
X41715Y-39966D01*
X41425Y-44155D02*
X41715Y-43865D01*
X45345Y-55395D02*
X45405Y-55395D01*
X45885Y-54915D02*
X46465Y-54915D01*
X45405Y-55395D02*
X45885Y-54915D01*
G54D36*
X41177Y-59188D02*
X41177Y-59627D01*
X41405Y-48930D02*
X41425Y-48930D01*
X41425Y-48950D02*
X41405Y-48930D01*
X41425Y-49295D02*
X41425Y-48950D01*
X41370Y-49350D02*
X41425Y-49295D01*
X45345Y-55425D02*
X45345Y-55395D01*
X45360Y-55440D02*
X45345Y-55425D01*
X45360Y-59280D02*
X45360Y-55440D01*
X44100Y-60540D02*
X45360Y-59280D01*
X42090Y-60540D02*
X44100Y-60540D01*
X41177Y-59627D02*
X42090Y-60540D01*
X41425Y-51270D02*
X41425Y-48930D01*
X41425Y-48930D02*
X41425Y-46705D01*
X41425Y-46705D02*
X41425Y-46656D01*
X41425Y-46656D02*
X41427Y-46653D01*
X42728Y-51270D02*
X41425Y-51270D01*
X41425Y-51270D02*
X40073Y-51270D01*
X40073Y-51270D02*
X40038Y-51305D01*
G54D34*
X41700Y-39500D02*
X41700Y-37256D01*
X41700Y-37256D02*
X41715Y-37241D01*
X47500Y-37300D02*
X43900Y-37300D01*
X43900Y-37300D02*
X41700Y-39500D01*
X41700Y-39500D02*
X41700Y-39800D01*
X41700Y-39800D02*
X41715Y-39800D01*
G54D35*
X41715Y-39800D02*
X41715Y-39966D01*
G54D36*
X102690Y-52091D02*
X102690Y-52710D01*
X102690Y-52710D02*
X94700Y-60700D01*
X94700Y-60700D02*
X79600Y-60700D01*
X79600Y-60700D02*
X72100Y-53200D01*
X72100Y-53200D02*
X72100Y-36500D01*
X72100Y-36500D02*
X73700Y-34900D01*
G54D35*
X45702Y-41678D02*
X45702Y-41853D01*
X44364Y-45321D02*
X44002Y-45321D01*
X45205Y-44481D02*
X44364Y-45321D01*
X45205Y-42351D02*
X45205Y-44481D01*
X45702Y-41853D02*
X45205Y-42351D01*
X43695Y-40551D02*
X44575Y-40551D01*
X44575Y-40551D02*
X45702Y-41678D01*
X40945Y-39556D02*
X41305Y-39556D01*
X41305Y-39556D02*
X41715Y-39966D01*
G54D34*
X38227Y-42253D02*
X38227Y-42203D01*
X35840Y-38941D02*
X35840Y-38391D01*
X36515Y-39616D02*
X35840Y-38941D01*
X37815Y-39616D02*
X36515Y-39616D01*
X38851Y-40652D02*
X37815Y-39616D01*
X38851Y-41579D02*
X38851Y-40652D01*
X38227Y-42203D02*
X38851Y-41579D01*
G54D37*
X92564Y-35890D02*
X92564Y-41265D01*
X102690Y-51391D02*
X102690Y-52091D01*
X92564Y-41265D02*
X102690Y-51391D01*
G54D35*
X35840Y-36816D02*
X35840Y-38391D01*
X34890Y-34566D02*
X34890Y-35041D01*
X35365Y-36341D02*
X35840Y-36816D01*
X35365Y-35516D02*
X35365Y-36341D01*
X34890Y-35041D02*
X35365Y-35516D01*
G54D36*
X40020Y-46653D02*
X41427Y-46653D01*
X41427Y-46653D02*
X42620Y-46653D01*
X44002Y-45321D02*
X42645Y-46678D01*
X42620Y-46653D02*
X42645Y-46678D01*
X38777Y-44078D02*
X38777Y-43103D01*
X38227Y-42553D02*
X38227Y-42228D01*
X38777Y-43103D02*
X38227Y-42553D01*
X38777Y-44078D02*
X39877Y-44078D01*
X39877Y-44078D02*
X39902Y-44103D01*
X39902Y-44103D02*
X39902Y-46535D01*
X39902Y-46535D02*
X40020Y-46653D01*
X44002Y-43928D02*
X44002Y-45321D01*
G54D35*
X25040Y-37166D02*
X24715Y-37166D01*
X24182Y-37699D02*
X24182Y-38416D01*
X24715Y-37166D02*
X24182Y-37699D01*
X25340Y-34741D02*
X25340Y-36091D01*
X25040Y-36391D02*
X25040Y-37166D01*
X25340Y-36091D02*
X25040Y-36391D01*
X40965Y-35616D02*
X40515Y-35616D01*
X40315Y-35816D02*
X39765Y-35816D01*
X40515Y-35616D02*
X40315Y-35816D01*
G54D34*
X33215Y-31716D02*
X31840Y-31716D01*
G54D35*
X30440Y-37016D02*
X30440Y-35116D01*
X30440Y-35116D02*
X30840Y-34716D01*
X29707Y-38416D02*
X29707Y-37349D01*
X30040Y-37016D02*
X30440Y-37016D01*
X29707Y-37349D02*
X30040Y-37016D01*
X42015Y-29391D02*
X42015Y-29141D01*
X41690Y-28816D02*
X40290Y-28816D01*
X42015Y-29141D02*
X41690Y-28816D01*
X42015Y-29391D02*
X41940Y-29391D01*
X41415Y-30241D02*
X41265Y-30241D01*
X41640Y-30016D02*
X41415Y-30241D01*
X41640Y-29691D02*
X41640Y-30016D01*
X41940Y-29391D02*
X41640Y-29691D01*
X38190Y-28816D02*
X38565Y-28816D01*
X37890Y-31091D02*
X37890Y-31566D01*
X38765Y-30216D02*
X37890Y-31091D01*
X38765Y-29016D02*
X38765Y-30216D01*
X38565Y-28816D02*
X38765Y-29016D01*
X38190Y-28816D02*
X37890Y-28816D01*
X37390Y-28316D02*
X37265Y-28316D01*
X37890Y-28816D02*
X37390Y-28316D01*
X39765Y-36316D02*
X39415Y-36316D01*
X42265Y-34066D02*
X42815Y-34616D01*
X40590Y-34066D02*
X42265Y-34066D01*
X40340Y-34316D02*
X40590Y-34066D01*
X40340Y-35066D02*
X40340Y-34316D01*
X40090Y-35316D02*
X40340Y-35066D01*
X39390Y-35316D02*
X40090Y-35316D01*
X39140Y-35566D02*
X39390Y-35316D01*
X39140Y-36041D02*
X39140Y-35566D01*
X39415Y-36316D02*
X39140Y-36041D01*
X40965Y-37241D02*
X40890Y-37241D01*
X40415Y-36316D02*
X39765Y-36316D01*
X40565Y-36466D02*
X40415Y-36316D01*
X40565Y-36916D02*
X40565Y-36466D01*
X40890Y-37241D02*
X40565Y-36916D01*
X42815Y-31616D02*
X42815Y-28918D01*
X42815Y-28918D02*
X42815Y-27682D01*
X42815Y-27682D02*
X42190Y-27057D01*
X42190Y-27057D02*
X41440Y-27057D01*
X41440Y-27057D02*
X41240Y-27257D01*
X41240Y-27257D02*
X41240Y-28316D01*
X41240Y-28316D02*
X40940Y-28316D01*
X40940Y-28316D02*
X40290Y-28316D01*
X37290Y-29216D02*
X37290Y-30091D01*
X37290Y-30091D02*
X37315Y-30116D01*
X38190Y-29316D02*
X37390Y-29316D01*
X37390Y-29316D02*
X37290Y-29216D01*
X25940Y-29041D02*
X25940Y-28091D01*
X25940Y-28091D02*
X25790Y-27941D01*
X43695Y-39551D02*
X43620Y-39551D01*
X42815Y-40356D02*
X42815Y-42616D01*
X43620Y-39551D02*
X42815Y-40356D01*
X40945Y-40556D02*
X40945Y-42411D01*
X40945Y-42411D02*
X40915Y-42441D01*
X34440Y-28566D02*
X34570Y-28566D01*
X34570Y-28566D02*
X35240Y-29236D01*
G54D37*
X88990Y-53773D02*
X88990Y-57816D01*
X88990Y-57816D02*
X88990Y-56922D01*
X88990Y-50916D02*
X88990Y-53773D01*
G54D35*
X39765Y-36816D02*
X39990Y-36816D01*
X41340Y-36791D02*
X41715Y-36416D01*
X41340Y-37641D02*
X41340Y-36791D01*
X41215Y-37766D02*
X41340Y-37641D01*
X40640Y-37766D02*
X41215Y-37766D01*
X40415Y-37541D02*
X40640Y-37766D01*
X40415Y-37241D02*
X40415Y-37541D01*
X39990Y-36816D02*
X40415Y-37241D01*
X35815Y-35866D02*
X35815Y-34641D01*
X35815Y-34641D02*
X35890Y-34566D01*
X40965Y-36416D02*
X41215Y-36416D01*
X40865Y-34616D02*
X40815Y-34616D01*
X41340Y-35091D02*
X40865Y-34616D01*
X41340Y-36291D02*
X41340Y-35091D01*
X41215Y-36416D02*
X41340Y-36291D01*
X36565Y-35866D02*
X36315Y-35866D01*
X36315Y-37316D02*
X37665Y-37316D01*
X36215Y-37216D02*
X36315Y-37316D01*
X36215Y-35966D02*
X36215Y-37216D01*
X36315Y-35866D02*
X36215Y-35966D01*
X37890Y-34566D02*
X37890Y-34591D01*
X37065Y-36341D02*
X36590Y-36816D01*
X37065Y-35416D02*
X37065Y-36341D01*
X37890Y-34591D02*
X37065Y-35416D01*
X36590Y-36816D02*
X37665Y-36816D01*
G54D38*
X26340Y-31741D02*
X26841Y-31741D01*
X29858Y-30241D02*
X29840Y-30241D01*
X29233Y-30866D02*
X29858Y-30241D01*
X27716Y-30866D02*
X29233Y-30866D01*
X26841Y-31741D02*
X27716Y-30866D01*
G54D35*
X37665Y-36316D02*
X37965Y-36316D01*
X38165Y-38316D02*
X38015Y-38466D01*
X38165Y-36516D02*
X38165Y-38316D01*
X37965Y-36316D02*
X38165Y-36516D01*
G54D10*
G36*
X49675Y-61675D02*
X49050Y-61675D01*
X49050Y-59792D01*
X48890Y-59405D01*
X48595Y-59110D01*
X48209Y-58950D01*
X47792Y-58949D01*
X47405Y-59109D01*
X47110Y-59404D01*
X46950Y-59790D01*
X46949Y-60207D01*
X47109Y-60594D01*
X47404Y-60889D01*
X47790Y-61049D01*
X48207Y-61050D01*
X48594Y-60890D01*
X48889Y-60595D01*
X49049Y-60209D01*
X49050Y-59792D01*
X49050Y-61675D01*
X36309Y-61675D01*
X37264Y-60719D01*
X38238Y-60719D01*
X38238Y-60640D01*
X44036Y-60640D01*
X45364Y-59312D01*
X45364Y-55414D01*
X45650Y-55128D01*
X45940Y-55128D01*
X45940Y-55139D01*
X45978Y-55231D01*
X46048Y-55301D01*
X46140Y-55340D01*
X46239Y-55340D01*
X46352Y-55340D01*
X46415Y-55277D01*
X46415Y-55128D01*
X46515Y-55128D01*
X46515Y-55277D01*
X46577Y-55340D01*
X46690Y-55340D01*
X46789Y-55340D01*
X46881Y-55301D01*
X46951Y-55231D01*
X46990Y-55139D01*
X46990Y-55027D01*
X46927Y-54965D01*
X46680Y-54965D01*
X46780Y-54865D01*
X46927Y-54865D01*
X46990Y-54802D01*
X46990Y-54695D01*
X47254Y-54695D01*
X47254Y-52264D01*
X47648Y-51871D01*
X47648Y-50766D01*
X47254Y-50372D01*
X47254Y-47855D01*
X47648Y-47461D01*
X47648Y-46121D01*
X47175Y-45648D01*
X47175Y-41280D01*
X47855Y-40601D01*
X49065Y-40601D01*
X49065Y-33335D01*
X49050Y-33335D01*
X49050Y-26792D01*
X48890Y-26405D01*
X48595Y-26110D01*
X48209Y-25950D01*
X47792Y-25949D01*
X47405Y-26109D01*
X47110Y-26404D01*
X46950Y-26790D01*
X46949Y-27207D01*
X47109Y-27594D01*
X47404Y-27889D01*
X47790Y-28049D01*
X48207Y-28050D01*
X48594Y-27890D01*
X48889Y-27595D01*
X49049Y-27209D01*
X49050Y-26792D01*
X49050Y-33335D01*
X43908Y-33335D01*
X43908Y-33138D01*
X43868Y-33138D01*
X43868Y-27105D01*
X42776Y-26012D01*
X22666Y-26012D01*
X22666Y-29666D01*
X23335Y-30335D01*
X23335Y-37262D01*
X22681Y-37917D01*
X22469Y-38128D01*
X22469Y-49548D01*
X24635Y-51713D01*
X24635Y-56929D01*
X24635Y-57115D01*
X20383Y-57115D01*
X20383Y-60690D01*
X21368Y-61675D01*
X20050Y-61675D01*
X20050Y-59792D01*
X19890Y-59405D01*
X19595Y-59110D01*
X19209Y-58950D01*
X18792Y-58949D01*
X18405Y-59109D01*
X18110Y-59404D01*
X17950Y-59790D01*
X17949Y-60207D01*
X18109Y-60594D01*
X18404Y-60889D01*
X18790Y-61049D01*
X19207Y-61050D01*
X19594Y-60890D01*
X19889Y-60595D01*
X20049Y-60209D01*
X20050Y-59792D01*
X20050Y-61675D01*
X17325Y-61675D01*
X17325Y-55515D01*
X21302Y-55515D01*
X21302Y-29838D01*
X20050Y-29838D01*
X20050Y-26792D01*
X19890Y-26405D01*
X19595Y-26110D01*
X19209Y-25950D01*
X18792Y-25949D01*
X18405Y-26109D01*
X18110Y-26404D01*
X17950Y-26790D01*
X17949Y-27207D01*
X18109Y-27594D01*
X18404Y-27889D01*
X18790Y-28049D01*
X19207Y-28050D01*
X19594Y-27890D01*
X19889Y-27595D01*
X20049Y-27209D01*
X20050Y-26792D01*
X20050Y-29838D01*
X17325Y-29838D01*
X17325Y-25325D01*
X49675Y-25325D01*
X49675Y-61675D01*
X49675Y-61675D01*
G37*
G54D39*
X49675Y-61675D02*
X49050Y-61675D01*
X49050Y-59792D01*
X48890Y-59405D01*
X48595Y-59110D01*
X48209Y-58950D01*
X47792Y-58949D01*
X47405Y-59109D01*
X47110Y-59404D01*
X46950Y-59790D01*
X46949Y-60207D01*
X47109Y-60594D01*
X47404Y-60889D01*
X47790Y-61049D01*
X48207Y-61050D01*
X48594Y-60890D01*
X48889Y-60595D01*
X49049Y-60209D01*
X49050Y-59792D01*
X49050Y-61675D01*
X36309Y-61675D01*
X37264Y-60719D01*
X38238Y-60719D01*
X38238Y-60640D01*
X44036Y-60640D01*
X45364Y-59312D01*
X45364Y-55414D01*
X45650Y-55128D01*
X45940Y-55128D01*
X45940Y-55139D01*
X45978Y-55231D01*
X46048Y-55301D01*
X46140Y-55340D01*
X46239Y-55340D01*
X46352Y-55340D01*
X46415Y-55277D01*
X46415Y-55128D01*
X46515Y-55128D01*
X46515Y-55277D01*
X46577Y-55340D01*
X46690Y-55340D01*
X46789Y-55340D01*
X46881Y-55301D01*
X46951Y-55231D01*
X46990Y-55139D01*
X46990Y-55027D01*
X46927Y-54965D01*
X46680Y-54965D01*
X46780Y-54865D01*
X46927Y-54865D01*
X46990Y-54802D01*
X46990Y-54695D01*
X47254Y-54695D01*
X47254Y-52264D01*
X47648Y-51871D01*
X47648Y-50766D01*
X47254Y-50372D01*
X47254Y-47855D01*
X47648Y-47461D01*
X47648Y-46121D01*
X47175Y-45648D01*
X47175Y-41280D01*
X47855Y-40601D01*
X49065Y-40601D01*
X49065Y-33335D01*
X49050Y-33335D01*
X49050Y-26792D01*
X48890Y-26405D01*
X48595Y-26110D01*
X48209Y-25950D01*
X47792Y-25949D01*
X47405Y-26109D01*
X47110Y-26404D01*
X46950Y-26790D01*
X46949Y-27207D01*
X47109Y-27594D01*
X47404Y-27889D01*
X47790Y-28049D01*
X48207Y-28050D01*
X48594Y-27890D01*
X48889Y-27595D01*
X49049Y-27209D01*
X49050Y-26792D01*
X49050Y-33335D01*
X43908Y-33335D01*
X43908Y-33138D01*
X43868Y-33138D01*
X43868Y-27105D01*
X42776Y-26012D01*
X22666Y-26012D01*
X22666Y-29666D01*
X23335Y-30335D01*
X23335Y-37262D01*
X22681Y-37917D01*
X22469Y-38128D01*
X22469Y-49548D01*
X24635Y-51713D01*
X24635Y-56929D01*
X24635Y-57115D01*
X20383Y-57115D01*
X20383Y-60690D01*
X21368Y-61675D01*
X20050Y-61675D01*
X20050Y-59792D01*
X19890Y-59405D01*
X19595Y-59110D01*
X19209Y-58950D01*
X18792Y-58949D01*
X18405Y-59109D01*
X18110Y-59404D01*
X17950Y-59790D01*
X17949Y-60207D01*
X18109Y-60594D01*
X18404Y-60889D01*
X18790Y-61049D01*
X19207Y-61050D01*
X19594Y-60890D01*
X19889Y-60595D01*
X20049Y-60209D01*
X20050Y-59792D01*
X20050Y-61675D01*
X17325Y-61675D01*
X17325Y-55515D01*
X21302Y-55515D01*
X21302Y-29838D01*
X20050Y-29838D01*
X20050Y-26792D01*
X19890Y-26405D01*
X19595Y-26110D01*
X19209Y-25950D01*
X18792Y-25949D01*
X18405Y-26109D01*
X18110Y-26404D01*
X17950Y-26790D01*
X17949Y-27207D01*
X18109Y-27594D01*
X18404Y-27889D01*
X18790Y-28049D01*
X19207Y-28050D01*
X19594Y-27890D01*
X19889Y-27595D01*
X20049Y-27209D01*
X20050Y-26792D01*
X20050Y-29838D01*
X17325Y-29838D01*
X17325Y-25325D01*
X49675Y-25325D01*
X49675Y-61675D01*
G54D10*
G36*
X108675Y-72675D02*
X108050Y-72675D01*
X108050Y-70792D01*
X107890Y-70405D01*
X107595Y-70110D01*
X107209Y-69950D01*
X106792Y-69949D01*
X106405Y-70109D01*
X106110Y-70404D01*
X105950Y-70790D01*
X105949Y-71207D01*
X106109Y-71594D01*
X106404Y-71889D01*
X106790Y-72049D01*
X107207Y-72050D01*
X107594Y-71890D01*
X107889Y-71595D01*
X108049Y-71209D01*
X108050Y-70792D01*
X108050Y-72675D01*
X108000Y-72675D01*
X72450Y-72675D01*
X72450Y-11292D01*
X72290Y-10905D01*
X71995Y-10610D01*
X71609Y-10450D01*
X71192Y-10449D01*
X70805Y-10609D01*
X70510Y-10904D01*
X70350Y-11290D01*
X70349Y-11707D01*
X70509Y-12094D01*
X70804Y-12389D01*
X71190Y-12549D01*
X71607Y-12550D01*
X71994Y-12390D01*
X72289Y-12095D01*
X72449Y-11709D01*
X72450Y-11292D01*
X72450Y-72675D01*
X71050Y-72675D01*
X71050Y-70792D01*
X70890Y-70405D01*
X70595Y-70110D01*
X70209Y-69950D01*
X69792Y-69949D01*
X69405Y-70109D01*
X69110Y-70404D01*
X68950Y-70790D01*
X68949Y-71207D01*
X69109Y-71594D01*
X69404Y-71889D01*
X69790Y-72049D01*
X70207Y-72050D01*
X70594Y-71890D01*
X70889Y-71595D01*
X71049Y-71209D01*
X71050Y-70792D01*
X71050Y-72675D01*
X68325Y-72675D01*
X68325Y-10325D01*
X80309Y-10325D01*
X80309Y-11893D01*
X80461Y-11893D01*
X80461Y-11900D01*
X90837Y-11900D01*
X90837Y-11893D01*
X90871Y-11893D01*
X90871Y-10325D01*
X108675Y-10325D01*
X108675Y-59753D01*
X108150Y-59753D01*
X108150Y-11292D01*
X107990Y-10905D01*
X107695Y-10610D01*
X107309Y-10450D01*
X106892Y-10449D01*
X106505Y-10609D01*
X106210Y-10904D01*
X106050Y-11290D01*
X106049Y-11707D01*
X106209Y-12094D01*
X106504Y-12389D01*
X106890Y-12549D01*
X107307Y-12550D01*
X107694Y-12390D01*
X107989Y-12095D01*
X108149Y-11709D01*
X108150Y-11292D01*
X108150Y-59753D01*
X106270Y-59753D01*
X106270Y-45640D01*
X106270Y-14448D01*
X106270Y-14251D01*
X106270Y-14191D01*
X104508Y-12430D01*
X80511Y-12430D01*
X79034Y-12430D01*
X74398Y-17065D01*
X74398Y-28955D01*
X72666Y-30687D01*
X72666Y-31259D01*
X72666Y-34183D01*
X73459Y-34183D01*
X73291Y-34253D01*
X73240Y-34369D01*
X73700Y-34829D01*
X74159Y-34369D01*
X74108Y-34253D01*
X73927Y-34183D01*
X74280Y-34183D01*
X74280Y-34462D01*
X74230Y-34440D01*
X73770Y-34900D01*
X73776Y-34905D01*
X73705Y-34976D01*
X73700Y-34970D01*
X73629Y-35041D01*
X73629Y-34900D01*
X73169Y-34440D01*
X73053Y-34491D01*
X72946Y-34770D01*
X72954Y-35068D01*
X73053Y-35308D01*
X73169Y-35359D01*
X73629Y-34900D01*
X73629Y-35041D01*
X73240Y-35430D01*
X73264Y-35484D01*
X72666Y-36081D01*
X72666Y-37992D01*
X72666Y-38031D01*
X72666Y-38307D01*
X72666Y-50808D01*
X73980Y-52121D01*
X80358Y-58499D01*
X81750Y-59892D01*
X94351Y-59892D01*
X98672Y-55571D01*
X98672Y-48640D01*
X93798Y-43767D01*
X93798Y-36135D01*
X93798Y-35644D01*
X93611Y-35191D01*
X93444Y-35081D01*
X92635Y-35890D01*
X93444Y-36700D01*
X93611Y-36589D01*
X93798Y-36135D01*
X93798Y-43767D01*
X93374Y-43342D01*
X93374Y-36770D01*
X92564Y-35961D01*
X91755Y-36770D01*
X91865Y-36937D01*
X92319Y-37124D01*
X92810Y-37124D01*
X93263Y-36937D01*
X93374Y-36770D01*
X93374Y-43342D01*
X91624Y-41593D01*
X91624Y-36660D01*
X91684Y-36700D01*
X92493Y-35890D01*
X91684Y-35081D01*
X91624Y-35120D01*
X91624Y-34656D01*
X92681Y-34656D01*
X92318Y-34656D01*
X91865Y-34843D01*
X91755Y-35010D01*
X92564Y-35819D01*
X93374Y-35010D01*
X93263Y-34843D01*
X92809Y-34656D01*
X94201Y-34656D01*
X94201Y-40414D01*
X99428Y-45640D01*
X106270Y-45640D01*
X106270Y-59753D01*
X106220Y-59753D01*
X104947Y-59753D01*
X104947Y-51682D01*
X104619Y-50849D01*
X104574Y-50783D01*
X104302Y-50548D01*
X104232Y-50619D01*
X104232Y-50478D01*
X103997Y-50206D01*
X103176Y-49849D01*
X102281Y-49833D01*
X101448Y-50161D01*
X101382Y-50206D01*
X101147Y-50478D01*
X102690Y-52020D01*
X104232Y-50478D01*
X104232Y-50619D01*
X102760Y-52091D01*
X104302Y-53633D01*
X104574Y-53398D01*
X104931Y-52577D01*
X104947Y-51682D01*
X104947Y-59753D01*
X104232Y-59753D01*
X104232Y-53703D01*
X102690Y-52161D01*
X102619Y-52232D01*
X102619Y-52091D01*
X101077Y-50548D01*
X100805Y-50783D01*
X100448Y-51604D01*
X100432Y-52499D01*
X100760Y-53332D01*
X100805Y-53398D01*
X101077Y-53633D01*
X102619Y-52091D01*
X102619Y-52232D01*
X101147Y-53703D01*
X101382Y-53975D01*
X102203Y-54332D01*
X103098Y-54348D01*
X103931Y-54020D01*
X103997Y-53975D01*
X104232Y-53703D01*
X104232Y-59753D01*
X97184Y-59753D01*
X95372Y-61564D01*
X86327Y-61564D01*
X86327Y-69223D01*
X91979Y-69223D01*
X91979Y-65876D01*
X98955Y-65876D01*
X100806Y-67727D01*
X105178Y-67727D01*
X107343Y-65561D01*
X108675Y-65561D01*
X108675Y-72675D01*
X108675Y-72675D01*
G37*
G54D39*
X108675Y-72675D02*
X108050Y-72675D01*
X108050Y-70792D01*
X107890Y-70405D01*
X107595Y-70110D01*
X107209Y-69950D01*
X106792Y-69949D01*
X106405Y-70109D01*
X106110Y-70404D01*
X105950Y-70790D01*
X105949Y-71207D01*
X106109Y-71594D01*
X106404Y-71889D01*
X106790Y-72049D01*
X107207Y-72050D01*
X107594Y-71890D01*
X107889Y-71595D01*
X108049Y-71209D01*
X108050Y-70792D01*
X108050Y-72675D01*
X108000Y-72675D01*
X72450Y-72675D01*
X72450Y-11292D01*
X72290Y-10905D01*
X71995Y-10610D01*
X71609Y-10450D01*
X71192Y-10449D01*
X70805Y-10609D01*
X70510Y-10904D01*
X70350Y-11290D01*
X70349Y-11707D01*
X70509Y-12094D01*
X70804Y-12389D01*
X71190Y-12549D01*
X71607Y-12550D01*
X71994Y-12390D01*
X72289Y-12095D01*
X72449Y-11709D01*
X72450Y-11292D01*
X72450Y-72675D01*
X71050Y-72675D01*
X71050Y-70792D01*
X70890Y-70405D01*
X70595Y-70110D01*
X70209Y-69950D01*
X69792Y-69949D01*
X69405Y-70109D01*
X69110Y-70404D01*
X68950Y-70790D01*
X68949Y-71207D01*
X69109Y-71594D01*
X69404Y-71889D01*
X69790Y-72049D01*
X70207Y-72050D01*
X70594Y-71890D01*
X70889Y-71595D01*
X71049Y-71209D01*
X71050Y-70792D01*
X71050Y-72675D01*
X68325Y-72675D01*
X68325Y-10325D01*
X80309Y-10325D01*
X80309Y-11893D01*
X80461Y-11893D01*
X80461Y-11900D01*
X90837Y-11900D01*
X90837Y-11893D01*
X90871Y-11893D01*
X90871Y-10325D01*
X108675Y-10325D01*
X108675Y-59753D01*
X108150Y-59753D01*
X108150Y-11292D01*
X107990Y-10905D01*
X107695Y-10610D01*
X107309Y-10450D01*
X106892Y-10449D01*
X106505Y-10609D01*
X106210Y-10904D01*
X106050Y-11290D01*
X106049Y-11707D01*
X106209Y-12094D01*
X106504Y-12389D01*
X106890Y-12549D01*
X107307Y-12550D01*
X107694Y-12390D01*
X107989Y-12095D01*
X108149Y-11709D01*
X108150Y-11292D01*
X108150Y-59753D01*
X106270Y-59753D01*
X106270Y-45640D01*
X106270Y-14448D01*
X106270Y-14251D01*
X106270Y-14191D01*
X104508Y-12430D01*
X80511Y-12430D01*
X79034Y-12430D01*
X74398Y-17065D01*
X74398Y-28955D01*
X72666Y-30687D01*
X72666Y-31259D01*
X72666Y-34183D01*
X73459Y-34183D01*
X73291Y-34253D01*
X73240Y-34369D01*
X73700Y-34829D01*
X74159Y-34369D01*
X74108Y-34253D01*
X73927Y-34183D01*
X74280Y-34183D01*
X74280Y-34462D01*
X74230Y-34440D01*
X73770Y-34900D01*
X73776Y-34905D01*
X73705Y-34976D01*
X73700Y-34970D01*
X73629Y-35041D01*
X73629Y-34900D01*
X73169Y-34440D01*
X73053Y-34491D01*
X72946Y-34770D01*
X72954Y-35068D01*
X73053Y-35308D01*
X73169Y-35359D01*
X73629Y-34900D01*
X73629Y-35041D01*
X73240Y-35430D01*
X73264Y-35484D01*
X72666Y-36081D01*
X72666Y-37992D01*
X72666Y-38031D01*
X72666Y-38307D01*
X72666Y-50808D01*
X73980Y-52121D01*
X80358Y-58499D01*
X81750Y-59892D01*
X94351Y-59892D01*
X98672Y-55571D01*
X98672Y-48640D01*
X93798Y-43767D01*
X93798Y-36135D01*
X93798Y-35644D01*
X93611Y-35191D01*
X93444Y-35081D01*
X92635Y-35890D01*
X93444Y-36700D01*
X93611Y-36589D01*
X93798Y-36135D01*
X93798Y-43767D01*
X93374Y-43342D01*
X93374Y-36770D01*
X92564Y-35961D01*
X91755Y-36770D01*
X91865Y-36937D01*
X92319Y-37124D01*
X92810Y-37124D01*
X93263Y-36937D01*
X93374Y-36770D01*
X93374Y-43342D01*
X91624Y-41593D01*
X91624Y-36660D01*
X91684Y-36700D01*
X92493Y-35890D01*
X91684Y-35081D01*
X91624Y-35120D01*
X91624Y-34656D01*
X92681Y-34656D01*
X92318Y-34656D01*
X91865Y-34843D01*
X91755Y-35010D01*
X92564Y-35819D01*
X93374Y-35010D01*
X93263Y-34843D01*
X92809Y-34656D01*
X94201Y-34656D01*
X94201Y-40414D01*
X99428Y-45640D01*
X106270Y-45640D01*
X106270Y-59753D01*
X106220Y-59753D01*
X104947Y-59753D01*
X104947Y-51682D01*
X104619Y-50849D01*
X104574Y-50783D01*
X104302Y-50548D01*
X104232Y-50619D01*
X104232Y-50478D01*
X103997Y-50206D01*
X103176Y-49849D01*
X102281Y-49833D01*
X101448Y-50161D01*
X101382Y-50206D01*
X101147Y-50478D01*
X102690Y-52020D01*
X104232Y-50478D01*
X104232Y-50619D01*
X102760Y-52091D01*
X104302Y-53633D01*
X104574Y-53398D01*
X104931Y-52577D01*
X104947Y-51682D01*
X104947Y-59753D01*
X104232Y-59753D01*
X104232Y-53703D01*
X102690Y-52161D01*
X102619Y-52232D01*
X102619Y-52091D01*
X101077Y-50548D01*
X100805Y-50783D01*
X100448Y-51604D01*
X100432Y-52499D01*
X100760Y-53332D01*
X100805Y-53398D01*
X101077Y-53633D01*
X102619Y-52091D01*
X102619Y-52232D01*
X101147Y-53703D01*
X101382Y-53975D01*
X102203Y-54332D01*
X103098Y-54348D01*
X103931Y-54020D01*
X103997Y-53975D01*
X104232Y-53703D01*
X104232Y-59753D01*
X97184Y-59753D01*
X95372Y-61564D01*
X86327Y-61564D01*
X86327Y-69223D01*
X91979Y-69223D01*
X91979Y-65876D01*
X98955Y-65876D01*
X100806Y-67727D01*
X105178Y-67727D01*
X107343Y-65561D01*
X108675Y-65561D01*
X108675Y-72675D01*
M02*
