G04 (created by PCBNEW (2013-mar-13)-testing) date mar 28 may 2013 16:21:42 ART*
%MOIN*%
G04 Gerber Fmt 3.4, Leading zero omitted, Abs format*
%FSLAX34Y34*%
G01*
G70*
G90*
G04 APERTURE LIST*
%ADD10C,0.005906*%
%ADD11C,0.015000*%
%ADD12C,0.012000*%
G04 APERTURE END LIST*
G54D10*
G54D11*
X48032Y-27007D02*
G75*
G03X48032Y-27007I0J0D01*
G74*
G01*
X48030Y-27007D02*
X48032Y-27007D01*
X48031Y-27006D02*
X48031Y-27008D01*
X17000Y-25000D02*
X50000Y-25000D01*
X17000Y-62000D02*
X17000Y-25000D01*
X50000Y-62000D02*
X17000Y-62000D01*
X50000Y-25000D02*
X50000Y-62000D01*
G54D12*
X111278Y-39071D02*
X111278Y-38728D01*
X111278Y-38899D02*
X112078Y-38899D01*
X111963Y-38842D01*
X111887Y-38785D01*
X111849Y-38728D01*
X112078Y-39585D02*
X112078Y-39471D01*
X112039Y-39414D01*
X112001Y-39385D01*
X111887Y-39328D01*
X111735Y-39300D01*
X111430Y-39300D01*
X111354Y-39328D01*
X111316Y-39357D01*
X111278Y-39414D01*
X111278Y-39528D01*
X111316Y-39585D01*
X111354Y-39614D01*
X111430Y-39642D01*
X111620Y-39642D01*
X111697Y-39614D01*
X111735Y-39585D01*
X111773Y-39528D01*
X111773Y-39414D01*
X111735Y-39357D01*
X111697Y-39328D01*
X111620Y-39300D01*
X112078Y-40014D02*
X112078Y-40071D01*
X112039Y-40128D01*
X112001Y-40157D01*
X111925Y-40185D01*
X111773Y-40214D01*
X111582Y-40214D01*
X111430Y-40185D01*
X111354Y-40157D01*
X111316Y-40128D01*
X111278Y-40071D01*
X111278Y-40014D01*
X111316Y-39957D01*
X111354Y-39928D01*
X111430Y-39900D01*
X111582Y-39871D01*
X111773Y-39871D01*
X111925Y-39900D01*
X112001Y-39928D01*
X112039Y-39957D01*
X112078Y-40014D01*
X111354Y-40471D02*
X111316Y-40500D01*
X111278Y-40471D01*
X111316Y-40442D01*
X111354Y-40471D01*
X111278Y-40471D01*
X112078Y-40871D02*
X112078Y-40928D01*
X112039Y-40985D01*
X112001Y-41014D01*
X111925Y-41042D01*
X111773Y-41071D01*
X111582Y-41071D01*
X111430Y-41042D01*
X111354Y-41014D01*
X111316Y-40985D01*
X111278Y-40928D01*
X111278Y-40871D01*
X111316Y-40814D01*
X111354Y-40785D01*
X111430Y-40757D01*
X111582Y-40728D01*
X111773Y-40728D01*
X111925Y-40757D01*
X112001Y-40785D01*
X112039Y-40814D01*
X112078Y-40871D01*
X112001Y-41300D02*
X112039Y-41328D01*
X112078Y-41385D01*
X112078Y-41528D01*
X112039Y-41585D01*
X112001Y-41614D01*
X111925Y-41642D01*
X111849Y-41642D01*
X111735Y-41614D01*
X111278Y-41271D01*
X111278Y-41642D01*
X112078Y-42014D02*
X112078Y-42071D01*
X112039Y-42128D01*
X112001Y-42157D01*
X111925Y-42185D01*
X111773Y-42214D01*
X111582Y-42214D01*
X111430Y-42185D01*
X111354Y-42157D01*
X111316Y-42128D01*
X111278Y-42071D01*
X111278Y-42014D01*
X111316Y-41957D01*
X111354Y-41928D01*
X111430Y-41900D01*
X111582Y-41871D01*
X111773Y-41871D01*
X111925Y-41900D01*
X112001Y-41928D01*
X112039Y-41957D01*
X112078Y-42014D01*
X111278Y-42928D02*
X111811Y-42928D01*
X111735Y-42928D02*
X111773Y-42957D01*
X111811Y-43014D01*
X111811Y-43100D01*
X111773Y-43157D01*
X111697Y-43185D01*
X111278Y-43185D01*
X111697Y-43185D02*
X111773Y-43214D01*
X111811Y-43271D01*
X111811Y-43357D01*
X111773Y-43414D01*
X111697Y-43442D01*
X111278Y-43442D01*
X111278Y-43728D02*
X111811Y-43728D01*
X111735Y-43728D02*
X111773Y-43757D01*
X111811Y-43814D01*
X111811Y-43900D01*
X111773Y-43957D01*
X111697Y-43985D01*
X111278Y-43985D01*
X111697Y-43985D02*
X111773Y-44014D01*
X111811Y-44071D01*
X111811Y-44157D01*
X111773Y-44214D01*
X111697Y-44242D01*
X111278Y-44242D01*
X110999Y-10000D02*
X110999Y-73000D01*
X109000Y-10000D02*
X112279Y-10000D01*
X109000Y-73000D02*
X112279Y-73000D01*
X110999Y-73000D02*
X110769Y-72556D01*
X110999Y-73000D02*
X111230Y-72556D01*
X110999Y-10000D02*
X110769Y-10443D01*
X110999Y-10000D02*
X111230Y-10443D01*
X86071Y-7721D02*
X85728Y-7721D01*
X85899Y-7721D02*
X85899Y-6921D01*
X85842Y-7036D01*
X85785Y-7112D01*
X85728Y-7150D01*
X86442Y-6921D02*
X86500Y-6921D01*
X86557Y-6960D01*
X86585Y-6998D01*
X86614Y-7074D01*
X86642Y-7226D01*
X86642Y-7417D01*
X86614Y-7569D01*
X86585Y-7645D01*
X86557Y-7683D01*
X86500Y-7721D01*
X86442Y-7721D01*
X86385Y-7683D01*
X86357Y-7645D01*
X86328Y-7569D01*
X86300Y-7417D01*
X86300Y-7226D01*
X86328Y-7074D01*
X86357Y-6998D01*
X86385Y-6960D01*
X86442Y-6921D01*
X87157Y-7188D02*
X87157Y-7721D01*
X87014Y-6883D02*
X86871Y-7455D01*
X87242Y-7455D01*
X87471Y-7645D02*
X87500Y-7683D01*
X87471Y-7721D01*
X87442Y-7683D01*
X87471Y-7645D01*
X87471Y-7721D01*
X88071Y-7721D02*
X87728Y-7721D01*
X87900Y-7721D02*
X87900Y-6921D01*
X87842Y-7036D01*
X87785Y-7112D01*
X87728Y-7150D01*
X88585Y-7188D02*
X88585Y-7721D01*
X88442Y-6883D02*
X88300Y-7455D01*
X88671Y-7455D01*
X89014Y-6921D02*
X89071Y-6921D01*
X89128Y-6960D01*
X89157Y-6998D01*
X89185Y-7074D01*
X89214Y-7226D01*
X89214Y-7417D01*
X89185Y-7569D01*
X89157Y-7645D01*
X89128Y-7683D01*
X89071Y-7721D01*
X89014Y-7721D01*
X88957Y-7683D01*
X88928Y-7645D01*
X88900Y-7569D01*
X88871Y-7417D01*
X88871Y-7226D01*
X88900Y-7074D01*
X88928Y-6998D01*
X88957Y-6960D01*
X89014Y-6921D01*
X89928Y-7721D02*
X89928Y-7188D01*
X89928Y-7264D02*
X89957Y-7226D01*
X90014Y-7188D01*
X90100Y-7188D01*
X90157Y-7226D01*
X90185Y-7302D01*
X90185Y-7721D01*
X90185Y-7302D02*
X90214Y-7226D01*
X90271Y-7188D01*
X90357Y-7188D01*
X90414Y-7226D01*
X90442Y-7302D01*
X90442Y-7721D01*
X90728Y-7721D02*
X90728Y-7188D01*
X90728Y-7264D02*
X90757Y-7226D01*
X90814Y-7188D01*
X90900Y-7188D01*
X90957Y-7226D01*
X90985Y-7302D01*
X90985Y-7721D01*
X90985Y-7302D02*
X91014Y-7226D01*
X91071Y-7188D01*
X91157Y-7188D01*
X91214Y-7226D01*
X91242Y-7302D01*
X91242Y-7721D01*
X68000Y-8000D02*
X109000Y-8000D01*
X68000Y-10000D02*
X68000Y-6720D01*
X109000Y-10000D02*
X109000Y-6720D01*
X109000Y-8000D02*
X108556Y-8230D01*
X109000Y-8000D02*
X108556Y-7769D01*
X68000Y-8000D02*
X68443Y-8230D01*
X68000Y-8000D02*
X68443Y-7769D01*
G54D11*
X109000Y-73000D02*
X108000Y-73000D01*
X109000Y-10000D02*
X109000Y-73000D01*
X68000Y-10000D02*
X109000Y-10000D01*
X68000Y-73000D02*
X68000Y-10000D01*
X108000Y-73000D02*
X68000Y-73000D01*
M02*
