G04 (created by PCBNEW (2013-mar-13)-testing) date mar 04 jun 2013 15:54:13 ART*
%MOIN*%
G04 Gerber Fmt 3.4, Leading zero omitted, Abs format*
%FSLAX34Y34*%
G01*
G70*
G90*
G04 APERTURE LIST*
%ADD10C,0.005906*%
%ADD11C,0.006250*%
%ADD12C,0.009843*%
%ADD13C,0.039370*%
%ADD14R,0.080000X0.060000*%
%ADD15R,0.055000X0.055000*%
%ADD16C,0.055000*%
%ADD17C,0.150000*%
%ADD18R,0.150000X0.150000*%
%ADD19R,0.039400X0.031500*%
%ADD20R,0.055000X0.035000*%
%ADD21C,0.160000*%
%ADD22C,0.035000*%
%ADD23C,0.040000*%
%ADD24C,0.024000*%
%ADD25C,0.065000*%
%ADD26C,0.030000*%
%ADD27C,0.050000*%
%ADD28C,0.010000*%
G04 APERTURE END LIST*
G54D10*
G54D11*
X32043Y-12186D02*
X32129Y-12186D01*
X32129Y-12320D02*
X32129Y-12064D01*
X32007Y-12064D01*
X31800Y-12320D02*
X31800Y-12186D01*
X31812Y-12162D01*
X31836Y-12149D01*
X31885Y-12149D01*
X31909Y-12162D01*
X31800Y-12308D02*
X31824Y-12320D01*
X31885Y-12320D01*
X31909Y-12308D01*
X31922Y-12283D01*
X31922Y-12259D01*
X31909Y-12235D01*
X31885Y-12223D01*
X31824Y-12223D01*
X31800Y-12210D01*
X31568Y-12308D02*
X31593Y-12320D01*
X31641Y-12320D01*
X31666Y-12308D01*
X31678Y-12296D01*
X31690Y-12271D01*
X31690Y-12198D01*
X31678Y-12174D01*
X31666Y-12162D01*
X31641Y-12149D01*
X31593Y-12149D01*
X31568Y-12162D01*
X31349Y-12149D02*
X31349Y-12320D01*
X31459Y-12149D02*
X31459Y-12283D01*
X31446Y-12308D01*
X31422Y-12320D01*
X31385Y-12320D01*
X31361Y-12308D01*
X31349Y-12296D01*
X31227Y-12149D02*
X31227Y-12320D01*
X31227Y-12174D02*
X31215Y-12162D01*
X31190Y-12149D01*
X31154Y-12149D01*
X31130Y-12162D01*
X31117Y-12186D01*
X31117Y-12320D01*
X30886Y-12320D02*
X30886Y-12064D01*
X30886Y-12308D02*
X30910Y-12320D01*
X30959Y-12320D01*
X30983Y-12308D01*
X30995Y-12296D01*
X31008Y-12271D01*
X31008Y-12198D01*
X30995Y-12174D01*
X30983Y-12162D01*
X30959Y-12149D01*
X30910Y-12149D01*
X30886Y-12162D01*
X30727Y-12320D02*
X30752Y-12308D01*
X30764Y-12296D01*
X30776Y-12271D01*
X30776Y-12198D01*
X30764Y-12174D01*
X30752Y-12162D01*
X30727Y-12149D01*
X30691Y-12149D01*
X30666Y-12162D01*
X30654Y-12174D01*
X30642Y-12198D01*
X30642Y-12271D01*
X30654Y-12296D01*
X30666Y-12308D01*
X30691Y-12320D01*
X30727Y-12320D01*
X30337Y-12320D02*
X30337Y-12064D01*
X30191Y-12320D01*
X30191Y-12064D01*
X29960Y-12320D02*
X29960Y-12186D01*
X29972Y-12162D01*
X29996Y-12149D01*
X30045Y-12149D01*
X30069Y-12162D01*
X29960Y-12308D02*
X29984Y-12320D01*
X30045Y-12320D01*
X30069Y-12308D01*
X30082Y-12283D01*
X30082Y-12259D01*
X30069Y-12235D01*
X30045Y-12223D01*
X29984Y-12223D01*
X29960Y-12210D01*
X29838Y-12320D02*
X29838Y-12064D01*
X29728Y-12320D02*
X29728Y-12186D01*
X29740Y-12162D01*
X29765Y-12149D01*
X29801Y-12149D01*
X29826Y-12162D01*
X29838Y-12174D01*
X29497Y-12149D02*
X29497Y-12320D01*
X29606Y-12149D02*
X29606Y-12283D01*
X29594Y-12308D01*
X29570Y-12320D01*
X29533Y-12320D01*
X29509Y-12308D01*
X29497Y-12296D01*
X29277Y-12308D02*
X29302Y-12320D01*
X29350Y-12320D01*
X29375Y-12308D01*
X29387Y-12283D01*
X29387Y-12186D01*
X29375Y-12162D01*
X29350Y-12149D01*
X29302Y-12149D01*
X29277Y-12162D01*
X29265Y-12186D01*
X29265Y-12210D01*
X29387Y-12235D01*
X29119Y-12320D02*
X29143Y-12308D01*
X29155Y-12283D01*
X29155Y-12064D01*
X28826Y-12064D02*
X28826Y-12271D01*
X28814Y-12296D01*
X28802Y-12308D01*
X28778Y-12320D01*
X28729Y-12320D01*
X28705Y-12308D01*
X28692Y-12296D01*
X28680Y-12271D01*
X28680Y-12064D01*
X28558Y-12320D02*
X28558Y-12149D01*
X28558Y-12198D02*
X28546Y-12174D01*
X28534Y-12162D01*
X28510Y-12149D01*
X28485Y-12149D01*
X28400Y-12320D02*
X28400Y-12149D01*
X28400Y-12064D02*
X28412Y-12076D01*
X28400Y-12088D01*
X28388Y-12076D01*
X28400Y-12064D01*
X28400Y-12088D01*
X28181Y-12308D02*
X28205Y-12320D01*
X28254Y-12320D01*
X28278Y-12308D01*
X28290Y-12283D01*
X28290Y-12186D01*
X28278Y-12162D01*
X28254Y-12149D01*
X28205Y-12149D01*
X28181Y-12162D01*
X28168Y-12186D01*
X28168Y-12210D01*
X28290Y-12235D01*
X28022Y-12320D02*
X28046Y-12308D01*
X28059Y-12283D01*
X28059Y-12064D01*
X27742Y-12308D02*
X27705Y-12320D01*
X27644Y-12320D01*
X27620Y-12308D01*
X27608Y-12296D01*
X27596Y-12271D01*
X27596Y-12247D01*
X27608Y-12223D01*
X27620Y-12210D01*
X27644Y-12198D01*
X27693Y-12186D01*
X27717Y-12174D01*
X27730Y-12162D01*
X27742Y-12137D01*
X27742Y-12113D01*
X27730Y-12088D01*
X27717Y-12076D01*
X27693Y-12064D01*
X27632Y-12064D01*
X27596Y-12076D01*
X27486Y-12320D02*
X27486Y-12149D01*
X27486Y-12064D02*
X27498Y-12076D01*
X27486Y-12088D01*
X27474Y-12076D01*
X27486Y-12064D01*
X27486Y-12088D01*
X27327Y-12320D02*
X27352Y-12308D01*
X27364Y-12283D01*
X27364Y-12064D01*
X27254Y-12149D02*
X27193Y-12320D01*
X27133Y-12149D01*
X26925Y-12320D02*
X26925Y-12186D01*
X26938Y-12162D01*
X26962Y-12149D01*
X27011Y-12149D01*
X27035Y-12162D01*
X26925Y-12308D02*
X26950Y-12320D01*
X27011Y-12320D01*
X27035Y-12308D01*
X27047Y-12283D01*
X27047Y-12259D01*
X27035Y-12235D01*
X27011Y-12223D01*
X26950Y-12223D01*
X26925Y-12210D01*
X31270Y-12570D02*
X31172Y-12570D01*
X31233Y-12741D02*
X31233Y-12521D01*
X31221Y-12497D01*
X31197Y-12485D01*
X31172Y-12485D01*
X30977Y-12741D02*
X30977Y-12607D01*
X30989Y-12582D01*
X31014Y-12570D01*
X31062Y-12570D01*
X31087Y-12582D01*
X30977Y-12729D02*
X31002Y-12741D01*
X31062Y-12741D01*
X31087Y-12729D01*
X31099Y-12704D01*
X31099Y-12680D01*
X31087Y-12655D01*
X31062Y-12643D01*
X31002Y-12643D01*
X30977Y-12631D01*
X30855Y-12570D02*
X30855Y-12741D01*
X30855Y-12595D02*
X30843Y-12582D01*
X30819Y-12570D01*
X30782Y-12570D01*
X30758Y-12582D01*
X30746Y-12607D01*
X30746Y-12741D01*
X30514Y-12741D02*
X30514Y-12607D01*
X30526Y-12582D01*
X30551Y-12570D01*
X30599Y-12570D01*
X30624Y-12582D01*
X30514Y-12729D02*
X30538Y-12741D01*
X30599Y-12741D01*
X30624Y-12729D01*
X30636Y-12704D01*
X30636Y-12680D01*
X30624Y-12655D01*
X30599Y-12643D01*
X30538Y-12643D01*
X30514Y-12631D01*
X30283Y-12570D02*
X30283Y-12741D01*
X30392Y-12570D02*
X30392Y-12704D01*
X30380Y-12729D01*
X30356Y-12741D01*
X30319Y-12741D01*
X30295Y-12729D01*
X30283Y-12716D01*
X30161Y-12741D02*
X30161Y-12570D01*
X30161Y-12619D02*
X30149Y-12595D01*
X30136Y-12582D01*
X30112Y-12570D01*
X30088Y-12570D01*
X29844Y-12619D02*
X29856Y-12607D01*
X29880Y-12595D01*
X29905Y-12595D01*
X29929Y-12607D01*
X29941Y-12619D01*
X29954Y-12643D01*
X29954Y-12668D01*
X29941Y-12692D01*
X29929Y-12704D01*
X29905Y-12716D01*
X29880Y-12716D01*
X29856Y-12704D01*
X29844Y-12692D01*
X29844Y-12595D02*
X29844Y-12692D01*
X29832Y-12704D01*
X29820Y-12704D01*
X29795Y-12692D01*
X29783Y-12668D01*
X29783Y-12607D01*
X29807Y-12570D01*
X29844Y-12546D01*
X29893Y-12534D01*
X29941Y-12546D01*
X29978Y-12570D01*
X30002Y-12607D01*
X30014Y-12655D01*
X30002Y-12704D01*
X29978Y-12741D01*
X29941Y-12765D01*
X29893Y-12777D01*
X29844Y-12765D01*
X29807Y-12741D01*
X29564Y-12570D02*
X29564Y-12777D01*
X29576Y-12802D01*
X29588Y-12814D01*
X29612Y-12826D01*
X29649Y-12826D01*
X29673Y-12814D01*
X29564Y-12729D02*
X29588Y-12741D01*
X29637Y-12741D01*
X29661Y-12729D01*
X29673Y-12716D01*
X29685Y-12692D01*
X29685Y-12619D01*
X29673Y-12595D01*
X29661Y-12582D01*
X29637Y-12570D01*
X29588Y-12570D01*
X29564Y-12582D01*
X29442Y-12741D02*
X29442Y-12570D01*
X29442Y-12595D02*
X29430Y-12582D01*
X29405Y-12570D01*
X29369Y-12570D01*
X29344Y-12582D01*
X29332Y-12607D01*
X29332Y-12741D01*
X29332Y-12607D02*
X29320Y-12582D01*
X29296Y-12570D01*
X29259Y-12570D01*
X29235Y-12582D01*
X29222Y-12607D01*
X29222Y-12741D01*
X28991Y-12741D02*
X28991Y-12607D01*
X29003Y-12582D01*
X29027Y-12570D01*
X29076Y-12570D01*
X29101Y-12582D01*
X28991Y-12729D02*
X29015Y-12741D01*
X29076Y-12741D01*
X29101Y-12729D01*
X29113Y-12704D01*
X29113Y-12680D01*
X29101Y-12655D01*
X29076Y-12643D01*
X29015Y-12643D01*
X28991Y-12631D01*
X28869Y-12741D02*
X28869Y-12570D01*
X28869Y-12485D02*
X28881Y-12497D01*
X28869Y-12509D01*
X28857Y-12497D01*
X28869Y-12485D01*
X28869Y-12509D01*
X28711Y-12741D02*
X28735Y-12729D01*
X28747Y-12704D01*
X28747Y-12485D01*
X28613Y-12716D02*
X28601Y-12729D01*
X28613Y-12741D01*
X28625Y-12729D01*
X28613Y-12716D01*
X28613Y-12741D01*
X28382Y-12729D02*
X28406Y-12741D01*
X28455Y-12741D01*
X28479Y-12729D01*
X28491Y-12716D01*
X28503Y-12692D01*
X28503Y-12619D01*
X28491Y-12595D01*
X28479Y-12582D01*
X28455Y-12570D01*
X28406Y-12570D01*
X28382Y-12582D01*
X28235Y-12741D02*
X28260Y-12729D01*
X28272Y-12716D01*
X28284Y-12692D01*
X28284Y-12619D01*
X28272Y-12595D01*
X28260Y-12582D01*
X28235Y-12570D01*
X28199Y-12570D01*
X28174Y-12582D01*
X28162Y-12595D01*
X28150Y-12619D01*
X28150Y-12692D01*
X28162Y-12716D01*
X28174Y-12729D01*
X28199Y-12741D01*
X28235Y-12741D01*
X28040Y-12741D02*
X28040Y-12570D01*
X28040Y-12595D02*
X28028Y-12582D01*
X28004Y-12570D01*
X27967Y-12570D01*
X27943Y-12582D01*
X27931Y-12607D01*
X27931Y-12741D01*
X27931Y-12607D02*
X27919Y-12582D01*
X27894Y-12570D01*
X27858Y-12570D01*
X27833Y-12582D01*
X27821Y-12607D01*
X27821Y-12741D01*
X31885Y-13448D02*
X31800Y-13448D01*
X31763Y-13582D02*
X31885Y-13582D01*
X31885Y-13326D01*
X31763Y-13326D01*
X31666Y-13570D02*
X31641Y-13582D01*
X31593Y-13582D01*
X31568Y-13570D01*
X31556Y-13546D01*
X31556Y-13534D01*
X31568Y-13509D01*
X31593Y-13497D01*
X31629Y-13497D01*
X31654Y-13485D01*
X31666Y-13460D01*
X31666Y-13448D01*
X31654Y-13424D01*
X31629Y-13412D01*
X31593Y-13412D01*
X31568Y-13424D01*
X31483Y-13412D02*
X31385Y-13412D01*
X31446Y-13326D02*
X31446Y-13546D01*
X31434Y-13570D01*
X31410Y-13582D01*
X31385Y-13582D01*
X31190Y-13582D02*
X31190Y-13448D01*
X31203Y-13424D01*
X31227Y-13412D01*
X31276Y-13412D01*
X31300Y-13424D01*
X31190Y-13570D02*
X31215Y-13582D01*
X31276Y-13582D01*
X31300Y-13570D01*
X31312Y-13546D01*
X31312Y-13521D01*
X31300Y-13497D01*
X31276Y-13485D01*
X31215Y-13485D01*
X31190Y-13473D01*
X31069Y-13412D02*
X31069Y-13582D01*
X31069Y-13436D02*
X31056Y-13424D01*
X31032Y-13412D01*
X30995Y-13412D01*
X30971Y-13424D01*
X30959Y-13448D01*
X30959Y-13582D01*
X30837Y-13582D02*
X30837Y-13412D01*
X30837Y-13326D02*
X30849Y-13339D01*
X30837Y-13351D01*
X30825Y-13339D01*
X30837Y-13326D01*
X30837Y-13351D01*
X30727Y-13570D02*
X30703Y-13582D01*
X30654Y-13582D01*
X30630Y-13570D01*
X30618Y-13546D01*
X30618Y-13534D01*
X30630Y-13509D01*
X30654Y-13497D01*
X30691Y-13497D01*
X30715Y-13485D01*
X30727Y-13460D01*
X30727Y-13448D01*
X30715Y-13424D01*
X30691Y-13412D01*
X30654Y-13412D01*
X30630Y-13424D01*
X30471Y-13582D02*
X30496Y-13570D01*
X30508Y-13546D01*
X30508Y-13326D01*
X30264Y-13582D02*
X30264Y-13448D01*
X30276Y-13424D01*
X30301Y-13412D01*
X30350Y-13412D01*
X30374Y-13424D01*
X30264Y-13570D02*
X30289Y-13582D01*
X30350Y-13582D01*
X30374Y-13570D01*
X30386Y-13546D01*
X30386Y-13521D01*
X30374Y-13497D01*
X30350Y-13485D01*
X30289Y-13485D01*
X30264Y-13473D01*
X30106Y-13582D02*
X30130Y-13570D01*
X30142Y-13558D01*
X30155Y-13534D01*
X30155Y-13460D01*
X30142Y-13436D01*
X30130Y-13424D01*
X30106Y-13412D01*
X30069Y-13412D01*
X30045Y-13424D01*
X30033Y-13436D01*
X30021Y-13460D01*
X30021Y-13534D01*
X30033Y-13558D01*
X30045Y-13570D01*
X30069Y-13582D01*
X30106Y-13582D01*
X29594Y-13582D02*
X29716Y-13582D01*
X29716Y-13326D01*
X29472Y-13582D02*
X29497Y-13570D01*
X29509Y-13558D01*
X29521Y-13534D01*
X29521Y-13460D01*
X29509Y-13436D01*
X29497Y-13424D01*
X29472Y-13412D01*
X29436Y-13412D01*
X29411Y-13424D01*
X29399Y-13436D01*
X29387Y-13460D01*
X29387Y-13534D01*
X29399Y-13558D01*
X29411Y-13570D01*
X29436Y-13582D01*
X29472Y-13582D01*
X29423Y-13314D02*
X29460Y-13351D01*
X29277Y-13412D02*
X29277Y-13668D01*
X29277Y-13424D02*
X29253Y-13412D01*
X29204Y-13412D01*
X29180Y-13424D01*
X29168Y-13436D01*
X29155Y-13460D01*
X29155Y-13534D01*
X29168Y-13558D01*
X29180Y-13570D01*
X29204Y-13582D01*
X29253Y-13582D01*
X29277Y-13570D01*
X28948Y-13570D02*
X28973Y-13582D01*
X29021Y-13582D01*
X29046Y-13570D01*
X29058Y-13546D01*
X29058Y-13448D01*
X29046Y-13424D01*
X29021Y-13412D01*
X28973Y-13412D01*
X28948Y-13424D01*
X28936Y-13448D01*
X28936Y-13473D01*
X29058Y-13497D01*
X28851Y-13412D02*
X28717Y-13412D01*
X28851Y-13582D01*
X28717Y-13582D01*
X28424Y-13582D02*
X28424Y-13326D01*
X28339Y-13509D01*
X28254Y-13326D01*
X28254Y-13582D01*
X28095Y-13582D02*
X28120Y-13570D01*
X28132Y-13558D01*
X28144Y-13534D01*
X28144Y-13460D01*
X28132Y-13436D01*
X28120Y-13424D01*
X28095Y-13412D01*
X28059Y-13412D01*
X28034Y-13424D01*
X28022Y-13436D01*
X28010Y-13460D01*
X28010Y-13534D01*
X28022Y-13558D01*
X28034Y-13570D01*
X28059Y-13582D01*
X28095Y-13582D01*
X27900Y-13582D02*
X27900Y-13412D01*
X27900Y-13460D02*
X27888Y-13436D01*
X27876Y-13424D01*
X27851Y-13412D01*
X27827Y-13412D01*
X27632Y-13412D02*
X27632Y-13619D01*
X27644Y-13643D01*
X27657Y-13655D01*
X27681Y-13668D01*
X27717Y-13668D01*
X27742Y-13655D01*
X27632Y-13570D02*
X27657Y-13582D01*
X27705Y-13582D01*
X27730Y-13570D01*
X27742Y-13558D01*
X27754Y-13534D01*
X27754Y-13460D01*
X27742Y-13436D01*
X27730Y-13424D01*
X27705Y-13412D01*
X27657Y-13412D01*
X27632Y-13424D01*
X27401Y-13582D02*
X27401Y-13448D01*
X27413Y-13424D01*
X27437Y-13412D01*
X27486Y-13412D01*
X27510Y-13424D01*
X27401Y-13570D02*
X27425Y-13582D01*
X27486Y-13582D01*
X27510Y-13570D01*
X27522Y-13546D01*
X27522Y-13521D01*
X27510Y-13497D01*
X27486Y-13485D01*
X27425Y-13485D01*
X27401Y-13473D01*
X27279Y-13412D02*
X27279Y-13582D01*
X27279Y-13436D02*
X27267Y-13424D01*
X27242Y-13412D01*
X27206Y-13412D01*
X27181Y-13424D01*
X27169Y-13448D01*
X27169Y-13582D01*
X31257Y-13991D02*
X31282Y-14003D01*
X31331Y-14003D01*
X31355Y-13991D01*
X31367Y-13967D01*
X31367Y-13869D01*
X31355Y-13845D01*
X31331Y-13832D01*
X31282Y-13832D01*
X31257Y-13845D01*
X31245Y-13869D01*
X31245Y-13893D01*
X31367Y-13918D01*
X31148Y-13991D02*
X31123Y-14003D01*
X31075Y-14003D01*
X31050Y-13991D01*
X31038Y-13967D01*
X31038Y-13954D01*
X31050Y-13930D01*
X31075Y-13918D01*
X31111Y-13918D01*
X31136Y-13906D01*
X31148Y-13881D01*
X31148Y-13869D01*
X31136Y-13845D01*
X31111Y-13832D01*
X31075Y-13832D01*
X31050Y-13845D01*
X30965Y-13832D02*
X30868Y-13832D01*
X30928Y-13747D02*
X30928Y-13967D01*
X30916Y-13991D01*
X30892Y-14003D01*
X30868Y-14003D01*
X30673Y-14003D02*
X30673Y-13869D01*
X30685Y-13845D01*
X30709Y-13832D01*
X30758Y-13832D01*
X30782Y-13845D01*
X30673Y-13991D02*
X30697Y-14003D01*
X30758Y-14003D01*
X30782Y-13991D01*
X30794Y-13967D01*
X30794Y-13942D01*
X30782Y-13918D01*
X30758Y-13906D01*
X30697Y-13906D01*
X30673Y-13893D01*
X30551Y-13832D02*
X30551Y-14003D01*
X30551Y-13857D02*
X30538Y-13845D01*
X30514Y-13832D01*
X30478Y-13832D01*
X30453Y-13845D01*
X30441Y-13869D01*
X30441Y-14003D01*
X30209Y-13832D02*
X30209Y-14003D01*
X30319Y-13832D02*
X30319Y-13967D01*
X30307Y-13991D01*
X30283Y-14003D01*
X30246Y-14003D01*
X30222Y-13991D01*
X30209Y-13979D01*
X30112Y-14003D02*
X29978Y-13832D01*
X30112Y-13832D02*
X29978Y-14003D01*
X29722Y-13881D02*
X29734Y-13869D01*
X29759Y-13857D01*
X29783Y-13857D01*
X29807Y-13869D01*
X29820Y-13881D01*
X29832Y-13906D01*
X29832Y-13930D01*
X29820Y-13954D01*
X29807Y-13967D01*
X29783Y-13979D01*
X29759Y-13979D01*
X29734Y-13967D01*
X29722Y-13954D01*
X29722Y-13857D02*
X29722Y-13954D01*
X29710Y-13967D01*
X29698Y-13967D01*
X29673Y-13954D01*
X29661Y-13930D01*
X29661Y-13869D01*
X29685Y-13832D01*
X29722Y-13808D01*
X29771Y-13796D01*
X29820Y-13808D01*
X29856Y-13832D01*
X29880Y-13869D01*
X29893Y-13918D01*
X29880Y-13967D01*
X29856Y-14003D01*
X29820Y-14027D01*
X29771Y-14040D01*
X29722Y-14027D01*
X29685Y-14003D01*
X29442Y-13832D02*
X29442Y-14040D01*
X29454Y-14064D01*
X29466Y-14076D01*
X29491Y-14088D01*
X29527Y-14088D01*
X29551Y-14076D01*
X29442Y-13991D02*
X29466Y-14003D01*
X29515Y-14003D01*
X29539Y-13991D01*
X29551Y-13979D01*
X29564Y-13954D01*
X29564Y-13881D01*
X29551Y-13857D01*
X29539Y-13845D01*
X29515Y-13832D01*
X29466Y-13832D01*
X29442Y-13845D01*
X29320Y-14003D02*
X29320Y-13832D01*
X29320Y-13857D02*
X29308Y-13845D01*
X29283Y-13832D01*
X29247Y-13832D01*
X29222Y-13845D01*
X29210Y-13869D01*
X29210Y-14003D01*
X29210Y-13869D02*
X29198Y-13845D01*
X29174Y-13832D01*
X29137Y-13832D01*
X29113Y-13845D01*
X29101Y-13869D01*
X29101Y-14003D01*
X28869Y-14003D02*
X28869Y-13869D01*
X28881Y-13845D01*
X28906Y-13832D01*
X28954Y-13832D01*
X28979Y-13845D01*
X28869Y-13991D02*
X28893Y-14003D01*
X28954Y-14003D01*
X28979Y-13991D01*
X28991Y-13967D01*
X28991Y-13942D01*
X28979Y-13918D01*
X28954Y-13906D01*
X28893Y-13906D01*
X28869Y-13893D01*
X28747Y-14003D02*
X28747Y-13832D01*
X28747Y-13747D02*
X28759Y-13759D01*
X28747Y-13772D01*
X28735Y-13759D01*
X28747Y-13747D01*
X28747Y-13772D01*
X28589Y-14003D02*
X28613Y-13991D01*
X28625Y-13967D01*
X28625Y-13747D01*
X28491Y-13979D02*
X28479Y-13991D01*
X28491Y-14003D01*
X28503Y-13991D01*
X28491Y-13979D01*
X28491Y-14003D01*
X28260Y-13991D02*
X28284Y-14003D01*
X28333Y-14003D01*
X28357Y-13991D01*
X28369Y-13979D01*
X28382Y-13954D01*
X28382Y-13881D01*
X28369Y-13857D01*
X28357Y-13845D01*
X28333Y-13832D01*
X28284Y-13832D01*
X28260Y-13845D01*
X28113Y-14003D02*
X28138Y-13991D01*
X28150Y-13979D01*
X28162Y-13954D01*
X28162Y-13881D01*
X28150Y-13857D01*
X28138Y-13845D01*
X28113Y-13832D01*
X28077Y-13832D01*
X28053Y-13845D01*
X28040Y-13857D01*
X28028Y-13881D01*
X28028Y-13954D01*
X28040Y-13979D01*
X28053Y-13991D01*
X28077Y-14003D01*
X28113Y-14003D01*
X27919Y-14003D02*
X27919Y-13832D01*
X27919Y-13857D02*
X27906Y-13845D01*
X27882Y-13832D01*
X27845Y-13832D01*
X27821Y-13845D01*
X27809Y-13869D01*
X27809Y-14003D01*
X27809Y-13869D02*
X27797Y-13845D01*
X27772Y-13832D01*
X27736Y-13832D01*
X27711Y-13845D01*
X27699Y-13869D01*
X27699Y-14003D01*
G54D12*
X30728Y-30709D02*
X30728Y-30315D01*
X30578Y-30315D01*
X30540Y-30334D01*
X30522Y-30353D01*
X30503Y-30390D01*
X30503Y-30447D01*
X30522Y-30484D01*
X30540Y-30503D01*
X30578Y-30522D01*
X30728Y-30522D01*
X30278Y-30709D02*
X30315Y-30690D01*
X30334Y-30653D01*
X30334Y-30315D01*
X29959Y-30709D02*
X29959Y-30503D01*
X29978Y-30465D01*
X30015Y-30447D01*
X30090Y-30447D01*
X30128Y-30465D01*
X29959Y-30690D02*
X29997Y-30709D01*
X30090Y-30709D01*
X30128Y-30690D01*
X30147Y-30653D01*
X30147Y-30615D01*
X30128Y-30578D01*
X30090Y-30559D01*
X29997Y-30559D01*
X29959Y-30540D01*
X29603Y-30690D02*
X29640Y-30709D01*
X29715Y-30709D01*
X29753Y-30690D01*
X29772Y-30672D01*
X29790Y-30634D01*
X29790Y-30522D01*
X29772Y-30484D01*
X29753Y-30465D01*
X29715Y-30447D01*
X29640Y-30447D01*
X29603Y-30465D01*
X29266Y-30709D02*
X29266Y-30503D01*
X29284Y-30465D01*
X29322Y-30447D01*
X29397Y-30447D01*
X29434Y-30465D01*
X29266Y-30690D02*
X29303Y-30709D01*
X29397Y-30709D01*
X29434Y-30690D01*
X29453Y-30653D01*
X29453Y-30615D01*
X29434Y-30578D01*
X29397Y-30559D01*
X29303Y-30559D01*
X29266Y-30540D01*
X28609Y-30709D02*
X28609Y-30315D01*
X28609Y-30690D02*
X28647Y-30709D01*
X28722Y-30709D01*
X28759Y-30690D01*
X28778Y-30672D01*
X28797Y-30634D01*
X28797Y-30522D01*
X28778Y-30484D01*
X28759Y-30465D01*
X28722Y-30447D01*
X28647Y-30447D01*
X28609Y-30465D01*
X28272Y-30690D02*
X28309Y-30709D01*
X28384Y-30709D01*
X28422Y-30690D01*
X28441Y-30653D01*
X28441Y-30503D01*
X28422Y-30465D01*
X28384Y-30447D01*
X28309Y-30447D01*
X28272Y-30465D01*
X28253Y-30503D01*
X28253Y-30540D01*
X28441Y-30578D01*
X31375Y-31359D02*
X31375Y-31152D01*
X31393Y-31115D01*
X31431Y-31096D01*
X31506Y-31096D01*
X31543Y-31115D01*
X31375Y-31340D02*
X31412Y-31359D01*
X31506Y-31359D01*
X31543Y-31340D01*
X31562Y-31302D01*
X31562Y-31265D01*
X31543Y-31227D01*
X31506Y-31209D01*
X31412Y-31209D01*
X31375Y-31190D01*
X31018Y-31340D02*
X31056Y-31359D01*
X31131Y-31359D01*
X31168Y-31340D01*
X31187Y-31321D01*
X31206Y-31284D01*
X31206Y-31171D01*
X31187Y-31134D01*
X31168Y-31115D01*
X31131Y-31096D01*
X31056Y-31096D01*
X31018Y-31115D01*
X30681Y-31340D02*
X30718Y-31359D01*
X30793Y-31359D01*
X30831Y-31340D01*
X30850Y-31321D01*
X30868Y-31284D01*
X30868Y-31171D01*
X30850Y-31134D01*
X30831Y-31115D01*
X30793Y-31096D01*
X30718Y-31096D01*
X30681Y-31115D01*
X30512Y-31359D02*
X30512Y-31096D01*
X30512Y-30965D02*
X30531Y-30984D01*
X30512Y-31002D01*
X30494Y-30984D01*
X30512Y-30965D01*
X30512Y-31002D01*
X30269Y-31359D02*
X30306Y-31340D01*
X30325Y-31321D01*
X30344Y-31284D01*
X30344Y-31171D01*
X30325Y-31134D01*
X30306Y-31115D01*
X30269Y-31096D01*
X30212Y-31096D01*
X30175Y-31115D01*
X30156Y-31134D01*
X30137Y-31171D01*
X30137Y-31284D01*
X30156Y-31321D01*
X30175Y-31340D01*
X30212Y-31359D01*
X30269Y-31359D01*
X29969Y-31096D02*
X29969Y-31359D01*
X29969Y-31134D02*
X29950Y-31115D01*
X29912Y-31096D01*
X29856Y-31096D01*
X29819Y-31115D01*
X29800Y-31152D01*
X29800Y-31359D01*
X29444Y-31359D02*
X29444Y-31152D01*
X29462Y-31115D01*
X29500Y-31096D01*
X29575Y-31096D01*
X29612Y-31115D01*
X29444Y-31340D02*
X29481Y-31359D01*
X29575Y-31359D01*
X29612Y-31340D01*
X29631Y-31302D01*
X29631Y-31265D01*
X29612Y-31227D01*
X29575Y-31209D01*
X29481Y-31209D01*
X29444Y-31190D01*
X29256Y-31359D02*
X29256Y-31096D01*
X29256Y-31134D02*
X29237Y-31115D01*
X29200Y-31096D01*
X29144Y-31096D01*
X29106Y-31115D01*
X29087Y-31152D01*
X29087Y-31359D01*
X29087Y-31152D02*
X29069Y-31115D01*
X29031Y-31096D01*
X28975Y-31096D01*
X28937Y-31115D01*
X28919Y-31152D01*
X28919Y-31359D01*
X28731Y-31359D02*
X28731Y-31096D01*
X28731Y-30965D02*
X28750Y-30984D01*
X28731Y-31002D01*
X28712Y-30984D01*
X28731Y-30965D01*
X28731Y-31002D01*
X28394Y-31340D02*
X28431Y-31359D01*
X28506Y-31359D01*
X28544Y-31340D01*
X28562Y-31302D01*
X28562Y-31152D01*
X28544Y-31115D01*
X28506Y-31096D01*
X28431Y-31096D01*
X28394Y-31115D01*
X28375Y-31152D01*
X28375Y-31190D01*
X28562Y-31227D01*
X28206Y-31096D02*
X28206Y-31359D01*
X28206Y-31134D02*
X28188Y-31115D01*
X28150Y-31096D01*
X28094Y-31096D01*
X28056Y-31115D01*
X28038Y-31152D01*
X28038Y-31359D01*
X27906Y-31096D02*
X27756Y-31096D01*
X27850Y-30965D02*
X27850Y-31302D01*
X27831Y-31340D01*
X27794Y-31359D01*
X27756Y-31359D01*
X27569Y-31359D02*
X27606Y-31340D01*
X27625Y-31321D01*
X27644Y-31284D01*
X27644Y-31171D01*
X27625Y-31134D01*
X27606Y-31115D01*
X27569Y-31096D01*
X27513Y-31096D01*
X27475Y-31115D01*
X27456Y-31134D01*
X27438Y-31171D01*
X27438Y-31284D01*
X27456Y-31321D01*
X27475Y-31340D01*
X27513Y-31359D01*
X27569Y-31359D01*
X30906Y-32008D02*
X30906Y-31615D01*
X30906Y-31990D02*
X30943Y-32008D01*
X31018Y-32008D01*
X31056Y-31990D01*
X31075Y-31971D01*
X31093Y-31933D01*
X31093Y-31821D01*
X31075Y-31783D01*
X31056Y-31765D01*
X31018Y-31746D01*
X30943Y-31746D01*
X30906Y-31765D01*
X30568Y-31990D02*
X30606Y-32008D01*
X30681Y-32008D01*
X30718Y-31990D01*
X30737Y-31952D01*
X30737Y-31802D01*
X30718Y-31765D01*
X30681Y-31746D01*
X30606Y-31746D01*
X30568Y-31765D01*
X30550Y-31802D01*
X30550Y-31840D01*
X30737Y-31877D01*
X30025Y-32008D02*
X30062Y-31990D01*
X30081Y-31952D01*
X30081Y-31615D01*
X29706Y-32008D02*
X29706Y-31802D01*
X29725Y-31765D01*
X29762Y-31746D01*
X29837Y-31746D01*
X29875Y-31765D01*
X29706Y-31990D02*
X29744Y-32008D01*
X29837Y-32008D01*
X29875Y-31990D01*
X29894Y-31952D01*
X29894Y-31915D01*
X29875Y-31877D01*
X29837Y-31858D01*
X29744Y-31858D01*
X29706Y-31840D01*
X29219Y-32008D02*
X29219Y-31615D01*
X29219Y-31765D02*
X29181Y-31746D01*
X29106Y-31746D01*
X29069Y-31765D01*
X29050Y-31783D01*
X29031Y-31821D01*
X29031Y-31933D01*
X29050Y-31971D01*
X29069Y-31990D01*
X29106Y-32008D01*
X29181Y-32008D01*
X29219Y-31990D01*
X28694Y-32008D02*
X28694Y-31802D01*
X28712Y-31765D01*
X28750Y-31746D01*
X28825Y-31746D01*
X28862Y-31765D01*
X28694Y-31990D02*
X28731Y-32008D01*
X28825Y-32008D01*
X28862Y-31990D01*
X28881Y-31952D01*
X28881Y-31915D01*
X28862Y-31877D01*
X28825Y-31858D01*
X28731Y-31858D01*
X28694Y-31840D01*
X28450Y-32008D02*
X28488Y-31990D01*
X28506Y-31952D01*
X28506Y-31615D01*
X28300Y-32008D02*
X28300Y-31746D01*
X28300Y-31615D02*
X28319Y-31633D01*
X28300Y-31652D01*
X28281Y-31633D01*
X28300Y-31615D01*
X28300Y-31652D01*
X28150Y-31746D02*
X27944Y-31746D01*
X28150Y-32008D01*
X27944Y-32008D01*
X27625Y-32008D02*
X27625Y-31802D01*
X27644Y-31765D01*
X27681Y-31746D01*
X27756Y-31746D01*
X27794Y-31765D01*
X27625Y-31990D02*
X27663Y-32008D01*
X27756Y-32008D01*
X27794Y-31990D01*
X27813Y-31952D01*
X27813Y-31915D01*
X27794Y-31877D01*
X27756Y-31858D01*
X27663Y-31858D01*
X27625Y-31840D01*
G54D13*
X20039Y-33523D03*
X20039Y-28799D03*
X19251Y-31161D03*
X25157Y-28799D03*
X25157Y-33523D03*
G54D14*
X17598Y-11850D03*
X17598Y-10550D03*
X17559Y-23917D03*
X17559Y-22617D03*
X17500Y-17835D03*
X17500Y-16535D03*
X17795Y-30138D03*
X17795Y-28838D03*
G54D15*
X13877Y-22007D03*
G54D16*
X13877Y-21007D03*
X13877Y-20007D03*
X13877Y-19007D03*
X13877Y-18007D03*
X13877Y-17007D03*
G54D17*
X29783Y-22905D03*
X29783Y-20905D03*
G54D18*
X29783Y-24905D03*
G54D17*
X29783Y-18905D03*
X29783Y-16905D03*
G54D19*
X17558Y-13287D03*
X16692Y-13662D03*
X16692Y-12912D03*
X17558Y-19409D03*
X16692Y-19784D03*
X16692Y-19034D03*
X17814Y-31535D03*
X16948Y-31910D03*
X16948Y-31160D03*
X17677Y-25590D03*
X16811Y-25965D03*
X16811Y-25215D03*
G54D20*
X15885Y-25195D03*
X15885Y-25945D03*
X15452Y-12892D03*
X15452Y-13642D03*
X15905Y-31160D03*
X15905Y-31910D03*
X15787Y-19054D03*
X15787Y-19804D03*
G54D13*
X20039Y-27224D03*
X20039Y-22500D03*
X19251Y-24862D03*
X25157Y-22500D03*
X25157Y-27224D03*
X20000Y-14901D03*
X20000Y-10177D03*
X19212Y-12539D03*
X25118Y-10177D03*
X25118Y-14901D03*
X20039Y-21082D03*
X20039Y-16358D03*
X19251Y-18720D03*
X25157Y-16358D03*
X25157Y-21082D03*
G54D21*
X31181Y-10551D03*
X31259Y-33307D03*
X12834Y-33228D03*
X12755Y-10629D03*
G54D22*
X17480Y-21633D03*
X13976Y-26692D03*
X15196Y-15078D03*
X12992Y-15000D03*
X16023Y-21692D03*
X15925Y-33188D03*
X16811Y-27401D03*
G54D23*
X17598Y-10550D02*
X19626Y-10550D01*
X19626Y-10550D02*
X20000Y-10177D01*
X17500Y-16535D02*
X19862Y-16535D01*
X19862Y-16535D02*
X20039Y-16358D01*
X17559Y-22617D02*
X19921Y-22617D01*
X19921Y-22617D02*
X20039Y-22500D01*
X17795Y-28838D02*
X20000Y-28838D01*
X20000Y-28838D02*
X20039Y-28799D01*
G54D24*
X20039Y-22500D02*
X20314Y-22500D01*
X20314Y-22500D02*
X21082Y-21732D01*
X21082Y-21732D02*
X21082Y-20255D01*
X21082Y-20255D02*
X20314Y-19488D01*
X20314Y-19488D02*
X19094Y-19488D01*
X19094Y-19488D02*
X18444Y-18838D01*
X18444Y-18838D02*
X18444Y-17795D01*
X18444Y-17795D02*
X18877Y-17362D01*
X18877Y-17362D02*
X19842Y-17362D01*
X19842Y-17362D02*
X20039Y-17165D01*
X20039Y-17165D02*
X20039Y-16358D01*
X20039Y-16358D02*
X20039Y-16023D01*
X20039Y-16023D02*
X21003Y-15059D01*
X21003Y-15059D02*
X21003Y-14311D01*
X21003Y-14311D02*
X19921Y-13464D01*
X19921Y-13464D02*
X19173Y-13464D01*
X19173Y-13464D02*
X18484Y-12736D01*
X18484Y-12736D02*
X18484Y-12027D01*
X18484Y-12027D02*
X19035Y-11476D01*
X19035Y-11476D02*
X19586Y-11476D01*
X19586Y-11476D02*
X20000Y-11062D01*
X20000Y-11062D02*
X20000Y-10177D01*
X20039Y-28799D02*
X20118Y-28799D01*
X20118Y-28799D02*
X20866Y-27598D01*
X20866Y-27598D02*
X20905Y-26102D01*
X20905Y-26102D02*
X20590Y-25748D01*
X20590Y-25748D02*
X19133Y-25767D01*
X19133Y-25767D02*
X18484Y-25118D01*
X18484Y-25118D02*
X18484Y-24015D01*
X18484Y-24015D02*
X19133Y-23366D01*
X19133Y-23366D02*
X19960Y-23366D01*
X19960Y-23366D02*
X20039Y-23287D01*
X20039Y-23287D02*
X20039Y-22500D01*
X17559Y-21712D02*
X17559Y-22617D01*
X17480Y-21633D02*
X17559Y-21712D01*
G54D25*
X22598Y-24803D02*
X29681Y-24803D01*
X29681Y-24803D02*
X29783Y-24905D01*
X19251Y-24862D02*
X21988Y-24862D01*
X21988Y-24862D02*
X22598Y-24251D01*
X19251Y-18720D02*
X22185Y-18720D01*
X22185Y-18720D02*
X22598Y-18307D01*
X19251Y-31161D02*
X21830Y-31161D01*
X20964Y-12539D02*
X19212Y-12539D01*
X22598Y-14173D02*
X20964Y-12539D01*
X22598Y-30393D02*
X22598Y-24803D01*
X22598Y-24803D02*
X22598Y-24251D01*
X22598Y-24251D02*
X22598Y-18307D01*
X22598Y-18307D02*
X22598Y-14173D01*
X21830Y-31161D02*
X22598Y-30393D01*
G54D24*
X13877Y-19007D02*
X14559Y-19007D01*
X16003Y-25077D02*
X15885Y-25195D01*
X16003Y-24055D02*
X16003Y-25077D01*
X15078Y-23129D02*
X16003Y-24055D01*
X15078Y-19527D02*
X15078Y-23129D01*
X14559Y-19007D02*
X15078Y-19527D01*
X15885Y-25195D02*
X16791Y-25195D01*
X16791Y-25195D02*
X16811Y-25215D01*
G54D25*
X25157Y-22500D02*
X26397Y-22500D01*
X27992Y-20905D02*
X29783Y-20905D01*
X26397Y-22500D02*
X27992Y-20905D01*
G54D23*
X13877Y-17007D02*
X13877Y-13405D01*
X14390Y-12892D02*
X15452Y-12892D01*
X13877Y-13405D02*
X14390Y-12892D01*
G54D24*
X15452Y-12892D02*
X16673Y-12892D01*
X16673Y-12892D02*
X16692Y-12912D01*
G54D25*
X29783Y-16905D02*
X29149Y-16905D01*
X26456Y-11515D02*
X25118Y-10177D01*
X26456Y-14212D02*
X26456Y-11515D01*
X29149Y-16905D02*
X26456Y-14212D01*
G54D26*
X15905Y-31160D02*
X15905Y-27677D01*
X14527Y-20657D02*
X13877Y-20007D01*
X14527Y-23543D02*
X14527Y-20657D01*
X14960Y-23976D02*
X14527Y-23543D01*
X14960Y-26732D02*
X14960Y-23976D01*
X15905Y-27677D02*
X14960Y-26732D01*
G54D24*
X15905Y-31160D02*
X16948Y-31160D01*
G54D25*
X25157Y-28799D02*
X30374Y-28799D01*
X31724Y-22905D02*
X29783Y-22905D01*
X32047Y-23228D02*
X31724Y-22905D01*
X32047Y-27125D02*
X32047Y-23228D01*
X30374Y-28799D02*
X32047Y-27125D01*
G54D23*
X13877Y-18007D02*
X15488Y-18007D01*
X15787Y-18307D02*
X15787Y-19054D01*
X15488Y-18007D02*
X15787Y-18307D01*
G54D24*
X15787Y-19054D02*
X16673Y-19054D01*
X16673Y-19054D02*
X16692Y-19034D01*
G54D25*
X25157Y-16358D02*
X25157Y-17204D01*
X26858Y-18905D02*
X29783Y-18905D01*
X25157Y-17204D02*
X26858Y-18905D01*
G54D23*
X15905Y-31910D02*
X15905Y-33169D01*
X15905Y-33169D02*
X15925Y-33188D01*
G54D27*
X13877Y-22007D02*
X13877Y-26594D01*
X13877Y-26594D02*
X13976Y-26692D01*
X13877Y-22007D02*
X13267Y-22007D01*
X15452Y-14822D02*
X15452Y-13642D01*
X15196Y-15078D02*
X15452Y-14822D01*
X12559Y-15433D02*
X12992Y-15000D01*
X12559Y-21299D02*
X12559Y-15433D01*
X13267Y-22007D02*
X12559Y-21299D01*
G54D24*
X15787Y-21456D02*
X15787Y-19804D01*
X16023Y-21692D02*
X15787Y-21456D01*
X15925Y-33188D02*
X15905Y-33169D01*
X16811Y-27401D02*
X16811Y-25965D01*
X16811Y-27401D02*
X16811Y-27401D01*
X15787Y-19804D02*
X16673Y-19804D01*
X16673Y-19804D02*
X16692Y-19784D01*
X15452Y-13642D02*
X16673Y-13642D01*
X16673Y-13642D02*
X16692Y-13662D01*
X15885Y-25945D02*
X16791Y-25945D01*
X16791Y-25945D02*
X16811Y-25965D01*
X15905Y-31910D02*
X16948Y-31910D01*
G54D23*
X17814Y-31535D02*
X17814Y-32460D01*
X18877Y-33523D02*
X20039Y-33523D01*
X17814Y-32460D02*
X18877Y-33523D01*
X17795Y-30138D02*
X17795Y-31515D01*
X17795Y-31515D02*
X17814Y-31535D01*
X17558Y-13287D02*
X18307Y-13287D01*
X18307Y-13287D02*
X18976Y-13956D01*
X18976Y-13956D02*
X18976Y-14586D01*
X18976Y-14586D02*
X19291Y-14901D01*
X19291Y-14901D02*
X20000Y-14901D01*
X17558Y-13287D02*
X17558Y-11890D01*
X17558Y-11890D02*
X17598Y-11850D01*
G54D24*
X19291Y-14901D02*
X20000Y-14901D01*
X18976Y-14586D02*
X19291Y-14901D01*
X18976Y-13956D02*
X18976Y-14586D01*
X18307Y-13287D02*
X18976Y-13956D01*
G54D23*
X17558Y-19409D02*
X17558Y-17894D01*
X17558Y-17894D02*
X17500Y-17835D01*
X17558Y-19409D02*
X17558Y-19566D01*
X19074Y-21082D02*
X20039Y-21082D01*
X17558Y-19566D02*
X19074Y-21082D01*
X17559Y-23917D02*
X17559Y-24685D01*
X17677Y-24803D02*
X17677Y-25590D01*
X17559Y-24685D02*
X17677Y-24803D01*
X17677Y-25590D02*
X17677Y-25984D01*
X18917Y-27224D02*
X20039Y-27224D01*
X17677Y-25984D02*
X18917Y-27224D01*
G54D10*
G36*
X20633Y-14905D02*
X19777Y-15761D01*
X19697Y-15882D01*
X19669Y-16023D01*
X19669Y-16085D01*
X18103Y-16085D01*
X18041Y-16023D01*
X17949Y-15985D01*
X17850Y-15985D01*
X17139Y-15985D01*
X17139Y-13869D01*
X17139Y-13774D01*
X17077Y-13712D01*
X16742Y-13712D01*
X16742Y-14007D01*
X16805Y-14069D01*
X16840Y-14069D01*
X16939Y-14069D01*
X17031Y-14031D01*
X17101Y-13961D01*
X17139Y-13869D01*
X17139Y-15985D01*
X17050Y-15985D01*
X16958Y-16023D01*
X16888Y-16093D01*
X16850Y-16185D01*
X16850Y-16284D01*
X16850Y-16884D01*
X16888Y-16976D01*
X16958Y-17046D01*
X17050Y-17085D01*
X17149Y-17085D01*
X17949Y-17085D01*
X18041Y-17046D01*
X18103Y-16985D01*
X19669Y-16985D01*
X19669Y-16992D01*
X18877Y-16992D01*
X18736Y-17020D01*
X18616Y-17100D01*
X18183Y-17533D01*
X18150Y-17583D01*
X18150Y-17485D01*
X18111Y-17393D01*
X18041Y-17323D01*
X17949Y-17285D01*
X17850Y-17285D01*
X17050Y-17285D01*
X16958Y-17323D01*
X16888Y-17393D01*
X16850Y-17485D01*
X16850Y-17584D01*
X16850Y-18184D01*
X16888Y-18276D01*
X16958Y-18346D01*
X17050Y-18385D01*
X17108Y-18385D01*
X17108Y-18752D01*
X17101Y-18735D01*
X17031Y-18665D01*
X16939Y-18626D01*
X16840Y-18626D01*
X16642Y-18626D01*
X16642Y-14007D01*
X16642Y-13712D01*
X16308Y-13712D01*
X16245Y-13774D01*
X16245Y-13869D01*
X16284Y-13961D01*
X16354Y-14031D01*
X16446Y-14069D01*
X16545Y-14069D01*
X16580Y-14069D01*
X16642Y-14007D01*
X16642Y-18626D01*
X16446Y-18626D01*
X16354Y-18665D01*
X16335Y-18684D01*
X16237Y-18684D01*
X16237Y-18307D01*
X16203Y-18134D01*
X16105Y-17988D01*
X15977Y-17861D01*
X15977Y-13867D01*
X15977Y-13755D01*
X15915Y-13692D01*
X15502Y-13692D01*
X15502Y-14005D01*
X15565Y-14067D01*
X15678Y-14067D01*
X15777Y-14067D01*
X15869Y-14029D01*
X15939Y-13959D01*
X15977Y-13867D01*
X15977Y-17861D01*
X15806Y-17689D01*
X15660Y-17592D01*
X15488Y-17557D01*
X15402Y-17557D01*
X15402Y-14005D01*
X15402Y-13692D01*
X14990Y-13692D01*
X14927Y-13755D01*
X14927Y-13867D01*
X14965Y-13959D01*
X15036Y-14029D01*
X15128Y-14067D01*
X15227Y-14067D01*
X15340Y-14067D01*
X15402Y-14005D01*
X15402Y-17557D01*
X14163Y-17557D01*
X14042Y-17507D01*
X14174Y-17453D01*
X14322Y-17305D01*
X14402Y-17112D01*
X14403Y-16903D01*
X14327Y-16722D01*
X14327Y-13591D01*
X14577Y-13342D01*
X14958Y-13342D01*
X14927Y-13417D01*
X14927Y-13530D01*
X14990Y-13592D01*
X15402Y-13592D01*
X15402Y-13584D01*
X15502Y-13584D01*
X15502Y-13592D01*
X15915Y-13592D01*
X15977Y-13530D01*
X15977Y-13417D01*
X15939Y-13326D01*
X15881Y-13267D01*
X15886Y-13262D01*
X16335Y-13262D01*
X16354Y-13281D01*
X16367Y-13287D01*
X16354Y-13292D01*
X16284Y-13363D01*
X16245Y-13455D01*
X16245Y-13549D01*
X16308Y-13612D01*
X16642Y-13612D01*
X16642Y-13604D01*
X16742Y-13604D01*
X16742Y-13612D01*
X17077Y-13612D01*
X17136Y-13553D01*
X17150Y-13586D01*
X17220Y-13656D01*
X17312Y-13694D01*
X17374Y-13694D01*
X17386Y-13703D01*
X17558Y-13737D01*
X18120Y-13737D01*
X18526Y-14143D01*
X18526Y-14586D01*
X18560Y-14758D01*
X18658Y-14904D01*
X18973Y-15219D01*
X19119Y-15317D01*
X19291Y-15351D01*
X20000Y-15351D01*
X20015Y-15348D01*
X20088Y-15348D01*
X20156Y-15320D01*
X20172Y-15317D01*
X20185Y-15308D01*
X20252Y-15280D01*
X20304Y-15228D01*
X20318Y-15219D01*
X20327Y-15206D01*
X20378Y-15155D01*
X20406Y-15087D01*
X20415Y-15073D01*
X20418Y-15058D01*
X20446Y-14990D01*
X20446Y-14917D01*
X20450Y-14901D01*
X20446Y-14885D01*
X20446Y-14813D01*
X20418Y-14745D01*
X20415Y-14729D01*
X20406Y-14716D01*
X20379Y-14648D01*
X20327Y-14596D01*
X20318Y-14583D01*
X20304Y-14574D01*
X20253Y-14522D01*
X20185Y-14494D01*
X20172Y-14485D01*
X20156Y-14482D01*
X20089Y-14454D01*
X20015Y-14454D01*
X20000Y-14451D01*
X19477Y-14451D01*
X19426Y-14400D01*
X19426Y-13956D01*
X19402Y-13834D01*
X19793Y-13834D01*
X20633Y-14491D01*
X20633Y-14905D01*
X20633Y-14905D01*
G37*
G54D28*
X20633Y-14905D02*
X19777Y-15761D01*
X19697Y-15882D01*
X19669Y-16023D01*
X19669Y-16085D01*
X18103Y-16085D01*
X18041Y-16023D01*
X17949Y-15985D01*
X17850Y-15985D01*
X17139Y-15985D01*
X17139Y-13869D01*
X17139Y-13774D01*
X17077Y-13712D01*
X16742Y-13712D01*
X16742Y-14007D01*
X16805Y-14069D01*
X16840Y-14069D01*
X16939Y-14069D01*
X17031Y-14031D01*
X17101Y-13961D01*
X17139Y-13869D01*
X17139Y-15985D01*
X17050Y-15985D01*
X16958Y-16023D01*
X16888Y-16093D01*
X16850Y-16185D01*
X16850Y-16284D01*
X16850Y-16884D01*
X16888Y-16976D01*
X16958Y-17046D01*
X17050Y-17085D01*
X17149Y-17085D01*
X17949Y-17085D01*
X18041Y-17046D01*
X18103Y-16985D01*
X19669Y-16985D01*
X19669Y-16992D01*
X18877Y-16992D01*
X18736Y-17020D01*
X18616Y-17100D01*
X18183Y-17533D01*
X18150Y-17583D01*
X18150Y-17485D01*
X18111Y-17393D01*
X18041Y-17323D01*
X17949Y-17285D01*
X17850Y-17285D01*
X17050Y-17285D01*
X16958Y-17323D01*
X16888Y-17393D01*
X16850Y-17485D01*
X16850Y-17584D01*
X16850Y-18184D01*
X16888Y-18276D01*
X16958Y-18346D01*
X17050Y-18385D01*
X17108Y-18385D01*
X17108Y-18752D01*
X17101Y-18735D01*
X17031Y-18665D01*
X16939Y-18626D01*
X16840Y-18626D01*
X16642Y-18626D01*
X16642Y-14007D01*
X16642Y-13712D01*
X16308Y-13712D01*
X16245Y-13774D01*
X16245Y-13869D01*
X16284Y-13961D01*
X16354Y-14031D01*
X16446Y-14069D01*
X16545Y-14069D01*
X16580Y-14069D01*
X16642Y-14007D01*
X16642Y-18626D01*
X16446Y-18626D01*
X16354Y-18665D01*
X16335Y-18684D01*
X16237Y-18684D01*
X16237Y-18307D01*
X16203Y-18134D01*
X16105Y-17988D01*
X15977Y-17861D01*
X15977Y-13867D01*
X15977Y-13755D01*
X15915Y-13692D01*
X15502Y-13692D01*
X15502Y-14005D01*
X15565Y-14067D01*
X15678Y-14067D01*
X15777Y-14067D01*
X15869Y-14029D01*
X15939Y-13959D01*
X15977Y-13867D01*
X15977Y-17861D01*
X15806Y-17689D01*
X15660Y-17592D01*
X15488Y-17557D01*
X15402Y-17557D01*
X15402Y-14005D01*
X15402Y-13692D01*
X14990Y-13692D01*
X14927Y-13755D01*
X14927Y-13867D01*
X14965Y-13959D01*
X15036Y-14029D01*
X15128Y-14067D01*
X15227Y-14067D01*
X15340Y-14067D01*
X15402Y-14005D01*
X15402Y-17557D01*
X14163Y-17557D01*
X14042Y-17507D01*
X14174Y-17453D01*
X14322Y-17305D01*
X14402Y-17112D01*
X14403Y-16903D01*
X14327Y-16722D01*
X14327Y-13591D01*
X14577Y-13342D01*
X14958Y-13342D01*
X14927Y-13417D01*
X14927Y-13530D01*
X14990Y-13592D01*
X15402Y-13592D01*
X15402Y-13584D01*
X15502Y-13584D01*
X15502Y-13592D01*
X15915Y-13592D01*
X15977Y-13530D01*
X15977Y-13417D01*
X15939Y-13326D01*
X15881Y-13267D01*
X15886Y-13262D01*
X16335Y-13262D01*
X16354Y-13281D01*
X16367Y-13287D01*
X16354Y-13292D01*
X16284Y-13363D01*
X16245Y-13455D01*
X16245Y-13549D01*
X16308Y-13612D01*
X16642Y-13612D01*
X16642Y-13604D01*
X16742Y-13604D01*
X16742Y-13612D01*
X17077Y-13612D01*
X17136Y-13553D01*
X17150Y-13586D01*
X17220Y-13656D01*
X17312Y-13694D01*
X17374Y-13694D01*
X17386Y-13703D01*
X17558Y-13737D01*
X18120Y-13737D01*
X18526Y-14143D01*
X18526Y-14586D01*
X18560Y-14758D01*
X18658Y-14904D01*
X18973Y-15219D01*
X19119Y-15317D01*
X19291Y-15351D01*
X20000Y-15351D01*
X20015Y-15348D01*
X20088Y-15348D01*
X20156Y-15320D01*
X20172Y-15317D01*
X20185Y-15308D01*
X20252Y-15280D01*
X20304Y-15228D01*
X20318Y-15219D01*
X20327Y-15206D01*
X20378Y-15155D01*
X20406Y-15087D01*
X20415Y-15073D01*
X20418Y-15058D01*
X20446Y-14990D01*
X20446Y-14917D01*
X20450Y-14901D01*
X20446Y-14885D01*
X20446Y-14813D01*
X20418Y-14745D01*
X20415Y-14729D01*
X20406Y-14716D01*
X20379Y-14648D01*
X20327Y-14596D01*
X20318Y-14583D01*
X20304Y-14574D01*
X20253Y-14522D01*
X20185Y-14494D01*
X20172Y-14485D01*
X20156Y-14482D01*
X20089Y-14454D01*
X20015Y-14454D01*
X20000Y-14451D01*
X19477Y-14451D01*
X19426Y-14400D01*
X19426Y-13956D01*
X19402Y-13834D01*
X19793Y-13834D01*
X20633Y-14491D01*
X20633Y-14905D01*
G54D10*
G36*
X20712Y-21579D02*
X20208Y-22083D01*
X20195Y-22081D01*
X20128Y-22053D01*
X20055Y-22053D01*
X20039Y-22050D01*
X20023Y-22053D01*
X19950Y-22053D01*
X19883Y-22081D01*
X19867Y-22084D01*
X19853Y-22093D01*
X19786Y-22120D01*
X19739Y-22167D01*
X18162Y-22167D01*
X18100Y-22105D01*
X18008Y-22067D01*
X17929Y-22067D01*
X17929Y-21712D01*
X17905Y-21593D01*
X17905Y-21549D01*
X17840Y-21393D01*
X17721Y-21273D01*
X17565Y-21208D01*
X17396Y-21208D01*
X17239Y-21273D01*
X17139Y-21373D01*
X17139Y-19991D01*
X17139Y-19896D01*
X17077Y-19834D01*
X16742Y-19834D01*
X16742Y-20129D01*
X16805Y-20191D01*
X16840Y-20191D01*
X16939Y-20191D01*
X17031Y-20153D01*
X17101Y-20083D01*
X17139Y-19991D01*
X17139Y-21373D01*
X17120Y-21392D01*
X17055Y-21548D01*
X17055Y-21718D01*
X17119Y-21874D01*
X17189Y-21943D01*
X17189Y-22067D01*
X17109Y-22067D01*
X17017Y-22105D01*
X16947Y-22176D01*
X16909Y-22267D01*
X16909Y-22367D01*
X16909Y-22967D01*
X16947Y-23059D01*
X17017Y-23129D01*
X17109Y-23167D01*
X17208Y-23167D01*
X18008Y-23167D01*
X18100Y-23129D01*
X18162Y-23067D01*
X18927Y-23067D01*
X18872Y-23104D01*
X18222Y-23754D01*
X18209Y-23774D01*
X18209Y-23567D01*
X18170Y-23476D01*
X18100Y-23405D01*
X18008Y-23367D01*
X17909Y-23367D01*
X17109Y-23367D01*
X17017Y-23405D01*
X16947Y-23476D01*
X16909Y-23567D01*
X16909Y-23667D01*
X16909Y-24267D01*
X16947Y-24359D01*
X17017Y-24429D01*
X17109Y-24467D01*
X17109Y-24685D01*
X17140Y-24842D01*
X17057Y-24808D01*
X16958Y-24808D01*
X16642Y-24808D01*
X16642Y-20129D01*
X16642Y-19834D01*
X16308Y-19834D01*
X16269Y-19873D01*
X16249Y-19854D01*
X15837Y-19854D01*
X15837Y-20166D01*
X15899Y-20229D01*
X16012Y-20229D01*
X16112Y-20229D01*
X16204Y-20191D01*
X16274Y-20120D01*
X16288Y-20087D01*
X16354Y-20153D01*
X16446Y-20191D01*
X16545Y-20191D01*
X16580Y-20191D01*
X16642Y-20129D01*
X16642Y-24808D01*
X16564Y-24808D01*
X16521Y-24825D01*
X16373Y-24825D01*
X16373Y-24055D01*
X16345Y-23913D01*
X16265Y-23793D01*
X15448Y-22976D01*
X15448Y-20223D01*
X15462Y-20229D01*
X15562Y-20229D01*
X15674Y-20229D01*
X15737Y-20166D01*
X15737Y-19854D01*
X15729Y-19854D01*
X15729Y-19754D01*
X15737Y-19754D01*
X15737Y-19746D01*
X15837Y-19746D01*
X15837Y-19754D01*
X16249Y-19754D01*
X16289Y-19715D01*
X16308Y-19734D01*
X16642Y-19734D01*
X16642Y-19726D01*
X16742Y-19726D01*
X16742Y-19734D01*
X17077Y-19734D01*
X17131Y-19680D01*
X17143Y-19739D01*
X17240Y-19885D01*
X18756Y-21400D01*
X18902Y-21498D01*
X19074Y-21532D01*
X20039Y-21532D01*
X20055Y-21529D01*
X20127Y-21529D01*
X20195Y-21501D01*
X20211Y-21498D01*
X20224Y-21489D01*
X20292Y-21461D01*
X20344Y-21409D01*
X20357Y-21400D01*
X20366Y-21387D01*
X20417Y-21336D01*
X20446Y-21268D01*
X20455Y-21254D01*
X20458Y-21239D01*
X20486Y-21171D01*
X20486Y-21098D01*
X20489Y-21082D01*
X20486Y-21066D01*
X20486Y-20994D01*
X20458Y-20926D01*
X20455Y-20910D01*
X20446Y-20897D01*
X20418Y-20829D01*
X20366Y-20777D01*
X20357Y-20764D01*
X20344Y-20755D01*
X20292Y-20704D01*
X20225Y-20675D01*
X20211Y-20666D01*
X20195Y-20663D01*
X20128Y-20635D01*
X20055Y-20635D01*
X20039Y-20632D01*
X19261Y-20632D01*
X18008Y-19380D01*
X18008Y-18360D01*
X18041Y-18346D01*
X18074Y-18313D01*
X18074Y-18838D01*
X18103Y-18980D01*
X18183Y-19100D01*
X18832Y-19749D01*
X18952Y-19830D01*
X19094Y-19858D01*
X20161Y-19858D01*
X20712Y-20409D01*
X20712Y-21579D01*
X20712Y-21579D01*
G37*
G54D28*
X20712Y-21579D02*
X20208Y-22083D01*
X20195Y-22081D01*
X20128Y-22053D01*
X20055Y-22053D01*
X20039Y-22050D01*
X20023Y-22053D01*
X19950Y-22053D01*
X19883Y-22081D01*
X19867Y-22084D01*
X19853Y-22093D01*
X19786Y-22120D01*
X19739Y-22167D01*
X18162Y-22167D01*
X18100Y-22105D01*
X18008Y-22067D01*
X17929Y-22067D01*
X17929Y-21712D01*
X17905Y-21593D01*
X17905Y-21549D01*
X17840Y-21393D01*
X17721Y-21273D01*
X17565Y-21208D01*
X17396Y-21208D01*
X17239Y-21273D01*
X17139Y-21373D01*
X17139Y-19991D01*
X17139Y-19896D01*
X17077Y-19834D01*
X16742Y-19834D01*
X16742Y-20129D01*
X16805Y-20191D01*
X16840Y-20191D01*
X16939Y-20191D01*
X17031Y-20153D01*
X17101Y-20083D01*
X17139Y-19991D01*
X17139Y-21373D01*
X17120Y-21392D01*
X17055Y-21548D01*
X17055Y-21718D01*
X17119Y-21874D01*
X17189Y-21943D01*
X17189Y-22067D01*
X17109Y-22067D01*
X17017Y-22105D01*
X16947Y-22176D01*
X16909Y-22267D01*
X16909Y-22367D01*
X16909Y-22967D01*
X16947Y-23059D01*
X17017Y-23129D01*
X17109Y-23167D01*
X17208Y-23167D01*
X18008Y-23167D01*
X18100Y-23129D01*
X18162Y-23067D01*
X18927Y-23067D01*
X18872Y-23104D01*
X18222Y-23754D01*
X18209Y-23774D01*
X18209Y-23567D01*
X18170Y-23476D01*
X18100Y-23405D01*
X18008Y-23367D01*
X17909Y-23367D01*
X17109Y-23367D01*
X17017Y-23405D01*
X16947Y-23476D01*
X16909Y-23567D01*
X16909Y-23667D01*
X16909Y-24267D01*
X16947Y-24359D01*
X17017Y-24429D01*
X17109Y-24467D01*
X17109Y-24685D01*
X17140Y-24842D01*
X17057Y-24808D01*
X16958Y-24808D01*
X16642Y-24808D01*
X16642Y-20129D01*
X16642Y-19834D01*
X16308Y-19834D01*
X16269Y-19873D01*
X16249Y-19854D01*
X15837Y-19854D01*
X15837Y-20166D01*
X15899Y-20229D01*
X16012Y-20229D01*
X16112Y-20229D01*
X16204Y-20191D01*
X16274Y-20120D01*
X16288Y-20087D01*
X16354Y-20153D01*
X16446Y-20191D01*
X16545Y-20191D01*
X16580Y-20191D01*
X16642Y-20129D01*
X16642Y-24808D01*
X16564Y-24808D01*
X16521Y-24825D01*
X16373Y-24825D01*
X16373Y-24055D01*
X16345Y-23913D01*
X16265Y-23793D01*
X15448Y-22976D01*
X15448Y-20223D01*
X15462Y-20229D01*
X15562Y-20229D01*
X15674Y-20229D01*
X15737Y-20166D01*
X15737Y-19854D01*
X15729Y-19854D01*
X15729Y-19754D01*
X15737Y-19754D01*
X15737Y-19746D01*
X15837Y-19746D01*
X15837Y-19754D01*
X16249Y-19754D01*
X16289Y-19715D01*
X16308Y-19734D01*
X16642Y-19734D01*
X16642Y-19726D01*
X16742Y-19726D01*
X16742Y-19734D01*
X17077Y-19734D01*
X17131Y-19680D01*
X17143Y-19739D01*
X17240Y-19885D01*
X18756Y-21400D01*
X18902Y-21498D01*
X19074Y-21532D01*
X20039Y-21532D01*
X20055Y-21529D01*
X20127Y-21529D01*
X20195Y-21501D01*
X20211Y-21498D01*
X20224Y-21489D01*
X20292Y-21461D01*
X20344Y-21409D01*
X20357Y-21400D01*
X20366Y-21387D01*
X20417Y-21336D01*
X20446Y-21268D01*
X20455Y-21254D01*
X20458Y-21239D01*
X20486Y-21171D01*
X20486Y-21098D01*
X20489Y-21082D01*
X20486Y-21066D01*
X20486Y-20994D01*
X20458Y-20926D01*
X20455Y-20910D01*
X20446Y-20897D01*
X20418Y-20829D01*
X20366Y-20777D01*
X20357Y-20764D01*
X20344Y-20755D01*
X20292Y-20704D01*
X20225Y-20675D01*
X20211Y-20666D01*
X20195Y-20663D01*
X20128Y-20635D01*
X20055Y-20635D01*
X20039Y-20632D01*
X19261Y-20632D01*
X18008Y-19380D01*
X18008Y-18360D01*
X18041Y-18346D01*
X18074Y-18313D01*
X18074Y-18838D01*
X18103Y-18980D01*
X18183Y-19100D01*
X18832Y-19749D01*
X18952Y-19830D01*
X19094Y-19858D01*
X20161Y-19858D01*
X20712Y-20409D01*
X20712Y-21579D01*
G54D10*
G36*
X32548Y-34556D02*
X32310Y-34556D01*
X32310Y-33099D01*
X32150Y-32713D01*
X31855Y-32417D01*
X31826Y-32405D01*
X31936Y-32405D01*
X31936Y-29858D01*
X26763Y-29858D01*
X26763Y-32405D01*
X30692Y-32405D01*
X30665Y-32416D01*
X30370Y-32711D01*
X30210Y-33097D01*
X30209Y-33515D01*
X30369Y-33901D01*
X30664Y-34196D01*
X31050Y-34356D01*
X31467Y-34357D01*
X31853Y-34197D01*
X32149Y-33902D01*
X32309Y-33516D01*
X32310Y-33099D01*
X32310Y-34556D01*
X25604Y-34556D01*
X25604Y-33435D01*
X25536Y-33270D01*
X25410Y-33145D01*
X25246Y-33076D01*
X25068Y-33076D01*
X24904Y-33144D01*
X24778Y-33270D01*
X24710Y-33434D01*
X24710Y-33612D01*
X24778Y-33776D01*
X24904Y-33902D01*
X25068Y-33970D01*
X25245Y-33970D01*
X25410Y-33902D01*
X25536Y-33777D01*
X25604Y-33612D01*
X25604Y-33435D01*
X25604Y-34556D01*
X16898Y-34556D01*
X16898Y-32255D01*
X16898Y-31960D01*
X16564Y-31960D01*
X16501Y-32022D01*
X16501Y-32117D01*
X16539Y-32209D01*
X16610Y-32279D01*
X16702Y-32317D01*
X16801Y-32317D01*
X16836Y-32317D01*
X16898Y-32255D01*
X16898Y-34556D01*
X16430Y-34556D01*
X16430Y-32135D01*
X16430Y-32022D01*
X16368Y-31960D01*
X15955Y-31960D01*
X15955Y-32272D01*
X16018Y-32335D01*
X16130Y-32335D01*
X16230Y-32335D01*
X16322Y-32297D01*
X16392Y-32227D01*
X16430Y-32135D01*
X16430Y-34556D01*
X15855Y-34556D01*
X15855Y-32272D01*
X15855Y-31960D01*
X15443Y-31960D01*
X15380Y-32022D01*
X15380Y-32135D01*
X15418Y-32227D01*
X15488Y-32297D01*
X15580Y-32335D01*
X15680Y-32335D01*
X15793Y-32335D01*
X15855Y-32272D01*
X15855Y-34556D01*
X13884Y-34556D01*
X13884Y-33020D01*
X13827Y-32882D01*
X13827Y-22470D01*
X13827Y-22057D01*
X13415Y-22057D01*
X13352Y-22120D01*
X13352Y-22332D01*
X13391Y-22424D01*
X13461Y-22494D01*
X13553Y-22532D01*
X13652Y-22532D01*
X13765Y-22532D01*
X13827Y-22470D01*
X13827Y-32882D01*
X13725Y-32634D01*
X13430Y-32338D01*
X13044Y-32178D01*
X12626Y-32178D01*
X12240Y-32337D01*
X11945Y-32632D01*
X11784Y-33018D01*
X11784Y-33436D01*
X11943Y-33822D01*
X12239Y-34117D01*
X12624Y-34278D01*
X13042Y-34278D01*
X13428Y-34119D01*
X13724Y-33823D01*
X13884Y-33438D01*
X13884Y-33020D01*
X13884Y-34556D01*
X11388Y-34556D01*
X11388Y-9341D01*
X11496Y-9341D01*
X32548Y-9341D01*
X32548Y-22963D01*
X32453Y-22821D01*
X32453Y-22821D01*
X32130Y-22498D01*
X31944Y-22374D01*
X31724Y-22330D01*
X30622Y-22330D01*
X30350Y-22058D01*
X29983Y-21905D01*
X29981Y-21905D01*
X30349Y-21753D01*
X30630Y-21472D01*
X30783Y-21105D01*
X30783Y-20707D01*
X30631Y-20339D01*
X30350Y-20058D01*
X29983Y-19905D01*
X29981Y-19905D01*
X30349Y-19753D01*
X30630Y-19472D01*
X30783Y-19105D01*
X30783Y-18707D01*
X30631Y-18339D01*
X30350Y-18058D01*
X29983Y-17905D01*
X29981Y-17905D01*
X30349Y-17753D01*
X30630Y-17472D01*
X30783Y-17105D01*
X30783Y-16707D01*
X30631Y-16339D01*
X30350Y-16058D01*
X29983Y-15905D01*
X29585Y-15905D01*
X29217Y-16057D01*
X29166Y-16108D01*
X27405Y-14348D01*
X32471Y-14348D01*
X32471Y-11681D01*
X32231Y-11681D01*
X32231Y-10343D01*
X32071Y-9957D01*
X31776Y-9661D01*
X31390Y-9501D01*
X30973Y-9500D01*
X30587Y-9660D01*
X30291Y-9955D01*
X30131Y-10341D01*
X30130Y-10759D01*
X30290Y-11145D01*
X30585Y-11440D01*
X30971Y-11600D01*
X31389Y-11601D01*
X31775Y-11441D01*
X32070Y-11146D01*
X32230Y-10760D01*
X32231Y-10343D01*
X32231Y-11681D01*
X27031Y-11681D01*
X27031Y-11515D01*
X26987Y-11295D01*
X26863Y-11109D01*
X26863Y-11109D01*
X25524Y-9770D01*
X25338Y-9645D01*
X25118Y-9602D01*
X24898Y-9645D01*
X24711Y-9770D01*
X24586Y-9957D01*
X24543Y-10177D01*
X24586Y-10397D01*
X24711Y-10583D01*
X25881Y-11753D01*
X25881Y-14212D01*
X25925Y-14432D01*
X26050Y-14619D01*
X28743Y-17312D01*
X28917Y-17428D01*
X28935Y-17471D01*
X29216Y-17752D01*
X29583Y-17905D01*
X29585Y-17905D01*
X29217Y-18057D01*
X28944Y-18330D01*
X27096Y-18330D01*
X25732Y-16966D01*
X25732Y-16358D01*
X25688Y-16138D01*
X25565Y-15953D01*
X25565Y-14813D01*
X25497Y-14648D01*
X25371Y-14522D01*
X25207Y-14454D01*
X25029Y-14454D01*
X24865Y-14522D01*
X24739Y-14648D01*
X24671Y-14812D01*
X24671Y-14990D01*
X24739Y-15154D01*
X24864Y-15280D01*
X25028Y-15348D01*
X25206Y-15348D01*
X25370Y-15280D01*
X25496Y-15155D01*
X25564Y-14990D01*
X25565Y-14813D01*
X25565Y-15953D01*
X25564Y-15951D01*
X25377Y-15827D01*
X25157Y-15783D01*
X24937Y-15827D01*
X24750Y-15951D01*
X24626Y-16138D01*
X24582Y-16358D01*
X24582Y-17204D01*
X24626Y-17424D01*
X24750Y-17611D01*
X26451Y-19312D01*
X26638Y-19436D01*
X26858Y-19480D01*
X28944Y-19480D01*
X29216Y-19752D01*
X29583Y-19905D01*
X29585Y-19905D01*
X29217Y-20057D01*
X28944Y-20330D01*
X27992Y-20330D01*
X27772Y-20374D01*
X27585Y-20498D01*
X26159Y-21925D01*
X25604Y-21925D01*
X25604Y-20994D01*
X25536Y-20829D01*
X25410Y-20704D01*
X25246Y-20635D01*
X25068Y-20635D01*
X24904Y-20703D01*
X24778Y-20829D01*
X24710Y-20993D01*
X24710Y-21171D01*
X24778Y-21335D01*
X24904Y-21461D01*
X25068Y-21529D01*
X25245Y-21529D01*
X25410Y-21461D01*
X25536Y-21336D01*
X25604Y-21171D01*
X25604Y-20994D01*
X25604Y-21925D01*
X25157Y-21925D01*
X24937Y-21968D01*
X24750Y-22093D01*
X24626Y-22279D01*
X24582Y-22500D01*
X24626Y-22720D01*
X24750Y-22906D01*
X24937Y-23031D01*
X25157Y-23075D01*
X26397Y-23075D01*
X26397Y-23074D01*
X26617Y-23031D01*
X26804Y-22906D01*
X28230Y-21480D01*
X28944Y-21480D01*
X29216Y-21752D01*
X29583Y-21905D01*
X29585Y-21905D01*
X29217Y-22057D01*
X28936Y-22338D01*
X28783Y-22705D01*
X28783Y-23103D01*
X28935Y-23471D01*
X29216Y-23752D01*
X29583Y-23905D01*
X29782Y-23905D01*
X28983Y-23905D01*
X28891Y-23943D01*
X28821Y-24013D01*
X28783Y-24105D01*
X28783Y-24205D01*
X28783Y-24228D01*
X23173Y-24228D01*
X23173Y-18307D01*
X23173Y-14173D01*
X23129Y-13953D01*
X23005Y-13766D01*
X23005Y-13766D01*
X21371Y-12132D01*
X21184Y-12008D01*
X20964Y-11964D01*
X19212Y-11964D01*
X19035Y-11999D01*
X19188Y-11846D01*
X19586Y-11846D01*
X19728Y-11818D01*
X19848Y-11738D01*
X20261Y-11324D01*
X20341Y-11204D01*
X20370Y-11062D01*
X20370Y-10439D01*
X20378Y-10430D01*
X20406Y-10362D01*
X20415Y-10349D01*
X20418Y-10333D01*
X20446Y-10266D01*
X20446Y-10193D01*
X20450Y-10177D01*
X20446Y-10161D01*
X20446Y-10088D01*
X20418Y-10020D01*
X20415Y-10004D01*
X20406Y-9991D01*
X20379Y-9924D01*
X20327Y-9872D01*
X20318Y-9858D01*
X20304Y-9850D01*
X20253Y-9798D01*
X20185Y-9770D01*
X20172Y-9761D01*
X20156Y-9758D01*
X20089Y-9730D01*
X20015Y-9730D01*
X20000Y-9727D01*
X19984Y-9730D01*
X19911Y-9730D01*
X19843Y-9758D01*
X19827Y-9761D01*
X19814Y-9770D01*
X19747Y-9798D01*
X19695Y-9849D01*
X19681Y-9858D01*
X19439Y-10100D01*
X18201Y-10100D01*
X18140Y-10038D01*
X18048Y-10000D01*
X17948Y-10000D01*
X17148Y-10000D01*
X17056Y-10038D01*
X16986Y-10109D01*
X16948Y-10201D01*
X16948Y-10300D01*
X16948Y-10900D01*
X16986Y-10992D01*
X17056Y-11062D01*
X17148Y-11100D01*
X17248Y-11100D01*
X18048Y-11100D01*
X18140Y-11062D01*
X18201Y-11000D01*
X19538Y-11000D01*
X19433Y-11106D01*
X19035Y-11106D01*
X18893Y-11134D01*
X18773Y-11214D01*
X18248Y-11740D01*
X18248Y-11501D01*
X18210Y-11409D01*
X18140Y-11338D01*
X18048Y-11300D01*
X17948Y-11300D01*
X17148Y-11300D01*
X17056Y-11338D01*
X16986Y-11409D01*
X16948Y-11501D01*
X16948Y-11600D01*
X16948Y-12200D01*
X16986Y-12292D01*
X17056Y-12362D01*
X17108Y-12384D01*
X17108Y-12630D01*
X17101Y-12613D01*
X17031Y-12542D01*
X16939Y-12504D01*
X16840Y-12504D01*
X16446Y-12504D01*
X16403Y-12522D01*
X15886Y-12522D01*
X15869Y-12505D01*
X15777Y-12467D01*
X15678Y-12467D01*
X15578Y-12467D01*
X15452Y-12442D01*
X14390Y-12442D01*
X14218Y-12476D01*
X14072Y-12574D01*
X13806Y-12840D01*
X13806Y-10421D01*
X13646Y-10035D01*
X13351Y-9740D01*
X12965Y-9580D01*
X12547Y-9579D01*
X12161Y-9739D01*
X11866Y-10034D01*
X11706Y-10420D01*
X11705Y-10837D01*
X11865Y-11223D01*
X12160Y-11519D01*
X12546Y-11679D01*
X12963Y-11680D01*
X13349Y-11520D01*
X13645Y-11225D01*
X13805Y-10839D01*
X13806Y-10421D01*
X13806Y-12840D01*
X13559Y-13087D01*
X13462Y-13233D01*
X13427Y-13405D01*
X13427Y-16722D01*
X13353Y-16902D01*
X13352Y-17111D01*
X13432Y-17304D01*
X13580Y-17452D01*
X13713Y-17507D01*
X13580Y-17562D01*
X13433Y-17710D01*
X13353Y-17902D01*
X13352Y-18111D01*
X13432Y-18304D01*
X13580Y-18452D01*
X13713Y-18507D01*
X13580Y-18562D01*
X13433Y-18710D01*
X13353Y-18902D01*
X13352Y-19111D01*
X13432Y-19304D01*
X13580Y-19452D01*
X13713Y-19507D01*
X13580Y-19562D01*
X13433Y-19710D01*
X13353Y-19902D01*
X13352Y-20111D01*
X13432Y-20304D01*
X13580Y-20452D01*
X13713Y-20507D01*
X13580Y-20562D01*
X13433Y-20710D01*
X13353Y-20902D01*
X13352Y-21111D01*
X13432Y-21304D01*
X13580Y-21452D01*
X13652Y-21482D01*
X13652Y-21482D01*
X13553Y-21482D01*
X13461Y-21520D01*
X13391Y-21591D01*
X13352Y-21683D01*
X13352Y-21895D01*
X13415Y-21957D01*
X13827Y-21957D01*
X13827Y-21950D01*
X13927Y-21950D01*
X13927Y-21957D01*
X13935Y-21957D01*
X13935Y-22057D01*
X13927Y-22057D01*
X13927Y-22470D01*
X13990Y-22532D01*
X14103Y-22532D01*
X14127Y-22532D01*
X14127Y-23543D01*
X14152Y-23670D01*
X14158Y-23696D01*
X14244Y-23826D01*
X14560Y-24142D01*
X14560Y-26732D01*
X14586Y-26859D01*
X14591Y-26885D01*
X14677Y-27015D01*
X15505Y-27842D01*
X15505Y-30766D01*
X15488Y-30773D01*
X15418Y-30843D01*
X15380Y-30935D01*
X15380Y-31035D01*
X15380Y-31385D01*
X15418Y-31477D01*
X15476Y-31535D01*
X15418Y-31593D01*
X15380Y-31685D01*
X15380Y-31797D01*
X15443Y-31860D01*
X15855Y-31860D01*
X15855Y-31852D01*
X15955Y-31852D01*
X15955Y-31860D01*
X16368Y-31860D01*
X16430Y-31797D01*
X16430Y-31685D01*
X16392Y-31593D01*
X16334Y-31535D01*
X16339Y-31530D01*
X16611Y-31530D01*
X16623Y-31535D01*
X16610Y-31540D01*
X16539Y-31611D01*
X16501Y-31703D01*
X16501Y-31797D01*
X16564Y-31860D01*
X16898Y-31860D01*
X16898Y-31852D01*
X16998Y-31852D01*
X16998Y-31860D01*
X17006Y-31860D01*
X17006Y-31960D01*
X16998Y-31960D01*
X16998Y-32255D01*
X17061Y-32317D01*
X17096Y-32317D01*
X17195Y-32317D01*
X17287Y-32279D01*
X17357Y-32209D01*
X17364Y-32192D01*
X17364Y-32460D01*
X17399Y-32632D01*
X17496Y-32778D01*
X18559Y-33841D01*
X18705Y-33939D01*
X18877Y-33973D01*
X20039Y-33973D01*
X20055Y-33970D01*
X20127Y-33970D01*
X20195Y-33942D01*
X20211Y-33939D01*
X20224Y-33930D01*
X20292Y-33902D01*
X20344Y-33850D01*
X20357Y-33841D01*
X20366Y-33828D01*
X20417Y-33777D01*
X20446Y-33709D01*
X20455Y-33695D01*
X20458Y-33680D01*
X20486Y-33612D01*
X20486Y-33539D01*
X20489Y-33523D01*
X20486Y-33507D01*
X20486Y-33435D01*
X20458Y-33367D01*
X20455Y-33351D01*
X20446Y-33338D01*
X20418Y-33270D01*
X20366Y-33218D01*
X20357Y-33205D01*
X20344Y-33196D01*
X20292Y-33145D01*
X20225Y-33116D01*
X20211Y-33107D01*
X20195Y-33104D01*
X20128Y-33076D01*
X20055Y-33076D01*
X20039Y-33073D01*
X19064Y-33073D01*
X18264Y-32274D01*
X18264Y-31535D01*
X18261Y-31520D01*
X18261Y-31328D01*
X18245Y-31288D01*
X18245Y-30688D01*
X18336Y-30650D01*
X18407Y-30579D01*
X18445Y-30487D01*
X18445Y-30388D01*
X18445Y-29788D01*
X18407Y-29696D01*
X18336Y-29626D01*
X18245Y-29588D01*
X18145Y-29588D01*
X17345Y-29588D01*
X17253Y-29626D01*
X17183Y-29696D01*
X17145Y-29788D01*
X17145Y-29887D01*
X17145Y-30487D01*
X17183Y-30579D01*
X17253Y-30650D01*
X17345Y-30688D01*
X17345Y-30848D01*
X17287Y-30790D01*
X17195Y-30752D01*
X17096Y-30752D01*
X16761Y-30752D01*
X16761Y-26310D01*
X16761Y-26015D01*
X16426Y-26015D01*
X16397Y-26044D01*
X16348Y-25995D01*
X15935Y-25995D01*
X15935Y-26308D01*
X15998Y-26370D01*
X16111Y-26370D01*
X16210Y-26370D01*
X16302Y-26332D01*
X16372Y-26262D01*
X16387Y-26228D01*
X16402Y-26264D01*
X16472Y-26334D01*
X16564Y-26373D01*
X16663Y-26373D01*
X16698Y-26373D01*
X16761Y-26310D01*
X16761Y-30752D01*
X16702Y-30752D01*
X16611Y-30790D01*
X16339Y-30790D01*
X16322Y-30773D01*
X16305Y-30766D01*
X16305Y-27677D01*
X16275Y-27524D01*
X16275Y-27524D01*
X16188Y-27394D01*
X15835Y-27041D01*
X15835Y-26308D01*
X15835Y-25995D01*
X15423Y-25995D01*
X15360Y-26058D01*
X15360Y-26170D01*
X15398Y-26262D01*
X15469Y-26332D01*
X15561Y-26370D01*
X15660Y-26370D01*
X15773Y-26370D01*
X15835Y-26308D01*
X15835Y-27041D01*
X15360Y-26566D01*
X15360Y-23976D01*
X15350Y-23924D01*
X15633Y-24208D01*
X15633Y-24770D01*
X15561Y-24770D01*
X15469Y-24808D01*
X15398Y-24879D01*
X15360Y-24971D01*
X15360Y-25070D01*
X15360Y-25420D01*
X15398Y-25512D01*
X15457Y-25570D01*
X15398Y-25629D01*
X15360Y-25721D01*
X15360Y-25833D01*
X15423Y-25895D01*
X15835Y-25895D01*
X15835Y-25887D01*
X15935Y-25887D01*
X15935Y-25895D01*
X16348Y-25895D01*
X16377Y-25866D01*
X16426Y-25915D01*
X16761Y-25915D01*
X16761Y-25907D01*
X16861Y-25907D01*
X16861Y-25915D01*
X16868Y-25915D01*
X16868Y-26015D01*
X16861Y-26015D01*
X16861Y-26310D01*
X16923Y-26373D01*
X16958Y-26373D01*
X17057Y-26373D01*
X17149Y-26334D01*
X17220Y-26264D01*
X17258Y-26172D01*
X17258Y-26140D01*
X17261Y-26156D01*
X17358Y-26302D01*
X18599Y-27542D01*
X18745Y-27640D01*
X18917Y-27674D01*
X20039Y-27674D01*
X20055Y-27671D01*
X20127Y-27671D01*
X20195Y-27643D01*
X20211Y-27640D01*
X20224Y-27631D01*
X20292Y-27603D01*
X20344Y-27551D01*
X20357Y-27542D01*
X20366Y-27529D01*
X20417Y-27477D01*
X20446Y-27410D01*
X20455Y-27396D01*
X20458Y-27380D01*
X20486Y-27313D01*
X20486Y-27240D01*
X20489Y-27224D01*
X20486Y-27208D01*
X20486Y-27135D01*
X20458Y-27068D01*
X20455Y-27052D01*
X20446Y-27038D01*
X20418Y-26971D01*
X20366Y-26919D01*
X20357Y-26906D01*
X20344Y-26897D01*
X20292Y-26845D01*
X20225Y-26817D01*
X20211Y-26808D01*
X20195Y-26805D01*
X20128Y-26777D01*
X20055Y-26777D01*
X20039Y-26774D01*
X19103Y-26774D01*
X18127Y-25797D01*
X18127Y-25590D01*
X18127Y-25182D01*
X18142Y-25259D01*
X18222Y-25379D01*
X18872Y-26029D01*
X18874Y-26030D01*
X18875Y-26032D01*
X18934Y-26070D01*
X18992Y-26109D01*
X18994Y-26110D01*
X18996Y-26111D01*
X19065Y-26124D01*
X19133Y-26137D01*
X19136Y-26137D01*
X19138Y-26137D01*
X20426Y-26120D01*
X20531Y-26238D01*
X20498Y-27488D01*
X19960Y-28352D01*
X19950Y-28352D01*
X19883Y-28380D01*
X19867Y-28383D01*
X19860Y-28388D01*
X18398Y-28388D01*
X18336Y-28326D01*
X18245Y-28288D01*
X18145Y-28288D01*
X17345Y-28288D01*
X17253Y-28326D01*
X17183Y-28396D01*
X17145Y-28488D01*
X17145Y-28587D01*
X17145Y-29187D01*
X17183Y-29279D01*
X17253Y-29350D01*
X17345Y-29388D01*
X17445Y-29388D01*
X18245Y-29388D01*
X18336Y-29350D01*
X18398Y-29288D01*
X20000Y-29288D01*
X20172Y-29253D01*
X20275Y-29185D01*
X20292Y-29178D01*
X20304Y-29165D01*
X20318Y-29156D01*
X20357Y-29117D01*
X20366Y-29104D01*
X20417Y-29052D01*
X20446Y-28984D01*
X20455Y-28971D01*
X20458Y-28955D01*
X20461Y-28947D01*
X21180Y-27794D01*
X21189Y-27769D01*
X21204Y-27748D01*
X21214Y-27703D01*
X21231Y-27658D01*
X21230Y-27633D01*
X21236Y-27608D01*
X21275Y-26112D01*
X21264Y-26046D01*
X21255Y-25981D01*
X21251Y-25975D01*
X21250Y-25969D01*
X21215Y-25913D01*
X21182Y-25856D01*
X20867Y-25502D01*
X20856Y-25494D01*
X20848Y-25482D01*
X20799Y-25450D01*
X20781Y-25437D01*
X21988Y-25437D01*
X21988Y-25437D01*
X22023Y-25430D01*
X22023Y-30155D01*
X21592Y-30586D01*
X19251Y-30586D01*
X19031Y-30630D01*
X18845Y-30754D01*
X18720Y-30941D01*
X18676Y-31161D01*
X18720Y-31381D01*
X18845Y-31568D01*
X19031Y-31692D01*
X19251Y-31736D01*
X21830Y-31736D01*
X21830Y-31736D01*
X22050Y-31692D01*
X22237Y-31568D01*
X23005Y-30800D01*
X23005Y-30800D01*
X23129Y-30613D01*
X23129Y-30613D01*
X23136Y-30577D01*
X23173Y-30393D01*
X23173Y-30393D01*
X23173Y-25378D01*
X28783Y-25378D01*
X28783Y-25705D01*
X28821Y-25797D01*
X28891Y-25867D01*
X28983Y-25905D01*
X29083Y-25905D01*
X30583Y-25905D01*
X30675Y-25867D01*
X30745Y-25797D01*
X30783Y-25705D01*
X30783Y-25605D01*
X30783Y-24105D01*
X30745Y-24013D01*
X30675Y-23943D01*
X30583Y-23905D01*
X30483Y-23905D01*
X29981Y-23905D01*
X30349Y-23753D01*
X30622Y-23480D01*
X31472Y-23480D01*
X31472Y-26887D01*
X30135Y-28224D01*
X25604Y-28224D01*
X25604Y-27135D01*
X25536Y-26971D01*
X25410Y-26845D01*
X25246Y-26777D01*
X25068Y-26777D01*
X24904Y-26845D01*
X24778Y-26970D01*
X24710Y-27135D01*
X24710Y-27312D01*
X24778Y-27477D01*
X24904Y-27603D01*
X25068Y-27671D01*
X25245Y-27671D01*
X25410Y-27603D01*
X25536Y-27477D01*
X25604Y-27313D01*
X25604Y-27135D01*
X25604Y-28224D01*
X25157Y-28224D01*
X24937Y-28267D01*
X24750Y-28392D01*
X24626Y-28579D01*
X24582Y-28799D01*
X24626Y-29019D01*
X24750Y-29205D01*
X24937Y-29330D01*
X25157Y-29374D01*
X30374Y-29374D01*
X30374Y-29374D01*
X30594Y-29330D01*
X30780Y-29205D01*
X32453Y-27532D01*
X32453Y-27532D01*
X32548Y-27390D01*
X32548Y-34556D01*
X32548Y-34556D01*
G37*
G54D28*
X32548Y-34556D02*
X32310Y-34556D01*
X32310Y-33099D01*
X32150Y-32713D01*
X31855Y-32417D01*
X31826Y-32405D01*
X31936Y-32405D01*
X31936Y-29858D01*
X26763Y-29858D01*
X26763Y-32405D01*
X30692Y-32405D01*
X30665Y-32416D01*
X30370Y-32711D01*
X30210Y-33097D01*
X30209Y-33515D01*
X30369Y-33901D01*
X30664Y-34196D01*
X31050Y-34356D01*
X31467Y-34357D01*
X31853Y-34197D01*
X32149Y-33902D01*
X32309Y-33516D01*
X32310Y-33099D01*
X32310Y-34556D01*
X25604Y-34556D01*
X25604Y-33435D01*
X25536Y-33270D01*
X25410Y-33145D01*
X25246Y-33076D01*
X25068Y-33076D01*
X24904Y-33144D01*
X24778Y-33270D01*
X24710Y-33434D01*
X24710Y-33612D01*
X24778Y-33776D01*
X24904Y-33902D01*
X25068Y-33970D01*
X25245Y-33970D01*
X25410Y-33902D01*
X25536Y-33777D01*
X25604Y-33612D01*
X25604Y-33435D01*
X25604Y-34556D01*
X16898Y-34556D01*
X16898Y-32255D01*
X16898Y-31960D01*
X16564Y-31960D01*
X16501Y-32022D01*
X16501Y-32117D01*
X16539Y-32209D01*
X16610Y-32279D01*
X16702Y-32317D01*
X16801Y-32317D01*
X16836Y-32317D01*
X16898Y-32255D01*
X16898Y-34556D01*
X16430Y-34556D01*
X16430Y-32135D01*
X16430Y-32022D01*
X16368Y-31960D01*
X15955Y-31960D01*
X15955Y-32272D01*
X16018Y-32335D01*
X16130Y-32335D01*
X16230Y-32335D01*
X16322Y-32297D01*
X16392Y-32227D01*
X16430Y-32135D01*
X16430Y-34556D01*
X15855Y-34556D01*
X15855Y-32272D01*
X15855Y-31960D01*
X15443Y-31960D01*
X15380Y-32022D01*
X15380Y-32135D01*
X15418Y-32227D01*
X15488Y-32297D01*
X15580Y-32335D01*
X15680Y-32335D01*
X15793Y-32335D01*
X15855Y-32272D01*
X15855Y-34556D01*
X13884Y-34556D01*
X13884Y-33020D01*
X13827Y-32882D01*
X13827Y-22470D01*
X13827Y-22057D01*
X13415Y-22057D01*
X13352Y-22120D01*
X13352Y-22332D01*
X13391Y-22424D01*
X13461Y-22494D01*
X13553Y-22532D01*
X13652Y-22532D01*
X13765Y-22532D01*
X13827Y-22470D01*
X13827Y-32882D01*
X13725Y-32634D01*
X13430Y-32338D01*
X13044Y-32178D01*
X12626Y-32178D01*
X12240Y-32337D01*
X11945Y-32632D01*
X11784Y-33018D01*
X11784Y-33436D01*
X11943Y-33822D01*
X12239Y-34117D01*
X12624Y-34278D01*
X13042Y-34278D01*
X13428Y-34119D01*
X13724Y-33823D01*
X13884Y-33438D01*
X13884Y-33020D01*
X13884Y-34556D01*
X11388Y-34556D01*
X11388Y-9341D01*
X11496Y-9341D01*
X32548Y-9341D01*
X32548Y-22963D01*
X32453Y-22821D01*
X32453Y-22821D01*
X32130Y-22498D01*
X31944Y-22374D01*
X31724Y-22330D01*
X30622Y-22330D01*
X30350Y-22058D01*
X29983Y-21905D01*
X29981Y-21905D01*
X30349Y-21753D01*
X30630Y-21472D01*
X30783Y-21105D01*
X30783Y-20707D01*
X30631Y-20339D01*
X30350Y-20058D01*
X29983Y-19905D01*
X29981Y-19905D01*
X30349Y-19753D01*
X30630Y-19472D01*
X30783Y-19105D01*
X30783Y-18707D01*
X30631Y-18339D01*
X30350Y-18058D01*
X29983Y-17905D01*
X29981Y-17905D01*
X30349Y-17753D01*
X30630Y-17472D01*
X30783Y-17105D01*
X30783Y-16707D01*
X30631Y-16339D01*
X30350Y-16058D01*
X29983Y-15905D01*
X29585Y-15905D01*
X29217Y-16057D01*
X29166Y-16108D01*
X27405Y-14348D01*
X32471Y-14348D01*
X32471Y-11681D01*
X32231Y-11681D01*
X32231Y-10343D01*
X32071Y-9957D01*
X31776Y-9661D01*
X31390Y-9501D01*
X30973Y-9500D01*
X30587Y-9660D01*
X30291Y-9955D01*
X30131Y-10341D01*
X30130Y-10759D01*
X30290Y-11145D01*
X30585Y-11440D01*
X30971Y-11600D01*
X31389Y-11601D01*
X31775Y-11441D01*
X32070Y-11146D01*
X32230Y-10760D01*
X32231Y-10343D01*
X32231Y-11681D01*
X27031Y-11681D01*
X27031Y-11515D01*
X26987Y-11295D01*
X26863Y-11109D01*
X26863Y-11109D01*
X25524Y-9770D01*
X25338Y-9645D01*
X25118Y-9602D01*
X24898Y-9645D01*
X24711Y-9770D01*
X24586Y-9957D01*
X24543Y-10177D01*
X24586Y-10397D01*
X24711Y-10583D01*
X25881Y-11753D01*
X25881Y-14212D01*
X25925Y-14432D01*
X26050Y-14619D01*
X28743Y-17312D01*
X28917Y-17428D01*
X28935Y-17471D01*
X29216Y-17752D01*
X29583Y-17905D01*
X29585Y-17905D01*
X29217Y-18057D01*
X28944Y-18330D01*
X27096Y-18330D01*
X25732Y-16966D01*
X25732Y-16358D01*
X25688Y-16138D01*
X25565Y-15953D01*
X25565Y-14813D01*
X25497Y-14648D01*
X25371Y-14522D01*
X25207Y-14454D01*
X25029Y-14454D01*
X24865Y-14522D01*
X24739Y-14648D01*
X24671Y-14812D01*
X24671Y-14990D01*
X24739Y-15154D01*
X24864Y-15280D01*
X25028Y-15348D01*
X25206Y-15348D01*
X25370Y-15280D01*
X25496Y-15155D01*
X25564Y-14990D01*
X25565Y-14813D01*
X25565Y-15953D01*
X25564Y-15951D01*
X25377Y-15827D01*
X25157Y-15783D01*
X24937Y-15827D01*
X24750Y-15951D01*
X24626Y-16138D01*
X24582Y-16358D01*
X24582Y-17204D01*
X24626Y-17424D01*
X24750Y-17611D01*
X26451Y-19312D01*
X26638Y-19436D01*
X26858Y-19480D01*
X28944Y-19480D01*
X29216Y-19752D01*
X29583Y-19905D01*
X29585Y-19905D01*
X29217Y-20057D01*
X28944Y-20330D01*
X27992Y-20330D01*
X27772Y-20374D01*
X27585Y-20498D01*
X26159Y-21925D01*
X25604Y-21925D01*
X25604Y-20994D01*
X25536Y-20829D01*
X25410Y-20704D01*
X25246Y-20635D01*
X25068Y-20635D01*
X24904Y-20703D01*
X24778Y-20829D01*
X24710Y-20993D01*
X24710Y-21171D01*
X24778Y-21335D01*
X24904Y-21461D01*
X25068Y-21529D01*
X25245Y-21529D01*
X25410Y-21461D01*
X25536Y-21336D01*
X25604Y-21171D01*
X25604Y-20994D01*
X25604Y-21925D01*
X25157Y-21925D01*
X24937Y-21968D01*
X24750Y-22093D01*
X24626Y-22279D01*
X24582Y-22500D01*
X24626Y-22720D01*
X24750Y-22906D01*
X24937Y-23031D01*
X25157Y-23075D01*
X26397Y-23075D01*
X26397Y-23074D01*
X26617Y-23031D01*
X26804Y-22906D01*
X28230Y-21480D01*
X28944Y-21480D01*
X29216Y-21752D01*
X29583Y-21905D01*
X29585Y-21905D01*
X29217Y-22057D01*
X28936Y-22338D01*
X28783Y-22705D01*
X28783Y-23103D01*
X28935Y-23471D01*
X29216Y-23752D01*
X29583Y-23905D01*
X29782Y-23905D01*
X28983Y-23905D01*
X28891Y-23943D01*
X28821Y-24013D01*
X28783Y-24105D01*
X28783Y-24205D01*
X28783Y-24228D01*
X23173Y-24228D01*
X23173Y-18307D01*
X23173Y-14173D01*
X23129Y-13953D01*
X23005Y-13766D01*
X23005Y-13766D01*
X21371Y-12132D01*
X21184Y-12008D01*
X20964Y-11964D01*
X19212Y-11964D01*
X19035Y-11999D01*
X19188Y-11846D01*
X19586Y-11846D01*
X19728Y-11818D01*
X19848Y-11738D01*
X20261Y-11324D01*
X20341Y-11204D01*
X20370Y-11062D01*
X20370Y-10439D01*
X20378Y-10430D01*
X20406Y-10362D01*
X20415Y-10349D01*
X20418Y-10333D01*
X20446Y-10266D01*
X20446Y-10193D01*
X20450Y-10177D01*
X20446Y-10161D01*
X20446Y-10088D01*
X20418Y-10020D01*
X20415Y-10004D01*
X20406Y-9991D01*
X20379Y-9924D01*
X20327Y-9872D01*
X20318Y-9858D01*
X20304Y-9850D01*
X20253Y-9798D01*
X20185Y-9770D01*
X20172Y-9761D01*
X20156Y-9758D01*
X20089Y-9730D01*
X20015Y-9730D01*
X20000Y-9727D01*
X19984Y-9730D01*
X19911Y-9730D01*
X19843Y-9758D01*
X19827Y-9761D01*
X19814Y-9770D01*
X19747Y-9798D01*
X19695Y-9849D01*
X19681Y-9858D01*
X19439Y-10100D01*
X18201Y-10100D01*
X18140Y-10038D01*
X18048Y-10000D01*
X17948Y-10000D01*
X17148Y-10000D01*
X17056Y-10038D01*
X16986Y-10109D01*
X16948Y-10201D01*
X16948Y-10300D01*
X16948Y-10900D01*
X16986Y-10992D01*
X17056Y-11062D01*
X17148Y-11100D01*
X17248Y-11100D01*
X18048Y-11100D01*
X18140Y-11062D01*
X18201Y-11000D01*
X19538Y-11000D01*
X19433Y-11106D01*
X19035Y-11106D01*
X18893Y-11134D01*
X18773Y-11214D01*
X18248Y-11740D01*
X18248Y-11501D01*
X18210Y-11409D01*
X18140Y-11338D01*
X18048Y-11300D01*
X17948Y-11300D01*
X17148Y-11300D01*
X17056Y-11338D01*
X16986Y-11409D01*
X16948Y-11501D01*
X16948Y-11600D01*
X16948Y-12200D01*
X16986Y-12292D01*
X17056Y-12362D01*
X17108Y-12384D01*
X17108Y-12630D01*
X17101Y-12613D01*
X17031Y-12542D01*
X16939Y-12504D01*
X16840Y-12504D01*
X16446Y-12504D01*
X16403Y-12522D01*
X15886Y-12522D01*
X15869Y-12505D01*
X15777Y-12467D01*
X15678Y-12467D01*
X15578Y-12467D01*
X15452Y-12442D01*
X14390Y-12442D01*
X14218Y-12476D01*
X14072Y-12574D01*
X13806Y-12840D01*
X13806Y-10421D01*
X13646Y-10035D01*
X13351Y-9740D01*
X12965Y-9580D01*
X12547Y-9579D01*
X12161Y-9739D01*
X11866Y-10034D01*
X11706Y-10420D01*
X11705Y-10837D01*
X11865Y-11223D01*
X12160Y-11519D01*
X12546Y-11679D01*
X12963Y-11680D01*
X13349Y-11520D01*
X13645Y-11225D01*
X13805Y-10839D01*
X13806Y-10421D01*
X13806Y-12840D01*
X13559Y-13087D01*
X13462Y-13233D01*
X13427Y-13405D01*
X13427Y-16722D01*
X13353Y-16902D01*
X13352Y-17111D01*
X13432Y-17304D01*
X13580Y-17452D01*
X13713Y-17507D01*
X13580Y-17562D01*
X13433Y-17710D01*
X13353Y-17902D01*
X13352Y-18111D01*
X13432Y-18304D01*
X13580Y-18452D01*
X13713Y-18507D01*
X13580Y-18562D01*
X13433Y-18710D01*
X13353Y-18902D01*
X13352Y-19111D01*
X13432Y-19304D01*
X13580Y-19452D01*
X13713Y-19507D01*
X13580Y-19562D01*
X13433Y-19710D01*
X13353Y-19902D01*
X13352Y-20111D01*
X13432Y-20304D01*
X13580Y-20452D01*
X13713Y-20507D01*
X13580Y-20562D01*
X13433Y-20710D01*
X13353Y-20902D01*
X13352Y-21111D01*
X13432Y-21304D01*
X13580Y-21452D01*
X13652Y-21482D01*
X13652Y-21482D01*
X13553Y-21482D01*
X13461Y-21520D01*
X13391Y-21591D01*
X13352Y-21683D01*
X13352Y-21895D01*
X13415Y-21957D01*
X13827Y-21957D01*
X13827Y-21950D01*
X13927Y-21950D01*
X13927Y-21957D01*
X13935Y-21957D01*
X13935Y-22057D01*
X13927Y-22057D01*
X13927Y-22470D01*
X13990Y-22532D01*
X14103Y-22532D01*
X14127Y-22532D01*
X14127Y-23543D01*
X14152Y-23670D01*
X14158Y-23696D01*
X14244Y-23826D01*
X14560Y-24142D01*
X14560Y-26732D01*
X14586Y-26859D01*
X14591Y-26885D01*
X14677Y-27015D01*
X15505Y-27842D01*
X15505Y-30766D01*
X15488Y-30773D01*
X15418Y-30843D01*
X15380Y-30935D01*
X15380Y-31035D01*
X15380Y-31385D01*
X15418Y-31477D01*
X15476Y-31535D01*
X15418Y-31593D01*
X15380Y-31685D01*
X15380Y-31797D01*
X15443Y-31860D01*
X15855Y-31860D01*
X15855Y-31852D01*
X15955Y-31852D01*
X15955Y-31860D01*
X16368Y-31860D01*
X16430Y-31797D01*
X16430Y-31685D01*
X16392Y-31593D01*
X16334Y-31535D01*
X16339Y-31530D01*
X16611Y-31530D01*
X16623Y-31535D01*
X16610Y-31540D01*
X16539Y-31611D01*
X16501Y-31703D01*
X16501Y-31797D01*
X16564Y-31860D01*
X16898Y-31860D01*
X16898Y-31852D01*
X16998Y-31852D01*
X16998Y-31860D01*
X17006Y-31860D01*
X17006Y-31960D01*
X16998Y-31960D01*
X16998Y-32255D01*
X17061Y-32317D01*
X17096Y-32317D01*
X17195Y-32317D01*
X17287Y-32279D01*
X17357Y-32209D01*
X17364Y-32192D01*
X17364Y-32460D01*
X17399Y-32632D01*
X17496Y-32778D01*
X18559Y-33841D01*
X18705Y-33939D01*
X18877Y-33973D01*
X20039Y-33973D01*
X20055Y-33970D01*
X20127Y-33970D01*
X20195Y-33942D01*
X20211Y-33939D01*
X20224Y-33930D01*
X20292Y-33902D01*
X20344Y-33850D01*
X20357Y-33841D01*
X20366Y-33828D01*
X20417Y-33777D01*
X20446Y-33709D01*
X20455Y-33695D01*
X20458Y-33680D01*
X20486Y-33612D01*
X20486Y-33539D01*
X20489Y-33523D01*
X20486Y-33507D01*
X20486Y-33435D01*
X20458Y-33367D01*
X20455Y-33351D01*
X20446Y-33338D01*
X20418Y-33270D01*
X20366Y-33218D01*
X20357Y-33205D01*
X20344Y-33196D01*
X20292Y-33145D01*
X20225Y-33116D01*
X20211Y-33107D01*
X20195Y-33104D01*
X20128Y-33076D01*
X20055Y-33076D01*
X20039Y-33073D01*
X19064Y-33073D01*
X18264Y-32274D01*
X18264Y-31535D01*
X18261Y-31520D01*
X18261Y-31328D01*
X18245Y-31288D01*
X18245Y-30688D01*
X18336Y-30650D01*
X18407Y-30579D01*
X18445Y-30487D01*
X18445Y-30388D01*
X18445Y-29788D01*
X18407Y-29696D01*
X18336Y-29626D01*
X18245Y-29588D01*
X18145Y-29588D01*
X17345Y-29588D01*
X17253Y-29626D01*
X17183Y-29696D01*
X17145Y-29788D01*
X17145Y-29887D01*
X17145Y-30487D01*
X17183Y-30579D01*
X17253Y-30650D01*
X17345Y-30688D01*
X17345Y-30848D01*
X17287Y-30790D01*
X17195Y-30752D01*
X17096Y-30752D01*
X16761Y-30752D01*
X16761Y-26310D01*
X16761Y-26015D01*
X16426Y-26015D01*
X16397Y-26044D01*
X16348Y-25995D01*
X15935Y-25995D01*
X15935Y-26308D01*
X15998Y-26370D01*
X16111Y-26370D01*
X16210Y-26370D01*
X16302Y-26332D01*
X16372Y-26262D01*
X16387Y-26228D01*
X16402Y-26264D01*
X16472Y-26334D01*
X16564Y-26373D01*
X16663Y-26373D01*
X16698Y-26373D01*
X16761Y-26310D01*
X16761Y-30752D01*
X16702Y-30752D01*
X16611Y-30790D01*
X16339Y-30790D01*
X16322Y-30773D01*
X16305Y-30766D01*
X16305Y-27677D01*
X16275Y-27524D01*
X16275Y-27524D01*
X16188Y-27394D01*
X15835Y-27041D01*
X15835Y-26308D01*
X15835Y-25995D01*
X15423Y-25995D01*
X15360Y-26058D01*
X15360Y-26170D01*
X15398Y-26262D01*
X15469Y-26332D01*
X15561Y-26370D01*
X15660Y-26370D01*
X15773Y-26370D01*
X15835Y-26308D01*
X15835Y-27041D01*
X15360Y-26566D01*
X15360Y-23976D01*
X15350Y-23924D01*
X15633Y-24208D01*
X15633Y-24770D01*
X15561Y-24770D01*
X15469Y-24808D01*
X15398Y-24879D01*
X15360Y-24971D01*
X15360Y-25070D01*
X15360Y-25420D01*
X15398Y-25512D01*
X15457Y-25570D01*
X15398Y-25629D01*
X15360Y-25721D01*
X15360Y-25833D01*
X15423Y-25895D01*
X15835Y-25895D01*
X15835Y-25887D01*
X15935Y-25887D01*
X15935Y-25895D01*
X16348Y-25895D01*
X16377Y-25866D01*
X16426Y-25915D01*
X16761Y-25915D01*
X16761Y-25907D01*
X16861Y-25907D01*
X16861Y-25915D01*
X16868Y-25915D01*
X16868Y-26015D01*
X16861Y-26015D01*
X16861Y-26310D01*
X16923Y-26373D01*
X16958Y-26373D01*
X17057Y-26373D01*
X17149Y-26334D01*
X17220Y-26264D01*
X17258Y-26172D01*
X17258Y-26140D01*
X17261Y-26156D01*
X17358Y-26302D01*
X18599Y-27542D01*
X18745Y-27640D01*
X18917Y-27674D01*
X20039Y-27674D01*
X20055Y-27671D01*
X20127Y-27671D01*
X20195Y-27643D01*
X20211Y-27640D01*
X20224Y-27631D01*
X20292Y-27603D01*
X20344Y-27551D01*
X20357Y-27542D01*
X20366Y-27529D01*
X20417Y-27477D01*
X20446Y-27410D01*
X20455Y-27396D01*
X20458Y-27380D01*
X20486Y-27313D01*
X20486Y-27240D01*
X20489Y-27224D01*
X20486Y-27208D01*
X20486Y-27135D01*
X20458Y-27068D01*
X20455Y-27052D01*
X20446Y-27038D01*
X20418Y-26971D01*
X20366Y-26919D01*
X20357Y-26906D01*
X20344Y-26897D01*
X20292Y-26845D01*
X20225Y-26817D01*
X20211Y-26808D01*
X20195Y-26805D01*
X20128Y-26777D01*
X20055Y-26777D01*
X20039Y-26774D01*
X19103Y-26774D01*
X18127Y-25797D01*
X18127Y-25590D01*
X18127Y-25182D01*
X18142Y-25259D01*
X18222Y-25379D01*
X18872Y-26029D01*
X18874Y-26030D01*
X18875Y-26032D01*
X18934Y-26070D01*
X18992Y-26109D01*
X18994Y-26110D01*
X18996Y-26111D01*
X19065Y-26124D01*
X19133Y-26137D01*
X19136Y-26137D01*
X19138Y-26137D01*
X20426Y-26120D01*
X20531Y-26238D01*
X20498Y-27488D01*
X19960Y-28352D01*
X19950Y-28352D01*
X19883Y-28380D01*
X19867Y-28383D01*
X19860Y-28388D01*
X18398Y-28388D01*
X18336Y-28326D01*
X18245Y-28288D01*
X18145Y-28288D01*
X17345Y-28288D01*
X17253Y-28326D01*
X17183Y-28396D01*
X17145Y-28488D01*
X17145Y-28587D01*
X17145Y-29187D01*
X17183Y-29279D01*
X17253Y-29350D01*
X17345Y-29388D01*
X17445Y-29388D01*
X18245Y-29388D01*
X18336Y-29350D01*
X18398Y-29288D01*
X20000Y-29288D01*
X20172Y-29253D01*
X20275Y-29185D01*
X20292Y-29178D01*
X20304Y-29165D01*
X20318Y-29156D01*
X20357Y-29117D01*
X20366Y-29104D01*
X20417Y-29052D01*
X20446Y-28984D01*
X20455Y-28971D01*
X20458Y-28955D01*
X20461Y-28947D01*
X21180Y-27794D01*
X21189Y-27769D01*
X21204Y-27748D01*
X21214Y-27703D01*
X21231Y-27658D01*
X21230Y-27633D01*
X21236Y-27608D01*
X21275Y-26112D01*
X21264Y-26046D01*
X21255Y-25981D01*
X21251Y-25975D01*
X21250Y-25969D01*
X21215Y-25913D01*
X21182Y-25856D01*
X20867Y-25502D01*
X20856Y-25494D01*
X20848Y-25482D01*
X20799Y-25450D01*
X20781Y-25437D01*
X21988Y-25437D01*
X21988Y-25437D01*
X22023Y-25430D01*
X22023Y-30155D01*
X21592Y-30586D01*
X19251Y-30586D01*
X19031Y-30630D01*
X18845Y-30754D01*
X18720Y-30941D01*
X18676Y-31161D01*
X18720Y-31381D01*
X18845Y-31568D01*
X19031Y-31692D01*
X19251Y-31736D01*
X21830Y-31736D01*
X21830Y-31736D01*
X22050Y-31692D01*
X22237Y-31568D01*
X23005Y-30800D01*
X23005Y-30800D01*
X23129Y-30613D01*
X23129Y-30613D01*
X23136Y-30577D01*
X23173Y-30393D01*
X23173Y-30393D01*
X23173Y-25378D01*
X28783Y-25378D01*
X28783Y-25705D01*
X28821Y-25797D01*
X28891Y-25867D01*
X28983Y-25905D01*
X29083Y-25905D01*
X30583Y-25905D01*
X30675Y-25867D01*
X30745Y-25797D01*
X30783Y-25705D01*
X30783Y-25605D01*
X30783Y-24105D01*
X30745Y-24013D01*
X30675Y-23943D01*
X30583Y-23905D01*
X30483Y-23905D01*
X29981Y-23905D01*
X30349Y-23753D01*
X30622Y-23480D01*
X31472Y-23480D01*
X31472Y-26887D01*
X30135Y-28224D01*
X25604Y-28224D01*
X25604Y-27135D01*
X25536Y-26971D01*
X25410Y-26845D01*
X25246Y-26777D01*
X25068Y-26777D01*
X24904Y-26845D01*
X24778Y-26970D01*
X24710Y-27135D01*
X24710Y-27312D01*
X24778Y-27477D01*
X24904Y-27603D01*
X25068Y-27671D01*
X25245Y-27671D01*
X25410Y-27603D01*
X25536Y-27477D01*
X25604Y-27313D01*
X25604Y-27135D01*
X25604Y-28224D01*
X25157Y-28224D01*
X24937Y-28267D01*
X24750Y-28392D01*
X24626Y-28579D01*
X24582Y-28799D01*
X24626Y-29019D01*
X24750Y-29205D01*
X24937Y-29330D01*
X25157Y-29374D01*
X30374Y-29374D01*
X30374Y-29374D01*
X30594Y-29330D01*
X30780Y-29205D01*
X32453Y-27532D01*
X32453Y-27532D01*
X32548Y-27390D01*
X32548Y-34556D01*
M02*
