G04 (created by PCBNEW (2013-mar-13)-testing) date mar 04 jun 2013 15:54:13 ART*
%MOIN*%
G04 Gerber Fmt 3.4, Leading zero omitted, Abs format*
%FSLAX34Y34*%
G01*
G70*
G90*
G04 APERTURE LIST*
%ADD10C,0.005906*%
%ADD11C,0.009843*%
%ADD12C,0.004921*%
%ADD13C,0.006398*%
%ADD14C,0.039370*%
%ADD15R,0.055000X0.055000*%
%ADD16C,0.055000*%
%ADD17C,0.150000*%
%ADD18R,0.150000X0.150000*%
%ADD19C,0.160000*%
%ADD20C,0.035000*%
%ADD21C,0.040000*%
%ADD22C,0.024000*%
%ADD23C,0.050000*%
G04 APERTURE END LIST*
G54D10*
G54D11*
X26651Y-22035D02*
X26632Y-22092D01*
X26632Y-22185D01*
X26651Y-22223D01*
X26670Y-22242D01*
X26707Y-22260D01*
X26745Y-22260D01*
X26782Y-22242D01*
X26801Y-22223D01*
X26820Y-22185D01*
X26839Y-22110D01*
X26857Y-22073D01*
X26876Y-22054D01*
X26914Y-22035D01*
X26951Y-22035D01*
X26989Y-22054D01*
X27007Y-22073D01*
X27026Y-22110D01*
X27026Y-22204D01*
X27007Y-22260D01*
X26632Y-22429D02*
X27026Y-22429D01*
X26632Y-22842D02*
X26820Y-22710D01*
X26632Y-22617D02*
X27026Y-22617D01*
X27026Y-22767D01*
X27007Y-22804D01*
X26989Y-22823D01*
X26951Y-22842D01*
X26895Y-22842D01*
X26857Y-22823D01*
X26839Y-22804D01*
X26820Y-22767D01*
X26820Y-22617D01*
X26839Y-23010D02*
X26839Y-23142D01*
X26632Y-23198D02*
X26632Y-23010D01*
X27026Y-23010D01*
X27026Y-23198D01*
X26632Y-23367D02*
X27026Y-23367D01*
X26632Y-23592D01*
X27026Y-23592D01*
X26745Y-23760D02*
X26745Y-23948D01*
X26632Y-23723D02*
X27026Y-23854D01*
X26632Y-23985D01*
X31552Y-18203D02*
X31533Y-18185D01*
X31514Y-18128D01*
X31514Y-18091D01*
X31533Y-18035D01*
X31571Y-17997D01*
X31608Y-17979D01*
X31683Y-17960D01*
X31739Y-17960D01*
X31814Y-17979D01*
X31852Y-17997D01*
X31889Y-18035D01*
X31908Y-18091D01*
X31908Y-18128D01*
X31889Y-18185D01*
X31871Y-18203D01*
X31908Y-18447D02*
X31908Y-18522D01*
X31889Y-18560D01*
X31852Y-18597D01*
X31777Y-18616D01*
X31646Y-18616D01*
X31571Y-18597D01*
X31533Y-18560D01*
X31514Y-18522D01*
X31514Y-18447D01*
X31533Y-18410D01*
X31571Y-18372D01*
X31646Y-18353D01*
X31777Y-18353D01*
X31852Y-18372D01*
X31889Y-18410D01*
X31908Y-18447D01*
X31514Y-18785D02*
X31908Y-18785D01*
X31514Y-19010D01*
X31908Y-19010D01*
X31721Y-19197D02*
X31721Y-19328D01*
X31514Y-19385D02*
X31514Y-19197D01*
X31908Y-19197D01*
X31908Y-19385D01*
X31552Y-19778D02*
X31533Y-19760D01*
X31514Y-19703D01*
X31514Y-19666D01*
X31533Y-19610D01*
X31571Y-19572D01*
X31608Y-19553D01*
X31683Y-19535D01*
X31739Y-19535D01*
X31814Y-19553D01*
X31852Y-19572D01*
X31889Y-19610D01*
X31908Y-19666D01*
X31908Y-19703D01*
X31889Y-19760D01*
X31871Y-19778D01*
X31908Y-19891D02*
X31908Y-20116D01*
X31514Y-20003D02*
X31908Y-20003D01*
X31908Y-20322D02*
X31908Y-20397D01*
X31889Y-20434D01*
X31852Y-20472D01*
X31777Y-20491D01*
X31646Y-20491D01*
X31571Y-20472D01*
X31533Y-20434D01*
X31514Y-20397D01*
X31514Y-20322D01*
X31533Y-20284D01*
X31571Y-20247D01*
X31646Y-20228D01*
X31777Y-20228D01*
X31852Y-20247D01*
X31889Y-20284D01*
X31908Y-20322D01*
X31514Y-20884D02*
X31702Y-20753D01*
X31514Y-20659D02*
X31908Y-20659D01*
X31908Y-20809D01*
X31889Y-20847D01*
X31871Y-20866D01*
X31833Y-20884D01*
X31777Y-20884D01*
X31739Y-20866D01*
X31721Y-20847D01*
X31702Y-20809D01*
X31702Y-20659D01*
X31627Y-21334D02*
X31627Y-21522D01*
X31514Y-21297D02*
X31908Y-21428D01*
X31514Y-21559D01*
X31721Y-22122D02*
X31702Y-22178D01*
X31683Y-22197D01*
X31646Y-22215D01*
X31589Y-22215D01*
X31552Y-22197D01*
X31533Y-22178D01*
X31514Y-22140D01*
X31514Y-21991D01*
X31908Y-21991D01*
X31908Y-22122D01*
X31889Y-22159D01*
X31871Y-22178D01*
X31833Y-22197D01*
X31796Y-22197D01*
X31758Y-22178D01*
X31739Y-22159D01*
X31721Y-22122D01*
X31721Y-21991D01*
X31627Y-22365D02*
X31627Y-22553D01*
X31514Y-22328D02*
X31908Y-22459D01*
X31514Y-22590D01*
X31514Y-22909D02*
X31514Y-22722D01*
X31908Y-22722D01*
X31514Y-23040D02*
X31908Y-23040D01*
X31908Y-23190D02*
X31908Y-23453D01*
X31514Y-23190D01*
X31514Y-23453D01*
X31627Y-23584D02*
X31627Y-23772D01*
X31514Y-23547D02*
X31908Y-23678D01*
X31514Y-23809D01*
G54D12*
X15156Y-16916D02*
X15147Y-16897D01*
X15147Y-16859D01*
X15156Y-16841D01*
X15165Y-16831D01*
X15184Y-16822D01*
X15240Y-16822D01*
X15259Y-16831D01*
X15269Y-16841D01*
X15278Y-16859D01*
X15278Y-16897D01*
X15269Y-16916D01*
X15147Y-17028D02*
X15156Y-17009D01*
X15165Y-17000D01*
X15184Y-16991D01*
X15240Y-16991D01*
X15259Y-17000D01*
X15269Y-17009D01*
X15278Y-17028D01*
X15278Y-17056D01*
X15269Y-17075D01*
X15259Y-17084D01*
X15240Y-17094D01*
X15184Y-17094D01*
X15165Y-17084D01*
X15156Y-17075D01*
X15147Y-17056D01*
X15147Y-17028D01*
X15278Y-17178D02*
X15147Y-17178D01*
X15259Y-17178D02*
X15269Y-17187D01*
X15278Y-17206D01*
X15278Y-17234D01*
X15269Y-17253D01*
X15250Y-17262D01*
X15147Y-17262D01*
X15156Y-17431D02*
X15147Y-17412D01*
X15147Y-17375D01*
X15156Y-17356D01*
X15175Y-17347D01*
X15250Y-17347D01*
X15269Y-17356D01*
X15278Y-17375D01*
X15278Y-17412D01*
X15269Y-17431D01*
X15250Y-17440D01*
X15231Y-17440D01*
X15212Y-17347D01*
X15156Y-17609D02*
X15147Y-17590D01*
X15147Y-17553D01*
X15156Y-17534D01*
X15165Y-17525D01*
X15184Y-17515D01*
X15240Y-17515D01*
X15259Y-17525D01*
X15269Y-17534D01*
X15278Y-17553D01*
X15278Y-17590D01*
X15269Y-17609D01*
X15278Y-17665D02*
X15278Y-17740D01*
X15344Y-17694D02*
X15175Y-17694D01*
X15156Y-17703D01*
X15147Y-17722D01*
X15147Y-17740D01*
X15147Y-17834D02*
X15156Y-17815D01*
X15165Y-17806D01*
X15184Y-17797D01*
X15240Y-17797D01*
X15259Y-17806D01*
X15269Y-17815D01*
X15278Y-17834D01*
X15278Y-17862D01*
X15269Y-17881D01*
X15259Y-17890D01*
X15240Y-17900D01*
X15184Y-17900D01*
X15165Y-17890D01*
X15156Y-17881D01*
X15147Y-17862D01*
X15147Y-17834D01*
X15147Y-17984D02*
X15278Y-17984D01*
X15240Y-17984D02*
X15259Y-17994D01*
X15269Y-18003D01*
X15278Y-18022D01*
X15278Y-18040D01*
X15147Y-18340D02*
X15250Y-18340D01*
X15269Y-18331D01*
X15278Y-18312D01*
X15278Y-18275D01*
X15269Y-18256D01*
X15156Y-18340D02*
X15147Y-18322D01*
X15147Y-18275D01*
X15156Y-18256D01*
X15175Y-18247D01*
X15194Y-18247D01*
X15212Y-18256D01*
X15222Y-18275D01*
X15222Y-18322D01*
X15231Y-18340D01*
X15147Y-18462D02*
X15156Y-18443D01*
X15175Y-18434D01*
X15344Y-18434D01*
X14822Y-16423D02*
X14953Y-16423D01*
X14934Y-16423D02*
X14944Y-16433D01*
X14953Y-16452D01*
X14953Y-16480D01*
X14944Y-16498D01*
X14925Y-16508D01*
X14822Y-16508D01*
X14925Y-16508D02*
X14944Y-16517D01*
X14953Y-16536D01*
X14953Y-16564D01*
X14944Y-16583D01*
X14925Y-16592D01*
X14822Y-16592D01*
X14822Y-16686D02*
X14953Y-16686D01*
X15019Y-16686D02*
X15009Y-16676D01*
X15000Y-16686D01*
X15009Y-16695D01*
X15019Y-16686D01*
X15000Y-16686D01*
X14831Y-16864D02*
X14822Y-16845D01*
X14822Y-16808D01*
X14831Y-16789D01*
X14841Y-16780D01*
X14859Y-16770D01*
X14916Y-16770D01*
X14934Y-16780D01*
X14944Y-16789D01*
X14953Y-16808D01*
X14953Y-16845D01*
X14944Y-16864D01*
X14822Y-16948D02*
X14953Y-16948D01*
X14916Y-16948D02*
X14934Y-16958D01*
X14944Y-16967D01*
X14953Y-16986D01*
X14953Y-17005D01*
X14822Y-17098D02*
X14831Y-17080D01*
X14841Y-17070D01*
X14859Y-17061D01*
X14916Y-17061D01*
X14934Y-17070D01*
X14944Y-17080D01*
X14953Y-17098D01*
X14953Y-17126D01*
X14944Y-17145D01*
X14934Y-17155D01*
X14916Y-17164D01*
X14859Y-17164D01*
X14841Y-17155D01*
X14831Y-17145D01*
X14822Y-17126D01*
X14822Y-17098D01*
X14831Y-17333D02*
X14822Y-17314D01*
X14822Y-17276D01*
X14831Y-17258D01*
X14841Y-17248D01*
X14859Y-17239D01*
X14916Y-17239D01*
X14934Y-17248D01*
X14944Y-17258D01*
X14953Y-17276D01*
X14953Y-17314D01*
X14944Y-17333D01*
X14822Y-17445D02*
X14831Y-17426D01*
X14841Y-17417D01*
X14859Y-17408D01*
X14916Y-17408D01*
X14934Y-17417D01*
X14944Y-17426D01*
X14953Y-17445D01*
X14953Y-17473D01*
X14944Y-17492D01*
X14934Y-17501D01*
X14916Y-17511D01*
X14859Y-17511D01*
X14841Y-17501D01*
X14831Y-17492D01*
X14822Y-17473D01*
X14822Y-17445D01*
X14953Y-17595D02*
X14822Y-17595D01*
X14934Y-17595D02*
X14944Y-17604D01*
X14953Y-17623D01*
X14953Y-17651D01*
X14944Y-17670D01*
X14925Y-17679D01*
X14822Y-17679D01*
X14953Y-17745D02*
X14953Y-17820D01*
X15019Y-17773D02*
X14850Y-17773D01*
X14831Y-17783D01*
X14822Y-17801D01*
X14822Y-17820D01*
X14822Y-17886D02*
X14953Y-17886D01*
X14916Y-17886D02*
X14934Y-17895D01*
X14944Y-17904D01*
X14953Y-17923D01*
X14953Y-17942D01*
X14822Y-18036D02*
X14831Y-18017D01*
X14841Y-18008D01*
X14859Y-17998D01*
X14916Y-17998D01*
X14934Y-18008D01*
X14944Y-18017D01*
X14953Y-18036D01*
X14953Y-18064D01*
X14944Y-18083D01*
X14934Y-18092D01*
X14916Y-18101D01*
X14859Y-18101D01*
X14841Y-18092D01*
X14831Y-18083D01*
X14822Y-18064D01*
X14822Y-18036D01*
X14822Y-18214D02*
X14831Y-18195D01*
X14850Y-18186D01*
X15019Y-18186D01*
X14822Y-18373D02*
X14925Y-18373D01*
X14944Y-18364D01*
X14953Y-18345D01*
X14953Y-18308D01*
X14944Y-18289D01*
X14831Y-18373D02*
X14822Y-18354D01*
X14822Y-18308D01*
X14831Y-18289D01*
X14850Y-18279D01*
X14869Y-18279D01*
X14887Y-18289D01*
X14897Y-18308D01*
X14897Y-18354D01*
X14906Y-18373D01*
X14822Y-18551D02*
X15019Y-18551D01*
X14831Y-18551D02*
X14822Y-18532D01*
X14822Y-18495D01*
X14831Y-18476D01*
X14841Y-18467D01*
X14859Y-18458D01*
X14916Y-18458D01*
X14934Y-18467D01*
X14944Y-18476D01*
X14953Y-18495D01*
X14953Y-18532D01*
X14944Y-18551D01*
X14822Y-18673D02*
X14831Y-18654D01*
X14841Y-18645D01*
X14859Y-18636D01*
X14916Y-18636D01*
X14934Y-18645D01*
X14944Y-18654D01*
X14953Y-18673D01*
X14953Y-18701D01*
X14944Y-18720D01*
X14934Y-18729D01*
X14916Y-18739D01*
X14859Y-18739D01*
X14841Y-18729D01*
X14831Y-18720D01*
X14822Y-18701D01*
X14822Y-18673D01*
X14822Y-18823D02*
X14953Y-18823D01*
X14916Y-18823D02*
X14934Y-18832D01*
X14944Y-18842D01*
X14953Y-18861D01*
X14953Y-18879D01*
G54D11*
X12774Y-16490D02*
X13037Y-16490D01*
X12962Y-16490D02*
X12999Y-16509D01*
X13018Y-16527D01*
X13037Y-16565D01*
X13037Y-16602D01*
X12774Y-16790D02*
X12793Y-16752D01*
X12812Y-16734D01*
X12849Y-16715D01*
X12962Y-16715D01*
X12999Y-16734D01*
X13018Y-16752D01*
X13037Y-16790D01*
X13037Y-16846D01*
X13018Y-16884D01*
X12999Y-16902D01*
X12962Y-16921D01*
X12849Y-16921D01*
X12812Y-16902D01*
X12793Y-16884D01*
X12774Y-16846D01*
X12774Y-16790D01*
X13037Y-17090D02*
X12699Y-17090D01*
X12662Y-17071D01*
X12643Y-17034D01*
X12643Y-17015D01*
X13168Y-17090D02*
X13149Y-17071D01*
X13130Y-17090D01*
X13149Y-17109D01*
X13168Y-17090D01*
X13130Y-17090D01*
X12774Y-17334D02*
X12793Y-17296D01*
X12812Y-17277D01*
X12849Y-17259D01*
X12962Y-17259D01*
X12999Y-17277D01*
X13018Y-17296D01*
X13037Y-17334D01*
X13037Y-17390D01*
X13018Y-17427D01*
X12999Y-17446D01*
X12962Y-17465D01*
X12849Y-17465D01*
X12812Y-17446D01*
X12793Y-17427D01*
X12774Y-17390D01*
X12774Y-17334D01*
X12026Y-16799D02*
X12232Y-16799D01*
X12270Y-16781D01*
X12289Y-16743D01*
X12289Y-16668D01*
X12270Y-16631D01*
X12045Y-16799D02*
X12026Y-16762D01*
X12026Y-16668D01*
X12045Y-16631D01*
X12082Y-16612D01*
X12120Y-16612D01*
X12157Y-16631D01*
X12176Y-16668D01*
X12176Y-16762D01*
X12195Y-16799D01*
X12026Y-16987D02*
X12289Y-16987D01*
X12251Y-16987D02*
X12270Y-17005D01*
X12289Y-17043D01*
X12289Y-17099D01*
X12270Y-17137D01*
X12232Y-17155D01*
X12026Y-17155D01*
X12232Y-17155D02*
X12270Y-17174D01*
X12289Y-17212D01*
X12289Y-17268D01*
X12270Y-17305D01*
X12232Y-17324D01*
X12026Y-17324D01*
X12026Y-17680D02*
X12232Y-17680D01*
X12270Y-17662D01*
X12289Y-17624D01*
X12289Y-17549D01*
X12270Y-17512D01*
X12045Y-17680D02*
X12026Y-17643D01*
X12026Y-17549D01*
X12045Y-17512D01*
X12082Y-17493D01*
X12120Y-17493D01*
X12157Y-17512D01*
X12176Y-17549D01*
X12176Y-17643D01*
X12195Y-17680D01*
X12026Y-17868D02*
X12289Y-17868D01*
X12214Y-17868D02*
X12251Y-17887D01*
X12270Y-17905D01*
X12289Y-17943D01*
X12289Y-17980D01*
X12026Y-18112D02*
X12289Y-18112D01*
X12420Y-18112D02*
X12401Y-18093D01*
X12382Y-18112D01*
X12401Y-18130D01*
X12420Y-18112D01*
X12382Y-18112D01*
X12026Y-18355D02*
X12045Y-18318D01*
X12082Y-18299D01*
X12420Y-18299D01*
X12026Y-18562D02*
X12045Y-18524D01*
X12082Y-18505D01*
X12420Y-18505D01*
X12026Y-18768D02*
X12045Y-18730D01*
X12064Y-18712D01*
X12101Y-18693D01*
X12214Y-18693D01*
X12251Y-18712D01*
X12270Y-18730D01*
X12289Y-18768D01*
X12289Y-18824D01*
X12270Y-18862D01*
X12251Y-18880D01*
X12214Y-18899D01*
X12101Y-18899D01*
X12064Y-18880D01*
X12045Y-18862D01*
X12026Y-18824D01*
X12026Y-18768D01*
X13076Y-18323D02*
X12814Y-18417D01*
X13076Y-18511D01*
X12832Y-18811D02*
X12814Y-18773D01*
X12814Y-18698D01*
X12832Y-18661D01*
X12870Y-18642D01*
X13020Y-18642D01*
X13057Y-18661D01*
X13076Y-18698D01*
X13076Y-18773D01*
X13057Y-18811D01*
X13020Y-18830D01*
X12982Y-18830D01*
X12945Y-18642D01*
X12814Y-18998D02*
X13076Y-18998D01*
X13001Y-18998D02*
X13038Y-19017D01*
X13057Y-19036D01*
X13076Y-19073D01*
X13076Y-19111D01*
X12814Y-19411D02*
X13207Y-19411D01*
X12832Y-19411D02*
X12814Y-19373D01*
X12814Y-19298D01*
X12832Y-19261D01*
X12851Y-19242D01*
X12889Y-19223D01*
X13001Y-19223D01*
X13038Y-19242D01*
X13057Y-19261D01*
X13076Y-19298D01*
X13076Y-19373D01*
X13057Y-19411D01*
X12832Y-19748D02*
X12814Y-19711D01*
X12814Y-19636D01*
X12832Y-19598D01*
X12870Y-19580D01*
X13020Y-19580D01*
X13057Y-19598D01*
X13076Y-19636D01*
X13076Y-19711D01*
X13057Y-19748D01*
X13020Y-19767D01*
X12982Y-19767D01*
X12945Y-19580D01*
X11572Y-19253D02*
X11554Y-19291D01*
X11554Y-19366D01*
X11572Y-19403D01*
X11610Y-19422D01*
X11629Y-19422D01*
X11666Y-19403D01*
X11685Y-19366D01*
X11685Y-19310D01*
X11704Y-19272D01*
X11741Y-19253D01*
X11760Y-19253D01*
X11797Y-19272D01*
X11816Y-19310D01*
X11816Y-19366D01*
X11797Y-19403D01*
X11554Y-19591D02*
X11816Y-19591D01*
X11947Y-19591D02*
X11929Y-19572D01*
X11910Y-19591D01*
X11929Y-19610D01*
X11947Y-19591D01*
X11910Y-19591D01*
X11554Y-19778D02*
X11816Y-19778D01*
X11741Y-19778D02*
X11779Y-19797D01*
X11797Y-19816D01*
X11816Y-19853D01*
X11816Y-19891D01*
X11572Y-20172D02*
X11554Y-20134D01*
X11554Y-20059D01*
X11572Y-20022D01*
X11610Y-20003D01*
X11760Y-20003D01*
X11797Y-20022D01*
X11816Y-20059D01*
X11816Y-20134D01*
X11797Y-20172D01*
X11760Y-20191D01*
X11722Y-20191D01*
X11685Y-20003D01*
X11816Y-20359D02*
X11554Y-20359D01*
X11779Y-20359D02*
X11797Y-20378D01*
X11816Y-20416D01*
X11816Y-20472D01*
X11797Y-20509D01*
X11760Y-20528D01*
X11554Y-20528D01*
X11554Y-20884D02*
X11760Y-20884D01*
X11797Y-20866D01*
X11816Y-20828D01*
X11816Y-20753D01*
X11797Y-20716D01*
X11572Y-20884D02*
X11554Y-20847D01*
X11554Y-20753D01*
X11572Y-20716D01*
X11610Y-20697D01*
X11647Y-20697D01*
X11685Y-20716D01*
X11704Y-20753D01*
X11704Y-20847D01*
X11722Y-20884D01*
X12806Y-20517D02*
X12806Y-20817D01*
X12656Y-20667D02*
X12956Y-20667D01*
X13050Y-21192D02*
X13050Y-21004D01*
X12862Y-20986D01*
X12881Y-21004D01*
X12900Y-21042D01*
X12900Y-21136D01*
X12881Y-21173D01*
X12862Y-21192D01*
X12825Y-21211D01*
X12731Y-21211D01*
X12694Y-21192D01*
X12675Y-21173D01*
X12656Y-21136D01*
X12656Y-21042D01*
X12675Y-21004D01*
X12694Y-20986D01*
X13050Y-21323D02*
X12656Y-21454D01*
X13050Y-21586D01*
X12992Y-22101D02*
X13010Y-22064D01*
X13010Y-22007D01*
X12992Y-21951D01*
X12954Y-21914D01*
X12917Y-21895D01*
X12842Y-21876D01*
X12785Y-21876D01*
X12710Y-21895D01*
X12673Y-21914D01*
X12635Y-21951D01*
X12617Y-22007D01*
X12617Y-22045D01*
X12635Y-22101D01*
X12654Y-22120D01*
X12785Y-22120D01*
X12785Y-22045D01*
X12617Y-22289D02*
X13010Y-22289D01*
X12617Y-22514D01*
X13010Y-22514D01*
X12617Y-22701D02*
X13010Y-22701D01*
X13010Y-22795D01*
X12992Y-22851D01*
X12954Y-22889D01*
X12917Y-22907D01*
X12842Y-22926D01*
X12785Y-22926D01*
X12710Y-22907D01*
X12673Y-22889D01*
X12635Y-22851D01*
X12617Y-22795D01*
X12617Y-22701D01*
G54D13*
X27011Y-12186D02*
X26925Y-12186D01*
X26925Y-12320D02*
X26925Y-12064D01*
X27047Y-12064D01*
X27254Y-12320D02*
X27254Y-12186D01*
X27242Y-12162D01*
X27218Y-12149D01*
X27169Y-12149D01*
X27145Y-12162D01*
X27254Y-12308D02*
X27230Y-12320D01*
X27169Y-12320D01*
X27145Y-12308D01*
X27133Y-12283D01*
X27133Y-12259D01*
X27145Y-12235D01*
X27169Y-12223D01*
X27230Y-12223D01*
X27254Y-12210D01*
X27486Y-12308D02*
X27462Y-12320D01*
X27413Y-12320D01*
X27388Y-12308D01*
X27376Y-12296D01*
X27364Y-12271D01*
X27364Y-12198D01*
X27376Y-12174D01*
X27388Y-12162D01*
X27413Y-12149D01*
X27462Y-12149D01*
X27486Y-12162D01*
X27705Y-12149D02*
X27705Y-12320D01*
X27596Y-12149D02*
X27596Y-12283D01*
X27608Y-12308D01*
X27632Y-12320D01*
X27669Y-12320D01*
X27693Y-12308D01*
X27705Y-12296D01*
X27827Y-12149D02*
X27827Y-12320D01*
X27827Y-12174D02*
X27839Y-12162D01*
X27864Y-12149D01*
X27900Y-12149D01*
X27925Y-12162D01*
X27937Y-12186D01*
X27937Y-12320D01*
X28168Y-12320D02*
X28168Y-12064D01*
X28168Y-12308D02*
X28144Y-12320D01*
X28095Y-12320D01*
X28071Y-12308D01*
X28059Y-12296D01*
X28046Y-12271D01*
X28046Y-12198D01*
X28059Y-12174D01*
X28071Y-12162D01*
X28095Y-12149D01*
X28144Y-12149D01*
X28168Y-12162D01*
X28327Y-12320D02*
X28302Y-12308D01*
X28290Y-12296D01*
X28278Y-12271D01*
X28278Y-12198D01*
X28290Y-12174D01*
X28302Y-12162D01*
X28327Y-12149D01*
X28363Y-12149D01*
X28388Y-12162D01*
X28400Y-12174D01*
X28412Y-12198D01*
X28412Y-12271D01*
X28400Y-12296D01*
X28388Y-12308D01*
X28363Y-12320D01*
X28327Y-12320D01*
X28717Y-12320D02*
X28717Y-12064D01*
X28863Y-12320D01*
X28863Y-12064D01*
X29094Y-12320D02*
X29094Y-12186D01*
X29082Y-12162D01*
X29058Y-12149D01*
X29009Y-12149D01*
X28985Y-12162D01*
X29094Y-12308D02*
X29070Y-12320D01*
X29009Y-12320D01*
X28985Y-12308D01*
X28973Y-12283D01*
X28973Y-12259D01*
X28985Y-12235D01*
X29009Y-12223D01*
X29070Y-12223D01*
X29094Y-12210D01*
X29216Y-12320D02*
X29216Y-12064D01*
X29326Y-12320D02*
X29326Y-12186D01*
X29314Y-12162D01*
X29289Y-12149D01*
X29253Y-12149D01*
X29229Y-12162D01*
X29216Y-12174D01*
X29558Y-12149D02*
X29558Y-12320D01*
X29448Y-12149D02*
X29448Y-12283D01*
X29460Y-12308D01*
X29484Y-12320D01*
X29521Y-12320D01*
X29545Y-12308D01*
X29558Y-12296D01*
X29777Y-12308D02*
X29752Y-12320D01*
X29704Y-12320D01*
X29679Y-12308D01*
X29667Y-12283D01*
X29667Y-12186D01*
X29679Y-12162D01*
X29704Y-12149D01*
X29752Y-12149D01*
X29777Y-12162D01*
X29789Y-12186D01*
X29789Y-12210D01*
X29667Y-12235D01*
X29935Y-12320D02*
X29911Y-12308D01*
X29899Y-12283D01*
X29899Y-12064D01*
X30228Y-12064D02*
X30228Y-12271D01*
X30240Y-12296D01*
X30252Y-12308D01*
X30276Y-12320D01*
X30325Y-12320D01*
X30350Y-12308D01*
X30362Y-12296D01*
X30374Y-12271D01*
X30374Y-12064D01*
X30496Y-12320D02*
X30496Y-12149D01*
X30496Y-12198D02*
X30508Y-12174D01*
X30520Y-12162D01*
X30545Y-12149D01*
X30569Y-12149D01*
X30654Y-12320D02*
X30654Y-12149D01*
X30654Y-12064D02*
X30642Y-12076D01*
X30654Y-12088D01*
X30666Y-12076D01*
X30654Y-12064D01*
X30654Y-12088D01*
X30874Y-12308D02*
X30849Y-12320D01*
X30800Y-12320D01*
X30776Y-12308D01*
X30764Y-12283D01*
X30764Y-12186D01*
X30776Y-12162D01*
X30800Y-12149D01*
X30849Y-12149D01*
X30874Y-12162D01*
X30886Y-12186D01*
X30886Y-12210D01*
X30764Y-12235D01*
X31032Y-12320D02*
X31008Y-12308D01*
X30995Y-12283D01*
X30995Y-12064D01*
X31312Y-12308D02*
X31349Y-12320D01*
X31410Y-12320D01*
X31434Y-12308D01*
X31446Y-12296D01*
X31459Y-12271D01*
X31459Y-12247D01*
X31446Y-12223D01*
X31434Y-12210D01*
X31410Y-12198D01*
X31361Y-12186D01*
X31337Y-12174D01*
X31324Y-12162D01*
X31312Y-12137D01*
X31312Y-12113D01*
X31324Y-12088D01*
X31337Y-12076D01*
X31361Y-12064D01*
X31422Y-12064D01*
X31459Y-12076D01*
X31568Y-12320D02*
X31568Y-12149D01*
X31568Y-12064D02*
X31556Y-12076D01*
X31568Y-12088D01*
X31580Y-12076D01*
X31568Y-12064D01*
X31568Y-12088D01*
X31727Y-12320D02*
X31702Y-12308D01*
X31690Y-12283D01*
X31690Y-12064D01*
X31800Y-12149D02*
X31861Y-12320D01*
X31922Y-12149D01*
X32129Y-12320D02*
X32129Y-12186D01*
X32117Y-12162D01*
X32092Y-12149D01*
X32043Y-12149D01*
X32019Y-12162D01*
X32129Y-12308D02*
X32104Y-12320D01*
X32043Y-12320D01*
X32019Y-12308D01*
X32007Y-12283D01*
X32007Y-12259D01*
X32019Y-12235D01*
X32043Y-12223D01*
X32104Y-12223D01*
X32129Y-12210D01*
X27784Y-12572D02*
X27882Y-12572D01*
X27821Y-12742D02*
X27821Y-12523D01*
X27833Y-12499D01*
X27858Y-12486D01*
X27882Y-12486D01*
X28077Y-12742D02*
X28077Y-12608D01*
X28065Y-12584D01*
X28040Y-12572D01*
X27992Y-12572D01*
X27967Y-12584D01*
X28077Y-12730D02*
X28053Y-12742D01*
X27992Y-12742D01*
X27967Y-12730D01*
X27955Y-12706D01*
X27955Y-12681D01*
X27967Y-12657D01*
X27992Y-12645D01*
X28053Y-12645D01*
X28077Y-12633D01*
X28199Y-12572D02*
X28199Y-12742D01*
X28199Y-12596D02*
X28211Y-12584D01*
X28235Y-12572D01*
X28272Y-12572D01*
X28296Y-12584D01*
X28308Y-12608D01*
X28308Y-12742D01*
X28540Y-12742D02*
X28540Y-12608D01*
X28528Y-12584D01*
X28503Y-12572D01*
X28455Y-12572D01*
X28430Y-12584D01*
X28540Y-12730D02*
X28516Y-12742D01*
X28455Y-12742D01*
X28430Y-12730D01*
X28418Y-12706D01*
X28418Y-12681D01*
X28430Y-12657D01*
X28455Y-12645D01*
X28516Y-12645D01*
X28540Y-12633D01*
X28772Y-12572D02*
X28772Y-12742D01*
X28662Y-12572D02*
X28662Y-12706D01*
X28674Y-12730D01*
X28698Y-12742D01*
X28735Y-12742D01*
X28759Y-12730D01*
X28772Y-12718D01*
X28893Y-12742D02*
X28893Y-12572D01*
X28893Y-12620D02*
X28906Y-12596D01*
X28918Y-12584D01*
X28942Y-12572D01*
X28967Y-12572D01*
X29210Y-12620D02*
X29198Y-12608D01*
X29174Y-12596D01*
X29149Y-12596D01*
X29125Y-12608D01*
X29113Y-12620D01*
X29101Y-12645D01*
X29101Y-12669D01*
X29113Y-12693D01*
X29125Y-12706D01*
X29149Y-12718D01*
X29174Y-12718D01*
X29198Y-12706D01*
X29210Y-12693D01*
X29210Y-12596D02*
X29210Y-12693D01*
X29222Y-12706D01*
X29235Y-12706D01*
X29259Y-12693D01*
X29271Y-12669D01*
X29271Y-12608D01*
X29247Y-12572D01*
X29210Y-12547D01*
X29161Y-12535D01*
X29113Y-12547D01*
X29076Y-12572D01*
X29052Y-12608D01*
X29040Y-12657D01*
X29052Y-12706D01*
X29076Y-12742D01*
X29113Y-12767D01*
X29161Y-12779D01*
X29210Y-12767D01*
X29247Y-12742D01*
X29491Y-12572D02*
X29491Y-12779D01*
X29478Y-12803D01*
X29466Y-12815D01*
X29442Y-12828D01*
X29405Y-12828D01*
X29381Y-12815D01*
X29491Y-12730D02*
X29466Y-12742D01*
X29417Y-12742D01*
X29393Y-12730D01*
X29381Y-12718D01*
X29369Y-12693D01*
X29369Y-12620D01*
X29381Y-12596D01*
X29393Y-12584D01*
X29417Y-12572D01*
X29466Y-12572D01*
X29491Y-12584D01*
X29612Y-12742D02*
X29612Y-12572D01*
X29612Y-12596D02*
X29625Y-12584D01*
X29649Y-12572D01*
X29685Y-12572D01*
X29710Y-12584D01*
X29722Y-12608D01*
X29722Y-12742D01*
X29722Y-12608D02*
X29734Y-12584D01*
X29759Y-12572D01*
X29795Y-12572D01*
X29820Y-12584D01*
X29832Y-12608D01*
X29832Y-12742D01*
X30063Y-12742D02*
X30063Y-12608D01*
X30051Y-12584D01*
X30027Y-12572D01*
X29978Y-12572D01*
X29954Y-12584D01*
X30063Y-12730D02*
X30039Y-12742D01*
X29978Y-12742D01*
X29954Y-12730D01*
X29941Y-12706D01*
X29941Y-12681D01*
X29954Y-12657D01*
X29978Y-12645D01*
X30039Y-12645D01*
X30063Y-12633D01*
X30185Y-12742D02*
X30185Y-12572D01*
X30185Y-12486D02*
X30173Y-12499D01*
X30185Y-12511D01*
X30197Y-12499D01*
X30185Y-12486D01*
X30185Y-12511D01*
X30344Y-12742D02*
X30319Y-12730D01*
X30307Y-12706D01*
X30307Y-12486D01*
X30441Y-12718D02*
X30453Y-12730D01*
X30441Y-12742D01*
X30429Y-12730D01*
X30441Y-12718D01*
X30441Y-12742D01*
X30673Y-12730D02*
X30648Y-12742D01*
X30599Y-12742D01*
X30575Y-12730D01*
X30563Y-12718D01*
X30551Y-12693D01*
X30551Y-12620D01*
X30563Y-12596D01*
X30575Y-12584D01*
X30599Y-12572D01*
X30648Y-12572D01*
X30673Y-12584D01*
X30819Y-12742D02*
X30794Y-12730D01*
X30782Y-12718D01*
X30770Y-12693D01*
X30770Y-12620D01*
X30782Y-12596D01*
X30794Y-12584D01*
X30819Y-12572D01*
X30855Y-12572D01*
X30880Y-12584D01*
X30892Y-12596D01*
X30904Y-12620D01*
X30904Y-12693D01*
X30892Y-12718D01*
X30880Y-12730D01*
X30855Y-12742D01*
X30819Y-12742D01*
X31014Y-12742D02*
X31014Y-12572D01*
X31014Y-12596D02*
X31026Y-12584D01*
X31050Y-12572D01*
X31087Y-12572D01*
X31111Y-12584D01*
X31123Y-12608D01*
X31123Y-12742D01*
X31123Y-12608D02*
X31136Y-12584D01*
X31160Y-12572D01*
X31197Y-12572D01*
X31221Y-12584D01*
X31233Y-12608D01*
X31233Y-12742D01*
X27169Y-13453D02*
X27254Y-13453D01*
X27291Y-13587D02*
X27169Y-13587D01*
X27169Y-13331D01*
X27291Y-13331D01*
X27388Y-13575D02*
X27413Y-13587D01*
X27462Y-13587D01*
X27486Y-13575D01*
X27498Y-13550D01*
X27498Y-13538D01*
X27486Y-13514D01*
X27462Y-13501D01*
X27425Y-13501D01*
X27401Y-13489D01*
X27388Y-13465D01*
X27388Y-13453D01*
X27401Y-13428D01*
X27425Y-13416D01*
X27462Y-13416D01*
X27486Y-13428D01*
X27571Y-13416D02*
X27669Y-13416D01*
X27608Y-13331D02*
X27608Y-13550D01*
X27620Y-13575D01*
X27644Y-13587D01*
X27669Y-13587D01*
X27864Y-13587D02*
X27864Y-13453D01*
X27851Y-13428D01*
X27827Y-13416D01*
X27778Y-13416D01*
X27754Y-13428D01*
X27864Y-13575D02*
X27839Y-13587D01*
X27778Y-13587D01*
X27754Y-13575D01*
X27742Y-13550D01*
X27742Y-13526D01*
X27754Y-13501D01*
X27778Y-13489D01*
X27839Y-13489D01*
X27864Y-13477D01*
X27986Y-13416D02*
X27986Y-13587D01*
X27986Y-13440D02*
X27998Y-13428D01*
X28022Y-13416D01*
X28059Y-13416D01*
X28083Y-13428D01*
X28095Y-13453D01*
X28095Y-13587D01*
X28217Y-13587D02*
X28217Y-13416D01*
X28217Y-13331D02*
X28205Y-13343D01*
X28217Y-13355D01*
X28229Y-13343D01*
X28217Y-13331D01*
X28217Y-13355D01*
X28327Y-13575D02*
X28351Y-13587D01*
X28400Y-13587D01*
X28424Y-13575D01*
X28436Y-13550D01*
X28436Y-13538D01*
X28424Y-13514D01*
X28400Y-13501D01*
X28363Y-13501D01*
X28339Y-13489D01*
X28327Y-13465D01*
X28327Y-13453D01*
X28339Y-13428D01*
X28363Y-13416D01*
X28400Y-13416D01*
X28424Y-13428D01*
X28583Y-13587D02*
X28558Y-13575D01*
X28546Y-13550D01*
X28546Y-13331D01*
X28790Y-13587D02*
X28790Y-13453D01*
X28778Y-13428D01*
X28753Y-13416D01*
X28705Y-13416D01*
X28680Y-13428D01*
X28790Y-13575D02*
X28765Y-13587D01*
X28705Y-13587D01*
X28680Y-13575D01*
X28668Y-13550D01*
X28668Y-13526D01*
X28680Y-13501D01*
X28705Y-13489D01*
X28765Y-13489D01*
X28790Y-13477D01*
X28948Y-13587D02*
X28924Y-13575D01*
X28912Y-13562D01*
X28899Y-13538D01*
X28899Y-13465D01*
X28912Y-13440D01*
X28924Y-13428D01*
X28948Y-13416D01*
X28985Y-13416D01*
X29009Y-13428D01*
X29021Y-13440D01*
X29034Y-13465D01*
X29034Y-13538D01*
X29021Y-13562D01*
X29009Y-13575D01*
X28985Y-13587D01*
X28948Y-13587D01*
X29460Y-13587D02*
X29338Y-13587D01*
X29338Y-13331D01*
X29582Y-13587D02*
X29558Y-13575D01*
X29545Y-13562D01*
X29533Y-13538D01*
X29533Y-13465D01*
X29545Y-13440D01*
X29558Y-13428D01*
X29582Y-13416D01*
X29618Y-13416D01*
X29643Y-13428D01*
X29655Y-13440D01*
X29667Y-13465D01*
X29667Y-13538D01*
X29655Y-13562D01*
X29643Y-13575D01*
X29618Y-13587D01*
X29582Y-13587D01*
X29631Y-13319D02*
X29594Y-13355D01*
X29777Y-13416D02*
X29777Y-13672D01*
X29777Y-13428D02*
X29801Y-13416D01*
X29850Y-13416D01*
X29874Y-13428D01*
X29887Y-13440D01*
X29899Y-13465D01*
X29899Y-13538D01*
X29887Y-13562D01*
X29874Y-13575D01*
X29850Y-13587D01*
X29801Y-13587D01*
X29777Y-13575D01*
X30106Y-13575D02*
X30082Y-13587D01*
X30033Y-13587D01*
X30008Y-13575D01*
X29996Y-13550D01*
X29996Y-13453D01*
X30008Y-13428D01*
X30033Y-13416D01*
X30082Y-13416D01*
X30106Y-13428D01*
X30118Y-13453D01*
X30118Y-13477D01*
X29996Y-13501D01*
X30203Y-13416D02*
X30337Y-13416D01*
X30203Y-13587D01*
X30337Y-13587D01*
X30630Y-13587D02*
X30630Y-13331D01*
X30715Y-13514D01*
X30800Y-13331D01*
X30800Y-13587D01*
X30959Y-13587D02*
X30935Y-13575D01*
X30922Y-13562D01*
X30910Y-13538D01*
X30910Y-13465D01*
X30922Y-13440D01*
X30935Y-13428D01*
X30959Y-13416D01*
X30995Y-13416D01*
X31020Y-13428D01*
X31032Y-13440D01*
X31044Y-13465D01*
X31044Y-13538D01*
X31032Y-13562D01*
X31020Y-13575D01*
X30995Y-13587D01*
X30959Y-13587D01*
X31154Y-13587D02*
X31154Y-13416D01*
X31154Y-13465D02*
X31166Y-13440D01*
X31178Y-13428D01*
X31203Y-13416D01*
X31227Y-13416D01*
X31422Y-13416D02*
X31422Y-13623D01*
X31410Y-13648D01*
X31398Y-13660D01*
X31373Y-13672D01*
X31337Y-13672D01*
X31312Y-13660D01*
X31422Y-13575D02*
X31398Y-13587D01*
X31349Y-13587D01*
X31324Y-13575D01*
X31312Y-13562D01*
X31300Y-13538D01*
X31300Y-13465D01*
X31312Y-13440D01*
X31324Y-13428D01*
X31349Y-13416D01*
X31398Y-13416D01*
X31422Y-13428D01*
X31654Y-13587D02*
X31654Y-13453D01*
X31641Y-13428D01*
X31617Y-13416D01*
X31568Y-13416D01*
X31544Y-13428D01*
X31654Y-13575D02*
X31629Y-13587D01*
X31568Y-13587D01*
X31544Y-13575D01*
X31532Y-13550D01*
X31532Y-13526D01*
X31544Y-13501D01*
X31568Y-13489D01*
X31629Y-13489D01*
X31654Y-13477D01*
X31775Y-13416D02*
X31775Y-13587D01*
X31775Y-13440D02*
X31788Y-13428D01*
X31812Y-13416D01*
X31848Y-13416D01*
X31873Y-13428D01*
X31885Y-13453D01*
X31885Y-13587D01*
X27797Y-13997D02*
X27772Y-14009D01*
X27724Y-14009D01*
X27699Y-13997D01*
X27687Y-13972D01*
X27687Y-13875D01*
X27699Y-13851D01*
X27724Y-13838D01*
X27772Y-13838D01*
X27797Y-13851D01*
X27809Y-13875D01*
X27809Y-13899D01*
X27687Y-13924D01*
X27906Y-13997D02*
X27931Y-14009D01*
X27979Y-14009D01*
X28004Y-13997D01*
X28016Y-13972D01*
X28016Y-13960D01*
X28004Y-13936D01*
X27979Y-13924D01*
X27943Y-13924D01*
X27919Y-13911D01*
X27906Y-13887D01*
X27906Y-13875D01*
X27919Y-13851D01*
X27943Y-13838D01*
X27979Y-13838D01*
X28004Y-13851D01*
X28089Y-13838D02*
X28187Y-13838D01*
X28126Y-13753D02*
X28126Y-13972D01*
X28138Y-13997D01*
X28162Y-14009D01*
X28187Y-14009D01*
X28382Y-14009D02*
X28382Y-13875D01*
X28369Y-13851D01*
X28345Y-13838D01*
X28296Y-13838D01*
X28272Y-13851D01*
X28382Y-13997D02*
X28357Y-14009D01*
X28296Y-14009D01*
X28272Y-13997D01*
X28260Y-13972D01*
X28260Y-13948D01*
X28272Y-13924D01*
X28296Y-13911D01*
X28357Y-13911D01*
X28382Y-13899D01*
X28503Y-13838D02*
X28503Y-14009D01*
X28503Y-13863D02*
X28516Y-13851D01*
X28540Y-13838D01*
X28577Y-13838D01*
X28601Y-13851D01*
X28613Y-13875D01*
X28613Y-14009D01*
X28845Y-13838D02*
X28845Y-14009D01*
X28735Y-13838D02*
X28735Y-13972D01*
X28747Y-13997D01*
X28772Y-14009D01*
X28808Y-14009D01*
X28832Y-13997D01*
X28845Y-13985D01*
X28942Y-14009D02*
X29076Y-13838D01*
X28942Y-13838D02*
X29076Y-14009D01*
X29332Y-13887D02*
X29320Y-13875D01*
X29296Y-13863D01*
X29271Y-13863D01*
X29247Y-13875D01*
X29235Y-13887D01*
X29222Y-13911D01*
X29222Y-13936D01*
X29235Y-13960D01*
X29247Y-13972D01*
X29271Y-13985D01*
X29296Y-13985D01*
X29320Y-13972D01*
X29332Y-13960D01*
X29332Y-13863D02*
X29332Y-13960D01*
X29344Y-13972D01*
X29356Y-13972D01*
X29381Y-13960D01*
X29393Y-13936D01*
X29393Y-13875D01*
X29369Y-13838D01*
X29332Y-13814D01*
X29283Y-13802D01*
X29235Y-13814D01*
X29198Y-13838D01*
X29174Y-13875D01*
X29161Y-13924D01*
X29174Y-13972D01*
X29198Y-14009D01*
X29235Y-14033D01*
X29283Y-14046D01*
X29332Y-14033D01*
X29369Y-14009D01*
X29612Y-13838D02*
X29612Y-14046D01*
X29600Y-14070D01*
X29588Y-14082D01*
X29564Y-14094D01*
X29527Y-14094D01*
X29503Y-14082D01*
X29612Y-13997D02*
X29588Y-14009D01*
X29539Y-14009D01*
X29515Y-13997D01*
X29503Y-13985D01*
X29491Y-13960D01*
X29491Y-13887D01*
X29503Y-13863D01*
X29515Y-13851D01*
X29539Y-13838D01*
X29588Y-13838D01*
X29612Y-13851D01*
X29734Y-14009D02*
X29734Y-13838D01*
X29734Y-13863D02*
X29746Y-13851D01*
X29771Y-13838D01*
X29807Y-13838D01*
X29832Y-13851D01*
X29844Y-13875D01*
X29844Y-14009D01*
X29844Y-13875D02*
X29856Y-13851D01*
X29880Y-13838D01*
X29917Y-13838D01*
X29941Y-13851D01*
X29954Y-13875D01*
X29954Y-14009D01*
X30185Y-14009D02*
X30185Y-13875D01*
X30173Y-13851D01*
X30149Y-13838D01*
X30100Y-13838D01*
X30075Y-13851D01*
X30185Y-13997D02*
X30161Y-14009D01*
X30100Y-14009D01*
X30075Y-13997D01*
X30063Y-13972D01*
X30063Y-13948D01*
X30075Y-13924D01*
X30100Y-13911D01*
X30161Y-13911D01*
X30185Y-13899D01*
X30307Y-14009D02*
X30307Y-13838D01*
X30307Y-13753D02*
X30295Y-13765D01*
X30307Y-13777D01*
X30319Y-13765D01*
X30307Y-13753D01*
X30307Y-13777D01*
X30465Y-14009D02*
X30441Y-13997D01*
X30429Y-13972D01*
X30429Y-13753D01*
X30563Y-13985D02*
X30575Y-13997D01*
X30563Y-14009D01*
X30551Y-13997D01*
X30563Y-13985D01*
X30563Y-14009D01*
X30794Y-13997D02*
X30770Y-14009D01*
X30721Y-14009D01*
X30697Y-13997D01*
X30685Y-13985D01*
X30673Y-13960D01*
X30673Y-13887D01*
X30685Y-13863D01*
X30697Y-13851D01*
X30721Y-13838D01*
X30770Y-13838D01*
X30794Y-13851D01*
X30941Y-14009D02*
X30916Y-13997D01*
X30904Y-13985D01*
X30892Y-13960D01*
X30892Y-13887D01*
X30904Y-13863D01*
X30916Y-13851D01*
X30941Y-13838D01*
X30977Y-13838D01*
X31002Y-13851D01*
X31014Y-13863D01*
X31026Y-13887D01*
X31026Y-13960D01*
X31014Y-13985D01*
X31002Y-13997D01*
X30977Y-14009D01*
X30941Y-14009D01*
X31136Y-14009D02*
X31136Y-13838D01*
X31136Y-13863D02*
X31148Y-13851D01*
X31172Y-13838D01*
X31209Y-13838D01*
X31233Y-13851D01*
X31245Y-13875D01*
X31245Y-14009D01*
X31245Y-13875D02*
X31257Y-13851D01*
X31282Y-13838D01*
X31318Y-13838D01*
X31343Y-13851D01*
X31355Y-13875D01*
X31355Y-14009D01*
G54D11*
X27952Y-30689D02*
X27952Y-30296D01*
X28102Y-30296D01*
X28140Y-30314D01*
X28158Y-30333D01*
X28177Y-30371D01*
X28177Y-30427D01*
X28158Y-30464D01*
X28140Y-30483D01*
X28102Y-30502D01*
X27952Y-30502D01*
X28402Y-30689D02*
X28365Y-30671D01*
X28346Y-30633D01*
X28346Y-30296D01*
X28721Y-30689D02*
X28721Y-30483D01*
X28702Y-30446D01*
X28665Y-30427D01*
X28590Y-30427D01*
X28552Y-30446D01*
X28721Y-30671D02*
X28683Y-30689D01*
X28590Y-30689D01*
X28552Y-30671D01*
X28533Y-30633D01*
X28533Y-30596D01*
X28552Y-30558D01*
X28590Y-30539D01*
X28683Y-30539D01*
X28721Y-30521D01*
X29077Y-30671D02*
X29040Y-30689D01*
X28965Y-30689D01*
X28927Y-30671D01*
X28908Y-30652D01*
X28890Y-30614D01*
X28890Y-30502D01*
X28908Y-30464D01*
X28927Y-30446D01*
X28965Y-30427D01*
X29040Y-30427D01*
X29077Y-30446D01*
X29415Y-30689D02*
X29415Y-30483D01*
X29396Y-30446D01*
X29358Y-30427D01*
X29283Y-30427D01*
X29246Y-30446D01*
X29415Y-30671D02*
X29377Y-30689D01*
X29283Y-30689D01*
X29246Y-30671D01*
X29227Y-30633D01*
X29227Y-30596D01*
X29246Y-30558D01*
X29283Y-30539D01*
X29377Y-30539D01*
X29415Y-30521D01*
X30071Y-30689D02*
X30071Y-30296D01*
X30071Y-30671D02*
X30033Y-30689D01*
X29958Y-30689D01*
X29921Y-30671D01*
X29902Y-30652D01*
X29883Y-30614D01*
X29883Y-30502D01*
X29902Y-30464D01*
X29921Y-30446D01*
X29958Y-30427D01*
X30033Y-30427D01*
X30071Y-30446D01*
X30408Y-30671D02*
X30371Y-30689D01*
X30296Y-30689D01*
X30258Y-30671D01*
X30239Y-30633D01*
X30239Y-30483D01*
X30258Y-30446D01*
X30296Y-30427D01*
X30371Y-30427D01*
X30408Y-30446D01*
X30427Y-30483D01*
X30427Y-30521D01*
X30239Y-30558D01*
X27455Y-31339D02*
X27455Y-31133D01*
X27437Y-31095D01*
X27399Y-31077D01*
X27324Y-31077D01*
X27287Y-31095D01*
X27455Y-31320D02*
X27418Y-31339D01*
X27324Y-31339D01*
X27287Y-31320D01*
X27268Y-31283D01*
X27268Y-31245D01*
X27287Y-31208D01*
X27324Y-31189D01*
X27418Y-31189D01*
X27455Y-31170D01*
X27812Y-31320D02*
X27774Y-31339D01*
X27699Y-31339D01*
X27662Y-31320D01*
X27643Y-31302D01*
X27624Y-31264D01*
X27624Y-31152D01*
X27643Y-31114D01*
X27662Y-31095D01*
X27699Y-31077D01*
X27774Y-31077D01*
X27812Y-31095D01*
X28149Y-31320D02*
X28112Y-31339D01*
X28037Y-31339D01*
X27999Y-31320D01*
X27980Y-31302D01*
X27962Y-31264D01*
X27962Y-31152D01*
X27980Y-31114D01*
X27999Y-31095D01*
X28037Y-31077D01*
X28112Y-31077D01*
X28149Y-31095D01*
X28318Y-31339D02*
X28318Y-31077D01*
X28318Y-30945D02*
X28299Y-30964D01*
X28318Y-30983D01*
X28337Y-30964D01*
X28318Y-30945D01*
X28318Y-30983D01*
X28562Y-31339D02*
X28524Y-31320D01*
X28505Y-31302D01*
X28487Y-31264D01*
X28487Y-31152D01*
X28505Y-31114D01*
X28524Y-31095D01*
X28562Y-31077D01*
X28618Y-31077D01*
X28655Y-31095D01*
X28674Y-31114D01*
X28693Y-31152D01*
X28693Y-31264D01*
X28674Y-31302D01*
X28655Y-31320D01*
X28618Y-31339D01*
X28562Y-31339D01*
X28862Y-31077D02*
X28862Y-31339D01*
X28862Y-31114D02*
X28880Y-31095D01*
X28918Y-31077D01*
X28974Y-31077D01*
X29011Y-31095D01*
X29030Y-31133D01*
X29030Y-31339D01*
X29386Y-31339D02*
X29386Y-31133D01*
X29368Y-31095D01*
X29330Y-31077D01*
X29255Y-31077D01*
X29218Y-31095D01*
X29386Y-31320D02*
X29349Y-31339D01*
X29255Y-31339D01*
X29218Y-31320D01*
X29199Y-31283D01*
X29199Y-31245D01*
X29218Y-31208D01*
X29255Y-31189D01*
X29349Y-31189D01*
X29386Y-31170D01*
X29574Y-31339D02*
X29574Y-31077D01*
X29574Y-31114D02*
X29593Y-31095D01*
X29630Y-31077D01*
X29686Y-31077D01*
X29724Y-31095D01*
X29743Y-31133D01*
X29743Y-31339D01*
X29743Y-31133D02*
X29761Y-31095D01*
X29799Y-31077D01*
X29855Y-31077D01*
X29893Y-31095D01*
X29911Y-31133D01*
X29911Y-31339D01*
X30099Y-31339D02*
X30099Y-31077D01*
X30099Y-30945D02*
X30080Y-30964D01*
X30099Y-30983D01*
X30118Y-30964D01*
X30099Y-30945D01*
X30099Y-30983D01*
X30436Y-31320D02*
X30399Y-31339D01*
X30324Y-31339D01*
X30286Y-31320D01*
X30268Y-31283D01*
X30268Y-31133D01*
X30286Y-31095D01*
X30324Y-31077D01*
X30399Y-31077D01*
X30436Y-31095D01*
X30455Y-31133D01*
X30455Y-31170D01*
X30268Y-31208D01*
X30624Y-31077D02*
X30624Y-31339D01*
X30624Y-31114D02*
X30643Y-31095D01*
X30680Y-31077D01*
X30736Y-31077D01*
X30774Y-31095D01*
X30793Y-31133D01*
X30793Y-31339D01*
X30924Y-31077D02*
X31074Y-31077D01*
X30980Y-30945D02*
X30980Y-31283D01*
X30999Y-31320D01*
X31036Y-31339D01*
X31074Y-31339D01*
X31261Y-31339D02*
X31224Y-31320D01*
X31205Y-31302D01*
X31186Y-31264D01*
X31186Y-31152D01*
X31205Y-31114D01*
X31224Y-31095D01*
X31261Y-31077D01*
X31317Y-31077D01*
X31355Y-31095D01*
X31374Y-31114D01*
X31392Y-31152D01*
X31392Y-31264D01*
X31374Y-31302D01*
X31355Y-31320D01*
X31317Y-31339D01*
X31261Y-31339D01*
X27774Y-31989D02*
X27774Y-31595D01*
X27774Y-31970D02*
X27737Y-31989D01*
X27662Y-31989D01*
X27624Y-31970D01*
X27605Y-31951D01*
X27587Y-31914D01*
X27587Y-31801D01*
X27605Y-31764D01*
X27624Y-31745D01*
X27662Y-31726D01*
X27737Y-31726D01*
X27774Y-31745D01*
X28112Y-31970D02*
X28074Y-31989D01*
X27999Y-31989D01*
X27962Y-31970D01*
X27943Y-31932D01*
X27943Y-31782D01*
X27962Y-31745D01*
X27999Y-31726D01*
X28074Y-31726D01*
X28112Y-31745D01*
X28130Y-31782D01*
X28130Y-31820D01*
X27943Y-31857D01*
X28655Y-31989D02*
X28618Y-31970D01*
X28599Y-31932D01*
X28599Y-31595D01*
X28974Y-31989D02*
X28974Y-31782D01*
X28955Y-31745D01*
X28918Y-31726D01*
X28843Y-31726D01*
X28805Y-31745D01*
X28974Y-31970D02*
X28937Y-31989D01*
X28843Y-31989D01*
X28805Y-31970D01*
X28787Y-31932D01*
X28787Y-31895D01*
X28805Y-31857D01*
X28843Y-31839D01*
X28937Y-31839D01*
X28974Y-31820D01*
X29461Y-31989D02*
X29461Y-31595D01*
X29461Y-31745D02*
X29499Y-31726D01*
X29574Y-31726D01*
X29611Y-31745D01*
X29630Y-31764D01*
X29649Y-31801D01*
X29649Y-31914D01*
X29630Y-31951D01*
X29611Y-31970D01*
X29574Y-31989D01*
X29499Y-31989D01*
X29461Y-31970D01*
X29986Y-31989D02*
X29986Y-31782D01*
X29968Y-31745D01*
X29930Y-31726D01*
X29855Y-31726D01*
X29818Y-31745D01*
X29986Y-31970D02*
X29949Y-31989D01*
X29855Y-31989D01*
X29818Y-31970D01*
X29799Y-31932D01*
X29799Y-31895D01*
X29818Y-31857D01*
X29855Y-31839D01*
X29949Y-31839D01*
X29986Y-31820D01*
X30230Y-31989D02*
X30193Y-31970D01*
X30174Y-31932D01*
X30174Y-31595D01*
X30380Y-31989D02*
X30380Y-31726D01*
X30380Y-31595D02*
X30361Y-31614D01*
X30380Y-31632D01*
X30399Y-31614D01*
X30380Y-31595D01*
X30380Y-31632D01*
X30530Y-31726D02*
X30736Y-31726D01*
X30530Y-31989D01*
X30736Y-31989D01*
X31055Y-31989D02*
X31055Y-31782D01*
X31036Y-31745D01*
X30999Y-31726D01*
X30924Y-31726D01*
X30886Y-31745D01*
X31055Y-31970D02*
X31017Y-31989D01*
X30924Y-31989D01*
X30886Y-31970D01*
X30868Y-31932D01*
X30868Y-31895D01*
X30886Y-31857D01*
X30924Y-31839D01*
X31017Y-31839D01*
X31055Y-31820D01*
X27654Y-24120D02*
X27635Y-24101D01*
X27617Y-24045D01*
X27617Y-24008D01*
X27635Y-23952D01*
X27673Y-23914D01*
X27710Y-23895D01*
X27785Y-23877D01*
X27842Y-23877D01*
X27917Y-23895D01*
X27954Y-23914D01*
X27992Y-23952D01*
X28010Y-24008D01*
X28010Y-24045D01*
X27992Y-24101D01*
X27973Y-24120D01*
X28010Y-24364D02*
X28010Y-24439D01*
X27992Y-24476D01*
X27954Y-24514D01*
X27879Y-24533D01*
X27748Y-24533D01*
X27673Y-24514D01*
X27635Y-24476D01*
X27617Y-24439D01*
X27617Y-24364D01*
X27635Y-24326D01*
X27673Y-24289D01*
X27748Y-24270D01*
X27879Y-24270D01*
X27954Y-24289D01*
X27992Y-24326D01*
X28010Y-24364D01*
X27617Y-24701D02*
X28010Y-24701D01*
X27729Y-24833D01*
X28010Y-24964D01*
X27617Y-24964D01*
X28010Y-25151D02*
X27692Y-25151D01*
X27654Y-25170D01*
X27635Y-25189D01*
X27617Y-25226D01*
X27617Y-25301D01*
X27635Y-25339D01*
X27654Y-25358D01*
X27692Y-25376D01*
X28010Y-25376D01*
X28160Y-25301D02*
X28104Y-25245D01*
X27617Y-25564D02*
X28010Y-25564D01*
X27617Y-25789D01*
X28010Y-25789D01*
X27932Y-20142D02*
X27538Y-20273D01*
X27932Y-20404D01*
X27744Y-20536D02*
X27744Y-20667D01*
X27538Y-20723D02*
X27538Y-20536D01*
X27932Y-20536D01*
X27932Y-20723D01*
X27538Y-21117D02*
X27725Y-20986D01*
X27538Y-20892D02*
X27932Y-20892D01*
X27932Y-21042D01*
X27913Y-21079D01*
X27894Y-21098D01*
X27857Y-21117D01*
X27800Y-21117D01*
X27763Y-21098D01*
X27744Y-21079D01*
X27725Y-21042D01*
X27725Y-20892D01*
X27538Y-21286D02*
X27932Y-21286D01*
X27932Y-21379D01*
X27913Y-21436D01*
X27875Y-21473D01*
X27838Y-21492D01*
X27763Y-21511D01*
X27707Y-21511D01*
X27632Y-21492D01*
X27594Y-21473D01*
X27557Y-21436D01*
X27538Y-21379D01*
X27538Y-21286D01*
X27744Y-21679D02*
X27744Y-21811D01*
X27538Y-21867D02*
X27538Y-21679D01*
X27932Y-21679D01*
X27932Y-21867D01*
X26824Y-17555D02*
X26824Y-17742D01*
X26711Y-17517D02*
X27105Y-17649D01*
X26711Y-17780D01*
X26711Y-17911D02*
X27105Y-17911D01*
X26824Y-18042D01*
X27105Y-18173D01*
X26711Y-18173D01*
X26824Y-18342D02*
X26824Y-18530D01*
X26711Y-18305D02*
X27105Y-18436D01*
X26711Y-18567D01*
X26711Y-18923D02*
X26899Y-18792D01*
X26711Y-18698D02*
X27105Y-18698D01*
X27105Y-18848D01*
X27086Y-18886D01*
X27067Y-18905D01*
X27030Y-18923D01*
X26974Y-18923D01*
X26936Y-18905D01*
X26917Y-18886D01*
X26899Y-18848D01*
X26899Y-18698D01*
X26711Y-19092D02*
X27105Y-19092D01*
X26711Y-19467D02*
X26711Y-19280D01*
X27105Y-19280D01*
X26711Y-19786D02*
X26711Y-19598D01*
X27105Y-19598D01*
X27105Y-19992D02*
X27105Y-20067D01*
X27086Y-20104D01*
X27049Y-20142D01*
X26974Y-20161D01*
X26842Y-20161D01*
X26767Y-20142D01*
X26730Y-20104D01*
X26711Y-20067D01*
X26711Y-19992D01*
X26730Y-19955D01*
X26767Y-19917D01*
X26842Y-19898D01*
X26974Y-19898D01*
X27049Y-19917D01*
X27086Y-19955D01*
X27105Y-19992D01*
X27656Y-16291D02*
X27844Y-16160D01*
X27656Y-16066D02*
X28050Y-16066D01*
X28050Y-16216D01*
X28031Y-16254D01*
X28012Y-16272D01*
X27975Y-16291D01*
X27919Y-16291D01*
X27881Y-16272D01*
X27862Y-16254D01*
X27844Y-16216D01*
X27844Y-16066D01*
X28050Y-16535D02*
X28050Y-16610D01*
X28031Y-16647D01*
X27994Y-16685D01*
X27919Y-16704D01*
X27787Y-16704D01*
X27712Y-16685D01*
X27675Y-16647D01*
X27656Y-16610D01*
X27656Y-16535D01*
X27675Y-16497D01*
X27712Y-16460D01*
X27787Y-16441D01*
X27919Y-16441D01*
X27994Y-16460D01*
X28031Y-16497D01*
X28050Y-16535D01*
X28050Y-16985D02*
X27769Y-16985D01*
X27712Y-16966D01*
X27675Y-16929D01*
X27656Y-16872D01*
X27656Y-16835D01*
X28050Y-17247D02*
X28050Y-17322D01*
X28031Y-17360D01*
X27994Y-17397D01*
X27919Y-17416D01*
X27787Y-17416D01*
X27712Y-17397D01*
X27675Y-17360D01*
X27656Y-17322D01*
X27656Y-17247D01*
X27675Y-17210D01*
X27712Y-17172D01*
X27787Y-17154D01*
X27919Y-17154D01*
X27994Y-17172D01*
X28031Y-17210D01*
X28050Y-17247D01*
G54D14*
X20039Y-33523D03*
X20039Y-28799D03*
X19251Y-31161D03*
X25157Y-28799D03*
X25157Y-33523D03*
G54D15*
X13877Y-22007D03*
G54D16*
X13877Y-21007D03*
X13877Y-20007D03*
X13877Y-19007D03*
X13877Y-18007D03*
X13877Y-17007D03*
G54D17*
X29783Y-22905D03*
X29783Y-20905D03*
G54D18*
X29783Y-24905D03*
G54D17*
X29783Y-18905D03*
X29783Y-16905D03*
G54D14*
X20039Y-27224D03*
X20039Y-22500D03*
X19251Y-24862D03*
X25157Y-22500D03*
X25157Y-27224D03*
X20000Y-14901D03*
X20000Y-10177D03*
X19212Y-12539D03*
X25118Y-10177D03*
X25118Y-14901D03*
X20039Y-21082D03*
X20039Y-16358D03*
X19251Y-18720D03*
X25157Y-16358D03*
X25157Y-21082D03*
G54D19*
X31181Y-10551D03*
X31259Y-33307D03*
X12834Y-33228D03*
X12755Y-10629D03*
G54D20*
X17480Y-21633D03*
X13976Y-26692D03*
X15196Y-15078D03*
X12992Y-15000D03*
X16023Y-21692D03*
X15925Y-33188D03*
X16811Y-27401D03*
G54D21*
X13877Y-21007D02*
X17287Y-21007D01*
X17287Y-21007D02*
X17480Y-21200D01*
X17480Y-21200D02*
X17480Y-21633D01*
G54D22*
X17480Y-21200D02*
X17480Y-21220D01*
X17480Y-21220D02*
X17480Y-21633D01*
X17287Y-21007D02*
X17480Y-21200D01*
G54D21*
X15925Y-33188D02*
X15826Y-33188D01*
X15826Y-33188D02*
X15078Y-32440D01*
X15078Y-32440D02*
X15078Y-30570D01*
X15078Y-30570D02*
X15787Y-29862D01*
X15787Y-29862D02*
X15787Y-27401D01*
G54D23*
X14685Y-27401D02*
X15787Y-27401D01*
X15787Y-27401D02*
X16811Y-27401D01*
X13976Y-26692D02*
X14685Y-27401D01*
X13070Y-15078D02*
X15196Y-15078D01*
X12992Y-15000D02*
X13070Y-15078D01*
G54D22*
X13877Y-22007D02*
X15708Y-22007D01*
X15708Y-22007D02*
X16023Y-21692D01*
X15767Y-27401D02*
X15767Y-29881D01*
X15767Y-27401D02*
X16811Y-27401D01*
X15767Y-29881D02*
X15078Y-30570D01*
X15078Y-30570D02*
X15078Y-32440D01*
X15078Y-32440D02*
X15826Y-33188D01*
M02*
