M48
;DRILL file {Pcbnew (2013-mar-13)-testing} date Wed 12 Jun 2013 14:10:49 ART
;FORMAT={-:-/ absolute / metric / decimal}
FMAT,2
METRIC,TZ
T1C0.600
T2C0.635
T3C0.813
T4C1.524
T5C3.048
%
G90
G05
M71
T1
X48.8Y-31.85
X48.9Y-47.55
X48.9Y-63.15
X48.9Y-79.15
X50.8Y-25.85
X50.8Y-37.85
X50.9Y-41.55
X50.9Y-53.55
X50.9Y-57.15
X50.9Y-69.15
X50.9Y-73.15
X50.9Y-85.15
X63.8Y-25.85
X63.8Y-37.85
X63.9Y-41.55
X63.9Y-53.55
X63.9Y-57.15
X63.9Y-69.15
X63.9Y-73.15
X63.9Y-85.15
T2
X33.Y-38.1
X34.29Y-40.335
X35.5Y-67.8
X37.592Y-66.853
X38.6Y-38.3
X40.45Y-84.3
X40.7Y-55.1
X42.7Y-69.6
X44.4Y-54.95
T3
X35.25Y-43.2
X35.25Y-45.74
X35.25Y-48.28
X35.25Y-50.82
X35.25Y-53.36
X35.25Y-55.9
T4
X75.65Y-42.94
X75.65Y-48.02
X75.65Y-53.1
X75.65Y-58.18
X75.65Y-63.26
T5
X32.4Y-27.
X32.6Y-84.4
X79.2Y-26.8
X79.4Y-84.6
T0
M30
