M48
;DRILL file {Pcbnew (2013-mar-13)-testing} date Wed 12 Jun 2013 15:13:38 ART
;FORMAT={-:-/ absolute / metric / decimal}
FMAT,2
METRIC,TZ
T1C0.813
T2C0.813
T3C1.001
T4C1.100
T5C1.524
T6C3.000
T7C3.048
T8C6.096
%
G90
G05
M71
T1
X79.451Y-111.95
X79.451Y-122.11
X154.94Y-132.715
X165.1Y-132.715
T2
X119.38Y-132.715
X129.54Y-132.715
X134.62Y-132.715
X144.78Y-132.715
T3
X143.297Y-99.72
X172.507Y-99.72
T4
X117.342Y-90.641
X123.342Y-107.641
X134.342Y-90.641
X134.342Y-107.641
T5
X126.746Y-138.557
X131.826Y-138.557
X136.906Y-138.557
T6
X179.764Y-99.72
X187.764Y-99.72
X205.764Y-99.72
X213.764Y-99.72
T7
X72.39Y-53.721
X72.39Y-144.399
X79.162Y-64.668
X79.273Y-101.282
X91.75Y-60.375
X172.72Y-132.715
X221.075Y-73.975
X223.52Y-53.975
X223.52Y-147.955
T8
X110.404Y-65.113
X140.376Y-65.113
X175.491Y-64.922
X205.463Y-64.922
T0
M30
