G04 (created by PCBNEW (2013-mar-13)-testing) date Wed 12 Jun 2013 15:13:35 ART*
%MOIN*%
G04 Gerber Fmt 3.4, Leading zero omitted, Abs format*
%FSLAX34Y34*%
G01*
G70*
G90*
G04 APERTURE LIST*
%ADD10C,0.005000*%
%ADD11C,0.015000*%
%ADD12C,0.007874*%
%ADD13C,0.011811*%
G04 APERTURE END LIST*
G54D10*
G54D11*
X90000Y-19250D02*
X90000Y-20250D01*
X27000Y-19250D02*
X90000Y-19250D01*
X27000Y-60250D02*
X27000Y-19250D01*
X90000Y-60250D02*
X27000Y-60250D01*
X90000Y-20250D02*
X90000Y-60250D01*
G54D12*
X31120Y-43915D02*
X31439Y-44234D01*
X31439Y-43915D02*
X31120Y-44234D01*
X31120Y-47915D02*
X31439Y-48234D01*
X31439Y-47915D02*
X31120Y-48234D01*
X60840Y-52090D02*
X61159Y-52409D01*
X61159Y-52090D02*
X60840Y-52409D01*
X64840Y-52090D02*
X65159Y-52409D01*
X65159Y-52090D02*
X64840Y-52409D01*
X47160Y-52250D02*
G75*
G03X47160Y-52250I-160J0D01*
G74*
G01*
X51160Y-52250D02*
G75*
G03X51160Y-52250I-160J0D01*
G74*
G01*
X53160Y-52250D02*
G75*
G03X53160Y-52250I-160J0D01*
G74*
G01*
X57160Y-52250D02*
G75*
G03X57160Y-52250I-160J0D01*
G74*
G01*
X56416Y-39063D02*
X56416Y-39457D01*
X56219Y-39260D02*
X56613Y-39260D01*
X67916Y-39063D02*
X67916Y-39457D01*
X67719Y-39260D02*
X68113Y-39260D01*
X46350Y-35838D02*
X46350Y-35532D01*
X46044Y-35532D01*
X46044Y-35838D01*
X46350Y-35838D01*
X48713Y-42531D02*
X48713Y-42225D01*
X48406Y-42225D01*
X48406Y-42531D01*
X48713Y-42531D01*
X53043Y-35838D02*
X53043Y-35532D01*
X52737Y-35532D01*
X52737Y-35838D01*
X53043Y-35838D01*
X53043Y-42531D02*
X53043Y-42225D01*
X52737Y-42225D01*
X52737Y-42531D01*
X53043Y-42531D01*
X49900Y-54850D02*
X50200Y-54550D01*
X49900Y-54250D01*
X49600Y-54550D01*
X49900Y-54850D01*
X51900Y-54850D02*
X52200Y-54550D01*
X51900Y-54250D01*
X51600Y-54550D01*
X51900Y-54850D01*
X53900Y-54850D02*
X54200Y-54550D01*
X53900Y-54250D01*
X53600Y-54550D01*
X53900Y-54850D01*
X70182Y-38669D02*
X71363Y-39850D01*
X71363Y-38669D02*
X70182Y-39850D01*
X71363Y-39260D02*
G75*
G03X71363Y-39260I-590J0D01*
G74*
G01*
X73332Y-38669D02*
X74513Y-39850D01*
X74513Y-38669D02*
X73332Y-39850D01*
X74513Y-39260D02*
G75*
G03X74513Y-39260I-590J0D01*
G74*
G01*
X80418Y-38669D02*
X81599Y-39850D01*
X81599Y-38669D02*
X80418Y-39850D01*
X81599Y-39260D02*
G75*
G03X81599Y-39260I-590J0D01*
G74*
G01*
X83568Y-38669D02*
X84749Y-39850D01*
X84749Y-38669D02*
X83568Y-39850D01*
X84749Y-39260D02*
G75*
G03X84749Y-39260I-590J0D01*
G74*
G01*
X27900Y-20550D02*
X29100Y-21750D01*
X29100Y-20550D02*
X27900Y-21750D01*
X28500Y-20550D02*
X28500Y-21750D01*
X27900Y-21150D02*
X29100Y-21150D01*
X27900Y-56250D02*
X29100Y-57450D01*
X29100Y-56250D02*
X27900Y-57450D01*
X28500Y-56250D02*
X28500Y-57450D01*
X27900Y-56850D02*
X29100Y-56850D01*
X30566Y-24860D02*
X31766Y-26060D01*
X31766Y-24860D02*
X30566Y-26060D01*
X31166Y-24860D02*
X31166Y-26060D01*
X30566Y-25460D02*
X31766Y-25460D01*
X30610Y-39275D02*
X31810Y-40475D01*
X31810Y-39275D02*
X30610Y-40475D01*
X31210Y-39275D02*
X31210Y-40475D01*
X30610Y-39875D02*
X31810Y-39875D01*
X35522Y-23169D02*
X36722Y-24369D01*
X36722Y-23169D02*
X35522Y-24369D01*
X36122Y-23169D02*
X36122Y-24369D01*
X35522Y-23769D02*
X36722Y-23769D01*
X67400Y-51650D02*
X68600Y-52850D01*
X68600Y-51650D02*
X67400Y-52850D01*
X68000Y-51650D02*
X68000Y-52850D01*
X67400Y-52250D02*
X68600Y-52250D01*
X86437Y-28524D02*
X87637Y-29724D01*
X87637Y-28524D02*
X86437Y-29724D01*
X87037Y-28524D02*
X87037Y-29724D01*
X86437Y-29124D02*
X87637Y-29124D01*
X87400Y-20650D02*
X88600Y-21850D01*
X88600Y-20650D02*
X87400Y-21850D01*
X88000Y-20650D02*
X88000Y-21850D01*
X87400Y-21250D02*
X88600Y-21250D01*
X87400Y-57650D02*
X88600Y-58850D01*
X88600Y-57650D02*
X87400Y-58850D01*
X88000Y-57650D02*
X88000Y-58850D01*
X87400Y-58250D02*
X88600Y-58250D01*
X42266Y-24435D02*
X44666Y-26835D01*
X44666Y-24435D02*
X42266Y-26835D01*
X44314Y-26483D02*
X44314Y-24786D01*
X42617Y-24786D01*
X42617Y-26483D01*
X44314Y-26483D01*
X54066Y-24435D02*
X56466Y-26835D01*
X56466Y-24435D02*
X54066Y-26835D01*
X56114Y-26483D02*
X56114Y-24786D01*
X54417Y-24786D01*
X54417Y-26483D01*
X56114Y-26483D01*
X67891Y-24360D02*
X70291Y-26760D01*
X70291Y-24360D02*
X67891Y-26760D01*
X69939Y-26408D02*
X69939Y-24711D01*
X68242Y-24711D01*
X68242Y-26408D01*
X69939Y-26408D01*
X79691Y-24360D02*
X82091Y-26760D01*
X82091Y-24360D02*
X79691Y-26760D01*
X81739Y-26408D02*
X81739Y-24711D01*
X80042Y-24711D01*
X80042Y-26408D01*
X81739Y-26408D01*
G54D13*
X27993Y-62158D02*
X27993Y-60977D01*
X28274Y-60977D01*
X28443Y-61033D01*
X28556Y-61146D01*
X28612Y-61258D01*
X28668Y-61483D01*
X28668Y-61652D01*
X28612Y-61877D01*
X28556Y-61989D01*
X28443Y-62102D01*
X28274Y-62158D01*
X27993Y-62158D01*
X29174Y-62158D02*
X29174Y-61371D01*
X29174Y-61596D02*
X29230Y-61483D01*
X29287Y-61427D01*
X29399Y-61371D01*
X29512Y-61371D01*
X29905Y-62158D02*
X29905Y-61371D01*
X29905Y-60977D02*
X29849Y-61033D01*
X29905Y-61089D01*
X29962Y-61033D01*
X29905Y-60977D01*
X29905Y-61089D01*
X30637Y-62158D02*
X30524Y-62102D01*
X30468Y-61989D01*
X30468Y-60977D01*
X31255Y-62158D02*
X31143Y-62102D01*
X31086Y-61989D01*
X31086Y-60977D01*
X32605Y-62158D02*
X32605Y-60977D01*
X32999Y-61821D01*
X33392Y-60977D01*
X33392Y-62158D01*
X34461Y-62158D02*
X34461Y-61539D01*
X34405Y-61427D01*
X34292Y-61371D01*
X34067Y-61371D01*
X33955Y-61427D01*
X34461Y-62102D02*
X34349Y-62158D01*
X34067Y-62158D01*
X33955Y-62102D01*
X33899Y-61989D01*
X33899Y-61877D01*
X33955Y-61764D01*
X34067Y-61708D01*
X34349Y-61708D01*
X34461Y-61652D01*
X35023Y-61371D02*
X35023Y-62552D01*
X35023Y-61427D02*
X35136Y-61371D01*
X35361Y-61371D01*
X35473Y-61427D01*
X35530Y-61483D01*
X35586Y-61596D01*
X35586Y-61933D01*
X35530Y-62046D01*
X35473Y-62102D01*
X35361Y-62158D01*
X35136Y-62158D01*
X35023Y-62102D01*
X36092Y-62046D02*
X36148Y-62102D01*
X36092Y-62158D01*
X36036Y-62102D01*
X36092Y-62046D01*
X36092Y-62158D01*
X36092Y-61427D02*
X36148Y-61483D01*
X36092Y-61539D01*
X36036Y-61483D01*
X36092Y-61427D01*
X36092Y-61539D01*
X26605Y-63944D02*
X26924Y-64264D01*
X26924Y-63944D02*
X26605Y-64264D01*
X28218Y-63457D02*
X28331Y-63457D01*
X28443Y-63513D01*
X28499Y-63570D01*
X28556Y-63682D01*
X28612Y-63907D01*
X28612Y-64188D01*
X28556Y-64413D01*
X28499Y-64526D01*
X28443Y-64582D01*
X28331Y-64638D01*
X28218Y-64638D01*
X28106Y-64582D01*
X28049Y-64526D01*
X27993Y-64413D01*
X27937Y-64188D01*
X27937Y-63907D01*
X27993Y-63682D01*
X28049Y-63570D01*
X28106Y-63513D01*
X28218Y-63457D01*
X29118Y-64526D02*
X29174Y-64582D01*
X29118Y-64638D01*
X29062Y-64582D01*
X29118Y-64526D01*
X29118Y-64638D01*
X29849Y-63963D02*
X29737Y-63907D01*
X29680Y-63851D01*
X29624Y-63738D01*
X29624Y-63682D01*
X29680Y-63570D01*
X29737Y-63513D01*
X29849Y-63457D01*
X30074Y-63457D01*
X30187Y-63513D01*
X30243Y-63570D01*
X30299Y-63682D01*
X30299Y-63738D01*
X30243Y-63851D01*
X30187Y-63907D01*
X30074Y-63963D01*
X29849Y-63963D01*
X29737Y-64020D01*
X29680Y-64076D01*
X29624Y-64188D01*
X29624Y-64413D01*
X29680Y-64526D01*
X29737Y-64582D01*
X29849Y-64638D01*
X30074Y-64638D01*
X30187Y-64582D01*
X30243Y-64526D01*
X30299Y-64413D01*
X30299Y-64188D01*
X30243Y-64076D01*
X30187Y-64020D01*
X30074Y-63963D01*
X31424Y-64638D02*
X30749Y-64638D01*
X31086Y-64638D02*
X31086Y-63457D01*
X30974Y-63626D01*
X30862Y-63738D01*
X30749Y-63795D01*
X31930Y-64638D02*
X31930Y-63851D01*
X31930Y-63963D02*
X31986Y-63907D01*
X32099Y-63851D01*
X32268Y-63851D01*
X32380Y-63907D01*
X32436Y-64020D01*
X32436Y-64638D01*
X32436Y-64020D02*
X32493Y-63907D01*
X32605Y-63851D01*
X32774Y-63851D01*
X32886Y-63907D01*
X32942Y-64020D01*
X32942Y-64638D01*
X33505Y-64638D02*
X33505Y-63851D01*
X33505Y-63963D02*
X33561Y-63907D01*
X33674Y-63851D01*
X33842Y-63851D01*
X33955Y-63907D01*
X34011Y-64020D01*
X34011Y-64638D01*
X34011Y-64020D02*
X34067Y-63907D01*
X34180Y-63851D01*
X34349Y-63851D01*
X34461Y-63907D01*
X34517Y-64020D01*
X34517Y-64638D01*
X36823Y-63401D02*
X35811Y-64920D01*
X38342Y-63457D02*
X38454Y-63457D01*
X38567Y-63513D01*
X38623Y-63570D01*
X38679Y-63682D01*
X38736Y-63907D01*
X38736Y-64188D01*
X38679Y-64413D01*
X38623Y-64526D01*
X38567Y-64582D01*
X38454Y-64638D01*
X38342Y-64638D01*
X38229Y-64582D01*
X38173Y-64526D01*
X38117Y-64413D01*
X38061Y-64188D01*
X38061Y-63907D01*
X38117Y-63682D01*
X38173Y-63570D01*
X38229Y-63513D01*
X38342Y-63457D01*
X39242Y-64526D02*
X39298Y-64582D01*
X39242Y-64638D01*
X39185Y-64582D01*
X39242Y-64526D01*
X39242Y-64638D01*
X40029Y-63457D02*
X40142Y-63457D01*
X40254Y-63513D01*
X40310Y-63570D01*
X40367Y-63682D01*
X40423Y-63907D01*
X40423Y-64188D01*
X40367Y-64413D01*
X40310Y-64526D01*
X40254Y-64582D01*
X40142Y-64638D01*
X40029Y-64638D01*
X39917Y-64582D01*
X39860Y-64526D01*
X39804Y-64413D01*
X39748Y-64188D01*
X39748Y-63907D01*
X39804Y-63682D01*
X39860Y-63570D01*
X39917Y-63513D01*
X40029Y-63457D01*
X40817Y-63457D02*
X41548Y-63457D01*
X41154Y-63907D01*
X41323Y-63907D01*
X41435Y-63963D01*
X41491Y-64020D01*
X41548Y-64132D01*
X41548Y-64413D01*
X41491Y-64526D01*
X41435Y-64582D01*
X41323Y-64638D01*
X40985Y-64638D01*
X40873Y-64582D01*
X40817Y-64526D01*
X41998Y-63570D02*
X42054Y-63513D01*
X42166Y-63457D01*
X42448Y-63457D01*
X42560Y-63513D01*
X42616Y-63570D01*
X42673Y-63682D01*
X42673Y-63795D01*
X42616Y-63963D01*
X41941Y-64638D01*
X42673Y-64638D01*
X43122Y-63457D02*
X43122Y-63682D01*
X43572Y-63457D02*
X43572Y-63682D01*
X45316Y-65088D02*
X45260Y-65032D01*
X45147Y-64863D01*
X45091Y-64751D01*
X45035Y-64582D01*
X44978Y-64301D01*
X44978Y-64076D01*
X45035Y-63795D01*
X45091Y-63626D01*
X45147Y-63513D01*
X45260Y-63345D01*
X45316Y-63289D01*
X46272Y-63851D02*
X46272Y-64638D01*
X45991Y-63401D02*
X45710Y-64245D01*
X46441Y-64245D01*
X47791Y-64638D02*
X47791Y-63457D01*
X48297Y-64638D02*
X48297Y-64020D01*
X48241Y-63907D01*
X48128Y-63851D01*
X47959Y-63851D01*
X47847Y-63907D01*
X47791Y-63963D01*
X49028Y-64638D02*
X48916Y-64582D01*
X48859Y-64526D01*
X48803Y-64413D01*
X48803Y-64076D01*
X48859Y-63963D01*
X48916Y-63907D01*
X49028Y-63851D01*
X49197Y-63851D01*
X49309Y-63907D01*
X49365Y-63963D01*
X49422Y-64076D01*
X49422Y-64413D01*
X49365Y-64526D01*
X49309Y-64582D01*
X49197Y-64638D01*
X49028Y-64638D01*
X50097Y-64638D02*
X49984Y-64582D01*
X49928Y-64470D01*
X49928Y-63457D01*
X50996Y-64582D02*
X50884Y-64638D01*
X50659Y-64638D01*
X50547Y-64582D01*
X50490Y-64470D01*
X50490Y-64020D01*
X50547Y-63907D01*
X50659Y-63851D01*
X50884Y-63851D01*
X50996Y-63907D01*
X51053Y-64020D01*
X51053Y-64132D01*
X50490Y-64245D01*
X51503Y-64582D02*
X51615Y-64638D01*
X51840Y-64638D01*
X51953Y-64582D01*
X52009Y-64470D01*
X52009Y-64413D01*
X51953Y-64301D01*
X51840Y-64245D01*
X51671Y-64245D01*
X51559Y-64188D01*
X51503Y-64076D01*
X51503Y-64020D01*
X51559Y-63907D01*
X51671Y-63851D01*
X51840Y-63851D01*
X51953Y-63907D01*
X52403Y-65088D02*
X52459Y-65032D01*
X52571Y-64863D01*
X52628Y-64751D01*
X52684Y-64582D01*
X52740Y-64301D01*
X52740Y-64076D01*
X52684Y-63795D01*
X52628Y-63626D01*
X52571Y-63513D01*
X52459Y-63345D01*
X52403Y-63289D01*
G54D12*
X26924Y-65663D02*
G75*
G03X26924Y-65663I-160J0D01*
G74*
G01*
G54D13*
X28218Y-65016D02*
X28331Y-65016D01*
X28443Y-65073D01*
X28499Y-65129D01*
X28556Y-65241D01*
X28612Y-65466D01*
X28612Y-65747D01*
X28556Y-65972D01*
X28499Y-66085D01*
X28443Y-66141D01*
X28331Y-66197D01*
X28218Y-66197D01*
X28106Y-66141D01*
X28049Y-66085D01*
X27993Y-65972D01*
X27937Y-65747D01*
X27937Y-65466D01*
X27993Y-65241D01*
X28049Y-65129D01*
X28106Y-65073D01*
X28218Y-65016D01*
X29118Y-66085D02*
X29174Y-66141D01*
X29118Y-66197D01*
X29062Y-66141D01*
X29118Y-66085D01*
X29118Y-66197D01*
X29849Y-65522D02*
X29737Y-65466D01*
X29680Y-65410D01*
X29624Y-65298D01*
X29624Y-65241D01*
X29680Y-65129D01*
X29737Y-65073D01*
X29849Y-65016D01*
X30074Y-65016D01*
X30187Y-65073D01*
X30243Y-65129D01*
X30299Y-65241D01*
X30299Y-65298D01*
X30243Y-65410D01*
X30187Y-65466D01*
X30074Y-65522D01*
X29849Y-65522D01*
X29737Y-65579D01*
X29680Y-65635D01*
X29624Y-65747D01*
X29624Y-65972D01*
X29680Y-66085D01*
X29737Y-66141D01*
X29849Y-66197D01*
X30074Y-66197D01*
X30187Y-66141D01*
X30243Y-66085D01*
X30299Y-65972D01*
X30299Y-65747D01*
X30243Y-65635D01*
X30187Y-65579D01*
X30074Y-65522D01*
X31424Y-66197D02*
X30749Y-66197D01*
X31086Y-66197D02*
X31086Y-65016D01*
X30974Y-65185D01*
X30862Y-65298D01*
X30749Y-65354D01*
X31930Y-66197D02*
X31930Y-65410D01*
X31930Y-65522D02*
X31986Y-65466D01*
X32099Y-65410D01*
X32268Y-65410D01*
X32380Y-65466D01*
X32436Y-65579D01*
X32436Y-66197D01*
X32436Y-65579D02*
X32493Y-65466D01*
X32605Y-65410D01*
X32774Y-65410D01*
X32886Y-65466D01*
X32942Y-65579D01*
X32942Y-66197D01*
X33505Y-66197D02*
X33505Y-65410D01*
X33505Y-65522D02*
X33561Y-65466D01*
X33674Y-65410D01*
X33842Y-65410D01*
X33955Y-65466D01*
X34011Y-65579D01*
X34011Y-66197D01*
X34011Y-65579D02*
X34067Y-65466D01*
X34180Y-65410D01*
X34349Y-65410D01*
X34461Y-65466D01*
X34517Y-65579D01*
X34517Y-66197D01*
X36823Y-64960D02*
X35811Y-66479D01*
X38342Y-65016D02*
X38454Y-65016D01*
X38567Y-65073D01*
X38623Y-65129D01*
X38679Y-65241D01*
X38736Y-65466D01*
X38736Y-65747D01*
X38679Y-65972D01*
X38623Y-66085D01*
X38567Y-66141D01*
X38454Y-66197D01*
X38342Y-66197D01*
X38229Y-66141D01*
X38173Y-66085D01*
X38117Y-65972D01*
X38061Y-65747D01*
X38061Y-65466D01*
X38117Y-65241D01*
X38173Y-65129D01*
X38229Y-65073D01*
X38342Y-65016D01*
X39242Y-66085D02*
X39298Y-66141D01*
X39242Y-66197D01*
X39185Y-66141D01*
X39242Y-66085D01*
X39242Y-66197D01*
X40029Y-65016D02*
X40142Y-65016D01*
X40254Y-65073D01*
X40310Y-65129D01*
X40367Y-65241D01*
X40423Y-65466D01*
X40423Y-65747D01*
X40367Y-65972D01*
X40310Y-66085D01*
X40254Y-66141D01*
X40142Y-66197D01*
X40029Y-66197D01*
X39917Y-66141D01*
X39860Y-66085D01*
X39804Y-65972D01*
X39748Y-65747D01*
X39748Y-65466D01*
X39804Y-65241D01*
X39860Y-65129D01*
X39917Y-65073D01*
X40029Y-65016D01*
X40817Y-65016D02*
X41548Y-65016D01*
X41154Y-65466D01*
X41323Y-65466D01*
X41435Y-65522D01*
X41491Y-65579D01*
X41548Y-65691D01*
X41548Y-65972D01*
X41491Y-66085D01*
X41435Y-66141D01*
X41323Y-66197D01*
X40985Y-66197D01*
X40873Y-66141D01*
X40817Y-66085D01*
X41998Y-65129D02*
X42054Y-65073D01*
X42166Y-65016D01*
X42448Y-65016D01*
X42560Y-65073D01*
X42616Y-65129D01*
X42673Y-65241D01*
X42673Y-65354D01*
X42616Y-65522D01*
X41941Y-66197D01*
X42673Y-66197D01*
X43122Y-65016D02*
X43122Y-65241D01*
X43572Y-65016D02*
X43572Y-65241D01*
X45316Y-66647D02*
X45260Y-66591D01*
X45147Y-66422D01*
X45091Y-66310D01*
X45035Y-66141D01*
X44978Y-65860D01*
X44978Y-65635D01*
X45035Y-65354D01*
X45091Y-65185D01*
X45147Y-65073D01*
X45260Y-64904D01*
X45316Y-64848D01*
X46272Y-65410D02*
X46272Y-66197D01*
X45991Y-64960D02*
X45710Y-65804D01*
X46441Y-65804D01*
X47791Y-66197D02*
X47791Y-65016D01*
X48297Y-66197D02*
X48297Y-65579D01*
X48241Y-65466D01*
X48128Y-65410D01*
X47959Y-65410D01*
X47847Y-65466D01*
X47791Y-65522D01*
X49028Y-66197D02*
X48916Y-66141D01*
X48859Y-66085D01*
X48803Y-65972D01*
X48803Y-65635D01*
X48859Y-65522D01*
X48916Y-65466D01*
X49028Y-65410D01*
X49197Y-65410D01*
X49309Y-65466D01*
X49365Y-65522D01*
X49422Y-65635D01*
X49422Y-65972D01*
X49365Y-66085D01*
X49309Y-66141D01*
X49197Y-66197D01*
X49028Y-66197D01*
X50097Y-66197D02*
X49984Y-66141D01*
X49928Y-66029D01*
X49928Y-65016D01*
X50996Y-66141D02*
X50884Y-66197D01*
X50659Y-66197D01*
X50547Y-66141D01*
X50490Y-66029D01*
X50490Y-65579D01*
X50547Y-65466D01*
X50659Y-65410D01*
X50884Y-65410D01*
X50996Y-65466D01*
X51053Y-65579D01*
X51053Y-65691D01*
X50490Y-65804D01*
X51503Y-66141D02*
X51615Y-66197D01*
X51840Y-66197D01*
X51953Y-66141D01*
X52009Y-66029D01*
X52009Y-65972D01*
X51953Y-65860D01*
X51840Y-65804D01*
X51671Y-65804D01*
X51559Y-65747D01*
X51503Y-65635D01*
X51503Y-65579D01*
X51559Y-65466D01*
X51671Y-65410D01*
X51840Y-65410D01*
X51953Y-65466D01*
X52403Y-66647D02*
X52459Y-66591D01*
X52571Y-66422D01*
X52628Y-66310D01*
X52684Y-66141D01*
X52740Y-65860D01*
X52740Y-65635D01*
X52684Y-65354D01*
X52628Y-65185D01*
X52571Y-65073D01*
X52459Y-64904D01*
X52403Y-64848D01*
X26727Y-67025D02*
X26727Y-67419D01*
X26530Y-67222D02*
X26924Y-67222D01*
X28612Y-67756D02*
X27937Y-67756D01*
X28274Y-67756D02*
X28274Y-66575D01*
X28162Y-66744D01*
X28049Y-66857D01*
X27937Y-66913D01*
X29118Y-67644D02*
X29174Y-67700D01*
X29118Y-67756D01*
X29062Y-67700D01*
X29118Y-67644D01*
X29118Y-67756D01*
X29905Y-66575D02*
X30018Y-66575D01*
X30130Y-66632D01*
X30187Y-66688D01*
X30243Y-66800D01*
X30299Y-67025D01*
X30299Y-67307D01*
X30243Y-67531D01*
X30187Y-67644D01*
X30130Y-67700D01*
X30018Y-67756D01*
X29905Y-67756D01*
X29793Y-67700D01*
X29737Y-67644D01*
X29680Y-67531D01*
X29624Y-67307D01*
X29624Y-67025D01*
X29680Y-66800D01*
X29737Y-66688D01*
X29793Y-66632D01*
X29905Y-66575D01*
X31030Y-66575D02*
X31143Y-66575D01*
X31255Y-66632D01*
X31311Y-66688D01*
X31368Y-66800D01*
X31424Y-67025D01*
X31424Y-67307D01*
X31368Y-67531D01*
X31311Y-67644D01*
X31255Y-67700D01*
X31143Y-67756D01*
X31030Y-67756D01*
X30918Y-67700D01*
X30862Y-67644D01*
X30805Y-67531D01*
X30749Y-67307D01*
X30749Y-67025D01*
X30805Y-66800D01*
X30862Y-66688D01*
X30918Y-66632D01*
X31030Y-66575D01*
X31930Y-67756D02*
X31930Y-66969D01*
X31930Y-67082D02*
X31986Y-67025D01*
X32099Y-66969D01*
X32268Y-66969D01*
X32380Y-67025D01*
X32436Y-67138D01*
X32436Y-67756D01*
X32436Y-67138D02*
X32493Y-67025D01*
X32605Y-66969D01*
X32774Y-66969D01*
X32886Y-67025D01*
X32942Y-67138D01*
X32942Y-67756D01*
X33505Y-67756D02*
X33505Y-66969D01*
X33505Y-67082D02*
X33561Y-67025D01*
X33674Y-66969D01*
X33842Y-66969D01*
X33955Y-67025D01*
X34011Y-67138D01*
X34011Y-67756D01*
X34011Y-67138D02*
X34067Y-67025D01*
X34180Y-66969D01*
X34349Y-66969D01*
X34461Y-67025D01*
X34517Y-67138D01*
X34517Y-67756D01*
X36823Y-66519D02*
X35811Y-68038D01*
X38342Y-66575D02*
X38454Y-66575D01*
X38567Y-66632D01*
X38623Y-66688D01*
X38679Y-66800D01*
X38736Y-67025D01*
X38736Y-67307D01*
X38679Y-67531D01*
X38623Y-67644D01*
X38567Y-67700D01*
X38454Y-67756D01*
X38342Y-67756D01*
X38229Y-67700D01*
X38173Y-67644D01*
X38117Y-67531D01*
X38061Y-67307D01*
X38061Y-67025D01*
X38117Y-66800D01*
X38173Y-66688D01*
X38229Y-66632D01*
X38342Y-66575D01*
X39242Y-67644D02*
X39298Y-67700D01*
X39242Y-67756D01*
X39185Y-67700D01*
X39242Y-67644D01*
X39242Y-67756D01*
X40029Y-66575D02*
X40142Y-66575D01*
X40254Y-66632D01*
X40310Y-66688D01*
X40367Y-66800D01*
X40423Y-67025D01*
X40423Y-67307D01*
X40367Y-67531D01*
X40310Y-67644D01*
X40254Y-67700D01*
X40142Y-67756D01*
X40029Y-67756D01*
X39917Y-67700D01*
X39860Y-67644D01*
X39804Y-67531D01*
X39748Y-67307D01*
X39748Y-67025D01*
X39804Y-66800D01*
X39860Y-66688D01*
X39917Y-66632D01*
X40029Y-66575D01*
X40817Y-66575D02*
X41548Y-66575D01*
X41154Y-67025D01*
X41323Y-67025D01*
X41435Y-67082D01*
X41491Y-67138D01*
X41548Y-67250D01*
X41548Y-67531D01*
X41491Y-67644D01*
X41435Y-67700D01*
X41323Y-67756D01*
X40985Y-67756D01*
X40873Y-67700D01*
X40817Y-67644D01*
X42110Y-67756D02*
X42335Y-67756D01*
X42448Y-67700D01*
X42504Y-67644D01*
X42616Y-67475D01*
X42673Y-67250D01*
X42673Y-66800D01*
X42616Y-66688D01*
X42560Y-66632D01*
X42448Y-66575D01*
X42223Y-66575D01*
X42110Y-66632D01*
X42054Y-66688D01*
X41998Y-66800D01*
X41998Y-67082D01*
X42054Y-67194D01*
X42110Y-67250D01*
X42223Y-67307D01*
X42448Y-67307D01*
X42560Y-67250D01*
X42616Y-67194D01*
X42673Y-67082D01*
X43122Y-66575D02*
X43122Y-66800D01*
X43572Y-66575D02*
X43572Y-66800D01*
X45316Y-68206D02*
X45260Y-68150D01*
X45147Y-67981D01*
X45091Y-67869D01*
X45035Y-67700D01*
X44978Y-67419D01*
X44978Y-67194D01*
X45035Y-66913D01*
X45091Y-66744D01*
X45147Y-66632D01*
X45260Y-66463D01*
X45316Y-66407D01*
X45710Y-66688D02*
X45766Y-66632D01*
X45878Y-66575D01*
X46160Y-66575D01*
X46272Y-66632D01*
X46328Y-66688D01*
X46385Y-66800D01*
X46385Y-66913D01*
X46328Y-67082D01*
X45653Y-67756D01*
X46385Y-67756D01*
X47791Y-67756D02*
X47791Y-66575D01*
X48297Y-67756D02*
X48297Y-67138D01*
X48241Y-67025D01*
X48128Y-66969D01*
X47959Y-66969D01*
X47847Y-67025D01*
X47791Y-67082D01*
X49028Y-67756D02*
X48916Y-67700D01*
X48859Y-67644D01*
X48803Y-67531D01*
X48803Y-67194D01*
X48859Y-67082D01*
X48916Y-67025D01*
X49028Y-66969D01*
X49197Y-66969D01*
X49309Y-67025D01*
X49365Y-67082D01*
X49422Y-67194D01*
X49422Y-67531D01*
X49365Y-67644D01*
X49309Y-67700D01*
X49197Y-67756D01*
X49028Y-67756D01*
X50097Y-67756D02*
X49984Y-67700D01*
X49928Y-67588D01*
X49928Y-66575D01*
X50996Y-67700D02*
X50884Y-67756D01*
X50659Y-67756D01*
X50547Y-67700D01*
X50490Y-67588D01*
X50490Y-67138D01*
X50547Y-67025D01*
X50659Y-66969D01*
X50884Y-66969D01*
X50996Y-67025D01*
X51053Y-67138D01*
X51053Y-67250D01*
X50490Y-67363D01*
X51503Y-67700D02*
X51615Y-67756D01*
X51840Y-67756D01*
X51953Y-67700D01*
X52009Y-67588D01*
X52009Y-67531D01*
X51953Y-67419D01*
X51840Y-67363D01*
X51671Y-67363D01*
X51559Y-67307D01*
X51503Y-67194D01*
X51503Y-67138D01*
X51559Y-67025D01*
X51671Y-66969D01*
X51840Y-66969D01*
X51953Y-67025D01*
X52403Y-68206D02*
X52459Y-68150D01*
X52571Y-67981D01*
X52628Y-67869D01*
X52684Y-67700D01*
X52740Y-67419D01*
X52740Y-67194D01*
X52684Y-66913D01*
X52628Y-66744D01*
X52571Y-66632D01*
X52459Y-66463D01*
X52403Y-66407D01*
G54D12*
X26861Y-68934D02*
X26861Y-68628D01*
X26555Y-68628D01*
X26555Y-68934D01*
X26861Y-68934D01*
G54D13*
X28612Y-69316D02*
X27937Y-69316D01*
X28274Y-69316D02*
X28274Y-68134D01*
X28162Y-68303D01*
X28049Y-68416D01*
X27937Y-68472D01*
X29118Y-69203D02*
X29174Y-69259D01*
X29118Y-69316D01*
X29062Y-69259D01*
X29118Y-69203D01*
X29118Y-69316D01*
X30299Y-69316D02*
X29624Y-69316D01*
X29962Y-69316D02*
X29962Y-68134D01*
X29849Y-68303D01*
X29737Y-68416D01*
X29624Y-68472D01*
X31030Y-68134D02*
X31143Y-68134D01*
X31255Y-68191D01*
X31311Y-68247D01*
X31368Y-68359D01*
X31424Y-68584D01*
X31424Y-68866D01*
X31368Y-69091D01*
X31311Y-69203D01*
X31255Y-69259D01*
X31143Y-69316D01*
X31030Y-69316D01*
X30918Y-69259D01*
X30862Y-69203D01*
X30805Y-69091D01*
X30749Y-68866D01*
X30749Y-68584D01*
X30805Y-68359D01*
X30862Y-68247D01*
X30918Y-68191D01*
X31030Y-68134D01*
X31930Y-69316D02*
X31930Y-68528D01*
X31930Y-68641D02*
X31986Y-68584D01*
X32099Y-68528D01*
X32268Y-68528D01*
X32380Y-68584D01*
X32436Y-68697D01*
X32436Y-69316D01*
X32436Y-68697D02*
X32493Y-68584D01*
X32605Y-68528D01*
X32774Y-68528D01*
X32886Y-68584D01*
X32942Y-68697D01*
X32942Y-69316D01*
X33505Y-69316D02*
X33505Y-68528D01*
X33505Y-68641D02*
X33561Y-68584D01*
X33674Y-68528D01*
X33842Y-68528D01*
X33955Y-68584D01*
X34011Y-68697D01*
X34011Y-69316D01*
X34011Y-68697D02*
X34067Y-68584D01*
X34180Y-68528D01*
X34349Y-68528D01*
X34461Y-68584D01*
X34517Y-68697D01*
X34517Y-69316D01*
X36823Y-68078D02*
X35811Y-69597D01*
X38342Y-68134D02*
X38454Y-68134D01*
X38567Y-68191D01*
X38623Y-68247D01*
X38679Y-68359D01*
X38736Y-68584D01*
X38736Y-68866D01*
X38679Y-69091D01*
X38623Y-69203D01*
X38567Y-69259D01*
X38454Y-69316D01*
X38342Y-69316D01*
X38229Y-69259D01*
X38173Y-69203D01*
X38117Y-69091D01*
X38061Y-68866D01*
X38061Y-68584D01*
X38117Y-68359D01*
X38173Y-68247D01*
X38229Y-68191D01*
X38342Y-68134D01*
X39242Y-69203D02*
X39298Y-69259D01*
X39242Y-69316D01*
X39185Y-69259D01*
X39242Y-69203D01*
X39242Y-69316D01*
X40029Y-68134D02*
X40142Y-68134D01*
X40254Y-68191D01*
X40310Y-68247D01*
X40367Y-68359D01*
X40423Y-68584D01*
X40423Y-68866D01*
X40367Y-69091D01*
X40310Y-69203D01*
X40254Y-69259D01*
X40142Y-69316D01*
X40029Y-69316D01*
X39917Y-69259D01*
X39860Y-69203D01*
X39804Y-69091D01*
X39748Y-68866D01*
X39748Y-68584D01*
X39804Y-68359D01*
X39860Y-68247D01*
X39917Y-68191D01*
X40029Y-68134D01*
X41435Y-68528D02*
X41435Y-69316D01*
X41154Y-68078D02*
X40873Y-68922D01*
X41604Y-68922D01*
X41941Y-68134D02*
X42673Y-68134D01*
X42279Y-68584D01*
X42448Y-68584D01*
X42560Y-68641D01*
X42616Y-68697D01*
X42673Y-68809D01*
X42673Y-69091D01*
X42616Y-69203D01*
X42560Y-69259D01*
X42448Y-69316D01*
X42110Y-69316D01*
X41998Y-69259D01*
X41941Y-69203D01*
X43122Y-68134D02*
X43122Y-68359D01*
X43572Y-68134D02*
X43572Y-68359D01*
X45316Y-69765D02*
X45260Y-69709D01*
X45147Y-69540D01*
X45091Y-69428D01*
X45035Y-69259D01*
X44978Y-68978D01*
X44978Y-68753D01*
X45035Y-68472D01*
X45091Y-68303D01*
X45147Y-68191D01*
X45260Y-68022D01*
X45316Y-67966D01*
X46272Y-68528D02*
X46272Y-69316D01*
X45991Y-68078D02*
X45710Y-68922D01*
X46441Y-68922D01*
X47791Y-69316D02*
X47791Y-68134D01*
X48297Y-69316D02*
X48297Y-68697D01*
X48241Y-68584D01*
X48128Y-68528D01*
X47959Y-68528D01*
X47847Y-68584D01*
X47791Y-68641D01*
X49028Y-69316D02*
X48916Y-69259D01*
X48859Y-69203D01*
X48803Y-69091D01*
X48803Y-68753D01*
X48859Y-68641D01*
X48916Y-68584D01*
X49028Y-68528D01*
X49197Y-68528D01*
X49309Y-68584D01*
X49365Y-68641D01*
X49422Y-68753D01*
X49422Y-69091D01*
X49365Y-69203D01*
X49309Y-69259D01*
X49197Y-69316D01*
X49028Y-69316D01*
X50097Y-69316D02*
X49984Y-69259D01*
X49928Y-69147D01*
X49928Y-68134D01*
X50996Y-69259D02*
X50884Y-69316D01*
X50659Y-69316D01*
X50547Y-69259D01*
X50490Y-69147D01*
X50490Y-68697D01*
X50547Y-68584D01*
X50659Y-68528D01*
X50884Y-68528D01*
X50996Y-68584D01*
X51053Y-68697D01*
X51053Y-68809D01*
X50490Y-68922D01*
X51503Y-69259D02*
X51615Y-69316D01*
X51840Y-69316D01*
X51953Y-69259D01*
X52009Y-69147D01*
X52009Y-69091D01*
X51953Y-68978D01*
X51840Y-68922D01*
X51671Y-68922D01*
X51559Y-68866D01*
X51503Y-68753D01*
X51503Y-68697D01*
X51559Y-68584D01*
X51671Y-68528D01*
X51840Y-68528D01*
X51953Y-68584D01*
X52403Y-69765D02*
X52459Y-69709D01*
X52571Y-69540D01*
X52628Y-69428D01*
X52684Y-69259D01*
X52740Y-68978D01*
X52740Y-68753D01*
X52684Y-68472D01*
X52628Y-68303D01*
X52571Y-68191D01*
X52459Y-68022D01*
X52403Y-67966D01*
G54D12*
X26624Y-70640D02*
X26924Y-70340D01*
X26624Y-70040D01*
X26324Y-70340D01*
X26624Y-70640D01*
G54D13*
X28612Y-70875D02*
X27937Y-70875D01*
X28274Y-70875D02*
X28274Y-69693D01*
X28162Y-69862D01*
X28049Y-69975D01*
X27937Y-70031D01*
X29118Y-70762D02*
X29174Y-70818D01*
X29118Y-70875D01*
X29062Y-70818D01*
X29118Y-70762D01*
X29118Y-70875D01*
X30243Y-69693D02*
X29680Y-69693D01*
X29624Y-70256D01*
X29680Y-70200D01*
X29793Y-70143D01*
X30074Y-70143D01*
X30187Y-70200D01*
X30243Y-70256D01*
X30299Y-70368D01*
X30299Y-70650D01*
X30243Y-70762D01*
X30187Y-70818D01*
X30074Y-70875D01*
X29793Y-70875D01*
X29680Y-70818D01*
X29624Y-70762D01*
X30749Y-69806D02*
X30805Y-69750D01*
X30918Y-69693D01*
X31199Y-69693D01*
X31311Y-69750D01*
X31368Y-69806D01*
X31424Y-69918D01*
X31424Y-70031D01*
X31368Y-70200D01*
X30693Y-70875D01*
X31424Y-70875D01*
X31930Y-70875D02*
X31930Y-70087D01*
X31930Y-70200D02*
X31986Y-70143D01*
X32099Y-70087D01*
X32268Y-70087D01*
X32380Y-70143D01*
X32436Y-70256D01*
X32436Y-70875D01*
X32436Y-70256D02*
X32493Y-70143D01*
X32605Y-70087D01*
X32774Y-70087D01*
X32886Y-70143D01*
X32942Y-70256D01*
X32942Y-70875D01*
X33505Y-70875D02*
X33505Y-70087D01*
X33505Y-70200D02*
X33561Y-70143D01*
X33674Y-70087D01*
X33842Y-70087D01*
X33955Y-70143D01*
X34011Y-70256D01*
X34011Y-70875D01*
X34011Y-70256D02*
X34067Y-70143D01*
X34180Y-70087D01*
X34349Y-70087D01*
X34461Y-70143D01*
X34517Y-70256D01*
X34517Y-70875D01*
X36823Y-69637D02*
X35811Y-71156D01*
X38342Y-69693D02*
X38454Y-69693D01*
X38567Y-69750D01*
X38623Y-69806D01*
X38679Y-69918D01*
X38736Y-70143D01*
X38736Y-70425D01*
X38679Y-70650D01*
X38623Y-70762D01*
X38567Y-70818D01*
X38454Y-70875D01*
X38342Y-70875D01*
X38229Y-70818D01*
X38173Y-70762D01*
X38117Y-70650D01*
X38061Y-70425D01*
X38061Y-70143D01*
X38117Y-69918D01*
X38173Y-69806D01*
X38229Y-69750D01*
X38342Y-69693D01*
X39242Y-70762D02*
X39298Y-70818D01*
X39242Y-70875D01*
X39185Y-70818D01*
X39242Y-70762D01*
X39242Y-70875D01*
X40029Y-69693D02*
X40142Y-69693D01*
X40254Y-69750D01*
X40310Y-69806D01*
X40367Y-69918D01*
X40423Y-70143D01*
X40423Y-70425D01*
X40367Y-70650D01*
X40310Y-70762D01*
X40254Y-70818D01*
X40142Y-70875D01*
X40029Y-70875D01*
X39917Y-70818D01*
X39860Y-70762D01*
X39804Y-70650D01*
X39748Y-70425D01*
X39748Y-70143D01*
X39804Y-69918D01*
X39860Y-69806D01*
X39917Y-69750D01*
X40029Y-69693D01*
X41435Y-69693D02*
X41210Y-69693D01*
X41098Y-69750D01*
X41041Y-69806D01*
X40929Y-69975D01*
X40873Y-70200D01*
X40873Y-70650D01*
X40929Y-70762D01*
X40985Y-70818D01*
X41098Y-70875D01*
X41323Y-70875D01*
X41435Y-70818D01*
X41491Y-70762D01*
X41548Y-70650D01*
X41548Y-70368D01*
X41491Y-70256D01*
X41435Y-70200D01*
X41323Y-70143D01*
X41098Y-70143D01*
X40985Y-70200D01*
X40929Y-70256D01*
X40873Y-70368D01*
X42279Y-69693D02*
X42391Y-69693D01*
X42504Y-69750D01*
X42560Y-69806D01*
X42616Y-69918D01*
X42673Y-70143D01*
X42673Y-70425D01*
X42616Y-70650D01*
X42560Y-70762D01*
X42504Y-70818D01*
X42391Y-70875D01*
X42279Y-70875D01*
X42166Y-70818D01*
X42110Y-70762D01*
X42054Y-70650D01*
X41998Y-70425D01*
X41998Y-70143D01*
X42054Y-69918D01*
X42110Y-69806D01*
X42166Y-69750D01*
X42279Y-69693D01*
X43122Y-69693D02*
X43122Y-69918D01*
X43572Y-69693D02*
X43572Y-69918D01*
X45316Y-71325D02*
X45260Y-71268D01*
X45147Y-71100D01*
X45091Y-70987D01*
X45035Y-70818D01*
X44978Y-70537D01*
X44978Y-70312D01*
X45035Y-70031D01*
X45091Y-69862D01*
X45147Y-69750D01*
X45260Y-69581D01*
X45316Y-69525D01*
X45653Y-69693D02*
X46385Y-69693D01*
X45991Y-70143D01*
X46160Y-70143D01*
X46272Y-70200D01*
X46328Y-70256D01*
X46385Y-70368D01*
X46385Y-70650D01*
X46328Y-70762D01*
X46272Y-70818D01*
X46160Y-70875D01*
X45822Y-70875D01*
X45710Y-70818D01*
X45653Y-70762D01*
X47791Y-70875D02*
X47791Y-69693D01*
X48297Y-70875D02*
X48297Y-70256D01*
X48241Y-70143D01*
X48128Y-70087D01*
X47959Y-70087D01*
X47847Y-70143D01*
X47791Y-70200D01*
X49028Y-70875D02*
X48916Y-70818D01*
X48859Y-70762D01*
X48803Y-70650D01*
X48803Y-70312D01*
X48859Y-70200D01*
X48916Y-70143D01*
X49028Y-70087D01*
X49197Y-70087D01*
X49309Y-70143D01*
X49365Y-70200D01*
X49422Y-70312D01*
X49422Y-70650D01*
X49365Y-70762D01*
X49309Y-70818D01*
X49197Y-70875D01*
X49028Y-70875D01*
X50097Y-70875D02*
X49984Y-70818D01*
X49928Y-70706D01*
X49928Y-69693D01*
X50996Y-70818D02*
X50884Y-70875D01*
X50659Y-70875D01*
X50547Y-70818D01*
X50490Y-70706D01*
X50490Y-70256D01*
X50547Y-70143D01*
X50659Y-70087D01*
X50884Y-70087D01*
X50996Y-70143D01*
X51053Y-70256D01*
X51053Y-70368D01*
X50490Y-70481D01*
X51503Y-70818D02*
X51615Y-70875D01*
X51840Y-70875D01*
X51953Y-70818D01*
X52009Y-70706D01*
X52009Y-70650D01*
X51953Y-70537D01*
X51840Y-70481D01*
X51671Y-70481D01*
X51559Y-70425D01*
X51503Y-70312D01*
X51503Y-70256D01*
X51559Y-70143D01*
X51671Y-70087D01*
X51840Y-70087D01*
X51953Y-70143D01*
X52403Y-71325D02*
X52459Y-71268D01*
X52571Y-71100D01*
X52628Y-70987D01*
X52684Y-70818D01*
X52740Y-70537D01*
X52740Y-70312D01*
X52684Y-70031D01*
X52628Y-69862D01*
X52571Y-69750D01*
X52459Y-69581D01*
X52403Y-69525D01*
X25743Y-71309D02*
X26924Y-72490D01*
X26924Y-71309D02*
X25743Y-72490D01*
G54D12*
X26924Y-71899D02*
G75*
G03X26924Y-71899I-590J0D01*
G74*
G01*
G54D13*
X27881Y-71253D02*
X28612Y-71253D01*
X28218Y-71702D01*
X28387Y-71702D01*
X28499Y-71759D01*
X28556Y-71815D01*
X28612Y-71927D01*
X28612Y-72209D01*
X28556Y-72321D01*
X28499Y-72377D01*
X28387Y-72434D01*
X28049Y-72434D01*
X27937Y-72377D01*
X27881Y-72321D01*
X29118Y-72321D02*
X29174Y-72377D01*
X29118Y-72434D01*
X29062Y-72377D01*
X29118Y-72321D01*
X29118Y-72434D01*
X29905Y-71253D02*
X30018Y-71253D01*
X30130Y-71309D01*
X30187Y-71365D01*
X30243Y-71477D01*
X30299Y-71702D01*
X30299Y-71984D01*
X30243Y-72209D01*
X30187Y-72321D01*
X30130Y-72377D01*
X30018Y-72434D01*
X29905Y-72434D01*
X29793Y-72377D01*
X29737Y-72321D01*
X29680Y-72209D01*
X29624Y-71984D01*
X29624Y-71702D01*
X29680Y-71477D01*
X29737Y-71365D01*
X29793Y-71309D01*
X29905Y-71253D01*
X31030Y-71253D02*
X31143Y-71253D01*
X31255Y-71309D01*
X31311Y-71365D01*
X31368Y-71477D01*
X31424Y-71702D01*
X31424Y-71984D01*
X31368Y-72209D01*
X31311Y-72321D01*
X31255Y-72377D01*
X31143Y-72434D01*
X31030Y-72434D01*
X30918Y-72377D01*
X30862Y-72321D01*
X30805Y-72209D01*
X30749Y-71984D01*
X30749Y-71702D01*
X30805Y-71477D01*
X30862Y-71365D01*
X30918Y-71309D01*
X31030Y-71253D01*
X31930Y-72434D02*
X31930Y-71646D01*
X31930Y-71759D02*
X31986Y-71702D01*
X32099Y-71646D01*
X32268Y-71646D01*
X32380Y-71702D01*
X32436Y-71815D01*
X32436Y-72434D01*
X32436Y-71815D02*
X32493Y-71702D01*
X32605Y-71646D01*
X32774Y-71646D01*
X32886Y-71702D01*
X32942Y-71815D01*
X32942Y-72434D01*
X33505Y-72434D02*
X33505Y-71646D01*
X33505Y-71759D02*
X33561Y-71702D01*
X33674Y-71646D01*
X33842Y-71646D01*
X33955Y-71702D01*
X34011Y-71815D01*
X34011Y-72434D01*
X34011Y-71815D02*
X34067Y-71702D01*
X34180Y-71646D01*
X34349Y-71646D01*
X34461Y-71702D01*
X34517Y-71815D01*
X34517Y-72434D01*
X36823Y-71196D02*
X35811Y-72715D01*
X38342Y-71253D02*
X38454Y-71253D01*
X38567Y-71309D01*
X38623Y-71365D01*
X38679Y-71477D01*
X38736Y-71702D01*
X38736Y-71984D01*
X38679Y-72209D01*
X38623Y-72321D01*
X38567Y-72377D01*
X38454Y-72434D01*
X38342Y-72434D01*
X38229Y-72377D01*
X38173Y-72321D01*
X38117Y-72209D01*
X38061Y-71984D01*
X38061Y-71702D01*
X38117Y-71477D01*
X38173Y-71365D01*
X38229Y-71309D01*
X38342Y-71253D01*
X39242Y-72321D02*
X39298Y-72377D01*
X39242Y-72434D01*
X39185Y-72377D01*
X39242Y-72321D01*
X39242Y-72434D01*
X40423Y-72434D02*
X39748Y-72434D01*
X40085Y-72434D02*
X40085Y-71253D01*
X39973Y-71421D01*
X39860Y-71534D01*
X39748Y-71590D01*
X41548Y-72434D02*
X40873Y-72434D01*
X41210Y-72434D02*
X41210Y-71253D01*
X41098Y-71421D01*
X40985Y-71534D01*
X40873Y-71590D01*
X42223Y-71759D02*
X42110Y-71702D01*
X42054Y-71646D01*
X41998Y-71534D01*
X41998Y-71477D01*
X42054Y-71365D01*
X42110Y-71309D01*
X42223Y-71253D01*
X42448Y-71253D01*
X42560Y-71309D01*
X42616Y-71365D01*
X42673Y-71477D01*
X42673Y-71534D01*
X42616Y-71646D01*
X42560Y-71702D01*
X42448Y-71759D01*
X42223Y-71759D01*
X42110Y-71815D01*
X42054Y-71871D01*
X41998Y-71984D01*
X41998Y-72209D01*
X42054Y-72321D01*
X42110Y-72377D01*
X42223Y-72434D01*
X42448Y-72434D01*
X42560Y-72377D01*
X42616Y-72321D01*
X42673Y-72209D01*
X42673Y-71984D01*
X42616Y-71871D01*
X42560Y-71815D01*
X42448Y-71759D01*
X43122Y-71253D02*
X43122Y-71477D01*
X43572Y-71253D02*
X43572Y-71477D01*
X45316Y-72884D02*
X45260Y-72827D01*
X45147Y-72659D01*
X45091Y-72546D01*
X45035Y-72377D01*
X44978Y-72096D01*
X44978Y-71871D01*
X45035Y-71590D01*
X45091Y-71421D01*
X45147Y-71309D01*
X45260Y-71140D01*
X45316Y-71084D01*
X46272Y-71646D02*
X46272Y-72434D01*
X45991Y-71196D02*
X45710Y-72040D01*
X46441Y-72040D01*
X47791Y-72434D02*
X47791Y-71253D01*
X48297Y-72434D02*
X48297Y-71815D01*
X48241Y-71702D01*
X48128Y-71646D01*
X47959Y-71646D01*
X47847Y-71702D01*
X47791Y-71759D01*
X49028Y-72434D02*
X48916Y-72377D01*
X48859Y-72321D01*
X48803Y-72209D01*
X48803Y-71871D01*
X48859Y-71759D01*
X48916Y-71702D01*
X49028Y-71646D01*
X49197Y-71646D01*
X49309Y-71702D01*
X49365Y-71759D01*
X49422Y-71871D01*
X49422Y-72209D01*
X49365Y-72321D01*
X49309Y-72377D01*
X49197Y-72434D01*
X49028Y-72434D01*
X50097Y-72434D02*
X49984Y-72377D01*
X49928Y-72265D01*
X49928Y-71253D01*
X50996Y-72377D02*
X50884Y-72434D01*
X50659Y-72434D01*
X50547Y-72377D01*
X50490Y-72265D01*
X50490Y-71815D01*
X50547Y-71702D01*
X50659Y-71646D01*
X50884Y-71646D01*
X50996Y-71702D01*
X51053Y-71815D01*
X51053Y-71927D01*
X50490Y-72040D01*
X51503Y-72377D02*
X51615Y-72434D01*
X51840Y-72434D01*
X51953Y-72377D01*
X52009Y-72265D01*
X52009Y-72209D01*
X51953Y-72096D01*
X51840Y-72040D01*
X51671Y-72040D01*
X51559Y-71984D01*
X51503Y-71871D01*
X51503Y-71815D01*
X51559Y-71702D01*
X51671Y-71646D01*
X51840Y-71646D01*
X51953Y-71702D01*
X52403Y-72884D02*
X52459Y-72827D01*
X52571Y-72659D01*
X52628Y-72546D01*
X52684Y-72377D01*
X52740Y-72096D01*
X52740Y-71871D01*
X52684Y-71590D01*
X52628Y-71421D01*
X52571Y-71309D01*
X52459Y-71140D01*
X52403Y-71084D01*
X25724Y-72992D02*
X26924Y-74192D01*
X26924Y-72992D02*
X25724Y-74192D01*
X26324Y-72992D02*
X26324Y-74192D01*
X25724Y-73592D02*
X26924Y-73592D01*
X27881Y-72945D02*
X28612Y-72945D01*
X28218Y-73395D01*
X28387Y-73395D01*
X28499Y-73452D01*
X28556Y-73508D01*
X28612Y-73620D01*
X28612Y-73902D01*
X28556Y-74014D01*
X28499Y-74070D01*
X28387Y-74127D01*
X28049Y-74127D01*
X27937Y-74070D01*
X27881Y-74014D01*
X29118Y-74014D02*
X29174Y-74070D01*
X29118Y-74127D01*
X29062Y-74070D01*
X29118Y-74014D01*
X29118Y-74127D01*
X29905Y-72945D02*
X30018Y-72945D01*
X30130Y-73002D01*
X30187Y-73058D01*
X30243Y-73170D01*
X30299Y-73395D01*
X30299Y-73677D01*
X30243Y-73902D01*
X30187Y-74014D01*
X30130Y-74070D01*
X30018Y-74127D01*
X29905Y-74127D01*
X29793Y-74070D01*
X29737Y-74014D01*
X29680Y-73902D01*
X29624Y-73677D01*
X29624Y-73395D01*
X29680Y-73170D01*
X29737Y-73058D01*
X29793Y-73002D01*
X29905Y-72945D01*
X31368Y-72945D02*
X30805Y-72945D01*
X30749Y-73508D01*
X30805Y-73452D01*
X30918Y-73395D01*
X31199Y-73395D01*
X31311Y-73452D01*
X31368Y-73508D01*
X31424Y-73620D01*
X31424Y-73902D01*
X31368Y-74014D01*
X31311Y-74070D01*
X31199Y-74127D01*
X30918Y-74127D01*
X30805Y-74070D01*
X30749Y-74014D01*
X31930Y-74127D02*
X31930Y-73339D01*
X31930Y-73452D02*
X31986Y-73395D01*
X32099Y-73339D01*
X32268Y-73339D01*
X32380Y-73395D01*
X32436Y-73508D01*
X32436Y-74127D01*
X32436Y-73508D02*
X32493Y-73395D01*
X32605Y-73339D01*
X32774Y-73339D01*
X32886Y-73395D01*
X32942Y-73508D01*
X32942Y-74127D01*
X33505Y-74127D02*
X33505Y-73339D01*
X33505Y-73452D02*
X33561Y-73395D01*
X33674Y-73339D01*
X33842Y-73339D01*
X33955Y-73395D01*
X34011Y-73508D01*
X34011Y-74127D01*
X34011Y-73508D02*
X34067Y-73395D01*
X34180Y-73339D01*
X34349Y-73339D01*
X34461Y-73395D01*
X34517Y-73508D01*
X34517Y-74127D01*
X36823Y-72889D02*
X35811Y-74408D01*
X38342Y-72945D02*
X38454Y-72945D01*
X38567Y-73002D01*
X38623Y-73058D01*
X38679Y-73170D01*
X38736Y-73395D01*
X38736Y-73677D01*
X38679Y-73902D01*
X38623Y-74014D01*
X38567Y-74070D01*
X38454Y-74127D01*
X38342Y-74127D01*
X38229Y-74070D01*
X38173Y-74014D01*
X38117Y-73902D01*
X38061Y-73677D01*
X38061Y-73395D01*
X38117Y-73170D01*
X38173Y-73058D01*
X38229Y-73002D01*
X38342Y-72945D01*
X39242Y-74014D02*
X39298Y-74070D01*
X39242Y-74127D01*
X39185Y-74070D01*
X39242Y-74014D01*
X39242Y-74127D01*
X40423Y-74127D02*
X39748Y-74127D01*
X40085Y-74127D02*
X40085Y-72945D01*
X39973Y-73114D01*
X39860Y-73227D01*
X39748Y-73283D01*
X40873Y-73058D02*
X40929Y-73002D01*
X41041Y-72945D01*
X41323Y-72945D01*
X41435Y-73002D01*
X41491Y-73058D01*
X41548Y-73170D01*
X41548Y-73283D01*
X41491Y-73452D01*
X40817Y-74127D01*
X41548Y-74127D01*
X42279Y-72945D02*
X42391Y-72945D01*
X42504Y-73002D01*
X42560Y-73058D01*
X42616Y-73170D01*
X42673Y-73395D01*
X42673Y-73677D01*
X42616Y-73902D01*
X42560Y-74014D01*
X42504Y-74070D01*
X42391Y-74127D01*
X42279Y-74127D01*
X42166Y-74070D01*
X42110Y-74014D01*
X42054Y-73902D01*
X41998Y-73677D01*
X41998Y-73395D01*
X42054Y-73170D01*
X42110Y-73058D01*
X42166Y-73002D01*
X42279Y-72945D01*
X43122Y-72945D02*
X43122Y-73170D01*
X43572Y-72945D02*
X43572Y-73170D01*
X45316Y-74576D02*
X45260Y-74520D01*
X45147Y-74351D01*
X45091Y-74239D01*
X45035Y-74070D01*
X44978Y-73789D01*
X44978Y-73564D01*
X45035Y-73283D01*
X45091Y-73114D01*
X45147Y-73002D01*
X45260Y-72833D01*
X45316Y-72777D01*
X45822Y-74127D02*
X46047Y-74127D01*
X46160Y-74070D01*
X46216Y-74014D01*
X46328Y-73845D01*
X46385Y-73620D01*
X46385Y-73170D01*
X46328Y-73058D01*
X46272Y-73002D01*
X46160Y-72945D01*
X45935Y-72945D01*
X45822Y-73002D01*
X45766Y-73058D01*
X45710Y-73170D01*
X45710Y-73452D01*
X45766Y-73564D01*
X45822Y-73620D01*
X45935Y-73677D01*
X46160Y-73677D01*
X46272Y-73620D01*
X46328Y-73564D01*
X46385Y-73452D01*
X47791Y-74127D02*
X47791Y-72945D01*
X48297Y-74127D02*
X48297Y-73508D01*
X48241Y-73395D01*
X48128Y-73339D01*
X47959Y-73339D01*
X47847Y-73395D01*
X47791Y-73452D01*
X49028Y-74127D02*
X48916Y-74070D01*
X48859Y-74014D01*
X48803Y-73902D01*
X48803Y-73564D01*
X48859Y-73452D01*
X48916Y-73395D01*
X49028Y-73339D01*
X49197Y-73339D01*
X49309Y-73395D01*
X49365Y-73452D01*
X49422Y-73564D01*
X49422Y-73902D01*
X49365Y-74014D01*
X49309Y-74070D01*
X49197Y-74127D01*
X49028Y-74127D01*
X50097Y-74127D02*
X49984Y-74070D01*
X49928Y-73958D01*
X49928Y-72945D01*
X50996Y-74070D02*
X50884Y-74127D01*
X50659Y-74127D01*
X50547Y-74070D01*
X50490Y-73958D01*
X50490Y-73508D01*
X50547Y-73395D01*
X50659Y-73339D01*
X50884Y-73339D01*
X50996Y-73395D01*
X51053Y-73508D01*
X51053Y-73620D01*
X50490Y-73733D01*
X51503Y-74070D02*
X51615Y-74127D01*
X51840Y-74127D01*
X51953Y-74070D01*
X52009Y-73958D01*
X52009Y-73902D01*
X51953Y-73789D01*
X51840Y-73733D01*
X51671Y-73733D01*
X51559Y-73677D01*
X51503Y-73564D01*
X51503Y-73508D01*
X51559Y-73395D01*
X51671Y-73339D01*
X51840Y-73339D01*
X51953Y-73395D01*
X52403Y-74576D02*
X52459Y-74520D01*
X52571Y-74351D01*
X52628Y-74239D01*
X52684Y-74070D01*
X52740Y-73789D01*
X52740Y-73564D01*
X52684Y-73283D01*
X52628Y-73114D01*
X52571Y-73002D01*
X52459Y-72833D01*
X52403Y-72777D01*
X24524Y-74104D02*
X26924Y-76504D01*
X26924Y-74104D02*
X24524Y-76504D01*
G54D12*
X26573Y-76153D02*
X26573Y-74455D01*
X24876Y-74455D01*
X24876Y-76153D01*
X26573Y-76153D01*
G54D13*
X28499Y-74657D02*
X28274Y-74657D01*
X28162Y-74713D01*
X28106Y-74770D01*
X27993Y-74938D01*
X27937Y-75163D01*
X27937Y-75613D01*
X27993Y-75726D01*
X28049Y-75782D01*
X28162Y-75838D01*
X28387Y-75838D01*
X28499Y-75782D01*
X28556Y-75726D01*
X28612Y-75613D01*
X28612Y-75332D01*
X28556Y-75220D01*
X28499Y-75163D01*
X28387Y-75107D01*
X28162Y-75107D01*
X28049Y-75163D01*
X27993Y-75220D01*
X27937Y-75332D01*
X29118Y-75726D02*
X29174Y-75782D01*
X29118Y-75838D01*
X29062Y-75782D01*
X29118Y-75726D01*
X29118Y-75838D01*
X30299Y-75838D02*
X29624Y-75838D01*
X29962Y-75838D02*
X29962Y-74657D01*
X29849Y-74826D01*
X29737Y-74938D01*
X29624Y-74995D01*
X31030Y-74657D02*
X31143Y-74657D01*
X31255Y-74713D01*
X31311Y-74770D01*
X31368Y-74882D01*
X31424Y-75107D01*
X31424Y-75388D01*
X31368Y-75613D01*
X31311Y-75726D01*
X31255Y-75782D01*
X31143Y-75838D01*
X31030Y-75838D01*
X30918Y-75782D01*
X30862Y-75726D01*
X30805Y-75613D01*
X30749Y-75388D01*
X30749Y-75107D01*
X30805Y-74882D01*
X30862Y-74770D01*
X30918Y-74713D01*
X31030Y-74657D01*
X31930Y-75838D02*
X31930Y-75051D01*
X31930Y-75163D02*
X31986Y-75107D01*
X32099Y-75051D01*
X32268Y-75051D01*
X32380Y-75107D01*
X32436Y-75220D01*
X32436Y-75838D01*
X32436Y-75220D02*
X32493Y-75107D01*
X32605Y-75051D01*
X32774Y-75051D01*
X32886Y-75107D01*
X32942Y-75220D01*
X32942Y-75838D01*
X33505Y-75838D02*
X33505Y-75051D01*
X33505Y-75163D02*
X33561Y-75107D01*
X33674Y-75051D01*
X33842Y-75051D01*
X33955Y-75107D01*
X34011Y-75220D01*
X34011Y-75838D01*
X34011Y-75220D02*
X34067Y-75107D01*
X34180Y-75051D01*
X34349Y-75051D01*
X34461Y-75107D01*
X34517Y-75220D01*
X34517Y-75838D01*
X36823Y-74601D02*
X35811Y-76120D01*
X38342Y-74657D02*
X38454Y-74657D01*
X38567Y-74713D01*
X38623Y-74770D01*
X38679Y-74882D01*
X38736Y-75107D01*
X38736Y-75388D01*
X38679Y-75613D01*
X38623Y-75726D01*
X38567Y-75782D01*
X38454Y-75838D01*
X38342Y-75838D01*
X38229Y-75782D01*
X38173Y-75726D01*
X38117Y-75613D01*
X38061Y-75388D01*
X38061Y-75107D01*
X38117Y-74882D01*
X38173Y-74770D01*
X38229Y-74713D01*
X38342Y-74657D01*
X39242Y-75726D02*
X39298Y-75782D01*
X39242Y-75838D01*
X39185Y-75782D01*
X39242Y-75726D01*
X39242Y-75838D01*
X39748Y-74770D02*
X39804Y-74713D01*
X39917Y-74657D01*
X40198Y-74657D01*
X40310Y-74713D01*
X40367Y-74770D01*
X40423Y-74882D01*
X40423Y-74995D01*
X40367Y-75163D01*
X39692Y-75838D01*
X40423Y-75838D01*
X41435Y-75051D02*
X41435Y-75838D01*
X41154Y-74601D02*
X40873Y-75445D01*
X41604Y-75445D01*
X42279Y-74657D02*
X42391Y-74657D01*
X42504Y-74713D01*
X42560Y-74770D01*
X42616Y-74882D01*
X42673Y-75107D01*
X42673Y-75388D01*
X42616Y-75613D01*
X42560Y-75726D01*
X42504Y-75782D01*
X42391Y-75838D01*
X42279Y-75838D01*
X42166Y-75782D01*
X42110Y-75726D01*
X42054Y-75613D01*
X41998Y-75388D01*
X41998Y-75107D01*
X42054Y-74882D01*
X42110Y-74770D01*
X42166Y-74713D01*
X42279Y-74657D01*
X43122Y-74657D02*
X43122Y-74882D01*
X43572Y-74657D02*
X43572Y-74882D01*
X45316Y-76288D02*
X45260Y-76232D01*
X45147Y-76063D01*
X45091Y-75951D01*
X45035Y-75782D01*
X44978Y-75501D01*
X44978Y-75276D01*
X45035Y-74995D01*
X45091Y-74826D01*
X45147Y-74713D01*
X45260Y-74545D01*
X45316Y-74489D01*
X46272Y-75051D02*
X46272Y-75838D01*
X45991Y-74601D02*
X45710Y-75445D01*
X46441Y-75445D01*
X47791Y-75838D02*
X47791Y-74657D01*
X48297Y-75838D02*
X48297Y-75220D01*
X48241Y-75107D01*
X48128Y-75051D01*
X47959Y-75051D01*
X47847Y-75107D01*
X47791Y-75163D01*
X49028Y-75838D02*
X48916Y-75782D01*
X48859Y-75726D01*
X48803Y-75613D01*
X48803Y-75276D01*
X48859Y-75163D01*
X48916Y-75107D01*
X49028Y-75051D01*
X49197Y-75051D01*
X49309Y-75107D01*
X49365Y-75163D01*
X49422Y-75276D01*
X49422Y-75613D01*
X49365Y-75726D01*
X49309Y-75782D01*
X49197Y-75838D01*
X49028Y-75838D01*
X50097Y-75838D02*
X49984Y-75782D01*
X49928Y-75670D01*
X49928Y-74657D01*
X50996Y-75782D02*
X50884Y-75838D01*
X50659Y-75838D01*
X50547Y-75782D01*
X50490Y-75670D01*
X50490Y-75220D01*
X50547Y-75107D01*
X50659Y-75051D01*
X50884Y-75051D01*
X50996Y-75107D01*
X51053Y-75220D01*
X51053Y-75332D01*
X50490Y-75445D01*
X51503Y-75782D02*
X51615Y-75838D01*
X51840Y-75838D01*
X51953Y-75782D01*
X52009Y-75670D01*
X52009Y-75613D01*
X51953Y-75501D01*
X51840Y-75445D01*
X51671Y-75445D01*
X51559Y-75388D01*
X51503Y-75276D01*
X51503Y-75220D01*
X51559Y-75107D01*
X51671Y-75051D01*
X51840Y-75051D01*
X51953Y-75107D01*
X52403Y-76288D02*
X52459Y-76232D01*
X52571Y-76063D01*
X52628Y-75951D01*
X52684Y-75782D01*
X52740Y-75501D01*
X52740Y-75276D01*
X52684Y-74995D01*
X52628Y-74826D01*
X52571Y-74713D01*
X52459Y-74545D01*
X52403Y-74489D01*
M02*
