G04 (created by PCBNEW (2013-mar-13)-testing) date mar 28 may 2013 12:52:48 ART*
%MOIN*%
G04 Gerber Fmt 3.4, Leading zero omitted, Abs format*
%FSLAX34Y34*%
G01*
G70*
G90*
G04 APERTURE LIST*
%ADD10C,0.005000*%
%ADD11C,0.007874*%
%ADD12C,0.011811*%
G04 APERTURE END LIST*
G54D10*
G54D11*
X19094Y-12421D02*
X19330Y-12657D01*
X19330Y-12421D02*
X19094Y-12657D01*
X19133Y-18602D02*
X19370Y-18838D01*
X19370Y-18602D02*
X19133Y-18838D01*
X19133Y-24744D02*
X19370Y-24980D01*
X19370Y-24744D02*
X19133Y-24980D01*
X19133Y-31043D02*
X19370Y-31279D01*
X19370Y-31043D02*
X19133Y-31279D01*
X19881Y-10059D02*
X20118Y-10295D01*
X20118Y-10059D02*
X19881Y-10295D01*
X19881Y-14783D02*
X20118Y-15019D01*
X20118Y-14783D02*
X19881Y-15019D01*
X19921Y-16240D02*
X20157Y-16476D01*
X20157Y-16240D02*
X19921Y-16476D01*
X19921Y-20964D02*
X20157Y-21200D01*
X20157Y-20964D02*
X19921Y-21200D01*
X19921Y-22381D02*
X20157Y-22618D01*
X20157Y-22381D02*
X19921Y-22618D01*
X19921Y-27106D02*
X20157Y-27342D01*
X20157Y-27106D02*
X19921Y-27342D01*
X19921Y-28681D02*
X20157Y-28917D01*
X20157Y-28681D02*
X19921Y-28917D01*
X19921Y-33405D02*
X20157Y-33641D01*
X20157Y-33405D02*
X19921Y-33641D01*
X25000Y-10059D02*
X25236Y-10295D01*
X25236Y-10059D02*
X25000Y-10295D01*
X25000Y-14783D02*
X25236Y-15019D01*
X25236Y-14783D02*
X25000Y-15019D01*
X25039Y-16240D02*
X25275Y-16476D01*
X25275Y-16240D02*
X25039Y-16476D01*
X25039Y-20964D02*
X25275Y-21200D01*
X25275Y-20964D02*
X25039Y-21200D01*
X25039Y-22381D02*
X25275Y-22618D01*
X25275Y-22381D02*
X25039Y-22618D01*
X25039Y-27106D02*
X25275Y-27342D01*
X25275Y-27106D02*
X25039Y-27342D01*
X25039Y-28681D02*
X25275Y-28917D01*
X25275Y-28681D02*
X25039Y-28917D01*
X25039Y-33405D02*
X25275Y-33641D01*
X25275Y-33405D02*
X25039Y-33641D01*
X13373Y-15688D02*
G75*
G03X13373Y-15688I-125J0D01*
G74*
G01*
X14022Y-23208D02*
G75*
G03X14022Y-23208I-125J0D01*
G74*
G01*
X15577Y-14685D02*
G75*
G03X15577Y-14685I-125J0D01*
G74*
G01*
X16050Y-33188D02*
G75*
G03X16050Y-33188I-125J0D01*
G74*
G01*
X16148Y-21692D02*
G75*
G03X16148Y-21692I-125J0D01*
G74*
G01*
X16936Y-27401D02*
G75*
G03X16936Y-27401I-125J0D01*
G74*
G01*
X17605Y-21633D02*
G75*
G03X17605Y-21633I-125J0D01*
G74*
G01*
X13877Y-16847D02*
X13877Y-17167D01*
X13717Y-17007D02*
X14037Y-17007D01*
X13877Y-17847D02*
X13877Y-18167D01*
X13717Y-18007D02*
X14037Y-18007D01*
X13877Y-18847D02*
X13877Y-19167D01*
X13717Y-19007D02*
X14037Y-19007D01*
X13877Y-19847D02*
X13877Y-20167D01*
X13717Y-20007D02*
X14037Y-20007D01*
X13877Y-20847D02*
X13877Y-21167D01*
X13717Y-21007D02*
X14037Y-21007D01*
X13877Y-21847D02*
X13877Y-22167D01*
X13717Y-22007D02*
X14037Y-22007D01*
X29995Y-17117D02*
X29995Y-16693D01*
X29571Y-16693D01*
X29571Y-17117D01*
X29995Y-17117D01*
X29995Y-19117D02*
X29995Y-18693D01*
X29571Y-18693D01*
X29571Y-19117D01*
X29995Y-19117D01*
X29995Y-21117D02*
X29995Y-20693D01*
X29571Y-20693D01*
X29571Y-21117D01*
X29995Y-21117D01*
X29995Y-23117D02*
X29995Y-22693D01*
X29571Y-22693D01*
X29571Y-23117D01*
X29995Y-23117D01*
X29995Y-25117D02*
X29995Y-24693D01*
X29571Y-24693D01*
X29571Y-25117D01*
X29995Y-25117D01*
G54D12*
X1068Y-1833D02*
X1068Y-652D01*
X1349Y-652D01*
X1518Y-708D01*
X1631Y-821D01*
X1687Y-933D01*
X1743Y-1158D01*
X1743Y-1327D01*
X1687Y-1552D01*
X1631Y-1664D01*
X1518Y-1777D01*
X1349Y-1833D01*
X1068Y-1833D01*
X2249Y-1833D02*
X2249Y-1046D01*
X2249Y-1271D02*
X2305Y-1158D01*
X2362Y-1102D01*
X2474Y-1046D01*
X2587Y-1046D01*
X2980Y-1833D02*
X2980Y-1046D01*
X2980Y-652D02*
X2924Y-708D01*
X2980Y-764D01*
X3037Y-708D01*
X2980Y-652D01*
X2980Y-764D01*
X3712Y-1833D02*
X3599Y-1777D01*
X3543Y-1664D01*
X3543Y-652D01*
X4330Y-1833D02*
X4218Y-1777D01*
X4161Y-1664D01*
X4161Y-652D01*
X5680Y-1833D02*
X5680Y-652D01*
X6074Y-1496D01*
X6467Y-652D01*
X6467Y-1833D01*
X7536Y-1833D02*
X7536Y-1214D01*
X7480Y-1102D01*
X7367Y-1046D01*
X7142Y-1046D01*
X7030Y-1102D01*
X7536Y-1777D02*
X7424Y-1833D01*
X7142Y-1833D01*
X7030Y-1777D01*
X6974Y-1664D01*
X6974Y-1552D01*
X7030Y-1439D01*
X7142Y-1383D01*
X7424Y-1383D01*
X7536Y-1327D01*
X8098Y-1046D02*
X8098Y-2227D01*
X8098Y-1102D02*
X8211Y-1046D01*
X8436Y-1046D01*
X8548Y-1102D01*
X8605Y-1158D01*
X8661Y-1271D01*
X8661Y-1608D01*
X8605Y-1721D01*
X8548Y-1777D01*
X8436Y-1833D01*
X8211Y-1833D01*
X8098Y-1777D01*
X9167Y-1721D02*
X9223Y-1777D01*
X9167Y-1833D01*
X9111Y-1777D01*
X9167Y-1721D01*
X9167Y-1833D01*
X9167Y-1102D02*
X9223Y-1158D01*
X9167Y-1214D01*
X9111Y-1158D01*
X9167Y-1102D01*
X9167Y-1214D01*
X-236Y-3661D02*
X0Y-3897D01*
X0Y-3661D02*
X-236Y-3897D01*
X1293Y-3132D02*
X1406Y-3132D01*
X1518Y-3188D01*
X1574Y-3245D01*
X1631Y-3357D01*
X1687Y-3582D01*
X1687Y-3863D01*
X1631Y-4088D01*
X1574Y-4201D01*
X1518Y-4257D01*
X1406Y-4313D01*
X1293Y-4313D01*
X1181Y-4257D01*
X1124Y-4201D01*
X1068Y-4088D01*
X1012Y-3863D01*
X1012Y-3582D01*
X1068Y-3357D01*
X1124Y-3245D01*
X1181Y-3188D01*
X1293Y-3132D01*
X2193Y-4201D02*
X2249Y-4257D01*
X2193Y-4313D01*
X2137Y-4257D01*
X2193Y-4201D01*
X2193Y-4313D01*
X3262Y-3132D02*
X3037Y-3132D01*
X2924Y-3188D01*
X2868Y-3245D01*
X2755Y-3413D01*
X2699Y-3638D01*
X2699Y-4088D01*
X2755Y-4201D01*
X2812Y-4257D01*
X2924Y-4313D01*
X3149Y-4313D01*
X3262Y-4257D01*
X3318Y-4201D01*
X3374Y-4088D01*
X3374Y-3807D01*
X3318Y-3695D01*
X3262Y-3638D01*
X3149Y-3582D01*
X2924Y-3582D01*
X2812Y-3638D01*
X2755Y-3695D01*
X2699Y-3807D01*
X4105Y-3132D02*
X4218Y-3132D01*
X4330Y-3188D01*
X4386Y-3245D01*
X4443Y-3357D01*
X4499Y-3582D01*
X4499Y-3863D01*
X4443Y-4088D01*
X4386Y-4201D01*
X4330Y-4257D01*
X4218Y-4313D01*
X4105Y-4313D01*
X3993Y-4257D01*
X3937Y-4201D01*
X3880Y-4088D01*
X3824Y-3863D01*
X3824Y-3582D01*
X3880Y-3357D01*
X3937Y-3245D01*
X3993Y-3188D01*
X4105Y-3132D01*
X5005Y-4313D02*
X5005Y-3526D01*
X5005Y-3638D02*
X5061Y-3582D01*
X5174Y-3526D01*
X5343Y-3526D01*
X5455Y-3582D01*
X5511Y-3695D01*
X5511Y-4313D01*
X5511Y-3695D02*
X5568Y-3582D01*
X5680Y-3526D01*
X5849Y-3526D01*
X5961Y-3582D01*
X6017Y-3695D01*
X6017Y-4313D01*
X6580Y-4313D02*
X6580Y-3526D01*
X6580Y-3638D02*
X6636Y-3582D01*
X6749Y-3526D01*
X6917Y-3526D01*
X7030Y-3582D01*
X7086Y-3695D01*
X7086Y-4313D01*
X7086Y-3695D02*
X7142Y-3582D01*
X7255Y-3526D01*
X7424Y-3526D01*
X7536Y-3582D01*
X7592Y-3695D01*
X7592Y-4313D01*
X9898Y-3076D02*
X8886Y-4595D01*
X11417Y-3132D02*
X11529Y-3132D01*
X11642Y-3188D01*
X11698Y-3245D01*
X11754Y-3357D01*
X11811Y-3582D01*
X11811Y-3863D01*
X11754Y-4088D01*
X11698Y-4201D01*
X11642Y-4257D01*
X11529Y-4313D01*
X11417Y-4313D01*
X11304Y-4257D01*
X11248Y-4201D01*
X11192Y-4088D01*
X11136Y-3863D01*
X11136Y-3582D01*
X11192Y-3357D01*
X11248Y-3245D01*
X11304Y-3188D01*
X11417Y-3132D01*
X12317Y-4201D02*
X12373Y-4257D01*
X12317Y-4313D01*
X12260Y-4257D01*
X12317Y-4201D01*
X12317Y-4313D01*
X13104Y-3132D02*
X13217Y-3132D01*
X13329Y-3188D01*
X13385Y-3245D01*
X13442Y-3357D01*
X13498Y-3582D01*
X13498Y-3863D01*
X13442Y-4088D01*
X13385Y-4201D01*
X13329Y-4257D01*
X13217Y-4313D01*
X13104Y-4313D01*
X12992Y-4257D01*
X12935Y-4201D01*
X12879Y-4088D01*
X12823Y-3863D01*
X12823Y-3582D01*
X12879Y-3357D01*
X12935Y-3245D01*
X12992Y-3188D01*
X13104Y-3132D01*
X13948Y-3245D02*
X14004Y-3188D01*
X14116Y-3132D01*
X14398Y-3132D01*
X14510Y-3188D01*
X14566Y-3245D01*
X14623Y-3357D01*
X14623Y-3470D01*
X14566Y-3638D01*
X13892Y-4313D01*
X14623Y-4313D01*
X15635Y-3526D02*
X15635Y-4313D01*
X15354Y-3076D02*
X15073Y-3920D01*
X15804Y-3920D01*
X16197Y-3132D02*
X16197Y-3357D01*
X16647Y-3132D02*
X16647Y-3357D01*
X18391Y-4763D02*
X18335Y-4707D01*
X18222Y-4538D01*
X18166Y-4426D01*
X18110Y-4257D01*
X18053Y-3976D01*
X18053Y-3751D01*
X18110Y-3470D01*
X18166Y-3301D01*
X18222Y-3188D01*
X18335Y-3020D01*
X18391Y-2964D01*
X18785Y-3245D02*
X18841Y-3188D01*
X18953Y-3132D01*
X19235Y-3132D01*
X19347Y-3188D01*
X19403Y-3245D01*
X19460Y-3357D01*
X19460Y-3470D01*
X19403Y-3638D01*
X18728Y-4313D01*
X19460Y-4313D01*
X20191Y-3132D02*
X20303Y-3132D01*
X20416Y-3188D01*
X20472Y-3245D01*
X20528Y-3357D01*
X20584Y-3582D01*
X20584Y-3863D01*
X20528Y-4088D01*
X20472Y-4201D01*
X20416Y-4257D01*
X20303Y-4313D01*
X20191Y-4313D01*
X20078Y-4257D01*
X20022Y-4201D01*
X19966Y-4088D01*
X19910Y-3863D01*
X19910Y-3582D01*
X19966Y-3357D01*
X20022Y-3245D01*
X20078Y-3188D01*
X20191Y-3132D01*
X21991Y-4313D02*
X21991Y-3132D01*
X22497Y-4313D02*
X22497Y-3695D01*
X22440Y-3582D01*
X22328Y-3526D01*
X22159Y-3526D01*
X22047Y-3582D01*
X21991Y-3638D01*
X23228Y-4313D02*
X23115Y-4257D01*
X23059Y-4201D01*
X23003Y-4088D01*
X23003Y-3751D01*
X23059Y-3638D01*
X23115Y-3582D01*
X23228Y-3526D01*
X23397Y-3526D01*
X23509Y-3582D01*
X23565Y-3638D01*
X23622Y-3751D01*
X23622Y-4088D01*
X23565Y-4201D01*
X23509Y-4257D01*
X23397Y-4313D01*
X23228Y-4313D01*
X24296Y-4313D02*
X24184Y-4257D01*
X24128Y-4145D01*
X24128Y-3132D01*
X25196Y-4257D02*
X25084Y-4313D01*
X24859Y-4313D01*
X24746Y-4257D01*
X24690Y-4145D01*
X24690Y-3695D01*
X24746Y-3582D01*
X24859Y-3526D01*
X25084Y-3526D01*
X25196Y-3582D01*
X25253Y-3695D01*
X25253Y-3807D01*
X24690Y-3920D01*
X25703Y-4257D02*
X25815Y-4313D01*
X26040Y-4313D01*
X26152Y-4257D01*
X26209Y-4145D01*
X26209Y-4088D01*
X26152Y-3976D01*
X26040Y-3920D01*
X25871Y-3920D01*
X25759Y-3863D01*
X25703Y-3751D01*
X25703Y-3695D01*
X25759Y-3582D01*
X25871Y-3526D01*
X26040Y-3526D01*
X26152Y-3582D01*
X26602Y-4763D02*
X26659Y-4707D01*
X26771Y-4538D01*
X26827Y-4426D01*
X26884Y-4257D01*
X26940Y-3976D01*
X26940Y-3751D01*
X26884Y-3470D01*
X26827Y-3301D01*
X26771Y-3188D01*
X26659Y-3020D01*
X26602Y-2964D01*
G54D11*
X0Y-5338D02*
G75*
G03X0Y-5338I-125J0D01*
G74*
G01*
G54D12*
X1293Y-4691D02*
X1406Y-4691D01*
X1518Y-4748D01*
X1574Y-4804D01*
X1631Y-4916D01*
X1687Y-5141D01*
X1687Y-5422D01*
X1631Y-5647D01*
X1574Y-5760D01*
X1518Y-5816D01*
X1406Y-5872D01*
X1293Y-5872D01*
X1181Y-5816D01*
X1124Y-5760D01*
X1068Y-5647D01*
X1012Y-5422D01*
X1012Y-5141D01*
X1068Y-4916D01*
X1124Y-4804D01*
X1181Y-4748D01*
X1293Y-4691D01*
X2193Y-5760D02*
X2249Y-5816D01*
X2193Y-5872D01*
X2137Y-5816D01*
X2193Y-5760D01*
X2193Y-5872D01*
X3262Y-4691D02*
X3037Y-4691D01*
X2924Y-4748D01*
X2868Y-4804D01*
X2755Y-4973D01*
X2699Y-5197D01*
X2699Y-5647D01*
X2755Y-5760D01*
X2812Y-5816D01*
X2924Y-5872D01*
X3149Y-5872D01*
X3262Y-5816D01*
X3318Y-5760D01*
X3374Y-5647D01*
X3374Y-5366D01*
X3318Y-5254D01*
X3262Y-5197D01*
X3149Y-5141D01*
X2924Y-5141D01*
X2812Y-5197D01*
X2755Y-5254D01*
X2699Y-5366D01*
X4386Y-5085D02*
X4386Y-5872D01*
X4105Y-4635D02*
X3824Y-5479D01*
X4555Y-5479D01*
X5005Y-5872D02*
X5005Y-5085D01*
X5005Y-5197D02*
X5061Y-5141D01*
X5174Y-5085D01*
X5343Y-5085D01*
X5455Y-5141D01*
X5511Y-5254D01*
X5511Y-5872D01*
X5511Y-5254D02*
X5568Y-5141D01*
X5680Y-5085D01*
X5849Y-5085D01*
X5961Y-5141D01*
X6017Y-5254D01*
X6017Y-5872D01*
X6580Y-5872D02*
X6580Y-5085D01*
X6580Y-5197D02*
X6636Y-5141D01*
X6749Y-5085D01*
X6917Y-5085D01*
X7030Y-5141D01*
X7086Y-5254D01*
X7086Y-5872D01*
X7086Y-5254D02*
X7142Y-5141D01*
X7255Y-5085D01*
X7424Y-5085D01*
X7536Y-5141D01*
X7592Y-5254D01*
X7592Y-5872D01*
X9898Y-4635D02*
X8886Y-6154D01*
X11417Y-4691D02*
X11529Y-4691D01*
X11642Y-4748D01*
X11698Y-4804D01*
X11754Y-4916D01*
X11811Y-5141D01*
X11811Y-5422D01*
X11754Y-5647D01*
X11698Y-5760D01*
X11642Y-5816D01*
X11529Y-5872D01*
X11417Y-5872D01*
X11304Y-5816D01*
X11248Y-5760D01*
X11192Y-5647D01*
X11136Y-5422D01*
X11136Y-5141D01*
X11192Y-4916D01*
X11248Y-4804D01*
X11304Y-4748D01*
X11417Y-4691D01*
X12317Y-5760D02*
X12373Y-5816D01*
X12317Y-5872D01*
X12260Y-5816D01*
X12317Y-5760D01*
X12317Y-5872D01*
X13104Y-4691D02*
X13217Y-4691D01*
X13329Y-4748D01*
X13385Y-4804D01*
X13442Y-4916D01*
X13498Y-5141D01*
X13498Y-5422D01*
X13442Y-5647D01*
X13385Y-5760D01*
X13329Y-5816D01*
X13217Y-5872D01*
X13104Y-5872D01*
X12992Y-5816D01*
X12935Y-5760D01*
X12879Y-5647D01*
X12823Y-5422D01*
X12823Y-5141D01*
X12879Y-4916D01*
X12935Y-4804D01*
X12992Y-4748D01*
X13104Y-4691D01*
X13948Y-4804D02*
X14004Y-4748D01*
X14116Y-4691D01*
X14398Y-4691D01*
X14510Y-4748D01*
X14566Y-4804D01*
X14623Y-4916D01*
X14623Y-5029D01*
X14566Y-5197D01*
X13892Y-5872D01*
X14623Y-5872D01*
X15691Y-4691D02*
X15129Y-4691D01*
X15073Y-5254D01*
X15129Y-5197D01*
X15241Y-5141D01*
X15523Y-5141D01*
X15635Y-5197D01*
X15691Y-5254D01*
X15748Y-5366D01*
X15748Y-5647D01*
X15691Y-5760D01*
X15635Y-5816D01*
X15523Y-5872D01*
X15241Y-5872D01*
X15129Y-5816D01*
X15073Y-5760D01*
X16197Y-4691D02*
X16197Y-4916D01*
X16647Y-4691D02*
X16647Y-4916D01*
X18391Y-6322D02*
X18335Y-6266D01*
X18222Y-6097D01*
X18166Y-5985D01*
X18110Y-5816D01*
X18053Y-5535D01*
X18053Y-5310D01*
X18110Y-5029D01*
X18166Y-4860D01*
X18222Y-4748D01*
X18335Y-4579D01*
X18391Y-4523D01*
X18728Y-4691D02*
X19516Y-4691D01*
X19010Y-5872D01*
X20866Y-5872D02*
X20866Y-4691D01*
X21372Y-5872D02*
X21372Y-5254D01*
X21316Y-5141D01*
X21203Y-5085D01*
X21034Y-5085D01*
X20922Y-5141D01*
X20866Y-5197D01*
X22103Y-5872D02*
X21991Y-5816D01*
X21934Y-5760D01*
X21878Y-5647D01*
X21878Y-5310D01*
X21934Y-5197D01*
X21991Y-5141D01*
X22103Y-5085D01*
X22272Y-5085D01*
X22384Y-5141D01*
X22440Y-5197D01*
X22497Y-5310D01*
X22497Y-5647D01*
X22440Y-5760D01*
X22384Y-5816D01*
X22272Y-5872D01*
X22103Y-5872D01*
X23172Y-5872D02*
X23059Y-5816D01*
X23003Y-5704D01*
X23003Y-4691D01*
X24071Y-5816D02*
X23959Y-5872D01*
X23734Y-5872D01*
X23622Y-5816D01*
X23565Y-5704D01*
X23565Y-5254D01*
X23622Y-5141D01*
X23734Y-5085D01*
X23959Y-5085D01*
X24071Y-5141D01*
X24128Y-5254D01*
X24128Y-5366D01*
X23565Y-5479D01*
X24578Y-5816D02*
X24690Y-5872D01*
X24915Y-5872D01*
X25028Y-5816D01*
X25084Y-5704D01*
X25084Y-5647D01*
X25028Y-5535D01*
X24915Y-5479D01*
X24746Y-5479D01*
X24634Y-5422D01*
X24578Y-5310D01*
X24578Y-5254D01*
X24634Y-5141D01*
X24746Y-5085D01*
X24915Y-5085D01*
X25028Y-5141D01*
X25478Y-6322D02*
X25534Y-6266D01*
X25646Y-6097D01*
X25703Y-5985D01*
X25759Y-5816D01*
X25815Y-5535D01*
X25815Y-5310D01*
X25759Y-5029D01*
X25703Y-4860D01*
X25646Y-4748D01*
X25534Y-4579D01*
X25478Y-4523D01*
X-160Y-6737D02*
X-160Y-7057D01*
X-320Y-6897D02*
X0Y-6897D01*
X1293Y-6250D02*
X1406Y-6250D01*
X1518Y-6307D01*
X1574Y-6363D01*
X1631Y-6475D01*
X1687Y-6700D01*
X1687Y-6982D01*
X1631Y-7206D01*
X1574Y-7319D01*
X1518Y-7375D01*
X1406Y-7431D01*
X1293Y-7431D01*
X1181Y-7375D01*
X1124Y-7319D01*
X1068Y-7206D01*
X1012Y-6982D01*
X1012Y-6700D01*
X1068Y-6475D01*
X1124Y-6363D01*
X1181Y-6307D01*
X1293Y-6250D01*
X2193Y-7319D02*
X2249Y-7375D01*
X2193Y-7431D01*
X2137Y-7375D01*
X2193Y-7319D01*
X2193Y-7431D01*
X2924Y-6757D02*
X2812Y-6700D01*
X2755Y-6644D01*
X2699Y-6532D01*
X2699Y-6475D01*
X2755Y-6363D01*
X2812Y-6307D01*
X2924Y-6250D01*
X3149Y-6250D01*
X3262Y-6307D01*
X3318Y-6363D01*
X3374Y-6475D01*
X3374Y-6532D01*
X3318Y-6644D01*
X3262Y-6700D01*
X3149Y-6757D01*
X2924Y-6757D01*
X2812Y-6813D01*
X2755Y-6869D01*
X2699Y-6982D01*
X2699Y-7206D01*
X2755Y-7319D01*
X2812Y-7375D01*
X2924Y-7431D01*
X3149Y-7431D01*
X3262Y-7375D01*
X3318Y-7319D01*
X3374Y-7206D01*
X3374Y-6982D01*
X3318Y-6869D01*
X3262Y-6813D01*
X3149Y-6757D01*
X4499Y-7431D02*
X3824Y-7431D01*
X4161Y-7431D02*
X4161Y-6250D01*
X4049Y-6419D01*
X3937Y-6532D01*
X3824Y-6588D01*
X5005Y-7431D02*
X5005Y-6644D01*
X5005Y-6757D02*
X5061Y-6700D01*
X5174Y-6644D01*
X5343Y-6644D01*
X5455Y-6700D01*
X5511Y-6813D01*
X5511Y-7431D01*
X5511Y-6813D02*
X5568Y-6700D01*
X5680Y-6644D01*
X5849Y-6644D01*
X5961Y-6700D01*
X6017Y-6813D01*
X6017Y-7431D01*
X6580Y-7431D02*
X6580Y-6644D01*
X6580Y-6757D02*
X6636Y-6700D01*
X6749Y-6644D01*
X6917Y-6644D01*
X7030Y-6700D01*
X7086Y-6813D01*
X7086Y-7431D01*
X7086Y-6813D02*
X7142Y-6700D01*
X7255Y-6644D01*
X7424Y-6644D01*
X7536Y-6700D01*
X7592Y-6813D01*
X7592Y-7431D01*
X9898Y-6194D02*
X8886Y-7713D01*
X11417Y-6250D02*
X11529Y-6250D01*
X11642Y-6307D01*
X11698Y-6363D01*
X11754Y-6475D01*
X11811Y-6700D01*
X11811Y-6982D01*
X11754Y-7206D01*
X11698Y-7319D01*
X11642Y-7375D01*
X11529Y-7431D01*
X11417Y-7431D01*
X11304Y-7375D01*
X11248Y-7319D01*
X11192Y-7206D01*
X11136Y-6982D01*
X11136Y-6700D01*
X11192Y-6475D01*
X11248Y-6363D01*
X11304Y-6307D01*
X11417Y-6250D01*
X12317Y-7319D02*
X12373Y-7375D01*
X12317Y-7431D01*
X12260Y-7375D01*
X12317Y-7319D01*
X12317Y-7431D01*
X13104Y-6250D02*
X13217Y-6250D01*
X13329Y-6307D01*
X13385Y-6363D01*
X13442Y-6475D01*
X13498Y-6700D01*
X13498Y-6982D01*
X13442Y-7206D01*
X13385Y-7319D01*
X13329Y-7375D01*
X13217Y-7431D01*
X13104Y-7431D01*
X12992Y-7375D01*
X12935Y-7319D01*
X12879Y-7206D01*
X12823Y-6982D01*
X12823Y-6700D01*
X12879Y-6475D01*
X12935Y-6363D01*
X12992Y-6307D01*
X13104Y-6250D01*
X13892Y-6250D02*
X14623Y-6250D01*
X14229Y-6700D01*
X14398Y-6700D01*
X14510Y-6757D01*
X14566Y-6813D01*
X14623Y-6925D01*
X14623Y-7206D01*
X14566Y-7319D01*
X14510Y-7375D01*
X14398Y-7431D01*
X14060Y-7431D01*
X13948Y-7375D01*
X13892Y-7319D01*
X15073Y-6363D02*
X15129Y-6307D01*
X15241Y-6250D01*
X15523Y-6250D01*
X15635Y-6307D01*
X15691Y-6363D01*
X15748Y-6475D01*
X15748Y-6588D01*
X15691Y-6757D01*
X15016Y-7431D01*
X15748Y-7431D01*
X16197Y-6250D02*
X16197Y-6475D01*
X16647Y-6250D02*
X16647Y-6475D01*
X18391Y-7881D02*
X18335Y-7825D01*
X18222Y-7656D01*
X18166Y-7544D01*
X18110Y-7375D01*
X18053Y-7094D01*
X18053Y-6869D01*
X18110Y-6588D01*
X18166Y-6419D01*
X18222Y-6307D01*
X18335Y-6138D01*
X18391Y-6082D01*
X19347Y-6250D02*
X19122Y-6250D01*
X19010Y-6307D01*
X18953Y-6363D01*
X18841Y-6532D01*
X18785Y-6757D01*
X18785Y-7206D01*
X18841Y-7319D01*
X18897Y-7375D01*
X19010Y-7431D01*
X19235Y-7431D01*
X19347Y-7375D01*
X19403Y-7319D01*
X19460Y-7206D01*
X19460Y-6925D01*
X19403Y-6813D01*
X19347Y-6757D01*
X19235Y-6700D01*
X19010Y-6700D01*
X18897Y-6757D01*
X18841Y-6813D01*
X18785Y-6925D01*
X20866Y-7431D02*
X20866Y-6250D01*
X21372Y-7431D02*
X21372Y-6813D01*
X21316Y-6700D01*
X21203Y-6644D01*
X21034Y-6644D01*
X20922Y-6700D01*
X20866Y-6757D01*
X22103Y-7431D02*
X21991Y-7375D01*
X21934Y-7319D01*
X21878Y-7206D01*
X21878Y-6869D01*
X21934Y-6757D01*
X21991Y-6700D01*
X22103Y-6644D01*
X22272Y-6644D01*
X22384Y-6700D01*
X22440Y-6757D01*
X22497Y-6869D01*
X22497Y-7206D01*
X22440Y-7319D01*
X22384Y-7375D01*
X22272Y-7431D01*
X22103Y-7431D01*
X23172Y-7431D02*
X23059Y-7375D01*
X23003Y-7263D01*
X23003Y-6250D01*
X24071Y-7375D02*
X23959Y-7431D01*
X23734Y-7431D01*
X23622Y-7375D01*
X23565Y-7263D01*
X23565Y-6813D01*
X23622Y-6700D01*
X23734Y-6644D01*
X23959Y-6644D01*
X24071Y-6700D01*
X24128Y-6813D01*
X24128Y-6925D01*
X23565Y-7038D01*
X24578Y-7375D02*
X24690Y-7431D01*
X24915Y-7431D01*
X25028Y-7375D01*
X25084Y-7263D01*
X25084Y-7206D01*
X25028Y-7094D01*
X24915Y-7038D01*
X24746Y-7038D01*
X24634Y-6982D01*
X24578Y-6869D01*
X24578Y-6813D01*
X24634Y-6700D01*
X24746Y-6644D01*
X24915Y-6644D01*
X25028Y-6700D01*
X25478Y-7881D02*
X25534Y-7825D01*
X25646Y-7656D01*
X25703Y-7544D01*
X25759Y-7375D01*
X25815Y-7094D01*
X25815Y-6869D01*
X25759Y-6588D01*
X25703Y-6419D01*
X25646Y-6307D01*
X25534Y-6138D01*
X25478Y-6082D01*
G54D11*
X-87Y-8668D02*
X-87Y-8244D01*
X-512Y-8244D01*
X-512Y-8668D01*
X-87Y-8668D01*
G54D12*
X1687Y-8991D02*
X1012Y-8991D01*
X1349Y-8991D02*
X1349Y-7809D01*
X1237Y-7978D01*
X1124Y-8091D01*
X1012Y-8147D01*
X2193Y-8878D02*
X2249Y-8934D01*
X2193Y-8991D01*
X2137Y-8934D01*
X2193Y-8878D01*
X2193Y-8991D01*
X3318Y-7809D02*
X2755Y-7809D01*
X2699Y-8372D01*
X2755Y-8316D01*
X2868Y-8259D01*
X3149Y-8259D01*
X3262Y-8316D01*
X3318Y-8372D01*
X3374Y-8484D01*
X3374Y-8766D01*
X3318Y-8878D01*
X3262Y-8934D01*
X3149Y-8991D01*
X2868Y-8991D01*
X2755Y-8934D01*
X2699Y-8878D01*
X3824Y-7922D02*
X3880Y-7866D01*
X3993Y-7809D01*
X4274Y-7809D01*
X4386Y-7866D01*
X4443Y-7922D01*
X4499Y-8034D01*
X4499Y-8147D01*
X4443Y-8316D01*
X3768Y-8991D01*
X4499Y-8991D01*
X5005Y-8991D02*
X5005Y-8203D01*
X5005Y-8316D02*
X5061Y-8259D01*
X5174Y-8203D01*
X5343Y-8203D01*
X5455Y-8259D01*
X5511Y-8372D01*
X5511Y-8991D01*
X5511Y-8372D02*
X5568Y-8259D01*
X5680Y-8203D01*
X5849Y-8203D01*
X5961Y-8259D01*
X6017Y-8372D01*
X6017Y-8991D01*
X6580Y-8991D02*
X6580Y-8203D01*
X6580Y-8316D02*
X6636Y-8259D01*
X6749Y-8203D01*
X6917Y-8203D01*
X7030Y-8259D01*
X7086Y-8372D01*
X7086Y-8991D01*
X7086Y-8372D02*
X7142Y-8259D01*
X7255Y-8203D01*
X7424Y-8203D01*
X7536Y-8259D01*
X7592Y-8372D01*
X7592Y-8991D01*
X9898Y-7753D02*
X8886Y-9272D01*
X11417Y-7809D02*
X11529Y-7809D01*
X11642Y-7866D01*
X11698Y-7922D01*
X11754Y-8034D01*
X11811Y-8259D01*
X11811Y-8541D01*
X11754Y-8766D01*
X11698Y-8878D01*
X11642Y-8934D01*
X11529Y-8991D01*
X11417Y-8991D01*
X11304Y-8934D01*
X11248Y-8878D01*
X11192Y-8766D01*
X11136Y-8541D01*
X11136Y-8259D01*
X11192Y-8034D01*
X11248Y-7922D01*
X11304Y-7866D01*
X11417Y-7809D01*
X12317Y-8878D02*
X12373Y-8934D01*
X12317Y-8991D01*
X12260Y-8934D01*
X12317Y-8878D01*
X12317Y-8991D01*
X13104Y-7809D02*
X13217Y-7809D01*
X13329Y-7866D01*
X13385Y-7922D01*
X13442Y-8034D01*
X13498Y-8259D01*
X13498Y-8541D01*
X13442Y-8766D01*
X13385Y-8878D01*
X13329Y-8934D01*
X13217Y-8991D01*
X13104Y-8991D01*
X12992Y-8934D01*
X12935Y-8878D01*
X12879Y-8766D01*
X12823Y-8541D01*
X12823Y-8259D01*
X12879Y-8034D01*
X12935Y-7922D01*
X12992Y-7866D01*
X13104Y-7809D01*
X14510Y-7809D02*
X14285Y-7809D01*
X14173Y-7866D01*
X14116Y-7922D01*
X14004Y-8091D01*
X13948Y-8316D01*
X13948Y-8766D01*
X14004Y-8878D01*
X14060Y-8934D01*
X14173Y-8991D01*
X14398Y-8991D01*
X14510Y-8934D01*
X14566Y-8878D01*
X14623Y-8766D01*
X14623Y-8484D01*
X14566Y-8372D01*
X14510Y-8316D01*
X14398Y-8259D01*
X14173Y-8259D01*
X14060Y-8316D01*
X14004Y-8372D01*
X13948Y-8484D01*
X15354Y-7809D02*
X15466Y-7809D01*
X15579Y-7866D01*
X15635Y-7922D01*
X15691Y-8034D01*
X15748Y-8259D01*
X15748Y-8541D01*
X15691Y-8766D01*
X15635Y-8878D01*
X15579Y-8934D01*
X15466Y-8991D01*
X15354Y-8991D01*
X15241Y-8934D01*
X15185Y-8878D01*
X15129Y-8766D01*
X15073Y-8541D01*
X15073Y-8259D01*
X15129Y-8034D01*
X15185Y-7922D01*
X15241Y-7866D01*
X15354Y-7809D01*
X16197Y-7809D02*
X16197Y-8034D01*
X16647Y-7809D02*
X16647Y-8034D01*
X18391Y-9440D02*
X18335Y-9384D01*
X18222Y-9215D01*
X18166Y-9103D01*
X18110Y-8934D01*
X18053Y-8653D01*
X18053Y-8428D01*
X18110Y-8147D01*
X18166Y-7978D01*
X18222Y-7866D01*
X18335Y-7697D01*
X18391Y-7641D01*
X19403Y-7809D02*
X18841Y-7809D01*
X18785Y-8372D01*
X18841Y-8316D01*
X18953Y-8259D01*
X19235Y-8259D01*
X19347Y-8316D01*
X19403Y-8372D01*
X19460Y-8484D01*
X19460Y-8766D01*
X19403Y-8878D01*
X19347Y-8934D01*
X19235Y-8991D01*
X18953Y-8991D01*
X18841Y-8934D01*
X18785Y-8878D01*
X20866Y-8991D02*
X20866Y-7809D01*
X21372Y-8991D02*
X21372Y-8372D01*
X21316Y-8259D01*
X21203Y-8203D01*
X21034Y-8203D01*
X20922Y-8259D01*
X20866Y-8316D01*
X22103Y-8991D02*
X21991Y-8934D01*
X21934Y-8878D01*
X21878Y-8766D01*
X21878Y-8428D01*
X21934Y-8316D01*
X21991Y-8259D01*
X22103Y-8203D01*
X22272Y-8203D01*
X22384Y-8259D01*
X22440Y-8316D01*
X22497Y-8428D01*
X22497Y-8766D01*
X22440Y-8878D01*
X22384Y-8934D01*
X22272Y-8991D01*
X22103Y-8991D01*
X23172Y-8991D02*
X23059Y-8934D01*
X23003Y-8822D01*
X23003Y-7809D01*
X24071Y-8934D02*
X23959Y-8991D01*
X23734Y-8991D01*
X23622Y-8934D01*
X23565Y-8822D01*
X23565Y-8372D01*
X23622Y-8259D01*
X23734Y-8203D01*
X23959Y-8203D01*
X24071Y-8259D01*
X24128Y-8372D01*
X24128Y-8484D01*
X23565Y-8597D01*
X24578Y-8934D02*
X24690Y-8991D01*
X24915Y-8991D01*
X25028Y-8934D01*
X25084Y-8822D01*
X25084Y-8766D01*
X25028Y-8653D01*
X24915Y-8597D01*
X24746Y-8597D01*
X24634Y-8541D01*
X24578Y-8428D01*
X24578Y-8372D01*
X24634Y-8259D01*
X24746Y-8203D01*
X24915Y-8203D01*
X25028Y-8259D01*
X25478Y-9440D02*
X25534Y-9384D01*
X25646Y-9215D01*
X25703Y-9103D01*
X25759Y-8934D01*
X25815Y-8653D01*
X25815Y-8428D01*
X25759Y-8147D01*
X25703Y-7978D01*
X25646Y-7866D01*
X25534Y-7697D01*
X25478Y-7641D01*
M02*
