M48
;DRILL file {Pcbnew (2013-mar-13)-testing} date mar 28 may 2013 12:52:47 ART
;FORMAT={-:-/ absolute / inch / decimal}
FMAT,2
INCH,TZ
T1C0.024
T2C0.025
T3C0.032
T4C0.060
%
G90
G05
M72
T1
X1.9213Y-1.2539
X1.9252Y-1.872
X1.9252Y-2.4862
X1.9252Y-3.1161
X2.Y-1.0177
X2.Y-1.4902
X2.0039Y-1.6358
X2.0039Y-2.1083
X2.0039Y-2.25
X2.0039Y-2.7224
X2.0039Y-2.8799
X2.0039Y-3.3524
X2.5118Y-1.0177
X2.5118Y-1.4902
X2.5157Y-1.6358
X2.5157Y-2.1083
X2.5157Y-2.25
X2.5157Y-2.7224
X2.5157Y-2.8799
X2.5157Y-3.3524
T2
X1.3248Y-1.5689
X1.3898Y-2.3209
X1.5453Y-1.4685
X1.5925Y-3.3189
X1.6024Y-2.1693
X1.6811Y-2.7402
X1.748Y-2.1634
T3
X1.3878Y-1.7008
X1.3878Y-1.8008
X1.3878Y-1.9008
X1.3878Y-2.0008
X1.3878Y-2.1008
X1.3878Y-2.2008
T4
X2.9783Y-1.6906
X2.9783Y-1.8906
X2.9783Y-2.0906
X2.9783Y-2.2906
X2.9783Y-2.4906
T0
M30
