G04 (created by PCBNEW-RS274X (2011-nov-30)-testing) date Tue 23 Oct 2012 02:12:19 PM ART*
G01*
G70*
G90*
%MOIN*%
G04 Gerber Fmt 3.4, Leading zero omitted, Abs format*
%FSLAX34Y34*%
G04 APERTURE LIST*
%ADD10C,0.006000*%
%ADD11C,0.012000*%
%ADD12R,0.060000X0.060000*%
%ADD13R,0.036000X0.036000*%
%ADD14R,0.035000X0.055000*%
%ADD15R,0.055000X0.035000*%
%ADD16C,0.060000*%
%ADD17R,0.055000X0.055000*%
%ADD18C,0.055000*%
%ADD19C,0.070000*%
%ADD20R,0.070000X0.070000*%
%ADD21R,0.100000X0.100000*%
%ADD22C,0.100000*%
%ADD23C,0.066000*%
%ADD24C,0.019700*%
%ADD25C,0.059100*%
%ADD26C,0.039400*%
G04 APERTURE END LIST*
G54D10*
G54D11*
X69185Y-37924D02*
X68814Y-37924D01*
X69014Y-38229D01*
X68928Y-38229D01*
X68871Y-38267D01*
X68842Y-38305D01*
X68814Y-38381D01*
X68814Y-38571D01*
X68842Y-38648D01*
X68871Y-38686D01*
X68928Y-38724D01*
X69100Y-38724D01*
X69157Y-38686D01*
X69185Y-38648D01*
X68557Y-38648D02*
X68529Y-38686D01*
X68557Y-38724D01*
X68586Y-38686D01*
X68557Y-38648D01*
X68557Y-38724D01*
X68328Y-37924D02*
X67957Y-37924D01*
X68157Y-38229D01*
X68071Y-38229D01*
X68014Y-38267D01*
X67985Y-38305D01*
X67957Y-38381D01*
X67957Y-38571D01*
X67985Y-38648D01*
X68014Y-38686D01*
X68071Y-38724D01*
X68243Y-38724D01*
X68300Y-38686D01*
X68328Y-38648D01*
X67786Y-37924D02*
X67586Y-38724D01*
X67386Y-37924D01*
X67186Y-38724D02*
X67186Y-37924D01*
X67043Y-37924D01*
X66958Y-37962D01*
X66900Y-38038D01*
X66872Y-38114D01*
X66843Y-38267D01*
X66843Y-38381D01*
X66872Y-38533D01*
X66900Y-38610D01*
X66958Y-38686D01*
X67043Y-38724D01*
X67186Y-38724D01*
X66243Y-38648D02*
X66272Y-38686D01*
X66358Y-38724D01*
X66415Y-38724D01*
X66500Y-38686D01*
X66558Y-38610D01*
X66586Y-38533D01*
X66615Y-38381D01*
X66615Y-38267D01*
X66586Y-38114D01*
X66558Y-38038D01*
X66500Y-37962D01*
X66415Y-37924D01*
X66358Y-37924D01*
X66272Y-37962D01*
X66243Y-38000D01*
X66708Y-40819D02*
X66251Y-40819D01*
X66480Y-41124D02*
X66480Y-40514D01*
X66658Y-39709D02*
X66201Y-39709D01*
X80556Y-37100D02*
X80527Y-37062D01*
X80470Y-37024D01*
X80327Y-37024D01*
X80270Y-37062D01*
X80241Y-37100D01*
X80213Y-37176D01*
X80213Y-37252D01*
X80241Y-37367D01*
X80584Y-37824D01*
X80213Y-37824D01*
X79985Y-37100D02*
X79956Y-37062D01*
X79899Y-37024D01*
X79756Y-37024D01*
X79699Y-37062D01*
X79670Y-37100D01*
X79642Y-37176D01*
X79642Y-37252D01*
X79670Y-37367D01*
X80013Y-37824D01*
X79642Y-37824D01*
X79271Y-37024D02*
X79214Y-37024D01*
X79157Y-37062D01*
X79128Y-37100D01*
X79099Y-37176D01*
X79071Y-37329D01*
X79071Y-37519D01*
X79099Y-37671D01*
X79128Y-37748D01*
X79157Y-37786D01*
X79214Y-37824D01*
X79271Y-37824D01*
X79328Y-37786D01*
X79357Y-37748D01*
X79385Y-37671D01*
X79414Y-37519D01*
X79414Y-37329D01*
X79385Y-37176D01*
X79357Y-37100D01*
X79328Y-37062D01*
X79271Y-37024D01*
X78900Y-37024D02*
X78700Y-37824D01*
X78500Y-37024D01*
X78329Y-37595D02*
X78043Y-37595D01*
X78386Y-37824D02*
X78186Y-37024D01*
X77986Y-37824D01*
X77443Y-37748D02*
X77472Y-37786D01*
X77558Y-37824D01*
X77615Y-37824D01*
X77700Y-37786D01*
X77758Y-37710D01*
X77786Y-37633D01*
X77815Y-37481D01*
X77815Y-37367D01*
X77786Y-37214D01*
X77758Y-37138D01*
X77700Y-37062D01*
X77615Y-37024D01*
X77558Y-37024D01*
X77472Y-37062D01*
X77443Y-37100D01*
G54D12*
X67400Y-45050D03*
G54D13*
X69200Y-44350D03*
X69200Y-45050D03*
X70000Y-44700D03*
G54D14*
X69875Y-42500D03*
X69125Y-42500D03*
X74725Y-42900D03*
X75475Y-42900D03*
G54D15*
X75500Y-42175D03*
X75500Y-41425D03*
G54D12*
X80000Y-44100D03*
G54D16*
X80000Y-43100D03*
G54D17*
X70900Y-42900D03*
G54D18*
X70900Y-43900D03*
X70900Y-44900D03*
X73900Y-44900D03*
X73900Y-43900D03*
X73900Y-42900D03*
X75500Y-44000D03*
X75500Y-46000D03*
G54D12*
X67416Y-40790D03*
G54D16*
X67416Y-39790D03*
G54D19*
X77900Y-42100D03*
X77900Y-43100D03*
G54D20*
X77900Y-44100D03*
G54D14*
X69875Y-43300D03*
X69125Y-43300D03*
G54D21*
X78000Y-38900D03*
G54D22*
X80000Y-38900D03*
G54D19*
X78000Y-60800D03*
X78000Y-61800D03*
G54D20*
X78000Y-62800D03*
G54D19*
X77900Y-48800D03*
X77900Y-49800D03*
G54D20*
X77900Y-50800D03*
G54D19*
X78000Y-54900D03*
X78000Y-55900D03*
G54D20*
X78000Y-56900D03*
G54D13*
X69300Y-56350D03*
X69300Y-57050D03*
X70100Y-56700D03*
X69300Y-50150D03*
X69300Y-50850D03*
X70100Y-50500D03*
X69300Y-62150D03*
X69300Y-62850D03*
X70100Y-62500D03*
G54D14*
X70075Y-60450D03*
X69325Y-60450D03*
X70075Y-55250D03*
X69325Y-55250D03*
X75225Y-60800D03*
X75975Y-60800D03*
G54D15*
X75800Y-53975D03*
X75800Y-53225D03*
G54D14*
X75025Y-54900D03*
X75775Y-54900D03*
G54D15*
X76000Y-59975D03*
X76000Y-59225D03*
G54D14*
X70075Y-54400D03*
X69325Y-54400D03*
X70075Y-49050D03*
X69325Y-49050D03*
X70075Y-61250D03*
X69325Y-61250D03*
G54D15*
X75700Y-47875D03*
X75700Y-47125D03*
G54D14*
X74925Y-48700D03*
X75675Y-48700D03*
X70075Y-48300D03*
X69325Y-48300D03*
G54D12*
X80300Y-62800D03*
G54D16*
X80300Y-61800D03*
G54D12*
X80100Y-50800D03*
G54D16*
X80100Y-49800D03*
G54D12*
X80200Y-56900D03*
G54D16*
X80200Y-55900D03*
G54D12*
X67670Y-62850D03*
X67500Y-57050D03*
X67400Y-50900D03*
G54D23*
X69150Y-58450D03*
X70150Y-58450D03*
X69400Y-52400D03*
X70400Y-52400D03*
X69300Y-64400D03*
X70300Y-64400D03*
G54D17*
X71000Y-60800D03*
G54D18*
X71000Y-61800D03*
X71000Y-62800D03*
X74000Y-62800D03*
X74000Y-61800D03*
X74000Y-60800D03*
G54D17*
X70900Y-54750D03*
G54D18*
X70900Y-55750D03*
X70900Y-56750D03*
X73900Y-56750D03*
X73900Y-55750D03*
X73900Y-54750D03*
G54D17*
X70900Y-48700D03*
G54D18*
X70900Y-49700D03*
X70900Y-50700D03*
X73900Y-50700D03*
X73900Y-49700D03*
X73900Y-48700D03*
X75800Y-56000D03*
X75800Y-58000D03*
X75900Y-62000D03*
X75900Y-64000D03*
X75700Y-49900D03*
X75700Y-51900D03*
G54D23*
X69200Y-46400D03*
X70200Y-46400D03*
G54D24*
X66650Y-46550D02*
X66650Y-44250D01*
X67416Y-43484D02*
X67416Y-40790D01*
X66650Y-44250D02*
X67416Y-43484D01*
X67416Y-40790D02*
X67790Y-40790D01*
X67790Y-40790D02*
X69125Y-42125D01*
X69125Y-42125D02*
X69125Y-42500D01*
X69325Y-60450D02*
X69200Y-60450D01*
X66650Y-57900D02*
X66650Y-52700D01*
X69200Y-60450D02*
X66650Y-57900D01*
X69325Y-60450D02*
X69325Y-61250D01*
X69325Y-54400D02*
X68350Y-54400D01*
X68350Y-54400D02*
X66650Y-52700D01*
X69325Y-55250D02*
X69325Y-54400D01*
X66650Y-46550D02*
X66650Y-52700D01*
X69125Y-42500D02*
X69125Y-43300D01*
X69325Y-48300D02*
X69325Y-49050D01*
X68400Y-48300D02*
X66650Y-46550D01*
X69325Y-48300D02*
X68400Y-48300D01*
G54D25*
X77025Y-47125D02*
X77900Y-48000D01*
X77900Y-48000D02*
X77900Y-48800D01*
X75700Y-47125D02*
X77025Y-47125D01*
X73200Y-52200D02*
X74225Y-53225D01*
X74225Y-53225D02*
X75800Y-53225D01*
X73200Y-52200D02*
X73200Y-52200D01*
X73200Y-45900D02*
X73200Y-52200D01*
X77125Y-53225D02*
X78000Y-54100D01*
X78000Y-54100D02*
X78000Y-54900D01*
X75800Y-53225D02*
X77125Y-53225D01*
X78000Y-38900D02*
X75700Y-38900D01*
X74425Y-47125D02*
X75700Y-47125D01*
X73100Y-45800D02*
X73200Y-45900D01*
X73200Y-45900D02*
X74425Y-47125D01*
X73100Y-41500D02*
X73100Y-45800D01*
X75700Y-38900D02*
X73100Y-41500D01*
X78000Y-38900D02*
X78000Y-42000D01*
X78000Y-42000D02*
X77900Y-42100D01*
G54D26*
X77225Y-41425D02*
X77900Y-42100D01*
X75500Y-41425D02*
X77225Y-41425D01*
G54D25*
X73200Y-57700D02*
X74725Y-59225D01*
X74725Y-59225D02*
X76000Y-59225D01*
X73200Y-52200D02*
X73200Y-57700D01*
X77125Y-59225D02*
X78000Y-60100D01*
X78000Y-60100D02*
X78000Y-60800D01*
X76000Y-59225D02*
X77125Y-59225D01*
X80200Y-55900D02*
X80300Y-55900D01*
X81000Y-55200D02*
X81000Y-48900D01*
X80300Y-55900D02*
X81000Y-55200D01*
X80000Y-43100D02*
X80300Y-43100D01*
X81000Y-48900D02*
X80100Y-49800D01*
X81000Y-43800D02*
X81000Y-48900D01*
X80300Y-43100D02*
X81000Y-43800D01*
X80000Y-38900D02*
X80000Y-43100D01*
X80400Y-61800D02*
X81000Y-61200D01*
X81000Y-61200D02*
X81000Y-55200D01*
X80300Y-61800D02*
X80400Y-61800D01*
G54D24*
X69500Y-40400D02*
X69300Y-40200D01*
X69500Y-43700D02*
X69500Y-40400D01*
X69200Y-44000D02*
X69500Y-43700D01*
X71450Y-46000D02*
X71450Y-42350D01*
X68890Y-39790D02*
X67416Y-39790D01*
X71450Y-42350D02*
X69300Y-40200D01*
X69300Y-40200D02*
X68890Y-39790D01*
X69300Y-56350D02*
X69300Y-56200D01*
X71450Y-52150D02*
X71450Y-46000D01*
X71450Y-46000D02*
X71450Y-45900D01*
X69700Y-53900D02*
X71450Y-52150D01*
X69700Y-55800D02*
X69700Y-53900D01*
X69300Y-56200D02*
X69700Y-55800D01*
X69300Y-50150D02*
X69300Y-49950D01*
X69700Y-47650D02*
X71450Y-45900D01*
X69700Y-49550D02*
X69700Y-47650D01*
X69300Y-62150D02*
X69300Y-62100D01*
X71450Y-58000D02*
X71450Y-52150D01*
X69700Y-59750D02*
X71450Y-58000D01*
X69700Y-61700D02*
X69700Y-59750D01*
X69300Y-62100D02*
X69700Y-61700D01*
X69300Y-49950D02*
X69700Y-49550D01*
X69200Y-44350D02*
X69200Y-44000D01*
X70075Y-55250D02*
X70075Y-55875D01*
X69700Y-57900D02*
X69150Y-58450D01*
X69700Y-56250D02*
X69700Y-57900D01*
X70075Y-55875D02*
X69700Y-56250D01*
G54D26*
X73900Y-54750D02*
X74875Y-54750D01*
X74875Y-54750D02*
X75025Y-54900D01*
X75800Y-53975D02*
X75800Y-54875D01*
X75800Y-54875D02*
X75775Y-54900D01*
X75800Y-54925D02*
X75775Y-54900D01*
X75800Y-56000D02*
X75800Y-54925D01*
X75800Y-58000D02*
X76700Y-58000D01*
X77800Y-56900D02*
X78000Y-56900D01*
X76700Y-58000D02*
X77800Y-56900D01*
G54D25*
X78000Y-56900D02*
X80200Y-56900D01*
G54D24*
X70550Y-54400D02*
X70900Y-54750D01*
X70075Y-54400D02*
X70550Y-54400D01*
X70100Y-56550D02*
X70900Y-55750D01*
X70100Y-56700D02*
X70100Y-56550D01*
X70100Y-58400D02*
X70150Y-58450D01*
X70100Y-56700D02*
X70100Y-58400D01*
G54D26*
X73900Y-56750D02*
X76550Y-56750D01*
X77400Y-55900D02*
X78000Y-55900D01*
X76550Y-56750D02*
X77400Y-55900D01*
G54D24*
X67500Y-57050D02*
X69300Y-57050D01*
X70400Y-52400D02*
X70400Y-51700D01*
X70100Y-51400D02*
X70100Y-50500D01*
X70400Y-51700D02*
X70100Y-51400D01*
X70900Y-49700D02*
X70100Y-50500D01*
X70075Y-61775D02*
X69700Y-62150D01*
X69700Y-62150D02*
X69700Y-64000D01*
X69700Y-64000D02*
X69300Y-64400D01*
X70075Y-61250D02*
X70075Y-61775D01*
G54D26*
X75225Y-60800D02*
X74000Y-60800D01*
X76000Y-60775D02*
X75975Y-60800D01*
X76000Y-59975D02*
X76000Y-60775D01*
X75975Y-61925D02*
X75900Y-62000D01*
X75975Y-60800D02*
X75975Y-61925D01*
G54D25*
X80300Y-62800D02*
X78000Y-62800D01*
G54D26*
X76800Y-64000D02*
X78000Y-62800D01*
X75900Y-64000D02*
X76800Y-64000D01*
G54D24*
X70650Y-60450D02*
X71000Y-60800D01*
X70075Y-60450D02*
X70650Y-60450D01*
X70800Y-61800D02*
X70100Y-62500D01*
X71000Y-61800D02*
X70800Y-61800D01*
X70300Y-63800D02*
X70100Y-63600D01*
X70100Y-63600D02*
X70100Y-62500D01*
X70300Y-64400D02*
X70300Y-63800D01*
G54D26*
X74000Y-62800D02*
X76300Y-62800D01*
X77300Y-61800D02*
X78000Y-61800D01*
X76300Y-62800D02*
X77300Y-61800D01*
G54D24*
X67670Y-62850D02*
X69300Y-62850D01*
X69875Y-43300D02*
X69875Y-44075D01*
X69600Y-46000D02*
X69200Y-46400D01*
X69600Y-44350D02*
X69600Y-46000D01*
X69875Y-44075D02*
X69600Y-44350D01*
G54D26*
X74725Y-42900D02*
X73900Y-42900D01*
X75500Y-42175D02*
X75500Y-42875D01*
X75500Y-42875D02*
X75475Y-42900D01*
X75500Y-44000D02*
X75500Y-42925D01*
X75500Y-42925D02*
X75475Y-42900D01*
G54D25*
X77900Y-44100D02*
X80000Y-44100D01*
G54D26*
X75500Y-46000D02*
X76000Y-46000D01*
X76000Y-46000D02*
X77900Y-44100D01*
G54D24*
X69875Y-42500D02*
X70500Y-42500D01*
X70500Y-42500D02*
X70900Y-42900D01*
X70200Y-46400D02*
X70000Y-46200D01*
X70000Y-46200D02*
X70000Y-44700D01*
X70900Y-43900D02*
X70800Y-43900D01*
X70800Y-43900D02*
X70000Y-44700D01*
G54D26*
X77900Y-43100D02*
X77700Y-43100D01*
X75900Y-44900D02*
X73900Y-44900D01*
X77700Y-43100D02*
X75900Y-44900D01*
G54D24*
X70075Y-49050D02*
X70075Y-49625D01*
X69700Y-52100D02*
X69400Y-52400D01*
X69700Y-50000D02*
X69700Y-52100D01*
X70075Y-49625D02*
X69700Y-50000D01*
G54D26*
X74925Y-48700D02*
X73900Y-48700D01*
X75675Y-48700D02*
X75675Y-49875D01*
X75675Y-49875D02*
X75700Y-49900D01*
X75700Y-47875D02*
X75700Y-48675D01*
X75700Y-48675D02*
X75675Y-48700D01*
G54D25*
X80100Y-50800D02*
X77900Y-50800D01*
G54D26*
X76500Y-51900D02*
X77600Y-50800D01*
X77600Y-50800D02*
X77900Y-50800D01*
X75700Y-51900D02*
X76500Y-51900D01*
G54D24*
X70075Y-48300D02*
X70500Y-48300D01*
X70500Y-48300D02*
X70900Y-48700D01*
G54D26*
X73900Y-50700D02*
X76600Y-50700D01*
X77500Y-49800D02*
X77900Y-49800D01*
X76600Y-50700D02*
X77500Y-49800D01*
G54D24*
X67400Y-50900D02*
X69250Y-50900D01*
X69250Y-50900D02*
X69300Y-50850D01*
X67400Y-45050D02*
X69200Y-45050D01*
M02*
